<?xml version="1.0" standalone="no"?>
<!DOCTYPE svg PUBLIC "-//W3C//DTD SVG 1.1//EN" "http://www.w3.org/Graphics/SVG/1.1/DTD/svg11.dtd" >
<svg>
<metadata>
Created by FontForge 20090622 at Thu Aug 27 09:01:26 2015
 By deploy user
Copyright (c) 1999 by Hubert Jocham. All rights reserved.
</metadata>
<defs>
<font id="NewJuneMedium" horiz-adv-x="590" >
  <font-face 
    font-family="NewJuneMedium"
    font-weight="400"
    font-stretch="normal"
    units-per-em="1000"
    panose-1="2 0 5 3 4 0 0 2 0 4"
    ascent="780"
    descent="-220"
    x-height="546"
    cap-height="744"
    bbox="-61 -198 1287 952"
    underline-thickness="50"
    underline-position="-50"
    unicode-range="U+000D-U+FB02"
  />
<missing-glyph horiz-adv-x="1000" 
 />
    <glyph glyph-name="fi" unicode="fi" horiz-adv-x="618" 
d="M555 710q0 -29 -16 -45.5t-44 -16.5t-43.5 16.5t-15.5 45.5t15.5 45.5t43.5 16.5t44 -16.5t16 -45.5zM198 457v-457h-93v457h-86v80h86v53q0 85 44 130t125 45q35 0 119 -18l-13 -80q-71 16 -100 16q-44 0 -62.5 -23.5t-19.5 -76.5v-46h346v-537h-97v457h-249z" />
    <glyph glyph-name="fl" unicode="fl" horiz-adv-x="613" 
d="M448 0v667q-116 17 -165 17q-46 0 -65.5 -24t-19.5 -77v-46h169v-80h-169v-457h-93v457h-86v80h86v53q0 86 44.5 131t126.5 45q55 0 171 -20l97 24v-770h-96z" />
    <glyph glyph-name=".notdef" horiz-adv-x="1000" 
 />
    <glyph glyph-name=".null" horiz-adv-x="0" 
 />
    <glyph glyph-name=".null" horiz-adv-x="0" 
 />
    <glyph glyph-name="nonmarkingreturn" horiz-adv-x="333" 
 />
    <glyph glyph-name="CR" unicode="&#xd;" horiz-adv-x="259" 
 />
    <glyph glyph-name="space" unicode=" " horiz-adv-x="259" 
 />
    <glyph glyph-name="exclam" unicode="!" horiz-adv-x="219" 
d="M159 242l-96 -17v519h96v-502zM171 53q0 -29 -16 -45.5t-44 -16.5t-43.5 16.5t-15.5 45.5t15.5 45.5t43.5 16.5t44 -16.5t16 -45.5z" />
    <glyph glyph-name="quotedbl" unicode="&#x22;" horiz-adv-x="387" 
d="M154 763l-9 -211h-80l-9 211h98zM330 763l-8 -211h-79l-10 211h97z" />
    <glyph glyph-name="numbersign" unicode="#" horiz-adv-x="706" 
d="M678 530l-12 -80h-131l-31 -165h135l-13 -81h-137l-38 -204h-87l39 204h-158l-40 -204h-89l40 204h-125l12 81h130l32 165h-135l13 80h137l41 214h87l-41 -214h155l41 214h87l-41 -214h129zM449 450h-157l-32 -165h158z" />
    <glyph glyph-name="dollar" unicode="$" 
d="M246 431l128 -31q175 -41 175 -197q0 -96 -59.5 -149.5t-147.5 -59.5v-123h-86v124q-65 6 -159 38l-50 16l19 91l50 -18q122 -42 202 -42q56 0 95.5 30t39.5 89q0 47 -25 73t-83 40l-121 29q-174 41 -174 196q0 97 60 151t146 58v121h86v-123q65 -8 155 -38l50 -16
l-19 -91l-51 17q-120 43 -197 43q-58 0 -96 -29.5t-38 -88.5q0 -44 23.5 -70.5t76.5 -39.5z" />
    <glyph glyph-name="percent" unicode="%" horiz-adv-x="906" 
d="M410 566q0 -91 -50 -143t-137 -52q-86 0 -135.5 52t-49.5 143q0 90 50.5 142t136.5 52q87 0 136 -52t49 -142zM327 566q0 60 -27 92.5t-77 32.5q-49 0 -75 -33t-26 -92q0 -60 27 -93.5t76 -33.5q50 0 76 33t26 94zM793 744l-586 -744h-101l588 744h99zM868 180
q0 -91 -50 -143t-137 -52q-86 0 -135.5 52t-49.5 143q0 90 50.5 142t136.5 52q87 0 136 -52t49 -142zM785 180q0 59 -27.5 92t-76.5 33t-75 -33t-26 -92q0 -60 27 -93.5t76 -33.5q50 0 76 33t26 94z" />
    <glyph glyph-name="ampersand" unicode="&#x26;" horiz-adv-x="713" 
d="M668 0h-118l-47 57q-34 -30 -94 -49.5t-124 -19.5q-113 0 -175 57t-62 142q0 135 150 203q-46 52 -67 89.5t-21 90.5q0 89 61 137.5t155 48.5q93 0 149 -45.5t56 -129.5q0 -74 -47.5 -125.5t-144.5 -91.5l171 -187q23 26 37 77t14 108v85h88v-88q0 -71 -21 -137.5
t-58 -106.5zM442 579q0 45 -29.5 73t-87.5 28q-61 0 -93 -30.5t-32 -79.5q0 -36 19 -67t66 -79q82 31 119.5 66t37.5 89zM447 119l-194 209q-108 -44 -108 -139q0 -50 36 -85.5t108 -35.5q45 0 88.5 14.5t69.5 36.5z" />
    <glyph glyph-name="quotesingle" unicode="'" horiz-adv-x="218" 
d="M161 763l-9 -211h-86l-10 211h105z" />
    <glyph glyph-name="parenleft" unicode="(" horiz-adv-x="298" 
d="M37 341q0 101 15 175.5t37.5 117.5t55.5 68.5t63.5 33.5t67.5 8v-78q-143 -11 -143 -325q0 -88 10.5 -152.5t25 -98t36 -54t37 -25.5t34.5 -7v-78q-33 0 -63 8.5t-63.5 36t-57 71t-39.5 120.5t-16 179z" />
    <glyph glyph-name="parenright" unicode=")" horiz-adv-x="298" 
d="M265 341q0 -102 -16 -179t-40 -120.5t-57.5 -71t-63.5 -36t-63 -8.5v78q19 2 34.5 7t37 25.5t36 54t25 98t10.5 152.5q0 83 -10.5 145t-25 95t-35.5 53t-37 25t-35 7v78q37 0 67.5 -8t64 -33.5t56 -68.5t37.5 -117.5t15 -175.5z" />
    <glyph glyph-name="asterisk" unicode="*" horiz-adv-x="551" 
d="M505 564l-174 -41l116 -137l-81 -56l-90 154l-91 -153l-80 56l116 137l-174 41l28 90l165 -68l-14 176h100l-15 -176l165 67z" />
    <glyph glyph-name="plus" unicode="+" 
d="M534 252h-197v-207h-89v207h-193v84h193v206h89v-206h197v-84z" />
    <glyph glyph-name="comma" unicode="," horiz-adv-x="219" 
d="M182 116l-48 -171q-11 -36 -48 -36q-28 0 -39.5 16.5t-5.5 41.5l38 149h103z" />
    <glyph glyph-name="hyphen" unicode="-" horiz-adv-x="418" 
d="M363 283h-308v86h308v-86z" />
    <glyph glyph-name="period" unicode="." horiz-adv-x="219" 
d="M170 54q0 -29 -15.5 -46t-43.5 -17t-44 17t-16 46t16 46t44 17t43.5 -17t15.5 -46z" />
    <glyph glyph-name="slash" unicode="/" horiz-adv-x="416" 
d="M406 744l-303 -744h-93l306 744h90z" />
    <glyph glyph-name="zero" unicode="0" 
d="M437 238v265q0 165 -140 165t-140 -165v-265q0 -165 140 -165t140 165zM531 503v-264q0 -120 -58.5 -185t-173.5 -65q-114 0 -176 65t-62 182v269q0 117 62 182t176 65t173 -65t59 -184z" />
    <glyph glyph-name="one" unicode="1" 
d="M553 0h-492v84h215v574h-42q-75 0 -113 -20l-20 82q44 24 142 24h56q39 0 59.5 -19.5t20.5 -55.5v-585h174v-84z" />
    <glyph glyph-name="two" unicode="2" 
d="M302 751q101 0 165.5 -52t64.5 -161q0 -125 -132 -247l-227 -210h361v-81h-425q-26 0 -40 15.5t-14 40.5q0 33 23 55l248 234q59 55 84 97.5t26 96.5q0 64 -39 94t-103 30q-61 0 -174 -34l-45 -13l-17 85l45 14q119 36 199 36z" />
    <glyph glyph-name="three" unicode="3" 
d="M547 193q0 -93 -65.5 -147t-176.5 -54q-78 0 -214 37l-47 14l18 84l48 -14q130 -36 190 -36q74 0 112.5 30.5t38.5 84.5q0 48 -40 93l-46 49h-144v80h143l37 50q31 46 31 94q0 105 -136 105q-60 0 -174 -33l-45 -13l-17 85l46 13q123 36 197 36q109 0 167 -48.5
t58 -140.5q0 -65 -43 -129l-41 -55l49 -52q54 -57 54 -133z" />
    <glyph glyph-name="four" unicode="4" 
d="M394 135h-309q-54 0 -54 55q0 26 19 50l302 469q25 41 72 41q65 0 65 -63v-471h84v-81h-84v-135h-95v135zM394 216v394l-254 -394h254z" />
    <glyph glyph-name="five" unicode="5" 
d="M290 78q79 0 120 43.5t41 117.5q0 156 -163 156q-52 0 -133 -21l-67 -19v389h427v-88h-341v-199q75 22 133 22q114 0 176.5 -60t62.5 -180q0 -114 -67.5 -180.5t-184.5 -66.5q-78 0 -194 35l-45 13l17 84l46 -13q120 -33 172 -33z" />
    <glyph glyph-name="six" unicode="6" 
d="M154 513v-62q89 28 151 28q120 0 181 -61.5t61 -177.5q0 -109 -63 -177.5t-180 -68.5q-115 0 -181 68.5t-66 182.5v268q0 106 64 171.5t173 65.5q79 0 194 -34l45 -13l-17 -85l-46 13q-113 32 -172 32q-144 0 -144 -150zM154 369v-121q0 -80 39.5 -125.5t112.5 -45.5
q70 0 107 43t37 118q0 155 -158 155q-43 0 -138 -24z" />
    <glyph glyph-name="seven" unicode="7" 
d="M539 637l-264 -637h-106l278 659h-387v85h431q61 0 61 -55q0 -20 -13 -52z" />
    <glyph glyph-name="eight" unicode="8" 
d="M298 -10q-118 0 -187.5 53t-69.5 146q0 78 54 135l48 52l-40 55q-42 64 -42 129q0 89 62.5 140.5t170.5 51.5q110 0 173 -51.5t63 -140.5q0 -66 -43 -129l-39 -55l48 -52q54 -59 54 -135q0 -93 -67.5 -146t-184.5 -53zM296 73q77 0 117.5 31t40.5 85q0 49 -40 94l-45 49
h-148l-45 -49q-39 -43 -39 -94q0 -53 41.5 -84.5t117.5 -31.5zM295 666q-70 0 -105 -30t-35 -79q0 -45 32 -95l34 -50h149l34 50q32 50 32 95q0 49 -35.5 79t-105.5 30z" />
    <glyph glyph-name="nine" unicode="9" 
d="M439 231v62q-91 -28 -152 -28q-120 0 -181 61t-61 177q0 109 63.5 178t179.5 69q115 0 181 -68.5t66 -182.5v-268q0 -106 -64 -171.5t-173 -65.5q-80 0 -193 34l-46 13l18 85l45 -13q116 -33 172 -33q73 0 109 39.5t36 111.5zM439 375v121q0 80 -40 125t-113 45
q-69 0 -106.5 -43t-37.5 -118q0 -154 159 -154q47 0 138 24z" />
    <glyph glyph-name="colon" unicode=":" horiz-adv-x="219" 
d="M170 54q0 -29 -15.5 -46t-43.5 -17t-44 17t-16 46t16 46t44 17t43.5 -17t15.5 -46zM170 477q0 -29 -15.5 -46t-43.5 -17t-44 17t-16 46t16 46t44 17t43.5 -17t15.5 -46z" />
    <glyph glyph-name="semicolon" unicode=";" horiz-adv-x="219" 
d="M182 116l-48 -171q-11 -36 -48 -36q-28 0 -39.5 16.5t-5.5 41.5l38 149h103zM184 477q0 -29 -16 -46t-44 -17t-44 17t-16 46t16 46t44 17t44 -17t16 -46z" />
    <glyph glyph-name="less" unicode="&#x3c;" 
d="M543 56l-449 174q-46 17 -46 65q0 47 45 64l450 176v-102l-390 -140l390 -139v-98z" />
    <glyph glyph-name="equal" unicode="=" 
d="M534 171h-479v84h479v-84zM534 341h-479v84h479v-84z" />
    <glyph glyph-name="greater" unicode="&#x3e;" 
d="M497 230l-450 -174v98l391 139l-391 140v102l451 -176q44 -17 44 -64q0 -49 -45 -65z" />
    <glyph glyph-name="question" unicode="?" horiz-adv-x="460" 
d="M229 662q-62 0 -138 -22l-45 -13l-16 81l44 13q83 26 160 26q90 0 143 -45t53 -124q0 -52 -18.5 -90t-57.5 -78l-88 -90v-79l-91 -16v63q0 35 6 53t28 41l71 74q32 34 44 57.5t12 58.5q0 42 -26.5 66t-80.5 24zM280 53q0 -29 -15.5 -45.5t-43.5 -16.5t-44 16.5t-16 45.5
t16 45.5t44 16.5t43.5 -16.5t15.5 -45.5z" />
    <glyph glyph-name="at" unicode="@" horiz-adv-x="933" 
d="M849 406q0 -110 -59 -181.5t-139 -71.5q-25 0 -55 12.5t-42 12.5q-19 0 -59 -8t-67 -8q-79 0 -120 47t-41 122q0 92 55.5 155t153.5 63q38 0 94 -7l4 33h74l-45 -340q1 -1 7.5 -5t19.5 -9t25 -5q46 0 83 52t37 139q0 123 -81.5 198t-207.5 75q-144 0 -233.5 -92.5
t-89.5 -236.5q0 -130 74.5 -212.5t202.5 -82.5q48 0 120 19t106 19q37 0 64 -16l50 -30l-28 -55l-48 22q-20 9 -43 9q-24 0 -96.5 -17.5t-130.5 -17.5q-160 0 -254 103t-94 259q0 175 113 288.5t287 113.5q158 0 260.5 -97.5t102.5 -249.5zM529 238l33 242q-46 6 -86 6
q-66 0 -99 -45t-33 -112q0 -47 23 -75.5t70 -28.5q21 0 92 13z" />
    <glyph glyph-name="A" unicode="A" horiz-adv-x="696" 
d="M683 0h-110l-58 157h-336l-58 -157h-108l260 698q18 53 78 53t78 -52zM490 241l-140 402l-146 -402h286z" />
    <glyph glyph-name="B" unicode="B" horiz-adv-x="684" 
d="M407 0h-254q-37 0 -58.5 20t-21.5 54v597q0 34 21 53.5t58 19.5h249q97 0 151 -46t54 -136q0 -64 -43 -129l-41 -55l52 -53q60 -62 60 -136q0 -88 -60 -138.5t-167 -50.5zM505 559q0 104 -113 104h-216v-249h262l37 53q30 43 30 92zM440 333h-264v-251h228q62 0 95 28.5
t33 77.5t-42 93z" />
    <glyph glyph-name="C" unicode="C" horiz-adv-x="675" 
d="M51 370q0 185 93 281.5t243 96.5q80 0 199 -37l54 -17l-17 -90l-57 17q-115 35 -172 35q-111 0 -172.5 -70.5t-61.5 -215.5q0 -144 62 -214.5t173 -70.5q61 0 171 34l57 18l17 -91l-54 -16q-122 -38 -199 -38q-153 0 -244.5 94.5t-91.5 283.5z" />
    <glyph glyph-name="D" unicode="D" horiz-adv-x="733" 
d="M682 370q0 -174 -93 -272t-247 -98h-189q-37 0 -58.5 20t-21.5 54v595q0 34 21.5 54.5t58.5 20.5h192q154 0 245.5 -99.5t91.5 -274.5zM577 370q0 133 -65 211t-180 78h-153v-572h160q113 0 175.5 74t62.5 209z" />
    <glyph glyph-name="E" unicode="E" horiz-adv-x="620" 
d="M569 0h-416q-37 0 -58.5 20t-21.5 54v595q0 34 21.5 54.5t58.5 20.5h413v-86h-387v-236h340v-84h-340v-252h390v-86z" />
    <glyph glyph-name="F" unicode="F" horiz-adv-x="586" 
d="M556 658h-377v-250h345v-84h-345v-324h-106v669q0 34 21.5 54.5t58.5 20.5h403v-86z" />
    <glyph glyph-name="G" unicode="G" horiz-adv-x="730" 
d="M407 -8q-161 0 -258.5 95t-97.5 283q0 184 96.5 281t254.5 97q79 0 208 -38l56 -17l-19 -90l-60 17q-120 35 -181 35q-118 0 -183.5 -71t-65.5 -216t68.5 -217.5t186.5 -72.5q71 0 156 17v188h-174v82h195q36 0 57.5 -20.5t21.5 -53.5v-182q0 -39 -15 -59t-52 -30
q-104 -28 -194 -28z" />
    <glyph glyph-name="H" unicode="H" horiz-adv-x="718" 
d="M644 0h-104v335h-362v-335h-105v744h105v-324h362v324h104v-744z" />
    <glyph glyph-name="I" unicode="I" horiz-adv-x="253" 
d="M179 0h-106v744h106v-744z" />
    <glyph glyph-name="J" unicode="J" horiz-adv-x="390" 
d="M321 744v-557q0 -93 -48.5 -141.5t-135.5 -48.5q-45 0 -127 19l14 88q72 -17 105 -17q47 0 67 25.5t20 81.5v550h105z" />
    <glyph glyph-name="K" unicode="K" horiz-adv-x="668" 
d="M644 0h-112l-191 403l-95 -112q-27 -31 -37.5 -45.5t-21.5 -42t-11 -58.5v-145h-103v744h104v-408l332 408h127l-218 -259z" />
    <glyph glyph-name="L" unicode="L" horiz-adv-x="583" 
d="M541 0h-388q-37 0 -58.5 20t-21.5 54v670h107v-654h361v-90z" />
    <glyph glyph-name="M" unicode="M" horiz-adv-x="878" 
d="M439 125l201 560q22 64 88 64q76 0 76 -72v-677h-95v613l-208 -575q-13 -42 -65 -42q-51 0 -66 42l-204 576v-614h-93v677q0 36 22 54t58 18q72 0 93 -64z" />
    <glyph glyph-name="N" unicode="N" horiz-adv-x="742" 
d="M168 602v-602h-95v681q0 34 19.5 52t53.5 18q50 0 76 -44l352 -563v600h95v-680q0 -69 -73 -69q-49 0 -75 44z" />
    <glyph glyph-name="O" unicode="O" horiz-adv-x="797" 
d="M746 370q0 -180 -95.5 -279t-254.5 -99q-157 0 -251 99.5t-94 278.5q0 178 96 278t254 100q157 0 251 -99.5t94 -278.5zM640 370q0 140 -65 217t-179 77q-113 0 -176 -77t-63 -217t65 -217.5t179 -77.5q113 0 176 77t63 218z" />
    <glyph glyph-name="P" unicode="P" horiz-adv-x="638" 
d="M596 515q0 -107 -64.5 -168.5t-170.5 -61.5h-185v-285h-103v669q0 34 21.5 54.5t58.5 20.5h218q100 0 162.5 -62t62.5 -167zM500 515q0 71 -40 109t-106 38h-178v-293h180q67 0 105.5 38.5t38.5 107.5z" />
    <glyph glyph-name="Q" unicode="Q" horiz-adv-x="781" 
d="M745 371q0 -119 -49 -202.5t-137 -121.5q70 -33 141 -33h33v-82h-37q-71 0 -154.5 34t-137.5 34q-161 0 -257 95.5t-96 274.5q0 178 96 278t254 100q157 0 250.5 -99.5t93.5 -277.5zM640 370q0 140 -65 217t-179 77q-113 0 -176 -77t-63 -217t65 -214.5t179 -74.5
q113 0 176 74t63 215z" />
    <glyph glyph-name="R" unicode="R" horiz-adv-x="670" 
d="M648 0h-113l-133 293h-224v-293h-105v671q0 34 21 53.5t58 19.5h244q101 0 157 -52.5t56 -151.5q0 -75 -57 -148l-55 -69zM508 538q0 124 -121 124h-209v-287h247l38 52q45 65 45 111z" />
    <glyph glyph-name="S" unicode="S" horiz-adv-x="643" 
d="M268 432l139 -31q185 -41 185 -198q0 -103 -69.5 -157t-171.5 -54q-110 0 -242 42l-54 18l21 92l55 -19q128 -44 218 -44q58 0 99 29.5t41 88.5q0 45 -25.5 71.5t-81.5 39.5l-139 31q-185 41 -185 197q0 103 69.5 157t171.5 54q105 0 237 -43l55 -18l-22 -92l-55 19
q-128 44 -213 44q-61 0 -100.5 -29t-39.5 -88q0 -45 25 -71t82 -39z" />
    <glyph glyph-name="T" unicode="T" horiz-adv-x="628" 
d="M599 657h-230v-657h-107v657h-230v87h567v-87z" />
    <glyph glyph-name="U" unicode="U" horiz-adv-x="724" 
d="M655 266q0 -132 -76.5 -205.5t-217.5 -73.5t-217 73.5t-76 205.5v478h105v-480q0 -91 47 -139t141 -48q189 0 189 187v480h105v-478z" />
    <glyph glyph-name="V" unicode="V" horiz-adv-x="679" 
d="M665 744l-255 -700q-17 -50 -74 -50q-56 0 -73 50l-250 700h111l216 -630l217 630h108z" />
    <glyph glyph-name="W" unicode="W" horiz-adv-x="928" 
d="M906 744l-131 -695q-12 -57 -74 -57q-63 0 -76 52l-161 571l-166 -571q-15 -51 -75 -51q-63 0 -72 57l-129 694h100l109 -626l170 581q12 45 65 45t65 -45l166 -582l110 627h99z" />
    <glyph glyph-name="X" unicode="X" horiz-adv-x="710" 
d="M670 0h-120l-194 304l-199 -304h-118l250 375l-246 369h121l194 -295l191 295h117l-242 -367z" />
    <glyph glyph-name="Y" unicode="Y" horiz-adv-x="669" 
d="M660 744l-270 -426v-318h-106v316l-275 428h118l212 -334l205 334h116z" />
    <glyph glyph-name="Z" unicode="Z" horiz-adv-x="653" 
d="M579 633l-405 -549h427v-84h-492q-29 0 -44 16.5t-15 43.5q0 25 19 50l407 549h-413v85h476q29 0 44 -16.5t15 -44.5q0 -25 -19 -50z" />
    <glyph glyph-name="bracketleft" unicode="[" horiz-adv-x="298" 
d="M275 -65h-204v809h204v-78h-112v-653h112v-78z" />
    <glyph glyph-name="backslash" unicode="\" horiz-adv-x="416" 
d="M313 0l-303 744h90l306 -744h-93z" />
    <glyph glyph-name="bracketright" unicode="]" horiz-adv-x="298" 
d="M230 -65h-205v78h112v653h-112v78h205v-809z" />
    <glyph glyph-name="asciicircum" unicode="^" 
d="M535 43h-102l-140 387l-139 -387h-99l178 458q15 44 61 44q44 0 61 -44z" />
    <glyph glyph-name="underscore" unicode="_" horiz-adv-x="500" 
d="M502 -168h-504v77h504v-77z" />
    <glyph glyph-name="grave" unicode="`" horiz-adv-x="542" 
d="M317 634l-149 129h132l79 -75q15 -15 15 -33q0 -14 -10.5 -25.5t-28.5 -11.5q-20 0 -38 16z" />
    <glyph glyph-name="a" unicode="a" horiz-adv-x="600" 
d="M573 56l-36 -67l-49 28q-34 19 -74 8l-37 -9q-90 -23 -147 -23q-86 0 -134.5 40.5t-48.5 112.5q0 165 230 165h140v54q0 103 -117 103q-62 0 -170 -30l-47 -14l-15 81l45 13q113 34 192 34q92 0 147.5 -45t55.5 -140v-272zM418 100v138h-150q-127 0 -127 -88
q0 -80 104 -80q48 0 119 17z" />
    <glyph glyph-name="b" unicode="b" horiz-adv-x="598" 
d="M297 466q-50 -2 -134 -24v-345q86 -19 131 -19q83 0 123 52t40 142q0 194 -160 194zM311 549q120 0 180 -71t60 -206q0 -127 -67.5 -201.5t-185.5 -74.5q-74 0 -167 24q-62 17 -62 77v656l94 18v-250q84 28 148 28z" />
    <glyph glyph-name="c" unicode="c" horiz-adv-x="528" 
d="M145 273q0 -194 158 -194q40 0 131 26l45 12l15 -83l-44 -13q-98 -27 -155 -27q-115 0 -181.5 69.5t-66.5 209.5q0 134 67.5 206.5t180.5 72.5q53 0 155 -28l44 -13l-15 -83l-45 13q-93 25 -132 25q-157 0 -157 -193z" />
    <glyph glyph-name="d" unicode="d" horiz-adv-x="598" 
d="M301 466q-160 0 -160 -194q0 -91 39.5 -142.5t123.5 -51.5q51 0 131 19v345q-90 22 -134 24zM435 753l94 18v-674q0 -62 -62 -77q-95 -24 -170 -24q-119 0 -184.5 72t-65.5 203q0 133 63 205.5t182 72.5q51 0 143 -28v232z" />
    <glyph glyph-name="e" unicode="e" horiz-adv-x="585" 
d="M47 272q0 139 71 210t179 71q114 0 180 -67.5t66 -199.5q0 -50 -47 -50h-354q4 -79 51.5 -118.5t123.5 -39.5q60 0 149 27l54 17l16 -79l-53 -17q-100 -32 -171 -32q-122 0 -193.5 71t-71.5 207zM448 311q0 73 -38 120t-115 47q-68 0 -108 -44.5t-45 -122.5h306z" />
    <glyph glyph-name="f" unicode="f" horiz-adv-x="383" 
d="M393 747l-13 -80q-71 16 -100 16q-44 0 -63 -23.5t-19 -76.5v-46h169v-80h-169v-457h-93v457h-86v80h86v53q0 85 44 130t125 45q38 0 119 -18z" />
    <glyph glyph-name="g" unicode="g" horiz-adv-x="601" 
d="M425 372q0 101 -144 101t-144 -101q0 -104 144 -104t144 104zM482 -16q0 59 -92 59h-221q-29 -32 -29 -74q0 -79 155 -79q187 0 187 94zM52 -34q0 56 39 104l50 61q18 24 18 47q0 32 -36 56q-21 16 -35 29.5t-27.5 43t-13.5 65.5q0 85 62 128.5t169 43.5h57q70 0 104 10
l120 33l20 -75l-112 -32q5 -4 13 -11.5t21.5 -35.5t13.5 -61q0 -84 -60.5 -126.5t-170.5 -42.5l-58 5q12 -12 12 -36q0 -27 -23 -55h179q86 0 130.5 -35t44.5 -95q0 -167 -281 -167q-66 0 -117 13.5t-85 47t-34 85.5z" />
    <glyph glyph-name="h" unicode="h" horiz-adv-x="573" 
d="M298 463q-45 0 -135 -23v-440h-94v753l94 18v-251q92 29 149 29q106 0 152.5 -53.5t46.5 -142.5v-353h-94v348q0 115 -119 115z" />
    <glyph glyph-name="i" unicode="i" horiz-adv-x="246" 
d="M171 0h-95v546h95v-546zM183 705q0 -29 -16 -45.5t-44 -16.5t-44 16.5t-16 45.5t16 45.5t44 16.5t44 -16.5t16 -45.5z" />
    <glyph glyph-name="j" unicode="j" horiz-adv-x="253" 
d="M178 546v-551q0 -86 -47 -131t-134 -45v77q47 1 66 25t19 77v548h96zM189 705q0 -29 -15.5 -45.5t-43.5 -16.5t-44 16.5t-16 45.5t16 45.5t44 16.5t43.5 -16.5t15.5 -45.5z" />
    <glyph glyph-name="k" unicode="k" horiz-adv-x="560" 
d="M542 0h-110l-147 284l-58 -58q-34 -34 -49.5 -61.5t-15.5 -73.5v-91h-93v753l93 18v-505l252 280h119l-175 -189z" />
    <glyph glyph-name="l" unicode="l" horiz-adv-x="235" 
d="M166 0h-97v752l97 19v-771z" />
    <glyph glyph-name="m" unicode="m" horiz-adv-x="867" 
d="M163 445v-445h-94v449q0 57 62 76q76 25 156 25q92 0 139 -44q100 44 182 44q97 0 143.5 -50t46.5 -138v-362h-94v353q0 112 -106 112q-53 0 -130 -29q14 -34 14 -76v-360h-94v353q0 112 -107 112q-56 0 -118 -20z" />
    <glyph glyph-name="n" unicode="n" horiz-adv-x="584" 
d="M164 445v-445h-95v449q0 61 62 76q92 25 174 25q108 0 159 -53.5t51 -142.5v-354h-95v345q0 120 -123 120q-53 0 -133 -20z" />
    <glyph glyph-name="o" unicode="o" horiz-adv-x="612" 
d="M566 273q0 -132 -71 -205.5t-191 -73.5q-119 0 -188 73.5t-69 205.5t70.5 205.5t190.5 73.5t189 -73.5t69 -205.5zM469 273q0 96 -43 149t-122 53q-78 0 -119 -52.5t-41 -149.5q0 -98 42.5 -150t121.5 -52q78 0 119.5 52t41.5 150z" />
    <glyph glyph-name="p" unicode="p" horiz-adv-x="598" 
d="M297 80q160 0 160 194q0 90 -39.5 141.5t-123.5 51.5q-50 0 -131 -19v-344q91 -24 134 -24zM163 -168l-94 -18v635q0 61 62 76q99 25 170 25q119 0 184.5 -72t65.5 -203q0 -133 -63.5 -206t-181.5 -73q-51 0 -143 28v-192z" />
    <glyph glyph-name="q" unicode="q" horiz-adv-x="598" 
d="M301 80q46 0 134 24v344q-81 19 -131 19q-84 0 -123.5 -51.5t-39.5 -141.5q0 -194 160 -194zM287 -4q-120 0 -180 71.5t-60 206.5q0 127 67.5 201.5t185.5 74.5q71 0 167 -25q62 -15 62 -76v-617l-94 -18v210q-88 -28 -148 -28z" />
    <glyph glyph-name="r" unicode="r" horiz-adv-x="365" 
d="M353 550v-86q-116 0 -189 -20v-444h-95v448q0 60 62 77q89 25 222 25z" />
    <glyph glyph-name="s" unicode="s" horiz-adv-x="549" 
d="M236 320l106 -18q149 -25 149 -146q0 -79 -56 -121t-140 -42q-86 0 -196 32l-44 14l16 81l46 -14q111 -32 178 -32q45 0 74 19t29 58q0 60 -86 72l-105 19q-72 12 -110.5 49.5t-38.5 97.5q0 79 56 121t140 42q87 0 195 -33l45 -13l-16 -82l-47 14q-109 32 -178 32
q-45 0 -74 -19t-29 -58q0 -58 86 -73z" />
    <glyph glyph-name="t" unicode="t" horiz-adv-x="417" 
d="M376 92l13 -80q-81 -18 -121 -18q-166 0 -166 182v281h-84v80h84v131l94 18v-149h179v-80h-179v-280q0 -52 18.5 -76.5t63.5 -24.5q28 0 98 16z" />
    <glyph glyph-name="u" unicode="u" horiz-adv-x="584" 
d="M420 100v446h95v-449q0 -61 -62 -77q-93 -24 -174 -24q-108 0 -159 53t-51 143v354h94v-345q0 -121 123 -121q54 0 134 20z" />
    <glyph glyph-name="v" unicode="v" horiz-adv-x="550" 
d="M528 546l-186 -509q-16 -47 -72 -47q-55 0 -72 47l-176 509h104l147 -451l153 451h102z" />
    <glyph glyph-name="w" unicode="w" horiz-adv-x="799" 
d="M768 546l-109 -503q-11 -53 -69 -53q-55 0 -70 50l-121 378l-128 -380q-16 -47 -70 -47q-59 0 -70 52l-100 503h98l80 -445l135 410q12 38 56 38t56 -38l133 -412l83 447h96z" />
    <glyph glyph-name="x" unicode="x" horiz-adv-x="560" 
d="M537 0h-114l-142 210l-143 -210h-111l194 274l-190 272h113l140 -203l132 203h112l-185 -266z" />
    <glyph glyph-name="y" unicode="y" horiz-adv-x="543" 
d="M162 -182q-43 0 -114 19l13 80q72 -18 97 -18q60 0 74 58l7 25l-217 564h106l160 -450l137 450h103l-202 -600q-22 -66 -60.5 -97t-103.5 -31z" />
    <glyph glyph-name="z" unicode="z" horiz-adv-x="539" 
d="M59 546h383q27 0 40.5 -15.5t13.5 -40.5q0 -27 -20 -50l-313 -364h333v-76h-395q-54 0 -54 55q0 27 20 52l313 362h-321v77z" />
    <glyph glyph-name="braceleft" unicode="{" horiz-adv-x="293" 
d="M170 339q41 -26 41 -77q0 -27 -23.5 -89.5t-23.5 -96.5q0 -64 64 -64h42v-79h-50q-66 0 -105 35t-39 97q0 45 25.5 109.5t25.5 83.5q0 50 -70 50v61q70 0 70 50q0 18 -25.5 83.5t-25.5 109.5q0 62 39 97t105 35h50v-80h-42q-64 0 -64 -64q0 -34 23.5 -96t23.5 -89
q0 -51 -41 -76z" />
    <glyph glyph-name="bar" unicode="|" horiz-adv-x="233" 
d="M161 -180h-89v943h89v-943z" />
    <glyph glyph-name="braceright" unicode="}" horiz-adv-x="293" 
d="M128 339q-41 24 -41 76q0 27 23.5 89t23.5 96q0 64 -64 64h-43v80h51q66 0 105 -35t39 -97q0 -45 -26 -110t-26 -83q0 -50 71 -50v-61q-71 0 -71 -50q0 -19 26 -84t26 -109q0 -62 -39 -97t-105 -35h-51v79h43q64 0 64 64q0 34 -23.5 96.5t-23.5 89.5q0 52 41 77z" />
    <glyph glyph-name="asciitilde" unicode="~" 
d="M392 218q-51 0 -94 31l-56 41q-26 20 -50 20q-26 0 -46.5 -18t-39.5 -64l-67 43q25 65 66.5 95.5t89.5 30.5q50 0 94 -31l55 -41q26 -20 51 -20q51 0 85 82l66 -43q-48 -126 -154 -126z" />
    <glyph glyph-name="exclamdown" unicode="&#xa1;" horiz-adv-x="219" 
d="M63 316l97 17v-519h-97v502zM52 505q0 29 15.5 45.5t43.5 16.5t44 -16.5t16 -45.5t-16 -46t-44 -17t-43.5 17t-15.5 46z" />
    <glyph glyph-name="cent" unicode="&#xa2;" 
d="M160 273q0 -193 159 -193q36 0 131 25l45 13l15 -83l-45 -13q-79 -21 -118 -24v-130h-86v131q-94 13 -146.5 81.5t-52.5 192.5q0 118 53.5 188.5t145.5 85.5v128h86v-128q39 -3 118 -24l45 -12l-15 -83l-45 12q-95 25 -132 25q-158 0 -158 -192z" />
    <glyph glyph-name="sterling" unicode="&#xa3;" 
d="M392 0h-326q-38 0 -38 40q0 41 38 41q75 0 102.5 35t27.5 89q0 34 -13 67h-127v73h92q-46 76 -61.5 115t-15.5 92q0 92 62 145.5t163 53.5q80 0 195 -35l45 -14l-17 -85l-45 14q-106 32 -171 32q-69 0 -102.5 -30.5t-33.5 -82.5q0 -42 12 -72.5t52 -104.5q10 -17 15 -27
h186v-74h-156q10 -33 10 -67q0 -74 -43 -122h146q46 0 70 18.5t25 62.5h76q0 -79 -43 -121.5t-125 -42.5z" />
    <glyph glyph-name="yen" unicode="&#xa5;" 
d="M568 744l-183 -323h160v-72h-195v-69h195v-73h-195v-207h-106v207h-197v73h197v69h-197v72h160l-184 323h114l162 -310l158 310h111z" />
    <glyph glyph-name="brokenbar" unicode="&#xa6;" horiz-adv-x="233" 
d="M161 388h-89v375h89v-375zM161 -180h-89v376h89v-376z" />
    <glyph glyph-name="section" unicode="&#xa7;" 
d="M149 371v-51q0 -73 35 -112t120 -39q47 0 138 24v52q0 73 -35 111.5t-120 38.5q-46 0 -138 -24zM53 321v192q0 106 64.5 171.5t176.5 65.5q79 0 194 -34l45 -13l-17 -85l-46 13q-113 32 -171 32q-150 0 -150 -150v-62q89 28 151 28q238 0 238 -234v-194
q0 -106 -64.5 -171.5t-176.5 -65.5q-79 0 -194 33l-45 14l17 84l45 -12q116 -33 172 -33q76 0 113 39.5t37 110.5v63q-87 -28 -151 -28q-238 0 -238 236z" />
    <glyph glyph-name="dieresis" unicode="&#xa8;" horiz-adv-x="572" 
d="M231 705q0 -29 -15.5 -45.5t-42.5 -16.5t-42.5 16.5t-15.5 45.5t15.5 45.5t42.5 16.5t42.5 -16.5t15.5 -45.5zM460 705q0 -29 -15.5 -45.5t-42.5 -16.5q-28 0 -43.5 16.5t-15.5 45.5t15.5 45.5t43.5 16.5q27 0 42.5 -16.5t15.5 -45.5z" />
    <glyph glyph-name="copyright" unicode="&#xa9;" horiz-adv-x="933" 
d="M857 367q0 -168 -114 -280t-277 -112q-164 0 -278 112t-114 280q0 169 113.5 279.5t278.5 110.5q164 0 277.5 -109.5t113.5 -280.5zM783 367q0 142 -91 231.5t-226 89.5q-136 0 -227.5 -90t-91.5 -231q0 -140 92 -231t227 -91q134 0 225.5 91.5t91.5 230.5zM350 365
q0 -140 122 -140q28 0 100 18l35 10l14 -65l-35 -10q-74 -20 -119 -20q-91 0 -143 51.5t-52 155.5q0 101 53 155.5t142 54.5q41 0 119 -21l35 -9l-14 -65l-35 9q-72 18 -100 18q-122 0 -122 -142z" />
    <glyph glyph-name="ordfeminine" unicode="&#xaa;" 
d="M502 374l-29 -57l-46 22q-27 9 -62 1l-43 -9q-52 -10 -79 -10q-67 0 -104 34.5t-37 89.5q0 127 171 127h104v32q0 75 -78 75q-52 0 -121 -18l-50 -13l-14 67l45 12q90 24 144 24q69 0 111 -35t42 -111v-205zM377 405v104h-105q-45 0 -66.5 -13.5t-21.5 -46.5
q0 -63 72 -63q29 0 82 11z" />
    <glyph glyph-name="guillemotleft" unicode="&#xab;" horiz-adv-x="567" 
d="M49 281q0 26 23 51l141 139h110l-190 -190l190 -190h-110l-141 139q-23 25 -23 51zM261 281q0 26 23 51l141 139h111l-190 -190l190 -190h-111l-141 139q-23 25 -23 51z" />
    <glyph glyph-name="logicalnot" unicode="&#xac;" 
d="M532 87h-88v210h-392v84h480v-294z" />
    <glyph glyph-name="registered" unicode="&#xae;" horiz-adv-x="933" 
d="M656 169h-79l-66 142h-118v-142h-73v350q0 53 59 53h130q56 0 89 -31.5t33 -84.5q0 -42 -24 -77l-31 -45zM557 455q0 28 -17 43t-45 15h-102v-143h126l24 36q14 22 14 49zM857 367q0 -168 -114 -280t-277 -112q-164 0 -278 112t-114 280q0 169 113.5 279.5t278.5 110.5
q164 0 277.5 -109.5t113.5 -280.5zM783 367q0 142 -91 231.5t-226 89.5q-136 0 -227.5 -90t-91.5 -231q0 -140 92 -231t227 -91q134 0 225.5 91.5t91.5 230.5z" />
    <glyph glyph-name="macron" unicode="&#xaf;" horiz-adv-x="531" 
d="M435 650h-337v82h337v-82z" />
    <glyph glyph-name="degree" unicode="&#xb0;" horiz-adv-x="476" 
d="M429 569q0 -86 -51.5 -141t-137.5 -55q-87 0 -138 55t-51 141q0 84 52.5 139.5t138.5 55.5t136.5 -55t50.5 -140zM351 569q0 56 -29.5 91t-81.5 35t-80.5 -34.5t-28.5 -91.5q0 -58 29.5 -93.5t81.5 -35.5t80.5 35.5t28.5 93.5z" />
    <glyph glyph-name="plusminus" unicode="&#xb1;" 
d="M534 290h-197v-162h-89v162h-193v83h193v169h89v-169h197v-83zM534 0h-479v79h479v-79z" />
    <glyph glyph-name="acute" unicode="&#xb4;" horiz-adv-x="542" 
d="M414 763l-149 -129q-18 -16 -38 -16q-18 0 -28.5 11.5t-10.5 25.5q0 18 15 33l79 75h132z" />
    <glyph glyph-name="mu" unicode="&#xb5;" 
d="M69 546h94v-345q0 -119 123 -119q54 0 134 20v444h95v-447q0 -61 -62 -77q-89 -24 -174 -24q-81 -2 -116 29v-213h-94v732z" />
    <glyph glyph-name="paragraph" unicode="&#xb6;" horiz-adv-x="635" 
d="M572 -186h-84v854h-130v-854h-85v412q-112 4 -171.5 76t-59.5 183q0 113 63.5 186t183.5 73h283v-930z" />
    <glyph glyph-name="periodcentered" unicode="&#xb7;" horiz-adv-x="374" 
d="M249 366q0 -29 -16 -46t-44 -17t-44 17t-16 46t16 46t44 17t44 -17t16 -46z" />
    <glyph glyph-name="cedilla" unicode="&#xb8;" horiz-adv-x="531" 
d="M362 -116q0 -36 -26.5 -59t-73.5 -23q-41 0 -91 21l15 48q41 -18 75 -18q43 0 43 29q0 20 -22 26t-66 4l-5 9l41 79h47l-24 -49q39 0 63 -17t24 -50z" />
    <glyph glyph-name="ordmasculine" unicode="&#xba;" 
d="M486 538q0 -101 -52.5 -158.5t-141.5 -57.5q-90 0 -141.5 57t-51.5 159q0 100 52.5 157.5t142.5 57.5q89 0 140.5 -57.5t51.5 -157.5zM404 538q0 70 -30 109.5t-82 39.5q-53 0 -81 -39t-28 -110q0 -72 29 -111.5t82 -39.5t81.5 40t28.5 111z" />
    <glyph glyph-name="guillemotright" unicode="&#xbb;" horiz-adv-x="567" 
d="M518 281q0 -26 -23 -51l-141 -139h-110l189 190l-189 190h110l141 -139q23 -25 23 -51zM305 281q0 -28 -23 -51l-141 -139h-110l190 190l-190 190h110l141 -139q23 -23 23 -51z" />
    <glyph glyph-name="questiondown" unicode="&#xbf;" horiz-adv-x="460" 
d="M232 -104q47 0 137 23l46 12l16 -81l-44 -13q-90 -26 -160 -26q-89 0 -142.5 45.5t-53.5 124.5q0 88 75 165l89 91v79l91 17v-64q0 -35 -6 -53t-28 -41l-71 -73q-32 -36 -44.5 -59t-12.5 -58q0 -41 27 -65t81 -24zM181 504q0 29 15.5 46t43.5 17t44 -17t16 -46t-16 -45.5
t-44 -16.5t-43.5 16.5t-15.5 45.5z" />
    <glyph glyph-name="Agrave" unicode="&#xc0;" horiz-adv-x="696" 
d="M683 0h-110l-58 157h-336l-58 -157h-108l260 698q18 53 78 53t78 -52zM490 241l-140 402l-146 -402h286zM379 807l-149 129h132l79 -75q15 -15 15 -33q0 -14 -10.5 -25.5t-28.5 -11.5q-20 0 -38 16z" />
    <glyph glyph-name="Aacute" unicode="&#xc1;" horiz-adv-x="696" 
d="M683 0h-110l-58 157h-336l-58 -157h-108l260 698q18 53 78 53t78 -52zM490 241l-140 402l-146 -402h286zM471 936l-149 -129q-18 -16 -38 -16q-18 0 -28.5 11.5t-10.5 25.5q0 18 15 33l79 75h132z" />
    <glyph glyph-name="Acircumflex" unicode="&#xc2;" horiz-adv-x="696" 
d="M683 0h-110l-58 157h-336l-58 -157h-108l260 698q18 53 78 53t78 -52zM490 241l-140 402l-146 -402h286zM350 952q33 0 55 -22l133 -129h-125l-63 80l-62 -80h-125l131 129q24 22 56 22z" />
    <glyph glyph-name="Atilde" unicode="&#xc3;" horiz-adv-x="696" 
d="M683 0h-110l-58 157h-336l-58 -157h-108l260 698q18 53 78 53t78 -52zM490 241l-140 402l-146 -402h286zM431 792q-41 0 -76 26l-45 32q-20 16 -41 16q-43 0 -69 -66l-62 35q20 57 57 83.5t77 26.5q43 0 75 -25l46 -33q21 -15 41 -15q42 0 68 66l62 -36
q-20 -56 -56.5 -83t-76.5 -27z" />
    <glyph glyph-name="Adieresis" unicode="&#xc4;" horiz-adv-x="696" 
d="M683 0h-110l-58 157h-336l-58 -157h-108l260 698q18 53 78 53t78 -52zM490 241l-140 402l-146 -402h286zM295 863q0 -29 -15.5 -45.5t-42.5 -16.5t-42.5 16.5t-15.5 45.5t15.5 45.5t42.5 16.5t42.5 -16.5t15.5 -45.5zM524 863q0 -29 -15.5 -45.5t-42.5 -16.5
q-28 0 -43.5 16.5t-15.5 45.5t15.5 45.5t43.5 16.5q27 0 42.5 -16.5t15.5 -45.5z" />
    <glyph glyph-name="Aring" unicode="&#xc5;" horiz-adv-x="696" 
d="M683 0h-110l-58 157h-336l-58 -157h-108l267 717q-44 26 -44 83q0 48 33 78t82 30q50 0 83.5 -30t33.5 -78q0 -56 -46 -84zM490 241l-140 402l-146 -402h286zM351 856q-26 0 -42 -16t-16 -40q0 -25 16 -41t42 -16t42.5 16t16.5 41q0 24 -16 40t-43 16z" />
    <glyph glyph-name="AE" unicode="&#xc6;" horiz-adv-x="1033" 
d="M983 0h-416q-37 0 -58 20t-21 53v84h-302l-62 -157h-111l278 677q27 67 104 67h585v-86h-388v-236h347v-83h-347v-253h391v-86zM488 241v417h-107l-165 -417h272z" />
    <glyph glyph-name="Ccedilla" unicode="&#xc7;" horiz-adv-x="675" 
d="M51 370q0 185 93 281.5t243 96.5q80 0 199 -37l54 -17l-17 -90l-57 17q-115 35 -172 35q-111 0 -172.5 -70.5t-61.5 -215.5q0 -144 62 -214.5t173 -70.5q61 0 171 34l57 18l17 -91l-54 -16q-122 -38 -199 -38q-153 0 -244.5 94.5t-91.5 283.5zM475 -116q0 -36 -26.5 -59
t-73.5 -23q-41 0 -91 21l15 48q41 -18 75 -18q43 0 43 29q0 20 -22 26t-66 4l-5 9l41 79h47l-24 -49q39 0 63 -17t24 -50z" />
    <glyph glyph-name="Egrave" unicode="&#xc8;" horiz-adv-x="620" 
d="M569 0h-416q-37 0 -58.5 20t-21.5 54v595q0 34 21.5 54.5t58.5 20.5h413v-86h-387v-236h340v-84h-340v-252h390v-86zM335 807l-149 129h132l79 -75q15 -15 15 -33q0 -14 -10.5 -25.5t-28.5 -11.5q-20 0 -38 16z" />
    <glyph glyph-name="Eacute" unicode="&#xc9;" horiz-adv-x="620" 
d="M569 0h-416q-37 0 -58.5 20t-21.5 54v595q0 34 21.5 54.5t58.5 20.5h413v-86h-387v-236h340v-84h-340v-252h390v-86zM466 936l-149 -129q-18 -16 -38 -16q-18 0 -28.5 11.5t-10.5 25.5q0 18 15 33l79 75h132z" />
    <glyph glyph-name="Ecircumflex" unicode="&#xca;" horiz-adv-x="620" 
d="M569 0h-416q-37 0 -58.5 20t-21.5 54v595q0 34 21.5 54.5t58.5 20.5h413v-86h-387v-236h340v-84h-340v-252h390v-86zM321 952q33 0 55 -22l133 -129h-125l-63 80l-62 -80h-125l131 129q24 22 56 22z" />
    <glyph glyph-name="Edieresis" unicode="&#xcb;" horiz-adv-x="620" 
d="M569 0h-416q-37 0 -58.5 20t-21.5 54v595q0 34 21.5 54.5t58.5 20.5h413v-86h-387v-236h340v-84h-340v-252h390v-86zM268 862q0 -29 -15.5 -45.5t-42.5 -16.5t-42.5 16.5t-15.5 45.5t15.5 45.5t42.5 16.5t42.5 -16.5t15.5 -45.5zM497 862q0 -29 -15.5 -45.5t-42.5 -16.5
q-28 0 -43.5 16.5t-15.5 45.5t15.5 45.5t43.5 16.5q27 0 42.5 -16.5t15.5 -45.5z" />
    <glyph glyph-name="Igrave" unicode="&#xcc;" horiz-adv-x="253" 
d="M179 0h-106v744h106v-744zM143 806l-149 129h132l79 -75q15 -15 15 -33q0 -14 -10.5 -25.5t-28.5 -11.5q-20 0 -38 16z" />
    <glyph glyph-name="Iacute" unicode="&#xcd;" horiz-adv-x="253" 
d="M179 0h-106v744h106v-744zM269 935l-149 -129q-18 -16 -38 -16q-18 0 -28.5 11.5t-10.5 25.5q0 18 15 33l79 75h132z" />
    <glyph glyph-name="Icircumflex" unicode="&#xce;" horiz-adv-x="253" 
d="M179 0h-106v744h106v-744zM127 952q33 0 55 -22l133 -129h-125l-63 80l-62 -80h-125l131 129q24 22 56 22z" />
    <glyph glyph-name="Idieresis" unicode="&#xcf;" horiz-adv-x="253" 
d="M179 0h-106v744h106v-744zM71 863q0 -29 -15.5 -45.5t-42.5 -16.5t-42.5 16.5t-15.5 45.5t15.5 45.5t42.5 16.5t42.5 -16.5t15.5 -45.5zM300 863q0 -29 -15.5 -45.5t-42.5 -16.5q-28 0 -43.5 16.5t-15.5 45.5t15.5 45.5t43.5 16.5q27 0 42.5 -16.5t15.5 -45.5z" />
    <glyph glyph-name="Eth" unicode="&#xd0;" horiz-adv-x="736" 
d="M686 370q0 -174 -93 -272t-247 -98h-189q-40 0 -60 22.5t-20 61.5v259h-67v74h67v242q0 39 20 62t60 23h191q155 0 246.5 -99.5t91.5 -274.5zM581 370q0 137 -67 213t-188 76h-144v-242h210v-74h-210v-256h151q118 0 183 72t65 211z" />
    <glyph glyph-name="Ntilde" unicode="&#xd1;" horiz-adv-x="742" 
d="M168 602v-602h-95v681q0 34 19.5 52t53.5 18q50 0 76 -44l352 -563v600h95v-680q0 -69 -73 -69q-49 0 -75 44zM458 793q-41 0 -76 26l-45 32q-20 16 -41 16q-43 0 -69 -66l-62 35q20 57 57 83.5t77 26.5q43 0 75 -25l46 -33q21 -15 41 -15q42 0 68 66l62 -36
q-20 -56 -56.5 -83t-76.5 -27z" />
    <glyph glyph-name="Ograve" unicode="&#xd2;" horiz-adv-x="797" 
d="M746 370q0 -180 -95.5 -279t-254.5 -99q-157 0 -251 99.5t-94 278.5q0 178 96 278t254 100q157 0 251 -99.5t94 -278.5zM640 370q0 140 -65 217t-179 77q-113 0 -176 -77t-63 -217t65 -217.5t179 -77.5q113 0 176 77t63 218zM412 806l-149 129h132l79 -75q15 -15 15 -33
q0 -14 -10.5 -25.5t-28.5 -11.5q-20 0 -38 16z" />
    <glyph glyph-name="Oacute" unicode="&#xd3;" horiz-adv-x="797" 
d="M746 370q0 -180 -95.5 -279t-254.5 -99q-157 0 -251 99.5t-94 278.5q0 178 96 278t254 100q157 0 251 -99.5t94 -278.5zM640 370q0 140 -65 217t-179 77q-113 0 -176 -77t-63 -217t65 -217.5t179 -77.5q113 0 176 77t63 218zM544 935l-149 -129q-18 -16 -38 -16
q-18 0 -28.5 11.5t-10.5 25.5q0 18 15 33l79 75h132z" />
    <glyph glyph-name="Ocircumflex" unicode="&#xd4;" horiz-adv-x="797" 
d="M746 370q0 -180 -95.5 -279t-254.5 -99q-157 0 -251 99.5t-94 278.5q0 178 96 278t254 100q157 0 251 -99.5t94 -278.5zM640 370q0 140 -65 217t-179 77q-113 0 -176 -77t-63 -217t65 -217.5t179 -77.5q113 0 176 77t63 218zM402 952q33 0 55 -22l133 -129h-125l-63 80
l-62 -80h-125l131 129q24 22 56 22z" />
    <glyph glyph-name="Otilde" unicode="&#xd5;" horiz-adv-x="797" 
d="M746 370q0 -180 -95.5 -279t-254.5 -99q-157 0 -251 99.5t-94 278.5q0 178 96 278t254 100q157 0 251 -99.5t94 -278.5zM640 370q0 140 -65 217t-179 77q-113 0 -176 -77t-63 -217t65 -217.5t179 -77.5q113 0 176 77t63 218zM480 795q-41 0 -76 26l-45 32q-20 16 -41 16
q-43 0 -69 -66l-62 35q20 57 57 83.5t77 26.5q43 0 75 -25l46 -33q21 -15 41 -15q42 0 68 66l62 -36q-20 -56 -56.5 -83t-76.5 -27z" />
    <glyph glyph-name="Odieresis" unicode="&#xd6;" horiz-adv-x="797" 
d="M746 370q0 -180 -95.5 -279t-254.5 -99q-157 0 -251 99.5t-94 278.5q0 178 96 278t254 100q157 0 251 -99.5t94 -278.5zM640 370q0 140 -65 217t-179 77q-113 0 -176 -77t-63 -217t65 -217.5t179 -77.5q113 0 176 77t63 218zM342 862q0 -29 -15.5 -45.5t-42.5 -16.5
t-42.5 16.5t-15.5 45.5t15.5 45.5t42.5 16.5t42.5 -16.5t15.5 -45.5zM571 862q0 -29 -15.5 -45.5t-42.5 -16.5q-28 0 -43.5 16.5t-15.5 45.5t15.5 45.5t43.5 16.5q27 0 42.5 -16.5t15.5 -45.5z" />
    <glyph glyph-name="multiply" unicode="&#xd7;" 
d="M358 290l163 -164l-63 -62l-164 163l-163 -163l-63 62l163 164l-163 165l63 62l163 -163l164 163l63 -62z" />
    <glyph glyph-name="Oslash" unicode="&#xd8;" horiz-adv-x="797" 
d="M746 370q0 -180 -95.5 -279t-254.5 -99q-87 0 -149 29l-40 -73h-82l58 108q-132 99 -132 314q0 178 96 278t254 100q79 0 143 -26l39 70h81l-56 -104q138 -101 138 -318zM640 370q0 155 -80 229l-271 -500q50 -25 112 -25q113 0 176 77t63 219zM157 370q0 -152 75 -227
l270 500q-52 22 -106 22q-113 0 -176 -77.5t-63 -217.5z" />
    <glyph glyph-name="Ugrave" unicode="&#xd9;" horiz-adv-x="724" 
d="M655 266q0 -132 -76.5 -205.5t-217.5 -73.5t-217 73.5t-76 205.5v478h105v-480q0 -91 47 -139t141 -48q189 0 189 187v480h105v-478zM371 807l-149 129h132l79 -75q15 -15 15 -33q0 -14 -10.5 -25.5t-28.5 -11.5q-20 0 -38 16z" />
    <glyph glyph-name="Uacute" unicode="&#xda;" horiz-adv-x="724" 
d="M655 266q0 -132 -76.5 -205.5t-217.5 -73.5t-217 73.5t-76 205.5v478h105v-480q0 -91 47 -139t141 -48q189 0 189 187v480h105v-478zM511 936l-149 -129q-18 -16 -38 -16q-18 0 -28.5 11.5t-10.5 25.5q0 18 15 33l79 75h132z" />
    <glyph glyph-name="Ucircumflex" unicode="&#xdb;" horiz-adv-x="724" 
d="M655 266q0 -132 -76.5 -205.5t-217.5 -73.5t-217 73.5t-76 205.5v478h105v-480q0 -91 47 -139t141 -48q189 0 189 187v480h105v-478zM365 952q33 0 55 -22l133 -129h-125l-63 80l-62 -80h-125l131 129q24 22 56 22z" />
    <glyph glyph-name="Udieresis" unicode="&#xdc;" horiz-adv-x="724" 
d="M655 266q0 -132 -76.5 -205.5t-217.5 -73.5t-217 73.5t-76 205.5v478h105v-480q0 -91 47 -139t141 -48q189 0 189 187v480h105v-478zM312 862q0 -29 -15.5 -45.5t-42.5 -16.5t-42.5 16.5t-15.5 45.5t15.5 45.5t42.5 16.5t42.5 -16.5t15.5 -45.5zM541 862
q0 -29 -15.5 -45.5t-42.5 -16.5q-28 0 -43.5 16.5t-15.5 45.5t15.5 45.5t43.5 16.5q27 0 42.5 -16.5t15.5 -45.5z" />
    <glyph glyph-name="Yacute" unicode="&#xdd;" horiz-adv-x="669" 
d="M660 744l-270 -426v-318h-106v316l-275 428h118l212 -334l205 334h116zM502 936l-149 -129q-18 -16 -38 -16q-18 0 -28.5 11.5t-10.5 25.5q0 18 15 33l79 75h132z" />
    <glyph glyph-name="Thorn" unicode="&#xde;" horiz-adv-x="638" 
d="M596 389q0 -107 -64.5 -168.5t-170.5 -61.5h-185v-159h-103v744h103v-126h195q100 0 162.5 -62t62.5 -167zM500 390q0 70 -40 108t-106 38h-178v-293h180q67 0 105.5 39t38.5 108z" />
    <glyph glyph-name="germandbls" unicode="&#xdf;" horiz-adv-x="571" 
d="M529 186q0 -85 -55.5 -135.5t-148.5 -50.5h-85v80h83q58 0 85.5 29t27.5 78q0 46 -47 90l-62 57q-48 43 -12 97l42 62q26 39 26 91q0 45 -32 75t-83 30q-109 0 -109 -122v-567h-94v566q0 103 57 153.5t146 50.5q92 0 150 -48.5t58 -136.5q0 -67 -40 -125l-48 -69l68 -59
q73 -63 73 -146z" />
    <glyph glyph-name="agrave" unicode="&#xe0;" horiz-adv-x="600" 
d="M573 56l-36 -67l-49 28q-34 19 -74 8l-37 -9q-90 -23 -147 -23q-86 0 -134.5 40.5t-48.5 112.5q0 165 230 165h140v54q0 103 -117 103q-62 0 -170 -30l-47 -14l-15 81l45 13q113 34 192 34q92 0 147.5 -45t55.5 -140v-272zM418 100v138h-150q-127 0 -127 -88
q0 -80 104 -80q48 0 119 17zM312 634l-149 129h132l79 -75q15 -15 15 -33q0 -14 -10.5 -25.5t-28.5 -11.5q-20 0 -38 16z" />
    <glyph glyph-name="aacute" unicode="&#xe1;" horiz-adv-x="600" 
d="M573 56l-36 -67l-49 28q-34 19 -74 8l-37 -9q-90 -23 -147 -23q-86 0 -134.5 40.5t-48.5 112.5q0 165 230 165h140v54q0 103 -117 103q-62 0 -170 -30l-47 -14l-15 81l45 13q113 34 192 34q92 0 147.5 -45t55.5 -140v-272zM418 100v138h-150q-127 0 -127 -88
q0 -80 104 -80q48 0 119 17zM456 763l-149 -129q-18 -16 -38 -16q-18 0 -28.5 11.5t-10.5 25.5q0 18 15 33l79 75h132z" />
    <glyph glyph-name="acircumflex" unicode="&#xe2;" horiz-adv-x="600" 
d="M573 56l-36 -67l-49 28q-34 19 -74 8l-37 -9q-90 -23 -147 -23q-86 0 -134.5 40.5t-48.5 112.5q0 165 230 165h140v54q0 103 -117 103q-62 0 -170 -30l-47 -14l-15 81l45 13q113 34 192 34q92 0 147.5 -45t55.5 -140v-272zM418 100v138h-150q-127 0 -127 -88
q0 -80 104 -80q48 0 119 17zM305 765q33 0 55 -22l133 -129h-125l-63 80l-62 -80h-125l131 129q24 22 56 22z" />
    <glyph glyph-name="atilde" unicode="&#xe3;" horiz-adv-x="600" 
d="M573 56l-36 -67l-49 28q-34 19 -74 8l-37 -9q-90 -23 -147 -23q-86 0 -134.5 40.5t-48.5 112.5q0 165 230 165h140v54q0 103 -117 103q-62 0 -170 -30l-47 -14l-15 81l45 13q113 34 192 34q92 0 147.5 -45t55.5 -140v-272zM418 100v138h-150q-127 0 -127 -88
q0 -80 104 -80q48 0 119 17zM380 613q-41 0 -76 26l-45 32q-20 16 -41 16q-43 0 -69 -66l-62 35q20 57 57 83.5t77 26.5q43 0 75 -25l46 -33q21 -15 41 -15q42 0 68 66l62 -36q-20 -56 -56.5 -83t-76.5 -27z" />
    <glyph glyph-name="adieresis" unicode="&#xe4;" horiz-adv-x="600" 
d="M573 56l-36 -67l-49 28q-34 19 -74 8l-37 -9q-90 -23 -147 -23q-86 0 -134.5 40.5t-48.5 112.5q0 165 230 165h140v54q0 103 -117 103q-62 0 -170 -30l-47 -14l-15 81l45 13q113 34 192 34q92 0 147.5 -45t55.5 -140v-272zM418 100v138h-150q-127 0 -127 -88
q0 -80 104 -80q48 0 119 17zM252 705q0 -29 -15.5 -45.5t-42.5 -16.5t-42.5 16.5t-15.5 45.5t15.5 45.5t42.5 16.5t42.5 -16.5t15.5 -45.5zM481 705q0 -29 -15.5 -45.5t-42.5 -16.5q-28 0 -43.5 16.5t-15.5 45.5t15.5 45.5t43.5 16.5q27 0 42.5 -16.5t15.5 -45.5z" />
    <glyph glyph-name="aring" unicode="&#xe5;" horiz-adv-x="600" 
d="M573 56l-36 -67l-49 28q-34 19 -74 8l-37 -9q-90 -23 -147 -23q-86 0 -134.5 40.5t-48.5 112.5q0 165 230 165h140v54q0 103 -117 103q-62 0 -170 -30l-47 -14l-15 81l45 13q113 34 192 34q92 0 147.5 -45t55.5 -140v-272zM418 100v138h-150q-127 0 -127 -88
q0 -80 104 -80q48 0 119 17zM297 589q-49 0 -82.5 31t-33.5 78q0 48 33 78t83 30t83 -30t33 -78q0 -47 -33.5 -78t-82.5 -31zM297 754q-26 0 -42 -16t-16 -40q0 -25 16 -41t42 -16t42.5 16t16.5 41q0 24 -16.5 40t-42.5 16z" />
    <glyph glyph-name="ae" unicode="&#xe6;" horiz-adv-x="956" 
d="M682 -6q-82 0 -141 33q-32 16 -70 8l-92 -20q-100 -21 -149 -22q-86 0 -134.5 40.5t-48.5 112.5q0 165 234 165h136v54q0 103 -117 103q-62 0 -170 -30l-47 -14l-15 81l45 14q112 33 192 33q127 0 174 -85q67 86 188 86q115 0 181 -67.5t66 -199.5q0 -50 -55 -50h-346
q4 -79 52 -118.5t125 -39.5q58 0 146 27l55 17l16 -79l-53 -17q-100 -32 -172 -32zM245 70q48 0 119 17l94 20q-34 52 -38 131h-152q-127 0 -127 -88q0 -80 104 -80zM819 311q0 74 -38.5 120.5t-115.5 46.5q-67 0 -107.5 -44.5t-44.5 -122.5h306z" />
    <glyph glyph-name="ccedilla" unicode="&#xe7;" horiz-adv-x="528" 
d="M145 273q0 -194 158 -194q40 0 131 26l45 12l15 -83l-44 -13q-98 -27 -155 -27q-115 0 -181.5 69.5t-66.5 209.5q0 134 67.5 206.5t180.5 72.5q53 0 155 -28l44 -13l-15 -83l-45 13q-93 25 -132 25q-157 0 -157 -193zM381 -116q0 -36 -26.5 -59t-73.5 -23q-41 0 -91 21
l15 48q41 -18 75 -18q43 0 43 29q0 20 -22 26t-66 4l-5 9l41 79h47l-24 -49q39 0 63 -17t24 -50z" />
    <glyph glyph-name="egrave" unicode="&#xe8;" horiz-adv-x="585" 
d="M47 272q0 139 71 210t179 71q114 0 180 -67.5t66 -199.5q0 -50 -47 -50h-354q4 -79 51.5 -118.5t123.5 -39.5q60 0 149 27l54 17l16 -79l-53 -17q-100 -32 -171 -32q-122 0 -193.5 71t-71.5 207zM448 311q0 73 -38 120t-115 47q-68 0 -108 -44.5t-45 -122.5h306zM307 634
l-149 129h132l79 -75q15 -15 15 -33q0 -14 -10.5 -25.5t-28.5 -11.5q-20 0 -38 16z" />
    <glyph glyph-name="eacute" unicode="&#xe9;" horiz-adv-x="585" 
d="M47 272q0 139 71 210t179 71q114 0 180 -67.5t66 -199.5q0 -50 -47 -50h-354q4 -79 51.5 -118.5t123.5 -39.5q60 0 149 27l54 17l16 -79l-53 -17q-100 -32 -171 -32q-122 0 -193.5 71t-71.5 207zM448 311q0 73 -38 120t-115 47q-68 0 -108 -44.5t-45 -122.5h306zM463 763
l-149 -129q-18 -16 -38 -16q-18 0 -28.5 11.5t-10.5 25.5q0 18 15 33l79 75h132z" />
    <glyph glyph-name="ecircumflex" unicode="&#xea;" horiz-adv-x="585" 
d="M47 272q0 139 71 210t179 71q114 0 180 -67.5t66 -199.5q0 -50 -47 -50h-354q4 -79 51.5 -118.5t123.5 -39.5q60 0 149 27l54 17l16 -79l-53 -17q-100 -32 -171 -32q-122 0 -193.5 71t-71.5 207zM448 311q0 73 -38 120t-115 47q-68 0 -108 -44.5t-45 -122.5h306zM300 765
q33 0 55 -22l133 -129h-125l-63 80l-62 -80h-125l131 129q24 22 56 22z" />
    <glyph glyph-name="edieresis" unicode="&#xeb;" horiz-adv-x="585" 
d="M47 272q0 139 71 210t179 71q114 0 180 -67.5t66 -199.5q0 -50 -47 -50h-354q4 -79 51.5 -118.5t123.5 -39.5q60 0 149 27l54 17l16 -79l-53 -17q-100 -32 -171 -32q-122 0 -193.5 71t-71.5 207zM448 311q0 73 -38 120t-115 47q-68 0 -108 -44.5t-45 -122.5h306zM243 705
q0 -29 -15.5 -45.5t-42.5 -16.5t-42.5 16.5t-15.5 45.5t15.5 45.5t42.5 16.5t42.5 -16.5t15.5 -45.5zM472 705q0 -29 -15.5 -45.5t-42.5 -16.5q-28 0 -43.5 16.5t-15.5 45.5t15.5 45.5t43.5 16.5q27 0 42.5 -16.5t15.5 -45.5z" />
    <glyph glyph-name="igrave" unicode="&#xec;" horiz-adv-x="246" 
d="M171 0h-95v546h95v-546zM120 634l-149 129h132l79 -75q15 -15 15 -33q0 -14 -10.5 -25.5t-28.5 -11.5q-20 0 -38 16z" />
    <glyph glyph-name="iacute" unicode="&#xed;" horiz-adv-x="246" 
d="M171 0h-95v546h95v-546zM270 763l-149 -129q-18 -16 -38 -16q-18 0 -28.5 11.5t-10.5 25.5q0 18 15 33l79 75h132z" />
    <glyph glyph-name="icircumflex" unicode="&#xee;" horiz-adv-x="246" 
d="M171 0h-95v546h95v-546zM126 765q33 0 55 -22l133 -129h-125l-63 80l-62 -80h-125l131 129q24 22 56 22z" />
    <glyph glyph-name="idieresis" unicode="&#xef;" horiz-adv-x="246" 
d="M171 0h-95v546h95v-546zM69 705q0 -29 -15.5 -45.5t-42.5 -16.5t-42.5 16.5t-15.5 45.5t15.5 45.5t42.5 16.5t42.5 -16.5t15.5 -45.5zM298 705q0 -29 -15.5 -45.5t-42.5 -16.5q-28 0 -43.5 16.5t-15.5 45.5t15.5 45.5t43.5 16.5q27 0 42.5 -16.5t15.5 -45.5z" />
    <glyph glyph-name="eth" unicode="&#xf0;" horiz-adv-x="624" 
d="M314 436q-163 0 -163 -177q0 -85 41 -135t117 -50q79 0 117 46.5t38 130.5v160q-88 23 -150 25zM301 517q58 0 163 -30v38q0 58 -23 98l-146 -78v76l102 52q-33 18 -90 18h-67v72h75q109 0 164 -45l94 52v-76l-50 -27q37 -61 37 -154v-266q0 -115 -66 -184t-188 -69
q-119 0 -185 75t-66 191q0 111 62.5 184t183.5 73z" />
    <glyph glyph-name="ntilde" unicode="&#xf1;" horiz-adv-x="584" 
d="M164 445v-445h-95v449q0 61 62 76q92 25 174 25q108 0 159 -53.5t51 -142.5v-354h-95v345q0 120 -123 120q-53 0 -133 -20zM376 613q-41 0 -76 26l-45 32q-20 16 -41 16q-43 0 -69 -66l-62 35q20 57 57 83.5t77 26.5q43 0 75 -25l46 -33q21 -15 41 -15q42 0 68 66l62 -36
q-20 -56 -56.5 -83t-76.5 -27z" />
    <glyph glyph-name="ograve" unicode="&#xf2;" horiz-adv-x="612" 
d="M566 273q0 -132 -71 -205.5t-191 -73.5q-119 0 -188 73.5t-69 205.5t70.5 205.5t190.5 73.5t189 -73.5t69 -205.5zM469 273q0 96 -43 149t-122 53q-78 0 -119 -52.5t-41 -149.5q0 -98 42.5 -150t121.5 -52q78 0 119.5 52t41.5 150zM328 634l-149 129h132l79 -75
q15 -15 15 -33q0 -14 -10.5 -25.5t-28.5 -11.5q-20 0 -38 16z" />
    <glyph glyph-name="oacute" unicode="&#xf3;" horiz-adv-x="612" 
d="M566 273q0 -132 -71 -205.5t-191 -73.5q-119 0 -188 73.5t-69 205.5t70.5 205.5t190.5 73.5t189 -73.5t69 -205.5zM469 273q0 96 -43 149t-122 53q-78 0 -119 -52.5t-41 -149.5q0 -98 42.5 -150t121.5 -52q78 0 119.5 52t41.5 150zM444 763l-149 -129q-18 -16 -38 -16
q-18 0 -28.5 11.5t-10.5 25.5q0 18 15 33l79 75h132z" />
    <glyph glyph-name="ocircumflex" unicode="&#xf4;" horiz-adv-x="612" 
d="M566 273q0 -132 -71 -205.5t-191 -73.5q-119 0 -188 73.5t-69 205.5t70.5 205.5t190.5 73.5t189 -73.5t69 -205.5zM469 273q0 96 -43 149t-122 53q-78 0 -119 -52.5t-41 -149.5q0 -98 42.5 -150t121.5 -52q78 0 119.5 52t41.5 150zM309 765q33 0 55 -22l133 -129h-125
l-63 80l-62 -80h-125l131 129q24 22 56 22z" />
    <glyph glyph-name="otilde" unicode="&#xf5;" horiz-adv-x="612" 
d="M566 273q0 -132 -71 -205.5t-191 -73.5q-119 0 -188 73.5t-69 205.5t70.5 205.5t190.5 73.5t189 -73.5t69 -205.5zM469 273q0 96 -43 149t-122 53q-78 0 -119 -52.5t-41 -149.5q0 -98 42.5 -150t121.5 -52q78 0 119.5 52t41.5 150zM392 613q-41 0 -76 26l-45 32
q-20 16 -41 16q-43 0 -69 -66l-62 35q20 57 57 83.5t77 26.5q43 0 75 -25l46 -33q21 -15 41 -15q42 0 68 66l62 -36q-20 -56 -56.5 -83t-76.5 -27z" />
    <glyph glyph-name="odieresis" unicode="&#xf6;" horiz-adv-x="612" 
d="M566 273q0 -132 -71 -205.5t-191 -73.5q-119 0 -188 73.5t-69 205.5t70.5 205.5t190.5 73.5t189 -73.5t69 -205.5zM469 273q0 96 -43 149t-122 53q-78 0 -119 -52.5t-41 -149.5q0 -98 42.5 -150t121.5 -52q78 0 119.5 52t41.5 150zM254 705q0 -29 -15.5 -45.5
t-42.5 -16.5t-42.5 16.5t-15.5 45.5t15.5 45.5t42.5 16.5t42.5 -16.5t15.5 -45.5zM483 705q0 -29 -15.5 -45.5t-42.5 -16.5q-28 0 -43.5 16.5t-15.5 45.5t15.5 45.5t43.5 16.5q27 0 42.5 -16.5t15.5 -45.5z" />
    <glyph glyph-name="divide" unicode="&#xf7;" 
d="M351 496q0 -27 -15.5 -43.5t-42.5 -16.5t-42.5 16.5t-15.5 43.5t15.5 43.5t42.5 16.5t42.5 -16.5t15.5 -43.5zM351 91q0 -27 -15.5 -43.5t-42.5 -16.5t-42.5 16.5t-15.5 43.5t15.5 43.5t42.5 16.5t42.5 -16.5t15.5 -43.5zM534 252h-479v84h479v-84z" />
    <glyph glyph-name="oslash" unicode="&#xf8;" horiz-adv-x="612" 
d="M175 -52h-75l48 91q-101 71 -101 234q0 132 70.5 205.5t190.5 73.5q53 0 102 -18l30 57h75l-47 -88q98 -71 98 -230q0 -132 -71 -205.5t-191 -73.5q-54 0 -97 15zM471 273q0 98 -47 150l-179 -342q25 -11 63 -11q79 0 121 52.5t42 150.5zM142 273q0 -105 50 -155l180 344
q-33 14 -68 14q-78 0 -120 -53t-42 -150z" />
    <glyph glyph-name="ugrave" unicode="&#xf9;" horiz-adv-x="584" 
d="M420 100v446h95v-449q0 -61 -62 -77q-93 -24 -174 -24q-108 0 -159 53t-51 143v354h94v-345q0 -121 123 -121q54 0 134 20zM299 634l-149 129h132l79 -75q15 -15 15 -33q0 -14 -10.5 -25.5t-28.5 -11.5q-20 0 -38 16z" />
    <glyph glyph-name="uacute" unicode="&#xfa;" horiz-adv-x="584" 
d="M420 100v446h95v-449q0 -61 -62 -77q-93 -24 -174 -24q-108 0 -159 53t-51 143v354h94v-345q0 -121 123 -121q54 0 134 20zM438 763l-149 -129q-18 -16 -38 -16q-18 0 -28.5 11.5t-10.5 25.5q0 18 15 33l79 75h132z" />
    <glyph glyph-name="ucircumflex" unicode="&#xfb;" horiz-adv-x="584" 
d="M420 100v446h95v-449q0 -61 -62 -77q-93 -24 -174 -24q-108 0 -159 53t-51 143v354h94v-345q0 -121 123 -121q54 0 134 20zM296 765q33 0 55 -22l133 -129h-125l-63 80l-62 -80h-125l131 129q24 22 56 22z" />
    <glyph glyph-name="udieresis" unicode="&#xfc;" horiz-adv-x="584" 
d="M420 100v446h95v-449q0 -61 -62 -77q-93 -24 -174 -24q-108 0 -159 53t-51 143v354h94v-345q0 -121 123 -121q54 0 134 20zM238 705q0 -29 -15.5 -45.5t-42.5 -16.5t-42.5 16.5t-15.5 45.5t15.5 45.5t42.5 16.5t42.5 -16.5t15.5 -45.5zM467 705q0 -29 -15.5 -45.5
t-42.5 -16.5q-28 0 -43.5 16.5t-15.5 45.5t15.5 45.5t43.5 16.5q27 0 42.5 -16.5t15.5 -45.5z" />
    <glyph glyph-name="yacute" unicode="&#xfd;" horiz-adv-x="543" 
d="M162 -182q-43 0 -114 19l13 80q72 -18 97 -18q60 0 74 58l7 25l-217 564h106l160 -450l137 450h103l-202 -600q-22 -66 -60.5 -97t-103.5 -31zM444 763l-149 -129q-18 -16 -38 -16q-18 0 -28.5 11.5t-10.5 25.5q0 18 15 33l79 75h132z" />
    <glyph glyph-name="thorn" unicode="&#xfe;" horiz-adv-x="598" 
d="M297 80q160 0 160 194q0 193 -162 193q-44 0 -132 -20v-343q91 -24 134 -24zM69 -186v939l94 18v-242q88 20 144 20q119 0 181.5 -71t62.5 -203q0 -133 -63.5 -206t-181.5 -73q-51 0 -143 28v-192z" />
    <glyph glyph-name="ydieresis" unicode="&#xff;" horiz-adv-x="543" 
d="M162 -182q-43 0 -114 19l13 80q72 -18 97 -18q60 0 74 58l7 25l-217 564h106l160 -450l137 450h103l-202 -600q-22 -66 -60.5 -97t-103.5 -31zM228 705q0 -29 -15.5 -45.5t-42.5 -16.5t-42.5 16.5t-15.5 45.5t15.5 45.5t42.5 16.5t42.5 -16.5t15.5 -45.5zM457 705
q0 -29 -15.5 -45.5t-42.5 -16.5q-28 0 -43.5 16.5t-15.5 45.5t15.5 45.5t43.5 16.5q27 0 42.5 -16.5t15.5 -45.5z" />
    <glyph glyph-name="dotlessi" unicode="&#x131;" horiz-adv-x="246" 
d="M171 0h-95v546h95v-546z" />
    <glyph glyph-name="Lslash" unicode="&#x141;" horiz-adv-x="586" 
d="M348 482l-165 -75v-317h360v-90h-387q-37 0 -58.5 20t-21.5 54v287l-66 -30v84l66 30v299h107v-254l165 76v-84z" />
    <glyph glyph-name="lslash" unicode="&#x142;" horiz-adv-x="251" 
d="M176 0h-97v380l-65 -40v90l65 40v283l97 19v-245l65 40v-91l-65 -40v-436z" />
    <glyph glyph-name="OE" unicode="&#x152;" horiz-adv-x="1100" 
d="M1049 0h-659q-154 0 -247 98t-93 272q0 175 91.5 274.5t245.5 99.5h659v-87h-387v-236h341v-83h-341v-253h390v-85zM155 370q0 -135 62.5 -209t175.5 -74h160v571h-153q-115 0 -180 -77.5t-65 -210.5z" />
    <glyph glyph-name="oe" unicode="&#x153;" horiz-adv-x="1007" 
d="M308 552q145 0 209 -110q62 111 202 111q114 0 180 -67.5t66 -199.5q0 -50 -47 -50h-354q4 -79 51.5 -118.5t123.5 -39.5q64 0 149 27l54 17l16 -79l-53 -17q-100 -32 -171 -32q-154 0 -218 110q-64 -110 -212 -110q-119 0 -188 73.5t-69 205.5t70.5 205.5t190.5 73.5z
M469 273q0 96 -43 149t-122 53q-78 0 -119 -52.5t-41 -149.5q0 -98 42.5 -150t121.5 -52q78 0 119.5 52t41.5 150zM870 311q0 73 -38 120t-115 47q-68 0 -108 -44.5t-45 -122.5h306z" />
    <glyph glyph-name="Scaron" unicode="&#x160;" horiz-adv-x="640" 
d="M268 432l139 -31q185 -41 185 -198q0 -103 -69.5 -157t-171.5 -54q-110 0 -242 42l-54 18l21 92l55 -19q128 -44 218 -44q58 0 99 29.5t41 88.5q0 45 -25.5 71.5t-81.5 39.5l-139 31q-185 41 -185 197q0 103 69.5 157t171.5 54q105 0 237 -43l55 -18l-22 -92l-55 19
q-128 44 -213 44q-61 0 -100.5 -29t-39.5 -88q0 -45 25 -71t82 -39zM333 787q-35 0 -55 22l-133 129h125l63 -80l62 80h125l-131 -129q-24 -22 -56 -22z" />
    <glyph glyph-name="scaron" unicode="&#x161;" horiz-adv-x="546" 
d="M237 320l106 -18q149 -25 149 -146q0 -79 -56 -121t-140 -42q-86 0 -196 32l-44 14l16 81l46 -14q111 -32 178 -32q45 0 74 19t29 58q0 60 -86 72l-105 19q-72 12 -110.5 49.5t-38.5 97.5q0 79 56 121t140 42q87 0 195 -33l45 -13l-16 -82l-47 14q-109 32 -178 32
q-45 0 -74 -19t-29 -58q0 -58 86 -73zM288 612q-35 0 -55 22l-133 129h125l63 -80l62 80h125l-131 -129q-24 -22 -56 -22z" />
    <glyph glyph-name="Ydieresis" unicode="&#x178;" horiz-adv-x="669" 
d="M660 744l-270 -426v-318h-106v316l-275 428h118l212 -334l205 334h116zM284 863q0 -29 -15.5 -45.5t-42.5 -16.5t-42.5 16.5t-15.5 45.5t15.5 45.5t42.5 16.5t42.5 -16.5t15.5 -45.5zM513 863q0 -29 -15.5 -45.5t-42.5 -16.5q-28 0 -43.5 16.5t-15.5 45.5t15.5 45.5
t43.5 16.5q27 0 42.5 -16.5t15.5 -45.5z" />
    <glyph glyph-name="Zcaron" unicode="&#x17d;" horiz-adv-x="653" 
d="M579 633l-405 -549h427v-84h-492q-29 0 -44 16.5t-15 43.5q0 25 19 50l407 549h-413v85h476q29 0 44 -16.5t15 -44.5q0 -25 -19 -50zM331 787q-35 0 -55 22l-133 129h125l63 -80l62 80h125l-131 -129q-24 -22 -56 -22z" />
    <glyph glyph-name="zcaron" unicode="&#x17e;" horiz-adv-x="539" 
d="M59 546h383q27 0 40.5 -15.5t13.5 -40.5q0 -27 -20 -50l-313 -364h333v-76h-395q-54 0 -54 55q0 27 20 52l313 362h-321v77zM284 612q-35 0 -55 22l-133 129h125l63 -80l62 80h125l-131 -129q-24 -22 -56 -22z" />
    <glyph glyph-name="florin" unicode="&#x192;" 
d="M304 457v-462q0 -85 -47 -130.5t-133 -45.5v77q46 1 66 26t20 76v459h-85v80h85v53q0 85 44.5 130t124.5 45q37 0 120 -18l-13 -80q-71 16 -100 16q-44 0 -63 -23.5t-19 -76.5v-46h168v-80h-168z" />
    <glyph glyph-name="circumflex" unicode="&#x2c6;" horiz-adv-x="531" 
d="M281 765q33 0 55 -22l133 -129h-125l-63 80l-62 -80h-125l131 129q24 22 56 22z" />
    <glyph glyph-name="caron" unicode="&#x2c7;" horiz-adv-x="531" 
d="M281 612q-35 0 -55 22l-133 129h125l63 -80l62 80h125l-131 -129q-24 -22 -56 -22z" />
    <glyph glyph-name="breve" unicode="&#x2d8;" horiz-adv-x="531" 
d="M274 610q-76 0 -127 42t-51 111h87q0 -38 25 -59t66 -21q40 0 65.5 21.5t25.5 58.5h87q0 -69 -51 -111t-127 -42z" />
    <glyph glyph-name="dotaccent" unicode="&#x2d9;" horiz-adv-x="531" 
d="M326 705q0 -29 -16 -45.5t-44 -16.5t-44 16.5t-16 45.5t16 45.5t44 16.5t44 -16.5t16 -45.5z" />
    <glyph glyph-name="ring" unicode="&#x2da;" horiz-adv-x="531" 
d="M278 589q-49 0 -82.5 31t-33.5 78q0 48 33 78t83 30t83 -30t33 -78q0 -47 -33.5 -78t-82.5 -31zM278 754q-26 0 -42 -16t-16 -40q0 -25 16 -41t42 -16t42.5 16t16.5 41q0 24 -16.5 40t-42.5 16z" />
    <glyph glyph-name="ogonek" unicode="&#x2db;" horiz-adv-x="531" 
d="M383 -146q-57 -24 -111 -24t-87 22t-33 64q0 54 49 84l64 6l3 -6q-46 -28 -46 -68q0 -41 56 -41q43 0 92 19z" />
    <glyph glyph-name="tilde" unicode="&#x2dc;" horiz-adv-x="531" 
d="M347 613q-41 0 -76 26l-45 32q-20 16 -41 16q-43 0 -69 -66l-62 35q20 57 57 83.5t77 26.5q43 0 75 -25l46 -33q21 -15 41 -15q42 0 68 66l62 -36q-20 -56 -56.5 -83t-76.5 -27z" />
    <glyph glyph-name="hungarumlaut" unicode="&#x2dd;" horiz-adv-x="531" 
d="M283 763l-139 -135q-15 -17 -38 -17q-18 0 -28.5 12t-10.5 27q0 18 13 32l79 81h124zM483 763l-141 -141q-15 -16 -38 -16q-18 0 -28.5 12t-10.5 26q0 16 14 32l79 87h125z" />
    <glyph glyph-name="pi" unicode="&#x3c0;" horiz-adv-x="702" 
d="M490 468v-291q0 -53 19 -77t63 -24q33 0 98 16l13 -80q-81 -18 -121 -18q-166 0 -166 175v299h-185v-468h-94v468h-85v78h637v-78h-179z" />
    <glyph glyph-name="endash" unicode="&#x2013;" 
d="M535 283h-480v85h480v-85z" />
    <glyph glyph-name="emdash" unicode="&#x2014;" horiz-adv-x="1000" 
d="M940 283h-880v84h880v-84z" />
    <glyph glyph-name="quoteleft" unicode="&#x2018;" horiz-adv-x="219" 
d="M35 556l49 171q9 36 48 36q27 0 38.5 -17t5.5 -41l-38 -149h-103z" />
    <glyph glyph-name="quoteright" unicode="&#x2019;" horiz-adv-x="219" 
d="M182 763l-48 -171q-11 -36 -48 -36q-27 0 -38.5 17t-5.5 41l38 149h102z" />
    <glyph glyph-name="quotesinglbase" unicode="&#x201a;" horiz-adv-x="219" 
d="M182 116l-48 -171q-11 -36 -48 -36q-27 0 -38.5 16.5t-5.5 41.5l38 149h102z" />
    <glyph glyph-name="quotedblleft" unicode="&#x201c;" horiz-adv-x="398" 
d="M33 556l49 171q11 36 46 36q27 0 38 -16.5t5 -41.5l-38 -149h-100zM215 556l49 171q11 36 46 36q27 0 38 -17t5 -41l-38 -149h-100z" />
    <glyph glyph-name="quotedblright" unicode="&#x201d;" horiz-adv-x="398" 
d="M361 763l-49 -171q-9 -36 -46 -36q-27 0 -38 17t-5 41l38 149h100zM179 763l-48 -171q-11 -36 -47 -36q-27 0 -38 17t-5 41l38 149h100z" />
    <glyph glyph-name="quotedblbase" unicode="&#x201e;" horiz-adv-x="398" 
d="M361 116l-49 -171q-9 -36 -46 -36q-27 0 -38 16.5t-5 41.5l38 149h100zM179 116l-48 -171q-11 -36 -47 -36q-27 0 -38 16.5t-5 41.5l38 149h100z" />
    <glyph glyph-name="dagger" unicode="&#x2020;" horiz-adv-x="557" 
d="M516 406l-199 18l19 -610h-113l19 610l-201 -18v112l200 -17l-19 243h115l-18 -243l197 17v-112z" />
    <glyph glyph-name="daggerdbl" unicode="&#x2021;" horiz-adv-x="557" 
d="M516 41l-197 17l18 -244h-115l19 244l-200 -17v111l206 -17l-25 144l25 145l-206 -18v112l200 -17l-19 243h115l-18 -243l197 17v-112l-204 18l25 -145l-25 -143l204 16v-111z" />
    <glyph glyph-name="bullet" unicode="&#x2022;" horiz-adv-x="440" 
d="M352 332q0 -67 -34.5 -105t-96.5 -38q-61 0 -95.5 38t-34.5 105q0 68 34.5 105.5t95.5 37.5q62 0 96.5 -37.5t34.5 -105.5z" />
    <glyph glyph-name="ellipsis" unicode="&#x2026;" horiz-adv-x="658" 
d="M170 54q0 -29 -15.5 -46t-43.5 -17t-44 17t-16 46t16 46t44 17t43.5 -17t15.5 -46zM389 54q0 -29 -15.5 -46t-43.5 -17t-44 17t-16 46t16 46t44 17t43.5 -17t15.5 -46zM609 54q0 -29 -16 -46t-44 -17t-44 17t-16 46t16 46t44 17t44 -17t16 -46z" />
    <glyph glyph-name="perthousand" unicode="&#x2030;" horiz-adv-x="1320" 
d="M410 566q0 -91 -50 -143t-137 -52q-86 0 -135.5 52t-49.5 143q0 90 50.5 142t136.5 52q87 0 136 -52t49 -142zM327 566q0 60 -27 92.5t-77 32.5q-49 0 -75 -33t-26 -92q0 -60 27 -93.5t76 -33.5q50 0 76 33t26 94zM793 744l-586 -744h-101l588 744h99zM868 180
q0 -91 -50 -143t-137 -52q-86 0 -135.5 52t-49.5 143q0 90 50.5 142t136.5 52q87 0 136 -52t49 -142zM785 180q0 59 -27.5 92t-76.5 33t-75 -33t-26 -92q0 -60 27 -93.5t76 -33.5q50 0 76 33t26 94zM1287 180q0 -91 -50 -143t-137 -52q-86 0 -135.5 52t-49.5 143
q0 90 50.5 142t136.5 52q87 0 136 -52t49 -142zM1204 180q0 59 -27.5 92t-76.5 33t-75 -33t-26 -92q0 -60 27 -93.5t76 -33.5q50 0 76 33t26 94z" />
    <glyph glyph-name="guilsinglleft" unicode="&#x2039;" horiz-adv-x="356" 
d="M47 281q0 26 23 51l142 139h114l-190 -190l190 -190h-114l-142 139q-23 25 -23 51z" />
    <glyph glyph-name="guilsinglright" unicode="&#x203a;" horiz-adv-x="356" 
d="M309 281q0 -26 -23 -51l-141 -139h-114l189 190l-189 190h114l141 -139q23 -25 23 -51z" />
    <glyph glyph-name="fraction" unicode="&#x2044;" horiz-adv-x="906" 
d="M793 744l-586 -744h-101l588 744h99z" />
    <glyph glyph-name="Euro" unicode="&#x20ac;" 
d="M435 264h-233q1 -184 162 -184q43 0 133 24l45 13l15 -85l-43 -12q-104 -28 -156 -28q-114 0 -184 71t-71 201h-74v75h73v68h-73v74h74q1 130 71 201t184 71q53 0 155 -28l44 -13l-15 -84l-46 12q-88 25 -132 25q-160 0 -161 -184h232v-74h-234v-68h234v-75z" />
    <glyph glyph-name="trademark" unicode="&#x2122;" horiz-adv-x="882" 
d="M819 332h-66v295l-89 -269q-8 -27 -40 -27q-31 0 -40 27l-87 267v-293h-66v372q0 21 14.5 33t37.5 12q45 0 57 -38l85 -278l88 277q11 36 56 36q50 0 50 -42v-372zM368 682h-120v-350h-75v350h-119v62h314v-62z" />
    <glyph glyph-name="Omega" unicode="&#x2126;" horiz-adv-x="797" 
d="M641 432q0 104 -69 168.5t-176 64.5q-108 0 -174 -63t-66 -170q0 -97 55 -159t144 -75v-198h-240v77h163v65q-105 28 -166 104.5t-61 187.5q0 140 99.5 226.5t250.5 86.5q150 0 247.5 -86.5t97.5 -224.5q0 -107 -63.5 -186.5t-166.5 -107.5v-65h163v-77h-240v197
q90 11 146 75t56 160z" />
    <glyph glyph-name="partialdiff" unicode="&#x2202;" 
d="M443 451v62q0 72 -36 111t-109 39q-59 0 -172 -32l-45 -13l-18 85l45 13q115 34 194 34q109 0 173 -65.5t64 -171.5v-268q0 -114 -66 -182.5t-181 -68.5q-116 0 -179.5 67t-63.5 178q0 113 63 176.5t180 63.5q60 0 151 -28zM443 248v121q-99 25 -139 25q-158 0 -158 -156
q0 -74 39 -117.5t109 -43.5q73 0 111 45.5t38 125.5z" />
    <glyph glyph-name="Delta" unicode="&#x2206;" horiz-adv-x="664" 
d="M652 0h-636l242 699q18 52 78 52q59 0 77 -52zM518 82l-186 554l-182 -554h368z" />
    <glyph glyph-name="product" unicode="&#x220f;" horiz-adv-x="677" 
d="M645 659h-111v-659h-104v659h-183v-659h-104v659h-111v85h613v-85z" />
    <glyph glyph-name="summation" unicode="&#x2211;" horiz-adv-x="689" 
d="M658 -179h-553q-27 0 -43 16t-16 42q0 25 14 45l258 358l-254 352q-18 23 -18 52q0 26 16 42t43 16h543v-182h-89v95h-395l272 -374l-272 -375h405v104h89v-191z" />
    <glyph glyph-name="minus" unicode="&#x2212;" horiz-adv-x="584" 
d="M528 283h-472v85h472v-85z" />
    <glyph glyph-name="radical" unicode="&#x221a;" horiz-adv-x="650" 
d="M650 664h-102l-184 -627q-13 -48 -65 -48q-53 0 -66 48l-131 429h-92v80h173l117 -424l172 622h178v-80z" />
    <glyph glyph-name="infinity" unicode="&#x221e;" horiz-adv-x="801" 
d="M759 297q0 -96 -48 -155t-135 -59q-59 0 -108 25l-65 35l-67 -35q-50 -25 -108 -25q-87 0 -135 59t-48 155q0 98 47 156t136 58q59 0 108 -24l66 -34l66 33q48 25 108 25q88 0 135.5 -58t47.5 -156zM676 297q0 69 -27.5 103t-74.5 34q-37 0 -79 -18l-51 -22v-193l56 -24
q37 -16 74 -16q46 0 74 34t28 102zM360 201v193l-51 22q-41 18 -78 18q-48 0 -75.5 -34t-27.5 -103q0 -68 28 -102t75 -34q40 0 79 18z" />
    <glyph glyph-name="integral" unicode="&#x222b;" 
d="M300 582v-587q0 -86 -46.5 -131t-133.5 -45v77q46 1 66 25.5t20 76.5v591q0 85 44.5 130.5t124.5 45.5q38 0 119 -18l-12 -80q-73 16 -100 16q-44 0 -63 -24t-19 -77z" />
    <glyph glyph-name="approxequal" unicode="&#x2248;" 
d="M300 331l-57 40q-25 18 -51 18q-54 0 -86 -77l-66 42q48 118 154 118q52 0 93 -30l57 -40q26 -18 51 -18q54 0 86 78l66 -44q-50 -117 -154 -117q-50 0 -93 30zM309 156l-58 40q-26 18 -50 18q-54 0 -86 -77l-66 42q48 118 154 118q50 0 93 -30l57 -40q25 -18 51 -18
q53 0 86 78l65 -44q-48 -117 -153 -117q-50 0 -93 30z" />
    <glyph glyph-name="notequal" unicode="&#x2260;" 
d="M535 172h-258l-64 -132h-71l64 132h-150v82h187l41 90h-228v81h263l70 149h70l-70 -149h146v-81h-181l-40 -90h221v-82z" />
    <glyph glyph-name="lessequal" unicode="&#x2264;" 
d="M541 120l-446 146q-46 14 -46 62q0 44 45 60l447 148v-95l-386 -115l386 -115v-91zM539 0h-479v79h479v-79z" />
    <glyph glyph-name="greaterequal" unicode="&#x2265;" 
d="M495 266l-446 -146v91l386 115l-386 115v95l446 -148q46 -15 46 -60q0 -48 -46 -62zM530 0h-479v79h479v-79z" />
    <glyph glyph-name="lozenge" unicode="&#x25ca;" horiz-adv-x="653" 
d="M629 372l-240 -354q-22 -31 -63 -31t-61 32l-240 353l240 353q22 31 63 31q40 0 61 -31zM523 372l-193 291l-195 -291l195 -291z" />
    </font>
</defs>
</svg>
