<?xml version="1.0" standalone="no"?>
<!DOCTYPE svg PUBLIC "-//W3C//DTD SVG 1.1//EN" "http://www.w3.org/Graphics/SVG/1.1/DTD/svg11.dtd" >
<svg>
<metadata>
Created by FontForge 20090622 at Thu Aug 27 09:00:18 2015
 By deploy user
Copyright (c) 1999 by Hubert Jocham. All rights reserved.
</metadata>
<defs>
<font id="NewJuneBook" horiz-adv-x="581" >
  <font-face 
    font-family="NewJuneBook"
    font-weight="400"
    font-stretch="normal"
    units-per-em="1000"
    panose-1="2 0 5 3 3 0 0 2 0 4"
    ascent="780"
    descent="-220"
    x-height="544"
    cap-height="744"
    bbox="-51 -196 1282 952"
    underline-thickness="50"
    underline-position="-50"
    unicode-range="U+000D-U+FB02"
  />
<missing-glyph horiz-adv-x="985" 
 />
    <glyph glyph-name="fi" unicode="fi" horiz-adv-x="597" 
d="M513 0h-65v477h-272v-477h-62v477h-89v57h89v60q0 84 40.5 127.5t114.5 43.5q33 0 106 -15l-10 -59q-64 15 -97 15q-50 0 -71 -27t-21 -89v-56h337v-534zM524 719q0 -23 -12 -36t-32 -13t-32 13t-12 36t12 36.5t32 13.5t32 -13.5t12 -36.5z" />
    <glyph glyph-name="fl" unicode="fl" horiz-adv-x="588" 
d="M114 534v59q0 83 43.5 127.5t118.5 44.5q56 0 172 -17l62 20v-768h-62v690q-110 17 -173 17q-99 0 -99 -118v-55h173v-57h-173v-477h-62v477h-89v57h89z" />
    <glyph glyph-name=".notdef" horiz-adv-x="985" 
 />
    <glyph glyph-name=".null" horiz-adv-x="0" 
 />
    <glyph glyph-name=".null" horiz-adv-x="0" 
 />
    <glyph glyph-name="nonmarkingreturn" horiz-adv-x="333" 
 />
    <glyph glyph-name="CR" unicode="&#xd;" horiz-adv-x="255" 
 />
    <glyph glyph-name="space" unicode=" " horiz-adv-x="255" 
 />
    <glyph glyph-name="exclam" unicode="!" horiz-adv-x="205" 
d="M137 237l-64 -12v519h64v-507zM150 40q0 -23 -12 -36t-33 -13q-20 0 -32 13t-12 36t12 36.5t32 13.5q21 0 33 -13.5t12 -36.5z" />
    <glyph glyph-name="quotedbl" unicode="&#x22;" horiz-adv-x="365" 
d="M302 763l-7 -194h-54l-7 194h68zM131 763l-8 -194h-54l-6 194h68z" />
    <glyph glyph-name="numbersign" unicode="#" horiz-adv-x="695" 
d="M671 520l-10 -58h-138l-35 -190h143l-10 -59h-145l-39 -213h-61l40 213h-184l-42 -213h-61l41 213h-134l9 59h137l37 190h-143l10 58h144l42 224h61l-42 -224h182l42 224h60l-42 -224h138zM463 462h-183l-37 -190h185z" />
    <glyph glyph-name="dollar" unicode="$" 
d="M233 419l135 -34q169 -41 169 -190q0 -94 -62 -146t-149 -56v-122h-60v123q-75 8 -172 42l-43 15l15 61l42 -15q124 -45 205 -45q68 0 115 35t47 105q0 53 -28.5 85t-90.5 47l-135 34q-166 40 -166 189q0 96 62 146.5t149 52.5v121h60v-123q64 -6 166 -41l42 -14l-15 -61
l-41 15q-121 44 -200 44q-69 0 -115 -33t-46 -104q0 -53 28 -84.5t88 -46.5z" />
    <glyph glyph-name="percent" unicode="%" horiz-adv-x="901" 
d="M408 566q0 -91 -50.5 -143t-135.5 -52t-133.5 52t-48.5 143q0 90 50 142t134 52q86 0 135 -52t49 -142zM350 566q0 69 -33 106t-95 37q-61 0 -92.5 -37.5t-31.5 -105.5q0 -69 32.5 -106.5t93.5 -37.5q62 0 94 37t32 107zM780 744l-595 -744h-71l595 744h71zM862 180
q0 -91 -50.5 -143t-135.5 -52t-133.5 52t-48.5 143q0 90 50 142t134 52q86 0 135 -52t49 -142zM804 180q0 69 -33 106t-95 37q-61 0 -92.5 -37.5t-31.5 -105.5q0 -69 32.5 -106.5t93.5 -37.5q62 0 94 37t32 107z" />
    <glyph glyph-name="ampersand" unicode="&#x26;" horiz-adv-x="690" 
d="M639 0h-79l-56 66q-40 -35 -102.5 -56.5t-122.5 -21.5q-108 0 -167.5 55t-59.5 138q0 134 160 206q-37 41 -53 61.5t-30.5 55t-14.5 72.5q0 86 59.5 133t147.5 47q87 0 141.5 -44.5t54.5 -125.5q0 -75 -47.5 -124.5t-158.5 -95.5l196 -216q27 30 43 85.5t16 119.5v89h61
v-92q0 -70 -21 -136.5t-58 -107.5zM458 585q0 51 -35 84t-102 33q-72 0 -109 -34.5t-37 -91.5q0 -42 21.5 -76t78.5 -92q96 36 139.5 75.5t43.5 101.5zM465 108l-215 237q-72 -31 -102 -70.5t-30 -91.5q0 -58 40 -98t121 -40q49 0 101 17.5t85 45.5z" />
    <glyph glyph-name="quotesingle" unicode="'" horiz-adv-x="203" 
d="M138 763l-8 -194h-56l-8 194h72z" />
    <glyph glyph-name="parenleft" unicode="(" horiz-adv-x="273" 
d="M41 339q0 403 211 405v-57q-147 -8 -147 -348q0 -347 147 -357v-56q-31 0 -58 10t-56 38t-49.5 72t-34 119.5t-13.5 173.5z" />
    <glyph glyph-name="parenright" unicode=")" horiz-adv-x="273" 
d="M239 339q0 -98 -13.5 -173.5t-34 -119.5t-49.5 -72t-56.5 -38t-58.5 -10v56q148 10 148 357q0 340 -148 348v57q212 -2 212 -405z" />
    <glyph glyph-name="asterisk" unicode="*" horiz-adv-x="542" 
d="M493 578l-184 -45l123 -149l-57 -41l-99 168l-100 -167l-57 41l124 149l-185 45l21 65l177 -74l-15 193h69l-15 -193l178 73z" />
    <glyph glyph-name="plus" unicode="+" 
d="M521 264h-202v-216h-62v216h-198v61h198v215h62v-215h202v-61z" />
    <glyph glyph-name="comma" unicode="," horiz-adv-x="205" 
d="M160 104l-46 -168q-8 -27 -33 -27q-19 0 -27.5 12.5t-3.5 31.5l40 151h70z" />
    <glyph glyph-name="hyphen" unicode="-" horiz-adv-x="407" 
d="M345 296h-282v62h282v-62z" />
    <glyph glyph-name="period" unicode="." horiz-adv-x="205" 
d="M149 40q0 -23 -12 -36t-32 -13t-32 13t-12 36t12 36.5t32 13.5t32 -13.5t12 -36.5z" />
    <glyph glyph-name="slash" unicode="/" horiz-adv-x="404" 
d="M392 744l-309 -744h-66l312 744h63z" />
    <glyph glyph-name="zero" unicode="0" 
d="M519 507v-274q0 -118 -56 -181t-165 -63t-168.5 63t-59.5 178v280q0 115 59.5 178.5t168.5 63.5t165 -63.5t56 -181.5zM458 233v274q0 187 -162 187q-164 0 -164 -187v-274q0 -187 165 -187q161 0 161 187z" />
    <glyph glyph-name="one" unicode="1" 
d="M543 0h-472v60h223v623h-54q-73 0 -110 -18l-16 58q39 21 122 21h61q64 0 64 -61v-623h182v-60z" />
    <glyph glyph-name="two" unicode="2" 
d="M304 751q94 0 156 -49.5t62 -154.5q0 -126 -131 -249l-256 -241h389v-57h-419q-19 0 -30 11.5t-11 31.5q0 25 20 45l260 250q61 58 88.5 106t27.5 104q0 73 -43 107t-113 34q-73 0 -185 -35l-38 -12l-13 60l36 11q122 38 200 38z" />
    <glyph glyph-name="three" unicode="3" 
d="M308 -8q-82 0 -214 38l-40 11l14 59l40 -11q136 -38 199 -38q83 0 125.5 35.5t42.5 98.5q0 53 -45 103l-55 58h-139v56h139l43 60q36 53 36 105q0 123 -151 123q-53 0 -181 -35l-39 -10l-13 58l39 12q116 36 195 36q103 0 157.5 -48t54.5 -135q0 -63 -42 -126l-48 -65
l59 -62q52 -55 52 -128q0 -89 -62 -142t-167 -53z" />
    <glyph glyph-name="four" unicode="4" 
d="M414 143h-333q-41 0 -41 41q0 20 16 43l320 491q20 32 54 32q46 0 46 -48v-503h89v-56h-89v-143h-62v143zM414 199v470l-305 -470h305z" />
    <glyph glyph-name="five" unicode="5" 
d="M292 51q89 0 135 50.5t46 134.5q0 176 -181 176q-57 0 -136 -22l-60 -18v372h407v-62h-349v-236q88 25 146 25q111 0 173 -58.5t62 -176.5q0 -111 -65 -177.5t-177 -66.5q-73 0 -192 35l-37 10l13 60l38 -11q120 -35 177 -35z" />
    <glyph glyph-name="six" unicode="6" 
d="M128 516v-81q106 35 168 35q119 0 179.5 -61t60.5 -174q0 -106 -60.5 -173.5t-171.5 -67.5q-110 0 -174 67.5t-64 179.5v275q0 106 59.5 170t163.5 64q65 0 194 -34l38 -11l-13 -59l-38 10q-121 34 -179 34q-163 0 -163 -174zM128 380v-135q0 -90 46.5 -141.5
t131.5 -51.5q81 0 124 49.5t43 133.5q0 175 -183 175q-50 0 -162 -30z" />
    <glyph glyph-name="seven" unicode="7" 
d="M530 659l-272 -659h-68l286 685h-407v59h426q22 0 34 -11t12 -31q0 -17 -11 -43z" />
    <glyph glyph-name="eight" unicode="8" 
d="M296 -10q-113 0 -180.5 52.5t-67.5 140.5q0 73 52 131l56 62l-46 63q-41 62 -41 127q0 85 59.5 135.5t163.5 50.5q106 0 166 -50.5t60 -135.5q0 -67 -41 -126l-46 -64l58 -64q50 -54 50 -129q0 -89 -65 -141t-178 -52zM295 48q89 0 135 36t46 99q0 55 -44 103l-53 58
h-171l-53 -58q-44 -47 -44 -104q0 -61 48 -97.5t136 -36.5zM166 460l42 -60h172l41 60q35 50 35 106q0 57 -41 92t-122 35t-121.5 -35t-40.5 -92q0 -52 35 -106z" />
    <glyph glyph-name="nine" unicode="9" 
d="M461 228v80q-103 -34 -168 -34q-119 0 -179.5 60.5t-60.5 173.5q0 106 60.5 174t171.5 68q110 0 174 -67.5t64 -179.5v-275q0 -107 -59 -170.5t-164 -63.5q-81 0 -194 33l-38 11l13 60l38 -11q121 -34 179 -34q163 0 163 175zM461 363v136q0 90 -46.5 141.5t-131.5 51.5
q-81 0 -124 -50t-43 -134q0 -174 183 -174q50 0 162 29z" />
    <glyph glyph-name="colon" unicode=":" horiz-adv-x="205" 
d="M149 40q0 -23 -12 -36t-32 -13t-32 13t-12 36t12 36.5t32 13.5t32 -13.5t12 -36.5zM149 487q0 -23 -12 -36t-32 -13t-32 13t-12 36t12 36.5t32 13.5t32 -13.5t12 -36.5z" />
    <glyph glyph-name="semicolon" unicode=";" horiz-adv-x="205" 
d="M160 104l-46 -168q-8 -27 -33 -27q-19 0 -27.5 12.5t-3.5 31.5l40 151h70zM165 487q0 -23 -12 -36t-33 -13q-20 0 -32 13t-12 36t12 36.5t32 13.5q21 0 33 -13.5t12 -36.5z" />
    <glyph glyph-name="less" unicode="&#x3c;" 
d="M532 65l-452 184q-31 12 -31 46q0 31 32 45l451 185v-71l-416 -160l416 -161v-68z" />
    <glyph glyph-name="equal" unicode="=" 
d="M521 351h-462v64h462v-64zM521 182h-462v64h462v-64z" />
    <glyph glyph-name="greater" unicode="&#x3e;" 
d="M501 249l-452 -184v68l416 160l-416 161v71l451 -185q32 -14 32 -45q0 -34 -31 -46z" />
    <glyph glyph-name="question" unicode="?" horiz-adv-x="450" 
d="M232 689q-67 0 -147 -24l-36 -11l-12 55l37 12q82 26 159 26q84 0 134.5 -43t50.5 -119q0 -53 -18 -89t-56 -77l-95 -100v-83l-59 -11v67q0 28 6 44.5t25 35.5l73 78q37 40 50.5 66t13.5 68q0 48 -32 76.5t-94 28.5zM265 40q0 -23 -12 -36t-33 -13q-20 0 -32 13t-12 36
t12 36.5t32 13.5q21 0 33 -13.5t12 -36.5z" />
    <glyph glyph-name="at" unicode="@" horiz-adv-x="919" 
d="M839 407q0 -110 -56.5 -180t-132.5 -70q-24 0 -55 12t-44 12q-20 0 -61 -8t-66 -8q-74 0 -114 46t-40 120q0 92 53.5 155t148.5 63q41 0 107 -9l5 36h54l-46 -349q2 -2 10 -6t23.5 -9t28.5 -5q51 0 90 54t39 147q0 130 -86 209.5t-216 79.5q-150 0 -242 -96t-92 -248
q0 -138 78 -225t212 -87q52 0 125 20t102 20q31 0 60 -16l44 -26l-22 -43l-40 20q-20 10 -46 10q-27 0 -97 -18t-132 -18q-157 0 -249.5 103.5t-92.5 259.5q0 175 111 287t281 112q155 0 256.5 -96.5t101.5 -248.5zM538 229l35 263q-54 8 -101 8q-73 0 -109 -49t-36 -122
q0 -51 26.5 -83t79.5 -32q29 0 105 15z" />
    <glyph glyph-name="A" unicode="A" horiz-adv-x="672" 
d="M655 0h-69l-65 172h-372l-65 -172h-67l270 713q14 38 51 38q38 0 52 -36zM502 228l-164 454l-170 -454h334z" />
    <glyph glyph-name="B" unicode="B" horiz-adv-x="667" 
d="M399 0h-253q-31 0 -47.5 15.5t-16.5 44.5v625q0 28 16 43.5t46 15.5h249q89 0 139.5 -45t50.5 -131q0 -65 -40 -125l-47 -66l62 -65q54 -56 54 -129q0 -84 -57 -133.5t-156 -49.5zM519 568q0 121 -129 121h-245v-288h297l43 61q34 53 34 106zM443 346h-298v-291h257
q71 0 108.5 33t37.5 91q0 57 -47 107z" />
    <glyph glyph-name="C" unicode="C" horiz-adv-x="661" 
d="M58 370q0 186 90 282t235 96q75 0 192 -37l47 -14l-12 -60l-49 15q-115 35 -177 35q-122 0 -190 -78.5t-68 -238.5t68.5 -238.5t190.5 -78.5q63 0 176 35l49 15l12 -60l-47 -15q-116 -36 -192 -36q-148 0 -236.5 94t-88.5 284z" />
    <glyph glyph-name="D" unicode="D" horiz-adv-x="720" 
d="M665 370q0 -174 -90 -272t-238 -98h-190q-31 0 -48 16t-17 44v623q0 29 17 45t48 16h193q148 0 236.5 -99.5t88.5 -274.5zM600 370q0 146 -72.5 231.5t-200.5 85.5h-180v-629h187q127 0 196.5 81.5t69.5 230.5z" />
    <glyph glyph-name="E" unicode="E" horiz-adv-x="606" 
d="M551 0h-404q-31 0 -48 16t-17 44v623q0 29 17 45t48 16h401v-59h-401v-276h353v-57h-353v-294h404v-58z" />
    <glyph glyph-name="F" unicode="F" horiz-adv-x="568" 
d="M538 685h-391v-290h358v-57h-358v-338h-65v683q0 29 17 45t48 16h391v-59z" />
    <glyph glyph-name="G" unicode="G" horiz-adv-x="713" 
d="M405 -8q-156 0 -251.5 94t-95.5 283q0 186 94 282t246 96q75 0 202 -37l48 -14l-13 -61l-51 15q-124 36 -187 36q-130 0 -201.5 -78.5t-71.5 -238.5q0 -159 76 -239t205 -80q84 0 183 23v218h-186v56h185q62 0 62 -60v-204q0 -28 -13 -42t-43 -23q-97 -26 -188 -26z" />
    <glyph glyph-name="H" unicode="H" horiz-adv-x="707" 
d="M624 0h-63v350h-415v-350h-64v744h64v-338h415v338h63v-744z" />
    <glyph glyph-name="I" unicode="I" horiz-adv-x="230" 
d="M147 0h-65v744h65v-744z" />
    <glyph glyph-name="J" unicode="J" horiz-adv-x="362" 
d="M282 744v-573q0 -85 -42.5 -130t-119.5 -45q-39 0 -107 16l10 60q65 -16 98 -16q53 0 74.5 27.5t21.5 90.5v570h65z" />
    <glyph glyph-name="K" unicode="K" horiz-adv-x="643" 
d="M615 0h-69l-209 435l-125 -147q-28 -33 -39 -49t-19.5 -40.5t-8.5 -55.5v-143h-63v744h63v-456l373 456h84l-218 -257z" />
    <glyph glyph-name="L" unicode="L" horiz-adv-x="561" 
d="M521 0h-375q-31 0 -47.5 15.5t-16.5 44.5v684h66v-685h373v-59z" />
    <glyph glyph-name="M" unicode="M" horiz-adv-x="857" 
d="M427 68l238 636q17 45 59 45q50 0 50 -52v-697h-61v669l-241 -642q-12 -31 -46 -31q-36 0 -47 31l-237 642v-669h-60v697q0 52 53 52q47 0 63 -45z" />
    <glyph glyph-name="N" unicode="N" horiz-adv-x="729" 
d="M143 663v-663h-61v701q0 50 47 50q33 0 52 -30l406 -638v661h60v-700q0 -49 -47 -49q-32 0 -51 30z" />
    <glyph glyph-name="O" unicode="O" horiz-adv-x="780" 
d="M725 370q0 -181 -91.5 -279.5t-245.5 -98.5q-152 0 -242.5 99.5t-90.5 278.5q0 178 92.5 278t245.5 100q151 0 241.5 -99.5t90.5 -278.5zM659 370q0 152 -71.5 236t-197.5 84q-127 0 -198.5 -83.5t-71.5 -236.5t73 -237.5t199 -84.5t196.5 83.5t70.5 238.5z" />
    <glyph glyph-name="P" unicode="P" horiz-adv-x="618" 
d="M575 521q0 -103 -61.5 -163t-160.5 -60h-209v-298h-62v684q0 29 16.5 44.5t47.5 15.5h218q93 0 152 -60.5t59 -162.5zM515 522q0 77 -42.5 122t-112.5 45h-216v-336h209q75 0 118.5 44.5t43.5 124.5z" />
    <glyph glyph-name="Q" unicode="Q" horiz-adv-x="770" 
d="M724 370q0 -259 -197 -340q80 -41 156 -41h27v-54h-27q-67 0 -149.5 32.5t-136.5 32.5q-156 0 -249 95.5t-93 274.5q0 178 92.5 278t245.5 100q151 0 241 -99.5t90 -278.5zM659 370q0 152 -71.5 236t-197.5 84q-127 0 -199 -83.5t-72 -236.5t73 -234t201 -81
q126 0 196 80.5t70 234.5z" />
    <glyph glyph-name="R" unicode="R" horiz-adv-x="648" 
d="M621 0h-71l-141 307h-263v-307h-64v685q0 59 61 59h243q93 0 145 -50.5t52 -146.5q0 -71 -54 -143l-61 -79zM518 546q0 143 -137 143h-235v-327h279l43 60q50 71 50 124z" />
    <glyph glyph-name="S" unicode="S" horiz-adv-x="631" 
d="M251 419l144 -33q176 -40 176 -192q0 -99 -65.5 -150.5t-159.5 -51.5q-109 0 -239 44l-45 14l16 61l44 -15q135 -45 223 -45q67 0 114 35t47 106q0 53 -29 85t-94 46l-143 33q-175 39 -175 191q0 99 65.5 150.5t158.5 51.5q97 0 234 -44l44 -14l-15 -61l-45 15
q-130 44 -217 44q-68 0 -114.5 -35t-46.5 -105q0 -54 29 -85t93 -45z" />
    <glyph glyph-name="T" unicode="T" horiz-adv-x="607" 
d="M575 685h-238v-685h-66v685h-237v59h541v-59z" />
    <glyph glyph-name="U" unicode="U" horiz-adv-x="715" 
d="M637 262q0 -130 -73 -203t-207 -73t-207 73.5t-73 202.5v482h65v-482q0 -105 54 -161t161 -56q216 0 216 217v482h64v-482z" />
    <glyph glyph-name="V" unicode="V" horiz-adv-x="660" 
d="M640 744l-265 -716q-12 -34 -47 -34t-47 34l-261 716h70l241 -673l241 673h68z" />
    <glyph glyph-name="W" unicode="W" horiz-adv-x="905" 
d="M875 744l-134 -711q-8 -40 -49 -40q-40 0 -50 36l-190 643l-194 -643q-11 -36 -49 -36q-40 0 -48 40l-131 711h62l123 -670l193 637q9 33 46 33t46 -33l190 -638l125 671h60z" />
    <glyph glyph-name="X" unicode="X" horiz-adv-x="673" 
d="M631 0h-77l-217 330l-220 -330h-75l254 375l-251 369h78l216 -321l213 321h73l-246 -367z" />
    <glyph glyph-name="Y" unicode="Y" horiz-adv-x="638" 
d="M626 744l-269 -421v-323h-66v321l-274 423h75l234 -363l227 363h73z" />
    <glyph glyph-name="Z" unicode="Z" horiz-adv-x="633" 
d="M559 659l-435 -603h454v-56h-479q-44 0 -44 46q0 19 14 39l437 602h-440v57h463q44 0 44 -47q0 -19 -14 -38z" />
    <glyph glyph-name="bracketleft" unicode="[" horiz-adv-x="273" 
d="M251 -65h-175v809h175v-56h-113v-698h113v-55z" />
    <glyph glyph-name="backslash" unicode="\" horiz-adv-x="404" 
d="M327 0l-310 744h63l312 -744h-65z" />
    <glyph glyph-name="bracketright" unicode="]" horiz-adv-x="273" 
d="M202 -65h-175v55h113v698h-113v56h175v-809z" />
    <glyph glyph-name="asciicircum" unicode="^" 
d="M520 43h-70l-159 422l-157 -422h-67l183 468q13 32 42 32q30 0 43 -32z" />
    <glyph glyph-name="underscore" unicode="_" horiz-adv-x="500" 
d="M502 -162h-504v58h504v-58z" />
    <glyph glyph-name="grave" unicode="`" horiz-adv-x="534" 
d="M326 643l-132 120h94l81 -79q11 -11 11 -25q0 -11 -8 -19.5t-21 -8.5t-25 12z" />
    <glyph glyph-name="a" unicode="a" horiz-adv-x="589" 
d="M559 39l-24 -47l-45 27q-36 19 -72 9l-41 -11q-90 -24 -150 -24q-82 0 -128 39t-46 109q0 84 58.5 121.5t151.5 37.5h171v69q0 122 -134 122q-61 0 -173 -32l-39 -11l-12 58l37 10q127 34 188 34q87 0 140 -44.5t53 -136.5v-290zM434 82v164h-172q-147 0 -147 -103
q0 -95 121 -95q51 0 134 20z" />
    <glyph glyph-name="b" unicode="b" horiz-adv-x="592" 
d="M297 488q-53 0 -159 -29v-381q102 -24 155 -24q95 0 139.5 58t44.5 159q0 217 -180 217zM305 548q116 0 175 -71.5t59 -206.5q0 -126 -65 -200t-179 -74q-69 0 -164 25q-54 14 -54 64v672l61 13v-256q104 34 167 34z" />
    <glyph glyph-name="c" unicode="c" horiz-adv-x="515" 
d="M52 272q0 133 65 205t174 72q52 0 152 -27l39 -10l-12 -59l-39 10q-103 27 -137 27q-177 0 -177 -218t178 -218q43 0 136 26l39 10l12 -58l-39 -11q-96 -27 -152 -27q-111 0 -175 69t-64 209z" />
    <glyph glyph-name="d" unicode="d" horiz-adv-x="591" 
d="M295 489q-180 0 -180 -218q0 -100 44.5 -158.5t138.5 -58.5q54 0 156 24v381q-106 28 -159 30zM454 760l60 13v-688q0 -51 -52 -63q-106 -26 -170 -26q-114 0 -177 72t-63 202q0 132 62.5 205t177.5 73q55 0 162 -34v246z" />
    <glyph glyph-name="e" unicode="e" horiz-adv-x="580" 
d="M468 300q0 89 -44 143.5t-132 54.5q-78 0 -124 -53t-51 -145h351zM308 -6q-117 0 -186.5 71t-69.5 206q0 138 68.5 209.5t172.5 71.5q110 0 174.5 -68t64.5 -200q0 -40 -36 -40h-379q4 -94 57 -142t137 -48q60 0 151 28l49 16l13 -57l-48 -16q-93 -31 -168 -31z" />
    <glyph glyph-name="f" unicode="f" horiz-adv-x="367" 
d="M375 750l-10 -59q-64 15 -97 15q-50 0 -71 -27t-21 -89v-56h173v-57h-173v-477h-62v477h-89v57h89v60q0 84 40.5 127.5t114.5 43.5q33 0 106 -15z" />
    <glyph glyph-name="g" unicode="g" horiz-adv-x="587" 
d="M554 -18q0 -78 -67.5 -120.5t-206.5 -42.5q-97 0 -160.5 34.5t-63.5 107.5q0 54 38 101l51 62q22 28 22 49q0 35 -42 64q-75 51 -75 137q0 82 59.5 125.5t163.5 43.5h63q71 0 101 9l111 30l14 -53l-123 -33q7 -4 16.5 -12.5t26 -39.5t16.5 -69q0 -83 -59 -126t-165 -43
q-19 0 -36.5 2t-25.5 4l-8 2q16 -16 16 -44t-29 -65h199q80 0 122 -33.5t42 -89.5zM438 374q0 117 -164 117t-164 -117q0 -122 164 -122q75 0 119.5 29.5t44.5 92.5zM495 -20q0 71 -107 71h-236q-37 -40 -37 -88t47 -70.5t125 -22.5q208 0 208 110z" />
    <glyph glyph-name="h" unicode="h" horiz-adv-x="566" 
d="M296 489q-54 0 -158 -30v-459h-61v757l61 13v-257q107 35 165 35q101 0 146.5 -53.5t45.5 -141.5v-353h-61v350q0 139 -138 139z" />
    <glyph glyph-name="i" unicode="i" horiz-adv-x="233" 
d="M149 0h-64v544h64v-544zM161 716q0 -23 -12 -36t-33 -13q-20 0 -32 13t-12 36t12 36.5t32 13.5q21 0 33 -13.5t12 -36.5z" />
    <glyph glyph-name="j" unicode="j" horiz-adv-x="245" 
d="M173 716q0 -23 -12 -36t-33 -13q-20 0 -32 13t-12 36t12 36.5t32 13.5q21 0 33 -13.5t12 -36.5zM160 544v-556q0 -81 -40.5 -125t-112.5 -44v55q48 1 69 28.5t21 85.5v556h63z" />
    <glyph glyph-name="k" unicode="k" horiz-adv-x="542" 
d="M519 0h-72l-166 311l-85 -90q-21 -23 -31 -35t-19 -36.5t-9 -55.5v-94h-60v757l60 13v-541l288 315h80l-176 -188z" />
    <glyph glyph-name="l" unicode="l" horiz-adv-x="218" 
d="M140 0h-63v756l63 14v-770z" />
    <glyph glyph-name="m" unicode="m" horiz-adv-x="857" 
d="M139 465v-465h-62v457q0 49 53 66q76 25 151 25q87 0 135 -48q106 48 188 48q91 0 134.5 -49.5t43.5 -135.5v-363h-61v357q0 64 -28 97.5t-95 33.5q-59 0 -153 -35q18 -37 18 -90v-363h-62v358q0 132 -125 132q-60 0 -137 -25z" />
    <glyph glyph-name="n" unicode="n" horiz-adv-x="575" 
d="M139 465v-465h-62v458q0 51 52 65q96 25 172 25q101 0 150 -53.5t49 -142.5v-352h-61v346q0 143 -145 143q-63 0 -155 -24z" />
    <glyph glyph-name="o" unicode="o" horiz-adv-x="604" 
d="M552 272q0 -132 -67.5 -205t-183.5 -73t-182.5 73.5t-66.5 204.5t68.5 204.5t183.5 73.5t181.5 -73t66.5 -205zM489 272q0 105 -49.5 164t-138.5 59t-136.5 -58.5t-47.5 -164.5q0 -107 48.5 -165.5t138.5 -58.5q89 0 137 58.5t48 165.5z" />
    <glyph glyph-name="p" unicode="p" horiz-adv-x="591" 
d="M296 55q180 0 180 218q0 100 -44.5 158t-138.5 58q-59 0 -156 -24v-380q100 -28 159 -30zM137 -174l-60 -13v645q0 50 52 64q106 26 170 26q114 0 177 -72t63 -202q0 -132 -62.5 -205t-177.5 -73q-59 0 -162 33v-203z" />
    <glyph glyph-name="q" unicode="q" horiz-adv-x="587" 
d="M295 55q54 2 159 29v381q-103 24 -155 24q-96 0 -140.5 -58t-44.5 -158q0 -218 181 -218zM287 -4q-117 0 -176 71.5t-59 206.5q0 125 65.5 199.5t178.5 74.5q69 0 165 -25q53 -14 53 -65v-631l-60 -13v216q-102 -34 -167 -34z" />
    <glyph glyph-name="r" unicode="r" horiz-adv-x="349" 
d="M338 548v-62q-114 0 -199 -23v-463h-62v458q0 51 53 65q90 25 208 25z" />
    <glyph glyph-name="s" unicode="s" horiz-adv-x="538" 
d="M226 309l108 -18q67 -11 104.5 -48.5t37.5 -94.5q0 -76 -53 -115.5t-130 -39.5q-80 0 -194 33l-37 10l13 59l36 -11q113 -32 183 -32q53 0 86.5 23t33.5 70q0 36 -23 57t-76 30l-107 19q-68 12 -105.5 48.5t-37.5 94.5q0 76 53 116t129 40q87 0 195 -33l36 -10l-12 -59
l-37 10q-110 33 -183 33q-52 0 -85.5 -23.5t-33.5 -70.5q0 -36 23 -57.5t76 -30.5z" />
    <glyph glyph-name="t" unicode="t" horiz-adv-x="399" 
d="M359 67l10 -58q-68 -15 -109 -15q-150 0 -150 170v313h-88v57h88v139l61 13v-152h186v-57h-186v-308q0 -62 21 -89.5t71 -27.5q31 0 96 15z" />
    <glyph glyph-name="u" unicode="u" horiz-adv-x="577" 
d="M438 78v466h62v-459q0 -50 -52 -64q-96 -25 -172 -25q-101 0 -150 53.5t-49 141.5v353h61v-347q0 -142 145 -142q63 0 155 23z" />
    <glyph glyph-name="v" unicode="v" horiz-adv-x="531" 
d="M504 544l-192 -518q-14 -36 -51 -36t-51 36l-183 518h68l168 -487l173 487h68z" />
    <glyph glyph-name="w" unicode="w" horiz-adv-x="783" 
d="M745 544l-109 -513q-9 -41 -50 -41q-36 0 -50 38l-145 440l-152 -441q-12 -36 -50 -36q-42 0 -51 40l-101 513h65l91 -485l157 458q9 30 41 30t41 -30l155 -459l96 486h62z" />
    <glyph glyph-name="x" unicode="x" horiz-adv-x="540" 
d="M507 0h-77l-160 232l-161 -232h-74l197 274l-193 270h76l157 -226l152 226h73l-187 -266z" />
    <glyph glyph-name="y" unicode="y" horiz-adv-x="526" 
d="M152 -182q-43 0 -102 17l10 58q70 -17 93 -17q37 0 55.5 17.5t28.5 52.5l9 29l-219 569h71l182 -491l155 491h68l-206 -617q-36 -109 -145 -109z" />
    <glyph glyph-name="z" unicode="z" horiz-adv-x="526" 
d="M66 544h374q41 0 41 -42q0 -22 -16 -40l-341 -408h359v-54h-389q-41 0 -41 42q0 22 16 40l341 408h-344v54z" />
    <glyph glyph-name="braceleft" unicode="{" horiz-adv-x="267" 
d="M143 338q43 -23 43 -76q0 -30 -24.5 -94.5t-24.5 -102.5q0 -75 72 -75h36v-57h-36q-59 0 -95.5 33.5t-36.5 94.5q0 44 26.5 111t26.5 91q0 53 -66 53v44q66 0 66 53q0 24 -26.5 91t-26.5 111q0 61 36.5 95t95.5 34h36v-58h-36q-72 0 -72 -75q0 -38 24.5 -102.5
t24.5 -94.5q0 -53 -43 -76z" />
    <glyph glyph-name="bar" unicode="|" horiz-adv-x="211" 
d="M134 -180h-57v943h57v-943z" />
    <glyph glyph-name="braceright" unicode="}" horiz-adv-x="267" 
d="M132 338q-43 23 -43 76q0 30 24.5 94.5t24.5 102.5q0 75 -72 75h-36v58h36q59 0 95.5 -34t36.5 -95q0 -44 -26.5 -111t-26.5 -91q0 -53 66 -53v-44q-66 0 -66 -53q0 -24 26.5 -90.5t26.5 -110.5q0 -61 -36.5 -95t-95.5 -34h-36v57h36q33 0 52.5 19t19.5 56
q0 38 -24.5 102.5t-24.5 94.5q0 53 43 76z" />
    <glyph glyph-name="asciitilde" unicode="~" 
d="M305 258l-62 45q-30 22 -54 22q-58 0 -93 -83l-47 31q24 58 61 86.5t80 28.5q46 0 88 -30l61 -46q27 -21 55 -21q56 0 91 83l47 -31q-23 -58 -60 -86.5t-80 -28.5q-45 0 -87 30z" />
    <glyph glyph-name="exclamdown" unicode="&#xa1;" horiz-adv-x="205" 
d="M73 321l64 12v-519h-64v507zM61 517q0 23 12 36.5t32 13.5t32 -13.5t12 -36.5t-12 -36t-32 -13t-32 13t-12 36z" />
    <glyph glyph-name="cent" unicode="&#xa2;" 
d="M68 272q0 122 55 192.5t150 82.5v126h60v-126q45 -4 126 -25l39 -11l-12 -58l-39 10q-103 27 -137 27q-177 0 -177 -218t178 -218q37 0 136 26l39 11l12 -59l-39 -10q-83 -21 -126 -25v-130h-60v130q-96 9 -150.5 77.5t-54.5 197.5z" />
    <glyph glyph-name="sterling" unicode="&#xa3;" 
d="M395 0h-338q-25 0 -25 27q0 29 25 29q150 0 150 145q0 37 -18 79h-127v55h103l-21 36t-18.5 32.5l-14 26t-13 27t-8.5 23t-7.5 25.5t-3 24.5t-1.5 30.5q0 87 59.5 139t153.5 52q76 0 195 -36l38 -11l-13 -60l-38 11q-117 35 -180 35q-77 0 -114 -35.5t-37 -94.5
q0 -29 7.5 -57t14.5 -43t31 -57.5t36 -66.5h197v-55h-173q14 -39 14 -80q0 -84 -57 -142h179q55 0 81.5 21t27.5 68h50q0 -69 -41 -108.5t-114 -39.5z" />
    <glyph glyph-name="yen" unicode="&#xa5;" 
d="M554 744l-196 -335h176v-54h-205v-81h205v-55h-205v-219h-66v219h-209v55h209v81h-209v54h179l-199 335h77l186 -329l183 329h74z" />
    <glyph glyph-name="brokenbar" unicode="&#xa6;" horiz-adv-x="213" 
d="M135 388h-55v375h55v-375zM135 -180h-55v376h55v-376z" />
    <glyph glyph-name="section" unicode="&#xa7;" 
d="M123 383v-58q0 -84 40.5 -129.5t137.5 -45.5q50 0 163 31v60q0 83 -40.5 128t-137.5 45q-51 0 -163 -31zM61 325v192q0 106 60.5 169.5t168.5 63.5q72 0 194 -34l38 -10l-13 -60l-38 11q-117 33 -179 33q-85 0 -127 -45.5t-42 -127.5v-78q103 34 168 34q235 0 235 -232
v-194q0 -106 -61.5 -169.5t-168.5 -63.5q-71 0 -193 34l-38 11l13 60l38 -11q124 -35 179 -35q169 0 169 174v78q-106 -35 -167 -35q-236 0 -236 235z" />
    <glyph glyph-name="dieresis" unicode="&#xa8;" horiz-adv-x="563" 
d="M218 716q0 -23 -12 -36t-32 -13t-32 13t-12 36t12 36.5t32 13.5t32 -13.5t12 -36.5zM444 716q0 -23 -12 -36t-33 -13q-20 0 -32 13t-12 36t12 36.5t32 13.5q21 0 33 -13.5t12 -36.5z" />
    <glyph glyph-name="copyright" unicode="&#xa9;" horiz-adv-x="919" 
d="M857 368q0 -169 -114.5 -281t-277.5 -112q-162 0 -276.5 112t-114.5 281t114 279t277 110q164 0 278 -109t114 -280zM802 368q0 149 -97.5 243t-239.5 94t-239.5 -95t-97.5 -242q0 -146 98 -243t239 -97q142 0 239.5 96.5t97.5 243.5zM276 366q0 100 52.5 154t138.5 54
q34 0 116 -21l32 -8l-12 -49l-32 8q-75 18 -103 18q-136 0 -136 -156q0 -157 137 -157q30 0 103 19l32 8l11 -49l-32 -8q-82 -20 -117 -20q-88 0 -139 51.5t-51 155.5z" />
    <glyph glyph-name="ordfeminine" unicode="&#xaa;" 
d="M491 366l-20 -42l-37 18q-25 11 -68 2l-50 -10q-47 -9 -74 -9q-63 0 -98 34t-35 87q0 122 162 122h118v41q0 87 -88 87q-52 0 -131 -21l-35 -9l-12 52l39 11q82 23 140 23q64 0 103.5 -34.5t39.5 -108.5v-218zM389 397v122h-119q-52 0 -77 -16.5t-25 -54.5q0 -72 84 -72
q26 0 89 12z" />
    <glyph glyph-name="guillemotleft" unicode="&#xab;" horiz-adv-x="551" 
d="M50 280q0 23 20 43l150 146h80l-191 -189l192 -187h-80l-151 145q-20 20 -20 42zM259 280q0 24 19 43l151 146h79l-192 -189l195 -187h-80l-152 145q-20 20 -20 42z" />
    <glyph glyph-name="logicalnot" unicode="&#xac;" 
d="M520 90h-60v220h-403v62h463v-282z" />
    <glyph glyph-name="registered" unicode="&#xae;" horiz-adv-x="919" 
d="M571 458q0 30 -18.5 48t-48.5 18h-123v-161h147l26 38q17 25 17 57zM857 368q0 -169 -114.5 -281t-277.5 -112q-162 0 -276.5 112t-114.5 281t114 279t277 110q164 0 278 -109t114 -280zM802 368q0 149 -97.5 243t-239.5 94t-239.5 -95t-97.5 -242q0 -146 98 -243
t239 -97q142 0 239.5 96.5t97.5 243.5zM377 572h134q51 0 83 -32t32 -82q0 -38 -22 -73l-36 -52l82 -166h-58l-72 148h-139v-148h-53v357q0 27 11.5 37.5t37.5 10.5z" />
    <glyph glyph-name="macron" unicode="&#xaf;" horiz-adv-x="523" 
d="M423 667h-313v60h313v-60z" />
    <glyph glyph-name="degree" unicode="&#xb0;" horiz-adv-x="469" 
d="M421 571q0 -84 -50 -138.5t-132 -54.5q-84 0 -133 54.5t-49 138.5t50 138.5t134 54.5q82 0 131 -54.5t49 -138.5zM363 571q0 64 -33 103.5t-91 39.5q-59 0 -91 -39.5t-32 -103.5t33 -104t92 -40q58 0 90 39.5t32 104.5z" />
    <glyph glyph-name="plusminus" unicode="&#xb1;" 
d="M521 295h-203v-174h-60v174h-199v61h199v184h60v-184h203v-61zM521 0h-462v58h462v-58z" />
    <glyph glyph-name="acute" unicode="&#xb4;" horiz-adv-x="534" 
d="M391 763l-132 -120q-12 -12 -25 -12t-21 8.5t-8 19.5q0 14 11 25l81 79h94z" />
    <glyph glyph-name="mu" unicode="&#xb5;" 
d="M78 544h62v-347q0 -67 32.5 -103.5t111.5 -36.5q62 0 155 23v464h62v-456q0 -28 -12.5 -42.5t-38.5 -21.5q-96 -26 -172 -26q-43 -1 -81 11t-58 35v-230h-61v730z" />
    <glyph glyph-name="paragraph" unicode="&#xb6;" horiz-adv-x="618" 
d="M554 -186h-58v876h-151v-876h-58v414q-115 0 -176.5 72.5t-61.5 185.5t61 185.5t176 72.5h268v-930z" />
    <glyph glyph-name="periodcentered" unicode="&#xb7;" horiz-adv-x="368" 
d="M233 367q0 -23 -12 -36.5t-33 -13.5q-20 0 -32 13.5t-12 36.5t12 36t32 13q21 0 33 -13t12 -36z" />
    <glyph glyph-name="cedilla" unicode="&#xb8;" horiz-adv-x="523" 
d="M361 -117q0 -34 -26 -56.5t-71 -22.5q-40 0 -85 20l12 39q42 -16 72 -16q50 0 50 34q0 40 -91 33l-3 5l41 81h37l-25 -52q39 0 64 -16.5t25 -48.5z" />
    <glyph glyph-name="ordmasculine" unicode="&#xba;" 
d="M476 540q0 -99 -51 -156.5t-136 -57.5t-134.5 57t-49.5 157q0 98 50.5 155.5t135.5 57.5t135 -57t50 -156zM418 540q0 76 -34.5 119.5t-94.5 43.5q-61 0 -93 -43t-32 -120q0 -78 33.5 -121t93.5 -43q61 0 94 43t33 121z" />
    <glyph glyph-name="guillemotright" unicode="&#xbb;" horiz-adv-x="551" 
d="M501 280q0 -22 -20 -42l-151 -145h-80l192 187l-191 189h80l150 -146q20 -20 20 -43zM292 280q0 -22 -20 -42l-152 -145h-80l195 187l-192 189h79l151 -146q19 -19 19 -43z" />
    <glyph glyph-name="questiondown" unicode="&#xbf;" horiz-adv-x="450" 
d="M224 -131q71 0 147 24l37 11l12 -56l-37 -11q-88 -26 -160 -26q-84 0 -134 42.5t-50 118.5q0 53 18 90t56 77l94 99v84l59 11v-67q0 -28 -6 -44.5t-24 -35.5l-74 -79q-36 -39 -49.5 -65.5t-13.5 -68.5q0 -48 31.5 -76t93.5 -28zM192 517q0 23 12 36.5t32 13.5t32 -13.5
t12 -36.5t-12 -36t-32 -13t-32 13t-12 36z" />
    <glyph glyph-name="Agrave" unicode="&#xc0;" horiz-adv-x="672" 
d="M655 0h-69l-65 172h-372l-65 -172h-67l270 713q14 38 51 38q38 0 52 -36zM502 228l-164 454l-170 -454h334zM369 815l-132 120h94l81 -79q11 -11 11 -25q0 -11 -8 -19.5t-21 -8.5t-25 12z" />
    <glyph glyph-name="Aacute" unicode="&#xc1;" horiz-adv-x="672" 
d="M655 0h-69l-65 172h-372l-65 -172h-67l270 713q14 38 51 38q38 0 52 -36zM502 228l-164 454l-170 -454h334zM443 935l-132 -120q-12 -12 -25 -12t-21 8.5t-8 19.5q0 14 11 25l81 79h94z" />
    <glyph glyph-name="Acircumflex" unicode="&#xc2;" horiz-adv-x="672" 
d="M655 0h-69l-65 172h-372l-65 -172h-67l270 713q14 38 51 38q38 0 52 -36zM502 228l-164 454l-170 -454h334zM338 952q25 0 41 -18l126 -124h-89l-78 90l-78 -90h-88l125 124q18 18 41 18z" />
    <glyph glyph-name="Atilde" unicode="&#xc3;" horiz-adv-x="672" 
d="M655 0h-69l-65 172h-372l-65 -172h-67l270 713q14 38 51 38q38 0 52 -36zM502 228l-164 454l-170 -454h334zM354 829l-47 34q-23 17 -46 17q-47 0 -74 -66l-46 26q19 50 52.5 74.5t69.5 24.5q40 0 72 -24l48 -35q23 -16 45 -16q46 0 73 66l47 -25q-19 -50 -52.5 -75
t-68.5 -25q-41 0 -73 24z" />
    <glyph glyph-name="Adieresis" unicode="&#xc4;" horiz-adv-x="672" 
d="M655 0h-69l-65 172h-372l-65 -172h-67l270 713q14 38 51 38q38 0 52 -36zM502 228l-164 454l-170 -454h334zM270 870q0 -23 -12 -36t-32 -13t-32 13t-12 36t12 36.5t32 13.5t32 -13.5t12 -36.5zM496 870q0 -23 -12 -36t-33 -13q-20 0 -32 13t-12 36t12 36.5t32 13.5
q21 0 33 -13.5t12 -36.5z" />
    <glyph glyph-name="Aring" unicode="&#xc5;" horiz-adv-x="674" 
d="M655 0h-69l-65 172h-372l-65 -172h-67l270 713q-53 27 -53 89q0 44 29.5 72t74.5 28t75 -28t30 -72q0 -62 -54 -89zM502 228l-164 454l-170 -454h334zM338 860q-26 0 -42.5 -16.5t-16.5 -41.5q0 -26 16.5 -42.5t42.5 -16.5q27 0 43.5 16.5t16.5 42.5q0 25 -16.5 41.5
t-43.5 16.5z" />
    <glyph glyph-name="AE" unicode="&#xc6;" horiz-adv-x="1004" 
d="M954 0h-404q-64 0 -64 60v109h-333l-66 -169h-70l280 691q22 53 78 53h575v-59h-400v-276h359v-56h-359v-295h404v-58zM486 226v459h-128l-183 -459h311z" />
    <glyph glyph-name="Ccedilla" unicode="&#xc7;" horiz-adv-x="661" 
d="M58 370q0 186 90 282t235 96q75 0 192 -37l47 -14l-12 -60l-49 15q-115 35 -177 35q-122 0 -190 -78.5t-68 -238.5t68.5 -238.5t190.5 -78.5q63 0 176 35l49 15l12 -60l-47 -15q-116 -36 -192 -36q-148 0 -236.5 94t-88.5 284zM469 -117q0 -34 -26 -56.5t-71 -22.5
q-40 0 -85 20l12 39q42 -16 72 -16q50 0 50 34q0 40 -91 33l-3 5l41 81h37l-25 -52q39 0 64 -16.5t25 -48.5z" />
    <glyph glyph-name="Egrave" unicode="&#xc8;" horiz-adv-x="606" 
d="M551 0h-404q-31 0 -48 16t-17 44v623q0 29 17 45t48 16h401v-59h-401v-276h353v-57h-353v-294h404v-58zM336 815l-132 120h94l81 -79q11 -11 11 -25q0 -11 -8 -19.5t-21 -8.5t-25 12z" />
    <glyph glyph-name="Eacute" unicode="&#xc9;" horiz-adv-x="606" 
d="M551 0h-404q-31 0 -48 16t-17 44v623q0 29 17 45t48 16h401v-59h-401v-276h353v-57h-353v-294h404v-58zM436 935l-132 -120q-12 -12 -25 -12t-21 8.5t-8 19.5q0 14 11 25l81 79h94z" />
    <glyph glyph-name="Ecircumflex" unicode="&#xca;" horiz-adv-x="606" 
d="M551 0h-404q-31 0 -48 16t-17 44v623q0 29 17 45t48 16h401v-59h-401v-276h353v-57h-353v-294h404v-58zM316 952q25 0 41 -18l126 -124h-89l-78 90l-78 -90h-88l125 124q18 18 41 18z" />
    <glyph glyph-name="Edieresis" unicode="&#xcb;" horiz-adv-x="606" 
d="M551 0h-404q-31 0 -48 16t-17 44v623q0 29 17 45t48 16h401v-59h-401v-276h353v-57h-353v-294h404v-58zM248 869q0 -23 -12 -36t-32 -13t-32 13t-12 36t12 36.5t32 13.5t32 -13.5t12 -36.5zM474 869q0 -23 -12 -36t-33 -13q-20 0 -32 13t-12 36t12 36.5t32 13.5
q21 0 33 -13.5t12 -36.5z" />
    <glyph glyph-name="Igrave" unicode="&#xcc;" horiz-adv-x="230" 
d="M147 0h-65v744h65v-744zM137 814l-132 120h94l81 -79q11 -11 11 -25q0 -11 -8 -19.5t-21 -8.5t-25 12z" />
    <glyph glyph-name="Iacute" unicode="&#xcd;" horiz-adv-x="230" 
d="M147 0h-65v744h65v-744zM234 934l-132 -120q-12 -12 -25 -12t-21 8.5t-8 19.5q0 14 11 25l81 79h94z" />
    <glyph glyph-name="Icircumflex" unicode="&#xce;" horiz-adv-x="230" 
d="M147 0h-65v744h65v-744zM115 952q25 0 41 -18l126 -124h-89l-78 90l-78 -90h-88l125 124q18 18 41 18z" />
    <glyph glyph-name="Idieresis" unicode="&#xcf;" horiz-adv-x="230" 
d="M147 0h-65v744h65v-744zM47 870q0 -23 -12 -36t-32 -13t-32 13t-12 36t12 36.5t32 13.5t32 -13.5t12 -36.5zM273 870q0 -23 -12 -36t-33 -13q-20 0 -32 13t-12 36t12 36.5t32 13.5q21 0 33 -13.5t12 -36.5z" />
    <glyph glyph-name="Eth" unicode="&#xd0;" horiz-adv-x="722" 
d="M667 370q0 -174 -89.5 -272t-237.5 -98h-191q-31 0 -47.5 15.5t-16.5 44.5v293h-70v56h70v274q0 61 64 61h194q148 0 236 -100t88 -274zM602 370q0 146 -72 231.5t-200 85.5h-180v-278h229v-56h-229v-295h187q126 0 195.5 82t69.5 230z" />
    <glyph glyph-name="Ntilde" unicode="&#xd1;" horiz-adv-x="729" 
d="M143 663v-663h-61v701q0 50 47 50q33 0 52 -30l406 -638v661h60v-700q0 -49 -47 -49q-32 0 -51 30zM382 830l-47 34q-23 17 -46 17q-47 0 -74 -66l-46 26q19 50 52.5 74.5t69.5 24.5q40 0 72 -24l48 -35q23 -16 45 -16q46 0 73 66l47 -25q-19 -50 -52.5 -75t-68.5 -25
q-41 0 -73 24z" />
    <glyph glyph-name="Ograve" unicode="&#xd2;" horiz-adv-x="780" 
d="M725 370q0 -181 -91.5 -279.5t-245.5 -98.5q-152 0 -242.5 99.5t-90.5 278.5q0 178 92.5 278t245.5 100q151 0 241.5 -99.5t90.5 -278.5zM659 370q0 152 -71.5 236t-197.5 84q-127 0 -198.5 -83.5t-71.5 -236.5t73 -237.5t199 -84.5t196.5 83.5t70.5 238.5zM410 814
l-132 120h94l81 -79q11 -11 11 -25q0 -11 -8 -19.5t-21 -8.5t-25 12z" />
    <glyph glyph-name="Oacute" unicode="&#xd3;" horiz-adv-x="780" 
d="M725 370q0 -181 -91.5 -279.5t-245.5 -98.5q-152 0 -242.5 99.5t-90.5 278.5q0 178 92.5 278t245.5 100q151 0 241.5 -99.5t90.5 -278.5zM659 370q0 152 -71.5 236t-197.5 84q-127 0 -198.5 -83.5t-71.5 -236.5t73 -237.5t199 -84.5t196.5 83.5t70.5 238.5zM511 934
l-132 -120q-12 -12 -25 -12t-21 8.5t-8 19.5q0 14 11 25l81 79h94z" />
    <glyph glyph-name="Ocircumflex" unicode="&#xd4;" horiz-adv-x="780" 
d="M725 370q0 -181 -91.5 -279.5t-245.5 -98.5q-152 0 -242.5 99.5t-90.5 278.5q0 178 92.5 278t245.5 100q151 0 241.5 -99.5t90.5 -278.5zM659 370q0 152 -71.5 236t-197.5 84q-127 0 -198.5 -83.5t-71.5 -236.5t73 -237.5t199 -84.5t196.5 83.5t70.5 238.5zM393 952
q25 0 41 -18l126 -124h-89l-78 90l-78 -90h-88l125 124q18 18 41 18z" />
    <glyph glyph-name="Otilde" unicode="&#xd5;" horiz-adv-x="780" 
d="M725 370q0 -181 -91.5 -279.5t-245.5 -98.5q-152 0 -242.5 99.5t-90.5 278.5q0 178 92.5 278t245.5 100q151 0 241.5 -99.5t90.5 -278.5zM659 370q0 152 -71.5 236t-197.5 84q-127 0 -198.5 -83.5t-71.5 -236.5t73 -237.5t199 -84.5t196.5 83.5t70.5 238.5zM401 832
l-47 34q-23 17 -46 17q-47 0 -74 -66l-46 26q19 50 52.5 74.5t69.5 24.5q40 0 72 -24l48 -35q23 -16 45 -16q46 0 73 66l47 -25q-19 -50 -52.5 -75t-68.5 -25q-41 0 -73 24z" />
    <glyph glyph-name="Odieresis" unicode="&#xd6;" horiz-adv-x="780" 
d="M725 370q0 -181 -91.5 -279.5t-245.5 -98.5q-152 0 -242.5 99.5t-90.5 278.5q0 178 92.5 278t245.5 100q151 0 241.5 -99.5t90.5 -278.5zM659 370q0 152 -71.5 236t-197.5 84q-127 0 -198.5 -83.5t-71.5 -236.5t73 -237.5t199 -84.5t196.5 83.5t70.5 238.5zM323 869
q0 -23 -12 -36t-32 -13t-32 13t-12 36t12 36.5t32 13.5t32 -13.5t12 -36.5zM549 869q0 -23 -12 -36t-33 -13q-20 0 -32 13t-12 36t12 36.5t32 13.5q21 0 33 -13.5t12 -36.5z" />
    <glyph glyph-name="multiply" unicode="&#xd7;" 
d="M334 292l171 -172l-44 -44l-172 171l-171 -171l-44 44l171 172l-171 172l44 44l171 -171l172 171l44 -44z" />
    <glyph glyph-name="Oslash" unicode="&#xd8;" horiz-adv-x="780" 
d="M725 370q0 -181 -91.5 -279.5t-245.5 -98.5q-90 0 -155 33l-42 -78h-58l56 104q-134 99 -134 319q0 178 92.5 278t245.5 100q84 0 154 -34l43 78h58l-57 -105q134 -99 134 -317zM659 370q0 181 -98 263l-300 -556q55 -30 131 -30q126 0 196.5 84t70.5 239zM120 370
q0 -181 98 -265l301 556q-58 30 -129 30q-127 0 -198.5 -84t-71.5 -237z" />
    <glyph glyph-name="Ugrave" unicode="&#xd9;" horiz-adv-x="715" 
d="M637 262q0 -130 -73 -203t-207 -73t-207 73.5t-73 202.5v482h65v-482q0 -105 54 -161t161 -56q216 0 216 217v482h64v-482zM380 815l-132 120h94l81 -79q11 -11 11 -25q0 -11 -8 -19.5t-21 -8.5t-25 12z" />
    <glyph glyph-name="Uacute" unicode="&#xda;" horiz-adv-x="715" 
d="M637 262q0 -130 -73 -203t-207 -73t-207 73.5t-73 202.5v482h65v-482q0 -105 54 -161t161 -56q216 0 216 217v482h64v-482zM481 935l-132 -120q-12 -12 -25 -12t-21 8.5t-8 19.5q0 14 11 25l81 79h94z" />
    <glyph glyph-name="Ucircumflex" unicode="&#xdb;" horiz-adv-x="715" 
d="M637 262q0 -130 -73 -203t-207 -73t-207 73.5t-73 202.5v482h65v-482q0 -105 54 -161t161 -56q216 0 216 217v482h64v-482zM361 952q25 0 41 -18l126 -124h-89l-78 90l-78 -90h-88l125 124q18 18 41 18z" />
    <glyph glyph-name="Udieresis" unicode="&#xdc;" horiz-adv-x="715" 
d="M637 262q0 -130 -73 -203t-207 -73t-207 73.5t-73 202.5v482h65v-482q0 -105 54 -161t161 -56q216 0 216 217v482h64v-482zM295 869q0 -23 -12 -36t-32 -13t-32 13t-12 36t12 36.5t32 13.5t32 -13.5t12 -36.5zM521 869q0 -23 -12 -36t-33 -13q-20 0 -32 13t-12 36
t12 36.5t32 13.5q21 0 33 -13.5t12 -36.5z" />
    <glyph glyph-name="Yacute" unicode="&#xdd;" horiz-adv-x="638" 
d="M626 744l-269 -421v-323h-66v321l-274 423h75l234 -363l227 363h73zM466 935l-132 -120q-12 -12 -25 -12t-21 8.5t-8 19.5q0 14 11 25l81 79h94z" />
    <glyph glyph-name="Thorn" unicode="&#xde;" horiz-adv-x="619" 
d="M575 390q0 -103 -61.5 -163t-160.5 -60h-209v-167h-62v744h62v-131h220q93 0 152 -60.5t59 -162.5zM515 391q0 77 -42.5 122t-112.5 45h-216v-335h209q75 0 118.5 44.5t43.5 123.5z" />
    <glyph glyph-name="germandbls" unicode="&#xdf;" horiz-adv-x="564" 
d="M516 181q0 -82 -52.5 -131.5t-140.5 -49.5h-84v55h82q70 0 102 33.5t32 90.5t-53 102l-69 58q-23 20 -23 43q0 24 13 42l47 66q31 43 31 97q0 56 -37 90.5t-99 34.5q-129 0 -129 -144v-568h-61v568q0 101 53.5 150.5t137.5 49.5q86 0 140.5 -48t54.5 -133q0 -63 -38 -118
l-58 -80l79 -66q71 -58 72 -142z" />
    <glyph glyph-name="agrave" unicode="&#xe0;" horiz-adv-x="589" 
d="M559 39l-24 -47l-45 27q-36 19 -72 9l-41 -11q-90 -24 -150 -24q-82 0 -128 39t-46 109q0 84 58.5 121.5t151.5 37.5h171v69q0 122 -134 122q-61 0 -173 -32l-39 -11l-12 58l37 10q127 34 188 34q87 0 140 -44.5t53 -136.5v-290zM434 82v164h-172q-147 0 -147 -103
q0 -95 121 -95q51 0 134 20zM314 643l-132 120h94l81 -79q11 -11 11 -25q0 -11 -8 -19.5t-21 -8.5t-25 12z" />
    <glyph glyph-name="aacute" unicode="&#xe1;" horiz-adv-x="589" 
d="M559 39l-24 -47l-45 27q-36 19 -72 9l-41 -11q-90 -24 -150 -24q-82 0 -128 39t-46 109q0 84 58.5 121.5t151.5 37.5h171v69q0 122 -134 122q-61 0 -173 -32l-39 -11l-12 58l37 10q127 34 188 34q87 0 140 -44.5t53 -136.5v-290zM434 82v164h-172q-147 0 -147 -103
q0 -95 121 -95q51 0 134 20zM428 763l-132 -120q-12 -12 -25 -12t-21 8.5t-8 19.5q0 14 11 25l81 79h94z" />
    <glyph glyph-name="acircumflex" unicode="&#xe2;" horiz-adv-x="589" 
d="M559 39l-24 -47l-45 27q-36 19 -72 9l-41 -11q-90 -24 -150 -24q-82 0 -128 39t-46 109q0 84 58.5 121.5t151.5 37.5h171v69q0 122 -134 122q-61 0 -173 -32l-39 -11l-12 58l37 10q127 34 188 34q87 0 140 -44.5t53 -136.5v-290zM434 82v164h-172q-147 0 -147 -103
q0 -95 121 -95q51 0 134 20zM301 765q25 0 41 -18l126 -124h-89l-78 90l-78 -90h-88l125 124q18 18 41 18z" />
    <glyph glyph-name="atilde" unicode="&#xe3;" horiz-adv-x="589" 
d="M559 39l-24 -47l-45 27q-36 19 -72 9l-41 -11q-90 -24 -150 -24q-82 0 -128 39t-46 109q0 84 58.5 121.5t151.5 37.5h171v69q0 122 -134 122q-61 0 -173 -32l-39 -11l-12 58l37 10q127 34 188 34q87 0 140 -44.5t53 -136.5v-290zM434 82v164h-172q-147 0 -147 -103
q0 -95 121 -95q51 0 134 20zM307 650l-47 34q-23 17 -46 17q-47 0 -74 -66l-46 26q19 50 52.5 74.5t69.5 24.5q40 0 72 -24l48 -35q23 -16 45 -16q46 0 73 66l47 -25q-19 -50 -52.5 -75t-68.5 -25q-41 0 -73 24z" />
    <glyph glyph-name="adieresis" unicode="&#xe4;" horiz-adv-x="589" 
d="M559 39l-24 -47l-45 27q-36 19 -72 9l-41 -11q-90 -24 -150 -24q-82 0 -128 39t-46 109q0 84 58.5 121.5t151.5 37.5h171v69q0 122 -134 122q-61 0 -173 -32l-39 -11l-12 58l37 10q127 34 188 34q87 0 140 -44.5t53 -136.5v-290zM434 82v164h-172q-147 0 -147 -103
q0 -95 121 -95q51 0 134 20zM236 716q0 -23 -12 -36t-32 -13t-32 13t-12 36t12 36.5t32 13.5t32 -13.5t12 -36.5zM462 716q0 -23 -12 -36t-33 -13q-20 0 -32 13t-12 36t12 36.5t32 13.5q21 0 33 -13.5t12 -36.5z" />
    <glyph glyph-name="aring" unicode="&#xe5;" horiz-adv-x="589" 
d="M559 39l-24 -47l-45 27q-36 19 -72 9l-41 -11q-90 -24 -150 -24q-82 0 -128 39t-46 109q0 84 58.5 121.5t151.5 37.5h171v69q0 122 -134 122q-61 0 -173 -32l-39 -11l-12 58l37 10q127 34 188 34q87 0 140 -44.5t53 -136.5v-290zM434 82v164h-172q-147 0 -147 -103
q0 -95 121 -95q51 0 134 20zM293 596q-44 0 -74 28.5t-30 72.5t29.5 72t74.5 28t75 -28t30 -72t-30.5 -72.5t-74.5 -28.5zM293 755q-26 0 -42.5 -16.5t-16.5 -41.5q0 -26 16.5 -42.5t42.5 -16.5q27 0 43.5 16.5t16.5 42.5q0 25 -16.5 41.5t-43.5 16.5z" />
    <glyph glyph-name="ae" unicode="&#xe6;" horiz-adv-x="960" 
d="M689 -6q-80 0 -140 34q-33 17 -75 8l-95 -22q-97 -21 -154 -21q-82 0 -128 39t-46 108q0 58 30.5 95t75 51t104.5 14h172v67q0 124 -133 124q-61 0 -173 -32l-39 -11l-12 58l37 10q127 34 188 34q140 0 178 -106q30 54 81.5 81t113.5 27q110 0 174.5 -68t64.5 -200
q0 -40 -37 -40h-379q4 -94 57 -142t137 -48q60 0 152 28l49 16l12 -57l-47 -16q-90 -31 -168 -31zM235 48q48 0 136 19l109 25q-42 66 -46 154h-174q-146 0 -146 -103q0 -95 121 -95zM848 300q0 89 -43.5 143.5t-131.5 54.5q-78 0 -124.5 -53t-51.5 -145h351z" />
    <glyph glyph-name="ccedilla" unicode="&#xe7;" horiz-adv-x="515" 
d="M52 272q0 133 65 205t174 72q52 0 152 -27l39 -10l-12 -59l-39 10q-103 27 -137 27q-177 0 -177 -218t178 -218q43 0 136 26l39 10l12 -58l-39 -11q-96 -27 -152 -27q-111 0 -175 69t-64 209zM376 -117q0 -34 -26 -56.5t-71 -22.5q-40 0 -85 20l12 39q42 -16 72 -16
q50 0 50 34q0 40 -91 33l-3 5l41 81h37l-25 -52q39 0 64 -16.5t25 -48.5z" />
    <glyph glyph-name="egrave" unicode="&#xe8;" horiz-adv-x="580" 
d="M468 300q0 89 -44 143.5t-132 54.5q-78 0 -124 -53t-51 -145h351zM308 -6q-117 0 -186.5 71t-69.5 206q0 138 68.5 209.5t172.5 71.5q110 0 174.5 -68t64.5 -200q0 -40 -36 -40h-379q4 -94 57 -142t137 -48q60 0 151 28l49 16l13 -57l-48 -16q-93 -31 -168 -31zM312 643
l-132 120h94l81 -79q11 -11 11 -25q0 -11 -8 -19.5t-21 -8.5t-25 12z" />
    <glyph glyph-name="eacute" unicode="&#xe9;" horiz-adv-x="580" 
d="M468 300q0 89 -44 143.5t-132 54.5q-78 0 -124 -53t-51 -145h351zM308 -6q-117 0 -186.5 71t-69.5 206q0 138 68.5 209.5t172.5 71.5q110 0 174.5 -68t64.5 -200q0 -40 -36 -40h-379q4 -94 57 -142t137 -48q60 0 151 28l49 16l13 -57l-48 -16q-93 -31 -168 -31zM437 763
l-132 -120q-12 -12 -25 -12t-21 8.5t-8 19.5q0 14 11 25l81 79h94z" />
    <glyph glyph-name="ecircumflex" unicode="&#xea;" horiz-adv-x="580" 
d="M468 300q0 89 -44 143.5t-132 54.5q-78 0 -124 -53t-51 -145h351zM308 -6q-117 0 -186.5 71t-69.5 206q0 138 68.5 209.5t172.5 71.5q110 0 174.5 -68t64.5 -200q0 -40 -36 -40h-379q4 -94 57 -142t137 -48q60 0 151 28l49 16l13 -57l-48 -16q-93 -31 -168 -31zM296 765
q25 0 41 -18l126 -124h-89l-78 90l-78 -90h-88l125 124q18 18 41 18z" />
    <glyph glyph-name="edieresis" unicode="&#xeb;" horiz-adv-x="580" 
d="M468 300q0 89 -44 143.5t-132 54.5q-78 0 -124 -53t-51 -145h351zM308 -6q-117 0 -186.5 71t-69.5 206q0 138 68.5 209.5t172.5 71.5q110 0 174.5 -68t64.5 -200q0 -40 -36 -40h-379q4 -94 57 -142t137 -48q60 0 151 28l49 16l13 -57l-48 -16q-93 -31 -168 -31zM228 716
q0 -23 -12 -36t-32 -13t-32 13t-12 36t12 36.5t32 13.5t32 -13.5t12 -36.5zM454 716q0 -23 -12 -36t-33 -13q-20 0 -32 13t-12 36t12 36.5t32 13.5q21 0 33 -13.5t12 -36.5z" />
    <glyph glyph-name="igrave" unicode="&#xec;" horiz-adv-x="233" 
d="M149 0h-64v544h64v-544zM122 643l-132 120h94l81 -79q11 -11 11 -25q0 -11 -8 -19.5t-21 -8.5t-25 12z" />
    <glyph glyph-name="iacute" unicode="&#xed;" horiz-adv-x="233" 
d="M149 0h-64v544h64v-544zM243 763l-132 -120q-12 -12 -25 -12t-21 8.5t-8 19.5q0 14 11 25l81 79h94z" />
    <glyph glyph-name="icircumflex" unicode="&#xee;" horiz-adv-x="233" 
d="M149 0h-64v544h64v-544zM118 765q25 0 41 -18l126 -124h-89l-78 90l-78 -90h-88l125 124q18 18 41 18z" />
    <glyph glyph-name="idieresis" unicode="&#xef;" horiz-adv-x="233" 
d="M149 0h-64v544h64v-544zM50 716q0 -23 -12 -36t-32 -13t-32 13t-12 36t12 36.5t32 13.5t32 -13.5t12 -36.5zM276 716q0 -23 -12 -36t-33 -13q-20 0 -32 13t-12 36t12 36.5t32 13.5q21 0 33 -13.5t12 -36.5z" />
    <glyph glyph-name="eth" unicode="&#xf0;" horiz-adv-x="614" 
d="M312 458q-187 0 -187 -198q0 -95 47.5 -151.5t134.5 -56.5q91 0 135.5 52.5t44.5 145.5v177q-107 31 -175 31zM307 517q61 0 180 -34v48q0 63 -30 111l-146 -81v61l112 60q-41 26 -105 26h-64v55h63q106 0 160 -48l85 49v-62l-51 -28q37 -62 37 -143v-284
q0 -114 -63 -183.5t-180 -69.5q-115 0 -178.5 75.5t-63.5 190.5q0 110 61 183.5t183 73.5z" />
    <glyph glyph-name="ntilde" unicode="&#xf1;" horiz-adv-x="575" 
d="M139 465v-465h-62v458q0 51 52 65q96 25 172 25q101 0 150 -53.5t49 -142.5v-352h-61v346q0 143 -145 143q-63 0 -155 -24zM303 650l-47 34q-23 17 -46 17q-47 0 -74 -66l-46 26q19 50 52.5 74.5t69.5 24.5q40 0 72 -24l48 -35q23 -16 45 -16q46 0 73 66l47 -25
q-19 -50 -52.5 -75t-68.5 -25q-41 0 -73 24z" />
    <glyph glyph-name="ograve" unicode="&#xf2;" horiz-adv-x="604" 
d="M552 272q0 -132 -67.5 -205t-183.5 -73t-182.5 73.5t-66.5 204.5t68.5 204.5t183.5 73.5t181.5 -73t66.5 -205zM489 272q0 105 -49.5 164t-138.5 59t-136.5 -58.5t-47.5 -164.5q0 -107 48.5 -165.5t138.5 -58.5q89 0 137 58.5t48 165.5zM332 643l-132 120h94l81 -79
q11 -11 11 -25q0 -11 -8 -19.5t-21 -8.5t-25 12z" />
    <glyph glyph-name="oacute" unicode="&#xf3;" horiz-adv-x="604" 
d="M552 272q0 -132 -67.5 -205t-183.5 -73t-182.5 73.5t-66.5 204.5t68.5 204.5t183.5 73.5t181.5 -73t66.5 -205zM489 272q0 105 -49.5 164t-138.5 59t-136.5 -58.5t-47.5 -164.5q0 -107 48.5 -165.5t138.5 -58.5q89 0 137 58.5t48 165.5zM418 763l-132 -120
q-12 -12 -25 -12t-21 8.5t-8 19.5q0 14 11 25l81 79h94z" />
    <glyph glyph-name="ocircumflex" unicode="&#xf4;" horiz-adv-x="604" 
d="M552 272q0 -132 -67.5 -205t-183.5 -73t-182.5 73.5t-66.5 204.5t68.5 204.5t183.5 73.5t181.5 -73t66.5 -205zM489 272q0 105 -49.5 164t-138.5 59t-136.5 -58.5t-47.5 -164.5q0 -107 48.5 -165.5t138.5 -58.5q89 0 137 58.5t48 165.5zM305 765q25 0 41 -18l126 -124
h-89l-78 90l-78 -90h-88l125 124q18 18 41 18z" />
    <glyph glyph-name="otilde" unicode="&#xf5;" horiz-adv-x="604" 
d="M552 272q0 -132 -67.5 -205t-183.5 -73t-182.5 73.5t-66.5 204.5t68.5 204.5t183.5 73.5t181.5 -73t66.5 -205zM489 272q0 105 -49.5 164t-138.5 59t-136.5 -58.5t-47.5 -164.5q0 -107 48.5 -165.5t138.5 -58.5q89 0 137 58.5t48 165.5zM317 650l-47 34q-23 17 -46 17
q-47 0 -74 -66l-46 26q19 50 52.5 74.5t69.5 24.5q40 0 72 -24l48 -35q23 -16 45 -16q46 0 73 66l47 -25q-19 -50 -52.5 -75t-68.5 -25q-41 0 -73 24z" />
    <glyph glyph-name="odieresis" unicode="&#xf6;" horiz-adv-x="604" 
d="M552 272q0 -132 -67.5 -205t-183.5 -73t-182.5 73.5t-66.5 204.5t68.5 204.5t183.5 73.5t181.5 -73t66.5 -205zM489 272q0 105 -49.5 164t-138.5 59t-136.5 -58.5t-47.5 -164.5q0 -107 48.5 -165.5t138.5 -58.5q89 0 137 58.5t48 165.5zM238 716q0 -23 -12 -36t-32 -13
t-32 13t-12 36t12 36.5t32 13.5t32 -13.5t12 -36.5zM464 716q0 -23 -12 -36t-33 -13q-20 0 -32 13t-12 36t12 36.5t32 13.5q21 0 33 -13.5t12 -36.5z" />
    <glyph glyph-name="divide" unicode="&#xf7;" 
d="M333 500q0 -22 -12 -36t-32 -14q-21 0 -32.5 14t-11.5 36t11.5 35.5t32.5 13.5q20 0 32 -13.5t12 -35.5zM521 264h-462v62h462v-62zM333 88q0 -22 -12 -36t-32 -14q-21 0 -32.5 14t-11.5 36t11.5 35.5t32.5 13.5q20 0 32 -13.5t12 -35.5z" />
    <glyph glyph-name="oslash" unicode="&#xf8;" horiz-adv-x="604" 
d="M552 272q0 -132 -67.5 -205t-183.5 -73q-58 0 -103 18l-34 -64h-55l46 87q-103 70 -103 237q0 131 68.5 204.5t183.5 73.5q61 0 111 -22l32 62h54l-45 -87q96 -71 96 -231zM117 272q0 -128 66 -185l205 390q-40 19 -87 19q-89 0 -136.5 -59t-47.5 -165zM489 272
q0 119 -62 178l-203 -387q34 -15 80 -15q89 0 137 58.5t48 165.5z" />
    <glyph glyph-name="ugrave" unicode="&#xf9;" horiz-adv-x="577" 
d="M438 78v466h62v-459q0 -50 -52 -64q-96 -25 -172 -25q-101 0 -150 53.5t-49 141.5v353h61v-347q0 -142 145 -142q63 0 155 23zM303 643l-132 120h94l81 -79q11 -11 11 -25q0 -11 -8 -19.5t-21 -8.5t-25 12z" />
    <glyph glyph-name="uacute" unicode="&#xfa;" horiz-adv-x="577" 
d="M438 78v466h62v-459q0 -50 -52 -64q-96 -25 -172 -25q-101 0 -150 53.5t-49 141.5v353h61v-347q0 -142 145 -142q63 0 155 23zM413 763l-132 -120q-12 -12 -25 -12t-21 8.5t-8 19.5q0 14 11 25l81 79h94z" />
    <glyph glyph-name="ucircumflex" unicode="&#xfb;" horiz-adv-x="577" 
d="M438 78v466h62v-459q0 -50 -52 -64q-96 -25 -172 -25q-101 0 -150 53.5t-49 141.5v353h61v-347q0 -142 145 -142q63 0 155 23zM290 765q25 0 41 -18l126 -124h-89l-78 90l-78 -90h-88l125 124q18 18 41 18z" />
    <glyph glyph-name="udieresis" unicode="&#xfc;" horiz-adv-x="577" 
d="M438 78v466h62v-459q0 -50 -52 -64q-96 -25 -172 -25q-101 0 -150 53.5t-49 141.5v353h61v-347q0 -142 145 -142q63 0 155 23zM222 716q0 -23 -12 -36t-32 -13t-32 13t-12 36t12 36.5t32 13.5t32 -13.5t12 -36.5zM448 716q0 -23 -12 -36t-33 -13q-20 0 -32 13t-12 36
t12 36.5t32 13.5q21 0 33 -13.5t12 -36.5z" />
    <glyph glyph-name="yacute" unicode="&#xfd;" horiz-adv-x="526" 
d="M152 -182q-43 0 -102 17l10 58q70 -17 93 -17q37 0 55.5 17.5t28.5 52.5l9 29l-219 569h71l182 -491l155 491h68l-206 -617q-36 -109 -145 -109zM409 763l-132 -120q-12 -12 -25 -12t-21 8.5t-8 19.5q0 14 11 25l81 79h94z" />
    <glyph glyph-name="thorn" unicode="&#xfe;" horiz-adv-x="588" 
d="M476 273q0 216 -181 216q-52 0 -158 -27v-378q113 -29 159 -29q180 0 180 218zM77 757l60 13v-252q103 30 165 30q116 0 176.5 -71t60.5 -204q0 -132 -62.5 -204.5t-177.5 -72.5q-59 0 -162 33v-202l-60 -13v943z" />
    <glyph glyph-name="ydieresis" unicode="&#xff;" horiz-adv-x="526" 
d="M152 -182q-43 0 -102 17l10 58q70 -17 93 -17q37 0 55.5 17.5t28.5 52.5l9 29l-219 569h71l182 -491l155 491h68l-206 -617q-36 -109 -145 -109zM204 716q0 -23 -12 -36t-32 -13t-32 13t-12 36t12 36.5t32 13.5t32 -13.5t12 -36.5zM430 716q0 -23 -12 -36t-33 -13
q-20 0 -32 13t-12 36t12 36.5t32 13.5q21 0 33 -13.5t12 -36.5z" />
    <glyph glyph-name="dotlessi" unicode="&#x131;" horiz-adv-x="233" 
d="M149 0h-64v544h64v-544z" />
    <glyph glyph-name="Lslash" unicode="&#x141;" horiz-adv-x="567" 
d="M317 495l-168 -81v-355h373v-59h-374q-31 0 -47.5 15.5t-16.5 44.5v322l-70 -33v63l70 34v298h65v-267l168 82v-64z" />
    <glyph glyph-name="lslash" unicode="&#x142;" horiz-adv-x="231" 
d="M149 0h-63v407l-68 -43v68l68 43v281l63 14v-253l67 43v-69l-67 -44v-447z" />
    <glyph glyph-name="OE" unicode="&#x152;" horiz-adv-x="1095" 
d="M1040 0h-655q-148 0 -239 98t-91 272t89.5 274t237.5 100h655v-59h-400v-276h353v-57h-353v-294h403v-58zM121 370q0 -148 70 -230t197 -82h184v628h-177q-129 0 -201.5 -85.5t-72.5 -230.5z" />
    <glyph glyph-name="oe" unicode="&#x153;" horiz-adv-x="1017" 
d="M745 -6q-167 0 -225 134q-59 -134 -219 -134q-116 0 -182.5 73.5t-66.5 204.5t68.5 204.5t183.5 73.5q160 0 217 -134q28 68 83.5 102t125.5 34q110 0 174.5 -68t64.5 -200q0 -40 -36 -40h-379q4 -94 57 -142t137 -48q60 0 151 28l49 16l13 -57l-48 -16q-93 -31 -168 -31
zM489 272q0 105 -49.5 164t-138.5 59t-136.5 -58.5t-47.5 -164.5q0 -107 48.5 -165.5t138.5 -58.5q89 0 137 58.5t48 165.5zM905 300q0 89 -44 143.5t-132 54.5q-78 0 -124 -53t-51 -145h351z" />
    <glyph glyph-name="Scaron" unicode="&#x160;" horiz-adv-x="629" 
d="M251 419l144 -33q176 -40 176 -192q0 -99 -65.5 -150.5t-159.5 -51.5q-109 0 -239 44l-45 14l16 61l44 -15q135 -45 223 -45q67 0 114 35t47 106q0 53 -29 85t-94 46l-143 33q-175 39 -175 191q0 99 65.5 150.5t158.5 51.5q97 0 234 -44l44 -14l-15 -61l-45 15
q-130 44 -217 44q-68 0 -114.5 -35t-46.5 -105q0 -54 29 -85t93 -45zM324 794q-24 0 -41 17l-125 125h88l78 -91l79 91h87l-124 -125q-19 -17 -42 -17z" />
    <glyph glyph-name="scaron" unicode="&#x161;" horiz-adv-x="537" 
d="M227 309l108 -18q67 -11 104.5 -48.5t37.5 -94.5q0 -76 -53 -115.5t-130 -39.5q-80 0 -194 33l-37 10l13 59l36 -11q113 -32 183 -32q53 0 86.5 23t33.5 70q0 36 -23 57t-76 30l-107 19q-68 12 -105.5 48.5t-37.5 94.5q0 76 53 116t129 40q87 0 195 -33l36 -10l-12 -59
l-37 10q-110 33 -183 33q-52 0 -85.5 -23.5t-33.5 -70.5q0 -36 23 -57.5t76 -30.5zM282 619q-24 0 -41 17l-125 125h88l78 -91l79 91h87l-124 -125q-19 -17 -42 -17z" />
    <glyph glyph-name="Ydieresis" unicode="&#x178;" horiz-adv-x="638" 
d="M626 744l-269 -421v-323h-66v321l-274 423h75l234 -363l227 363h73zM259 870q0 -23 -12 -36t-32 -13t-32 13t-12 36t12 36.5t32 13.5t32 -13.5t12 -36.5zM485 870q0 -23 -12 -36t-33 -13q-20 0 -32 13t-12 36t12 36.5t32 13.5q21 0 33 -13.5t12 -36.5z" />
    <glyph glyph-name="Zcaron" unicode="&#x17d;" horiz-adv-x="633" 
d="M559 659l-435 -603h454v-56h-479q-44 0 -44 46q0 19 14 39l437 602h-440v57h463q44 0 44 -47q0 -19 -14 -38zM321 794q-24 0 -41 17l-125 125h88l78 -91l79 91h87l-124 -125q-19 -17 -42 -17z" />
    <glyph glyph-name="zcaron" unicode="&#x17e;" horiz-adv-x="526" 
d="M66 544h374q41 0 41 -42q0 -22 -16 -40l-341 -408h359v-54h-389q-41 0 -41 42q0 22 16 40l341 408h-344v54zM281 619q-24 0 -41 17l-125 125h88l78 -91l79 91h87l-124 -125q-19 -17 -42 -17z" />
    <glyph glyph-name="florin" unicode="&#x192;" 
d="M284 477v-487q0 -82 -40.5 -126.5t-113.5 -44.5v55q93 1 93 119v484h-89v57h89v60q0 83 40.5 127t113.5 44q36 0 106 -15l-9 -59q-64 15 -98 15q-50 0 -71 -27.5t-21 -88.5v-56h173v-57h-173z" />
    <glyph glyph-name="circumflex" unicode="&#x2c6;" horiz-adv-x="523" 
d="M281 765q25 0 41 -18l126 -124h-89l-78 90l-78 -90h-88l125 124q18 18 41 18z" />
    <glyph glyph-name="caron" unicode="&#x2c7;" horiz-adv-x="523" 
d="M281 619q-24 0 -41 17l-125 125h88l78 -91l79 91h87l-124 -125q-19 -17 -42 -17z" />
    <glyph glyph-name="breve" unicode="&#x2d8;" horiz-adv-x="523" 
d="M277 618q-70 0 -117 39.5t-47 102.5h60q0 -40 29 -63t75 -23q47 0 75.5 23t28.5 63h60q0 -63 -47 -102.5t-117 -39.5z" />
    <glyph glyph-name="dotaccent" unicode="&#x2d9;" horiz-adv-x="523" 
d="M310 716q0 -23 -12 -36t-33 -13q-20 0 -32 13t-12 36t12 36.5t32 13.5q21 0 33 -13.5t12 -36.5z" />
    <glyph glyph-name="ring" unicode="&#x2da;" horiz-adv-x="523" 
d="M277 596q-44 0 -74 28.5t-30 72.5t29.5 72t74.5 28t75 -28t30 -72t-30.5 -72.5t-74.5 -28.5zM277 755q-26 0 -42.5 -16.5t-16.5 -41.5q0 -26 16.5 -42.5t42.5 -16.5q27 0 43.5 16.5t16.5 42.5q0 25 -16.5 41.5t-43.5 16.5z" />
    <glyph glyph-name="ogonek" unicode="&#x2db;" horiz-adv-x="531" 
d="M384 -147q-57 -22 -104 -22q-52 0 -84.5 21.5t-32.5 60.5q0 55 53 87l49 5l3 -5q-48 -29 -48 -72q0 -48 63 -48q40 0 90 19z" />
    <glyph glyph-name="tilde" unicode="&#x2dc;" horiz-adv-x="523" 
d="M277 650l-47 34q-23 17 -46 17q-47 0 -74 -66l-46 26q19 50 52.5 74.5t69.5 24.5q40 0 72 -24l48 -35q23 -16 45 -16q46 0 73 66l47 -25q-19 -50 -52.5 -75t-68.5 -25q-41 0 -73 24z" />
    <glyph glyph-name="hungarumlaut" unicode="&#x2dd;" horiz-adv-x="523" 
d="M268 763l-131 -128q-12 -12 -26 -12q-13 0 -21 9t-8 21t12 26l78 84h96zM462 763l-135 -135q-12 -12 -26 -12q-13 0 -21 9t-8 21t12 26l83 91h95z" />
    <glyph glyph-name="pi" unicode="&#x3c0;" horiz-adv-x="685" 
d="M410 489h-222v-489h-62v489h-89v55h621v-55h-187v-320q0 -62 21 -89.5t71 -27.5q31 0 96 15l10 -58q-75 -15 -109 -15q-150 0 -150 170v325z" />
    <glyph glyph-name="endash" unicode="&#x2013;" 
d="M521 295h-461v63h461v-63z" />
    <glyph glyph-name="emdash" unicode="&#x2014;" horiz-adv-x="985" 
d="M928 295h-871v62h871v-62z" />
    <glyph glyph-name="quoteleft" unicode="&#x2018;" horiz-adv-x="205" 
d="M44 568l46 167q9 28 34 28q19 0 27 -12.5t3 -31.5l-39 -151h-71z" />
    <glyph glyph-name="quoteright" unicode="&#x2019;" horiz-adv-x="205" 
d="M160 763l-46 -168q-8 -27 -33 -27q-19 0 -27.5 12.5t-3.5 31.5l40 151h70z" />
    <glyph glyph-name="quotesinglbase" unicode="&#x201a;" horiz-adv-x="205" 
d="M160 104l-46 -168q-8 -27 -33 -27q-19 0 -27.5 12.5t-3.5 31.5l40 151h70z" />
    <glyph glyph-name="quotedblleft" unicode="&#x201c;" horiz-adv-x="377" 
d="M220 568l46 167q8 28 33 28q19 0 27.5 -12.5t3.5 -31.5l-40 -151h-70zM44 568l46 167q9 28 34 28q19 0 27 -12.5t3 -31.5l-39 -151h-71z" />
    <glyph glyph-name="quotedblright" unicode="&#x201d;" horiz-adv-x="377" 
d="M160 763l-46 -168q-8 -27 -33 -27q-19 0 -27.5 12.5t-3.5 31.5l40 151h70zM336 763l-46 -168q-9 -27 -34 -27q-19 0 -27 12.5t-3 31.5l39 151h71z" />
    <glyph glyph-name="quotedblbase" unicode="&#x201e;" horiz-adv-x="377" 
d="M160 104l-46 -168q-8 -27 -33 -27q-19 0 -27.5 12.5t-3.5 31.5l40 151h70zM336 104l-46 -168q-9 -27 -34 -27q-19 0 -27 12.5t-3 31.5l39 151h71z" />
    <glyph glyph-name="dagger" unicode="&#x2020;" horiz-adv-x="542" 
d="M501 424l-205 16l18 -626h-79l18 626l-207 -16v78l207 -15l-18 257h79l-16 -257l203 15v-78z" />
    <glyph glyph-name="daggerdbl" unicode="&#x2021;" horiz-adv-x="542" 
d="M234 278l23 161l-211 -16v79l207 -15l-18 257h79l-16 -257l203 15v-79l-208 16l23 -160l-23 -159l208 15v-78l-203 15l16 -258h-79l18 258l-207 -15v78l211 -15z" />
    <glyph glyph-name="bullet" unicode="&#x2022;" horiz-adv-x="426" 
d="M334 333q0 -60 -31 -94t-85 -34t-84.5 34t-30.5 94t30.5 93.5t84.5 33.5t85 -33.5t31 -93.5z" />
    <glyph glyph-name="ellipsis" unicode="&#x2026;" horiz-adv-x="615" 
d="M149 40q0 -23 -12 -36t-32 -13t-32 13t-12 36t12 36.5t32 13.5t32 -13.5t12 -36.5zM354 40q0 -23 -12 -36t-32 -13t-32 13t-12 36t12 36.5t32 13.5t32 -13.5t12 -36.5zM559 40q0 -23 -12 -36t-32 -13t-32 13t-12 36t12 36.5t32 13.5t32 -13.5t12 -36.5z" />
    <glyph glyph-name="perthousand" unicode="&#x2030;" horiz-adv-x="1318" 
d="M408 566q0 -91 -50.5 -143t-135.5 -52t-133.5 52t-48.5 143q0 90 50 142t134 52q86 0 135 -52t49 -142zM350 566q0 69 -33 106t-95 37q-61 0 -92.5 -37.5t-31.5 -105.5q0 -69 32.5 -106.5t93.5 -37.5q62 0 94 37t32 107zM780 744l-595 -744h-71l595 744h71zM862 180
q0 -91 -50.5 -143t-135.5 -52t-133.5 52t-48.5 143q0 90 50 142t134 52q86 0 135 -52t49 -142zM804 180q0 69 -33 106t-95 37q-61 0 -92.5 -37.5t-31.5 -105.5q0 -69 32.5 -106.5t93.5 -37.5q62 0 94 37t32 107zM1282 180q0 -91 -50.5 -143t-135.5 -52t-133.5 52t-48.5 143
q0 90 50 142t134 52q86 0 135 -52t49 -142zM1224 180q0 69 -33 106t-95 37q-61 0 -92.5 -37.5t-31.5 -105.5q0 -69 32.5 -106.5t93.5 -37.5q62 0 94 37t32 107z" />
    <glyph glyph-name="guilsinglleft" unicode="&#x2039;" horiz-adv-x="342" 
d="M49 280q0 23 20 43l151 146h78l-191 -189l194 -187h-80l-152 145q-20 20 -20 42z" />
    <glyph glyph-name="guilsinglright" unicode="&#x203a;" horiz-adv-x="342" 
d="M292 280q0 -22 -20 -42l-152 -145h-80l195 187l-192 189h79l151 -146q19 -19 19 -43z" />
    <glyph glyph-name="fraction" unicode="&#x2044;" horiz-adv-x="887" 
d="M780 744l-595 -744h-71l595 744h71z" />
    <glyph glyph-name="Euro" unicode="&#x20ac;" 
d="M424 276h-248q0 -223 183 -223q38 0 139 26l38 11l12 -60l-39 -11q-96 -27 -152 -27q-113 0 -180.5 73t-67.5 211h-76v57h76v80h-76v56h76q0 136 68 209.5t180 73.5q52 0 152 -27l39 -10l-12 -61l-38 11q-86 25 -139 25q-183 0 -183 -221h248v-56h-249v-80h249v-57z" />
    <glyph glyph-name="trademark" unicode="&#x2122;" horiz-adv-x="856" 
d="M793 334h-49v321l-102 -301q-6 -20 -31 -20q-24 0 -30 20l-99 299v-319h-48v379q0 16 10.5 25.5t25.5 9.5q34 0 42 -27l101 -319l102 315q7 28 41 28q37 0 37 -32v-379zM356 696h-121v-362h-55v362h-120v48h296v-48z" />
    <glyph glyph-name="Omega" unicode="&#x2126;" horiz-adv-x="781" 
d="M727 432q0 -108 -63.5 -189t-166.5 -110v-79h156v-54h-212v176q97 15 159 84.5t62 171.5q0 114 -76 186.5t-194 72.5q-119 0 -194 -70.5t-75 -188.5q0 -106 59 -172.5t158 -82.5v-177h-212v54h156v79q-103 29 -164.5 107.5t-61.5 191.5q0 140 96.5 227.5t241.5 87.5
q143 0 237 -88t94 -227z" />
    <glyph glyph-name="partialdiff" unicode="&#x2202;" 
d="M459 435v81q0 174 -162 174q-59 0 -180 -34l-38 -10l-12 59l38 11q117 34 194 34q104 0 163 -63.5t59 -170.5v-275q0 -112 -63.5 -179.5t-173.5 -67.5q-111 0 -171.5 67t-60.5 174q0 112 61.5 173.5t177.5 61.5q63 0 168 -35zM459 245v135q-110 30 -162 30
q-182 0 -182 -175q0 -84 44 -133.5t125 -49.5q85 0 130 51t45 142z" />
    <glyph glyph-name="Delta" unicode="&#x2206;" horiz-adv-x="639" 
d="M630 0h-611l258 715q12 35 49 35q38 0 50 -35zM107 55h434l-217 620z" />
    <glyph glyph-name="product" unicode="&#x220f;" horiz-adv-x="654" 
d="M625 686h-119v-686h-66v686h-217v-686h-66v686h-122v58h590v-58z" />
    <glyph glyph-name="summation" unicode="&#x2211;" horiz-adv-x="674" 
d="M638 -179h-551q-20 0 -32 11.5t-12 31.5q0 22 14 41l274 377l-274 378q-14 21 -14 41q0 19 12 31t32 12h541v-159h-60v98h-449l291 -400l-291 -401h459v109h60v-170z" />
    <glyph glyph-name="minus" unicode="&#x2212;" 
d="M521 295h-461v63h461v-63z" />
    <glyph glyph-name="radical" unicode="&#x221a;" horiz-adv-x="631" 
d="M635 687h-104l-194 -661q-10 -36 -44 -36t-46 36l-141 461h-96v57h149l134 -465l189 665h153v-57z" />
    <glyph glyph-name="infinity" unicode="&#x221e;" horiz-adv-x="789" 
d="M757 297q0 -93 -47.5 -152t-129.5 -59q-56 0 -102 23l-74 39l-76 -39q-46 -23 -102 -23q-83 0 -130.5 59t-47.5 152q0 95 47 153t131 58q57 0 102 -23l75 -40l75 40q44 23 102 23q84 0 130.5 -58t46.5 -153zM701 297q0 76 -33 115.5t-88 39.5q-47 0 -89 -21l-61 -30v-211
l61 -28q46 -20 89 -20q54 0 87.5 39.5t33.5 115.5zM376 190v211l-63 31q-41 20 -87 20q-55 0 -88.5 -39t-33.5 -116q0 -76 34 -116t88 -40q43 0 88 21z" />
    <glyph glyph-name="integral" unicode="&#x222b;" 
d="M280 590v-600q0 -82 -40 -126.5t-113 -44.5v55q92 1 92 119v601q0 83 40.5 127t114.5 44q35 0 105 -15l-9 -59q-64 15 -97 15q-50 0 -71.5 -27t-21.5 -89z" />
    <glyph glyph-name="approxequal" unicode="&#x2248;" 
d="M306 337l-62 44q-28 20 -54 20q-28 0 -50.5 -16.5t-42.5 -62.5l-47 32q45 109 141 109q46 0 88 -30l62 -44q29 -21 54 -21q57 0 92 80l47 -32q-23 -57 -60.5 -83.5t-79.5 -26.5q-45 0 -88 31zM316 166l-63 45q-28 20 -54 20q-28 0 -50.5 -16.5t-42.5 -62.5l-47 32
q45 109 141 109q44 0 87 -30l63 -44q29 -21 55 -21q56 0 91 80l47 -32q-45 -110 -139 -110q-46 0 -88 30z" />
    <glyph glyph-name="notequal" unicode="&#x2260;" 
d="M522 183h-254l-67 -142h-48l67 142h-161v62h189l49 108h-238v62h264l74 158h47l-73 -158h151v-62h-177l-49 -108h226v-62z" />
    <glyph glyph-name="lessequal" unicode="&#x2264;" 
d="M531 118l-449 157q-32 12 -32 47q0 33 32 45l449 159v-71l-415 -135l415 -134v-68zM529 0h-466v58h466v-58z" />
    <glyph glyph-name="greaterequal" unicode="&#x2265;" 
d="M499 275l-449 -157v68l415 134l-415 135v71l449 -159q32 -13 32 -45q0 -35 -32 -47zM518 0h-467v58h467v-58z" />
    <glyph glyph-name="lozenge" unicode="&#x25ca;" horiz-adv-x="639" 
d="M616 371l-244 -359q-18 -26 -48 -26q-29 0 -46 26l-246 359l246 359q17 25 48 25q30 0 46 -25zM545 371l-218 326l-222 -326l222 -323z" />
    </font>
</defs>
</svg>
