<svg xmlns="http://www.w3.org/2000/svg" width="1024" height="1024" viewBox="0 0 1024 1024"><path fill="#FFF" d="M512.015 6.102C229.8 6.102 1 232.654 1 512.022c0 279.397 228.8 505.876 511.015 505.876 282.23 0 510.985-226.48 510.985-505.877C1023 232.655 794.246 6.103 512.015 6.103zm227.66 398.22c.21 4.838.3 9.678.3 14.562 0 148.876-111.49 320.56-315.39 320.56-62.6 0-120.874-18.687-169.927-50.63 8.675 1.033 17.5 1.558 26.43 1.558 51.95 0 99.745-18.024 137.685-48.217-48.52-.914-89.438-33.49-103.537-78.216 6.757 1.304 13.694 1.992 20.857 1.992 10.112 0 19.9-1.348 29.202-3.94-50.72-10.367-88.943-55.89-88.943-110.458 0-.48 0-.96.015-1.424 14.954 8.42 32.036 13.516 50.226 14.1-29.757-20.228-49.325-54.69-49.325-93.797 0-20.633 5.47-39.99 15.014-56.623 54.66 68.176 136.35 113.02 228.483 117.71-1.888-8.27-2.86-16.84-2.86-25.68 0-62.198 49.625-112.618 110.847-112.618 31.872 0 60.686 13.665 80.897 35.54 25.262-5.05 48.98-14.442 70.406-27.358-8.285 26.34-25.86 48.427-48.757 62.347 22.432-2.74 43.797-8.778 63.68-17.738-14.85 22.577-33.67 42.446-55.305 58.33z"/></svg>