<svg xmlns="http://www.w3.org/2000/svg" width="1024" height="1024" viewBox="0 0 1024 1024"><g fill="#FFF"><path d="M651.764 512.008c0 76.317-62.65 138.433-139.705 138.433-77.052 0-139.734-62.113-139.734-138.432 0-18.368 3.7-35.882 10.307-51.957h-76.287v207.244c0 26.758 21.934 48.512 48.975 48.512h313.466c27.026 0 48.977-21.754 48.977-48.512V460.05h-76.287c6.573 16.076 10.288 33.59 10.288 51.958z"/><path d="M512.06 601.09c49.575 0 89.95-39.957 89.95-89.082 0-19.387-6.367-37.305-17.05-51.957-16.345-22.44-42.892-37.14-72.9-37.14-30.023 0-56.57 14.697-72.917 37.14-10.65 14.653-17.02 32.57-17.02 51.958 0 49.125 40.346 89.082 89.936 89.082zM708.426 403v-85.8l-11.297.06-75.36.223.316 85.817"/><path d="M511.984 5.787C229.727 5.787 1 232.447 1 511.992c0 279.576 228.727 506.22 510.984 506.22 282.24 0 511.016-226.644 511.016-506.22C1023 232.446 794.227 5.787 511.984 5.787zM767.56 460.05v207.244c0 53.935-44.316 97.816-98.775 97.816H355.318c-54.473 0-98.76-43.883-98.76-97.816V356.707c0-53.92 44.287-97.816 98.76-97.816h313.465c54.46 0 98.774 43.896 98.774 97.816l.002 103.345z"/></g></svg>