<svg id="Layer_1" xmlns="http://www.w3.org/2000/svg" viewBox="206 -116 1024 1024"><style>.st0{display:none;fill:#FFFFFF;} .st1{fill:#D2031F;}</style><path class="st0" d="M718-109.7c-282.2 0-511 226.4-511 505.7s228.8 505.6 511 505.6 511-226.4 511-505.6-228.8-505.7-511-505.7zm135.3 503.6h-88.5v312.3H633.6V393.9h-62.3V283.6h62.3v-71.4c0-51.2 24.5-130.9 132.4-130.9l97.1.3v107.1h-70.5c-11.5 0-27.8 5.7-27.8 30v64.9h100l-11.5 110.3z"/><path class="st1" d="M808.5 217.4v-106c0-39.7 26.6-49 45.3-49h115.1v-174.8l-158.5-.5c-175.9 0-216 130.2-216 213.7v116.6H492.6v179.9h101.7V907h214.1V397.3h144.4l18.7-179.9h-163z"/></svg>