<svg xmlns="http://www.w3.org/2000/svg" width="1024" height="1024" viewBox="0 0 1024 1024"><g fill="#D2031F"><path d="M842.035 1h-578.96c.5 1.905 1.16 3.743 1.16 5.807v226.466c0 12.84-10.368 23.228-23.23 23.228s-23.227-10.388-23.227-23.227V6.807c0-2.063.658-3.9 1.156-5.807h-17.602c-5.715 0-11.047.52-16.467.896.36 1.633.975 3.164.975 4.91v226.466c0 12.84-10.365 23.228-23.227 23.228s-23.23-10.39-23.23-23.228V9.948c-11.476 3.448-22.34 7.588-32.23 12.84.046.498.294.93.294 1.44V233.27c0 12.84-10.365 23.228-23.227 23.228s-23.227-10.39-23.227-23.228V59.012C18.375 105.874 1 173.957 1 236.176v65.6h296.125v1.95C349 242.958 425.985 204.24 511.977 204.24c84.697 0 160.617 37.642 212.447 96.855H1023v-71.678C1023 88.33 929.068 1 842.035 1zm72.563 188.903c0 28.23-22.887 51.127-51.15 51.127H787.64c-28.26 0-51.147-22.898-51.147-51.127V114.05c0-28.228 22.887-51.126 51.148-51.126h75.808c28.264 0 51.15 22.897 51.15 51.127v75.853zM794.582 486.845c0 155.83-126.773 282.606-282.605 282.606S229.37 642.677 229.37 486.846c0-49.392 12.794-95.813 35.16-136.256H1v464.816C1 986.98 126.254 1023 231.344 1023h589.393C936.055 1023 1023 932.29 1023 812.026V351.27H759.832c22.115 40.273 34.75 86.466 34.75 135.575z"/><path d="M511.977 722.996c130.223 0 236.15-105.93 236.15-236.15 0-130.212-105.928-236.152-236.15-236.152s-236.152 105.94-236.152 236.15c0 130.223 105.93 236.152 236.152 236.152zm0-414.234c98.33 0 178.084 79.764 178.084 178.105 0 98.354-79.753 178.06-178.083 178.06s-178.084-79.706-178.084-178.06c0-98.342 79.753-178.105 178.084-178.105z"/></g></svg>