<svg id="Layer_1" xmlns="http://www.w3.org/2000/svg" width="1024" height="832" viewBox="0 0 1024 832"><style><![CDATA[
	.st0{fill:#E0DEDE;}
]]></style><path class="st0" d="M1024 100.142c-37.615 16.67-77.98 27.972-120.383 33.02 43.3-25.93 76.445-67.058 92.152-115.913-40.614 24.01-85.448 41.446-133.22 50.898C824.298 27.34 769.887 1.92 709.535 1.92c-115.783 0-209.663 93.88-209.663 209.602 0 16.41 1.853 32.44 5.43 47.77C331.08 250.54 176.6 167.072 73.204 40.238 55.13 71.148 44.85 107.166 44.85 145.613c0 72.74 37.04 136.923 93.24 174.474-34.36-1.148-66.674-10.6-94.965-26.312v2.618c0 101.542 72.294 186.288 168.15 205.575-17.56 4.73-36.082 7.347-55.24 7.347-13.538 0-26.63-1.343-39.468-3.896 26.694 83.34 104.098 143.946 195.806 145.606-71.72 56.2-162.148 89.602-260.37 89.602-16.923 0-33.593-1.02-50.004-2.873C94.79 797.34 204.955 832.08 323.357 832.08c385.668 0 596.48-319.444 596.48-596.48l-.702-27.143c41.193-29.38 76.828-66.292 104.864-108.315z"/></svg>