<svg xmlns="http://www.w3.org/2000/svg" width="1024" height="1024" viewBox="0 0 1024 1024"><g fill="#FFF"><path d="M512.008 5.81C229.778 5.81 1 232.46 1 511.992c0 279.563 228.777 506.198 511.008 506.198 282.2 0 510.992-226.635 510.992-506.197C1023 232.46 794.208 5.81 512.008 5.81zm255.49 596.7c0 87.204-88.06 87.204-88.06 87.204H344.532c-88.03 0-88.03-87.205-88.03-87.205V421.52c0-87.235 88.03-87.235 88.03-87.235h334.904c88.06 0 88.06 87.234 88.06 87.234v180.99z"/><path d="M443.903 609.595l167.31-97.333-167.31-97.362"/></g></svg>