<svg xmlns="http://www.w3.org/2000/svg" width="1025" height="1025" viewBox="0 0 1025 1025"><path fill="#BBB" d="M399.084 4.75c-101.284 0-202.702 38.46-279.74 115.397-154.09 153.854-154.09 404.4 0 558.265 144.367 144.178 373.695 153.25 528.8 27.263h.426l302.646 302.59c16.01 15.978 41.978 15.978 58 0 16.01-16 16.01-41.922 0-57.92l-303.083-302.59C831.92 492.87 823.07 264.157 678.837 120.147 601.8 43.208 500.38 4.75 399.084 4.75zm0 81.33c80.19 0 160.368 30.67 221.765 91.978 121.942 121.775 122.803 317.506 2.558 440.32-.28.28-.57.55-.85.84-1.195.927-2.335 1.92-3.418 2.97-122.905 121.106-319.52 120.425-441.797-1.697-122.804-122.613-122.804-319.83 0-442.444C238.74 116.74 318.906 86.07 399.083 86.07v.01z"/></svg>