<svg xmlns="http://www.w3.org/2000/svg" xmlns:xlink="http://www.w3.org/1999/xlink" width="114.292" height="86.603" viewBox="19.708 0.318 114.292 86.603"><defs><path id="a" d="M19.708 22c2.058 5.38 10.123 10.294 23.08 16.737 11.206 5.57 22.466 10.285 34.028 15.375 11.315 4.98 35.51 15.443 46.974 22.26 3.696 2.197 8.362 5.588 10.21 10.55v-21.68c-2.06-5.385-10.122-10.297-23.083-16.738-11.202-5.57-22.465-10.283-34.024-15.374-11.315-4.984-35.506-15.443-46.974-22.26-3.7-2.2-8.365-5.588-10.21-10.552l-.002 21.68z"/></defs><clipPath id="b"><use xlink:href="#a" overflow="visible"/></clipPath><linearGradient id="c" gradientUnits="userSpaceOnUse" x1="-495.817" y1="56.221" x2="-494.467" y2="56.221" gradientTransform="translate(41972.703 -4713.383) scale(84.6138)"><stop offset="0" stop-color="#841922"/><stop offset=".153" stop-color="#9A1D28"/><stop offset=".327" stop-color="#AC212D"/><stop offset=".45" stop-color="#B3222F"/><stop offset=".62" stop-color="#AF212E"/><stop offset=".771" stop-color="#A51F2B"/><stop offset=".915" stop-color="#931C26"/><stop offset="1" stop-color="#841922"/></linearGradient><path clip-path="url(#b)" fill="url(#c)" d="M19.708.318H134V86.92H19.708z"/><defs><path id="d" d="M19.708 2.908c1.48 3.185 4.014 6.27 8.793 9.162 11.422 6.9 35.665 17.285 46.98 22.266 11.56 5.092 22.82 9.827 34.035 15.375 8.07 3.89 14.455 7.608 17.623 9.85 3.484 2.468 5.516 4.562 6.86 8.15v-2.466c-2.058-5.385-10.122-10.297-23.083-16.74-11.202-5.57-22.465-10.282-34.025-15.372-11.314-4.985-35.505-15.444-46.972-22.262C26.22 8.672 21.554 5.283 19.708.32v2.588z"/></defs><clipPath id="e"><use xlink:href="#d" overflow="visible"/></clipPath><linearGradient id="f" gradientUnits="userSpaceOnUse" x1="-495.817" y1="56.275" x2="-494.467" y2="56.275" gradientTransform="translate(41972.703 -4727.633) scale(84.6138)"><stop offset="0" stop-color="#AC212D"/><stop offset=".1" stop-color="#A9212C"/><stop offset=".45" stop-color="#A3202A"/><stop offset=".808" stop-color="#A6202B"/><stop offset="1" stop-color="#AC212D"/></linearGradient><path clip-path="url(#e)" fill="url(#f)" d="M19.708.318H134v67.39H19.708z"/><defs><path id="g" d="M19.708 22c2.058 5.38 10.123 10.294 23.08 16.737 11.206 5.57 22.466 10.285 34.028 15.375 11.315 4.98 35.51 15.443 46.974 22.26 3.696 2.197 8.362 5.588 10.21 10.55v-2.6c-1.48-3.175-4.01-6.257-8.79-9.145-11.418-6.902-35.663-17.277-46.98-22.264-11.558-5.09-22.98-9.972-33.987-15.346-8.02-3.915-15.445-8.146-18.133-10.176-2.876-2.18-4.948-4.053-6.4-7.846L19.708 22z"/></defs><clipPath id="h"><use xlink:href="#g" overflow="visible"/></clipPath><linearGradient id="i" gradientUnits="userSpaceOnUse" x1="-495.817" y1="56.334" x2="-494.467" y2="56.334" gradientTransform="translate(41972.703 -4713.383) scale(84.6138)"><stop offset="0" stop-color="#AC212D"/><stop offset=".1" stop-color="#A9212C"/><stop offset=".45" stop-color="#A3202A"/><stop offset=".808" stop-color="#A6202B"/><stop offset="1" stop-color="#AC212D"/></linearGradient><path clip-path="url(#h)" fill="url(#i)" d="M19.708 19.543H134V86.92H19.708z"/><path fill="#BF4D4A" d="M133.45 84.396h.004c.183.02.405 0 .47.082l-.124-.232c-.02-.008-.075-.04-.21-.034-.186.01-.395-.03-.423-.08l.115.206c.016.023.085.048.17.058M133.164 83.826c.19.01.41-.024.482.055l-.14-.22c-.024-.014-.08-.037-.21-.022-.19.016-.4-.017-.438-.068l.123.2c.02.026.097.048.184.056M132.86 83.26c.188.01.397-.035.47.04 0 0-.137-.213-.137-.218-.02-.012-.08-.034-.215-.016-.18.02-.393 0-.427-.05l.13.195c.017.024.088.05.18.05M132.523 82.712h.004c.186 0 .404-.05.48.02l-.156-.206c-.02-.014-.08-.03-.21-.014-.19.032-.396.02-.433-.033l.135.193c.017.026.092.04.18.04M132.184 82.166c.185-.003.396-.06.473.01l-.15-.203c-.022-.015-.082-.033-.217 0-.19.035-.398.03-.438-.02l.146.184c.02.023.098.037.186.03M131.81 81.648v-.002c.187-.012.395-.08.478-.012 0 0-.163-.2-.166-.2-.026-.005-.087-.025-.218.007-.184.044-.387.044-.432 0l.15.182c.02.023.097.035.187.026M131.425 81.135c.19-.025.396-.096.478-.025 0 0-.16-.2-.172-.2-.02-.007-.087-.02-.212.02-.188.05-.396.054-.44.015l.16.176c.022.02.1.026.187.015M131.014 80.643c.188-.026.39-.106.48-.043l-.182-.19c-.023-.007-.09-.022-.215.02-.18.058-.387.07-.432.03l.16.17c.025.022.1.024.19.013M130.594 80.152c.19-.038.396-.122.477-.06.004 0-.175-.184-.183-.184-.023-.005-.092-.017-.213.032-.183.064-.39.088-.438.043l.175.164c.022.025.098.028.184.005M130.16 79.688c.178-.035.38-.13.467-.072 0 0-.19-.178-.193-.178-.02-.008-.084-.017-.207.037-.172.063-.38.096-.432.05l.17.163c.025.022.1.022.194 0M129.708 79.238v-.008c.185-.05.378-.148.467-.088.003 0-.188-.175-.192-.175-.022-.002-.09-.01-.213.046-.174.075-.38.112-.434.075l.182.15c.024.022.098.016.19 0M129.234 78.8c.18-.053.38-.164.47-.106 0 0-.202-.16-.202-.164-.02-.004-.09-.012-.208.045-.174.08-.372.124-.428.087l.187.147c.02.022.095.013.18-.01M128.764 78.36c.174-.05.37-.156.46-.11 0 0-.198-.16-.198-.165-.025 0-.096-.008-.21.06-.173.086-.376.142-.432.1l.192.143c.024.014.1.008.188-.027M128.273 77.96c.17-.062.36-.18.453-.137 0 0-.205-.146-.21-.146-.024 0-.09-.006-.204.058-.17.09-.367.146-.424.104l.19.143c.027.012.102.007.195-.022M127.77 77.557v-.002c.18-.06.36-.182.457-.135 0 0-.21-.152-.21-.158-.028 0-.094 0-.202.066-.166.092-.366.154-.424.12l.197.133c.026.018.1.007.183-.023M127.255 77.178c.177-.074.36-.203.46-.164 0 0-.218-.134-.22-.14-.024 0-.093 0-.204.067-.162.107-.362.17-.418.14l.2.126c.032.02.1 0 .183-.028M126.736 76.798c.17-.073.354-.203.45-.164 0 0-.218-.14-.223-.14-.024 0-.085 0-.198.076-.158.1-.355.17-.41.138l.196.124c.027.016.106 0 .186-.034M126.212 76.434c.172-.082.353-.22.446-.18 0-.005-.22-.13-.223-.13-.025 0-.092.004-.2.077-.16.112-.357.186-.413.153l.205.12c.028.015.104-.003.185-.04M125.672 76.088h.002c.164-.08.342-.22.44-.19l-.228-.126c-.023 0-.086.01-.195.084-.158.114-.35.188-.406.16l.202.112c.035.018.104-.003.186-.04M125.137 75.74c.166-.083.334-.225.434-.193 0 0-.222-.12-.228-.12-.02 0-.087.005-.19.08-.153.114-.35.19-.407.17l.214.105c.02.02.095-.003.177-.042M124.587 75.41v-.003c.162-.084.333-.23.437-.2 0 0-.23-.116-.234-.12-.02.004-.087.013-.193.097-.148.113-.345.19-.4.166l.213.11c.02.01.096-.008.177-.05M124.027 75.088c.166-.092.338-.236.434-.208 0 0-.222-.112-.226-.112-.02 0-.088.008-.195.086-.15.12-.345.197-.4.172l.21.113c.028.008.102-.015.177-.052M123.477 74.764v-.003c.168-.086.33-.236.428-.207l-.227-.113c-.02.004-.09.01-.193.093-.148.114-.342.2-.402.172l.216.11c.024.01.096-.008.177-.05M122.923 74.434c.164-.086.327-.236.43-.205l-.23-.11c-.02 0-.088.005-.19.086-.154.12-.348.206-.406.184l.215.103c.03.012.102-.013.18-.06M122.357 74.126c.164-.088.33-.24.434-.214 0 0-.23-.107-.23-.11-.023.003-.09.013-.192.093-.153.123-.344.205-.4.185l.217.1c.02.015.094-.012.172-.054M121.797 73.816v-.002c.163-.094.33-.244.43-.217 0 0-.227-.108-.23-.108-.023 0-.092.01-.19.097-.15.116-.343.203-.4.177l.216.105c.023.016.1-.01.174-.054M121.236 73.505v-.003c.16-.095.324-.24.425-.215l-.228-.11c-.03.005-.084.015-.19.095-.15.12-.34.207-.397.185l.21.104c.032.01.1-.01.18-.055M120.673 73.195l.005-.004c.16-.093.322-.242.422-.22 0 0-.23-.104-.236-.104-.02 0-.08.008-.186.092-.15.127-.34.214-.396.19l.214.1c.025.013.104-.01.177-.053M120.107 72.895c.16-.096.324-.254.425-.226l-.23-.105c-.024.004-.088.014-.192.095-.148.127-.34.21-.4.19l.225.1c.02.01.09-.016.172-.055M119.538 72.59c.166-.09.327-.248.43-.225 0 0-.233-.104-.237-.104-.024 0-.085.013-.187.097-.146.12-.338.213-.392.188l.212.098c.03.018.1-.008.176-.053M118.973 72.292v-.003c.164-.1.323-.252.424-.228l-.234-.104c-.02 0-.087.01-.188.098-.146.125-.338.21-.396.19l.215.103c.028.01.1-.016.178-.058M118.406 71.99v-.004c.164-.094.322-.248.42-.23l-.23-.102c-.026.005-.093.016-.187.1-.147.12-.342.214-.4.196l.22.094c.024.017.097-.008.176-.053M117.836 71.693c.164-.1.322-.254.423-.232l-.236-.097c-.022 0-.086.01-.188.098-.145.124-.337.215-.396.196l.22.098c.03.014.095-.014.176-.06M117.264 71.402c.16-.098.322-.258.424-.234 0 0-.23-.098-.235-.102-.022.004-.09.017-.188.102-.147.13-.334.217-.392.195l.217.098c.023.013.096-.013.174-.058M116.693 71.107V71.1c.158-.092.316-.253.418-.227l-.23-.1c-.026 0-.09.013-.19.1-.15.124-.33.217-.395.192l.22.1c.026.015.096-.01.178-.058M116.12 70.816v-.006c.163-.095.323-.254.418-.23 0 0-.23-.1-.23-.104-.023.008-.09.016-.19.105-.145.127-.33.216-.394.194l.217.097c.035.016.106-.01.18-.054M115.55 70.52h.002c.158-.098.316-.255.417-.233 0 0-.23-.098-.235-.098-.026.003-.09.012-.188.103-.146.12-.332.216-.395.194l.22.096c.026.013.1-.015.178-.062M114.975 70.232c.16-.1.316-.252.42-.233l-.235-.1c-.028.004-.09.02-.187.104-.148.125-.334.22-.395.195l.222.098c.023.013.095-.01.175-.066M114.398 69.95c.16-.097.32-.26.42-.233 0 0-.232-.105-.24-.105-.02.01-.084.02-.182.105-.146.13-.336.223-.392.195l.218.098c.03.013.105-.017.176-.06M113.826 69.664c.158-.098.313-.26.415-.234 0 0-.234-.096-.234-.1-.02.004-.087.012-.188.1-.146.133-.327.22-.39.2l.218.093c.028.013.1-.01.18-.06M113.248 69.376c.162-.103.316-.256.42-.23 0 0-.234-.104-.238-.104-.025.002-.086.017-.187.103-.142.13-.33.223-.388.197l.217.098c.03.01.1-.016.176-.064M112.67 69.098l.006-.004c.156-.097.313-.258.412-.238 0 0-.232-.096-.236-.1-.023.004-.084.022-.18.105-.147.132-.336.224-.397.208l.222.086c.028.014.103-.01.174-.056M112.096 68.814v-.004c.16-.1.316-.26.418-.238 0 0-.238-.094-.238-.096-.022.002-.084.02-.18.104-.145.127-.337.222-.396.204l.22.09c.03.015.1-.013.176-.06M111.516 68.532h.006c.153-.1.312-.26.41-.24l-.232-.092c-.023 0-.086.013-.186.1-.14.13-.33.226-.39.204l.217.09c.033.013.1-.012.176-.062M110.94 68.25c.157-.104.313-.26.413-.24 0 0-.23-.095-.234-.095-.024.003-.088.015-.185.104-.148.126-.332.222-.39.197l.22.095c.028.014.098-.012.174-.062M110.363 67.97c.16-.102.316-.26.42-.245 0 0-.24-.09-.247-.09-.02.004-.08.018-.18.105-.143.13-.33.227-.39.202l.22.093c.032.012.1-.017.177-.064M109.783 67.695c.156-.104.313-.27.42-.247l-.24-.093c-.025.002-.088.017-.187.107-.142.127-.328.223-.387.203l.218.09c.03.015.1-.012.175-.06M109.207 67.414c.156-.1.31-.26.412-.24 0 0-.236-.095-.24-.095-.022.002-.083.015-.18.105-.148.13-.333.223-.39.205l.217.092c.03.01.106-.018.18-.068M108.624 67.14c.158-.104.312-.267.417-.245 0 0-.235-.09-.24-.095-.02.01-.086.023-.184.11-.14.124-.327.225-.386.208l.215.085c.032.013.106-.015.18-.062M108.044 66.865c.16-.104.313-.264.414-.245 0 0-.233-.095-.237-.095-.02.004-.083.02-.184.104-.144.132-.327.23-.388.208l.218.092c.032.008.102-.018.178-.065M107.464 66.588c.158-.104.315-.266.416-.248l-.235-.09c-.024.004-.092.02-.188.105-.142.127-.325.228-.39.21l.226.09c.027.007.1-.016.17-.067M106.887 66.316v-.006c.157-.102.312-.264.41-.242l-.24-.092c-.022.008-.084.02-.182.104-.143.13-.326.228-.39.21l.22.088c.035.013.106-.012.182-.062M106.3 66.042l.003-.003c.155-.105.313-.263.41-.246l-.236-.09c-.022.003-.084.02-.18.105-.145.126-.33.228-.39.212l.224.084c.024.012.1-.014.17-.064M105.727 65.768c.15-.104.306-.26.407-.244l-.237-.092c-.022.002-.086.02-.183.11-.146.122-.33.224-.388.202l.22.09c.028.014.102-.014.18-.066M105.143 65.496c.155-.102.31-.268.408-.243 0 0-.233-.095-.24-.095-.02.006-.08.017-.18.11-.142.126-.325.225-.387.206l.22.086c.028.017.105-.008.18-.064M104.557 65.23v-.005c.158-.104.312-.263.414-.246 0 0-.235-.09-.24-.094-.02.007-.085.02-.184.108-.14.13-.327.23-.383.208l.222.09c.026.013.094-.013.172-.063M103.977 64.953c.158-.102.306-.266.408-.246l-.236-.09c-.022.003-.09.017-.185.107-.14.133-.326.23-.385.21l.225.085c.026.014.093-.017.172-.067M103.39 64.688h.003c.162-.104.313-.273.412-.252 0 0-.236-.084-.24-.093-.02.01-.084.02-.18.11-.146.134-.326.232-.386.21l.213.09c.037.013.103-.017.178-.065M102.81 64.414c.155-.102.31-.266.41-.242 0 0-.233-.095-.24-.095-.02.005-.085.02-.178.106-.143.13-.33.23-.39.213l.22.086c.03.01.102-.012.18-.068M102.23 64.148c.15-.106.305-.268.41-.248l-.24-.094c-.026.004-.085.02-.186.108-.138.13-.32.23-.38.214l.22.084c.028.015.096-.014.175-.064M101.645 63.882v-.008c.155-.1.31-.265.408-.246 0 0-.234-.09-.24-.09-.02 0-.08.02-.183.108-.14.135-.32.228-.382.21l.225.087c.023.015.09-.013.172-.06M101.06 63.615v-.006c.157-.103.31-.268.413-.246l-.242-.093c-.02.005-.08.018-.18.108-.142.13-.327.235-.385.212l.217.086c.03.015.102-.016.18-.06M100.475 63.35c.156-.107.308-.27.407-.252 0 0-.23-.09-.23-.092-.027.005-.09.02-.187.11-.143.13-.324.23-.385.21l.22.088c.028.01.096-.018.175-.064M99.887 63.077c.16-.103.313-.267.414-.248l-.24-.09c-.022.002-.085.018-.184.107-.14.13-.32.23-.383.21l.225.087c.026.01.1-.014.17-.067M99.307 62.814v-.004c.157-.1.31-.268.41-.246l-.238-.092c-.027.006-.09.02-.187.107-.14.13-.318.233-.386.21l.223.087c.024.014.1-.014.177-.063M98.727 62.55c.146-.108.303-.27.403-.254 0 0-.235-.092-.24-.092-.02.008-.08.02-.18.112-.144.133-.32.23-.388.21l.227.09c.025.01.096-.018.177-.067M98.135 62.28c.158-.1.31-.27.41-.25l-.238-.09c-.02 0-.084.02-.183.11-.14.13-.32.228-.386.21l.226.087c.028.017.095-.012.17-.067M97.552 62.02c.153-.104.304-.27.412-.254l-.243-.086c-.02.002-.08.02-.182.106-.142.136-.324.23-.382.212l.222.087c.026.013.1-.017.174-.065M96.964 61.755h.005c.152-.103.306-.27.403-.256 0 0-.234-.082-.236-.088-.025.008-.087.02-.184.11-.14.133-.324.23-.385.214l.225.084c.027.01.098-.015.17-.065M96.383 61.49c.154-.104.305-.27.407-.25l-.24-.092c-.022.004-.085.02-.183.11-.14.13-.324.23-.385.214l.22.086c.03.006.105-.017.18-.067M95.798 61.23c.155-.108.304-.277.403-.254l-.236-.093c-.024.005-.082.02-.18.11-.146.133-.324.234-.388.217l.225.084c.026.013.1-.017.178-.064M95.21 60.964c.153-.104.306-.27.405-.254 0 0-.234-.087-.24-.087-.02 0-.087.018-.182.107-.137.136-.32.234-.38.218l.222.084c.03.01.1-.018.175-.068M94.623 60.702h.004c.148-.104.303-.27.402-.253 0 0-.235-.09-.24-.09-.02.005-.087.018-.18.108-.144.133-.322.235-.384.217l.223.084c.03.01.1-.015.173-.068M94.038 60.44c.153-.104.306-.27.403-.255 0 0-.233-.086-.24-.086-.02.003-.08.014-.18.107-.142.135-.32.233-.378.214l.22.088c.027.012.102-.017.176-.067M93.452 60.18c.153-.106.304-.273.407-.253 0 0-.236-.087-.244-.092-.023.005-.09.02-.18.11-.14.132-.325.236-.382.216l.22.088c.035.008.107-.02.178-.068M92.863 59.916c.156-.107.307-.27.406-.253 0 0-.237-.087-.24-.093-.026.01-.087.023-.177.113-.146.133-.328.234-.39.217l.226.084c.03.012.103-.015.173-.068M92.275 59.657v-.005c.154-.105.307-.27.41-.254 0 0-.24-.084-.242-.086-.022.004-.086.02-.178.11-.142.134-.322.233-.387.216l.225.088c.03.01.096-.02.172-.07M91.693 59.396v-.002c.152-.104.303-.272.404-.254 0 0-.24-.088-.244-.088-.02.008-.082.02-.174.11-.147.13-.33.23-.388.212l.223.092c.03.013.098-.02.178-.07M91.102 59.14c.158-.11.308-.276.41-.26l-.24-.086c-.026.006-.086.017-.184.11-.134.134-.324.236-.38.212l.217.09c.034.01.1-.02.177-.067M90.514 58.874c.155-.108.307-.274.406-.254 0 0-.232-.086-.24-.086-.02 0-.082.02-.18.11-.14.13-.323.23-.38.213l.223.086c.03.01.096-.015.17-.07M89.928 58.615v-.004c.16-.103.307-.27.41-.25l-.24-.09c-.027.007-.084.018-.182.112-.14.133-.322.236-.384.213l.224.088c.03.015.098-.01.172-.068M89.338 58.354c.162-.102.307-.272.41-.256l-.236-.086c-.03.004-.09.02-.184.11-.14.135-.322.237-.385.22l.223.084c.027.008.1-.02.172-.072M88.754 58.098c.152-.104.307-.275.403-.26l-.24-.086c-.02.004-.083.02-.18.113-.14.136-.322.234-.382.216l.224.087c.027.01.1-.02.174-.07M88.167 57.84c.15-.11.31-.275.406-.258 0 0-.235-.085-.243-.085-.02 0-.084.015-.18.11-.14.134-.325.236-.383.213l.22.087c.033.01.102-.018.18-.068M87.577 57.58c.157-.112.31-.272.407-.258l-.242-.09c-.02.01-.083.02-.178.117-.14.128-.326.233-.383.212l.224.086c.034.01.1-.02.173-.07M86.99 57.32c.154-.105.305-.273.406-.256l-.234-.088c-.032.006-.092.024-.183.112-.146.135-.327.234-.387.22l.224.083c.03.006.098-.022.174-.07M86.404 57.06c.152-.103.302-.27.402-.253l-.238-.09c-.023.004-.088.02-.184.115-.138.132-.32.234-.38.216l.222.083c.03.01.102-.017.178-.07M85.814 56.805c.15-.104.308-.27.402-.257l-.236-.088c-.02.005-.088.02-.184.11-.135.133-.32.236-.38.218l.222.087c.034.008.102-.018.176-.07M85.23 56.55c.15-.11.302-.278.403-.258l-.24-.09c-.024.003-.086.02-.185.11-.136.136-.315.236-.38.22l.227.084c.025.013.097-.016.174-.067M84.643 56.29c.15-.11.3-.274.4-.257l-.238-.09c-.023.008-.09.02-.183.113-.142.13-.32.234-.384.217l.225.084c.027.01.1-.02.18-.067M84.05 56.027c.156-.104.304-.27.41-.254 0 0-.24-.086-.245-.086-.023.002-.085.02-.18.112-.14.133-.32.23-.385.217l.23.08c.026.012.1-.017.17-.07M83.463 55.773v-.002c.157-.103.303-.27.406-.257l-.242-.084c-.024.003-.084.02-.18.11-.138.13-.32.232-.382.216l.223.082c.028.016.1-.018.173-.065M82.875 55.514c.152-.105.305-.27.408-.254l-.244-.088c-.022.003-.085.02-.18.114-.14.13-.323.235-.386.214l.225.087c.032.008.097-.023.175-.073M82.284 55.258c.155-.103.307-.273.41-.26 0 0-.24-.086-.245-.086-.022.004-.087.02-.18.11-.14.138-.32.238-.38.22l.22.08c.03.014.104-.013.174-.064M81.698 55c.15-.105.306-.277.403-.26 0 0-.232-.083-.24-.083-.02.003-.083.02-.177.112-.14.132-.324.23-.38.212l.222.084c.03.014.097-.016.173-.066M81.107 54.74c.154-.105.305-.274.408-.256 0 0-.24-.084-.242-.088-.023.006-.086.02-.18.11-.14.138-.322.24-.38.218l.22.088c.033.006.104-.022.174-.072M80.52 54.484c.155-.105.305-.277.406-.258 0 0-.24-.086-.24-.088-.025.006-.087.02-.18.112-.14.135-.323.237-.382.217l.225.087c.025.01.095-.02.17-.07M79.934 54.23v-.003c.154-.105.303-.274.406-.257l-.24-.087c-.022 0-.092.02-.18.11-.145.133-.32.235-.382.216l.22.084c.028.01.1-.017.176-.065M79.346 53.97c.155-.106.3-.276.403-.26l-.236-.086c-.03.004-.09.02-.188.114-.14.132-.318.234-.377.214l.223.083c.03.015.098-.015.173-.065M78.754 53.71h.006c.152-.105.3-.272.402-.258 0 0-.238-.082-.24-.086-.023.008-.085.017-.184.112-.14.133-.317.23-.38.213l.227.09c.026.008.097-.02.17-.07M78.173 53.45c.15-.106.302-.272.404-.257l-.243-.084c-.023 0-.088.017-.18.106-.14.14-.32.24-.387.223l.23.083c.026.01.095-.02.176-.073M77.582 53.193c.154-.104.303-.273.404-.262l-.24-.083c-.025.006-.084.02-.182.114-.14.132-.317.234-.383.216l.227.087c.027.01.103-.018.175-.07M76.993 52.934c.16-.104.306-.27.405-.254 0 0-.236-.087-.244-.087-.02.005-.078.02-.176.114-.137.13-.324.232-.386.214l.226.088c.034.012.098-.02.175-.074M76.402 52.677c.158-.104.307-.274.404-.252 0 0-.236-.09-.24-.09-.02.003-.082.02-.178.114-.138.132-.32.23-.382.214l.226.085c.028.01.1-.02.17-.073M75.814 52.423v-.002c.158-.105.307-.275.41-.257 0 0-.242-.085-.248-.085-.02.005-.08.02-.176.113-.14.133-.32.234-.383.212l.22.088c.033.01.107-.017.177-.067M75.227 52.163c.157-.11.31-.272.407-.253 0 0-.237-.088-.24-.088-.022.003-.087.015-.184.107-.138.136-.32.237-.38.22l.22.084c.034.007.104-.018.177-.07M74.64 51.91v-.006c.157-.105.304-.272.407-.256 0 0-.238-.086-.244-.086-.023 0-.084.02-.177.11-.138.134-.323.238-.38.218l.22.088c.027.008.097-.02.173-.068M74.055 51.648c.152-.11.305-.27.404-.254 0 0-.242-.09-.243-.093-.023.01-.086.024-.18.117-.14.13-.32.234-.38.217l.225.08c.024.015.097-.013.173-.066M73.462 51.396v-.006c.156-.105.306-.27.41-.26l-.245-.083c-.02.004-.086.02-.18.11-.14.137-.32.236-.38.22l.222.086c.028.01.1-.022.172-.067M72.876 51.133c.155-.104.304-.27.403-.252 0 0-.237-.092-.24-.092-.022.008-.088.024-.183.114-.135.134-.32.234-.38.22l.228.078c.024.016.096-.012.17-.067M72.285 50.877c.158-.107.305-.273.406-.26l-.238-.084c-.024.005-.09.02-.183.11-.14.134-.318.237-.384.218l.23.085c.027.012.097-.018.17-.068M71.697 50.617c.156-.104.308-.27.408-.256l-.242-.087c-.024.01-.09.022-.182.115-.138.133-.32.238-.38.217l.223.08c.03.015.102-.015.174-.068M71.11 50.363c.153-.107.304-.273.405-.26 0 0-.242-.08-.246-.088-.02.008-.083.02-.173.115-.145.135-.324.237-.383.214l.22.085c.028.01.1-.02.175-.067M70.52 50.105V50.1c.154-.103.304-.27.404-.252l-.243-.082c-.02 0-.08.02-.174.104-.138.135-.323.24-.385.222l.225.084c.03.012.1-.02.176-.07M69.932 49.848h.002c.153-.104.3-.274.402-.257l-.24-.087c-.02.006-.082.02-.18.11-.14.136-.32.236-.377.218l.222.088c.027.008.093-.022.17-.07M69.34 49.59c.16-.107.31-.275.41-.258l-.238-.084c-.025 0-.088.02-.18.11-.14.135-.322.233-.382.218l.22.083c.03.01.1-.015.17-.07M68.757 49.332c.154-.105.306-.27.407-.256 0 0-.24-.083-.244-.088-.025.005-.086.017-.178.11-.14.138-.32.24-.38.22l.22.08c.027.01.1-.013.175-.066M68.17 49.076v-.006c.154-.103.3-.27.402-.254l-.24-.084c-.023 0-.087.02-.178.11-.14.134-.322.236-.38.218l.217.084c.033.012.106-.018.18-.068M67.578 48.816c.16-.106.306-.273.408-.26 0 0-.238-.08-.238-.082-.03.006-.09.02-.182.11-.137.136-.326.24-.38.216l.22.084c.028.012.1-.017.172-.068M66.99 48.56c.156-.105.308-.274.405-.257l-.237-.087c-.024.01-.086.02-.182.113-.14.134-.323.234-.38.215l.224.083c.027.01.098-.02.17-.07M66.402 48.303c.155-.104.305-.27.405-.256 0 0-.233-.087-.237-.087-.027.004-.087.02-.18.106-.144.137-.326.235-.383.22l.223.086c.028.01.1-.018.172-.07M65.815 48.044c.153-.106.304-.272.405-.258l-.238-.084c-.025.002-.09.018-.186.112-.137.13-.32.234-.38.217l.223.087c.03.01.102-.02.175-.073M65.227 47.786c.153-.103.305-.27.405-.256 0 0-.237-.085-.24-.085-.025 0-.088.02-.184.11-.136.136-.32.23-.377.216l.224.09c.028.008.098-.018.173-.074M64.636 47.53c.16-.11.308-.274.406-.26l-.238-.083c-.025.004-.084.016-.184.11-.135.136-.318.24-.38.218l.224.084c.03.013.098-.02.172-.07M64.053 47.27c.15-.103.298-.273.402-.255 0 0-.237-.088-.24-.088-.022.006-.087.02-.178.11-.142.138-.322.237-.385.217l.225.087c.024.014.097-.013.176-.07M63.463 47.014c.154-.107.303-.27.4-.256l-.237-.088c-.023.003-.083.02-.18.11-.138.135-.318.235-.382.217l.226.085c.028.008.098-.018.173-.068M62.874 46.755c.156-.106.304-.274.408-.253 0 0-.234-.093-.24-.093-.02.005-.084.015-.183.11-.137.134-.32.233-.38.214l.223.086c.027.01.097-.02.17-.065M62.29 46.49c.153-.106.305-.27.406-.256l-.242-.09c-.022.008-.084.023-.183.113-.132.135-.315.232-.376.217l.22.084c.03.01.102-.017.177-.067M61.7 46.23c.16-.104.31-.272.407-.258 0 0-.24-.082-.24-.087-.02.01-.083.02-.176.11-.14.138-.325.232-.383.217l.22.086c.028.01.1-.016.174-.068M61.113 45.97v-.004c.157-.104.305-.27.41-.253 0 0-.237-.085-.238-.09-.024.006-.086.023-.183.115-.14.13-.323.232-.38.215l.22.084c.027.014.1-.016.17-.068M60.528 45.706c.153-.104.306-.27.41-.254 0 0-.243-.084-.247-.084-.02 0-.082.018-.176.11-.14.13-.325.232-.384.213l.222.087c.033.012.103-.017.176-.07M59.94 45.45c.155-.108.31-.278.41-.26l-.238-.09c-.025.005-.09.022-.183.112-.14.132-.326.235-.385.22l.22.083c.03.01.104-.016.175-.066M59.352 45.186c.157-.105.31-.27.41-.25l-.24-.09c-.025.002-.09.016-.178.107-.144.134-.326.236-.386.217l.223.084c.028.01.097-.018.172-.068M58.768 44.927c.157-.106.307-.27.406-.256 0 0-.233-.08-.24-.086-.023.005-.084.02-.178.105-.14.136-.327.235-.384.214l.22.085c.032.01.1-.017.176-.063M58.18 44.664c.157-.107.306-.27.41-.255 0 0-.236-.086-.242-.094-.022.01-.082.026-.182.113-.14.134-.323.232-.382.214l.224.084c.03.01.097-.015.173-.064M57.592 44.404c.155-.107.312-.273.414-.256 0 0-.242-.084-.242-.09-.028.006-.09.018-.188.114-.137.134-.32.233-.38.212l.228.084c.027.014.095-.02.168-.064M57.008 44.14c.154-.103.307-.273.41-.25l-.24-.095c-.025.005-.088.018-.18.108-.143.134-.327.238-.387.216l.224.083c.03.008.1-.014.174-.062M56.426 43.87v-.004c.156-.102.305-.262.408-.244l-.24-.093c-.025.003-.088.018-.182.113-.14.127-.322.223-.38.207l.22.086c.025.014.098-.015.174-.065M55.84 43.604c.155-.105.304-.27.41-.25 0 0-.236-.087-.24-.093-.024.01-.086.018-.18.112-.142.132-.327.232-.385.206l.223.094c.03.008.098-.02.172-.068M55.255 43.334c.158-.106.31-.27.413-.25l-.24-.088c-.025.004-.084.014-.182.107-.143.13-.323.23-.387.21l.22.086c.03.012.1-.02.175-.066M54.675 43.064c.155-.107.31-.267.406-.248 0 0-.23-.092-.237-.092-.023.006-.088.02-.183.108-.14.135-.325.232-.38.212l.215.09c.033.01.104-.018.18-.07M54.088 42.797c.158-.104.308-.27.407-.25l-.235-.088c-.025 0-.088.02-.18.107-.142.13-.33.23-.386.208l.218.09c.03.01.1-.015.176-.068M53.507 42.528c.157-.104.306-.268.406-.246 0 0-.233-.092-.24-.092-.02 0-.082.02-.177.107-.145.135-.33.23-.388.21l.22.086c.03.015.104-.016.18-.065M52.92 42.26h.005c.154-.1.305-.267.41-.25 0 0-.24-.09-.243-.09-.022.003-.083.018-.18.108-.142.133-.327.23-.386.212l.216.088c.034.013.104-.015.178-.07M52.337 41.994c.16-.104.308-.265.413-.25l-.24-.092c-.02.007-.085.02-.184.113-.14.13-.328.23-.386.207l.223.09c.025.01.096-.02.174-.068M51.752 41.73v-.01c.16-.1.314-.264.412-.245l-.24-.09c-.02.005-.086.02-.18.11-.14.13-.33.227-.385.208l.22.092c.03.01.1-.02.172-.066M51.17 41.458c.158-.104.31-.272.413-.248 0 0-.236-.09-.24-.09-.022.002-.085.014-.18.104-.143.133-.33.233-.388.214l.218.085c.03.01.1-.018.177-.065M50.588 41.186c.15-.105.31-.265.41-.25 0 0-.235-.086-.24-.086-.02.004-.084.02-.183.105-.14.125-.324.227-.383.206l.22.09c.028.014.096-.013.176-.064M50.007 40.91v-.005c.157-.097.31-.26.412-.24 0 0-.234-.094-.237-.094-.03.005-.088.02-.185.107-.143.127-.326.225-.388.2l.223.095c.025.012.1-.013.174-.062M49.43 40.63c.156-.1.31-.26.412-.243 0 0-.235-.095-.24-.095-.022.003-.083.02-.182.106-.14.13-.332.224-.387.203l.222.096c.03.01.1-.015.175-.065M48.854 40.353c.154-.102.307-.263.406-.243l-.233-.095c-.02 0-.09.018-.183.104-.144.127-.33.223-.388.204l.22.094c.027.008.097-.018.178-.065M48.27 40.075v-.003c.16-.096.313-.264.412-.24 0 0-.232-.098-.238-.098-.02.003-.082.02-.18.106-.143.128-.325.23-.39.204l.22.095c.03.006.1-.017.176-.065M47.69 39.796c.158-.1.314-.265.415-.243l-.235-.093c-.028 0-.088.015-.186.104-.145.126-.33.223-.39.203l.22.09c.03.015.1-.012.177-.06M47.112 39.517c.16-.103.314-.263.414-.244l-.236-.094c-.023 0-.084.016-.184.104-.143.13-.332.227-.387.203l.218.096c.025.008.1-.018.174-.066M46.533 39.237c.16-.105.318-.262.416-.243l-.237-.095c-.025.004-.09.016-.186.105-.143.126-.33.225-.39.2l.218.095c.033.012.1-.016.178-.063M45.957 38.956c.153-.1.313-.26.412-.24 0 0-.233-.088-.238-.094-.022.005-.082.015-.184.104-.145.13-.33.227-.39.2l.22.094c.03.016.1-.013.18-.064M45.38 38.678c.157-.1.308-.26.41-.242l-.235-.092c-.025.003-.088.017-.183.104-.144.13-.33.224-.395.202l.223.092c.028.012.104-.015.18-.064M44.795 38.4c.16-.1.32-.262.42-.24 0 0-.24-.092-.24-.095-.02.002-.085.016-.183.107-.144.126-.333.217-.394.2l.22.09c.03.012.104-.014.177-.063M44.215 38.122c.166-.102.317-.264.42-.243 0 0-.232-.09-.237-.095-.02.01-.09.018-.187.106-.144.127-.33.23-.388.202l.217.094c.03.01.1-.013.175-.064M43.64 37.84c.16-.1.314-.263.415-.236l-.233-.102c-.025.006-.088.02-.185.103-.145.128-.328.225-.393.202l.22.098c.027.01.1-.018.175-.065M43.062 37.558h.005c.153-.102.31-.26.41-.24l-.236-.095c-.02.004-.083.017-.182.1-.144.13-.33.226-.39.204l.217.092c.03.015.1-.013.177-.062M42.486 37.276c.162-.102.314-.265.416-.238l-.233-.1c-.023.005-.09.014-.187.105-.144.128-.33.22-.393.2l.22.094c.03.014.1-.012.176-.06M41.908 36.99c.164-.1.314-.257.42-.237l-.24-.098c-.02.003-.084.017-.185.104-.142.127-.332.215-.387.196l.213.09c.032.018.1-.006.178-.057M41.33 36.71l.006-.004c.157-.1.315-.26.417-.237l-.236-.096c-.028 0-.087.014-.19.103-.144.125-.327.22-.392.195l.22.098c.028.01.1-.01.176-.06M40.756 36.423h.005c.16-.1.314-.26.418-.236l-.236-.102c-.022.002-.086.015-.186.102-.143.124-.337.218-.395.2l.223.093c.03.01.1-.012.173-.057M40.186 36.124c.158-.093.318-.252.42-.23l-.236-.1c-.026.002-.087.01-.185.103-.145.123-.334.216-.395.19l.216.1c.028.01.103-.012.18-.063M39.612 35.833h.003c.157-.095.317-.252.42-.228l-.236-.103c-.028.002-.09.013-.19.103-.148.123-.336.213-.393.19l.22.097c.026.014.1-.01.175-.06M39.04 35.544v-.004c.163-.096.32-.25.42-.23 0 0-.233-.097-.236-.097-.02 0-.085.012-.184.097-.148.125-.34.218-.396.193l.217.1c.03.013.105-.015.18-.06M38.467 35.252v-.004c.16-.096.322-.253.422-.23 0 0-.232-.096-.237-.1-.02.004-.084.013-.186.1-.143.125-.336.21-.393.19l.212.098c.03.02.103-.01.18-.054M37.897 34.95c.164-.094.32-.25.42-.226.006 0-.23-.102-.23-.102-.022 0-.087.01-.186.095-.145.126-.335.212-.395.186l.22.104c.022.01.096-.01.172-.057M37.33 34.647h.003c.162-.092.32-.25.422-.223 0 0-.23-.1-.23-.107-.03.007-.09.014-.192.102-.148.12-.34.212-.397.187l.216.1c.03.012.103-.01.177-.06M36.763 34.347c.162-.095.323-.25.42-.22 0 0-.23-.105-.23-.112-.025.006-.086.018-.185.103-.15.12-.343.208-.4.182l.218.103c.025.013.1-.008.177-.056M36.196 34.046c.162-.097.325-.247.423-.225l-.23-.102c-.03.004-.09.013-.19.098-.15.124-.34.21-.398.185l.212.104c.026.012.104-.013.182-.058M35.628 33.744c.164-.092.324-.248.423-.225 0 .005-.228-.102-.23-.106-.023.004-.086.016-.19.095-.145.12-.34.204-.396.18l.215.11c.028.008.103-.012.178-.056M35.065 33.43c.164-.092.33-.244.43-.217l-.236-.108c-.026 0-.086.01-.19.093-.153.124-.342.205-.398.185l.214.104c.03.01.104-.01.18-.057M34.503 33.123c.164-.094.326-.248.425-.22 0 0-.23-.108-.23-.11-.024 0-.086.01-.193.097-.146.12-.34.204-.395.176l.21.106c.034.017.104-.01.183-.05M33.942 32.81v-.003c.16-.09.328-.242.424-.216l-.23-.106c-.027 0-.09.013-.187.09-.156.124-.348.206-.405.182l.215.107c.03.012.098-.013.182-.053M33.376 32.497c.162-.095.332-.24.428-.217 0 0-.23-.105-.23-.11-.018.005-.086.013-.188.096-.156.12-.347.2-.404.174l.215.112c.026.01.1-.01.18-.055M32.817 32.177v-.002c.166-.083.335-.24.43-.208 0 0-.227-.115-.23-.118-.022.002-.085.012-.192.097-.15.116-.344.192-.4.167l.217.112c.025.016.098-.008.175-.05M32.26 31.853v-.004c.17-.086.335-.237.432-.207l-.228-.11c-.024 0-.087.01-.19.09-.157.12-.35.196-.405.172l.21.107c.03.014.104-.006.18-.05M31.702 31.532c.17-.088.335-.24.434-.21l-.226-.114c-.024.004-.094.012-.193.096-.15.114-.35.193-.403.167l.208.108c.03.015.104-.004.18-.046M31.148 31.208l.005-.002c.162-.087.33-.238.43-.205 0 0-.223-.108-.23-.108-.023 0-.085.006-.193.085-.152.115-.347.192-.402.165l.212.115c.026.01.097-.008.178-.05M30.6 30.872c.164-.084.33-.232.43-.2l-.222-.118c-.028 0-.09.01-.2.085-.148.114-.345.19-.402.16l.212.116c.028.017.1-.003.182-.044M30.052 30.535c.166-.084.336-.23.433-.198 0 0-.22-.12-.223-.12-.026 0-.09.01-.198.086-.152.115-.347.19-.408.163l.215.115c.02.018.097 0 .182-.045M29.5 30.2c.167-.086.34-.227.438-.197l-.224-.116c-.026 0-.088.006-.2.08-.15.113-.347.19-.407.164l.212.115c.023.017.1-.004.18-.045M28.957 29.86v-.005c.163-.08.338-.218.437-.186l-.223-.127c-.02 0-.086.007-.194.083-.153.108-.352.177-.406.15l.203.122c.028.016.1-.002.184-.04M28.416 29.503c.17-.08.344-.22.442-.188 0 0-.22-.122-.223-.122-.024 0-.084.008-.198.077-.158.11-.355.18-.414.15l.207.123c.033.016.105 0 .186-.04M27.87 29.174c.17-.075.347-.214.443-.184l-.222-.125c-.02 0-.084.002-.194.077-.16.11-.36.177-.42.148l.21.12c.022.02.1.002.184-.036M27.316 28.82c.17-.068.35-.203.443-.17 0 .002-.218-.13-.218-.133-.023 0-.085.002-.195.073-.158.104-.36.167-.414.13l.2.135c.027.015.1.002.183-.034M26.77 28.433c.174-.067.353-.204.45-.163 0 0-.21-.135-.218-.135-.02 0-.084 0-.194.07-.165.102-.37.16-.425.127l.2.13c.027.018.104.004.188-.03M26.233 28.06c.182-.065.367-.2.454-.16 0 0-.208-.134-.208-.138-.027 0-.09.004-.208.074-.166.096-.368.15-.42.116l.197.134c.026.02.1.002.183-.026M25.728 27.686h.004c.173-.068.36-.188.457-.15 0 0-.21-.144-.214-.144-.02 0-.09 0-.2.067-.168.09-.37.146-.427.112l.197.136c.025.016.1.007.18-.022M25.23 27.303c.166-.062.347-.184.435-.136 0 0-.213-.148-.213-.155-.022 0-.086-.002-.193.06-.16.096-.355.137-.413.104l.202.147c.023.017.096.008.18-.02M24.7 26.884h.005c.17-.06.345-.183.43-.137l-.203-.15c-.03-.003-.09-.01-.2.055-.16.09-.355.135-.41.095l.196.156c.028.018.1.01.183-.02M24.178 26.467v-.006c.172-.056.35-.176.445-.124 0 0-.214-.155-.215-.16-.02-.002-.084-.005-.196.057-.16.085-.358.13-.414.093l.196.15c.027.02.103.014.184-.01M23.683 26.01c.17-.05.352-.163.443-.115 0 0-.202-.16-.21-.163-.02 0-.082-.008-.194.048-.165.083-.366.115-.414.078l.188.16c.03.017.1.016.187-.01M23.187 25.556c.175-.046.358-.157.45-.107l-.204-.165c-.023-.01-.088-.01-.2.042-.167.08-.37.113-.42.07l.19.16c.024.025.1.02.184 0M22.698 25.093v-.004c.18-.04.36-.147.45-.094 0 0-.195-.17-.197-.17-.02 0-.087-.012-.198.04-.17.074-.37.1-.42.06l.186.164c.025.02.097.02.18.003M22.214 24.593c.18-.028.375-.114.46-.056 0 0-.19-.182-.19-.184-.02-.006-.083-.017-.202.026-.178.06-.377.063-.426.015l.175.188c.022.02.095.028.184.01M21.778 24.08c.18-.024.373-.106.457-.043 0 0-.182-.187-.182-.19-.02-.005-.084-.022-.203.016-.177.055-.38.06-.426.01l.17.19c.02.022.096.032.184.018M21.344 23.56c.18-.017.38-.094.462-.038 0 0-.177-.187-.18-.188-.022-.008-.084-.02-.21.012-.172.046-.374.045-.42 0l.165.19c.02.025.096.036.184.025M20.93 23.027v-.003c.184-.01.382-.085.462-.02 0 0-.17-.195-.17-.2-.022-.005-.083-.022-.21.007-.173.047-.383.043-.428-.01l.164.194c.02.027.095.04.182.033M20.52 22.435h.005c.177.01.388-.038.462.043 0 0-.145-.214-.147-.222-.025-.01-.08-.035-.202-.02-.18.016-.385-.02-.423-.08l.133.222c.016.027.088.05.172.057M20.197 21.836l.004-.003c.183.02.39-.018.46.065 0 0-.135-.224-.14-.23-.02-.01-.074-.04-.206-.028-.18.015-.387-.03-.422-.086l.13.22c.018.03.09.057.175.062M20.26 2.85c-.186-.02-.407.005-.475-.078l.128.23c.02.007.078.037.208.03.195-.008.395.033.425.086l-.11-.21c-.014-.024-.084-.05-.175-.06M20.55 3.424h-.006c-.188-.013-.404.023-.478-.057l.138.22c.02.008.08.04.213.026.192-.018.397.013.434.063l-.124-.2c-.016-.026-.09-.048-.177-.052M20.854 3.986c-.183-.005-.405.036-.475-.042 0 0 .14.216.14.22.023.01.08.037.21.02.182-.02.4-.003.432.047l-.13-.194c-.015-.027-.088-.043-.178-.05M21.188 4.535c-.19.003-.405.053-.48-.023l.155.215c.02.006.077.034.21.01.188-.032.396-.02.436.028l-.14-.192c-.02-.02-.093-.038-.182-.038M21.532 5.08h-.005c-.177.002-.393.06-.47-.01 0 0 .15.208.15.21.023.008.086.03.216 0 .188-.037.4-.037.44.012l-.145-.184c-.02-.02-.103-.033-.186-.03M21.907 5.6c-.188.013-.398.078-.482.01 0 0 .166.195.166.203.025.008.088.024.215-.008.188-.045.395-.045.438 0l-.152-.182c-.02-.022-.094-.033-.183-.024M22.285 6.112c-.186.028-.39.096-.47.028 0 0 .16.198.164.197.024.008.086.022.22-.017.182-.052.392-.062.433-.02l-.157-.17c-.022-.02-.094-.028-.19-.018M22.698 6.603c-.18.028-.393.112-.476.048l.18.19c.02.005.083.023.213-.02.177-.06.385-.07.43-.03l-.16-.17c-.022-.027-.097-.028-.187-.017M23.113 7.09v.003c-.182.037-.386.123-.468.058-.004.003.177.188.18.188.023.004.088.013.21-.032.183-.067.394-.086.442-.048l-.172-.162c-.02-.022-.1-.023-.192-.006M23.558 7.553v.004c-.185.038-.384.135-.473.075 0 0 .19.175.19.177.023.003.09.015.212-.036.177-.066.38-.094.43-.055l-.177-.163c-.017-.02-.095-.02-.182-.004M24.003 8.015c-.185.05-.378.147-.465.086-.002.006.187.178.19.178.03.002.09.01.212-.044.177-.078.385-.113.437-.074l-.182-.152c-.024-.02-.1-.016-.192.007M24.478 8.45c-.18.05-.376.158-.47.106 0 0 .2.16.202.164.028.002.09.008.21-.047.172-.083.373-.123.422-.085l-.18-.15c-.025-.02-.098-.016-.184.01M24.948 8.88v.004c-.178.05-.363.165-.46.115 0 0 .2.157.2.16.025.007.093.007.208-.055.172-.086.38-.135.43-.104l-.19-.138c-.022-.02-.1-.008-.188.02M25.447 9.284v.003c-.18.06-.368.183-.46.135 0 0 .206.147.208.15.025 0 .088.004.203-.06.17-.09.37-.142.423-.108l-.188-.14c-.026-.017-.102-.01-.185.02M25.945 9.69c-.175.065-.36.188-.455.145l.207.147c.026.003.094.005.202-.06.165-.097.37-.156.42-.125l-.194-.132c-.025-.017-.1-.005-.18.026M26.453 10.07v.005c-.17.07-.354.2-.454.16l.222.138c.02 0 .086 0 .2-.07.165-.102.36-.165.416-.13l-.196-.132c-.024-.013-.102 0-.19.03M26.974 10.445c-.17.075-.35.205-.446.17 0 0 .22.134.22.138.024 0 .086-.004.197-.074.16-.104.358-.168.413-.136l-.197-.13c-.028-.015-.1 0-.186.03M27.5 10.817c-.17.077-.35.213-.447.174 0 .006.222.136.224.136.026-.004.09-.006.198-.086.16-.105.356-.177.414-.15l-.206-.115c-.024-.016-.103.004-.184.042M28.042 11.163c-.17.08-.347.22-.44.183l.22.128c.027 0 .092-.005.198-.084.155-.11.352-.186.412-.156l-.21-.116c-.024-.014-.1.004-.18.045M28.58 11.505c-.164.083-.34.225-.433.193 0 0 .22.125.224.125.023 0 .088-.007.194-.085.153-.11.347-.19.402-.158l-.206-.116c-.025-.018-.1.002-.18.04M29.132 11.838c-.17.086-.34.23-.438.203l.225.117c.028 0 .092-.01.197-.09.153-.112.348-.198.406-.17l-.214-.108c-.028-.014-.104.003-.178.048M29.682 12.163c-.166.087-.33.233-.433.206l.228.112c.025-.002.092-.01.196-.09.147-.12.344-.194.4-.167l-.21-.115c-.03-.013-.1.01-.182.053M30.237 12.485c-.164.088-.33.238-.43.206l.228.117c.024 0 .088-.01.19-.09.152-.116.343-.198.4-.174l-.21-.11c-.023-.01-.098.01-.178.052M30.792 12.808c-.166.09-.328.243-.43.215l.23.107c.02 0 .083-.008.19-.09.157-.12.345-.2.4-.18l-.214-.108c-.02-.006-.096.008-.176.056M31.353 13.12c-.165.092-.334.246-.43.215l.233.11c.022 0 .087-.01.188-.093.153-.122.345-.204.4-.18l-.21-.104c-.03-.015-.1.012-.18.05M31.916 13.43c-.167.094-.33.248-.426.216 0 0 .227.108.228.112.022-.004.087-.012.193-.097.15-.12.344-.203.4-.18l-.217-.102c-.03-.012-.098.008-.177.053M32.478 13.743h-.003c-.16.09-.325.245-.424.218 0 0 .23.108.23.112.025-.004.09-.015.19-.096.154-.12.342-.204.4-.184l-.215-.104c-.03-.01-.1.01-.177.055M33.04 14.055c-.163.094-.328.244-.425.218l.228.108c.028-.002.09-.008.193-.096.15-.122.34-.208.398-.186l-.218-.102c-.027-.008-.1.013-.177.06M33.604 14.356c-.16.09-.32.25-.422.222 0 0 .23.104.232.107.025-.003.085-.013.188-.102.15-.117.34-.21.397-.183l-.215-.1c-.028-.01-.102.01-.18.056M34.172 14.657c-.16.094-.325.25-.425.225 0 0 .23.103.236.103.025 0 .086-.013.188-.096.147-.123.334-.213.397-.185l-.214-.105c-.035-.012-.103.01-.18.057M34.74 14.956c-.16.096-.322.252-.422.226l.232.104c.02 0 .09-.01.186-.096.15-.125.34-.21.398-.187l-.216-.103c-.025-.012-.1.013-.177.056M35.306 15.26c-.16.094-.322.25-.42.225l.23.107c.027-.007.09-.016.19-.1.15-.122.337-.216.398-.19l-.218-.096c-.03-.017-.102.01-.18.054M35.876 15.553v.002c-.162.094-.323.252-.418.23 0 0 .23.098.234.098.02-.002.084-.012.184-.1.146-.124.337-.215.397-.192l-.218-.093c-.026-.018-.102.008-.18.056M36.45 15.845v.002c-.16.098-.324.253-.42.23 0 0 .232.1.235.103.025-.002.086-.02.184-.103.145-.124.333-.215.394-.195l-.215-.096c-.035-.007-.107.014-.18.06M37.02 16.14c-.16.098-.32.253-.423.232l.24.1c.022-.003.084-.012.183-.1.146-.125.334-.215.397-.19l-.224-.1c-.023-.014-.095.01-.173.06M37.59 16.435c-.158.097-.317.254-.416.23l.232.102c.026 0 .088-.012.185-.103.147-.126.334-.215.397-.19l-.22-.1c-.024-.01-.102.01-.176.06M38.16 16.72v.008c-.156.094-.32.254-.415.233 0 0 .23.097.236.098.024-.003.084-.014.19-.102.145-.128.328-.22.394-.2l-.223-.093c-.025-.012-.097.01-.18.058M38.74 17.01h-.005c-.155.1-.313.26-.417.237 0 0 .235.098.235.1.027-.007.088-.018.187-.106.147-.124.333-.222.393-.193l-.218-.096c-.027-.012-.1.01-.175.06M39.315 17.296c-.162.104-.316.26-.42.24 0 0 .233.097.238.097.02-.007.086-.016.185-.104.144-.13.333-.222.388-.196l-.216-.1c-.03-.01-.1.015-.175.062M39.886 17.583c-.154.1-.312.263-.417.236 0 0 .23.096.235.096.028 0 .09-.012.188-.104.146-.122.33-.216.392-.194l-.22-.097c-.032-.01-.098.016-.18.063M40.46 17.87c-.156.1-.314.256-.416.238 0 0 .233.096.24.096.02-.003.087-.012.18-.1.15-.13.334-.22.393-.198l-.216-.1c-.028-.01-.1.018-.18.063M41.04 18.155c-.158.097-.316.26-.416.24l.237.093c.023 0 .083-.02.184-.102.144-.13.333-.226.388-.2l-.218-.096c-.028-.01-.1.013-.174.065M41.616 18.433c-.157.103-.312.263-.416.24l.235.098c.026 0 .09-.018.188-.104.143-.13.33-.223.387-.202l-.22-.092c-.027-.014-.098.014-.174.06M42.19 18.713c-.158.104-.308.264-.412.24 0 0 .235.097.24.097.024 0 .083-.017.183-.103.145-.13.332-.222.39-.203l-.216-.092c-.03-.014-.105.016-.183.06M42.77 18.997c-.156.102-.315.26-.413.24 0 0 .23.09.235.097.025-.006.083-.016.187-.105.14-.13.327-.227.39-.204l-.222-.093c-.028-.013-.102.015-.177.064M43.348 19.276v.003c-.153.097-.31.258-.412.24 0 0 .232.09.232.093.03-.004.092-.016.186-.102.146-.13.333-.225.39-.207l-.22-.093c-.024-.006-.1.018-.176.066M43.93 19.554h-.004c-.158.103-.31.266-.408.245l.235.092c.022-.005.083-.017.18-.107.15-.128.335-.225.392-.2l-.22-.094c-.033-.01-.105.013-.174.064M44.51 19.83c-.16.104-.315.266-.413.247l.232.09c.028-.003.086-.017.187-.102.138-.13.33-.226.388-.205l-.22-.093c-.03-.012-.104.014-.176.064M45.087 20.105v.005c-.158.096-.31.258-.413.24l.24.094c.02-.004.084-.015.183-.107.14-.13.328-.223.384-.203l-.218-.09c-.028-.013-.1.013-.175.06M45.67 20.383c-.16.105-.314.264-.418.245l.24.094c.022-.005.088-.017.185-.107.14-.126.326-.227.386-.205l-.222-.09c-.026-.01-.095.014-.17.063M46.246 20.66c-.154.103-.31.264-.415.247 0 0 .24.087.243.093.023-.006.086-.018.182-.11.144-.127.33-.225.39-.204l-.224-.088c-.025-.013-.097.01-.174.063M46.83 20.934h-.005c-.15.104-.31.263-.406.244l.232.095c.03-.003.09-.017.186-.11.14-.13.327-.226.388-.205l-.226-.09c-.022-.01-.095.017-.17.066M47.408 21.203v.004c-.154.102-.31.264-.412.243l.238.093c.025-.006.086-.015.187-.107.142-.134.326-.23.386-.206l-.223-.09c-.03-.01-.097.013-.175.063M47.993 21.475c-.158.107-.312.267-.41.248 0 0 .23.09.23.095.03-.007.09-.016.19-.11.138-.128.324-.226.386-.208l-.224-.09c-.028-.01-.1.015-.173.065M48.57 21.748v.005c-.155.1-.308.26-.407.242 0 0 .237.093.237.096.023-.004.09-.018.183-.107.145-.132.33-.228.386-.21l-.22-.087c-.032-.013-.1.01-.18.062M49.156 22.022c-.157.104-.31.263-.41.248l.234.09c.027-.002.084-.016.18-.105.146-.128.33-.232.388-.21l-.22-.088c-.027-.013-.097.016-.172.065M49.74 22.29c-.16.108-.31.27-.416.25 0 0 .235.092.24.092.025-.004.087-.018.183-.11.14-.132.33-.228.384-.208l-.215-.088c-.033-.013-.104.02-.175.065M50.32 22.56c-.155.102-.31.27-.41.25 0 0 .234.09.24.09.02-.005.083-.02.182-.107.14-.132.323-.233.384-.208l-.22-.092c-.028-.008-.1.018-.177.067M50.902 22.83c-.155.105-.307.27-.406.248 0 0 .235.09.236.092.02-.004.083-.02.182-.107.142-.13.325-.23.385-.212l-.22-.084c-.03-.013-.102.015-.178.063M51.49 23.1h-.003c-.158.1-.308.266-.41.245l.238.094c.022-.007.083-.02.183-.11.143-.132.326-.23.387-.21l-.223-.085c-.03-.012-.1.01-.172.064M52.07 23.366v.002c-.155.105-.308.27-.408.25l.233.09c.026-.005.093-.016.188-.11.14-.13.325-.23.384-.207l-.226-.09c-.025-.008-.094.02-.17.066M52.652 23.63v.007c-.157.1-.306.263-.41.25l.243.088c.017-.004.083-.018.178-.106.145-.136.328-.233.384-.214l-.218-.088c-.027-.01-.1.017-.178.063M53.235 23.9c-.154.104-.306.272-.406.25l.238.092c.022-.002.088-.017.185-.11.134-.13.323-.23.38-.207l-.22-.09c-.03-.01-.103.017-.178.066M53.822 24.17c-.156.103-.307.27-.41.247l.24.092c.024-.005.086-.02.18-.113.145-.13.328-.227.387-.21l-.224-.085c-.026-.01-.097.014-.174.067M54.407 24.434c-.153.105-.307.267-.41.255 0 0 .236.083.24.087.023-.005.085-.02.18-.11.143-.132.326-.23.386-.21l-.223-.088c-.027-.016-.1.015-.173.064M54.987 24.697c-.153.107-.304.27-.404.252l.237.092c.022-.004.09-.016.184-.11.14-.135.323-.235.385-.212l-.227-.09c-.024-.007-.094.02-.176.067M55.578 24.968c-.157.104-.308.27-.414.25 0 0 .24.087.246.087.02 0 .086-.017.178-.106.14-.134.326-.234.385-.215l-.224-.085c-.027-.015-.098.017-.172.068M56.16 25.23c-.154.104-.308.27-.41.25l.24.09c.024-.005.092-.018.186-.11.138-.134.32-.23.382-.212l-.223-.086c-.026-.01-.098.016-.174.067M56.748 25.49c-.158.105-.306.273-.41.256 0 0 .236.085.24.085.024 0 .09-.014.184-.107.138-.13.322-.233.382-.212l-.224-.09c-.03-.005-.095.022-.172.07M57.33 25.756c-.152.107-.305.27-.404.252 0 0 .234.09.238.09.023-.005.084-.017.182-.11.14-.13.323-.232.38-.213l-.22-.086c-.03-.01-.097.017-.175.066M57.916 26.02c-.15.105-.305.27-.404.257 0 0 .236.083.237.086.023-.002.083-.018.183-.112.14-.13.323-.23.383-.21l-.225-.088c-.027-.01-.1.018-.174.068M58.504 26.28c-.157.112-.31.272-.41.26 0 0 .24.083.244.083.022-.005.082-.02.18-.11.14-.13.32-.235.388-.216l-.225-.083c-.03-.01-.102.017-.176.066M59.085 26.543v.006c-.15.103-.302.266-.402.248 0 0 .237.086.237.09.024-.007.09-.022.185-.11.137-.133.32-.234.382-.215l-.223-.085c-.03-.01-.1.017-.18.065M59.676 26.806c-.155.107-.31.273-.407.26l.24.084c.02-.008.087-.02.18-.11.14-.136.323-.234.38-.215l-.22-.087c-.03-.01-.1.02-.174.068M60.26 27.07c-.152.103-.3.27-.404.253 0 0 .237.088.24.088.022 0 .086-.018.18-.11.14-.13.32-.233.385-.216L60.435 27c-.026-.012-.1.02-.173.07M60.848 27.33c-.154.105-.302.272-.405.256l.24.086c.024 0 .08-.02.178-.11.14-.138.326-.233.386-.212l-.223-.084c-.026-.016-.1.013-.175.065M61.436 27.592h-.002c-.153.104-.305.27-.402.253 0 0 .233.088.24.088.02-.004.083-.02.182-.107.135-.138.318-.234.377-.215l-.22-.09c-.03-.012-.1.022-.174.072M62.02 27.853c-.156.107-.302.273-.405.254l.242.088c.022-.002.082-.02.18-.11.135-.133.32-.236.38-.218l-.217-.086c-.032-.01-.102.02-.18.073M62.61 28.113h-.003c-.154.107-.3.27-.402.254l.24.088c.02-.002.083-.02.18-.11.14-.133.322-.24.378-.216l-.22-.085c-.026-.013-.1.018-.173.068M63.196 28.372c-.154.11-.307.273-.406.254 0 0 .24.088.24.09.022-.005.086-.02.18-.11.14-.132.323-.235.384-.217l-.223-.086c-.024-.013-.1.017-.174.068M63.784 28.634c-.155.105-.303.27-.403.254 0 0 .233.084.24.084.02 0 .084-.01.18-.107.137-.136.322-.24.38-.218l-.22-.086c-.034-.006-.104.023-.176.074M64.37 28.895c-.153.103-.308.27-.405.25 0 0 .238.09.242.09.02-.005.084-.022.184-.113.138-.132.32-.233.378-.218l-.22-.083c-.03-.008-.1.02-.178.075M64.96 29.15c-.158.11-.307.273-.41.256l.244.088c.02-.005.084-.018.18-.116.136-.128.322-.232.382-.21l-.22-.085c-.032-.013-.103.016-.177.067M65.543 29.41v.003c-.153.104-.3.27-.404.25 0 0 .24.09.24.092.025-.004.087-.022.18-.118.137-.126.322-.23.38-.21l-.224-.086c-.026-.01-.097.018-.173.07M66.136 29.665h-.006c-.154.11-.302.275-.405.26 0 0 .24.083.243.086.022-.002.083-.018.18-.11.14-.133.324-.235.383-.214l-.22-.086c-.032-.01-.1.018-.174.065M66.723 29.924v.005c-.156.102-.308.27-.407.255l.24.087c.025-.007.083-.023.178-.112.144-.135.323-.237.385-.217l-.226-.083c-.026-.012-.1.02-.17.064M67.305 30.186c-.15.107-.3.273-.404.26l.247.082c.02-.005.084-.02.178-.114.143-.132.32-.232.387-.215l-.225-.085c-.032-.01-.105.02-.182.07M67.895 30.445c-.153.104-.303.27-.406.255 0 0 .24.083.245.087.02-.007.084-.02.18-.112.137-.132.316-.238.382-.218l-.226-.085c-.03-.005-.1.023-.175.073M68.486 30.705c-.156.104-.307.27-.406.253 0 0 .236.084.24.084.022-.002.084-.02.18-.11.14-.132.32-.236.38-.215l-.222-.086c-.027-.01-.1.02-.172.075M69.074 30.958v.003c-.153.103-.307.272-.404.256l.234.086c.025-.002.09-.02.184-.11.143-.134.32-.236.38-.218l-.22-.084c-.03-.01-.103.017-.174.068M69.66 31.216v.003c-.155.104-.305.27-.402.256l.236.085c.025 0 .086-.018.18-.108.143-.137.326-.238.385-.22l-.224-.084c-.027-.01-.102.02-.175.068M70.25 31.475c-.152.107-.307.276-.404.258l.235.085c.03-.004.09-.017.186-.11.14-.134.322-.24.38-.217l-.22-.082c-.03-.01-.1.02-.175.067M70.84 31.733v.003c-.156.104-.307.27-.406.256l.24.082c.023 0 .086-.014.18-.11.138-.132.32-.237.38-.213l-.222-.088c-.032-.013-.097.02-.172.07M71.424 31.992c-.152.11-.302.276-.402.255 0 0 .237.087.244.087.02-.004.08-.022.176-.114.14-.128.32-.23.38-.216l-.22-.08c-.03-.015-.1.016-.178.068M72.014 32.248c-.154.105-.3.275-.404.258 0 0 .233.083.24.083.027-.002.086-.02.184-.11.136-.133.316-.236.38-.216l-.226-.086c-.026-.01-.1.02-.174.07M72.598 32.505c-.148.104-.3.277-.4.258l.24.086c.026-.002.084-.02.18-.11.138-.136.322-.236.385-.217l-.225-.085c-.033-.014-.1.015-.18.067M73.188 32.764c-.15.107-.303.27-.404.255 0 0 .24.083.244.083.022-.002.084-.015.177-.11.142-.13.323-.235.385-.218l-.222-.083c-.033-.01-.102.02-.18.072M73.775 33.02v.004c-.15.102-.3.27-.403.252 0 0 .235.09.24.09.024-.004.088-.022.183-.11.137-.136.32-.238.382-.22l-.225-.086c-.03-.007-.1.02-.177.07M74.367 33.282c-.157.104-.305.272-.405.255 0 0 .237.085.24.085.024 0 .085-.018.182-.11.136-.133.32-.236.376-.218l-.222-.084c-.026-.01-.1.018-.17.072M74.957 33.538c-.156.106-.31.277-.407.255l.236.09c.026-.008.086-.02.183-.11.138-.133.32-.237.382-.218l-.226-.084c-.026-.012-.1.015-.17.068M75.543 33.792v.005c-.154.104-.307.274-.406.255l.237.085c.026-.003.085-.02.183-.114.143-.13.32-.233.385-.21l-.225-.088c-.03-.01-.104.023-.174.067M76.132 34.053c-.155.108-.307.274-.405.255 0 0 .238.086.238.09.023-.006.088-.018.184-.113.135-.134.318-.238.378-.22l-.223-.08c-.026-.01-.1.018-.173.068M76.72 34.312c-.155.106-.305.274-.405.255l.238.085c.025 0 .088-.014.182-.11.14-.133.322-.235.38-.216l-.222-.083c-.03-.013-.096.017-.172.07M77.31 34.567v.004c-.155.11-.304.27-.405.252l.24.09c.022-.006.084-.02.183-.114.134-.13.317-.23.377-.217l-.225-.08c-.028-.01-.096.017-.17.067M77.896 34.822v.004c-.156.105-.304.272-.406.26l.24.082c.023-.004.086-.02.182-.11.14-.133.318-.237.383-.215l-.225-.087c-.027-.007-.097.022-.174.066M78.482 35.083v.002c-.154.106-.3.274-.4.257l.236.088c.025-.006.088-.027.183-.112.14-.136.32-.237.38-.224l-.22-.078c-.028-.014-.1.018-.178.067M79.074 35.34h-.002c-.156.11-.305.274-.406.26l.238.082c.027-.002.084-.02.182-.107.143-.137.323-.24.383-.22l-.224-.085c-.028-.008-.098.02-.172.07M79.665 35.598c-.16.105-.31.276-.41.257l.24.086c.024-.002.085-.02.18-.108.14-.134.324-.238.384-.22l-.22-.084c-.033-.01-.104.02-.175.07M80.245 35.855c-.15.107-.3.276-.4.26l.24.085c.026-.008.084-.018.18-.112.14-.134.324-.238.384-.217l-.227-.084c-.028-.01-.098.018-.178.07M80.835 36.116c-.15.104-.3.27-.403.253 0 0 .235.084.24.084.023 0 .084-.02.182-.11.14-.133.32-.237.383-.213l-.225-.084c-.028-.013-.1.012-.177.07M81.424 36.37c-.152.11-.298.273-.4.26l.235.084c.022-.007.086-.02.182-.112.136-.13.322-.234.382-.217l-.224-.083c-.03-.01-.104.017-.176.068M82.012 36.63c-.154.108-.3.273-.402.253 0 0 .24.086.24.09.025-.003.082-.02.182-.114.14-.135.318-.236.38-.217l-.224-.085c-.03-.012-.1.02-.176.072M82.6 36.883v.003c-.148.107-.3.275-.402.258 0 0 .238.085.242.085.02 0 .086-.02.18-.11.136-.135.32-.236.378-.22l-.22-.084c-.032-.007-.1.02-.178.067M83.188 37.144c-.15.105-.3.274-.4.252 0 0 .24.088.24.094.023-.007.082-.024.18-.116.14-.134.32-.238.383-.216l-.22-.085c-.037-.01-.104.02-.182.07M83.777 37.396l-.002.005c-.148.105-.297.273-.398.257 0 0 .23.086.236.086.02-.007.082-.022.18-.11.143-.132.324-.238.38-.22l-.217-.083c-.032-.01-.1.017-.18.066M84.37 37.658h-.002c-.156.105-.306.274-.406.255 0 0 .238.086.24.09.02-.008.085-.02.178-.115.142-.133.327-.234.386-.213l-.222-.085c-.03-.013-.103.016-.174.068M84.956 37.913v.004c-.155.104-.304.27-.4.257l.235.087c.02-.008.085-.02.177-.112.145-.135.327-.235.39-.216l-.228-.084c-.028-.012-.107.016-.174.065M85.547 38.172h-.004c-.15.108-.3.273-.41.256 0 0 .24.086.246.09.02-.004.087-.02.18-.115.136-.135.32-.238.38-.216l-.22-.087c-.032-.007-.1.02-.173.072M86.134 38.428v.004c-.155.105-.306.27-.403.254l.236.086c.025-.004.087-.022.185-.11.138-.133.32-.234.383-.218l-.226-.083c-.03-.013-.1.02-.173.068M86.72 38.686c-.15.108-.305.274-.407.26 0 0 .242.086.246.086.02-.01.08-.02.173-.11.14-.14.328-.24.39-.22l-.23-.086c-.032-.01-.096.02-.172.07M87.31 38.946c-.157.107-.304.274-.405.255 0 0 .236.086.24.086.02 0 .088-.017.18-.11.14-.134.324-.24.383-.215l-.223-.084c-.033-.013-.103.02-.176.07M87.896 39.2c-.153.11-.303.274-.402.258 0 0 .232.086.236.086.025-.005.086-.018.182-.112.137-.13.32-.235.384-.216l-.226-.082c-.03-.01-.1.018-.174.067M88.482 39.463c-.152.104-.3.27-.4.252 0 0 .236.086.236.088.024-.002.09-.02.185-.115.144-.13.322-.235.38-.215l-.222-.084c-.025-.012-.097.016-.178.073M89.073 39.72c-.156.103-.304.266-.41.256l.245.085c.02-.007.086-.02.18-.112.14-.13.324-.233.383-.214l-.224-.086c-.03-.01-.094.02-.173.07M89.658 39.976c-.146.105-.3.273-.402.255l.245.09c.022-.007.082-.02.177-.117.142-.133.323-.233.386-.217l-.226-.083c-.028-.008-.096.02-.18.073M90.25 40.232v.005c-.157.104-.305.273-.404.25l.235.09c.027-.01.088-.02.182-.112.14-.132.326-.234.385-.214l-.223-.085c-.028-.01-.102.02-.175.067M90.84 40.496c-.16.106-.31.274-.408.257l.237.086c.025-.007.086-.02.182-.113.14-.132.323-.233.383-.214l-.223-.086c-.028-.01-.103.017-.172.07M91.427 40.756c-.16.104-.307.272-.41.254l.238.087c.026-.004.087-.015.188-.113.137-.126.315-.23.377-.213l-.223-.083c-.023-.01-.097.018-.17.07M92.01 41.017c-.156.104-.304.275-.404.256 0 0 .237.083.242.086.02-.003.08-.022.178-.113.138-.127.324-.23.383-.21l-.22-.09c-.036-.01-.104.02-.18.07M92.596 41.28c-.15.103-.304.275-.397.254l.23.086c.022-.004.086-.02.184-.11.14-.13.322-.234.386-.214l-.224-.083c-.033-.014-.105.013-.18.067M93.184 41.536v.006c-.158.104-.304.268-.406.254l.238.083c.03-.007.086-.02.182-.112.143-.132.324-.236.39-.214l-.224-.087c-.03-.006-.107.023-.18.07M93.773 41.8v.005c-.157.103-.31.27-.408.25 0 0 .236.086.242.087.02-.005.084-.02.177-.11.138-.133.323-.23.383-.216l-.222-.084c-.026-.012-.102.018-.172.07M94.357 42.06c-.156.11-.31.273-.404.258 0 0 .232.084.238.084.022-.003.085-.02.183-.107.137-.135.324-.236.385-.215l-.224-.086c-.03-.014-.102.015-.177.067M94.94 42.323c-.153.103-.298.27-.4.25l.235.09c.02-.003.09-.015.184-.11.14-.13.323-.235.38-.213l-.22-.088c-.03-.006-.1.022-.18.07M95.53 42.583c-.155.106-.302.27-.405.25l.238.09c.02-.002.09-.018.184-.112.137-.13.324-.228.383-.21l-.225-.084c-.03-.01-.1.018-.174.067M96.122 42.845h-.003c-.156.105-.308.27-.41.255l.237.085c.03-.003.094-.018.183-.108.146-.134.327-.235.388-.214l-.227-.086c-.022-.01-.097.018-.168.068M96.705 43.11c-.155.103-.31.265-.408.25 0 0 .234.087.24.087.023 0 .086-.018.18-.105.143-.132.325-.23.385-.214l-.225-.087c-.025-.01-.1.02-.172.07M97.288 43.376c-.155.107-.308.27-.41.252 0 0 .24.092.244.092.02-.01.084-.022.177-.11.142-.135.326-.234.388-.212l-.226-.087c-.03-.013-.097.016-.174.066M97.87 43.644v.003c-.157.1-.306.264-.408.247l.24.092c.026-.004.084-.014.188-.11.137-.13.32-.23.38-.208l-.223-.092c-.027-.01-.1.02-.176.068M98.457 43.912c-.156.107-.31.268-.41.25 0 0 .238.092.238.094.025-.002.087-.02.186-.115.138-.126.322-.228.38-.206l-.22-.086c-.028-.017-.1.017-.173.064M99.04 44.18c-.156.105-.306.273-.41.252 0 0 .238.088.24.094.022-.008.086-.02.18-.112.144-.133.33-.23.386-.206l-.22-.096c-.03-.007-.1.02-.176.068M99.623 44.45c-.16.105-.31.27-.412.248l.24.09c.024-.002.09-.02.184-.104.14-.138.326-.23.39-.215l-.224-.084c-.03-.01-.098.016-.177.063M100.208 44.72c-.16.1-.312.27-.408.246l.237.09c.023 0 .082-.018.18-.107.14-.133.33-.23.387-.21l-.22-.087c-.03-.014-.105.015-.176.067M100.79 44.986c-.156.104-.308.266-.407.253 0 0 .235.082.237.087.02-.01.084-.02.182-.113.144-.127.328-.228.386-.206l-.222-.087c-.028-.01-.1.018-.175.066M101.377 45.25v.004c-.16.104-.313.27-.41.25 0 0 .234.087.24.087.02 0 .078-.015.175-.11.146-.126.333-.226.39-.202l-.217-.086c-.035-.014-.106.01-.178.06M101.96 45.52c-.16.102-.312.27-.414.25 0 0 .235.095.24.095.022-.008.084-.02.185-.113.138-.13.326-.23.39-.206l-.226-.092c-.027-.01-.1.02-.173.067M102.54 45.79c-.155.104-.312.27-.41.252 0 0 .233.085.242.085.02 0 .08-.018.183-.105.14-.13.323-.228.385-.21l-.22-.085c-.03-.014-.107.015-.18.062M103.126 46.06c-.158.103-.312.266-.41.25 0 0 .236.087.236.09.022-.007.088-.017.185-.108.14-.13.324-.223.383-.203l-.22-.092c-.03-.014-.1.01-.174.063M103.704 46.335v.003c-.156.1-.312.262-.408.248 0 0 .23.087.233.087.024 0 .087-.014.185-.103.143-.13.326-.226.387-.203l-.223-.094c-.026-.01-.103.017-.176.062M104.28 46.617c-.153.1-.308.262-.407.242l.236.095c.023-.004.087-.016.182-.107.144-.13.324-.223.386-.203l-.217-.094c-.03-.01-.103.02-.18.067M104.867 46.896c-.163.104-.316.262-.414.242l.234.094c.023-.002.082-.018.185-.105.142-.127.328-.227.39-.204l-.226-.092c-.026-.01-.097.018-.17.066M105.44 47.177c-.153.104-.31.263-.413.237l.238.098c.023-.006.09-.02.186-.107.14-.123.327-.225.39-.2l-.218-.095c-.032-.012-.104.014-.183.067M106.02 47.45c-.16.105-.313.265-.41.243 0 0 .233.095.237.1.02-.006.084-.022.182-.107.144-.13.33-.224.387-.205l-.22-.087c-.03-.016-.097.01-.176.058M106.602 47.73c-.162.104-.312.264-.414.242 0 0 .227.096.236.096.02-.006.088-.017.184-.105.142-.13.332-.225.387-.203l-.217-.092c-.03-.01-.1.016-.176.062M107.182 48.01h-.006c-.152.102-.31.264-.412.24 0 0 .235.098.238.098.023-.007.09-.018.186-.103.142-.134.326-.228.39-.206l-.222-.093c-.028-.01-.098.016-.174.063M107.756 48.288c-.158.104-.313.26-.41.242 0 0 .23.093.233.093.02-.004.087-.016.184-.105.145-.125.33-.22.396-.2l-.224-.09c-.03-.014-.1.01-.18.06M108.342 48.566c-.162.102-.318.265-.42.242 0 0 .232.094.236.094.025-.006.086-.017.188-.104.143-.126.328-.222.393-.2l-.226-.095c-.032-.01-.1.015-.172.063M108.917 48.848h-.003c-.157.104-.316.262-.416.24l.24.098c.023-.01.084-.02.187-.104.144-.13.328-.228.386-.206l-.216-.092c-.028-.013-.1.015-.177.064M109.497 49.126h-.003c-.157.1-.316.26-.42.24l.236.09c.025 0 .092-.008.187-.103.15-.125.333-.22.394-.196l-.216-.095c-.03-.01-.104.018-.177.064M110.073 49.408h-.003c-.16.1-.313.26-.412.24 0 0 .232.096.234.1.026-.01.092-.022.188-.11.142-.126.327-.22.385-.202l-.22-.093c-.022-.01-.097.014-.172.065M110.65 49.69c-.162.103-.316.262-.418.236l.234.103c.03-.007.088-.02.184-.11.146-.127.338-.223.393-.2l-.223-.094c-.022-.01-.093.02-.17.063M111.23 49.973c-.165.102-.314.262-.42.235 0 0 .23.1.236.1.026 0 .084-.015.185-.103.147-.13.337-.223.395-.2l-.224-.093c-.025-.014-.098.015-.17.06M111.803 50.256c-.16.1-.316.262-.42.24l.24.098c.02-.006.088-.02.184-.105.147-.128.334-.22.393-.197l-.22-.097c-.026-.012-.103.01-.177.06M112.38 50.543c-.16.098-.315.254-.42.237 0 0 .233.092.235.097.03-.005.086-.018.188-.104.146-.13.334-.22.392-.2l-.217-.095c-.03-.012-.1.014-.177.065M112.95 50.83c-.154.098-.313.254-.416.23 0 0 .235.103.24.103.02-.003.08-.017.184-.103.144-.125.335-.218.39-.192l-.215-.1c-.03-.01-.104.014-.183.062M113.527 51.12c-.162.1-.32.257-.422.233 0 0 .232.097.237.103.026-.008.085-.017.185-.103.144-.125.336-.218.395-.193l-.217-.1c-.028-.013-.1.015-.178.06M114.098 51.41c-.156.1-.318.26-.418.236l.234.1c.025-.003.087-.014.188-.104.147-.127.336-.213.394-.192l-.218-.097c-.03-.01-.1.02-.18.058M114.67 51.707c-.16.094-.316.25-.42.227 0 0 .23.104.236.104.022 0 .087-.008.185-.104.148-.125.342-.217.398-.188l-.22-.098c-.025-.012-.1.012-.177.06M115.243 51.997c-.163.1-.318.253-.42.23l.235.1c.02-.004.086-.013.185-.1.15-.126.338-.21.394-.188l-.217-.103c-.025-.007-.102.012-.177.06M115.813 52.297c-.158.096-.318.25-.42.23l.23.102c.027-.004.086-.012.19-.096.145-.124.333-.217.395-.19l-.22-.103c-.025-.013-.095.01-.175.057M116.38 52.598c-.163.096-.32.252-.42.226l.23.104c.025-.003.087-.012.19-.095.145-.126.333-.215.396-.19l-.22-.103c-.023-.008-.097.01-.175.058M116.95 52.898c-.16.1-.32.254-.425.225 0 0 .23.107.236.107.02-.006.087-.017.185-.098.152-.124.342-.212.4-.19l-.217-.1c-.028-.01-.1.012-.178.056M117.516 53.195c-.156.103-.32.256-.425.23 0 0 .23.103.237.104.026-.003.088-.01.188-.097.15-.123.34-.21.397-.188l-.216-.103c-.03-.008-.1.014-.18.053M118.084 53.508c-.165.088-.324.245-.424.22 0 0 .23.102.23.105.026-.005.087-.01.19-.093.146-.126.342-.21.396-.186l-.213-.104c-.027-.012-.103.01-.18.058M118.646 53.818c-.162.09-.322.242-.426.213 0 0 .232.112.232.114.02-.002.087-.015.19-.096.147-.122.34-.206.396-.18l-.214-.105c-.024-.015-.095.012-.178.055M119.208 54.128c-.157.09-.327.246-.424.22l.23.106c.024 0 .087-.013.19-.097.15-.118.348-.2.4-.18l-.212-.104c-.035-.01-.104.01-.184.055M119.77 54.438v.006c-.164.09-.326.238-.418.214l.225.11c.023-.007.09-.016.19-.096.15-.122.343-.205.402-.18l-.215-.105c-.03-.013-.1.01-.185.05M120.335 54.752c-.164.088-.33.24-.43.218 0-.005.23.104.233.105.02-.003.084-.01.192-.095.147-.116.34-.198.397-.172l-.213-.11c-.02-.012-.1.01-.18.054M120.896 55.068l-.006.004c-.16.093-.326.234-.428.205 0 0 .225.115.232.12.025-.005.087-.015.188-.093.152-.12.346-.2.403-.177l-.21-.104c-.03-.013-.098.004-.18.045M121.45 55.396c-.163.088-.332.23-.433.21 0 0 .225.106.23.106.022 0 .088-.002.193-.09.152-.116.344-.193.4-.167l-.214-.11c-.022-.014-.094.01-.175.05M122.008 55.714v.006c-.167.085-.336.237-.436.203l.232.114c.022 0 .086-.01.19-.086.155-.118.35-.2.407-.173l-.214-.108c-.023-.015-.1.005-.178.044M122.564 56.036c-.168.092-.34.237-.435.21l.227.11c.026 0 .088-.007.195-.085.15-.112.346-.19.403-.165l-.214-.114c-.017-.01-.094.01-.176.046M123.152 56.373c-.166.082-.336.232-.437.197l.226.115c.028 0 .09-.004.198-.08.146-.12.346-.192.4-.164l-.205-.112c-.024-.017-.103.003-.18.045M123.7 56.71c-.166.083-.34.228-.433.2l.223.11c.025 0 .09 0 .197-.083.15-.11.35-.188.402-.157l-.208-.114c-.025-.02-.105 0-.18.045M124.25 57.044c-.167.084-.343.23-.438.197 0 0 .222.12.225.12.025 0 .09-.007.197-.087.15-.11.354-.188.406-.156l-.207-.114c-.025-.02-.102.003-.183.04M124.793 57.387c-.17.077-.337.22-.438.19 0-.003.224.12.227.126.023 0 .085-.006.195-.084.156-.11.35-.185.406-.156l-.205-.118c-.026-.015-.103.004-.185.04M125.337 57.742c-.172.072-.346.214-.44.186l.22.123c.022 0 .087 0 .2-.075.154-.113.354-.183.41-.152l-.205-.116c-.032-.02-.106-.002-.185.035M125.88 58.068c-.17.082-.348.22-.442.184l.222.125c.022 0 .084-.005.198-.078.16-.108.357-.18.416-.146l-.205-.122c-.028-.014-.106 0-.19.036M126.43 58.42c-.166.072-.35.21-.443.178 0 0 .22.122.22.13.024 0 .09-.003.194-.07.163-.106.364-.164.42-.134l-.202-.133c-.028-.02-.106-.003-.188.03M126.98 58.81c-.177.07-.353.204-.45.17 0 0 .215.128.217.132.02 0 .085 0 .197-.07.164-.1.367-.16.425-.126l-.206-.134c-.025-.018-.1-.005-.185.03M127.516 59.188c-.177.065-.36.193-.45.153l.206.14c.025 0 .092 0 .203-.066.174-.103.377-.156.426-.12l-.195-.133c-.028-.02-.105-.01-.19.028M128.02 59.563c-.18.06-.364.188-.456.143l.21.146c.025 0 .087 0 .202-.064.166-.094.373-.15.426-.114l-.195-.137c-.027-.017-.105-.012-.186.026M128.52 59.94c-.17.062-.347.185-.44.143l.217.146c.026.003.087.007.195-.06.154-.088.355-.138.41-.102l-.202-.15c-.023-.016-.096-.007-.18.02M129.046 60.36c-.17.064-.34.182-.437.14 0 0 .208.148.214.148.02.004.084.004.193-.058.16-.093.354-.135.41-.098l-.197-.153c-.026-.017-.102-.01-.184.02M129.574 60.775l-.004.002c-.172.06-.348.18-.442.134 0 0 .21.152.21.156.022 0 .085.004.2-.057.16-.09.36-.132.413-.093l-.195-.15c-.026-.023-.097-.012-.18.008M130.066 61.232c-.168.053-.352.16-.445.113 0 0 .21.157.21.163.02 0 .084.013.2-.045.16-.08.36-.118.41-.075l-.194-.164c-.02-.015-.096-.012-.18.008M130.564 61.69h-.006c-.168.046-.353.15-.445.103 0 0 .197.163.205.166.02.002.086.01.2-.046.165-.08.368-.11.42-.074l-.19-.155c-.023-.022-.102-.02-.184.004M131.05 62.152c-.176.04-.36.146-.448.094l.2.173c.024.005.085.012.2-.043.163-.07.365-.1.42-.06l-.184-.165c-.028-.02-.106-.02-.187 0M131.54 62.648c-.185.028-.378.117-.463.057l.188.188c.02.006.086.016.2-.023.18-.063.38-.068.427-.023l-.17-.18c-.027-.028-.1-.033-.183-.02M131.975 63.16h-.004c-.175.027-.366.107-.46.046l.186.188c.023.008.084.025.207-.012.176-.06.38-.06.427-.01l-.167-.19c-.03-.02-.104-.03-.188-.02M132.407 63.688c-.187.016-.384.095-.466.03 0 0 .18.19.185.19.018.008.084.023.203-.014.176-.05.382-.045.42.006l-.16-.193c-.02-.02-.092-.034-.18-.02M132.818 64.217c-.18.016-.38.084-.463.023 0 0 .176.19.176.195.022.008.085.022.206-.01.175-.044.386-.035.428.018l-.16-.195c-.025-.023-.1-.034-.186-.03M133.232 64.81c-.188-.01-.396.03-.476-.042 0 0 .15.21.153.217.022.01.077.037.202.023.184-.02.385.02.422.076l-.133-.216c-.013-.032-.087-.054-.168-.057M133.552 65.41h-.003c-.183-.018-.39.02-.46-.063 0 0 .14.22.14.225.02.014.08.045.204.03.186-.013.385.024.422.083l-.123-.217c-.02-.025-.096-.048-.18-.06M20.164 2.332c-.016-.024-.09-.052-.175-.066h-.003c-.09-.012-.194-.012-.278-.023v.19c.035.01.076.018.136.014.194-.004.397.04.43.096l-.112-.21zM19.708 1.856c.153.017.288.057.31.104l-.104-.217c-.015-.027-.08-.057-.17-.072h-.036v.186zM19.708 1.216v.105c.036.013.06.028.067.045l-.067-.15zM20.205 21.08c-.02-.008-.074-.042-.2-.037-.105.005-.212-.013-.295-.034v.16c.02.028.083.053.17.067h.002c.183.025.395-.01.464.068 0 0-.14-.222-.14-.225M19.708 20.632c.15.012.292.012.34.075 0 0-.126-.227-.126-.232-.022-.01-.077-.042-.205-.042h-.01v.2zM19.708 19.998v.072c.025.01.045.02.056.036 0 0-.03-.054-.056-.108M134 66.042c-.034-.01-.076-.028-.126-.034-.188-.023-.4.012-.47-.07l.142.227c.02.01.075.042.2.034.088-.004.176.01.254.025v-.183zM134 85.925c-.034-.016-.055-.024-.063-.044l.063.143v-.098zM134 85.39c-.15-.02-.28-.055-.3-.1l.097.214c.014.026.083.06.17.07h.002c.013 0 .02 0 .03.006v-.19zM134 84.813c-.034-.006-.076-.015-.13-.015-.196.003-.397-.04-.433-.095l.11.21c.015.03.09.054.175.063.096.015.19.02.276.023l.002-.187zM134 66.605c-.13-.008-.25-.013-.298-.072l.126.236c.02.01.066.03.172.036v-.2z"/><path d="M56.128 14.465c-.05.69-.616.928-1.05.997-.215-.046-.382-.18-.492-.452.345-.404.578-.84.595-1.276.002-.007 0-.012 0-.02.038.07.106.12.19.12.118 0 .216-.1.216-.22 0-.026-.005-.052-.014-.076.337.153.572.5.556.927m-1.543.545zm-.383-.538c-.182.336-.438.604-.694.71-.133-.054-.27-.155-.394-.323 0 0-.41-.5-.092-1.514.06.012.122.02.167.02h.49c.168 0 .328-.064.486-.11.153.077.24.235.24.43 0 .282-.035.46-.204.786m-2.187.387c-.13.168-.263.268-.396.322h-.002c-.256-.107-.512-.375-.692-.71-.17-.324-.203-.503-.203-.785 0-.196.084-.355.236-.43.157.046.323.108.487.108 0 0 .21.02.49 0h.002c.045 0 .103-.004.166-.017.317 1.01-.09 1.51-.09 1.51m-1.97.604c-.425-.067-.997-.304-1.046-.997-.016-.428.22-.776.56-.93-.01.026-.017.055-.017.08 0 .12.098.22.216.22l.196-.002c.046.402.244.87.716 1.21-.11.274-.408.373-.625.42m5.658-2.117l-.593.004c-.112-.25-.35-.385-.607-.385h-.493c-.248 0-.425.096-.644.15-.06-.018-.13-.043-.194-.083.064-.077.104-.175.104-.288 0-.25-.196-.448-.465-.448h-.493c-.27 0-.466.197-.466.448 0 .112.04.21.106.288-.066.04-.135.066-.197.083-.22-.054-.395-.15-.644-.15h-.494c-.258 0-.49.138-.604.385l-.596-.004c-.674 0-1.173.48-1.173 1.12 0 .58.388 1.096.794 1.57L50 17.11h.23c.01-.005 1.152-.48 2.584-.48 1.437 0 2.584.48 2.584.48l.785-1.073c.408-.476.795-.99.795-1.572-.003-.637-.598-1.12-1.273-1.12"/><path d="M64.347 39.452l.013-.01c.562-.43 1.038-1.02 1.108-1.576.084-.67-.263-1.39-1.334-1.376h-.493c-.177 0-.408.054-.565.165.507.124.226.643.442 1.146.158.39.608.535.55.906-.03.223-.145.366-.332.527-.696.6-1.838 1.04-2.845 1.08-.83-.036-1.408-.19-2.048-.393.2-.263.07-.772-.404-.797.04-.584-.392-.65-.593-.708-.415-.12-1.015.15-1.454.177-.446.027-.53-.07-.602-.182-.033-.047-.06-.11-.083-.186-.1-.47-.162-1.354-.19-1.852-.002-.008-.002-.015-.002-.02-.032-.413.018-.928.018-.928.43.844.97 1.52 1.93 1.986h.29c-.515-1.043-.67-2.2-.756-3.307l-.038-.586c-.094-1.178-.343-2.195-.887-2.244.12-.006.238-.028.35-.06.49-.134.867-.44 1.038-.885.153.467.22 1.01.184 1.65-.088 1.565.6 2.33.6 2.33h.16c.223-.208.322-.528.426-1.223-.043 1.362.198 2.257.47 2.668h.13c.29-.413.53-1.03.73-1.746-.027.158-.33 2.115.263 3.205h.126c.33-.484.615-1.184.863-1.997-.034.178-.468 2.815 1.04 3.747h.26c-.02-.195-.032-.454-.04-.72-.04-1.317.352-2.594.526-3.062.782-2.137 1.882-4.823 1.914-9.528.027-4.41-1.762-9.717-4.59-9.717-1.26 0-2.06.66-2.74 3.03-.18.625-.51 1.604-.872 2.485-.244.596-.383 1.212-.734 1.68-.45.602-.887.74-1.193.82-.175-.068-.272-.218-.305-.36.125-.01.41-.043.633-.215.15-.112.27-.285.305-.548-.698.195-1.4-.014-1.83-.586-.256-.34-.365-.658-.407-.97h.38c.764-.002 1.545-.303 2.022-1.092.128-.216.244-.578.274-.872l.652-.126c.133-.494-.272-.86-.78-.872h-.494c-.153-.003-.392.025-.47.047.02-.36-.456-.563-.84-.408-.146-.213-.433-.347-.784-.386-.854-.09-1.553.042-2.218.463-.367.232-.754.44-1.2.495-.225-.03-.39-.104-.647-.232h-.345c-.03-.016-.104.792.286 1.24.31.388.728.457.995.456l.135-.016c-.127.44-.62.666-.995.742-.23-.05-.427-.166-.517-.316h-.302c-.032.304.02 1.27.952 1.494 0 0-.674.565-.79 1.57-.196-.354-.3-.902-.542-1.88 0 0-.647-2.182-.878-3.637-.274-1.725-.816-2.053-1.79-2.078h-.155c-.658-.016-1.27.202-1.818.606 0 0-3.782 2.512-3.782 10.638.08 4.498 1.257 6.602 2.04 8.74.174.468.663 1.562.644 3.067-.004.334-.02.527-.04.722h.208c.055-.013 1.57-.376.87-3.782.25.87.5 1.325 1.156 2.037h.135c.012-.013.417-.42.04-2.942.132.574.587 1.22.96 1.483h.117c.185-.456.32-1.417.17-3.09.066.49.285 1.23.753 1.645h.1s.207-.517.266-1.396c.005.045.006.07.006.07 0 1.29.53 2.413.207 4.23h.156c.022-.01.54-.266.877-1.445l.103 1.518c.02.35.046.662-.194.824-.153-.04-.32-.105-.442-.156-.234-.096-.433-.214-.665-.207h-.48c-.034 0-.072.003-.108.01-.07.014-.13.05-.17.103h-.404c-.59-.022-.716.46-.723.613-1.53-.11-2.758 1.48-3.92 1.53-.33-.03-.794-.127-1.174-.425 0 0 .634-.362.66-1.144 0-.648-.49-.84-.49-1.22 0-.27.04-.416.216-.645h-.286c-1.092.42-1.83 1.01-1.83 1.847 0 1.244 1.31 1.803 2.488 2.11-.065.037-.435.142-.553.218l-.616-.004c-.13 0-.272.01-.417.04-1.095.22-.77 1.458-1.524 2.01h.287c.324-.04.66.016.956.016 1.28 0 1.697-.68 1.92-1.628.153-.145.34-.307.55-.407.46.054 1.02-.015 1.583-.22-.01.063-.015.126-.01.177-1.65.875-.64 2.324-1.624 3.08h.29c.307 0 .662-.025 1.06-.085 1.223-.18 1.832-.968 1.747-1.896-.063-.66-.566-.854-.512-1.324.068-.49.614-.698 1.1-.755.702.093 1.64.584 2.302.803 0 0-.7 1.516-.062 2.827h.22s.47-.062.93-.404c.017.383.227.917.685 1.325h.23s.565-.14.985-.832c.166.526.62 1.226 1.513 1.646h.212s.93-.607 1.19-1.805c.236.28.713.583 1.325.68h.187s.317-.39.283-1.35c.236.204.575.398 1.25.538h.188s.534-.88-.31-2.624c.222-.066.598-.156.976-.2.24.136.525.298.496.55-.02.152-.213.42-.234.726-.05.777.575 1.27 1.53 1.246h.427c.08 0 .16-.002.247-.01.563-.042 1.054-.233 1.54-.577-.48.064-.815.003-1.092-.273-.114-.125-.322-.383-.565-.697-.2-.237-.505-.41-.94-.475 0 0-.002 0-.002-.002-.082-.1-.23-.278-.332-.424.722.222 1.613.335 2.29.35.328.04.637.14.778.346.417.628.51 1.353 2.178 1.353h.343c.556 0 1.05-.327 1.156-.816.083-.375.043-.684-.12-.965h-.41c-.095.21-.334.397-.693.483l-.022-.006c-.526-.137-.813-.58-1.463-.545-.145.005-.53.082-.77-.008 1.187-.25 1.7-.755 2.4-.857.375.03.734.14.957.273h.35l.04-.138c-.134-.133-.285-.234-.45-.307h.537l.04-.14c-.057-.095-.66-.75-1.18-.666"/><path fill="#BB9952" d="M42.044 21.903c.04-.208.037-.14.037-.14-.053 1.032.113 3.02.693 3.108.807.126.993-2.5 1.07-3.16.076-.66.032.035.032.035s-.03.646-.03.933c0 1.827.367 2.687.69 2.67.65-.032.715-2.53.75-3.1.042-.655.06-.055.06-.055 0 1.354.284 3.72.952 3.965.7.234 1.235-.917 1.235-.917-.38-.934-.622-2.106-.694-3.39-.077-.034-.158-.068-.246-.103l-.02-.008c-.272-.113-.55-.233-.755-.34-.658-.353-1.017-.968-.736-2.344-.666 1.598-1.433 1.16-1.433 1.16-.334-.175-.28-.785-.22-1.2-.533.92-.862 1.15-1.17 1.063-.064-.02-.212-.128-.21-.383.004-.32.23-.72.307-.844 0-.004.175-.327.18-.328l-.115.345c-.118.325-.2.805-.002.86.23.067.806-.756 1.395-1.926l.136-.26-.088.28c-.256.687-.368 1.667 0 1.84.397.188 1.05-.652 1.454-1.556l.033-.076c.004-.012.074-.174.074-.174-.192 1.167-.124 1.798-.124 1.798.05.71.267 1.13.704 1.36.166.086.662.294.91.39l.017.004c.258.09.46.162.49.474.24 2.742.856 4.104 1.88 4.162 0 0 .734.07.99-.332.012-.028.03-.06.043-.093l.002-.01c.004-.01.016-.016.03-.012l.012.002c.136.043.22.147.24.3.016.123-.07.264-.183.443-.19.305-.45.72-.41 1.333.03.525.196.953.46 1.2 0 0 .48.508 1.203.486l.06-.008c.01 0 .022.007.03.018.005.035-.055.062-.055.062-.856.336-1.508-.204-1.508-.204-.46-.374-.656-.994-.703-1.3-.065-.438.02-1.042.207-1.385-1.447.064-1.952-.956-1.952-.956s-.657 1.38-1.568 1.214c-.824-.15-.864-2.01-.864-2.01s-.298 1.35-1.053 1.253c-.793-.102-.667-1.978-.667-1.978-.33 1.8-1.085 1.606-1.085 1.606-.858-.224-.484-3.773-.484-3.773m.043 13.943c.17.47.565 1.745.53 3.068-.01.267-.022.527-.042.723 0 0 1.74-.345.752-4.297-.87-3.137-1.195-6.642-1.02-8.286 0 0 .163-1.415.21.037.028.795.597 8.414 2.218 10.8 0 0 .442-.393.017-3.105-.427-2.71-.7-3.572-.83-6.454v-.013c-.037-.314.094-1.945.27.014.112 1.212.464 6.394 1.66 8.1.195-.48.336-1.52.146-3.354-.227-2.196-.348-3.175-.348-3.175s-.19-2.242.195-.24c0 0 .294 1.61.468 3.066s.253 1.967.562 2.258c0 0 .358-.892.27-2.33-.11-1.82.64-3.268 1.807-3.384-.17.2-.285.502-.25.734.064.476.438.722 1.047.86.96.22 1.344.81 1.4.877.602.774.774 1.912.774 3.232 0 1.054-.216 1.917-.485 2.622 0 0 .108.85.868 1.29 0 0 .28-.1.55-.46.27-.458.35-1.042.178-2.35-.12.123-.283.325-.59.402.3-1.325-.427-3.78 1.108-4.358.202-.883.907-1.227 1.454-1.178.27.025.428.116.52.222 0 0 .362-.22.533-1.008.236-1.162-.73-1.344-.73-1.344.804-.898.356-2.104.356-2.104s-.553.08-.973-.28c-.423-.362-.114-.646-.114-.646.537.825 1.516.392 1.516.392 1.24-.633 1.72-2.144 2.033-4.55.038-.293.232-.36.49-.446l.017-.006c.25-.088.747-.284.913-.363.438-.22.657-.612.706-1.278 0 0 .068-.592-.125-1.69l.078.165.033.07c.41.85 1.062 1.64 1.46 1.46.37-.163.256-1.082 0-1.727l-.087-.262.136.244c.59 1.097 1.166 1.87 1.397 1.81.202-.053.117-.504 0-.81-.008-.018-.114-.325-.114-.325.004 0 .178.305.18.31.076.115.303.49.308.79.005.242-.145.345-.208.36-.31.084-.64-.136-1.174-.998.058.39.114.964-.224 1.127 0 0-.766.412-1.438-1.087.282 1.29-.078 1.87-.74 2.197-.203.103-.483.217-.756.32l-.02.008c-.086.033-.17.065-.247.096-.073 1.208-.312 2.306-.697 3.184 0 0 .64 1.112 1.343.893.67-.23.85-2.48.85-3.753 0 0 .018-.565.06.053.036.533.205 2.89.86 2.92.322.015.59-.803.59-2.518 0-.272-.033-.877-.033-.877s-.045-.654.033-.034c.077.62.367 3.1 1.178 2.98.58-.084.645-1.962.59-2.932 0 0-.003-.064.04.132 0 0 .373 3.332-.487 3.544 0 0-.756.18-1.087-1.51 0 0 .125 1.763-.67 1.858-.76.09-1.057-1.175-1.057-1.175s-.04 1.77-.868 1.91c-.915.155-1.607-1.037-1.607-1.037-.346.723-.89 1.015-.89 1.015.294 1.13-.204 1.773-.38 1.94-.175.165-.062-.055-.062-.055.286-.934-.03-1.6-.03-1.6-.143.095-.324.1-.324.1.268.943-.144 1.964-.144 1.964 1.297.846.48 2.622.48 2.622.75-.204 1.238-.818 1.123-1.708.43.616.656 1.415.592 2.473-.088 1.44.268 2.33.268 2.33.312-.29.38-.802.563-2.257.262-2.074.468-3.06.468-3.06 0-.01.005-.027.007-.036.402-1.808.19.27.19.27s-.188 1.374-.35 3.176c-.16 1.8-.047 2.874.146 3.354 1.196-1.706 1.546-6.887 1.657-8.1.174-1.902.285-.312.274-.03v.03c-.13 2.883-.4 3.744-.83 6.455-.423 2.71.017 3.105.017 3.105 1.622-2.387 2.19-10.005 2.217-10.8.05-1.45.214-.038.214-.038.174 1.646-.15 5.15-1.022 8.288-.987 3.95.756 4.3.756 4.3-.02-.194-.033-.454-.04-.72-.042-1.316.353-2.594.524-3.062.783-2.14 1.883-4.824 1.914-9.53.03-4.41-1.76-9.717-4.586-9.717-1.265 0-1.65.567-2.33 2.937-.18.625-.51 1.604-.87 2.484-.242.597-.384 1.21-.734 1.68-.59.79-1.02.945-1.386.953-.318.005-.48-.203-.526-.4.208-.01.852-.096.938-.76-.698.195-1.4-.014-1.83-.586-.448-.596-.448-1.13-.424-1.668.03-.712.417-1.275.737-1.602 0 0 .06-.06.152-.14-.256-.083-.57-.163-.858-.178.076.073.11.193.094.34-.033.263-.208.385-.362.385-.2 0-.33-.147-.32-.383 0-.148.055-.268.165-.34-.053 0-.103.006-.15.006-.252.048-.363.22-.346.433.02.208.156.323.303.367-.312.046-.54-.092-.568-.323-.016-.116 0-.255.127-.355-.267.092-.484.213-.682.32.252-.41.774-.706 1.412-.745.422-.015.94.138 1.263.407.178-.15.426-.337.636-.408.02-.36-.456-.564-.84-.408-.152-.22-.45-.35-.784-.385-.64-.058-1.265.167-1.726.464-.433.28-.893.51-1.443.507-.375-.002-.557-.076-.896-.246-.028-.013-.14.76.248 1.208.482.612 1.25.43 1.25.43-.135.527-.685.776-1.092.807-.353.025-.716-.118-.848-.34-.03.305.022 1.27.952 1.495 0 0-.457.723-.625 1.694 0 0 .2.297.594.23-.235.23-.508.138-.508.138-.218-.06-.418-.27-.513-.42-.225-.35-.324-.902-.584-1.953 0 0-.646-2.182-.88-3.636-.27-1.726-.815-2.052-1.787-2.078-1.518-.038-2.783 1.17-3.625 3.035-.015.032-.028.064-.042.097-1.044 2.367-1.65 5.176-1.598 8.114.08 4.514 1.088 6.598 1.872 8.736M49 14.466c-.02-.58.416-1.013.95-1.013.044 0 .096.002.147.01-.038.04-.062.093-.062.152 0 .12.096.218.216.218.084 0 .153-.05.19-.115l-.002.017c.02.434.252.87.595 1.274-.133.33-.35.457-.636.47-.34.023-1.332-.09-1.397-1.014m2.174-1.257c.25 0 .502.155.765.155.148 0 .43-.046.562-.28 0 0 .004 0 .005.002.48 1.188 0 1.77 0 1.77-.21.282-.443.377-.658.377-.323 0-.688-.323-.924-.763-.17-.323-.203-.503-.203-.784 0-.274.167-.477.45-.477m4.625 2.95l-.188.265c-.863-.36-1.822-.527-2.792-.527-.968 0-1.93.167-2.794.527l-.188-.264c.92-.37 2.072-.55 2.975-.55.902 0 2.067.18 2.988.55m-2.685-3.072l.004-.002c.134.233.417.28.563.28.265 0 .517-.156.768-.156.282 0 .45.203.45.478 0 .28-.035.46-.203.785-.236.44-.602.763-.922.763-.214 0-.447-.095-.66-.376 0 0-.48-.585 0-1.772m2.068.647v-.02c.037.07.107.118.19.118.12 0 .217-.098.217-.218 0-.06-.024-.112-.062-.15.05-.01.103-.012.147-.012.533 0 .97.432.95 1.013-.067.922-1.06 1.037-1.4 1.014-.283-.013-.502-.14-.636-.47.343-.405.578-.84.595-1.275m-4.953 3.374s1.146-.48 2.584-.48c1.437 0 2.584.48 2.584.48l.786-1.072c.406-.477.794-.99.794-1.572 0-.64-.594-1.12-1.27-1.12-.147 0-.28.02-.38.056-.015.004-.025.008-.036.014h-.004c-.054.022-.09.06-.108.106l-.008.016c-.062-.366-.345-.573-.663-.573-.346 0-.55.187-.923.187-.023 0-.23-.01-.41-.12.067-.077.105-.176.105-.29 0-.25-.196-.447-.465-.447-.27 0-.467.198-.467.448 0 .112.04.21.104.288-.18.112-.385.122-.41.122-.372 0-.578-.187-.922-.187-.318 0-.6.206-.663.57l-.01-.018c-.02-.043-.053-.078-.104-.1l-.005-.004-.034-.012c-.1-.033-.233-.055-.382-.055-.675 0-1.27.48-1.27 1.12 0 .582.39 1.095.796 1.572l.783 1.072zm6.475 2.073c.132-.494-.273-.86-.78-.87-.993-.022-2.163.966-2.223 2.064 1.65.005 1.872-1.3 2.485-1.36.228-.027.43.05.517.166m-1.57 21.79c-.12-.168-.272-.243-.456-.272l.106.515s.338 1.788-.155.216l-.263-.734-.057.003c-.24.03-.506.12-.87.206l.03.753s.055 2.283-.236.235l-.163-.915c-.33.058-.72.103-1.215.103-.21 0-.42-.012-.624-.028l-.153.84c-.29 2.048-.236-.236-.236-.236l.023-.642c-.292-.036-.573-.082-.833-.13l-.038-.007-.2.55c-.49 1.573-.152-.215-.152-.215l.08-.39c-.17-.035-.334-.07-.477-.102.122-.182.264-.412.48-.392.07.007.156.016.25.03.492.068 1.262.217 1.923.217 1.146 0 1.843-.36 2.75-.435.415-.034.68.16.91.52-.095.256-.252.273-.425.31m-13.42.21s-.072 0-.172-.007c-.073-.005-.123-.015-.21-.032l.364-.21c1.62 0 2.36-1.427 4.054-1.352.022.112.108.193.252.285-2.204.26-2.83 1.262-4.287 1.316m16.695-.934c.145-.033.274-.048.274-.048.932.13 1.17.43 2.566.43.757 0 1.532-.193 2.386-.69.3-.172.49-.266.853-.2.317.055.533.174 1 .52l.04-.137c-.054-.097-.66-.75-1.178-.668.567-.43 1.05-1.025 1.122-1.586.083-.67-.264-1.39-1.335-1.376-.178 0-.41.054-.567.165.508.124.133.643.35 1.145.158.388.608.534.55.906-.032.223-.145.365-.332.528-.73.627-1.843 1.086-2.893 1.086-1.03 0-1.674-.17-2.4-.398.2-.265.07-.773-.402-.797.05-.765-.687-.637-.687-.637-.19.01-.412.064-.695.124-.247.05-.467.11-.932.112-.208.003-.307-.124-.376-.338-.13-.396-.202-1.475-.235-2.03-.012.303-.034.623-.116.855 0 0 .043.652.103 1.202.078.518.28.63.735.63.26 0 .617-.09.88-.146.213-.052.455-.126.672-.126.285 0 .376.152.358.314-.01.058-.06.134-.11.17.336.007.56.22.585.374.042.27-.12.465-.492.432.018-.188-.094-.46-.34-.64-.153-.125-.623-.277-1.243-.218l-.02.08c.224.013.665.096.947.21.22.084.398.286.417.507.02.29-.18.632-.473.78-.017-.023-.034-.054-.034-.106 0-.148.115-.256.17-.352-.147-.076-.353-.19-.328-.454-.76.088-.966-.293-1.09-.487l-.12.058c.176.276.388.496.42.597.03.086.038.26-.187.31.116.02.123.126.11.236-.015.272-.19.5-.466.614-.162.064-.45.08-.686-.04.307-.056.454-.15.575-.32.103-.155-.036-.32.14-.362-.345.007-.45-.273-.434-.486-.103-.25-.177-.357-.238-.478l-.12.052.12.347c-.264-.044-.52-.058-.793-.025-.245.033-.567.1-.734.143-.137.025-.235-.104-.235-.104.05.132-.078.167-.162.19-.104.035-.454.13-.587.153-.018-.227.103-.477.35-.603 0 0 .166-.107.446-.153.273-.05.577.004.88-.017.41-.038.58-.336.57-.948-.008-.43-.197-.96-.03-1.293-.314-.11-.41-1.087-.41-1.087-.184 1.245-.827 1.76-.827 1.76-.236-.206-.292-.784-.292-.784.025 1.69-1.078 2.113-1.078 2.113-.832-.325-1.114-1.272-1.114-1.272-.095.157-.23.27-.23.27-.535-.763-.634-1.835-.654-2.122-.004-.048-.013-.08-.01 0 .04 1.415-.306 1.768-.306 1.768-.24-.216-.384-.438-.467-.596 0 0-.008.015-.024.03.094.28 0 1.675 0 1.675 0 .334.033.527.298.527.177 0 .26-.072.55-.037.13.016.35.064.516.25 0 0 .183-.023.41.053.232.078.31.3.33.546-.18 0-.56-.052-.69-.083-.054-.01-.237-.077-.225-.28-.042.134-.07.192-.237.176-.206-.017-.517-.177-.72-.192-.223-.02-.4.03-.598.245-.18.184-.34.363-.57.363-.085 0-.15-.024-.202-.058 0 0-.14-.087-.164.07v.003c-.14.093-.247.27-.24.46-.2-.07-.37-.212-.37-.426 0-.23.126-.374.22-.374.04-.165.238-.254.238-.254.14-.078.484-.07.664-.07.132 0 .363-.217.297-.26-.012-.01-.062-.04-.117-.034-.062.007-.132.085-.2.134-.077-.006-.186-.018-.24-.018-.504 0-.7.27-1.006.248-.135-.01-.24-.07-.305-.224-.09-.012-.183.064-.183.064-.154.12-.192.33-.176.585-.214-.084-.384-.332-.384-.57 0-.16.03-.43.367-.47 0 0 .272-.018.333.12.005-.124.146-.118.206-.118.306.007.51.002 1.204.053l-.02-.122c-.534-.08-.986-.128-1.455-.116 0 0-.095-.004-.095.105 0 0-.006-.08-.108-.1-.33-.078-.627.125-.627.493-.143-.015-.28-.168-.295-.328-.038-.267.056-.504.34-.607.38-.142.623.162.623.162 0-.048.046-.2.252-.22.248-.027.77.373 1.383.407.322.015.518-.173.518-.5 0-.28-.1-1.164.014-1.342-.217-.18-.256-1.417-.256-1.417-.034.214-.093.523-.137.68l.12 1.44c.006.183.102.85-.305.85-.185 0-.464-.112-.648-.187-.267-.11-.484-.25-.76-.197-.124.024-.22.12-.234.256-.07-.102-.23-.154-.34-.154-.49-.015-.804.265-.83.706-1.578-.187-2.61 1.444-3.874 1.444 0 0-.935.095-1.605-.43 0 0 .634-.363.66-1.144 0-.65-.49-.84-.49-1.222 0-.27.04-.416.216-.643-1.092.416-1.628 1.008-1.628 1.844 0 1.108 1.105 1.803 2.285 2.11-.083.05-.34.214-.437.277-.212-.048-.568-.098-.942-.022-1.095.222-.975 1.46-1.73 2.012.324-.04.66.014.956.014 1.28 0 1.697-.678 1.918-1.627.155-.144.343-.307.55-.407.617.075 1.418-.078 2.16-.48-.07.104-.103.308-.092.438-1.65.874-.844 2.324-1.825 3.078.307 0 .662-.025 1.06-.086 1.223-.178 1.832-.966 1.746-1.892-.06-.66-.564-.855-.51-1.324.082-.587.85-.773 1.377-.773.712 0 1.787.578 2.517.82 0 0-.848 1.596-.333 2.826 0 0 .92-.115 1.443-.958 0 0-.18 1.083.4 1.875 0 0 .993-.24 1.322-1.69 0 0 0 1.626 1.385 2.507 0 0 1.287-.834 1.26-2.48 0 0 .455 1.104 1.442 1.356 0 0 .464-.562.21-2.013 0 0 .466.86 1.513 1.2 0 0 .534-.88-.31-2.623.31-.09.928-.234 1.43-.223.26.133.45.384.417.648-.02.153-.15.29-.17.594-.075.96.72 1.377 1.765 1.294.563-.043 1.053-.233 1.54-.578-.48.065-.815.003-1.092-.274-.114-.124-.322-.382-.565-.697-.2-.235-.505-.408-.94-.473-.082-.1-.23-.28-.334-.43.82.254 1.863.367 2.557.353.41-.01.66.092.832.344.418.628.89 1.35 2.2 1.354.557 0 1.052-.328 1.157-.817.08-.375.04-.683-.12-.964-.137.294-.53.578-.998.504-.612-.09-.892-.61-1.592-.57-.145.006-.53.082-.77-.008 1.26-.265 1.76-.82 2.53-.873.356-.033.855.097 1.176.287l.04-.137c-.36-.358-.852-.5-1.42-.41-.622.092-1.74.928-3.18.844-1.614-.094-1.92-.475-2.743-.54.026-.05.066-.14.07-.19 0-.002.14.01.282-.024m-3.088-20.123c-.55.477-1.258.52-1.628.507-.013.16-.01.428.062.643.765-.002 1.547-.304 2.023-1.093.128-.215.244-.578.273-.87-.214.166-.526.63-.73.813M51.024 37.62c.275-.592.49-1.424.49-2.548 0-2.445-.654-3.57-2.008-4-1.012-.302-1.07.37-1.07.37-.09.3.093.672.093.672-.178-.022-.34-.372-.39-.666l-.02-.14c-.088-.78.308-1.51.308-1.51-.383.265-.586.624-.677 1.092-.233 1.202-.11 2.77-.11 2.77 0 1.29.397 2.71-.13 4.23 0 0 1.218-.543 1.16-4.13 0 0 .437 2.208 1.235 3.487 0 0 .388-1.363-.042-4.23 0 0 .42.743.64 2.238.217 1.495.383 2.08.522 2.365m2.77-.413c.722-1.285.7-3.174.756-3.67.014-.116.042-.03.048.572.008.758.18 1.82.49 2.49.39-.372.593-1.644.605-3.204 0-.133.07.274.11.54 0 0 .252 2.84 1.946 3.473-.515-1.043-.67-2.2-.755-3.306l-.04-.587c-.098-1.25-.373-2.32-.988-2.243-.192.023-.378.173-.437.452-.048-.252-.233-.47-.583-.504-.56-.05-1.288.54-1.115 1.805-.215-.033-.283-.312-.277-.568-.984.453-.633 2.36-.74 3.36.482-.104.72-1.602.77-1.84.03-.144.035-.04-.01.553-.077.99-.076 1.896.22 2.674"/></svg>