<svg xmlns="http://www.w3.org/2000/svg" width="340.921" height="258.558" viewBox="130.459 328.588 340.921 258.558"><linearGradient id="a" gradientUnits="userSpaceOnUse" x1="339.725" y1="338.601" x2="598.323" y2="338.601" gradientTransform="matrix(1.3178 0 0 -1.3178 -317.107 904.085)"><stop offset="0" stop-color="#9D0E1C"/><stop offset=".108" stop-color="#B00C21"/><stop offset=".24" stop-color="#C30A26"/><stop offset=".358" stop-color="#CE0829"/><stop offset=".448" stop-color="#D3072A"/><stop offset=".596" stop-color="#D00829"/><stop offset=".714" stop-color="#C90927"/><stop offset=".823" stop-color="#BE0B25"/><stop offset=".925" stop-color="#AD0D20"/><stop offset="1" stop-color="#9D0E1C"/></linearGradient><path fill="url(#a)" d="M300.854 489.1c33.738 14.89 105.822 45.99 140.085 66.418 11.07 6.59 24.907 16.604 30.44 31.496V522.44c-6.193-16.078-30.178-30.706-68.79-49.946-33.34-16.604-66.946-30.705-101.473-45.86-33.736-14.892-105.82-45.992-140.085-66.418-11.07-6.59-24.907-16.605-30.44-31.497v64.573c6.192 16.077 30.177 30.705 68.79 49.945 33.472 16.605 66.946 30.706 101.472 45.86z"/><linearGradient id="b" gradientUnits="userSpaceOnUse" x1="339.625" y1="360.45" x2="598.225" y2="360.45" gradientTransform="matrix(1.3178 0 0 -1.3178 -317.107 904.085)"><stop offset="0" stop-color="#CA0928"/><stop offset=".5" stop-color="#C10B25"/><stop offset="1" stop-color="#CA0928"/></linearGradient><path fill="url(#b)" d="M402.46 472.362c-33.343-16.604-66.946-30.705-101.473-45.86C267.25 411.61 195.165 380.51 160.9 360.084c-11.068-6.59-24.906-16.605-30.44-31.496v7.774c4.48 9.488 11.992 18.714 26.225 27.28 34 20.558 106.35 51.526 140.085 66.418 34.395 15.155 68 29.256 101.473 45.86 24.117 11.597 43.094 22.666 52.582 29.388 10.41 7.38 16.473 13.573 20.426 24.248v-7.38c-6.062-15.946-30.178-30.573-68.79-49.814z"/><linearGradient id="c" gradientUnits="userSpaceOnUse" x1="339.625" y1="316.801" x2="598.225" y2="316.801" gradientTransform="matrix(1.3178 0 0 -1.3178 -317.107 904.085)"><stop offset="0" stop-color="#CA0928"/><stop offset=".5" stop-color="#C10B25"/><stop offset="1" stop-color="#CA0928"/></linearGradient><path fill="url(#c)" d="M445.025 551.828c-34-20.56-106.35-51.527-140.085-66.42-34.396-15.154-68.527-29.782-101.342-45.728-23.853-11.73-45.992-24.248-54.03-30.31-8.566-6.458-14.76-12.125-19.108-23.326v7.38c6.193 16.077 30.178 30.705 68.79 49.945 33.342 16.603 66.946 30.704 101.474 45.86 33.736 14.89 105.822 45.99 140.085 66.418 11.067 6.59 24.905 16.604 30.44 31.496v-8.04c-4.35-9.486-11.992-18.58-26.225-27.276z"/><path fill="#D73138" d="M469.668 579.37c.527 0 1.186 0 1.45.264l-.396-.66s-.264-.13-.658-.13c-.527 0-1.188-.132-1.318-.264l.395.658s.264.132.528.132zM468.746 577.657c.527 0 1.186-.132 1.45.132l-.396-.66c-.133 0-.264-.132-.66-.132-.527 0-1.186 0-1.316-.132l.395.66c.13 0 .262.13.526.13zM467.824 575.944c.527 0 1.186-.132 1.45.132l-.397-.66c-.13 0-.264-.13-.658 0-.528 0-1.187 0-1.32-.13l.397.526c.13.132.264.132.527.132zM466.9 574.362c.527 0 1.188-.132 1.45 0l-.526-.658s-.264-.132-.66 0c-.527.13-1.186 0-1.318-.132l.396.526c.13.264.395.264.658.264zM465.848 572.65c.525 0 1.186-.133 1.45 0l-.397-.66s-.263-.132-.657 0c-.527.132-1.186.132-1.318 0l.396.527c0 .132.264.264.528.132zM464.793 571.2c.527 0 1.186-.264 1.45 0l-.528-.66c-.13 0-.264-.13-.658 0-.527.133-1.188.133-1.318 0l.394.528c.132.132.395.132.66.132zM463.605 569.618c.527-.132 1.188-.264 1.45-.132l-.526-.658c-.134 0-.265-.132-.66 0-.528.132-1.187.132-1.317 0l.527.526c0 .264.264.264.525.264zM462.42 568.17c.527-.133 1.186-.265 1.45-.133l-.528-.527c-.13 0-.262-.132-.658 0-.527.132-1.186.264-1.318.132l.527.527h.527zM461.102 566.72c.527-.133 1.188-.396 1.45-.133l-.526-.526c-.133 0-.264 0-.66.133-.527.132-1.186.264-1.316.132l.527.526c0-.13.263-.13.525-.13zM459.785 565.27c.527-.132 1.186-.396 1.45-.264l-.528-.527s-.264 0-.658.13c-.528.133-1.19.265-1.32.133l.528.527c0 .13.263.13.527 0zM458.467 563.952c.527-.132 1.186-.527 1.45-.264l-.528-.527c-.132 0-.265 0-.66.133-.526.264-1.185.396-1.317.264l.527.396c0 .13.263.13.527 0zM457.018 562.634c.527-.132 1.186-.527 1.45-.264l-.66-.527s-.263 0-.66.132c-.526.264-1.054.396-1.315.264l.525.395c.263.13.396.13.66 0zM455.7 561.316c.526-.132 1.054-.527 1.317-.396l-.527-.527c-.133 0-.264 0-.658.132-.527.264-1.055.396-1.318.264l.527.395c.132.263.396.263.66.13zM454.25 560.13c.527-.132 1.055-.527 1.318-.396l-.66-.396c-.13 0-.264 0-.658.133-.527.264-1.055.396-1.318.264l.527.396c.263.132.526.132.79 0zM452.668 558.944c.527-.132 1.055-.527 1.318-.396 0 0-.658-.396-.658-.527-.133 0-.264 0-.66.133-.527.264-1.055.527-1.316.396l.525.395c.396.13.527.13.79 0zM451.22 557.89c.526-.264 1.054-.66 1.317-.527l-.66-.395c-.13 0-.264 0-.658.263-.528.265-1.056.528-1.187.397l.527.396c.13-.002.395-.133.66-.133zM449.637 556.704c.527-.264 1.055-.66 1.318-.527l-.658-.396c-.133 0-.264 0-.527.265-.527.264-1.055.527-1.186.396l.525.396s.263 0 .527-.132zM448.057 555.65c.527-.265 1.055-.66 1.316-.528l-.658-.396c-.13 0-.264 0-.658.264-.527.264-1.055.527-1.188.396l.66.396s.263 0 .527-.133zM446.475 554.595c.527-.264 1.055-.658 1.318-.526l-.66-.397c-.13 0-.264 0-.527.264-.525.396-1.053.527-1.186.527l.66.395c-.133-.133.13-.133.395-.265zM444.893 553.54c.527-.263 1.055-.658 1.318-.526l-.657-.396s-.264 0-.527.264c-.527.396-1.055.527-1.186.527l.658.263c-.133.132.13 0 .395-.132zM443.18 552.618c.527-.264 1.055-.658 1.318-.658l-.658-.396c-.133 0-.264 0-.527.264-.396.395-1.055.526-1.188.526l.66.396s.13 0 .395-.132zM441.6 551.564c.525-.264 1.053-.66 1.316-.66l-.658-.395s-.264 0-.527.263c-.394.396-1.054.527-1.185.527l.658.396c-.13.132.133 0 .397-.132zM439.885 550.642c.527-.264.924-.66 1.318-.66l-.658-.395c-.133 0-.264 0-.527.264-.396.397-1.055.66-1.186.528l.658.396s.13 0 .395-.132zM438.305 549.72c.527-.264.922-.66 1.316-.66l-.657-.263s-.264 0-.527.264c-.395.397-1.055.66-1.186.527l.658.264c-.13 0 .133 0 .397-.13zM436.592 548.797c.525-.264.922-.66 1.316-.66l-.658-.263c-.133 0-.264 0-.527.264-.395.396-1.055.66-1.186.527l.658.264c-.13 0 .133 0 .397-.133zM434.877 547.874c.527-.264.924-.79 1.318-.66l-.658-.262c-.133 0-.264 0-.527.263-.396.396-1.055.66-1.186.527l.658.264s.13 0 .395-.132zM433.164 546.952c.527-.264.924-.79 1.318-.66l-.658-.263c-.133 0-.264 0-.527.263-.396.396-1.055.66-1.188.527l.66.264s.263 0 .394-.132zM431.584 546.03c.527-.265.922-.792 1.316-.66l-.658-.264s-.264 0-.527.264c-.395.396-1.055.66-1.186.527l.657.264c-.13 0 .133 0 .397-.13zM429.87 545.106c.526-.264.923-.79 1.317-.658l-.658-.264c-.134 0-.265 0-.528.264-.396.395-1.055.658-1.186.526l.658.264c-.13 0 .133 0 .395-.132zM428.156 544.185c.527-.264.924-.79 1.318-.66l-.658-.263c-.133 0-.264 0-.527.264-.397.396-1.056.66-1.19.527l.66.264c.002 0 .133 0 .396-.132zM426.443 543.262c.527-.264.922-.79 1.318-.66l-.657-.263c-.133 0-.264 0-.527.263-.396.396-1.055.66-1.188.527l.66.264c0 .13.265 0 .395-.132zM424.73 542.34c.527-.264.922-.79 1.186-.66l-.658-.263c-.133 0-.264 0-.527.264-.394.397-1.054.66-1.185.528l.658.263c.133.133.397 0 .527-.13zM423.148 541.55c.527-.265.924-.792 1.188-.66l-.66-.264c-.13 0-.264 0-.527.264-.396.396-1.054.66-1.187.527l.658.264s.265 0 .528-.13zM421.436 540.626c.527-.264.922-.79 1.318-.66l-.658-.262c-.133 0-.264 0-.527.263-.397.396-1.056.66-1.19.527l.66.264c-.132.132.132 0 .396-.132zM419.723 539.704c.527-.264.922-.79 1.186-.66l-.66-.263c-.13 0-.263 0-.526.265-.395.396-1.055.66-1.186.527l.658.263c0 .132.263 0 .527-.13zM418.01 538.913c.527-.264.922-.79 1.186-.66l-.658-.263c-.133 0-.264 0-.527.264-.395.396-1.054.66-1.185.527l.658.265s.263 0 .527-.132zM416.297 537.99c.527-.264.922-.79 1.186-.66l-.658-.262c-.133 0-.264 0-.527.263-.396.397-1.055.66-1.188.528l.66.264c0 .132.263 0 .527-.132zM414.584 537.2c.527-.264.922-.79 1.316-.66l-.658-.263c-.13 0-.264 0-.527.264-.395.397-.922.66-1.186.528l.657.264c-.13 0 .133 0 .397-.132zM412.87 536.277c.526-.264.923-.79 1.187-.66l-.66-.263c-.13 0-.264 0-.527.264-.395.396-1.053.66-1.186.527l.66.264c0 .13.263 0 .525-.133zM411.156 535.486c.527-.264.924-.79 1.188-.658l-.66-.264s-.264 0-.527.264c-.395.395-.922.658-1.186.658l.66.264c0-.132.263-.132.526-.264zM409.443 534.564c.527-.264.922-.79 1.186-.66l-.66-.263c-.13 0-.263 0-.526.265-.395.396-.922.66-1.186.527l.658.264c0 .132.264 0 .527-.132zM407.73 533.773c.527-.264.922-.79 1.186-.79l-.658-.265c-.133 0-.264 0-.527.264-.394.396-1.054.66-1.185.66l.658.263s.264 0 .527-.132zM406.018 532.85c.527-.263.922-.79 1.186-.657l-.658-.264c-.133 0-.264 0-.527.263-.397.395-1.056.658-1.187.658l.658.265s.264 0 .528-.264zM404.305 532.06c.527-.263.922-.79 1.186-.658l-.657-.264c-.133 0-.264 0-.527.264-.396.396-.924.66-1.188.66l.66.263s.263-.133.527-.264zM402.592 531.27c.525-.264.922-.79 1.186-.66l-.66-.263c-.13 0-.262 0-.525.264-.396.397-1.055.66-1.188.528l.66.264s.263 0 .527-.132zM400.877 530.347c.527-.264.924-.79 1.188-.658 0 0-.66-.265-.79-.265 0 0-.265 0-.528.264-.396.394-.922.657-1.186.657l.66.264c.13 0 .393-.13.657-.263zM399.033 529.557c.527-.264.922-.79 1.186-.79l-.66-.265c-.132 0-.263 0-.526.264-.396.396-.924.66-1.188.66l.66.263c.13.13.394-.002.527-.133zM397.32 528.766c.527-.264.922-.79 1.186-.66l-.658-.263c-.133 0-.264 0-.527.264-.395.396-.923.66-1.187.66l.66.263c.13 0 .395-.133.527-.264zM395.605 527.975c.527-.263.924-.79 1.188-.79l-.66-.264c-.13 0-.264.133-.527.265-.395.396-.922.658-1.186.658l.66.264c.13 0 .395 0 .525-.132zM393.893 527.053c.527-.264.924-.79 1.188-.79l-.66-.265s-.263 0-.526.264c-.395.396-.922.66-1.186.66l.658.263c.132.13.263 0 .527-.132zM392.18 526.262c.527-.264.922-.79 1.186-.79l-.658-.264c-.13 0-.264 0-.527.263-.394.397-.92.66-1.185.66l.658.264c.132.13.263 0 .527-.132zM390.467 525.47c.527-.262.922-.79 1.186-.79l-.658-.263c-.133 0-.264 0-.527.264-.395.397-.922.66-1.186.66l.658.263c.132.13.263 0 .527-.132zM388.754 524.68c.527-.263.922-.79 1.186-.79l-.658-.264c-.133 0-.264 0-.527.264-.396.396-.922.66-1.186.66l.657.263c0 .13.263 0 .527-.132zM387.04 523.89c.396-.264.923-.79 1.187-.79l-.658-.265c-.134 0-.265 0-.528.264-.396.395-.924.658-1.188.658l.66.264s.263 0 .527-.132zM385.195 522.967c.527-.263.922-.79 1.186-.658l-.657-.265c-.13 0-.264 0-.527.264-.395.395-.922.657-1.186.657l.658.264c.133 0 .396 0 .527-.263zM383.482 522.177c.527-.264.922-.79 1.186-.79l-.658-.265s-.264 0-.527.264c-.395.396-.922.66-1.186.66l.658.263c.133.13.264 0 .527-.133zM381.77 521.386c.527-.264.922-.79 1.186-.79l-.658-.265c-.133 0-.264 0-.527.265-.395.396-.92.66-1.185.66l.658.263c.13.13.263 0 .527-.132zM380.057 520.595c.527-.264.922-.79 1.186-.79l-.658-.264s-.264 0-.527.397c-.396.395-.924.658-1.188.658l.66.264c.13-.002.263-.133.527-.265zM378.344 519.805c.525-.264.922-.79 1.186-.66l-.66-.263s-.262 0-.525.264c-.396.396-.924.66-1.188.66l.66.263c0-.002.263-.133.527-.265zM376.498 519.014c.527-.264.922-.79 1.186-.79l-.658-.264c-.133 0-.264 0-.527.263-.397.396-.923.66-1.187.66l.658.263c.132.13.395 0 .528-.132zM374.785 518.223c.527-.263.922-.79 1.186-.79l-.657-.264s-.264 0-.527.263c-.396.395-.924.658-1.188.658l.66.265c.13.13.263 0 .527-.132zM373.072 517.433c.527-.264.922-.79 1.186-.79l-.658-.265c-.133 0-.264 0-.527.264-.396.396-.924.66-1.188.66l.66.263c.13.13.264 0 .527-.132zM371.357 516.642c.527-.264.924-.79 1.188-.79l-.66-.265c-.13 0-.264 0-.527.396-.395.396-.922.66-1.186.66l.66.263c.13 0 .264-.133.525-.264zM369.645 515.85c.527-.263.924-.79 1.188-.79l-.66-.263s-.264 0-.527.264c-.395.397-.922.66-1.186.66l.658.263s.263 0 .527-.132zM367.8 515.06c.528-.263.923-.79 1.187-.79l-.658-.264c-.134 0-.265 0-.528.264-.396.396-.924.66-1.188.66l.66.263c.13 0 .394 0 .527-.132zM366.088 514.27c.395-.264.922-.79 1.186-.79l-.66-.265s-.262 0-.525.396c-.397.397-.925.66-1.19.66l.66.264c.13-.133.264-.133.528-.264zM364.373 513.48c.527-.265.924-.79 1.188-.79l-.66-.265s-.263 0-.526.396c-.395.396-.922.66-1.186.66l.66.263c.13 0 .26-.133.525-.264zM362.66 512.688c.396-.264.924-.79 1.188-.79l-.66-.265c-.13 0-.264 0-.527.264-.394.396-.92.66-1.185.66l.658.263c0 .132.263 0 .527-.132zM360.816 511.897c.527-.264.922-.79 1.186-.79l-.658-.265s-.264 0-.527.396c-.396.396-.924.66-1.188.66l.66.263c.13-.13.394-.13.526-.263zM359.104 511.106c.395-.264.922-.79 1.186-.79l-.66-.264c-.13 0-.262 0-.525.264-.396.395-.924.658-1.188.658l.66.264c.13 0 .394 0 .527-.132zM357.39 510.316c.395-.264.923-.79 1.187-.79l-.66-.265c-.13 0-.264 0-.527.397-.395.396-.922.66-1.186.66l.658.262c.132 0 .263-.132.527-.264zM355.676 509.525c.396-.264.922-.79 1.186-.79l-.658-.265s-.264 0-.527.264c-.395.396-.922.66-1.186.66l.66.263c-.002.132.262 0 .526-.132zM353.832 508.734c.395-.264.922-.79 1.186-.79l-.658-.264s-.264 0-.527.396c-.396.395-.924.658-1.188.658l.66.264c.13 0 .394-.132.527-.264zM352.117 507.944c.396-.264.924-.79 1.188-.79l-.66-.265s-.264 0-.527.263c-.395.396-.922.66-1.186.66l.66.263c.13.132.394 0 .525-.132zM350.404 507.153c.396-.264.924-.79 1.188-.79l-.66-.265c-.13 0-.264 0-.527.396-.395.396-.922.66-1.186.66l.657.263c.133 0 .264-.132.527-.264zM348.69 506.362c.528-.264.923-.79 1.187-.79l-.658-.264c-.132 0-.265.132-.528.396-.395.395-.922.658-1.186.658l.658.264.527-.264zM346.848 505.572c.525-.264.922-.79 1.186-.79l-.66-.265c-.13 0-.262 0-.525.396-.397.396-.925.66-1.19.66l.66.262c.13 0 .395-.13.528-.263zM345.133 504.78c.396-.263.924-.79 1.188-.79 0 0-.66-.264-.79-.264 0 0-.264 0-.527.264-.396.396-.922.66-1.186.66l.658.263c.263.132.394.132.658-.132zM343.42 504.122c.527-.264.924-.79 1.188-.79l-.66-.264c-.13 0-.264 0-.527.264-.394.395-.92.658-1.185.658l.658.264c.132 0 .263 0 .527-.132zM341.707 503.332c.527-.264.922-.79 1.186-.79l-.658-.265s-.264 0-.527.396c-.395.396-.922.658-1.186.658l.658.265c0-.13.263-.13.527-.263zM339.86 502.54c.528-.263.925-.79 1.19-.79l-.66-.264c-.132 0-.265 0-.528.264-.395.396-.922.66-1.186.66l.66.263c.13.132.394 0 .525-.132zM338.148 501.75c.527-.264.924-.79 1.188-.79l-.66-.264c-.13 0-.264 0-.527.264-.396.395-.923.658-1.187.658l.658.264c.134.132.265 0 .528-.132zM336.436 500.96c.396-.264.922-.79 1.186-.79l-.658-.265s-.264 0-.527.396c-.395.397-.922.66-1.186.66l.66.263.526-.263zM334.592 500.17c.395-.265.922-.792 1.186-.792l-.66-.264c-.13 0-.262 0-.525.264-.396.396-.924.66-1.188.66l.66.263c.13.133.394 0 .527-.13zM332.877 499.378c.527-.396.924-.79 1.188-.79l-.66-.264s-.264 0-.527.395c-.395.395-.922.658-1.186.658l.66.264c.13 0 .394-.132.525-.264zM331.164 498.587c.396-.263.924-.79 1.188-.79l-.66-.264c-.13 0-.264.132-.527.264-.395.396-.922.66-1.186.66l.657.262c.133.13.263.13.527-.133zM329.45 497.93c.397-.265.923-.792 1.187-.792l-.658-.264c-.132 0-.265 0-.528.396-.395.396-.922.66-1.186.66l.658.263c0-.132.264-.132.527-.264zM327.607 497.138c.395-.264.922-.79 1.186-.79l-.66-.265s-.262 0-.525.264c-.396.396-.924.66-1.188.66l.66.263c.13.13.395 0 .527-.132zM325.893 496.347c.396-.264.924-.79 1.188-.79l-.66-.264c-.13 0-.263 0-.526.264-.395.396-.922.66-1.186.66l.658.262c.132.13.263 0 .527-.133zM324.18 495.557c.396-.396.924-.79 1.188-.79l-.66-.265c-.13 0-.264 0-.527.396-.394.396-.92.66-1.185.66l.658.263.527-.263zM322.336 494.766c.527-.264.922-.79 1.186-.79 0 0-.658-.264-.79-.264s-.265 0-.528.395c-.395.396-.922.66-1.186.66l.658.263c.263 0 .527-.133.66-.264zM320.62 494.106c.528-.264.925-.79 1.19-.79l-.66-.264c-.132 0-.265 0-.528.396-.395.395-.922.658-1.186.658l.66.264c.13-.132.263-.132.525-.264zM318.908 493.316c.396-.264.924-.79 1.188-.79l-.79-.265c-.134 0-.265 0-.528.397-.396.396-.922.66-1.186.66l.658.262c.264-.132.395-.132.658-.264zM317.064 492.525c.527-.264.922-.79 1.186-.79 0 0-.658-.265-.79-.265 0 0-.265 0-.528.396-.395.396-.922.66-1.186.66l.658.263c.264 0 .528-.133.66-.265zM315.35 491.734c.527-.264.924-.79 1.188-.79l-.66-.264c-.13 0-.264 0-.527.396-.394.395-.92.658-1.185.658l.66.264c.13 0 .263-.132.525-.264zM313.637 490.944c.527-.264.924-.79 1.188-.79l-.66-.265c-.13 0-.264 0-.527.395-.395.396-.922.66-1.186.66l.658.263c.132 0 .263-.132.527-.264zM311.924 490.153c.527-.264.922-.79 1.186-.79l-.79-.265c-.132 0-.263 0-.526.396-.396.396-.924.66-1.188.66l.66.263c.13 0 .394-.132.658-.264zM310.08 489.362c.525-.264.922-.79 1.186-.79l-.66-.264c-.13 0-.262 0-.525.264-.395.395-.923.658-1.187.658l.66.264c.13.132.394.132.527-.132zM308.365 488.704c.527-.264.924-.79 1.188-.79l-.66-.265c-.13 0-.264 0-.527.395-.395.396-.922.66-1.186.66l.66.262c.13-.132.262-.132.525-.263zM306.652 487.913c.527-.264.924-.79 1.188-.79l-.66-.265c-.13 0-.264 0-.527.396-.395.396-.92.66-1.185.66l.658.263.526-.264zM304.808 487.122c.396-.264.923-.79 1.187-.79l-.66-.264c-.13 0-.263 0-.526.264-.397.395-.924.658-1.188.658l.66.264c.13.132.394 0 .526-.132zM303.095 486.332c.526-.264.922-.79 1.186-.79l-.658-.265c-.13 0-.263 0-.526.396-.396.396-.923.658-1.187.658l.658.265c.132 0 .264-.13.527-.263zM301.38 485.54c.528-.263.924-.79 1.188-.79 0 0-.66-.264-.79-.264 0 0-.265 0-.528.396-.396.396-.922.66-1.186.66l.66.263c.13 0 .394-.132.657-.264zM299.537 484.75c.527-.264.923-.79 1.187-.79l-.66-.264c-.13 0-.263 0-.526.395-.396.397-.923.66-1.187.66l.66.264c.13 0 .395 0 .527-.264zM297.824 484.09c.527-.262.922-.79 1.186-.79 0 0-.658-.263-.79-.263 0 0-.264 0-.527.396-.396.395-.923.658-1.187.658l.66.265c.262-.132.394-.132.658-.264zM296.11 483.3c.527-.395.923-.79 1.187-.79l-.66-.264c-.13 0-.263 0-.526.264-.394.396-.92.66-1.185.66l.66.263c.13.13.262 0 .525-.132zM294.265 482.51c.527-.396.923-.79 1.187-.79 0 0-.66-.264-.79-.264s-.265 0-.528.395c-.396.397-.922.66-1.186.66l.658.264c.264 0 .527-.132.66-.264zM292.552 481.72c.396-.396.923-.79 1.187-.79l-.66-.265c-.132 0-.264.132-.527.396-.396.397-.923.66-1.187.66l.66.263c.13 0 .394-.132.526-.264zM290.84 480.93c.525-.265.92-.792 1.185-.792l-.79-.264s-.264 0-.527.396c-.396.396-.923.66-1.187.66l.66.263c.264 0 .396-.132.66-.264zM289.125 480.138c.396-.264.923-.79 1.187-.79l-.66-.265c-.13 0-.263.132-.526.396-.396.395-.922.658-1.186.658l.658.264s.264 0 .527-.264zM287.28 479.48c.528-.265.924-.79 1.188-.79l-.66-.265c-.13 0-.263 0-.526.396-.396.396-.922.66-1.186.66l.658.263c.13 0 .395-.133.527-.264zM285.568 478.688c.527-.264.922-.79 1.186-.79l-.658-.265c-.132 0-.264.132-.527.396-.397.395-.924.658-1.188.658l.66.264c.13 0 .262-.132.526-.264zM283.854 477.897c.527-.264.923-.79 1.187-.79 0 0-.658-.265-.79-.265 0 0-.263 0-.526.396-.396.396-.923.66-1.187.66l.66.263c.13 0 .394-.13.657-.263zM282.01 477.106c.395-.264.922-.79 1.186-.79 0 0-.66-.264-.79-.264 0 0-.265 0-.528.264-.395.396-.922.658-1.186.658l.66.264c.262.132.525 0 .657-.132zM280.296 476.316c.396-.264.923-.79 1.187-.79l-.66-.265s-.263 0-.526.397c-.396.396-.923.66-1.187.66l.66.262c.13 0 .263 0 .526-.264zM278.583 475.657c.526-.264.922-.79 1.186-.79l-.66-.265c-.13 0-.263 0-.526.396-.396.396-.923.66-1.187.66l.66.263c0-.13.263-.13.526-.263zM276.74 474.866c.394-.264.92-.79 1.185-.79 0 0-.66-.264-.79-.264-.132 0-.264 0-.527.264-.396.395-.923.658-1.187.658l.66.264c.263.132.526 0 .66-.132zM275.025 474.076c.527-.264.923-.79 1.187-.79l-.66-.265c-.13 0-.263 0-.526.397-.396.396-.922.658-1.186.658l.658.264c.13 0 .263-.132.527-.264zM273.312 473.285c.527-.264.922-.79 1.186-.79l-.658-.265c-.132 0-.264 0-.527.396-.396.396-.923.66-1.187.66l.66.263c.13 0 .262-.133.526-.265zM271.467 472.494c.527-.264.922-.79 1.186-.79l-.658-.264c-.132 0-.264 0-.527.395-.396.396-.923.66-1.187.66l.66.263c.132 0 .395-.132.527-.264zM269.753 471.835c.396-.263.923-.79 1.187-.79l-.66-.264c-.13 0-.263 0-.526.265-.396.396-.922.66-1.186.66l.66.262c.13 0 .394 0 .525-.132zM268.04 471.045c.397-.264.924-.79 1.188-.79l-.66-.265c-.13 0-.263 0-.526.396-.396.396-.923.66-1.187.66l.66.263c.13-.133.262-.133.526-.265zM266.328 470.254c.396-.264.922-.79 1.186-.79l-.658-.264c-.132 0-.264 0-.527.263-.397.396-.924.66-1.188.66l.66.263c-.002.132.262 0 .526-.132zM264.483 469.463c.526-.395.922-.79 1.186-.79l-.66-.264c-.132 0-.263 0-.526.395-.396.396-.923.658-1.187.658l.66.264c.13 0 .394-.132.526-.264zM262.77 468.673c.395-.264.922-.79 1.186-.79l-.66-.265c-.13 0-.263 0-.526.264-.396.396-.922.66-1.186.66l.658.263c.132.132.263 0 .527-.132zM261.056 467.882c.396-.264.923-.79 1.187-.79l-.66-.264c-.13 0-.263 0-.526.395-.396.396-.923.66-1.187.66l.66.263.526-.264zM259.21 467.09c.528-.262.923-.79 1.187-.79l-.658-.263s-.265 0-.528.396c-.396.395-.923.658-1.187.658l.66.265c.13 0 .395 0 .526-.264zM257.498 466.3c.396-.263.923-.79 1.187-.79l-.66-.264s-.263.132-.526.396c-.397.396-.923.66-1.187.66l.66.263c.13 0 .262 0 .525-.264zM255.785 465.642c.527-.264.923-.79 1.187-.79l-.66-.265s-.263 0-.526.264c-.396.397-.922.66-1.186.66l.658.264c.13 0 .263 0 .527-.132zM254.072 464.85c.527-.263.922-.79 1.186-.79l-.658-.263c-.132 0-.264 0-.527.396-.396.395-.923.658-1.187.658l.66.265c-.002 0 .262-.133.526-.264zM252.227 464.06c.395-.263.922-.79 1.186-.79l-.66-.264s-.262 0-.525.396c-.396.396-.923.66-1.187.66l.66.263c.132 0 .395-.133.527-.264zM250.513 463.27c.527-.264.923-.79 1.187-.79l-.66-.265c-.13 0-.263 0-.526.396-.396.397-.922.66-1.186.66l.66.264c.13 0 .262-.133.525-.264zM248.8 462.48c.527-.265.923-.79 1.187-.79l-.66-.265c-.13 0-.263 0-.526.264-.395.394-.922.657-1.186.657l.66.264c0 .132.263 0 .526-.13zM246.956 461.688c.527-.264.922-.79 1.186-.79l-.658-.265c-.132 0-.264 0-.527.264-.396.396-.923.66-1.187.66l.66.263c.13.132.394 0 .526-.132zM245.243 460.897c.526-.264.922-.79 1.186-.79l-.66-.265c-.132 0-.263.132-.526.396-.396.396-.923.66-1.187.66l.66.263c.13 0 .262-.13.526-.263zM243.53 460.106c.526-.264.922-.79 1.186-.79l-.66-.264c-.13 0-.263 0-.526.396-.396.395-.922.658-1.186.658l.658.264c.13 0 .263-.132.527-.264zM241.816 459.316c.527-.264.923-.79 1.187-.79l-.66-.265c-.13 0-.263 0-.526.265-.396.396-.923.66-1.187.66l.66.263c0 .132.262 0 .526-.132zM240.103 458.525c.526-.264.922-.79 1.186-.79l-.66-.265c-.13 0-.263 0-.526.396-.396.396-.923.66-1.187.66l.66.263.526-.265zM238.257 457.734c.527-.264.923-.79 1.187-.79l-.66-.264c-.13 0-.263 0-.526.396-.396.395-.922.658-1.186.658l.66.264c.13 0 .393-.132.525-.264zM236.544 456.944c.527-.264.923-.79 1.187-.79l-.658-.265c-.132 0-.264 0-.527.263-.396.396-.923.66-1.187.66l.66.263c.13.132.263 0 .526-.132zM234.832 456.153c.526-.264.922-.79 1.186-.79l-.66-.265c-.13 0-.262 0-.525.264-.396.396-.923.66-1.187.66l.66.263c.13.132.262 0 .526-.132zM233.118 455.362c.527-.264.923-.79 1.187-.79l-.66-.264c-.13 0-.263 0-.526.264-.396.395-.923.658-1.187.658l.66.264c-.002.132.26 0 .525-.132zM231.405 454.572c.527-.264.923-.79 1.187-.79l-.66-.265s-.263 0-.526.264c-.396.397-.922.66-1.186.66l.658.264c0 .13.263 0 .527-.132zM229.56 453.78c.527-.263.923-.79 1.187-.79l-.66-.264s-.263 0-.526.264c-.395.396-.922.66-1.186.66l.66.263c.13.132.394 0 .526-.132zM227.846 452.99c.527-.264.923-.79 1.187-.79l-.66-.264s-.263 0-.526.395c-.395.397-.922.66-1.186.66l.66.264c.132 0 .263-.132.526-.264zM226.133 452.2c.527-.264.923-.79 1.187-.79l-.66-.265s-.263 0-.526.396c-.395.397-.922.66-1.186.66l.658.264c.133-.133.264-.133.527-.264zM224.42 451.41c.527-.265.922-.792 1.186-.792l-.658-.264c-.132 0-.264 0-.527.264-.395.396-.92.66-1.185.66l.658.263s.264 0 .527-.13zM222.576 450.618c.396-.264.922-.79 1.186-.79l-.66-.264s-.262 0-.525.264c-.396.395-.923.658-1.187.658l.66.264c.13 0 .394 0 .526-.132zM220.862 449.696c.527-.264.923-.79 1.187-.79l-.66-.265c-.132 0-.264 0-.527.265-.395.396-.922.66-1.186.66l.66.263c.13.132.394 0 .525-.132zM219.15 448.905c.526-.264.922-.79 1.186-.79l-.66-.265c-.13 0-.263 0-.526.264-.396.396-.922.66-1.186.66l.658.263c.13.132.395 0 .527-.132zM217.436 448.114c.396-.264.922-.79 1.186-.658l-.658-.264s-.264 0-.527.264c-.396.395-.923.658-1.187.658l.66.264c.13-.132.262-.132.526-.264zM215.723 447.192c.526-.264.922-.79 1.186-.79l-.66-.265s-.263 0-.526.264c-.396.397-.923.66-1.187.66l.66.264c.13.132.262 0 .526-.132zM214.01 446.4c.526-.263.922-.79 1.186-.658l-.66-.264c-.13 0-.263 0-.526.264-.396.396-.922.66-1.186.66l.658.263c.132 0 .264-.132.527-.264zM212.296 445.61c.527-.264.923-.79 1.187-.79l-.66-.264c-.13 0-.263 0-.526.264-.396.395-.923.658-1.187.658l.66.264s.263 0 .526-.132zM210.583 444.688c.526-.264.922-.79 1.186-.66l-.66-.263c-.13 0-.263 0-.526.264-.396.395-.923.658-1.187.658l.66.264s.263 0 .526-.264zM208.87 443.897c.396-.264.923-.79 1.187-.66l-.66-.263s-.263 0-.526.264c-.394.396-1.053.66-1.185.66l.66.263.525-.263zM207.157 443.106c.527-.264.923-.79 1.187-.658l-.66-.264c-.13 0-.263 0-.526.264-.396.395-.922.658-1.186.658l.658.264c0-.132.263-.132.527-.264zM205.312 442.185c.527-.264.922-.79 1.186-.66l-.658-.263s-.264 0-.527.264c-.396.396-1.055.66-1.187.66l.66.263c.13-.002.394-.002.526-.265zM203.6 441.394c.525-.264.92-.79 1.316-.79l-.66-.265s-.262 0-.525.263c-.395.396-1.054.66-1.186.66l.66.263c0 .13.263 0 .395-.132zM201.885 440.603c.527-.264.923-.79 1.187-.658l-.66-.264c-.13 0-.263 0-.526.265-.396.395-.922.658-1.186.658l.658.264c.132 0 .395-.133.527-.264zM200.172 439.68c.527-.263.922-.79 1.186-.658l-.658-.264s-.264 0-.527.264c-.396.396-.923.66-1.187.66l.66.263c.13 0 .395 0 .526-.264zM198.46 438.89c.526-.264.92-.79 1.185-.66l-.658-.263c-.132 0-.264 0-.527.264-.396.397-.923.66-1.187.66l.66.264c.13 0 .263-.133.526-.264zM196.746 438.1c.527-.265.923-.79 1.187-.66l-.66-.263s-.263 0-.526.264c-.396.396-1.054.66-1.186.527l.66.264c.13 0 .263 0 .526-.13zM195.033 437.177c.527-.264.923-.79 1.318-.66l-.658-.263c-.132 0-.264 0-.527.264-.396.396-.922.66-1.186.527l.657.264c0 .13.132 0 .396-.133zM193.32 436.386c.527-.264.922-.79 1.317-.66l-.658-.263s-.265 0-.528.264c-.396.396-1.055.66-1.187.66l.66.263c0-.132.13-.132.395-.264zM191.606 435.463c.527-.263.923-.79 1.187-.658l-.66-.264c-.13 0-.263 0-.526.265-.395.396-1.054.658-1.186.527l.66.263c.13.132.263 0 .526-.132zM189.893 434.54c.527-.263.923-.79 1.318-.658l-.658-.264c-.132 0-.264 0-.527.264-.396.396-1.054.66-1.186.527l.657.263c0 .132.132.132.396-.132zM188.18 433.75c.527-.264.922-.79 1.317-.66l-.658-.262s-.265 0-.528.263c-.396.397-1.055.66-1.187.528l.66.264s.263 0 .395-.132zM186.467 432.828c.527-.264.922-.79 1.317-.66l-.66-.263s-.262 0-.525.264c-.397.395-1.056.658-1.188.526l.66.264c0 .13.263 0 .395-.132zM184.753 431.905c.527-.264.923-.79 1.318-.66l-.658-.263c-.132 0-.264 0-.527.264-.396.396-1.054.66-1.186.527l.657.264c0 .132.265.132.396-.132zM183.172 431.114c.527-.264.923-.79 1.318-.658l-.66-.264c-.13 0-.263 0-.526.264-.396.395-1.055.658-1.187.526l.66.264c-.132 0 .132 0 .395-.132zM181.46 430.192c.526-.264.92-.79 1.316-.66l-.66-.263c-.13 0-.262 0-.525.263-.395.396-1.054.66-1.186.527l.66.264c-.132 0 .132 0 .395-.132zM179.746 429.27c.527-.264.923-.79 1.318-.66l-.66-.263c-.13 0-.263 0-.526.264-.396.397-1.054.66-1.186.528l.658.264c-.13.13.133 0 .396-.132zM178.033 428.347c.527-.264.923-.79 1.318-.658l-.658-.265s-.264 0-.527.264c-.396.394-1.055.657-1.186.525l.657.264c0 .13.132 0 .396-.133zM176.32 427.425c.527-.264.922-.79 1.317-.66l-.658-.263c-.133 0-.265 0-.528.264-.396.396-1.055.66-1.187.527l.66.264c0 .13.263 0 .395-.132zM174.74 426.502c.525-.264.92-.79 1.316-.66l-.66-.262c-.13 0-.263 0-.526.263-.395.396-1.054.66-1.186.527l.66.264c-.133.132.13 0 .395-.132zM173.025 425.58c.527-.264.923-.79 1.318-.66l-.66-.263c-.13 0-.263 0-.526.264-.527.397-1.055.66-1.186.528l.66.264c-.132.13.13 0 .395-.132zM171.312 424.657c.527-.264.923-.66 1.317-.66 0 0-.66-.263-.66-.395 0 0-.263 0-.526.264-.527.396-1.055.66-1.187.527l.66.396s.13 0 .395-.133zM169.73 423.734c.527-.264 1.055-.658 1.318-.658l-.66-.396c-.13 0-.263 0-.526.264-.395.395-1.054.526-1.186.526l.66.396c-.132 0 .13 0 .395-.132zM168.017 422.68c.527-.263 1.055-.658 1.318-.658l-.66-.396c-.13 0-.263 0-.526.264-.528.396-1.055.527-1.187.527l.658.264c.002.264.133.133.397 0zM166.304 421.758c.527-.264 1.055-.66 1.317-.66l-.657-.394c-.132 0-.264 0-.527.264-.396.395-1.055.526-1.187.526l.658.264c0 .263.264.132.396 0zM164.723 420.835c.527-.263 1.054-.658 1.317-.658l-.66-.264c-.13 0-.262 0-.525.264-.396.396-1.055.527-1.187.527l.66.395c-.132-.133.13-.133.395-.265zM163.01 419.78c.526-.263.922-.658 1.317-.658l-.66-.396c-.13 0-.263 0-.658.264-.397.396-1.055.527-1.187.527l.66.396c.13.132.264 0 .526-.132zM161.428 418.858c.527-.264 1.055-.658 1.318-.526l-.66-.396c-.13 0-.263 0-.526.264-.396.395-1.055.526-1.187.526l.66.396c-.132-.132.132-.132.395-.264zM159.715 417.805c.527-.264 1.054-.66 1.317-.527l-.66-.396c-.13 0-.262 0-.525.264-.396.264-1.055.527-1.187.527l.66.396c0-.133.263-.133.395-.265zM158.133 416.75c.527-.264 1.055-.66 1.318-.527l-.658-.395s-.264 0-.527.263c-.526.265-1.054.528-1.186.397l.658.396c0 .13.132 0 .395-.133zM156.552 415.696c.527-.264 1.055-.66 1.317-.527l-.66-.397c-.13 0-.263 0-.526.264-.527.264-1.055.527-1.187.396l.66.396c-.132-.002.132-.002.395-.134zM154.97 414.773c.528-.264 1.055-.66 1.318-.527l-.66-.396s-.263 0-.525.264c-.527.264-1.055.527-1.187.396l.66.396c-.132 0 .132 0 .395-.133zM153.257 413.72c.527-.264 1.055-.66 1.318-.527l-.66-.396c-.13 0-.263 0-.526.264-.528.265-1.055.528-1.187.397l.527.395c.132 0 .265 0 .527-.133zM151.676 412.533c.527-.264 1.055-.66 1.318-.527l-.66-.396s-.263 0-.526.264c-.527.264-1.055.527-1.317.396l.527.396c.132 0 .396 0 .66-.133zM150.095 411.48c.526-.265 1.054-.66 1.317-.527l-.66-.396c-.13 0-.262 0-.657.264-.527.265-1.055.396-1.187.396l.527.396c.133-.002.397-.133.66-.133zM148.513 410.293c.527-.264 1.055-.527 1.318-.396l-.658-.396s-.264 0-.66.133c-.525.264-1.053.396-1.316.396l.527.395c.395 0 .527 0 .79-.132zM147.064 409.106c.527-.132 1.054-.526 1.317-.395l-.657-.395c-.132 0-.264 0-.527.132-.527.264-1.055.395-1.187.264l.658.396c-.13.132.132.132.396 0zM145.483 407.92c.526-.13 1.054-.526 1.317-.395l-.66-.396c-.13 0-.263 0-.526.13-.526.265-1.054.397-1.186.265l.527.527s.264 0 .528-.13zM143.9 406.734c.528-.132 1.056-.526 1.32-.396 0 0-.66-.395-.66-.526 0 0-.264 0-.527.132-.527.264-1.054.395-1.187.264l.527.395c.132.13.264.13.528.13zM142.452 405.285c.527-.132 1.055-.527 1.317-.396l-.66-.528s-.263 0-.526.132c-.527.264-1.055.396-1.187.264l.527.527c0 .132.264.132.528 0zM141.002 403.967c.526-.132 1.054-.526 1.317-.263l-.66-.527c-.132 0-.264 0-.658.132-.527.263-1.055.395-1.187.263l.527.526c.133 0 .397-.133.66-.133zM139.552 402.65c.527-.133 1.054-.397 1.317-.265l-.528-.527s-.263 0-.526.132c-.527.264-1.055.264-1.187.132l.526.527h.396zM138.102 401.068c.527-.132 1.187-.396 1.318-.132l-.527-.527s-.264 0-.658.13c-.527.133-1.187.133-1.318 0l.527.528c.132 0 .395.132.658 0zM136.785 399.618c.527-.132 1.055-.264 1.317-.132l-.526-.526h-.66c-.526.13-1.185.13-1.317 0l.526.526c.13.132.395.132.66.132zM135.467 398.037c.527 0 1.186-.264 1.317-.132l-.527-.527h-.66c-.525.132-1.053.132-1.316 0l.528.527c.132.132.396.132.66.132zM134.28 396.456c.528 0 1.188-.264 1.318 0 0 0-.526-.527-.526-.66h-.66c-.526.133-1.185.133-1.317 0l.527.528c.13.132.395.132.66.132zM132.963 394.61c.527 0 1.186-.132 1.45.132l-.397-.658c-.132 0-.264-.132-.66 0-.526 0-1.185 0-1.316-.264l.396.658c.132.132.264.132.527.132zM132.04 392.897c.528 0 1.188 0 1.45.132l-.395-.66s-.263-.132-.658-.132c-.527 0-1.187-.132-1.318-.264l.395.66c-.002.132.262.263.526.263zM132.172 336.23c-.527 0-1.187 0-1.45-.264l.396.66s.264.13.66.13c.526 0 1.186.133 1.317.265l-.264-.658c-.13 0-.262 0-.658-.132zM133.095 337.944c-.527 0-1.187.132-1.45-.132l.396.658s.265.132.66.132c.527 0 1.186 0 1.317.132l-.396-.526c.002-.132-.262-.264-.525-.264zM134.017 339.657c-.526 0-1.186.132-1.45-.132l.397.66c.132 0 .264.13.658 0 .527 0 1.187 0 1.318.13l-.396-.526s-.263-.133-.527-.133zM134.94 341.238c-.527 0-1.187.132-1.45-.132 0 0 .396.66.527.66 0 0 .264.13.66 0 .526-.133 1.185 0 1.317.13l-.396-.526c-.13 0-.394-.132-.658-.132zM135.995 342.952c-.527 0-1.187.13-1.45 0l.396.658s.265.132.66 0c.526-.132 1.186-.132 1.317 0l-.396-.527c0-.13-.263-.13-.525-.13zM137.18 344.533c-.527 0-1.186.264-1.45 0 0 0 .527.527.527.66.132 0 .264.13.66 0 .526-.133 1.186-.133 1.317 0l-.396-.528c-.262-.132-.394-.264-.658-.132zM138.235 345.982c-.527.132-1.187.264-1.45.132 0 0 .527.66.527.527h.66c.526-.13 1.185-.13 1.316 0l-.527-.526c0-.132-.26-.132-.525-.132zM139.552 347.433c-.527.132-1.187.396-1.45.132l.527.526s.263.133.658 0c.527-.13 1.187-.262 1.317-.13l-.526-.527h-.528zM140.74 348.882c-.528.132-1.188.396-1.45.132l.526.527c.132 0 .264 0 .66-.13.526-.133 1.185-.265 1.316-.133l-.527-.527c0 .132-.263.132-.526.132zM142.056 350.332c-.527.13-1.187.395-1.45.263l.527.527c.132 0 .264 0 .66-.132.526-.132 1.186-.264 1.316-.132l-.527-.526c0-.132-.263-.132-.527 0zM143.374 351.65c-.527.13-1.186.395-1.45.263l.528.527c.132 0 .264 0 .658-.132.527-.264 1.187-.396 1.318-.264l-.527-.396h-.526zM144.824 352.967c-.527.132-1.187.527-1.45.264l.66.528c.13 0 .263 0 .658-.132.527-.264 1.055-.396 1.317-.264l-.527-.396c-.264-.13-.396-.13-.66 0zM146.14 354.285c-.526.132-1.053.527-1.316.396l.66.528c.13 0 .262 0 .657-.132.528-.264 1.188-.396 1.32-.264l-.528-.396c-.264-.263-.527-.263-.79-.13zM147.723 355.47c-.527.133-1.055.528-1.318.397l.66.396c.13 0 .263 0 .658-.132.527-.263 1.054-.395 1.317-.263l-.527-.396c-.395-.13-.526-.13-.79 0zM149.172 356.657c-.527.132-1.055.527-1.318.396l.66.396c.13 0 .263 0 .658-.133.527-.264 1.055-.527 1.318-.396l-.527-.395c-.263 0-.527 0-.79.132zM150.753 357.843c-.526.264-1.054.66-1.317.527l.66.396s.262 0 .525-.264c.528-.264 1.056-.527 1.188-.396l-.527-.395c-.13.002-.263.002-.527.133zM152.204 358.897c-.527.264-1.055.66-1.318.527l.66.396c.13 0 .263 0 .526-.264.527-.264 1.054-.527 1.187-.396l-.528-.396c0 .002-.265.002-.528.133zM153.785 360.083c-.527.264-1.054.66-1.317.527l.658.396c.132 0 .264 0 .527-.264.527-.264 1.055-.527 1.187-.396l-.66-.395c.132-.13-.132.002-.395.133zM155.366 361.006c-.526.264-1.054.66-1.317.527l.658.396c.132 0 .264 0 .527-.265.526-.396 1.054-.527 1.186-.527l-.658-.396c.13.132-.133.132-.396.264zM157.08 362.06c-.527.265-1.055.66-1.318.527l.66.396s.263 0 .526-.264c.396-.396 1.055-.527 1.186-.527l-.658-.396c0 .132-.265.132-.396.264zM158.66 363.114c-.526.264-1.054.66-1.316.66l.658.395c.132 0 .264 0 .527-.265.395-.396 1.054-.527 1.186-.527l-.66-.264c.132-.263-.132-.132-.395 0zM160.374 364.037c-.526.264-.922.66-1.317.66 0 0 .66.263.66.394.13 0 .263 0 .526-.263.395-.395 1.054-.526 1.186-.526l-.66-.395s-.265 0-.396.132zM161.956 364.96c-.527.263-.923.658-1.318.658l.66.396c.13 0 .263 0 .526-.264.396-.396 1.054-.527 1.186-.527l-.658-.264c.13-.132-.133-.132-.396 0zM163.668 366.014c-.527.264-.922.79-1.317.66l.66.263s.263 0 .526-.264c.527-.396 1.055-.66 1.187-.527l-.66-.264c0-.132-.13 0-.395.132zM165.25 366.937c-.526.264-1.054.79-1.317.658l.66.264c.13 0 .262 0 .525-.265.396-.395 1.055-.658 1.187-.526l-.66-.265c.132-.132-.132 0-.395.132zM166.963 367.858c-.527.264-.923.79-1.318.66 0 0 .66.263.66.395.13 0 .263 0 .526-.264.397-.397 1.055-.66 1.187-.528l-.658-.264c0-.263-.133-.13-.397 0zM168.676 368.78c-.527.265-.922.792-1.317.66 0 0 .657.264.657.395.132 0 .264 0 .527-.263.527-.396 1.055-.66 1.187-.527l-.658-.264c0-.262-.132-.13-.396 0zM170.39 369.704c-.528.263-.923.79-1.318.658l.66.264c.13 0 .262 0 .525-.264.396-.396 1.055-.658 1.187-.526l-.66-.264c0-.132-.263 0-.395.132zM171.97 370.626c-.526.264-.922.79-1.317.66l.66.263c.13 0 .263 0 .526-.265.395-.396 1.053-.66 1.185-.527l-.658-.264c.13-.132-.132 0-.396.132zM173.684 371.417c-.527.264-.923.79-1.318.66l.66.262c.13 0 .263 0 .526-.264.396-.396 1.055-.66 1.187-.527l-.66-.265s-.132 0-.396.132zM175.397 372.34c-.527.263-.922.79-1.317.658l.66.264s.262 0 .525-.264c.396-.396 1.055-.66 1.187-.527l-.66-.262s-.13 0-.395.13zM177.11 373.262c-.526.264-.922.79-1.186.66l.66.263c.13 0 .262 0 .525-.264.395-.395 1.054-.658 1.186-.526l-.66-.264c-.13-.132-.262 0-.526.132zM178.824 374.185c-.527.264-.923.79-1.187.658l.66.264s.263 0 .526-.264c.396-.395 1.054-.658 1.186-.526l-.66-.264c-.13-.132-.394 0-.526.132zM180.537 374.975c-.527.264-.922.79-1.186.66l.66.263c.13 0 .263 0 .526-.264.396-.396 1.055-.66 1.187-.527l-.66-.264c-.13 0-.395 0-.526.132zM182.25 375.897c-.526.264-.922.79-1.317.66l.66.263s.262 0 .525-.264c.396-.396 1.055-.66 1.187-.527l-.66-.265c0-.13-.264 0-.395.132zM183.832 376.82c-.527.264-.923.79-1.187.658l.66.264c.13 0 .263 0 .526-.264.397-.395 1.055-.658 1.187-.526l-.658-.264c-.002-.13-.265 0-.528.132zM185.544 377.61c-.527.264-.923.79-1.187.66l.66.263c.13 0 .263 0 .526-.264.396-.397.923-.66 1.187-.66l-.66-.264c.002.133-.262.133-.526.264zM187.257 378.533c-.526.264-.922.79-1.317.66l.66.263c.13 0 .262 0 .525-.264.396-.396 1.055-.66 1.187-.527l-.66-.264c.133-.13-.13 0-.395.133zM189.103 379.324c-.527.263-.923.79-1.318.658l.66.264s.263 0 .526-.264c.397-.396 1.055-.658 1.187-.526l-.658-.264c-.002 0-.265 0-.397.132zM190.684 380.246c-.527.264-.923.79-1.187.66l.66.263c.13 0 .263 0 .526-.265.396-.396.922-.66 1.186-.527l-.66-.264c0-.132-.262 0-.526.132zM192.397 381.037c-.527.264-.922.79-1.186.66l.66.263s.263 0 .526-.264c.396-.396 1.055-.66 1.187-.527l-.66-.265c0-.132-.262 0-.526.132zM194.11 381.96c-.526.263-.922.79-1.186.658l.66.264c.13 0 .262 0 .525-.264.395-.396 1.054-.658 1.186-.658l-.66-.264s-.262 0-.526.264zM195.956 382.75c-.527.264-.923.79-1.187.66l.658.263c.132 0 .264 0 .527-.264.396-.397.922-.66 1.186-.66l-.657-.264c-.132 0-.396.132-.527.264zM197.668 383.54c-.527.265-.922.792-1.186.66l.658.264c.132 0 .264 0 .527-.264.396-.396.923-.66 1.187-.66l-.66-.263c-.13.132-.394.132-.526.264zM199.38 384.463c-.526.264-.92.79-1.185.66l.658.263c.132 0 .264 0 .527-.264.396-.396.923-.66 1.187-.66l-.66-.262c-.13 0-.394 0-.526.263zM201.095 385.254c-.396.264-.923.79-1.187.79l.66.265c.13 0 .263 0 .526-.265.396-.396 1.054-.66 1.186-.66l-.66-.263c-.13-.132-.393 0-.525.132zM202.808 386.045c-.527.264-.923.79-1.187.79l.66.264c.132 0 .264 0 .527-.265.396-.395 1.054-.658 1.186-.658l-.658-.264c-.13-.132-.395 0-.527.132zM204.52 386.835c-.526.264-.92.79-1.185.79l.658.265c.132 0 .264 0 .527-.264.396-.396.923-.66 1.187-.66l-.66-.262c-.13 0-.262 0-.526.13zM206.235 387.758c-.527.264-.923.79-1.187.79l.66.265s.263 0 .526-.264c.395-.397.922-.66 1.186-.66l-.66-.264c-.13-.132-.262 0-.525.132zM207.948 388.55c-.527.263-.923.79-1.187.79l.66.263s.264 0 .527-.264c.396-.396.922-.66 1.186-.66l-.658-.263c0-.132-.264 0-.527.132zM209.66 389.34c-.395.263-.92.79-1.185.79l.658.264s.264 0 .527-.264c.396-.396.923-.66 1.187-.66l-.66-.262s-.263 0-.526.13zM211.374 390.13c-.527.264-.922.79-1.186.79l.658.265c.132 0 .264 0 .527-.264.396-.395.923-.658 1.187-.658l-.66-.264s-.263 0-.526.132zM213.22 391.053c-.397.264-.924.79-1.188.79l.66.264c.13 0 .263 0 .526-.264.395-.395.922-.658 1.186-.658l-.66-.264c-.13-.13-.394-.13-.525.133zM214.932 391.843c-.527.264-.923.79-1.187.79l.66.265c.13 0 .263 0 .526-.396.397-.396.923-.66 1.187-.66l-.658-.262c-.132 0-.396.13-.528.263zM216.645 392.634c-.527.264-.922.79-1.186.79l.657.265c.132 0 .264 0 .527-.265.396-.396.923-.66 1.187-.66l-.658-.263c-.13-.132-.263 0-.527.132zM218.358 393.425c-.526.264-.922.79-1.186.79l.66.264c.13 0 .262 0 .525-.265.396-.395.923-.658 1.187-.658l-.66-.264c-.13-.132-.262 0-.526.132zM220.072 394.215c-.527.264-.923.79-1.187.79l.66.265c.13 0 .263 0 .526-.264.397-.396.924-.66 1.187-.66l-.658-.262c-.002-.132-.265 0-.528.13zM221.785 395.006c-.527.264-.923.79-1.187.79l.66.265s.263 0 .526-.263c.396-.396.923-.66 1.187-.66l-.658-.263s-.264 0-.527.132zM223.63 395.797c-.528.264-.923.79-1.187.79l.658.264s.265 0 .528-.263c.396-.395.923-.658 1.187-.658l-.66-.265c-.13 0-.394 0-.526.132zM225.343 396.587c-.527.264-.923.79-1.187.79l.66.265c.13 0 .263 0 .526-.264.396-.396.922-.66 1.186-.66l-.66-.262c-.13 0-.393 0-.525.13zM227.056 397.378c-.527.264-.923.79-1.187.79l.658.265c.132 0 .264 0 .527-.264.396-.397.923-.66 1.187-.66l-.66-.264c-.13 0-.262 0-.526.132zM228.77 398.17c-.527.263-.923.79-1.187.79l.66.263s.262 0 .525-.263c.396-.396.923-.66 1.187-.66l-.66-.263s-.262 0-.526.132zM230.483 399.09c-.396.265-.923.792-1.187.792l.66.264c.13 0 .263 0 .526-.264.395-.396.922-.66 1.186-.66l-.66-.262c0-.132-.26-.132-.525.13zM232.328 399.882c-.527.264-.923.79-1.187.79l.66.265c.132 0 .264 0 .527-.396.396-.395.922-.658 1.186-.658l-.66-.264c-.13 0-.394 0-.525.264zM234.04 400.673c-.395.264-.922.79-1.186.79l.66.264c.13 0 .263 0 .526-.263.396-.396.923-.66 1.187-.66l-.66-.263c-.13-.13-.263-.13-.526.133zM235.753 401.464c-.396.263-.922.79-1.186.79l.66.264c.13 0 .262 0 .525-.396.396-.396.923-.658 1.187-.658l-.66-.264c-.13 0-.263.132-.527.264zM237.467 402.254c-.527.264-.923.79-1.187.79 0 0 .66.265.79.265 0 0 .265 0 .528-.265.396-.396.922-.66 1.186-.66l-.66-.263c-.13-.132-.393 0-.657.132zM239.18 403.045c-.396.264-.922.79-1.186.79l.658.264c.132 0 .264 0 .527-.265.395-.395.922-.658 1.186-.658l-.66-.264c.002-.132-.262-.132-.526.132zM241.025 403.835c-.527.264-.922.79-1.186.79l.657.265c.132 0 .264 0 .527-.264.396-.396.923-.66 1.187-.66l-.658-.262c-.132-.132-.263-.132-.527.13zM242.74 404.494c-.397.264-.924.79-1.188.79l.66.265c.13 0 .263 0 .526-.397.395-.396.922-.66 1.186-.66l-.66-.263c-.13.132-.263.132-.525.264zM244.452 405.285c-.396.264-.923.79-1.187.79l.66.264c.13 0 .263 0 .526-.396.397-.396.923-.66 1.187-.66l-.658-.263c0 .133-.265.133-.528.265zM246.296 406.076c-.527.395-.923.79-1.187.79l.658.264c.132 0 .264 0 .527-.264.396-.396.923-.658 1.187-.658l-.66-.264c-.13 0-.394 0-.526.132zM248.01 406.866c-.397.264-.923.79-1.187.79l.66.265c.13 0 .262-.13.525-.395.396-.396.923-.66 1.187-.66l-.66-.263c-.13.132-.394.132-.526.264zM249.723 407.657c-.527.264-.923.79-1.187.79l.66.265s.263 0 .526-.396c.396-.396.922-.66 1.186-.66l-.658-.263c-.132 0-.263.132-.527.264zM251.436 408.448c-.396.264-.923.79-1.187.79l.658.264c.132 0 .264 0 .527-.396.396-.395.922-.658 1.186-.658l-.657-.264-.527.264zM253.28 409.238c-.395.264-.92.79-1.185.79l.658.265c.132 0 .264 0 .527-.264.396-.397.923-.66 1.187-.66l-.66-.264c-.13-.13-.394 0-.526.132zM254.995 410.03c-.527.263-.923.79-1.187.79l.66.264s.263 0 .526-.264c.395-.396.922-.66 1.186-.66l-.66-.263c-.13-.13-.263 0-.525.132zM256.708 410.82c-.527.264-.923.79-1.187.79l.66.264s.264 0 .527-.264c.396-.396.922-.658 1.186-.658l-.658-.264c-.132-.13-.264 0-.527.132zM258.42 411.61c-.527.264-.922.79-1.186.79l.658.265c.132 0 .264 0 .527-.396.395-.397.922-.66 1.186-.66l-.66-.264c.002 0-.262.133-.526.264zM260.265 412.4c-.526.397-.922.792-1.186.792l.658.264s.263 0 .526-.396c.396-.396.923-.66 1.187-.66l-.658-.263c-.13 0-.395.133-.527.264zM261.98 413.192c-.528.264-.924.79-1.188.79l.66.264s.263 0 .526-.264c.395-.395.922-.658 1.186-.658l-.66-.264c-.13-.13-.26-.13-.525.132zM263.692 413.982c-.396.264-.923.79-1.187.79l.66.265s.263 0 .526-.396c.397-.395.923-.658 1.187-.658l-.658-.264s-.264 0-.528.264zM265.537 414.642c-.527.396-.922.79-1.186.79 0 0 .66.265.79.265 0 0 .265 0 .528-.396.396-.395.923-.658 1.187-.658l-.66-.264c-.263 0-.527.132-.658.264zM267.25 415.433c-.396.264-.922.79-1.186.79l.66.264c.13 0 .262 0 .525-.396.395-.394.922-.657 1.186-.657l-.66-.264c-.13 0-.395.13-.526.263zM268.963 416.223c-.527.396-.923.79-1.187.79l.66.265c.13 0 .263 0 .526-.264.396-.396.922-.66 1.186-.66l-.658-.263c-.132-.13-.263 0-.527.133zM270.676 417.014c-.527.264-.923.79-1.187.79l.658.265c.132 0 .264-.133.527-.397.396-.396.922-.66 1.186-.66l-.657-.263-.527.264zM272.52 417.805c-.395.264-.92.79-1.185.79 0 0 .658.264.79.264 0 0 .264 0 .527-.396.396-.396.923-.66 1.187-.66l-.66-.263c-.263 0-.527.133-.66.265zM274.235 418.595c-.527.264-.923.79-1.187.79 0 0 .66.265.79.265 0 0 .264 0 .527-.396.396-.396.923-.66 1.187-.66l-.66-.262c-.263 0-.394 0-.657.263zM275.948 419.254c-.527.264-.923.79-1.187.79l.66.265s.264 0 .527-.265c.396-.396.922-.66 1.186-.66l-.658-.263s-.264 0-.527.132zM277.792 420.045c-.527.264-.923.79-1.187.79l.66.264c.13 0 .263 0 .526-.396.397-.396.924-.66 1.188-.66l-.66-.263c-.13 0-.394.133-.526.265zM279.505 420.835c-.526.264-.922.79-1.186.79l.658.265c.13 0 .263 0 .526-.264.396-.396.923-.66 1.187-.66l-.658-.262c-.13-.132-.263 0-.527.13zM281.22 421.626c-.528.264-.924.79-1.188.79l.66.265c.13 0 .263 0 .526-.263.395-.396.922-.66 1.186-.66l-.66-.263c.002-.132-.26 0-.525.132zM283.064 422.417c-.527.264-.923.79-1.187.79l.66.264c.13 0 .263 0 .526-.262.396-.396.922-.66 1.186-.66l-.66-.263c-.13-.132-.394 0-.526.132zM284.777 423.208c-.396.263-.922.79-1.186.79 0 0 .66.264.79.264 0 0 .265 0 .528-.396.396-.395.923-.658 1.187-.658l-.66-.264c-.263 0-.394 0-.658.264zM286.49 423.866c-.396.264-.922.79-1.186.79l.66.265c.13 0 .262 0 .525-.395.395-.396.922-.66 1.186-.66l-.66-.263c-.13.132-.263.132-.526.264zM288.204 424.657c-.396.264-.923.79-1.187.79l.66.265c.13 0 .263 0 .526-.396.396-.396.922-.66 1.186-.66l-.66-.263-.526.264zM290.048 425.448c-.396.264-.923.79-1.187.79l.66.264c.132 0 .264 0 .527-.264.396-.396.923-.658 1.187-.658l-.66-.264c-.13-.13-.394 0-.526.132zM291.76 426.238c-.395.264-.92.79-1.185.79l.658.265c.132 0 .264 0 .527-.396.396-.396.923-.66 1.187-.66l-.66-.263c-.13 0-.262.132-.526.264zM293.475 427.03c-.527.263-.923.79-1.187.79l.66.264c.13 0 .263 0 .526-.264.395-.396.922-.66 1.054-.66l-.66-.263c.133-.13-.13 0-.393.132zM295.32 427.82c-.527.264-.923.79-1.187.79l.66.264c.13 0 .263 0 .526-.396.395-.395.92-.658 1.185-.658l-.658-.264c-.132 0-.395 0-.527.264zM297.033 428.48c-.396.263-.923.79-1.187.79l.66.264c.13 0 .263 0 .526-.396.396-.396.923-.66 1.187-.66l-.66-.262c-.132.13-.264.13-.527.263zM298.746 429.27c-.526.264-.922.79-1.186.79l.66.265c.13 0 .263 0 .525-.396.396-.397.923-.66 1.187-.66l-.66-.264-.526.264zM300.59 430.06c-.395.265-.922.79-1.186.79l.66.265c.13 0 .263 0 .526-.396.396-.396.922-.66 1.186-.66l-.66-.263c-.13 0-.393.132-.525.264zM302.304 430.85c-.527.397-.923.792-1.187.792l.66.264s.263 0 .526-.396c.396-.396.923-.66 1.187-.66l-.66-.263c-.13 0-.262.132-.526.264zM304.017 431.642c-.526.264-.922.79-1.186.79l.66.265c.13 0 .263 0 .526-.396.396-.395.923-.658 1.187-.658l-.66-.264c-.13 0-.262.132-.526.264zM305.73 432.3c-.526.265-.922.79-1.186.79l.66.265c.13 0 .263-.132.526-.395.395-.396.92-.66 1.185-.66l-.66-.263c.002.132-.26.132-.524.264zM307.576 433.09c-.527.265-.924.792-1.187.792l.66.264c.13 0 .263 0 .526-.264.395-.396.922-.66 1.186-.66l-.66-.262c-.13 0-.395 0-.526.13zM309.29 433.882c-.528.264-.925.79-1.19.79l.66.265c.132 0 .265 0 .528-.264.395-.396.922-.66 1.186-.66l-.658-.263c-.132-.132-.263 0-.527.132zM311.002 434.673c-.396.264-.922.79-1.186.79l.658.264c.13 0 .264 0 .527-.395.396-.396.923-.66 1.187-.66l-.658-.263s-.264.13-.528.263zM312.846 435.463c-.395.264-.922.79-1.186.79l.66.265c.13 0 .264 0 .525-.264.396-.396.924-.66 1.188-.66l-.66-.262c-.13-.132-.394 0-.527.13zM314.56 436.254c-.395.264-.923.79-1.187.79l.66.265s.264 0 .527-.397c.395-.396.922-.66 1.186-.66l-.658-.263c-.133 0-.264 0-.527.264zM316.273 436.913c-.527.264-.922.79-1.186.79l.658.264c.13 0 .264 0 .527-.395.395-.396.922-.66 1.186-.66l-.658-.263c0 .13-.263.13-.527.263zM318.117 437.704c-.395.263-.922.79-1.186.79l.66.264s.263 0 .526-.264c.396-.396.924-.658 1.188-.658l-.66-.264c-.13 0-.394 0-.527.132zM319.832 438.494c-.396.264-.924.79-1.188.79l.66.265c.13 0 .264-.133.527-.397.396-.396.923-.66 1.187-.66l-.658-.263c-.133 0-.264.132-.528.264zM321.545 439.285c-.396.264-.924.79-1.186.79l.657.264s.264 0 .527-.264c.395-.396.922-.66 1.186-.66l-.658-.263c-.133-.132-.263 0-.527.132zM323.39 440.076c-.528.263-.923.79-1.187.79l.658.264c.134 0 .265 0 .528-.396.396-.395.924-.658 1.188-.658l-.66-.264c-.13 0-.395.132-.527.264zM325.104 440.734c-.527.264-.924.79-1.188.79l.66.265s.264 0 .527-.397c.395-.396.922-.66 1.186-.66l-.66-.263c-.132.133-.396.133-.526.264zM326.816 441.525c-.527.264-.924.79-1.188.79 0 0 .66.265.79.265.134 0 .265 0 .528-.396.396-.396.922-.66 1.186-.66l-.658-.263c-.263.134-.394.134-.658.265zM328.53 442.316c-.528.264-.923.79-1.187.79l.658.264c.132 0 .265-.132.528-.264.395-.395.922-.658 1.186-.658l-.658-.264c0-.13-.263 0-.527.132zM330.373 443.106c-.525.264-.922.79-1.186.79 0 0 .66.265.79.265 0 0 .265 0 .528-.395.395-.396.922-.66 1.186-.66l-.657-.263c-.263 0-.527.133-.66.264zM332.088 443.897c-.527.264-.924.79-1.188.79l.66.265s.264 0 .527-.396c.395-.396.922-.66 1.186-.66l-.658-.263c-.133 0-.263.133-.527.264zM333.8 444.688c-.395.264-.923.79-1.187.79l.66.264c.13 0 .264 0 .527-.396.395-.395.922-.658 1.186-.658l-.658-.264-.527.264zM335.645 445.48c-.395.263-.922.79-1.186.79l.657.264c.133 0 .264 0 .527-.396.396-.396.924-.66 1.188-.66l-.66-.262c-.13 0-.395 0-.527.263zM337.36 446.138c-.528.264-.925.79-1.19.79l.792.265c.133 0 .264 0 .527-.396.394-.396.92-.66 1.185-.66l-.658-.263c-.263 0-.396.132-.658.264zM339.072 446.93c-.396.263-.924.79-1.188.79 0 0 .66.263.79.263 0 0 .265 0 .528-.395.396-.396.922-.66 1.186-.66l-.658-.263c-.13 0-.394.132-.658.264zM340.916 447.72c-.527.263-.922.79-1.186.79l.658.264c.133 0 .264 0 .527-.396.396-.396.924-.66 1.188-.66l-.66-.262c-.13 0-.394.13-.527.263zM342.63 448.51c-.526.264-.923.79-1.187.79l.66.265c.13 0 .262 0 .525-.396.396-.397.924-.66 1.188-.66l-.66-.264c-.13 0-.263.132-.527.264zM344.344 449.3c-.527.265-.924.79-1.188.79l.66.265c.13 0 .264 0 .527-.395.395-.396.922-.66 1.186-.66l-.66-.263-.526.264zM346.057 450.09c-.527.265-.924.792-1.188.792l.66.264c.13 0 .263 0 .526-.396.395-.396.922-.66 1.186-.66l-.658-.262-.527.263zM347.9 450.882c-.395.264-.922.79-1.186.79l.658.265c.133 0 .264 0 .527-.264.395-.396.923-.66 1.187-.66l-.66-.263c-.13-.132-.394-.132-.527.132zM349.613 451.54c-.525.397-.922.792-1.186.792l.66.263c.13 0 .262 0 .525-.263.396-.396.924-.66 1.188-.66l-.66-.263c-.13 0-.263 0-.527.13zM351.328 452.33c-.527.265-.924.792-1.188.792l.66.264s.264 0 .527-.264c.395-.396.922-.658 1.186-.658l-.658-.264s-.263 0-.527.13zM353.04 453.122c-.526.264-.923.79-1.187.79l.66.265s.264 0 .527-.264c.395-.396.922-.66 1.186-.66l-.658-.263c0-.132-.263 0-.527.132zM354.885 453.913c-.395.264-.922.79-1.186.79l.657.265s.264 0 .527-.396c.396-.396.924-.66 1.188-.66l-.66-.263c-.13 0-.264.13-.527.263zM356.6 454.704c-.396.264-.924.79-1.188.79l.66.264s.264 0 .527-.396c.394-.395.92-.658 1.185-.658l-.66-.264c-.13 0-.264.132-.525.264zM358.313 455.494c-.527.264-.924.79-1.188.79l.66.265c.13 0 .264 0 .527-.265.395-.396.922-.66 1.186-.66l-.658-.263c0-.132-.264 0-.527.132zM360.156 456.285c-.395.264-.922.79-1.186.79l.658.264c.133 0 .264 0 .527-.264.396-.396.924-.66 1.188-.66l-.66-.263c-.13-.132-.394 0-.527.132zM361.87 457.076c-.526.263-.923.79-1.187.79 0 0 .66.264.79.264 0 0 .265 0 .528-.396.396-.396.923-.658 1.187-.658l-.658-.264c-.264 0-.397.132-.66.264zM363.584 457.866c-.527.264-.924.79-1.188.79l.66.265c.13 0 .264 0 .527-.263.395-.396.922-.66 1.186-.66l-.66-.263c-.13-.13-.262 0-.526.132zM365.297 458.657c-.396.264-.924.79-1.188.79l.66.265c.13 0 .263 0 .526-.396.395-.396.922-.66 1.186-.66l-.658-.263c-.133 0-.263.132-.527.264zM367.01 459.448c-.527.264-.922.79-1.186.79l.658.264s.264 0 .527-.396c.394-.395.92-.658 1.185-.658l-.658-.264c0 .132-.264.132-.527.264zM368.854 460.238c-.525.264-.922.79-1.186.79l.66.265s.262 0 .525-.264c.396-.397.924-.66 1.188-.66l-.66-.264c-.13 0-.394 0-.526.132zM370.568 461.03c-.527.263-.924.79-1.188.79l.66.264s.264 0 .527-.264c.395-.396.922-.66 1.186-.66l-.658-.263c-.132 0-.396 0-.527.132zM372.28 461.82c-.526.264-.92.79-1.185.79l.658.264s.264 0 .527-.396c.395-.395.922-.658 1.186-.658l-.658-.264c-.132.132-.263.132-.527.264zM373.994 462.61c-.527.264-.922.79-1.186.79l.658.265c.13 0 .264 0 .527-.396.395-.397 1.055-.66 1.186-.66l-.66-.264c0 .133-.262.133-.526.264zM375.707 463.533c-.527.264-.922.79-1.186.79l.66.264c.132 0 .263 0 .526-.395.396-.396.922-.66 1.186-.66l-.658-.263s-.263 0-.527.263zM377.553 464.324c-.527.263-.924.79-1.188.79l.66.264s.264 0 .527-.264c.395-.396.922-.658 1.186-.658l-.658-.264c-.133-.13-.396 0-.527.132zM379.266 465.114c-.527.264-.922.79-1.186.79l.658.265c.13 0 .264 0 .527-.265.395-.396.922-.66 1.186-.66l-.657-.263c-.133-.13-.264 0-.527.132zM380.98 465.905c-.528.264-.923.79-1.187.79l.658.265c.134 0 .265 0 .528-.264.395-.396.922-.66 1.186-.66l-.658-.263c-.133-.13-.264 0-.527.132zM382.69 466.696c-.526.264-.92.79-1.185.658l.658.264c.133 0 .264 0 .527-.264.396-.395.922-.658 1.186-.658l-.658-.264c-.13.132-.263.132-.527.264zM384.404 467.618c-.527.264-.922.79-1.186.66l.658.263c.133 0 .264 0 .527-.263.396-.396.924-.66 1.188-.66l-.66-.263c-.13 0-.262.132-.526.264zM386.117 468.41c-.525.263-.922.79-1.186.658l.66.264c.132 0 .263 0 .526-.264.396-.396.924-.66 1.188-.66l-.66-.263-.527.264zM387.832 469.2c-.527.264-.924.79-1.188.658l.66.264s.264 0 .527-.264c.396-.395.923-.658 1.187-.658l-.66-.264c0 .132-.26.132-.525.264zM389.545 470.122c-.527.264-.924.79-1.188.66l.66.263s.264 0 .527-.264c.395-.395.922-.658 1.186-.658l-.658-.264s-.263 0-.527.264zM391.39 470.913c-.528.264-.923.79-1.187.66l.658.262c.134 0 .265 0 .528-.263.396-.396.924-.66 1.188-.66l-.66-.263c-.13 0-.395.13-.527.263zM393.102 471.704c-.525.263-.922.79-1.186.658l.66.264c.13 0 .262 0 .525-.264.397-.396.925-.658 1.19-.658l-.66-.264c-.132 0-.396.132-.528.264zM394.816 472.494c-.527.264-.924.79-1.188.66l.66.263c.13 0 .264 0 .527-.264.395-.396.922-.66 1.186-.66l-.657-.263c-.132.132-.396.132-.527.264zM396.53 473.417c-.528.264-.925.79-1.32.66l.66.262c.132 0 .263 0 .526-.264.396-.396.924-.66 1.188-.66l-.66-.263s-.13.132-.395.264zM398.242 474.208c-.527.263-.922.79-1.318.658l.66.264c.13 0 .262 0 .525-.264.395-.396 1.054-.658 1.187-.527l-.66-.264c0-.132-.13 0-.395.132zM399.955 474.998c-.527.264-.922.79-1.186.66l.657.263c.133 0 .264 0 .527-.263.396-.396.922-.66 1.186-.66l-.658-.263c-.132.132-.263.132-.527.264zM401.668 475.92c-.527.265-.922.792-1.186.66l.658.263c.133 0 .264 0 .527-.263.396-.396 1.055-.66 1.188-.66l-.66-.263c-.13 0-.263.132-.527.264zM403.38 476.712c-.524.263-.92.79-1.185.658l.66.264c.13 0 .262 0 .525-.264.396-.396 1.055-.658 1.188-.527l-.66-.264c-.13 0-.263 0-.527.132zM405.096 477.634c-.527.264-.924.79-1.188.66l.66.263s.264 0 .527-.264c.395-.396 1.053-.66 1.186-.527l-.66-.264c-.13-.132-.26 0-.524.132zM406.81 478.425c-.528.264-.925.79-1.32.658l.66.264c.132 0 .263 0 .526-.264.396-.395 1.055-.658 1.188-.526l-.66-.264c.132-.132-.132 0-.395.132zM408.52 479.347c-.526.264-.92.79-1.185.66l.658.263s.264 0 .527-.264c.395-.396 1.055-.66 1.186-.527l-.658-.265c0-.132-.263 0-.527.132zM410.234 480.138c-.527.264-.922.79-1.318.66l.66.263c.13 0 .264 0 .527-.263.395-.396 1.053-.66 1.186-.527l-.66-.264c.132 0-.132 0-.396.132zM411.947 481.06c-.527.265-.922.79-1.186.66l.66.263c.132 0 .263 0 .526-.264.396-.396 1.055-.66 1.186-.527l-.658-.264c-.13-.133-.263 0-.527.13zM413.66 481.982c-.527.264-.922.79-1.186.66l.658.263c.133 0 .264 0 .527-.264.395-.395 1.054-.658 1.187-.526l-.66-.264c-.13-.13-.263-.13-.527.132zM415.373 482.773c-.525.264-.922.79-1.316.66l.658.263c.133 0 .264 0 .527-.264.395-.396 1.055-.66 1.186-.527l-.658-.264c0-.13-.133.002-.397.133zM417.088 483.696c-.527.264-.924.79-1.188.658l.66.264c.13 0 .264 0 .527-.264.395-.395 1.053-.658 1.186-.526l-.658-.264c-.133-.13-.263 0-.527.132zM418.8 484.618c-.526.264-.923.79-1.317.66l.658.263c.134 0 .265 0 .528-.263.396-.396 1.055-.66 1.188-.527l-.66-.264c0-.132-.264 0-.395.132zM420.514 485.41c-.527.263-.922.79-1.318.658l.66.264s.262 0 .525-.264c.397-.396 1.056-.66 1.19-.527l-.66-.263c-.002 0-.265 0-.396.132zM422.096 486.332c-.527.263-.924.79-1.318.658l.658.264c.133 0 .264 0 .527-.264.396-.396 1.055-.658 1.186-.526l-.66-.264c.13 0-.13 0-.394.132zM423.81 487.254c-.528.264-.925.79-1.32.66l.66.263c.132 0 .263 0 .526-.264.396-.396 1.055-.66 1.188-.527l-.66-.264c.132 0-.132 0-.395.132zM425.52 488.177c-.526.264-.92.79-1.317.658l.658.264c.134 0 .265 0 .528-.265.396-.395 1.055-.658 1.188-.526l-.66-.265s-.13 0-.395.132zM427.234 489.1c-.527.263-.922.79-1.318.658l.66.264c.13 0 .264 0 .527-.264.395-.396 1.053-.66 1.186-.527l-.66-.263s-.265 0-.396.132zM428.816 490.02c-.527.265-.924.792-1.318.66l.658.264c.133 0 .264 0 .527-.264.396-.396 1.055-.66 1.186-.527l-.66-.264c.134 0-.13 0-.394.13zM430.53 490.944c-.528.264-.923.658-1.32.658l.66.264c.132 0 .263 0 .526-.264.396-.395 1.055-.658 1.188-.526l-.66-.264c.133 0-.13 0-.395.132zM432.242 491.998c-.527.264-1.055.66-1.318.66l.66.395c.13 0 .264 0 .527-.264.396-.397 1.054-.66 1.187-.528l-.66-.264c0-.264-.13-.132-.395 0zM433.824 492.92c-.527.265-1.055.66-1.318.66l.658.263c.133 0 .264 0 .527-.263.397-.396 1.056-.527 1.187-.527l-.658-.396c.132 0-.132.132-.396.264zM435.537 493.843c-.527.264-1.055.66-1.318.66l.657.395c.133 0 .264 0 .527-.264.527-.396 1.055-.66 1.188-.527l-.66-.264c0-.13-.13-.13-.395 0zM437.25 494.766c-.527.264-1.055.66-1.318.66l.66.263c.13 0 .262 0 .525-.265.396-.396 1.055-.527 1.188-.527l-.66-.396c0 .132-.264.264-.395.264zM438.963 495.82c-.527.263-1.055.658-1.318.526l.66.396c.13 0 .264 0 .527-.264.395-.396 1.053-.526 1.186-.526l-.658-.396c-.003.132-.133.132-.397.264zM440.545 496.874c-.527.264-1.055.66-1.318.66l.658.395c.133 0 .264 0 .527-.265.396-.264 1.055-.527 1.188-.527l-.66-.396c.132-.132-.13 0-.395.132zM442.258 497.797c-.527.264-1.055.66-1.318.66l.66.394c.13 0 .262 0 .525-.263.396-.263 1.055-.526 1.188-.526l-.66-.395s-.132 0-.395.132zM443.84 498.85c-.527.265-1.055.66-1.318.528l.658.396c.133 0 .264 0 .527-.264.527-.264 1.055-.527 1.186-.396l-.658-.396s-.13 0-.395.133zM445.42 499.905c-.527.264-1.055.66-1.316.527l.658.396c.13 0 .264 0 .658-.264.527-.396 1.055-.527 1.188-.527l-.66-.396c0 .133-.264.133-.528.265zM447.133 500.828c-.527.263-1.053.658-1.316.526l.658.396c.13 0 .264 0 .527-.264.527-.264 1.055-.526 1.186-.396l-.658-.395s-.264.133-.397.133zM448.715 501.882c-.527.264-1.055.66-1.318.527l.66.395c.13 0 .264 0 .527-.264.527-.263 1.053-.526 1.186-.395l-.658-.396c.13 0-.133.132-.397.132zM450.297 503.068c-.527.264-1.055.658-1.318.526l.657.396s.264 0 .527-.264c.527-.264 1.055-.526 1.318-.396l-.658-.395c0 .002-.263.002-.527.133zM452.01 504.254c-.527.132-1.055.527-1.318.527l.66.397c.13 0 .262 0 .658-.132.527-.264 1.186-.527 1.318-.396l-.527-.397c-.396-.13-.66-.13-.79 0zM453.46 505.31c-.528.13-1.056.525-1.32.395l.66.395c.132 0 .265 0 .66-.132.526-.263 1.054-.395 1.317-.395l-.527-.396c-.264 0-.527 0-.79.132zM454.908 506.494c-.527.132-1.055.527-1.316.396l.658.396c.13 0 .264 0 .527-.132.527-.264 1.055-.396 1.186-.264l-.658-.396c.13-.132-.133-.132-.397 0zM456.49 507.68c-.527.133-1.055.528-1.318.397l.66.395s.262 0 .525-.132c.527-.264 1.055-.395 1.188-.264l-.66-.526c.133 0-.13.13-.395.13zM458.072 508.998c-.527.132-1.055.527-1.318.396 0 0 .658.396.658.527.133 0 .264 0 .527-.13.526-.265 1.054-.397 1.185-.265l-.525-.396c0-.264-.264-.264-.528-.132zM459.52 510.316c-.526.132-1.054.526-1.317.395l.658.528c.134 0 .265 0 .66-.132.528-.264 1.056-.396 1.187-.264l-.527-.526c-.13-.13-.395-.13-.66 0zM461.102 511.634c-.525.132-1.053.396-1.316.264 0 0 .527.527.658.527.133 0 .264 0 .658-.132.527-.264 1.055-.264 1.188-.264l-.527-.528c-.265.132-.53.132-.66.132zM462.42 513.083c-.527.132-1.055.396-1.318.264 0 0 .527.527.66.527.13 0 .264 0 .527-.132.526-.264 1.054-.264 1.315-.132l-.525-.527c-.133-.13-.396-.13-.66 0zM464.002 514.533c-.527.132-1.186.396-1.318.132l.527.527s.265 0 .66-.132c.526-.132 1.187-.264 1.317 0l-.527-.527h-.658zM465.188 516.114c-.527.132-1.055.264-1.318.132l.527.527c.133 0 .264.132.66 0 .527-.132 1.055-.132 1.316 0l-.525-.527c-.133-.132-.397-.264-.66-.132zM466.506 517.564c-.527 0-1.186.264-1.318.132l.527.526s.264.132.658 0c.527-.132 1.188-.132 1.318 0l-.526-.526c-.13-.132-.394-.132-.658-.132zM467.69 519.146c-.526 0-1.185.264-1.317 0l.527.527s.264.132.66 0c.527-.132 1.186-.132 1.316 0l-.527-.527c-.13.13-.395 0-.66 0zM469.01 520.99c-.527 0-1.186.132-1.45-.132l.396.66c.133 0 .264.13.658.13.527 0 1.188 0 1.318.265l-.395-.66c-.133-.263-.264-.263-.527-.263zM469.932 522.704c-.527 0-1.186 0-1.318-.132l.396.658s.264.132.658.132c.527 0 1.188.132 1.318.264l-.395-.658c-.13-.133-.395-.133-.658-.264zM131.91 334.78c0-.13-.265-.13-.528-.13-.264 0-.527 0-.79-.133v.527h.396c.526 0 1.186.132 1.317.264l-.396-.527zM130.59 333.332c.397 0 .79.132.923.263l-.264-.658c0-.132-.264-.132-.527-.264h-.132v.66zM130.59 331.354v.264c.133 0 .133.132.264.132l-.263-.396zM132.04 390.657s-.263-.132-.658-.132c-.264 0-.658 0-.922-.132v.527c0 .132.264.132.527.264.526.132 1.186 0 1.45.264 0-.132-.396-.79-.396-.79zM130.59 389.34c.397 0 .923 0 1.055.263l-.396-.658c-.133 0-.264-.132-.66-.132v.526zM130.59 387.362v.264c.133 0 .133 0 .133.132 0 0 0-.264-.132-.396zM471.25 524.68c-.133 0-.264-.13-.396-.13-.525-.133-1.186 0-1.45-.265l.397.66s.265.13.66.13c.263 0 .526 0 .79.133v-.527zM471.25 583.982c-.133 0-.133-.132-.133-.132l.133.396v-.264zM471.25 582.27c-.396 0-.79-.132-.922-.264l.264.66c0 .13.262.13.525.263h.133v-.66zM471.25 580.557h-.396c-.525 0-1.186-.132-1.316-.264l.264.66c0 .13.264.13.527.13.26 0 .524 0 .788.133l.132-.66zM471.25 526.394c-.396 0-.79 0-.922-.264l.395.66s.264.13.527.13v-.526z"/><g><path d="M237.73 367.463h-1.713c-.396-.79-1.054-1.186-1.845-1.186h-1.45c-.79 0-1.317.264-1.977.396-.132 0-.396-.132-.526-.264.13-.265.262-.528.262-.924 0-.79-.526-1.317-1.45-1.317h-1.448c-.79 0-1.45.526-1.45 1.316 0 .396.132.66.264.923-.132.13-.396.13-.527.263-.657-.132-1.185-.396-1.976-.396h-1.45c-.79 0-1.45.396-1.845 1.186h-1.846c-1.977 0-3.558 1.45-3.558 3.295 0 1.713 1.186 3.295 2.372 4.744l2.9 3.163h.657s3.427-1.45 7.644-1.45 7.643 1.45 7.643 1.45l2.372-3.163c1.187-1.45 2.372-2.9 2.372-4.744.395-1.845-1.45-3.295-3.426-3.295zm-16.868 6.326c-1.317-.133-3.03-.924-3.162-3.032 0-1.317.658-2.372 1.713-2.768v.264c0 .396.264.66.66.66h.526c.13 1.185.79 2.635 2.107 3.557-.263.792-1.186 1.187-1.845 1.32zm5.93-1.846c-.396.526-.79.79-1.187.922-.79-.264-1.58-1.054-2.107-2.108-.527-.923-.66-1.45-.66-2.372 0-.527.264-1.054.66-1.317.526.13.922.263 1.45.263h1.975c1.056 3.16-.13 4.61-.13 4.61zm6.458-1.186c-.527 1.055-1.318 1.845-2.11 2.108-.394-.132-.79-.527-1.185-.922 0 0-1.187-1.45-.264-4.48h1.978c.526 0 .922-.132 1.448-.264.396.263.66.658.66 1.317.133.792 0 1.32-.526 2.24zm1.186 1.58zm4.612-1.58c-.132 2.108-1.845 2.768-3.163 3.03-.658-.13-1.186-.526-1.45-1.317 1.056-1.185 1.714-2.503 1.714-3.82.13.264.263.396.526.396.396 0 .66-.264.66-.66v-.263c1.053.395 1.712 1.45 1.712 2.635z"/><path d="M263.56 445.215c1.713-1.317 3.163-3.03 3.295-4.744.263-1.976-.79-4.084-3.954-4.084h-1.448c-.527 0-1.187.132-1.713.527 1.448.396.657 1.977 1.316 3.426.527 1.186 1.845 1.58 1.58 2.635-.13.66-.395 1.055-1.053 1.582-2.108 1.845-5.535 3.162-8.435 3.162-2.504-.133-4.217-.527-6.062-1.187.658-.79.263-2.372-1.187-2.372.13-1.712-1.187-1.976-1.714-2.107-1.187-.396-3.03.396-4.35.527-1.317.132-1.58-.264-1.845-.527-.13-.132-.13-.396-.263-.527-.263-1.45-.526-4.085-.526-5.535-.13-1.185 0-2.767 0-2.767 1.318 2.504 2.9 4.48 5.8 5.93h.922c-1.582-3.162-1.977-6.588-2.24-9.883l-.132-1.713c-.264-3.56-1.055-6.59-2.636-6.722.396 0 .66-.13 1.055-.13 1.448-.397 2.634-1.32 3.03-2.637.395 1.45.658 3.03.526 4.876-.264 4.612 1.845 6.984 1.845 6.984h.528c.66-.66.923-1.582 1.318-3.69-.132 4.086.527 6.722 1.45 7.907h.395c.924-1.186 1.582-3.03 2.11-5.27-.133.526-.923 6.325.79 9.487h.396c.922-1.45 1.845-3.558 2.504-5.93-.132.527-1.45 8.434 3.162 11.2h.79c0-.526-.13-1.316-.13-2.107-.133-3.953 1.054-7.775 1.58-9.093 2.372-6.326 5.667-14.364 5.667-28.466.13-13.178-5.272-28.992-13.706-28.992-3.822 0-6.194 1.978-8.17 9.094-.528 1.845-1.582 4.744-2.637 7.38-.658 1.713-1.186 3.558-2.24 5.008-1.317 1.845-2.636 2.24-3.558 2.504-.528-.264-.792-.66-.924-1.055.396 0 1.187-.132 1.845-.66.397-.395.792-.79.924-1.58-2.108.527-4.217 0-5.403-1.713-.79-1.055-1.053-1.978-1.185-2.9h1.186c2.24 0 4.613-.922 6.064-3.294.396-.66.79-1.713.79-2.636l1.977-.396c.397-1.45-.79-2.504-2.37-2.636h-1.45c-.396 0-1.187.132-1.45.132 0-1.054-1.317-1.713-2.503-1.186-.396-.66-1.318-1.055-2.372-1.187-2.504-.265-4.613.13-6.59 1.317-1.054.66-2.24 1.317-3.558 1.45-.66-.133-1.187-.265-1.977-.66h-1.055c-.132 0-.264 2.373.79 3.69.923 1.186 2.11 1.317 2.9 1.317h.395c-.396 1.318-1.845 1.978-2.898 2.24-.66-.13-1.318-.526-1.582-.922h-.922c-.132.923 0 3.82 2.898 4.48 0 0-1.977 1.713-2.372 4.612-.526-1.054-.922-2.636-1.58-5.666 0 0-1.978-6.458-2.637-10.807-.79-5.14-2.372-6.062-5.27-6.192h-.397c-1.977 0-3.82.658-5.402 1.845 0 0-11.334 7.512-11.334 31.76.264 13.44 3.69 19.636 6.063 26.093.527 1.45 1.977 4.612 1.977 9.093 0 1.054 0 1.58-.132 2.107h.66c.13 0 4.743-1.186 2.635-11.333.79 2.636 1.45 3.953 3.426 6.062h.396s1.186-1.186.13-8.83c.397 1.714 1.715 3.69 2.9 4.48h.396c.527-1.316.922-4.216.527-9.224.132 1.45.79 3.69 2.24 4.876h.263s.66-1.58.79-4.217v.265c0 3.82 1.582 7.248.66 12.65h.527c.132 0 1.58-.79 2.636-4.35l.262 4.48c0 1.056.132 1.98-.526 2.505-.396-.132-.923-.264-1.318-.526-.66-.264-1.317-.66-1.977-.66h-1.712c-.264 0-.396.133-.527.265h-1.186c-1.713 0-2.108 1.316-2.108 1.844-4.612-.264-8.17 4.35-11.73 4.612-1.054-.132-2.37-.396-3.557-1.317 0 0 1.844-1.056 1.976-3.428 0-1.977-1.45-2.504-1.45-3.69 0-.79.132-1.186.66-1.977h-.923c-3.295 1.187-5.403 3.03-5.403 5.535 0 3.69 3.953 5.403 7.38 6.326-.132.13-1.318.395-1.58.658h-1.847c-.396 0-.79 0-1.186.132-3.295.66-2.24 4.35-4.48 6.063h.922c.922-.133 1.976 0 2.898 0 3.82 0 5.008-1.98 5.667-4.877.526-.396 1.054-.923 1.58-1.187 1.318.132 3.032 0 4.745-.66v.528c-4.876 2.636-1.845 6.984-4.876 9.225h.922c.923 0 1.978-.132 3.163-.264 3.69-.527 5.402-2.9 5.14-5.667-.133-1.978-1.714-2.505-1.582-3.954.264-1.45 1.845-2.11 3.294-2.24 2.11.263 4.876 1.713 6.854 2.37 0 0-2.11 4.482-.132 8.436h.658s1.45-.132 2.768-1.187c0 1.187.66 2.768 2.108 3.954h.66s1.712-.397 2.898-2.505c.527 1.58 1.845 3.69 4.48 4.876h.66s2.766-1.844 3.557-5.402c.66.79 2.108 1.713 3.953 1.977h.527s.923-1.186.79-4.085c.66.66 1.714 1.186 3.69 1.58h.527s1.582-2.635-.922-7.773c.658-.132 1.845-.527 2.9-.527.657.396 1.58.922 1.448 1.58 0 .397-.66 1.32-.66 2.11-.13 2.37 1.715 3.82 4.613 3.69h2.107c1.714-.133 3.163-.66 4.613-1.715-1.45.132-2.373 0-3.295-.79-.396-.396-.923-1.187-1.713-2.108-.66-.66-1.45-1.187-2.768-1.45-.264-.264-.66-.79-.923-1.317 2.11.658 4.745 1.054 6.854 1.054.923.132 1.846.396 2.372 1.055 1.187 1.844 1.582 4.084 6.458 4.084h1.054c1.714 0 3.163-.922 3.427-2.372.264-1.054.132-1.977-.396-2.9h-1.188c-.263.66-1.054 1.188-2.108 1.45h-.132c-1.58-.395-2.372-1.713-4.35-1.58-.395 0-1.58.263-2.24 0 3.56-.79 5.01-2.24 7.117-2.505 1.054.132 2.24.396 2.898.79h1.055l.132-.395c-.396-.396-.79-.658-1.318-.922h1.58l.133-.396c-.785.135-2.63-1.842-4.08-1.58z"/><path fill="#CA9C4D" d="M232.064 438.626c2.108-3.82 2.108-9.488 2.24-10.938 0-.396.132-.132.132 1.713 0 2.24.527 5.404 1.45 7.38 1.186-1.054 1.713-4.875 1.845-9.487 0-.396.264.79.264 1.58 0 0 .79 8.436 5.8 10.412-1.582-3.163-1.978-6.59-2.24-9.884l-.133-1.712c-.263-3.69-1.054-6.854-2.898-6.722-.526.132-1.186.527-1.317 1.318-.132-.79-.66-1.45-1.713-1.45-1.714-.13-3.822 1.582-3.295 5.403-.66-.132-.79-.922-.79-1.713-2.9 1.317-1.846 6.984-2.24 10.016 1.448-.264 2.107-4.744 2.24-5.535.13-.396.13-.132 0 1.58-.266 2.9-.266 5.67.657 8.04zm-8.303 1.187c.792-1.714 1.45-4.218 1.45-7.644 0-7.25-1.976-10.676-5.93-11.993-3.03-.923-3.163 1.054-3.163 1.054-.264.924.264 1.98.264 1.98-.526 0-1.054-1.056-1.185-1.98l-.132-.395c-.264-2.37.922-4.48.922-4.48-1.186.79-1.713 1.846-1.977 3.295-.66 3.56-.264 8.303-.264 8.303 0 3.82 1.187 8.038-.396 12.65 0 0 3.69-1.58 3.427-12.256 0 0 1.317 6.59 3.69 10.41 0 0 1.186-4.084-.133-12.65 0 0 1.318 2.24 1.846 6.722.66 4.347 1.188 6.06 1.583 6.983zm12.784-52.187c-1.58 1.45-3.82 1.582-4.876 1.45 0 .526 0 1.317.132 1.977 2.24 0 4.612-.923 6.063-3.295.396-.66.79-1.713.79-2.636-.528.66-1.45 1.977-2.11 2.504zm9.225 59.96c.395-.13.79-.13.79-.13 2.768.395 3.427 1.317 7.644 1.317 2.24 0 4.612-.527 7.116-2.108.923-.527 1.45-.79 2.504-.66.923.133 1.58.528 3.03 1.582l.133-.395c-.132-.264-1.977-2.24-3.56-1.977 1.715-1.318 3.164-3.03 3.296-4.745.264-1.977-.79-4.085-3.953-4.085-.527 0-1.187.132-1.714.527 1.45.396.396 1.977 1.055 3.426.528 1.187 1.846 1.582 1.582 2.636-.132.66-.396 1.055-1.055 1.582-2.108 1.845-5.534 3.294-8.565 3.294s-5.008-.526-7.116-1.186c.66-.79.264-2.24-1.187-2.372.13-2.24-2.11-1.845-2.11-1.845-.526 0-1.185.132-2.107.395-.79.132-1.45.264-2.768.396-.66 0-.922-.396-1.186-1.054-.397-1.187-.66-4.35-.66-6.063 0 .924-.132 1.846-.396 2.505 0 0 .132 1.977.264 3.56.264 1.58.79 1.844 2.24 1.844.79 0 1.845-.265 2.636-.397.66-.132 1.317-.396 1.977-.396.792 0 1.188.396 1.056.923 0 .132-.132.396-.264.527 1.055 0 1.713.658 1.713 1.054.132.792-.396 1.45-1.45 1.32 0-.528-.263-1.32-1.054-1.846-.395-.396-1.844-.79-3.688-.66v.265c.658 0 1.977.263 2.768.657.658.264 1.186.79 1.186 1.45 0 .922-.527 1.845-1.45 2.372 0-.133-.13-.133-.13-.265 0-.396.395-.79.526-1.055-.396-.263-1.055-.526-.923-1.317-2.24.264-2.9-.923-3.296-1.45l-.395.132c.525.79 1.185 1.45 1.316 1.846.132.265.132.79-.527.923.395 0 .395.396.395.66 0 .79-.527 1.45-1.45 1.844-.526.132-1.317.264-2.108-.132.923-.132 1.318-.395 1.714-.922.265-.527-.13-.923.397-1.055-1.055 0-1.318-.79-1.318-1.45-.265-.79-.528-1.054-.66-1.45l-.395.133.396 1.056c-.79-.132-1.58-.132-2.372-.132-.79.132-1.713.264-2.24.396-.395.132-.658-.264-.658-.264.132.396-.264.527-.527.527-.264.132-1.318.395-1.713.395 0-.658.264-1.45 1.054-1.845 0 0 .527-.264 1.318-.527.79-.132 1.713 0 2.636 0 1.186-.132 1.713-1.054 1.713-2.767 0-1.32-.526-2.9-.13-3.823-.924-.264-1.188-3.295-1.188-3.295-.526 3.69-2.504 5.27-2.504 5.27-.658-.657-.922-2.37-.922-2.37.132 5.007-3.163 6.325-3.163 6.325-2.504-.923-3.294-3.822-3.294-3.822-.265.527-.66.79-.66.79-1.58-2.24-1.845-5.534-1.977-6.324 0-.13 0-.263 0 0 .132 4.218-.923 5.272-.923 5.272-.66-.658-1.186-1.317-1.45-1.713l-.13.13c.263.792 0 5.01 0 5.01 0 1.054.13 1.58.92 1.58.528 0 .792-.264 1.583-.132.396 0 1.054.132 1.58.79 0 0 .528-.13 1.187.133.66.265.923.924 1.055 1.582-.527 0-1.713-.132-2.108-.263-.132 0-.66-.265-.66-.792-.13.396-.263.527-.657.527-.66 0-1.582-.527-2.11-.527-.657 0-1.185.132-1.712.79-.527.527-1.055 1.055-1.713 1.055-.264 0-.396-.132-.66-.132 0 0-.395-.263-.526.265-.397.264-.79.79-.66 1.317-.658-.263-1.054-.658-1.054-1.317s.396-1.055.66-1.055c.13-.526.657-.79.657-.79.396-.264 1.45-.264 1.977-.264.396 0 1.055-.66.923-.79 0 0-.132-.133-.396-.133-.132 0-.396.264-.66.396h-.657c-1.45 0-2.108.79-3.03.79-.397 0-.66-.264-.924-.66-.264 0-.527.133-.527.133-.396.396-.527.923-.527 1.713-.66-.264-1.187-1.054-1.187-1.713 0-.527.132-1.317 1.055-1.45 0 0 .79 0 1.055.396 0-.396.396-.396.66-.396.922 0 1.58 0 3.558.132v-.396c-1.582-.264-2.9-.396-4.35-.396 0 0-.264 0-.264.264 0 0 0-.264-.264-.264-.923-.264-1.846.396-1.846 1.45-.396 0-.79-.528-.922-.923-.132-.79.132-1.45 1.054-1.845 1.187-.395 1.846.527 1.846.527 0-.132.132-.66.79-.66.79-.13 2.24 1.056 4.086 1.188.922 0 1.58-.527 1.58-1.45 0-.79-.263-3.426 0-3.953-.658-.527-.79-4.217-.79-4.217-.132.66-.264 1.58-.396 1.977l.396 4.35c0 .526.264 2.503-.922 2.503-.527 0-1.45-.396-1.977-.527-.79-.263-1.45-.79-2.24-.526-.396.132-.66.396-.66.79-.263-.264-.658-.395-1.054-.395-1.448 0-2.37.79-2.503 2.108-4.744-.527-7.775 4.35-11.597 4.35 0 0-2.768.263-4.744-1.32 0 0 1.845-1.053 1.977-3.425 0-1.977-1.45-2.504-1.45-3.69 0-.79.133-1.186.66-1.977-3.295 1.187-4.876 3.03-4.876 5.535 0 3.295 3.294 5.403 6.853 6.325-.264.132-1.055.66-1.318.79-.66-.13-1.713-.263-2.768-.13-3.294.658-2.898 4.348-5.14 6.06.923-.13 1.978 0 2.9 0 3.82 0 5.007-1.976 5.666-4.874.527-.396 1.055-.923 1.58-1.187 1.846.264 4.218-.264 6.46-1.45-.265.264-.265.923-.265 1.318-4.876 2.636-2.504 6.984-5.403 9.225.923 0 1.977-.132 3.163-.264 3.69-.526 5.402-2.898 5.14-5.666-.132-1.977-1.714-2.504-1.582-3.954.264-1.713 2.504-2.24 4.086-2.24 2.107 0 5.27 1.714 7.51 2.504 0 0-2.504 4.744-1.054 8.435 0 0 2.768-.396 4.35-2.9 0 0-.528 3.296 1.186 5.536 0 0 2.898-.658 3.953-5.007 0 0 0 4.876 4.085 7.512 0 0 3.822-2.504 3.69-7.38 0 0 1.317 3.294 4.35 4.085 0 0 1.448-1.713.658-6.062 0 0 1.45 2.503 4.48 3.558 0 0 1.58-2.636-.923-7.775.923-.263 2.768-.658 4.218-.658.79.396 1.317 1.187 1.186 1.978 0 .396-.397.922-.527 1.713-.264 2.9 2.107 4.085 5.27 3.82 1.715-.13 3.164-.657 4.613-1.712-1.45.133-2.372 0-3.294-.79-.396-.395-.923-1.186-1.714-2.108-.658-.658-1.45-1.186-2.768-1.45-.263-.263-.658-.79-1.054-1.317 2.504.79 5.535 1.055 7.644 1.055 1.186 0 1.977.264 2.504 1.054 1.186 1.846 2.636 4.086 6.59 4.086 1.713 0 3.162-.923 3.426-2.372.264-1.187.132-1.977-.396-2.9-.396.924-1.58 1.714-3.03 1.45-1.846-.264-2.637-1.845-4.745-1.713-.397 0-1.582.264-2.24 0 3.82-.79 5.27-2.504 7.51-2.636 1.055-.133 2.505.263 3.56.79l.13-.396c-1.053-1.054-2.503-1.45-4.216-1.186-1.845.264-5.14 2.767-9.488 2.504-4.744-.264-5.667-1.45-8.17-1.582.13-.132.13-.396.263-.527.52-.134.914-.134 1.31-.266zm-49.683 2.768h-.527s-.396 0-.66-.132l1.056-.658c4.876 0 6.984-4.218 12.124-4.086.132.264.263.527.79.79-6.59 1.056-8.434 3.955-12.783 4.086zm39.93-.526c-.396-.527-.79-.79-1.317-.79l.264 1.58s1.054 5.27-.527.66l-.79-2.24h-.133c-.66.13-1.45.395-2.636.658l.132 2.24s.132 6.853-.66.658l-.525-2.767c-.923.132-2.108.263-3.56.263-.658 0-1.185 0-1.844-.13l-.395 2.503c-.923 6.062-.66-.66-.66-.66l.133-1.976c-.922-.132-1.713-.264-2.504-.396h-.132l-.527 1.582c-1.45 4.744-.526-.66-.526-.66l.262-1.185c-.526-.132-1.054-.264-1.45-.264.397-.527.792-1.187 1.45-1.187.264 0 .527 0 .79.132 1.45.264 3.823.66 5.668.66 3.427 0 5.535-1.055 8.17-1.318 1.187-.132 1.978.526 2.768 1.58-.396.926-.924.926-1.45 1.058zm4.744-64.97c.397-1.45-.79-2.504-2.37-2.636-2.9 0-6.458 2.9-6.59 6.194 4.876 0 5.535-3.822 7.38-4.085.66.002 1.32.133 1.58.528zm-19.37-6.193s3.426-1.45 7.643-1.45c4.218 0 7.644 1.45 7.644 1.45l2.372-3.163c1.186-1.45 2.37-2.9 2.37-4.744s-1.712-3.295-3.82-3.295c-.396 0-.79 0-1.187.132h-.13c-.134.132-.265.132-.265.264-.132-1.055-1.055-1.714-1.978-1.714-1.054 0-1.58.527-2.767.527-.132 0-.66 0-1.187-.396.132-.264.264-.527.264-.923 0-.79-.527-1.317-1.45-1.317-.79 0-1.45.527-1.45 1.317 0 .396.133.66.265.923-.527.264-1.187.396-1.187.396-1.054 0-1.713-.527-2.767-.527-.922 0-1.845.66-1.977 1.713 0-.133-.132-.265-.263-.265h-.132c-.264-.132-.66-.132-1.187-.132-1.976 0-3.82 1.45-3.82 3.295 0 1.713 1.186 3.295 2.372 4.744l2.637 3.163zm14.76-10.016s0-.132 0 0c.13.13.263.263.526.263.396 0 .66-.264.66-.66 0-.13-.133-.395-.133-.395h.396c1.58 0 2.898 1.318 2.767 3.03-.264 2.77-3.163 3.032-4.218 3.032-.79 0-1.45-.396-1.846-1.45 1.054-1.317 1.845-2.634 1.845-3.82zm-6.194-1.977s.13 0 0 0c.396.66 1.186.79 1.713.79.79 0 1.58-.526 2.24-.526.79 0 1.317.658 1.317 1.45s-.132 1.317-.66 2.37c-.658 1.32-1.844 2.24-2.767 2.24-.66 0-1.317-.263-1.977-1.053.133 0-1.186-1.714.133-5.27zm8.04 9.224l-.528.79c-2.504-1.054-5.403-1.58-8.303-1.58s-5.8.526-8.303 1.58l-.527-.79c2.768-1.055 6.194-1.58 8.83-1.58s6.062.395 8.83 1.58zm-13.707-8.83c.79 0 1.45.527 2.24.527.395 0 1.316-.132 1.713-.79 1.45 3.558 0 5.27 0 5.27-.66.79-1.318 1.055-1.978 1.055-.922 0-2.108-.923-2.767-2.24-.527-.924-.66-1.45-.66-2.373s.528-1.45 1.45-1.45zm-6.59 3.69c0-1.712 1.186-3.03 2.768-3.03h.395c-.13.132-.13.264-.13.396 0 .396.263.66.657.66.264 0 .396-.133.527-.397 0 1.318.79 2.636 1.713 3.822-.395 1.054-1.054 1.317-1.845 1.45-.923.263-3.822-.133-4.085-2.9zm-20.56 63.784c.528 1.45 1.715 5.14 1.583 9.094 0 .79 0 1.58-.132 2.108 0 0 5.14-1.054 2.24-12.783-2.635-9.357-3.558-19.768-3.03-24.644 0 0 .527-4.218.66.132.13 2.372 1.712 25.038 6.588 32.154 0 0 1.317-1.186 0-9.225-1.318-8.04-2.108-10.674-2.504-19.24-.132-.923.264-5.8.79 0 .396 3.56 1.318 19.108 5.008 24.116.527-1.45 1.055-4.48.396-10.016-.658-6.59-1.054-9.488-1.054-9.488s-.527-6.722.527-.66c0 0 .923 4.744 1.45 9.094.527 4.35.79 5.798 1.713 6.72 0 0 1.055-2.635.79-6.983-.263-5.402 1.846-9.75 5.404-10.146-.527.66-.79 1.45-.79 2.24.13 1.45 1.316 2.108 3.162 2.504 2.897.66 3.952 2.372 4.216 2.636 1.845 2.24 2.372 5.667 2.372 9.62 0 3.163-.66 5.667-1.45 7.775 0 0 .264 2.503 2.637 3.82 0 0 .79-.264 1.58-1.317.792-1.318 1.055-3.163.528-6.984-.396.394-.79.92-1.714 1.185.922-3.953-1.318-11.333 3.294-13.047.66-2.636 2.768-3.69 4.35-3.558.79.132 1.317.396 1.58.66 0 0 1.055-.66 1.582-3.032.66-3.427-2.24-3.954-2.24-3.954 2.372-2.635 1.055-6.325 1.055-6.325s-1.58.263-2.898-.792c-1.318-1.054-.396-1.977-.396-1.977 1.58 2.505 4.48 1.188 4.48 1.188 3.69-1.846 5.14-6.458 6.063-13.574.13-.922.657-1.054 1.448-1.317.79-.264 2.24-.79 2.768-1.055 1.317-.658 1.977-1.845 2.108-3.82 0 0 .264-1.714-.396-5.01 0 0 .264.397.264.528l.132.264c1.186 2.504 3.162 4.876 4.35 4.35 1.054-.528.79-3.296 0-5.14l-.265-.792s.395.66.395.79c1.713 3.296 3.427 5.536 4.217 5.404.66-.132.396-1.45 0-2.372l-.396-.923.527.924c.264.396.923 1.45.923 2.372 0 .66-.396 1.054-.66 1.054-.922.264-1.844-.395-3.558-3.03.132 1.186.396 2.898-.658 3.426 0 0-2.24 1.187-4.35-3.294.79 3.82-.263 5.534-2.24 6.59-.658.263-1.45.658-2.24.92-.263.133-.526.133-.79.265-.264 3.56-.923 6.854-2.108 9.49 0 0 1.977 3.293 3.953 2.634 1.977-.657 2.504-7.38 2.504-11.2 0 0 0-1.713.13.132.133 1.58.66 8.565 2.505 8.697.923 0 1.713-2.373 1.713-7.513 0-.79-.132-2.635-.132-2.635s-.13-1.978.132-.132c.264 1.845 1.055 9.225 3.56 8.83 1.712-.265 1.976-5.8 1.712-8.698 0 0 0-.132.132.395 0 0 1.055 9.884-1.45 10.543 0 0-2.24.527-3.294-4.48 0 0 .396 5.27-1.977 5.535-2.24.264-3.162-3.56-3.162-3.56s-.132 5.272-2.636 5.668c-2.768.527-4.744-3.03-4.744-3.03-1.054 2.107-2.636 3.03-2.636 3.03.923 3.426-.658 5.27-1.186 5.798-.527.528-.132-.13-.132-.13.79-2.768-.132-4.745-.132-4.745-.396.264-.923.264-.923.264.79 2.767-.396 5.798-.396 5.798 3.82 2.504 1.45 7.775 1.45 7.775 2.24-.66 3.688-2.504 3.294-5.14 1.317 1.845 1.977 4.217 1.713 7.38-.263 4.35.792 6.984.792 6.984.922-.923 1.186-2.372 1.713-6.72.79-6.195 1.45-9.095 1.45-9.095v-.132c1.186-5.402.526.79.526.79s-.526 4.086-1.054 9.49c-.526 5.402-.13 8.565.396 10.015 3.56-5.14 4.612-20.558 4.876-24.116.527-5.668.79-.924.79-.133v.132c-.395 8.565-1.186 11.2-2.503 19.24-1.318 8.038 0 9.224 0 9.224 4.876-7.116 6.59-29.782 6.59-32.154.13-4.35.658-.132.658-.132.527 4.876-.396 15.286-3.03 24.643-2.9 11.73 2.24 12.784 2.24 12.784 0-.527-.133-1.317-.133-2.108-.132-3.953 1.055-7.775 1.58-9.093 2.374-6.326 5.668-14.364 5.668-28.465.132-13.18-5.27-28.993-13.705-28.993-3.822 0-4.876 1.714-6.984 8.698-.528 1.845-1.583 4.744-2.637 7.38-.66 1.845-1.187 3.558-2.24 5.008-1.714 2.373-3.03 2.77-4.086 2.9-.922 0-1.45-.66-1.58-1.187.658 0 2.503-.264 2.767-2.24-2.108.527-4.217 0-5.403-1.713-1.316-1.845-1.316-3.427-1.316-5.008.132-2.108 1.186-3.822 2.24-4.744l.396-.396c-.79-.264-1.714-.527-2.504-.527.264.264.395.527.264 1.055-.132.79-.66 1.186-1.055 1.186-.66 0-.923-.396-.923-1.186 0-.396.132-.79.527-1.055h-.397c-.79.132-1.054.66-1.054 1.318s.395.922.92 1.054c-.92.132-1.58-.264-1.712-.922 0-.396 0-.79.396-1.055-.79.264-1.45.66-1.977.923.79-1.187 2.24-2.108 4.217-2.24 1.317 0 2.768.395 3.82 1.186.528-.397 1.32-1.055 1.846-1.187 0-1.055-1.317-1.714-2.504-1.187-.395-.66-1.317-1.055-2.372-1.186-1.845-.132-3.82.526-5.14 1.317-1.317.79-2.635 1.58-4.35 1.45-1.053 0-1.712-.264-2.635-.79-.133 0-.397 2.24.79 3.557 1.45 1.845 3.69 1.318 3.69 1.318-.396 1.58-1.978 2.372-3.295 2.372-1.055.132-2.108-.396-2.504-1.055-.13.922 0 3.82 2.9 4.48 0 0-1.318 2.107-1.846 5.007 0 0 .66.923 1.714.66-.66.658-1.45.395-1.45.395-.658-.132-1.186-.79-1.58-1.187-.66-1.054-.924-2.636-1.714-5.798 0 0-1.978-6.458-2.636-10.807-.79-5.14-2.372-6.062-5.27-6.193-4.48-.132-8.304 3.426-10.808 9.093 0 .132-.132.132-.132.264-3.162 7.116-4.876 15.42-4.744 24.248.926 13.838 3.825 20.03 6.197 26.49zm-.13-41.643c.13-.66.13-.396.13-.396-.13 3.032.397 8.963 2.11 9.226 2.37.396 3.03-7.512 3.162-9.488.264-1.977.132.132.132.132s-.132 1.977-.132 2.768c0 5.403 1.055 8.04 2.108 7.907 1.977-.132 2.108-7.512 2.24-9.225.132-1.978.132-.132.132-.132 0 4.085.79 11.07 2.9 11.86 2.107.66 3.688-2.768 3.688-2.768-1.186-2.768-1.845-6.325-2.108-10.147-.264-.132-.527-.264-.79-.264-.79-.397-1.582-.66-2.24-1.055-1.978-1.055-3.03-2.9-2.24-6.984-1.978 4.745-4.218 3.427-4.218 3.427-1.054-.527-.79-2.372-.658-3.558-1.582 2.766-2.636 3.425-3.427 3.16-.133 0-.66-.395-.66-1.185 0-.923.66-2.108.923-2.504l.527-.922s-.264.923-.396 1.055c-.396.922-.66 2.372 0 2.636.66.13 2.372-2.24 4.217-5.8l.397-.79-.264.79c-.79 2.108-1.054 5.008 0 5.535 1.187.527 3.163-1.977 4.35-4.612l.13-.264.265-.528c-.527 3.427-.396 5.403-.396 5.403.132 2.108.79 3.426 2.108 4.085.527.264 1.978.923 2.768 1.187.79.264 1.318.526 1.45 1.45.658 8.17 2.504 12.255 5.666 12.387 0 0 2.24.264 2.9-1.055 0-.133.13-.133.13-.265h.133c.396.132.66.396.66.923 0 .396-.265.79-.528 1.318-.528.922-1.32 2.108-1.188 3.953.132 1.58.527 2.898 1.318 3.557 0 0 1.45 1.45 3.558 1.45h.264c0 .132-.132.132-.132.132-2.504 1.053-4.48-.66-4.48-.66-1.317-1.054-1.977-2.9-2.108-3.82-.264-1.32 0-3.164.658-4.087-4.35.132-5.798-2.898-5.798-2.898s-1.977 4.085-4.612 3.69c-2.504-.397-2.636-5.932-2.636-5.932s-.923 4.086-3.163 3.69c-2.37-.264-1.976-5.93-1.976-5.93-.923 5.402-3.295 4.743-3.295 4.743-2.634-.524-1.58-11.2-1.58-11.2z"/></g></svg>