<svg xmlns="http://www.w3.org/2000/svg" width="985.189" height="196.908" viewBox="96.729 195.291 985.189 196.908"><linearGradient id="a" gradientUnits="userSpaceOnUse" x1="823.456" y1="488.377" x2="1081.972" y2="488.377" gradientTransform="translate(-.055 -195.14)"><stop offset="0" stop-color="#9D0E1C"/><stop offset=".108" stop-color="#B00C21"/><stop offset=".24" stop-color="#C30A26"/><stop offset=".358" stop-color="#CE0829"/><stop offset=".448" stop-color="#D3072A"/><stop offset=".596" stop-color="#D00829"/><stop offset=".714" stop-color="#C90927"/><stop offset=".823" stop-color="#BE0B25"/><stop offset=".925" stop-color="#AD0D20"/><stop offset="1" stop-color="#9D0E1C"/></linearGradient><path fill="url(#a)" d="M952.575 316.964c25.594 11.273 80.312 34.933 106.252 50.354 8.358 4.97 18.916 12.64 23.09 23.864v-49.04c-4.652-12.17-22.894-23.285-52.21-37.86-25.34-12.597-50.814-23.26-76.964-34.77-25.596-11.276-80.313-34.936-106.252-50.355-8.36-4.97-18.918-12.638-23.09-23.865v49.04c4.65 12.17 22.896 23.287 52.21 37.86 25.34 12.596 50.816 23.26 76.965 34.772z"/><linearGradient id="b" gradientUnits="userSpaceOnUse" x1="823.456" y1="466.648" x2="1081.972" y2="466.648" gradientTransform="translate(-.055 -195.14)"><stop offset="0" stop-color="#CA0928"/><stop offset=".5" stop-color="#C10B25"/><stop offset="1" stop-color="#CA0928"/></linearGradient><path fill="url(#b)" d="M1029.707 304.283c-25.34-12.598-50.814-23.26-76.964-34.772-25.594-11.274-80.313-34.934-106.252-50.353-8.36-4.972-18.916-12.637-23.09-23.865v5.857c3.35 7.205 9.078 14.185 19.89 20.722 25.83 15.612 80.67 39.098 106.265 50.365 26.145 11.517 51.617 22.226 76.98 34.775 18.262 8.798 32.696 17.207 39.862 22.27 7.888 5.59 12.478 10.32 15.52 18.443v-5.583c-4.65-12.17-22.894-23.285-52.21-37.86z"/><linearGradient id="c" gradientUnits="userSpaceOnUse" x1="823.454" y1="510.119" x2="1081.972" y2="510.119" gradientTransform="translate(-.055 -195.14)"><stop offset="0" stop-color="#CA0928"/><stop offset=".5" stop-color="#C10B25"/><stop offset="1" stop-color="#CA0928"/></linearGradient><path fill="url(#c)" d="M1062.034 364.615c-25.826-15.61-80.665-39.086-106.265-50.36-26.143-11.51-51.98-22.555-76.88-34.712-18.14-8.853-34.938-18.423-41.017-23.02-6.504-4.93-11.19-9.167-14.475-17.747v5.555c4.652 12.172 22.896 23.288 52.21 37.86 25.34 12.598 50.814 23.262 76.965 34.773 25.594 11.273 80.312 34.933 106.252 50.354 8.36 4.97 18.916 12.64 23.09 23.864v-5.88c-3.348-7.183-9.065-14.153-19.88-20.685z"/><path fill="#D73138" d="M1080.68 385.473h.004c.416.045.918 0 1.063.18 0 0-.28-.517-.28-.522-.047-.02-.174-.087-.467-.074-.427.02-.896-.07-.964-.183l.258.465c.035.053.19.11.386.135zM1080.027 384.18c.43.022.93-.058 1.093.126 0 0-.313-.492-.315-.5-.055-.027-.183-.092-.477-.053-.434.04-.903-.04-.988-.15l.285.45c.038.062.202.107.402.127zM1079.34 382.902c.424.02.9-.086 1.06.092 0 0-.307-.486-.307-.494-.053-.022-.18-.076-.48-.04-.41.046-.895.003-.976-.103l.296.44c.043.046.198.103.407.105zM1078.576 381.66h.016c.418 0 .907-.113 1.082.045 0 0-.353-.46-.353-.468-.048-.026-.18-.07-.473-.026-.433.07-.896.042-.98-.075l.3.438c.045.057.207.087.41.087zM1077.806 380.423c.42-.004.896-.13 1.07.025l-.343-.465c-.05-.027-.188-.068-.483 0-.434.08-.9.074-.996-.043l.34.418c.036.054.216.085.412.065zM1076.958 379.26v-.007c.427-.028.897-.182 1.088-.028 0 0-.37-.452-.38-.452-.057-.014-.193-.053-.486.016-.42.097-.875.097-.98 0l.34.408c.046.05.216.076.418.06zM1076.097 378.09c.427-.056.894-.208 1.08-.056 0 0-.375-.453-.397-.453-.052-.01-.194-.05-.477.042-.427.112-.895.127-.995.03l.362.397c.048.055.226.067.427.04zM1075.166 376.98c.422-.066.882-.24 1.08-.1l-.406-.426c-.057-.02-.2-.06-.483.043-.407.13-.877.156-.98.06l.364.388c.052.056.223.066.426.034zM1074.215 375.876c.432-.094.896-.283 1.076-.143.007 0-.403-.41-.416-.41-.052-.013-.203-.035-.48.072-.41.148-.882.197-.988.104l.39.372c.05.042.22.047.42.004zM1073.23 374.82c.404-.082.858-.293 1.058-.164 0-.002-.433-.396-.438-.398-.043-.016-.188-.035-.47.088-.388.142-.858.208-.974.113l.385.362c.06.05.23.05.44 0zM1072.207 373.805v-.02c.418-.112.858-.335 1.058-.2.007 0-.425-.392-.435-.387-.053-.01-.205-.027-.484.1-.393.168-.857.254-.978.168l.415.34c.05.046.22.035.424 0zM1071.14 372.812c.412-.115.854-.366 1.063-.246 0 0-.457-.36-.457-.367-.047-.004-.204-.024-.47.1-.4.185-.847.28-.97.194l.417.336c.05.052.22.035.417-.018zM1070.072 371.824c.396-.11.84-.365 1.042-.258 0 0-.448-.36-.45-.37-.058 0-.212-.016-.476.132-.396.193-.847.32-.972.226l.43.32c.06.04.23.025.426-.05zM1068.962 370.914c.39-.14.82-.414 1.025-.308 0 0-.462-.34-.475-.34-.056 0-.195-.005-.463.14-.38.2-.824.324-.955.237l.435.32c.062.03.223.016.432-.05zM1067.826 370v-.003c.4-.14.813-.416 1.027-.31 0 0-.476-.344-.478-.353-.057 0-.203 0-.45.146-.378.21-.83.354-.96.273l.444.295c.06.04.222.015.416-.047zM1066.663 369.14c.4-.164.812-.454 1.032-.367 0 0-.487-.304-.497-.313-.052 0-.2 0-.454.154-.37.234-.826.38-.948.305l.45.288c.065.043.23.002.417-.07zM1065.49 368.285c.383-.168.8-.46 1.018-.37 0 0-.492-.314-.505-.314-.054 0-.192 0-.446.172-.36.227-.806.38-.93.31l.443.28c.058.034.233-.003.42-.077zM1064.302 367.46c.388-.186.793-.498 1.01-.405 0-.015-.498-.292-.503-.292-.06 0-.205.008-.454.176-.364.248-.812.414-.938.343l.473.274c.05.03.226-.01.412-.097zM1063.08 366.678h.004c.37-.187.77-.498 1-.43l-.513-.284c-.053 0-.198.02-.44.185-.365.258-.797.426-.925.364l.455.255c.077.04.236-.007.42-.092zM1061.866 365.892c.378-.186.76-.508.98-.436 0 0-.5-.275-.514-.275-.045 0-.192.013-.433.185-.355.258-.786.434-.922.385l.48.24c.056.04.22-.008.408-.098zM1060.63 365.146v-.008c.364-.19.75-.52.978-.45 0 0-.517-.263-.524-.27-.05.007-.202.02-.438.212-.345.256-.785.438-.91.375l.48.257c.052.02.222-.026.413-.116zM1059.363 364.412c.377-.205.765-.53.977-.467 0 0-.5-.254-.514-.254-.046 0-.196.017-.44.198-.34.27-.775.445-.907.383l.478.257c.062.026.228-.026.405-.115zM1058.115 363.682v-.007c.374-.198.746-.533.967-.47 0 0-.504-.255-.51-.255-.057.004-.205.016-.44.21-.338.255-.772.45-.91.386l.49.252c.055.026.22-.02.403-.116zM1056.86 362.94c.372-.2.74-.54.967-.47 0 0-.51-.248-.52-.248-.05 0-.19.01-.43.195-.352.272-.78.463-.915.408l.48.236c.07.035.24-.014.42-.12zM1055.584 362.24c.375-.2.75-.54.98-.484 0 0-.522-.246-.528-.25-.054.004-.2.03-.436.213-.343.272-.77.46-.903.407l.485.23c.054.043.223-.022.402-.117zM1054.314 361.544v-.01c.37-.205.742-.55.972-.488 0 0-.515-.242-.52-.242-.06 0-.207.023-.437.217-.336.267-.773.462-.904.4l.487.24c.063.04.232-.02.4-.116zM1053.046 360.835v-.008c.368-.213.74-.543.967-.486l-.52-.246c-.064.012-.192.032-.43.212-.342.273-.77.47-.903.417l.48.233c.066.027.222-.02.406-.12zM1051.77 360.134l.014-.008c.368-.21.726-.55.955-.494 0 0-.522-.24-.536-.24-.046 0-.183.02-.416.21-.35.287-.774.485-.896.43l.478.226c.06.027.234-.023.4-.124zM1050.497 359.45c.362-.216.727-.57.96-.507l-.52-.238c-.06.014-.2.03-.44.22-.337.28-.765.475-.9.428l.496.226c.056.02.218-.038.404-.13zM1049.21 358.764c.376-.204.734-.56.968-.505 0 0-.526-.233-.536-.233-.056 0-.196.02-.427.22-.33.27-.765.478-.888.42l.478.222c.063.033.23-.02.404-.126zM1047.93 358.093v-.008c.37-.223.728-.566.954-.508l-.524-.238c-.055 0-.204.022-.43.224-.336.275-.765.473-.894.425l.487.234c.067.022.23-.034.407-.13zM1046.645 357.416v-.018c.366-.213.73-.56.95-.512 0 0-.512-.233-.518-.233-.06.01-.205.033-.428.23-.332.272-.768.478-.904.435l.494.22c.06.027.228-.025.405-.122zM1045.36 356.74c.366-.226.723-.574.948-.523l-.525-.225c-.057 0-.2.02-.423.225-.334.277-.77.477-.904.438l.5.223c.064.024.216-.035.404-.138zM1044.063 356.082c.36-.225.724-.584.957-.535 0 0-.523-.22-.53-.227-.056.008-.205.037-.436.227-.333.293-.75.494-.88.445l.484.22c.064.022.225-.03.405-.13zM1042.773 355.412v-.008c.36-.215.718-.572.943-.516l-.523-.225c-.06.004-.204.025-.424.225-.346.28-.756.488-.897.434l.49.227c.063.024.227-.03.41-.138zM1041.473 354.753v-.008c.372-.216.733-.578.947-.522 0 0-.52-.228-.522-.237-.053.018-.2.037-.425.237-.327.286-.752.49-.89.442l.487.213c.072.034.235-.026.403-.125zM1040.183 354.083h.007c.36-.217.717-.574.94-.526 0 0-.524-.22-.53-.22-.057.01-.197.03-.422.24-.328.27-.752.484-.887.436l.49.22c.06.022.226-.038.403-.15zM1038.88 353.438c.37-.228.722-.58.954-.537l-.53-.214c-.063.006-.203.04-.43.23-.335.282-.746.497-.885.444l.494.223c.055.028.222-.026.397-.145zM1037.584 352.8c.363-.23.717-.594.943-.53 0 0-.525-.237-.534-.237-.05.014-.193.04-.418.237-.33.287-.755.5-.884.438l.49.224c.064.026.238-.036.404-.132zM1036.285 352.145c.357-.218.707-.58.938-.528 0 0-.526-.216-.53-.225-.048.01-.194.025-.426.23-.327.292-.734.5-.88.45l.493.208c.058.026.225-.02.405-.135zM1034.98 351.496c.37-.23.717-.578.95-.525 0 0-.53-.228-.542-.228-.056.006-.194.036-.423.23-.318.294-.74.503-.874.446l.493.225c.063.02.226-.04.396-.147zM1033.67 350.867l.016-.005c.355-.23.705-.59.93-.548 0 0-.525-.21-.532-.217-.054.006-.19.044-.412.234-.327.292-.758.505-.893.466l.5.203c.064.028.23-.03.39-.133zM1032.37 350.224v-.004c.368-.23.72-.588.95-.538 0 0-.543-.212-.547-.22-.05.008-.188.04-.403.238-.327.285-.76.502-.892.46l.493.202c.073.03.226-.03.4-.138zM1031.063 349.59h.012c.348-.23.702-.587.93-.544 0 0-.523-.21-.53-.21-.053 0-.192.03-.42.23-.315.29-.747.5-.877.455l.49.207c.07.04.22-.026.395-.138zM1029.757 348.953c.362-.234.713-.59.938-.548 0 0-.52-.21-.53-.21-.056.006-.195.027-.416.238-.336.283-.752.497-.882.443l.494.22c.06.025.226-.03.395-.143zM1028.454 348.313c.362-.23.71-.587.946-.548 0 0-.54-.21-.556-.21-.042.01-.187.042-.403.24-.326.286-.745.505-.884.456l.498.208c.07.03.224-.035.4-.145zM1027.14 347.695c.363-.234.71-.604.946-.56l-.534-.206c-.058.005-.2.032-.424.237-.324.29-.746.506-.878.463l.494.205c.067.03.226-.03.395-.14zM1025.84 347.06c.353-.232.694-.584.928-.545 0 0-.53-.215-.54-.215-.05.006-.187.035-.408.242-.327.283-.75.504-.876.46l.49.208c.063.026.233-.037.406-.15zM1024.518 346.435c.362-.236.705-.596.942-.55 0 0-.537-.203-.54-.218-.05.02-.196.056-.417.25-.32.28-.742.51-.872.47l.487.196c.065.032.235-.037.4-.148zM1023.208 345.818c.362-.234.71-.602.934-.556 0 0-.525-.216-.536-.216-.048.01-.187.045-.416.238-.32.3-.742.518-.878.47l.498.208c.066.02.225-.04.398-.144zM1021.893 345.188c.36-.23.717-.6.944-.562 0 0-.533-.2-.54-.2-.054.005-.198.044-.423.24-.313.28-.733.507-.874.464l.505.215c.065.015.225-.04.388-.157zM1020.59 344.576v-.014c.36-.227.7-.594.928-.544l-.54-.212c-.053.014-.19.04-.412.238-.324.297-.742.514-.875.475l.492.196c.074.024.23-.028.407-.14zM1019.264 343.955l.002-.004c.36-.233.704-.593.937-.558l-.54-.202c-.053.006-.19.043-.407.24-.326.286-.742.52-.88.474l.503.196c.056.032.224-.033.384-.145zM1017.96 343.335c.347-.234.696-.594.93-.555l-.54-.205c-.053.006-.192.036-.414.242-.324.282-.74.512-.875.465l.495.2c.067.03.23-.03.406-.147zM1016.646 342.716c.353-.225.693-.6.92-.55 0 0-.527-.212-.54-.212-.053.017-.187.04-.405.25-.325.287-.74.51-.876.467l.494.2c.062.04.24-.023.408-.154zM1015.315 342.112v-.008c.363-.23.702-.592.938-.556 0 0-.535-.202-.543-.21-.05.012-.192.042-.416.243-.316.302-.74.522-.864.475l.496.2c.06.03.22-.026.39-.143zM1014.007 341.49c.354-.23.693-.598.925-.555l-.537-.203c-.053.006-.2.037-.412.244-.318.3-.74.514-.873.473l.505.197c.06.032.216-.044.392-.157zM1012.683 340.893h.008c.36-.24.696-.617.93-.567 0 0-.536-.195-.543-.213-.05.018-.19.047-.408.252-.328.303-.74.524-.87.477l.484.205c.08.017.23-.05.4-.154zM1011.37 340.275c.353-.23.69-.605.922-.55 0 0-.526-.214-.54-.214-.047.01-.19.046-.4.245-.327.29-.748.52-.882.473l.5.2c.063.023.228-.03.4-.153zM1010.046 339.67v-.003c.352-.234.696-.597.933-.558l-.538-.21c-.06.003-.193.045-.422.244-.31.298-.73.522-.86.48l.496.195c.063.03.22-.04.39-.15zM1008.73 339.07v-.02c.353-.223.694-.598.928-.553 0 0-.53-.207-.543-.207-.044.004-.19.043-.416.248-.317.3-.726.513-.866.47l.508.2c.053.032.205-.033.387-.137zM1007.412 338.464v-.012c.35-.23.693-.6.928-.556l-.546-.21c-.05.01-.184.036-.407.243-.322.29-.738.533-.87.482l.485.197c.074.03.235-.04.41-.146zM1006.087 337.858c.355-.24.693-.614.916-.565 0 0-.526-.2-.526-.21-.052.015-.188.048-.414.25-.324.296-.733.525-.87.48l.5.2c.057.022.216-.043.394-.155zM1004.757 337.25c.365-.238.704-.606.936-.563l-.545-.202c-.05.007-.19.043-.414.25-.316.29-.727.517-.866.47l.508.196c.06.028.225-.033.38-.15zM1003.445 336.658v-.016c.354-.225.694-.598.93-.555l-.548-.21c-.056.017-.194.048-.412.25-.32.294-.726.528-.87.474l.497.203c.062.025.225-.038.403-.145zM1002.127 336.05c.342-.24.686-.606.915-.567 0 0-.527-.207-.537-.207-.05.017-.188.05-.41.25-.323.304-.73.524-.874.476l.512.207c.054.018.217-.05.395-.16zM1000.794 335.447c.36-.23.696-.615.924-.564 0 0-.526-.207-.533-.207-.05.007-.193.05-.41.252-.323.296-.733.52-.873.48l.507.19c.062.036.212-.028.384-.15zM999.477 334.853c.343-.232.688-.61.932-.568l-.55-.195c-.057.004-.19.043-.417.244-.318.303-.73.52-.862.476l.498.198c.06.027.23-.038.4-.155zM998.143 334.255h.015c.35-.23.69-.604.914-.575 0 0-.528-.188-.54-.197-.05.02-.19.045-.413.252-.313.296-.732.52-.87.48l.507.192c.065.023.218-.036.386-.152zM996.832 333.662c.346-.238.682-.613.92-.57 0 0-.544-.2-.544-.203-.056.01-.19.04-.413.247-.313.294-.733.525-.87.482l.497.197c.065.013.238-.042.41-.155zM995.507 333.067c.35-.24.685-.622.913-.573 0 0-.525-.197-.536-.205-.053.01-.188.04-.41.25-.32.302-.73.53-.877.487l.514.19c.06.025.22-.04.397-.15zM994.177 332.468c.35-.24.692-.61.92-.573 0 0-.53-.194-.543-.194-.048 0-.198.038-.413.244-.31.306-.724.53-.86.488l.503.192c.066.022.226-.042.394-.156zM992.85 331.873h.008c.34-.238.685-.61.916-.563 0 0-.533-.207-.545-.207-.05.012-.197.045-.406.254-.326.296-.727.522-.864.483l.498.19c.065.025.222-.036.392-.157zM991.526 331.287c.347-.24.69-.615.915-.582 0 0-.53-.188-.54-.188-.05.006-.188.03-.412.245-.317.3-.723.53-.854.48l.49.197c.06.024.232-.04.402-.153zM990.202 330.697c.35-.244.686-.62.918-.574 0 0-.532-.195-.543-.207-.056.012-.2.04-.41.25-.32.3-.73.537-.867.488l.504.195c.07.017.235-.045.398-.153zM988.868 330.1h.003c.35-.25.69-.612.918-.572 0 0-.534-.198-.54-.21-.06.02-.196.055-.405.26-.324.29-.732.526-.874.487l.507.188c.063.027.228-.037.39-.153zM987.54 329.512v-.01c.353-.24.69-.608.93-.572 0 0-.542-.19-.545-.197-.052.01-.195.043-.407.253-.32.3-.73.528-.87.486l.505.195c.063.028.217-.042.386-.155zM986.224 328.925v-.008c.347-.237.68-.615.914-.57 0 0-.536-.197-.554-.197-.042.014-.184.05-.395.247-.328.293-.736.53-.87.48l.502.204c.062.026.22-.045.402-.155zM984.884 328.34c.355-.25.69-.626.923-.587l-.54-.193c-.06.016-.19.037-.413.25-.304.3-.73.537-.856.484l.488.2c.077.018.23-.05.398-.155zM983.555 327.744c.355-.248.69-.623.918-.574 0 0-.524-.2-.54-.2-.044.005-.19.048-.4.254-.324.293-.736.522-.866.48l.498.195c.07.017.228-.042.39-.156zM982.23 327.155v-.004c.36-.24.69-.61.927-.574l-.544-.193c-.063.01-.188.037-.412.246-.317.298-.725.538-.866.485l.504.198c.07.028.222-.033.392-.158zM980.896 326.563c.365-.23.694-.616.927-.573l-.536-.2c-.065.01-.2.05-.414.25-.315.306-.727.536-.867.495l.503.19c.062.023.22-.042.386-.162zM979.576 325.988c.347-.242.688-.628.913-.59 0 0-.54-.195-.547-.195-.042.008-.188.04-.4.258-.32.307-.732.53-.865.487l.503.193c.064.026.225-.042.396-.152zM978.248 325.397c.344-.248.696-.62.917-.578 0 0-.53-.19-.546-.19-.054 0-.194.032-.408.25-.315.298-.735.53-.864.48l.494.194c.07.022.228-.047.406-.157zM976.913 324.813c.358-.252.698-.616.922-.583 0 0-.536-.19-.546-.197-.05.016-.19.04-.402.258-.317.298-.737.534-.866.486l.5.192c.07.024.23-.04.39-.155zM975.59 324.227c.348-.237.687-.618.915-.58 0 0-.526-.194-.532-.194-.067.008-.203.053-.414.246-.325.306-.737.53-.87.496l.505.192c.063.01.223-.055.394-.16zM974.26 323.64c.346-.238.686-.62.912-.576 0 0-.527-.197-.54-.203-.052.013-.196.05-.415.26-.31.302-.722.534-.854.49l.5.187c.06.02.223-.04.398-.157zM972.928 323.06c.346-.238.693-.614.915-.577l-.537-.2c-.05.014-.198.047-.417.247-.31.3-.727.534-.855.49l.5.196c.067.02.22-.037.393-.156zM971.6 322.482c.35-.25.684-.63.915-.587l-.544-.2c-.054.008-.19.047-.414.25-.31.31-.715.54-.854.498l.505.19c.057.03.223-.04.394-.15zM970.27 321.896c.35-.253.68-.62.912-.583 0 0-.533-.2-.54-.2-.052.018-.198.045-.414.256-.315.298-.72.528-.863.485l.508.193c.06.02.223-.045.397-.152zM968.938 321.303c.352-.235.68-.612.925-.57 0 0-.542-.198-.556-.198-.05.008-.19.043-.398.256-.32.3-.733.525-.876.486l.513.188c.062.022.224-.04.39-.16zM967.607 320.73v-.005c.354-.242.685-.617.92-.586l-.545-.19c-.057.013-.19.05-.412.25-.307.3-.722.53-.86.49l.502.188c.07.034.224-.043.395-.147zM966.277 320.14c.347-.242.686-.617.923-.57l-.552-.203c-.053.006-.19.043-.405.258-.314.295-.73.533-.87.484l.51.195c.068.02.215-.05.394-.165zM964.94 319.56c.353-.236.693-.618.927-.58 0 0-.54-.2-.552-.2-.048.01-.194.05-.4.255-.32.305-.728.535-.863.488l.5.19c.058.03.23-.038.39-.153zM963.612 318.98v-.005c.35-.238.693-.625.92-.582 0 0-.532-.188-.545-.188-.054.006-.193.043-.405.252-.31.303-.73.528-.858.485l.502.188c.065.032.218-.04.386-.15zM962.275 318.393c.358-.243.69-.62.93-.58 0 0-.543-.188-.546-.196-.058.014-.2.04-.412.252-.314.304-.73.54-.86.486l.497.2c.075.014.236-.05.39-.163zM960.955 317.81c.35-.236.686-.622.92-.58 0 0-.55-.19-.55-.202-.054.013-.194.05-.403.26-.313.304-.73.54-.863.486l.507.2c.056.02.215-.05.388-.163zM959.622 317.23v-.008c.35-.238.688-.614.92-.575l-.542-.196c-.055 0-.204.046-.41.25-.32.3-.725.53-.86.485l.5.193c.06.03.23-.032.392-.148zM958.293 316.647c.352-.25.68-.623.916-.584l-.536-.196c-.065.008-.202.04-.424.26-.31.295-.718.524-.85.48l.505.193c.067.028.22-.04.388-.153zM956.958 316.058h.012c.348-.234.68-.61.91-.577 0 0-.536-.187-.543-.197-.052.018-.193.04-.414.256-.317.298-.72.524-.856.485l.51.19c.055.02.212-.044.38-.157zM955.638 315.473c.346-.244.683-.614.918-.58 0 0-.54-.19-.548-.19-.053.005-.2.038-.41.245-.315.31-.725.543-.87.5l.518.188c.057.02.213-.043.392-.163zM954.304 314.892c.352-.24.688-.617.92-.588l-.548-.19c-.055.01-.188.05-.406.255-.315.296-.722.532-.867.487l.506.193c.06.024.233-.045.394-.158zM952.973 314.304c.36-.235.69-.61.92-.572 0 0-.537-.197-.553-.197-.05.01-.18.045-.4.258-.306.295-.728.527-.868.484l.51.197c.066.024.217-.047.39-.17zM951.64 313.726c.355-.243.69-.622.914-.58 0 0-.534-.197-.543-.197-.05.01-.187.042-.4.26-.313.302-.727.526-.864.485l.506.188c.06.025.222-.046.387-.157zM950.31 313.148v-.008c.354-.237.69-.62.924-.578 0 0-.544-.193-.556-.193-.045.01-.184.04-.396.257-.317.297-.728.527-.87.478l.5.198c.067.023.234-.044.398-.155zM948.98 312.562c.354-.252.69-.62.918-.572 0 0-.532-.2-.544-.2-.05.007-.196.034-.415.247-.314.305-.723.533-.857.49l.5.194c.072.017.23-.04.396-.158zM947.643 311.99v-.017c.36-.237.693-.616.93-.577 0 0-.538-.188-.55-.188-.055 0-.192.043-.406.252-.31.297-.727.533-.858.483l.498.2c.06.02.217-.045.385-.153zM946.325 311.396c.346-.25.688-.613.917-.575 0 0-.546-.197-.55-.208-.052.02-.19.056-.404.265-.314.29-.728.533-.864.486l.51.19c.057.023.22-.033.39-.157zM944.986 310.82v-.01c.352-.238.688-.607.925-.58l-.55-.19c-.044.01-.194.046-.407.25-.315.305-.725.534-.855.493l.498.195c.07.022.225-.048.39-.157zM943.662 310.23c.35-.236.683-.61.91-.568 0 0-.532-.21-.54-.21-.052.015-.2.056-.413.257-.308.303-.727.532-.862.493l.516.18c.05.036.215-.03.388-.153zM942.326 309.65c.355-.246.687-.62.92-.586l-.545-.19c-.054.013-.196.046-.408.25-.315.31-.72.54-.864.495l.514.19c.056.023.22-.046.384-.16zM940.994 309.064c.354-.23.693-.613.924-.575l-.546-.203c-.055.02-.203.053-.41.262-.317.298-.727.536-.86.49l.502.182c.06.03.226-.038.39-.158zM939.663 308.49c.352-.246.688-.615.92-.586 0 0-.544-.185-.553-.2-.04.02-.188.044-.396.266-.322.3-.73.532-.862.48l.5.19c.06.024.22-.043.39-.15zM938.336 307.904v-.008c.35-.236.683-.613.913-.574 0 0-.544-.188-.554-.188-.043 0-.184.047-.393.24-.312.304-.73.545-.87.502l.504.188c.07.025.226-.04.4-.16zM937.002 307.322h.002c.347-.236.68-.623.912-.58 0 0-.534-.193-.544-.2-.048.018-.19.044-.403.255-.32.302-.728.53-.855.488l.5.198c.06.02.216-.045.387-.16zM935.668 306.742v-.005c.36-.24.69-.616.92-.58l-.538-.188c-.06 0-.195.042-.408.25-.312.3-.725.53-.86.49l.5.187c.062.026.218-.037.386-.155zM934.343 306.158c.35-.244.688-.615.922-.578 0 0-.544-.188-.553-.2-.056.012-.192.038-.398.25-.316.313-.73.548-.86.5l.498.183c.06.02.22-.035.39-.155zM933.012 305.58v-.016c.354-.232.685-.607.914-.568l-.54-.192c-.057.004-.198.047-.407.25-.316.3-.73.532-.858.49l.493.19c.073.027.23-.04.397-.154zM931.675 304.996c.366-.244.693-.62.926-.588 0 0-.537-.183-.537-.19-.063.013-.202.046-.416.25-.308.31-.734.544-.856.49l.498.195c.063.022.222-.043.387-.157zM930.346 304.408c.354-.242.695-.617.92-.578l-.537-.195c-.057.017-.195.046-.413.255-.317.303-.73.53-.862.487l.506.188c.06.026.223-.043.386-.157zM929.02 303.832c.35-.242.687-.617.914-.58 0 0-.525-.194-.534-.194-.062.008-.2.05-.41.24-.322.306-.734.532-.865.493l.504.198c.06.024.225-.043.39-.156zM927.69 303.246c.347-.246.687-.615.913-.582l-.533-.19c-.06.005-.207.043-.422.253-.313.298-.722.53-.855.488l.5.197c.064.017.23-.047.398-.166zM926.358 302.664c.35-.236.688-.615.918-.58 0 0-.538-.19-.548-.19-.054 0-.195.042-.413.237-.312.316-.725.54-.856.5l.502.194c.067.022.228-.04.396-.16zM925.02 302.083c.36-.252.696-.62.92-.588 0 0-.54-.188-.54-.19-.054.017-.187.038-.416.255-.305.305-.72.542-.857.488l.504.19c.068.032.224-.04.39-.155zM923.704 301.496c.344-.232.673-.615.91-.576 0 0-.537-.196-.54-.196-.053.014-.197.048-.407.25-.32.308-.728.538-.87.49l.505.198c.06.02.22-.04.402-.166zM922.37 300.914c.35-.248.683-.617.908-.58 0 0-.528-.194-.538-.2-.056.01-.19.042-.406.253-.313.304-.72.533-.864.49l.508.188c.06.024.22-.035.392-.15zM921.037 300.328c.354-.242.685-.62.92-.572 0 0-.53-.21-.542-.21-.042.018-.19.038-.416.255-.31.302-.72.528-.855.48l.504.197c.06.017.217-.046.387-.15zM919.717 299.73c.348-.242.687-.61.917-.575l-.546-.202c-.05.016-.19.05-.414.26-.305.297-.718.52-.855.48l.5.19c.06.025.23-.04.397-.153zM918.385 299.144h.002c.354-.238.695-.617.916-.58 0 0-.54-.188-.54-.197-.05.016-.19.043-.398.248-.32.31-.737.53-.87.488l.498.197c.06.02.22-.04.392-.156zM917.054 298.55v-.006c.354-.234.69-.607.925-.575 0 0-.532-.19-.54-.2-.052.012-.188.048-.41.257-.318.293-.73.527-.857.483l.492.193c.064.03.227-.034.39-.153zM915.732 297.956v-.003c.348-.235.688-.61.922-.572 0 0-.54-.187-.55-.187-.048 0-.19.04-.402.252-.32.294-.735.523-.866.48l.498.193c.07.024.23-.04.398-.162zM914.4 297.376c.354-.246.696-.63.924-.585l-.535-.196c-.056.007-.2.043-.415.25-.32.295-.736.532-.867.49l.49.19c.075.024.24-.038.402-.148zM913.068 296.776c.36-.24.7-.606.926-.564l-.542-.206c-.052.006-.2.04-.402.25-.323.298-.734.53-.873.485l.503.19c.064.026.22-.034.388-.154zM911.747 296.19c.354-.24.696-.613.92-.573 0 0-.528-.19-.544-.2-.05.01-.188.043-.403.243-.314.303-.74.533-.866.48l.496.198c.072.024.226-.04.397-.148zM910.42 295.6v-.004c.354-.242.688-.61.926-.57 0 0-.53-.196-.545-.21-.05.02-.187.058-.413.257-.315.303-.73.527-.862.484l.505.193c.063.02.22-.04.39-.15zM909.092 295.01v-.003c.353-.24.7-.612.935-.576 0 0-.548-.186-.548-.2-.063.014-.206.04-.425.262-.312.297-.725.524-.862.475l.518.193c.06.032.213-.045.382-.15zM907.768 294.416c.352-.243.693-.623.93-.567-.007 0-.546-.216-.546-.216-.054.012-.196.043-.405.245-.325.3-.742.536-.873.486l.5.193c.064.018.223-.03.394-.144zM906.45 293.806v-.012c.355-.23.69-.593.924-.55l-.542-.213c-.055.013-.2.044-.414.26-.316.287-.726.504-.86.468l.496.195c.06.03.222-.035.397-.147zM905.127 293.2c.352-.24.683-.61.926-.567 0 0-.53-.195-.537-.208-.06.018-.2.04-.41.252-.32.297-.74.524-.872.463l.502.214c.063.02.22-.04.39-.153zM903.804 292.59c.357-.24.702-.61.932-.568l-.54-.197c-.058.01-.19.032-.41.244-.327.29-.73.52-.876.47l.5.2c.063.027.225-.043.394-.15zM902.49 291.98c.353-.24.7-.604.92-.562 0 0-.525-.208-.537-.208-.053.017-.2.043-.415.246-.315.304-.734.523-.862.48l.49.2c.072.024.234-.038.403-.156zM901.166 291.376c.355-.236.693-.61.92-.564l-.535-.2c-.05.005-.194.044-.407.243-.316.295-.738.52-.868.473l.492.203c.067.02.226-.034.4-.154zM899.85 290.766c.356-.234.69-.606.917-.557 0 0-.523-.21-.536-.21-.044.005-.188.05-.402.245-.33.307-.745.52-.877.475l.494.195c.062.035.234-.036.407-.15zM898.523 290.16h.01c.352-.223.687-.6.923-.56 0 0-.538-.203-.544-.203-.05.006-.188.036-.408.242-.32.296-.74.52-.87.477l.488.2c.074.026.233-.035.4-.157zM897.2 289.56c.36-.235.694-.598.938-.563 0 0-.536-.205-.54-.21-.05.014-.192.043-.42.254-.318.294-.74.52-.873.472l.502.204c.057.017.22-.044.394-.157zM895.88 288.96v-.015c.367-.23.71-.6.933-.558 0 0-.525-.2-.545-.206-.046.012-.193.048-.405.252-.32.294-.742.513-.872.467l.497.208c.07.02.228-.043.393-.147zM894.563 288.345c.36-.236.702-.612.932-.558 0 0-.528-.206-.537-.206-.053.006-.198.034-.41.24-.326.298-.747.524-.88.482l.492.193c.065.023.228-.04.403-.15zM893.244 287.732c.347-.24.7-.6.93-.562 0 0-.53-.198-.54-.198-.045.007-.188.043-.413.238-.317.28-.733.512-.87.463l.497.205c.064.028.216-.03.397-.146zM891.934 287.107v-.01c.355-.22.703-.587.934-.545 0 0-.528-.213-.534-.213-.067.01-.2.046-.42.24-.32.288-.734.508-.875.453l.5.214c.056.028.225-.027.394-.14zM890.628 286.478c.354-.232.7-.593.93-.553 0 0-.53-.213-.535-.213-.058.004-.194.043-.42.238-.317.296-.745.508-.874.46l.5.215c.064.02.226-.036.398-.147zM889.323 285.847c.347-.233.693-.596.918-.548l-.527-.217c-.05 0-.196.04-.415.235-.325.29-.745.508-.876.465l.49.21c.068.02.23-.04.41-.146zM888.005 285.22v-.007c.358-.218.705-.598.93-.548 0 0-.524-.215-.536-.215-.05.004-.19.042-.412.237-.322.29-.732.52-.88.46l.492.216c.074.02.233-.038.405-.144zM886.69 284.587l.005-.005c.355-.222.707-.593.935-.543 0 0-.53-.21-.53-.215-.06.005-.197.034-.42.235-.33.29-.748.505-.88.458l.494.21c.064.03.227-.03.397-.14zM885.385 283.956c.36-.233.71-.594.938-.55l-.532-.214c-.055.008-.19.042-.42.24-.32.29-.746.51-.872.458l.492.217c.057.018.22-.04.395-.15zM884.074 283.323c.362-.24.718-.594.938-.55l-.53-.214c-.058.013-.204.04-.424.242-.322.282-.744.507-.882.452l.497.21c.073.03.225-.033.4-.14zM882.77 282.687c.35-.227.707-.588.935-.544 0 0-.525-.197-.538-.21-.05.013-.185.035-.413.235-.333.292-.75.512-.887.455l.497.21c.072.034.232-.03.406-.146zM881.465 282.06c.357-.224.698-.59.932-.547l-.534-.21c-.058.01-.2.04-.414.233-.328.296-.75.508-.895.46l.502.206c.063.028.235-.034.408-.143zM880.144 281.428c.365-.224.723-.588.95-.536 0 0-.54-.213-.543-.217-.04.004-.19.037-.412.24-.328.288-.753.492-.892.454l.5.202c.064.027.233-.036.398-.144zM878.83 280.802c.375-.228.718-.596.952-.553 0 0-.526-.2-.536-.21-.047.02-.203.04-.423.24-.33.284-.75.514-.88.456l.487.208c.072.024.232-.028.4-.142zM877.53 280.165c.36-.227.71-.597.938-.534l-.525-.23c-.063.015-.202.043-.42.235-.328.29-.74.51-.89.46l.495.215c.066.022.23-.04.402-.145zM876.223 279.525h.01c.352-.23.7-.59.93-.54 0 0-.526-.218-.532-.218-.045.01-.188.037-.415.23-.327.293-.742.506-.878.458l.487.206c.062.04.227-.025.4-.135zM874.92 278.89c.37-.23.712-.6.94-.54l-.525-.226c-.053.01-.203.032-.424.235-.324.29-.746.497-.89.454l.496.21c.07.032.233-.027.404-.135zM873.614 278.238h.004c.368-.224.704-.58.942-.533 0 0-.52-.216-.538-.22-.047.004-.19.035-.417.236-.323.293-.75.49-.876.45l.48.206c.072.03.225-.022.404-.138zM872.306 277.606l.014-.006c.354-.227.714-.586.943-.536l-.532-.215c-.064.002-.198.027-.43.232-.327.283-.74.497-.89.438l.498.224c.065.022.227-.027.398-.138zM871.007 276.96h.013c.358-.23.707-.59.94-.538l-.532-.227c-.05.006-.197.03-.42.227-.326.282-.76.494-.893.45l.498.213c.07.022.225-.024.394-.126zM869.717 276.28c.36-.21.72-.57.95-.52l-.53-.226c-.06.005-.195.026-.42.234-.328.277-.755.488-.893.433l.487.222c.064.025.235-.026.407-.14zM868.42 275.625h.006c.356-.213.714-.572.948-.515l-.532-.234c-.06.007-.197.03-.423.234-.337.278-.762.483-.89.43l.494.22c.06.03.22-.027.395-.135zM867.127 274.97v-.007c.37-.218.723-.568.953-.522 0 0-.53-.222-.535-.222-.05.005-.195.028-.418.223-.336.28-.77.494-.895.436l.488.223c.06.03.234-.033.407-.13zM865.83 274.31l.004-.008c.358-.217.723-.57.95-.52 0 0-.523-.22-.53-.225-.05.005-.193.026-.423.224-.324.284-.76.478-.888.43l.478.224c.067.04.23-.024.41-.123zM864.54 273.628c.37-.215.724-.57.952-.51.013 0-.518-.232-.518-.232-.056.003-.203.024-.426.216-.33.284-.762.482-.895.42l.496.237c.05.02.218-.028.39-.132zM863.255 272.94h.01c.365-.205.724-.564.954-.504 0 0-.524-.224-.524-.24-.064.016-.2.03-.43.23-.336.27-.768.48-.897.422l.486.226c.065.028.232-.018.4-.133zM861.975 272.262h.002c.367-.212.73-.564.953-.502 0 0-.52-.234-.52-.25-.062.016-.198.04-.424.233-.342.276-.774.468-.903.414l.49.23c.058.03.227-.02.402-.125zM860.69 271.582c.37-.22.734-.56.958-.51l-.522-.233c-.058.008-.196.027-.427.22-.342.28-.774.474-.902.418l.48.23c.06.03.238-.026.413-.126zM859.41 270.897c.37-.208.73-.558.956-.508 0 .013-.52-.23-.524-.24-.05.01-.19.04-.426.22-.334.27-.77.462-.898.41l.485.243c.064.02.235-.027.406-.126zM858.135 270.19c.37-.21.747-.553.97-.493l-.528-.244c-.06.003-.196.02-.432.21-.344.28-.77.464-.896.418l.478.237c.073.022.235-.02.407-.128zM856.863 269.493c.37-.214.736-.56.96-.497 0 0-.517-.245-.517-.248-.06.003-.198.024-.44.217-.333.272-.77.462-.894.4l.476.238c.077.04.237-.024.415-.11zM855.595 268.785v-.007c.364-.206.74-.545.958-.49 0 0-.52-.238-.52-.242-.06.003-.198.032-.418.207-.354.277-.786.463-.914.41l.483.24c.064.03.22-.026.412-.118zM854.315 268.078c.364-.216.75-.544.97-.488 0 0-.52-.24-.52-.25-.045.012-.192.03-.426.216-.352.267-.784.455-.912.393l.482.252c.056.026.225-.024.405-.124zM853.05 267.356v-.005c.377-.19.757-.54.976-.47 0 0-.515-.26-.52-.268-.052.008-.193.03-.436.22-.34.265-.778.437-.905.38l.488.252c.056.037.222-.017.397-.108zM851.79 266.62v-.008c.385-.193.758-.535.978-.465l-.52-.252c-.05.004-.195.02-.43.205-.354.27-.792.445-.914.39l.475.242c.07.03.235-.016.41-.112zM850.527 265.895c.386-.198.757-.54.98-.475l-.51-.257c-.056.01-.21.026-.437.214-.343.26-.792.438-.91.38l.47.242c.068.034.235-.01.407-.105zM849.273 265.163l.014-.005c.365-.2.747-.538.968-.464 0 0-.5-.25-.516-.25-.053 0-.195.017-.44.195-.346.256-.784.432-.91.37l.48.26c.062.028.22-.016.403-.107zM848.036 264.402c.37-.19.747-.525.973-.454l-.5-.263c-.063 0-.205.02-.452.192-.34.258-.78.43-.913.362l.48.263c.06.036.223-.008.41-.1zM846.795 263.64c.376-.19.76-.523.98-.448 0 0-.5-.27-.51-.27-.055 0-.2.02-.44.194-.35.26-.787.43-.927.37l.485.257c.048.037.22-.006.412-.102zM845.55 262.882c.376-.194.77-.514.988-.446 0 0-.5-.26-.51-.26-.057 0-.198.01-.448.184-.342.25-.787.425-.922.368l.48.255c.054.038.23-.008.41-.1zM844.318 262.113v-.01c.37-.182.767-.497.986-.422 0 0-.507-.28-.507-.284-.05.005-.19.017-.437.186-.353.247-.8.403-.92.34l.455.276c.07.037.232-.002.423-.085zM843.095 261.307c.384-.18.778-.496 1-.426 0 0-.498-.272-.507-.272-.05 0-.188.018-.447.173-.356.25-.8.404-.933.34l.47.276c.07.034.235-.004.418-.09zM841.86 260.562c.387-.166.784-.486 1.003-.416l-.504-.28c-.05 0-.192.005-.442.175-.365.246-.813.4-.95.335l.477.27c.05.04.22 0 .414-.083zM840.606 259.762c.39-.156.795-.462 1.002-.386 0 .004-.488-.293-.488-.3-.053 0-.194.007-.443.165-.357.235-.812.38-.934.296l.45.305c.06.03.222.005.413-.078zM839.374 258.886c.393-.152.797-.46 1.018-.37 0 0-.474-.304-.494-.304-.044 0-.19 0-.44.156-.374.23-.833.366-.957.287l.45.3c.06.038.23.004.424-.07zM838.157 258.043c.41-.152.828-.457 1.025-.36 0 0-.474-.306-.474-.315-.06 0-.2.01-.466.166-.38.218-.834.34-.95.264l.446.303c.06.047.234.007.42-.057zM837.013 257.193h.01c.395-.152.814-.424 1.03-.336 0 0-.473-.325-.483-.325-.045 0-.194 0-.45.148-.38.207-.836.332-.964.256l.446.31c.056.032.23.016.41-.053zM835.89 256.33c.377-.142.78-.42.982-.31 0 0-.48-.335-.48-.35-.05 0-.193-.006-.438.13-.36.22-.804.313-.935.238l.46.334c.05.04.216.02.41-.043zM834.69 255.382h.01c.383-.135.78-.417.975-.31l-.464-.34c-.06-.005-.2-.02-.445.126-.36.205-.806.303-.928.214l.44.353c.063.04.225.022.414-.043zM833.507 254.438v-.012c.393-.128.794-.398 1.006-.286 0 0-.48-.35-.485-.36-.05-.005-.19-.01-.444.13-.365.19-.807.293-.936.208l.44.342c.064.043.236.03.42-.022zM832.39 253.402c.387-.11.792-.366 1.002-.255l-.472-.37c-.043-.005-.188-.02-.44.107-.373.187-.826.262-.938.175l.43.36c.06.04.222.038.418-.018zM831.267 252.377c.4-.104.81-.355 1.023-.24l-.466-.37c-.052-.023-.197-.026-.453.093-.375.184-.834.257-.944.162l.428.356c.052.057.223.048.413 0zM830.163 251.33v-.01c.403-.087.812-.33 1.013-.208 0 0-.438-.383-.442-.383-.046-.006-.196-.03-.448.09-.386.162-.837.223-.95.13l.416.37c.056.052.22.052.41.01zM829.063 250.2c.408-.062.852-.26 1.044-.128 0 0-.432-.41-.432-.416-.044-.012-.186-.035-.455.056-.405.14-.852.147-.96.037l.39.425c.046.046.214.064.413.025zM828.08 249.04c.408-.054.847-.24 1.033-.097 0 0-.415-.422-.415-.432-.042-.01-.188-.048-.454.038-.402.125-.86.133-.967.024l.38.43c.05.045.224.07.423.038zM827.1 247.865c.41-.04.86-.213 1.045-.086 0 0-.4-.424-.41-.426-.05-.02-.19-.047-.47.023-.392.106-.85.103-.953-.003l.372.435c.045.055.212.08.415.055zM826.162 246.657l.004-.006c.413-.025.86-.19 1.04-.043 0 0-.388-.44-.388-.452-.05-.01-.185-.05-.468.015-.395.106-.87.095-.972-.026l.368.44c.05.06.22.086.416.073zM825.232 245.318h.013c.4.026.877-.085 1.044.097 0 0-.327-.487-.333-.5-.06-.022-.182-.08-.457-.047-.412.04-.872-.044-.956-.175l.297.498c.042.06.204.112.392.128zM824.503 243.965l.01-.006c.414.04.88-.044 1.04.143 0 0-.308-.506-.32-.52-.04-.022-.168-.086-.463-.062-.408.035-.87-.066-.955-.192l.294.495c.036.067.204.132.393.142zM824.644 201.015h-.002c-.413-.04-.915.016-1.068-.173l.29.518c.047.02.175.088.47.074.438-.02.89.074.955.19l-.245-.475c-.03-.055-.19-.113-.4-.135zM825.3 202.316h-.013c-.424-.03-.91.05-1.08-.128l.314.496c.047.022.182.09.48.062.438-.04.897.03.98.14l-.278-.448c-.036-.064-.202-.11-.402-.122zM825.99 203.588c-.413-.01-.916.08-1.075-.096 0 0 .317.488.317.495.053.028.18.086.48.046.41-.046.9-.007.974.107l-.292-.442c-.037-.06-.198-.094-.404-.11zM826.745 204.83c-.436.007-.918.118-1.088-.053l.353.488c.043.014.173.075.476.02.426-.072.893-.04.982.067l-.313-.434c-.04-.047-.208-.09-.41-.09zM827.52 206.06h-.013c-.4.006-.887.14-1.062-.02 0 0 .345.47.345.475.048.02.19.07.486 0 .43-.083.904-.083.998.027l-.33-.416c-.048-.046-.23-.074-.423-.066zM828.37 207.237c-.425.032-.904.175-1.09.023 0 0 .378.442.378.46.055.017.195.055.48-.02.43-.1.892-.1.988.002l-.34-.412c-.044-.05-.212-.074-.417-.053zM829.227 208.397c-.423.063-.884.218-1.065.063 0 0 .367.452.375.45.057.018.194.048.495-.04.417-.12.89-.14.984-.043l-.354-.387c-.052-.05-.215-.066-.435-.043zM830.163 209.506c-.413.064-.89.255-1.08.11l.407.427c.046.012.186.05.48-.045.405-.137.872-.16.976-.068l-.364-.385c-.046-.06-.218-.062-.42-.04zM831.1 210.61v.005c-.412.085-.873.278-1.06.132-.007.004.4.422.41.422.052.008.2.03.475-.073.41-.15.89-.198 1-.11l-.39-.367c-.05-.046-.228-.052-.436-.01zM832.105 211.655v.007c-.42.086-.87.307-1.067.173 0 0 .432.393.432.4.054.008.204.036.48-.08.396-.15.855-.21.967-.124l-.398-.368c-.04-.04-.215-.04-.415-.007zM833.113 212.7c-.417.113-.854.334-1.052.197-.007.01.424.4.433.4.066.006.203.02.48-.1.398-.18.87-.257.987-.17l-.415-.344c-.052-.042-.22-.035-.432.018zM834.188 213.683c-.404.115-.854.36-1.063.244 0 0 .454.365.457.37.06.005.2.02.473-.106.393-.186.842-.278.956-.193l-.4-.336c-.063-.045-.228-.037-.422.023zM835.248 214.66v.005c-.4.115-.817.375-1.038.262 0 0 .454.357.454.363.06.014.206.014.465-.124.394-.197.86-.306.976-.236l-.43-.315c-.05-.04-.227-.017-.428.046zM836.377 215.572v.008c-.404.135-.83.41-1.04.305 0 0 .468.333.474.342.057 0 .198.005.457-.138.387-.206.84-.323.958-.246l-.43-.313c-.054-.042-.227-.024-.418.042zM837.505 216.493c-.397.142-.813.42-1.03.325l.472.333c.06.007.21.013.456-.137.376-.217.843-.352.953-.28l-.44-.302c-.057-.034-.224-.01-.41.063zM838.654 217.35v.012c-.39.153-.804.45-1.028.36 0 0 .504.31.508.31.046 0 .195 0 .45-.157.377-.232.815-.375.94-.298l-.442-.295c-.055-.03-.228-.005-.428.07zM839.833 218.198c-.385.172-.788.467-1.006.383 0 0 .492.306.495.315.053 0 .192-.01.444-.17.365-.23.813-.373.936-.303l-.45-.297c-.06-.03-.227 0-.42.073zM841.024 219.04c-.386.17-.79.482-1.012.394 0 .012.5.304.507.304.06-.008.202-.016.447-.193.365-.24.802-.403.935-.346l-.46-.254c-.057-.038-.233.007-.418.093zM842.247 219.822c-.388.175-.786.5-.997.415 0 0 .5.287.5.292.06-.005.204-.014.448-.192.352-.252.793-.42.927-.353l-.468-.262c-.053-.036-.227.006-.41.1zM843.467 220.595c-.375.188-.77.51-.98.436 0 0 .497.285.506.285.05 0 .2-.016.438-.193.348-.25.785-.43.91-.358l-.466-.26c-.057-.04-.228.002-.407.09zM844.713 221.348c-.383.197-.767.523-.99.46l.514.26c.064 0 .206-.022.447-.202.348-.256.784-.447.915-.385l-.48-.246c-.063-.026-.24.015-.407.114zM845.956 222.08c-.376.2-.746.53-.976.468 0 0 .513.25.517.255.052-.005.206-.02.44-.205.34-.266.78-.438.908-.38l-.473-.255c-.067-.03-.226.02-.416.118zM847.214 222.812c-.37.198-.747.536-.973.468 0 0 .512.26.518.26.053 0 .2-.02.432-.206.348-.258.773-.447.905-.39l-.473-.25c-.06-.02-.227.025-.408.118zM848.473 223.542c-.378.205-.742.55-.974.485l.518.245c.047 0 .19-.02.43-.203.357-.27.78-.46.91-.412l-.483-.24c-.052-.017-.223.02-.402.124zM849.74 224.246c-.376.21-.757.56-.976.49l.527.247c.05 0 .2-.02.43-.21.35-.273.778-.46.905-.404l-.476-.238c-.07-.035-.233.025-.41.114zM851.01 224.95c-.378.21-.74.56-.963.49 0 0 .516.243.52.253.05-.01.19-.03.434-.22.335-.273.774-.463.9-.407l-.488-.232c-.062-.026-.223.017-.403.117zM852.28 225.66l-.006.002c-.364.2-.73.55-.96.488 0 0 .52.24.52.25.055-.01.197-.032.428-.215.352-.272.772-.462.9-.418l-.48-.233c-.063-.024-.224.02-.402.125zM853.553 226.363c-.368.214-.738.553-.96.494l.517.245c.06-.004.2-.02.435-.22.34-.273.765-.472.902-.418l-.492-.232c-.062-.02-.23.027-.402.13zM854.83 227.045c-.367.208-.727.568-.957.502 0 0 .518.233.524.24.056-.007.192-.027.43-.228.337-.268.768-.48.896-.417l-.482-.227c-.063-.022-.23.022-.41.13zM856.114 227.726c-.363.21-.732.565-.96.507 0 0 .522.232.533.232.058 0 .196-.03.427-.218.334-.273.753-.48.896-.414l-.484-.238c-.08-.025-.235.024-.412.13zM857.402 228.4c-.367.22-.732.572-.96.512l.524.235c.046 0 .203-.024.423-.218.335-.28.77-.475.9-.423l-.49-.23c-.056-.03-.227.027-.398.124zM858.677 229.09c-.36.21-.727.56-.95.507l.524.24c.06-.014.204-.035.427-.228.345-.272.765-.487.902-.432l-.49-.214c-.066-.035-.232.03-.413.125zM859.968 229.75v.005c-.364.215-.726.574-.942.52 0 0 .518.223.53.223.046-.005.19-.026.412-.222.334-.283.767-.49.9-.437l-.494-.214c-.06-.04-.23.018-.406.125zM861.264 230.41v.008c-.36.223-.73.572-.947.524 0 0 .525.224.53.23.057-.006.196-.042.417-.23.334-.284.756-.49.892-.443l-.483-.218c-.075-.02-.24.03-.41.13zM862.557 231.08c-.362.22-.72.57-.96.52 0 0 .534.22.548.232.05-.01.19-.03.412-.23.334-.28.756-.487.9-.43l-.506-.225c-.052-.028-.215.02-.393.133zM863.848 231.746c-.357.22-.717.573-.938.516 0 0 .514.232.52.232.062-.003.2-.026.42-.232.333-.283.758-.487.894-.43l-.498-.226c-.052-.022-.23.027-.398.14zM865.135 232.394v.014c-.354.212-.72.576-.938.527 0 0 .52.216.533.22.052-.007.19-.03.427-.23.33-.29.742-.496.892-.45l-.504-.21c-.06-.03-.22.02-.41.13zM866.446 233.046h-.013c-.353.23-.708.59-.94.54 0 0 .532.217.532.22.06-.013.198-.037.42-.236.338-.28.756-.503.89-.442l-.49-.216c-.064-.028-.228.026-.4.134zM867.75 233.695c-.368.236-.72.59-.95.542 0 0 .526.22.536.22.046-.014.193-.036.42-.237.323-.287.75-.5.875-.444l-.487-.222c-.063-.022-.23.036-.393.14zM869.04 234.344c-.35.224-.707.592-.942.533 0 0 .522.22.534.22.063 0 .2-.027.423-.232.334-.276.745-.49.887-.44l-.5-.22c-.068-.028-.218.032-.403.14zM870.34 234.99c-.353.228-.712.578-.94.54 0 0 .526.217.543.217.05-.006.193-.028.41-.227.336-.29.756-.5.887-.45l-.49-.22c-.068-.02-.234.04-.41.14zM871.648 235.635c-.358.22-.717.59-.94.54 0 0 .53.216.534.216.053-.002.188-.04.418-.23.328-.294.75-.513.875-.457l-.49-.212c-.063-.025-.23.03-.397.145zM872.954 236.266c-.36.232-.71.595-.94.543l.53.22c.057-.005.2-.043.426-.237.325-.295.747-.504.875-.456l-.495-.21c-.062-.028-.225.033-.396.14zM874.252 236.898c-.354.235-.698.6-.934.546 0 0 .53.217.538.217.06 0 .192-.035.417-.23.323-.292.746-.502.88-.457l-.487-.207c-.068-.035-.237.033-.414.132zM875.565 237.543c-.355.227-.712.59-.938.545 0 0 .524.204.533.214.056-.01.188-.037.42-.236.32-.295.742-.51.884-.458l-.5-.212c-.06-.03-.227.034-.4.147zM876.87 238.174v.006c-.35.223-.7.585-.933.545 0 0 .527.203.527.21.062-.007.205-.036.42-.23.33-.293.75-.51.882-.468l-.5-.21c-.054-.02-.225.038-.397.147zM878.188 238.802h-.012c-.357.232-.698.602-.924.552l.53.212c.054-.014.19-.04.41-.243.335-.29.756-.508.884-.455l-.496-.208c-.07-.03-.233.026-.392.142zM879.493 239.427c-.357.232-.707.597-.928.556 0 0 .523.2.523.205.064-.008.195-.04.423-.234.316-.294.75-.508.877-.464l-.497-.21c-.063-.024-.232.035-.397.147zM880.805 240.05v.01c-.356.22-.706.583-.935.543l.544.212c.048-.01.188-.034.414-.24.315-.296.744-.507.868-.46l-.494-.207c-.067-.026-.23.03-.397.14zM882.122 240.677v.003c-.36.234-.71.592-.943.55l.54.214c.05-.012.202-.04.42-.242.32-.287.734-.513.873-.463l-.5-.206c-.062-.025-.22.034-.39.143zM883.422 241.306c-.35.23-.697.594-.935.554 0 0 .54.2.55.213.05-.016.187-.04.404-.25.332-.29.745-.51.883-.463l-.5-.2c-.06-.026-.222.03-.4.146zM884.747 241.923h-.012c-.348.234-.702.594-.92.55 0 0 .52.213.53.213.063-.005.2-.04.42-.247.315-.3.737-.513.876-.465l-.51-.202c-.05-.023-.215.038-.383.15zM886.053 242.53v.01c-.35.23-.695.598-.93.55 0 0 .534.207.534.212.058-.017.2-.036.427-.244.32-.3.73-.514.87-.467l-.504-.2c-.066-.024-.22.03-.397.14zM887.375 243.148c-.357.242-.704.602-.925.56 0 0 .524.204.524.214.062-.017.2-.038.426-.25.312-.288.732-.51.872-.467l-.503-.208c-.063-.02-.226.038-.395.15zM888.683 243.764v.01c-.353.228-.695.592-.923.55 0 0 .536.21.536.215.053-.013.198-.044.414-.246.327-.297.744-.517.874-.477l-.498-.194c-.07-.028-.225.024-.403.14zM890.006 244.386c-.354.234-.698.597-.93.558l.53.205c.063-.005.194-.04.412-.24.33-.29.742-.522.876-.474l-.495-.2c-.063-.028-.222.036-.394.15zM891.327 244.993c-.36.24-.702.61-.938.562 0 0 .53.208.542.208.056-.008.195-.04.412-.247.322-.3.742-.516.867-.47l-.485-.2c-.074-.03-.236.042-.398.147zM892.64 245.603c-.352.23-.7.607-.924.563 0 0 .527.207.54.207.04-.014.188-.046.414-.247.317-.297.73-.523.866-.468l-.493-.21c-.066-.017-.23.043-.404.155zM893.956 246.21c-.353.24-.692.61-.92.563 0 0 .53.203.534.208.048-.008.19-.045.412-.244.322-.294.736-.522.873-.482l-.495-.19c-.067-.026-.23.037-.404.146zM895.285 246.82h-.006c-.358.23-.695.603-.93.558l.537.214c.053-.015.19-.045.415-.248.325-.3.736-.515.875-.474l-.504-.194c-.063-.028-.225.024-.388.145zM896.602 247.423v.007c-.354.237-.7.61-.927.564l.53.202c.058-.01.208-.034.422-.245.316-.293.735-.52.87-.468l-.51-.205c-.062-.022-.217.04-.385.146zM897.915 248.023v.015c-.354.23-.69.597-.928.567l.55.196c.04-.008.186-.04.4-.237.33-.304.744-.525.87-.482l-.49-.198c-.06-.026-.225.038-.402.14zM899.233 248.635c-.35.23-.69.612-.92.563l.54.206c.053-.004.202-.038.418-.246.31-.298.732-.523.862-.467l-.5-.206c-.06-.02-.23.04-.4.15zM900.563 249.24c-.354.238-.692.61-.928.56l.536.208c.06-.01.202-.043.413-.253.33-.297.74-.514.876-.474l-.503-.194c-.06-.024-.22.035-.394.155zM901.885 249.838v.005c-.348.233-.694.6-.928.572 0 0 .532.19.542.2.05-.013.193-.044.405-.25.328-.297.74-.522.875-.48l-.503-.194c-.06-.03-.227.038-.392.148zM903.197 250.434c-.347.242-.688.615-.914.57l.537.21c.053-.008.198-.036.417-.25.314-.304.73-.53.87-.478l-.51-.204c-.057-.014-.213.05-.4.152zM904.533 251.05c-.356.235-.695.607-.936.56 0 0 .54.2.552.2.045-.003.196-.04.403-.242.317-.298.735-.524.87-.48l-.506-.193c-.053-.036-.216.036-.384.154zM905.85 251.64c-.35.237-.694.61-.925.57l.542.198c.055-.008.206-.036.416-.248.317-.302.728-.522.866-.48l-.504-.194c-.058-.024-.222.036-.396.153zM907.182 252.23c-.357.238-.692.616-.927.578 0 0 .53.193.538.193.056 0 .204-.033.416-.244.314-.294.728-.524.866-.478l-.506-.205c-.068-.015-.216.045-.388.158zM908.498 252.83c-.348.24-.69.61-.916.57 0 0 .53.204.536.204.052-.01.19-.038.413-.25.323-.29.73-.523.863-.48l-.494-.196c-.072-.024-.226.04-.402.152zM909.818 253.425c-.343.24-.686.613-.91.582 0 0 .532.19.535.196.056-.006.19-.042.415-.254.315-.293.73-.524.865-.48l-.507-.196c-.06-.026-.228.04-.398.15zM911.15 254.016c-.354.253-.696.616-.924.585 0 0 .537.196.547.196.053-.014.188-.043.41-.247.313-.303.72-.537.873-.493l-.507-.188c-.064-.024-.232.036-.4.146zM912.468 254.61v.012c-.345.238-.684.607-.91.564 0 0 .536.196.536.206.053-.018.204-.052.417-.252.314-.298.725-.53.87-.485l-.507-.192c-.066-.026-.23.04-.405.148zM913.805 255.205v.003c-.353.24-.698.613-.922.583l.542.194c.05-.02.198-.048.407-.252.32-.303.73-.527.86-.484l-.493-.194c-.074-.024-.232.04-.395.15zM915.126 255.8c-.347.24-.683.61-.917.573 0 0 .534.202.544.202.05-.006.193-.042.405-.25.313-.296.724-.528.874-.486l-.515-.192c-.062-.03-.227.042-.394.152zM916.45 256.39c-.345.236-.68.614-.914.58l.54.194c.06-.002.186-.04.406-.248.318-.31.733-.527.87-.482l-.5-.188c-.058-.035-.225.03-.4.145zM917.785 256.982l-.006.003c-.352.237-.69.61-.91.57 0 0 .526.2.538.2.043-.01.188-.046.414-.243.307-.31.72-.53.854-.484l-.502-.208c-.06-.026-.22.05-.39.162zM919.11 257.574c-.356.243-.688.617-.92.574 0 0 .534.196.545.198.05-.005.184-.046.407-.248.308-.3.725-.533.862-.493l-.49-.195c-.074-.022-.233.042-.405.164zM920.44 258.16h-.01c-.347.245-.676.61-.906.576l.538.2c.05-.006.188-.045.406-.253.32-.3.73-.535.86-.486l-.5-.188c-.058-.033-.22.04-.39.15zM921.766 258.748c-.35.252-.69.616-.922.574 0 0 .548.198.548.204.05-.012.194-.047.403-.25.314-.297.732-.53.87-.49l-.504-.192c-.056-.03-.225.037-.394.154zM923.094 259.34c-.354.237-.684.614-.914.574 0 0 .527.19.54.19.044-.003.192-.025.41-.244.312-.307.726-.54.857-.49l-.498-.197c-.07-.014-.23.05-.396.167zM924.42 259.93c-.347.233-.694.613-.915.57 0 0 .537.197.543.197.05-.008.19-.046.415-.252.313-.3.723-.53.857-.49l-.5-.192c-.063-.023-.222.043-.4.168zM925.754 260.507c-.357.25-.69.618-.926.58l.553.2c.046-.014.19-.04.405-.263.312-.29.73-.524.865-.477l-.494-.193c-.075-.027-.237.038-.402.153zM927.074 261.096v.006c-.347.235-.68.61-.91.57 0 0 .543.196.543.202.052-.008.193-.048.407-.264.31-.287.728-.524.858-.478l-.506-.19c-.06-.03-.218.034-.392.154zM928.414 261.67h-.012c-.352.252-.682.623-.915.588 0 0 .544.19.546.197.053-.006.19-.042.408-.25.317-.302.732-.535.867-.485l-.502-.196c-.065-.024-.222.04-.39.147zM929.742 262.258v.01c-.354.234-.693.613-.92.58l.542.2c.058-.017.19-.053.403-.254.324-.305.73-.535.87-.49l-.505-.188c-.06-.03-.23.04-.39.142zM931.06 262.848c-.344.243-.678.617-.913.585l.552.19c.045-.012.19-.042.402-.256.325-.3.726-.525.875-.486l-.506-.188c-.07-.025-.237.043-.41.156zM932.393 263.437c-.35.236-.683.613-.917.577 0 0 .544.19.557.2.046-.018.187-.048.4-.256.312-.297.72-.538.866-.493l-.506-.192c-.07-.012-.23.05-.4.164zM933.73 264.024c-.353.237-.695.61-.918.575 0 0 .535.188.546.188.048-.006.187-.043.403-.25.314-.3.726-.533.86-.49l-.5-.192c-.06-.02-.224.043-.39.168zM935.06 264.6v.003c-.35.234-.688.616-.913.578l.53.197c.057-.006.203-.043.416-.25.32-.3.73-.53.858-.492l-.497-.188c-.063-.03-.232.035-.392.152zM936.39 265.18l-.007.01c-.35.236-.678.615-.904.576l.53.195c.062-.004.195-.043.41-.247.318-.308.73-.536.866-.494l-.5-.196c-.063-.024-.23.048-.397.157zM937.723 265.766c-.35.242-.692.625-.916.584l.532.19c.06-.01.2-.036.417-.247.314-.305.727-.543.857-.49l-.497-.19c-.066-.02-.225.043-.394.153zM939.056 266.35v.005c-.358.236-.692.616-.92.58 0 0 .536.186.542.186.054 0 .196-.03.405-.248.313-.3.73-.535.86-.48l-.5-.203c-.066-.028-.22.045-.387.16zM940.376 266.936c-.346.247-.682.624-.914.578 0 0 .54.196.553.196.043-.01.187-.05.4-.257.313-.29.725-.524.86-.49l-.498-.18c-.063-.033-.223.03-.4.153zM941.71 267.514c-.35.238-.677.623-.914.584 0 0 .53.19.543.19.062-.004.188-.042.413-.254.308-.298.718-.53.858-.484l-.51-.194c-.056-.025-.222.044-.39.158zM943.03 268.098c-.34.234-.673.626-.906.583l.538.198c.064-.005.193-.048.415-.252.307-.307.726-.533.863-.49l-.503-.19c-.073-.032-.225.033-.406.152zM944.367 268.68c-.345.245-.685.614-.917.58 0 0 .54.19.548.19.056-.004.194-.034.405-.248.322-.3.728-.534.866-.494l-.5-.187c-.068-.022-.23.042-.403.16zM945.696 269.26v.007c-.348.234-.682.612-.91.573 0 0 .53.202.543.205.05-.01.195-.05.407-.252.312-.304.724-.538.863-.5l-.506-.19c-.07-.014-.23.043-.398.156zM947.033 269.854c-.356.234-.686.614-.916.576 0 0 .536.19.542.19.055 0 .19-.04.414-.25.302-.3.722-.533.85-.49l-.5-.192c-.067-.02-.225.044-.39.166zM948.365 270.43c-.352.24-.695.626-.918.58l.535.203c.057-.02.19-.05.41-.25.316-.302.728-.537.867-.495l-.51-.188c-.06-.03-.222.032-.385.15zM949.693 271.01v.01c-.35.237-.69.622-.92.58l.536.19c.06-.004.19-.044.412-.255.318-.298.726-.53.868-.48l-.505-.196c-.06-.024-.23.05-.392.15zM951.023 271.6c-.353.244-.688.618-.915.575 0 0 .536.196.536.206.057-.015.2-.042.42-.256.307-.3.72-.536.853-.493l-.502-.187c-.053-.022-.224.044-.392.157zM952.354 272.184c-.35.243-.688.62-.914.576l.534.195c.06-.002.2-.03.414-.252.32-.298.727-.528.854-.485l-.494-.19c-.065-.03-.218.036-.394.156zM953.688 272.76v.01c-.354.246-.685.61-.916.567 0 0 .534.2.544.205.05-.014.188-.05.408-.26.307-.292.72-.522.854-.488l-.5-.186c-.066-.025-.222.04-.39.152zM955.014 273.337v.01c-.354.236-.687.613-.92.58l.546.19c.053-.008.193-.042.41-.25.314-.298.72-.533.865-.486l-.5-.194c-.065-.016-.23.05-.4.15zM956.34 273.928v.004c-.35.242-.68.62-.904.58l.538.202c.056-.015.193-.062.41-.254.312-.306.722-.534.86-.506l-.5-.174c-.063-.035-.23.034-.403.148zM957.68 274.51h-.005c-.353.246-.688.615-.92.582l.54.19c.062-.006.19-.042.413-.245.318-.306.73-.54.864-.494l-.503-.192c-.066-.016-.22.048-.39.16zM959.018 275.092c-.362.238-.698.624-.93.58 0 0 .538.196.544.196.06-.005.19-.047.406-.247.32-.302.733-.537.868-.495l-.496-.192c-.074-.023-.23.043-.392.16zM960.33 275.672c-.343.245-.68.625-.908.585l.542.196c.062-.017.193-.04.404-.25.323-.305.737-.54.867-.495l-.507-.192c-.058-.016-.218.045-.398.156zM961.663 276.263c-.346.237-.675.614-.914.575 0 0 .53.192.544.192.052-.003.19-.045.41-.25.32-.3.724-.535.866-.483l-.506-.19c-.06-.03-.228.027-.4.156zM962.995 276.838c-.343.25-.676.617-.907.59 0 0 .532.188.538.188.05-.015.19-.046.41-.256.305-.295.725-.525.858-.49l-.5-.186c-.065-.022-.233.04-.4.154zM964.327 277.428c-.354.245-.68.616-.915.572 0 0 .545.195.545.203.06-.008.188-.047.412-.26.31-.3.72-.53.855-.488l-.506-.192c-.06-.028-.22.043-.393.165zM965.652 278v.005c-.337.24-.675.624-.91.584 0 0 .54.193.548.193.047 0 .194-.043.405-.25.31-.306.727-.533.854-.5l-.503-.186c-.063-.016-.217.048-.395.153zM966.985 278.59c-.35.236-.68.618-.91.57 0 0 .543.198.543.21.055-.015.187-.054.41-.264.31-.3.727-.534.86-.487l-.498-.192c-.077-.02-.232.04-.405.16zM968.32 279.16v.01c-.345.234-.678.618-.906.582 0 0 .523.194.534.194.048-.014.184-.047.405-.25.322-.297.734-.535.86-.495l-.49-.186c-.075-.026-.23.035-.402.147zM969.66 279.75h-.005c-.354.238-.69.62-.92.576 0 0 .54.197.543.204.052-.016.19-.043.403-.26.32-.303.74-.528.87-.483l-.498-.192c-.07-.027-.227.04-.393.156zM970.985 280.327v.01c-.354.234-.69.614-.91.58l.536.2c.047-.02.19-.047.4-.255.322-.307.736-.534.874-.49l-.51-.19c-.06-.03-.23.035-.39.145zM972.322 280.916h-.01c-.345.246-.68.616-.927.578 0 0 .54.196.557.205.05-.01.198-.05.41-.26.306-.305.723-.54.858-.49l-.502-.196c-.07-.02-.22.048-.386.162zM973.65 281.493v.01c-.356.237-.692.61-.916.573l.533.196c.057-.01.197-.053.417-.248.31-.303.723-.533.86-.494l-.51-.186c-.06-.032-.217.04-.385.15zM974.977 282.077c-.352.244-.69.62-.925.587 0 0 .546.195.554.195.05-.02.188-.047.396-.252.318-.31.74-.537.876-.494l-.512-.195c-.07-.02-.218.045-.39.157zM976.31 282.664c-.355.24-.688.62-.92.58 0 0 .536.192.546.192.043-.005.195-.037.406-.252.313-.3.733-.537.865-.486l-.503-.19c-.075-.03-.23.043-.394.156zM977.637 283.242c-.348.245-.684.616-.912.58 0 0 .532.195.537.195.057-.012.193-.04.412-.253.31-.296.724-.532.865-.49l-.51-.187c-.07-.022-.225.045-.393.155zM978.963 283.834c-.348.236-.684.613-.908.57 0 0 .533.196.537.2.055-.007.2-.045.417-.258.32-.294.726-.533.856-.487l-.497-.193c-.063-.027-.226.038-.407.167zM980.297 284.414c-.354.234-.685.605-.925.58l.55.192c.053-.017.196-.044.408-.256.314-.296.732-.53.863-.484l-.504-.193c-.066-.024-.21.045-.393.16zM981.624 284.996c-.338.24-.682.616-.915.576 0 0 .536.193.552.2.046-.013.188-.043.402-.26.317-.3.732-.528.87-.492l-.513-.187c-.06-.02-.21.042-.396.163zM982.96 285.575v.008c-.355.236-.687.622-.92.57l.537.203c.06-.02.196-.042.41-.254.317-.3.733-.53.87-.482l-.504-.194c-.06-.023-.23.042-.394.15zM984.293 286.17h-.003c-.358.238-.697.62-.92.58 0 0 .533.196.54.196.055-.014.193-.042.406-.252.314-.3.732-.527.867-.485l-.5-.197c-.064-.02-.23.043-.39.158zM985.616 286.76c-.358.234-.69.615-.923.576 0 0 .537.197.54.197.058-.01.19-.035.42-.257.31-.285.718-.52.854-.48l-.5-.19c-.056-.026-.22.037-.39.153zM986.936 287.35c-.354.235-.68.622-.91.58 0 0 .535.19.545.195.054-.005.187-.048.4-.254.314-.287.734-.52.866-.477l-.494-.2c-.074-.022-.23.043-.406.157zM988.263 287.943c-.344.237-.685.623-.9.575l.525.196c.054-.01.196-.042.414-.248.315-.296.732-.532.87-.486l-.506-.185c-.067-.034-.228.025-.403.148zM989.596 288.523v.016c-.36.234-.69.603-.925.572l.538.19c.07-.016.2-.04.418-.25.317-.3.73-.534.874-.484l-.5-.196c-.068-.018-.236.047-.404.15zM990.93 289.124v.01c-.36.23-.7.606-.924.566l.546.198c.05-.014.19-.047.4-.25.312-.3.73-.524.87-.492l-.502-.188c-.062-.028-.233.042-.39.156zM992.25 289.712c-.355.247-.696.614-.915.58 0 0 .526.19.538.19.05-.008.192-.044.412-.244.31-.303.73-.533.87-.488l-.506-.19c-.07-.032-.237.034-.4.152zM993.566 290.305c-.35.232-.672.61-.908.564 0 0 .533.205.538.205.05-.005.202-.035.41-.25.32-.29.735-.53.863-.48l-.502-.198c-.057-.02-.217.044-.402.158zM994.902 290.893c-.35.238-.687.612-.918.57l.54.2c.05-.004.197-.042.41-.253.317-.296.738-.52.872-.478l-.506-.19c-.067-.027-.232.04-.398.15zM996.242 291.484h-.01c-.35.24-.688.614-.926.576 0 0 .533.194.54.194.064-.007.205-.04.413-.248.327-.3.735-.53.873-.48l-.512-.194c-.054-.026-.218.038-.378.152zM997.557 292.087c-.35.23-.693.597-.922.563 0 0 .53.196.543.196.053-.003.195-.04.412-.237.315-.3.73-.524.866-.484l-.505-.198c-.06-.026-.22.042-.393.16zM998.878 292.684c-.35.243-.69.615-.927.572 0 0 .543.207.552.207.04-.02.19-.05.4-.25.32-.302.738-.53.873-.477l-.502-.2c-.07-.03-.223.035-.395.148zM1000.2 293.292v.008c-.362.228-.693.597-.927.56l.543.204c.057-.01.188-.03.42-.248.312-.294.73-.516.862-.468l-.5-.208c-.068-.022-.227.043-.398.152zM1001.518 293.897c-.346.242-.695.608-.92.565 0 0 .536.208.536.21.058-.002.194-.04.414-.256.315-.287.733-.518.864-.47l-.494-.195c-.07-.034-.228.04-.4.147zM1002.838 294.505c-.35.238-.688.616-.918.567 0 0 .53.203.536.21.05-.018.194-.04.408-.25.32-.3.744-.527.872-.47l-.498-.214c-.07-.015-.226.047-.4.157zM1004.16 295.114v.006c-.36.233-.696.604-.935.555 0 0 .536.208.547.208.05-.006.192-.045.41-.242.32-.306.738-.52.882-.483l-.508-.19c-.06-.024-.22.04-.397.147zM1005.482 295.725c-.36.226-.704.604-.926.554l.54.204c.05 0 .183-.04.402-.245.32-.3.746-.515.876-.472l-.497-.197c-.06-.03-.23.034-.395.155zM1006.8 296.33c-.356.238-.696.6-.92.57 0 0 .532.188.535.198.05-.015.19-.045.41-.254.323-.29.742-.515.873-.466l-.5-.2c-.066-.025-.226.037-.397.15zM1008.13 296.93v.005c-.367.232-.703.604-.935.56l.54.204c.052-.004.185-.04.4-.252.335-.29.75-.512.878-.463l-.488-.197c-.073-.03-.238.03-.396.14zM1009.445 297.54c-.364.23-.702.604-.936.562 0 0 .532.212.542.212.055-.016.19-.043.413-.255.313-.292.74-.522.878-.467l-.504-.208c-.06-.024-.23.04-.395.154zM1010.76 298.145c-.35.24-.7.604-.932.57 0 0 .528.19.547.19.046 0 .19-.037.413-.236.32-.294.736-.517.875-.477l-.495-.196c-.07-.026-.24.038-.407.148zM1012.08 298.76c-.357.228-.7.594-.922.557 0 0 .53.2.53.205.056-.017.195-.037.415-.243.318-.29.734-.506.87-.46l-.498-.208c-.065-.03-.223.024-.395.147zM1013.393 299.38v.004c-.354.23-.702.593-.927.562 0 0 .52.193.53.193.055 0 .194-.027.414-.23.33-.29.745-.507.877-.457l-.498-.21c-.06-.03-.23.035-.397.137zM1014.7 300.018c-.357.224-.7.59-.93.547 0 0 .528.214.538.214.053-.01.2-.032.415-.24.317-.292.73-.5.87-.464l-.49-.21c-.07-.023-.228.042-.403.152zM1016.02 300.65c-.367.232-.713.587-.935.544l.527.216c.056-.008.188-.04.42-.242.32-.285.74-.51.877-.457l-.504-.21c-.06-.022-.225.037-.387.15zM1017.32 301.285c-.354.233-.7.59-.933.53l.533.226c.052-.013.203-.042.418-.245.318-.277.744-.506.88-.45l-.494-.218c-.065-.024-.236.035-.405.158zM1018.63 301.902c-.366.234-.708.598-.935.55 0 0 .53.216.538.224.05-.012.19-.045.414-.24.325-.3.742-.512.876-.467l-.49-.2c-.068-.036-.223.024-.403.132zM1019.94 302.535c-.362.234-.702.594-.935.55 0 0 .517.214.534.214.048-.01.2-.038.412-.24.325-.29.748-.503.875-.456l-.487-.21c-.06-.02-.224.033-.4.14zM1021.254 303.17h-.012c-.345.226-.705.592-.933.54 0 0 .53.222.54.222.053-.015.197-.04.414-.23.326-.306.744-.514.886-.47l-.497-.208c-.06-.024-.227.035-.4.145zM1022.557 303.796c-.354.234-.706.586-.932.547 0 0 .525.21.53.21.052-.007.194-.03.42-.237.322-.283.745-.497.886-.45l-.5-.21c-.064-.028-.222.028-.403.14zM1023.878 304.425c-.37.23-.72.598-.943.55 0 0 .527.208.53.208.06-.008.193-.03.42-.23.328-.285.742-.504.893-.455l-.51-.213c-.068-.028-.222.03-.39.14zM1025.182 305.06h-.008c-.354.234-.71.59-.94.548 0 0 .533.208.544.214.053-.018.188-.043.423-.234.32-.293.742-.51.872-.46l-.488-.212c-.064-.026-.225.037-.402.144zM1026.492 305.693h-.006c-.355.23-.71.583-.947.544l.53.204c.06 0 .207-.02.426-.233.34-.277.75-.494.89-.445l-.486-.215c-.08-.024-.237.038-.408.146zM1027.795 306.33h-.006c-.363.226-.706.584-.934.545 0 0 .527.21.53.217.064-.016.21-.043.427-.242.323-.284.74-.494.873-.455l-.496-.21c-.052-.027-.22.03-.395.145zM1029.1 306.964c-.36.234-.71.595-.942.537l.53.23c.067-.01.2-.035.416-.244.336-.288.765-.503.888-.454l-.497-.212c-.057-.02-.22.04-.394.144zM1030.404 307.607c-.365.227-.707.592-.938.53 0 0 .524.227.53.227.06-.006.188-.036.418-.233.332-.288.757-.5.888-.448l-.504-.213c-.052-.032-.22.033-.394.137zM1031.708 308.244c-.36.23-.714.594-.95.543l.544.22c.046-.01.2-.044.416-.236.33-.285.755-.494.886-.44l-.492-.218c-.063-.03-.236.022-.404.132zM1033.017 308.896c-.363.218-.713.575-.952.534 0 0 .526.21.536.222.063-.012.19-.04.422-.238.33-.293.757-.494.883-.45l-.484-.212c-.066-.027-.23.03-.403.144zM1034.308 309.544c-.354.224-.71.576-.942.523 0 0 .53.23.54.23.048-.007.187-.033.42-.23.32-.28.755-.49.878-.438l-.484-.22c-.066-.026-.234.03-.412.134zM1035.613 310.203c-.374.223-.728.58-.956.522 0 0 .526.226.535.233.06-.02.19-.035.42-.233.325-.276.758-.485.89-.433l-.492-.226c-.06-.03-.23.032-.397.137zM1036.9 310.86c-.354.222-.718.582-.947.534l.532.223c.062-.008.196-.03.42-.232.34-.284.763-.48.895-.434l-.49-.225c-.066-.02-.23.044-.41.135zM1038.198 311.53c-.365.216-.716.567-.948.517 0 0 .52.224.528.224.056 0 .198-.018.42-.223.335-.282.768-.493.896-.43l-.494-.223c-.06-.03-.23.03-.402.137zM1039.492 312.183c-.37.227-.726.576-.953.53l.532.217c.05-.007.196-.022.42-.216.34-.295.762-.483.89-.436l-.487-.225c-.062-.027-.23.027-.403.13zM1040.78 312.862c-.357.214-.72.567-.947.515 0 0 .514.234.52.234.06-.007.195-.026.427-.218.335-.28.76-.488.9-.43l-.496-.23c-.064-.027-.226.027-.405.13zM1042.064 313.542c-.37.215-.728.566-.95.51l.525.238c.055-.004.19-.025.424-.217.334-.283.76-.484.897-.426l-.494-.234c-.058-.02-.22.025-.402.13zM1043.354 314.225c-.364.222-.73.57-.963.506 0 0 .527.245.535.245.042-.01.188-.033.416-.22.35-.275.774-.476.91-.426l-.493-.232c-.068-.024-.227.02-.403.127zM1044.63 314.902c-.355.225-.724.572-.958.51l.53.24c.06-.006.202-.027.423-.22.35-.278.77-.468.902-.427l-.482-.23c-.07-.02-.23.03-.416.127zM1045.917 315.602c-.37.202-.73.558-.958.495 0 0 .516.23.516.24.063-.012.2-.026.435-.21.332-.282.772-.474.9-.417l-.484-.235c-.063-.036-.236.017-.41.127zM1047.19 316.305c-.362.204-.73.55-.96.485 0 0 .52.246.52.248.054-.002.197-.03.44-.21.324-.274.76-.466.887-.407l-.483-.238c-.057-.037-.22.02-.405.123zM1048.462 317c-.358.21-.742.557-.96.495l.52.246c.056 0 .196-.024.428-.22.342-.264.783-.45.907-.4l-.48-.238c-.072-.027-.234.023-.415.12zM1049.732 317.705v.012c-.375.2-.738.54-.953.482l.51.25c.052-.016.2-.032.43-.218.346-.27.778-.46.912-.404l-.48-.24c-.067-.03-.232.024-.42.117zM1051.01 318.417c-.375.2-.747.54-.977.49 0-.008.527.236.532.24.052-.006.19-.025.438-.213.333-.266.77-.45.897-.39l-.482-.25c-.05-.028-.232.022-.41.123zM1052.28 319.14l-.01.005c-.37.206-.74.53-.97.464l.524.265c.056-.008.196-.027.425-.207.344-.266.775-.453.908-.397l-.476-.234c-.067-.036-.22.003-.402.103zM1053.533 319.873c-.373.203-.75.53-.98.476 0 0 .51.246.523.246.053 0 .197-.01.435-.204.352-.265.777-.444.908-.38l-.48-.254c-.06-.032-.222.02-.405.115zM1054.793 320.595v.01c-.377.193-.756.536-.986.465 0 0 .52.254.523.254.053 0 .2-.02.436-.193.352-.27.79-.456.92-.395l-.482-.244c-.06-.032-.235.01-.41.105zM1056.054 321.322c-.382.204-.765.536-.983.48l.516.247c.057 0 .2-.02.44-.196.345-.255.78-.434.912-.374l-.48-.263c-.05-.028-.224.02-.404.105zM1057.38 322.085c-.378.186-.756.52-.978.443l.504.264c.06 0 .202-.008.444-.186.342-.264.78-.432.91-.368l-.466-.258c-.06-.043-.233.007-.413.105zM1058.62 322.85c-.375.187-.765.512-.977.448l.498.252c.064 0 .204 0 .45-.188.344-.25.79-.427.915-.36l-.472-.258c-.054-.04-.233 0-.412.105zM1059.86 323.6c-.375.187-.774.52-.987.45 0 0 .502.267.508.267.058 0 .2-.012.446-.196.348-.25.803-.42.92-.354l-.467-.258c-.062-.04-.226.005-.42.09zM1061.093 324.376v.002c-.383.174-.765.494-.987.43 0-.006.503.268.51.28.054 0 .187-.013.44-.19.354-.244.792-.405.918-.346l-.46-.27c-.064-.034-.232.01-.42.094zM1062.32 325.18c-.387.17-.778.485-.996.42l.497.278c.056 0 .19-.004.453-.172.353-.256.8-.414.93-.35l-.466-.262c-.068-.04-.235.003-.417.085zM1063.55 325.923c-.38.18-.782.49-1.003.41l.503.28c.057 0 .192-.012.448-.174.366-.244.81-.402.94-.328l-.462-.277c-.063-.032-.234 0-.426.088zM1064.793 326.716c-.377.16-.787.476-1.005.398 0 0 .496.273.496.293.064 0 .2-.01.446-.164.363-.236.817-.367.944-.295l-.458-.304c-.06-.04-.236-.006-.423.072zM1066.03 327.6c-.392.155-.79.456-1.01.372 0 0 .48.296.486.304.05 0 .19 0 .45-.16.37-.226.83-.36.957-.284l-.46-.303c-.054-.038-.224-.01-.423.07zM1067.25 328.447c-.4.15-.816.442-1.02.354l.47.308c.06 0 .21 0 .458-.146.393-.232.853-.355.964-.27l-.445-.306c-.064-.047-.233-.02-.426.06zM1068.395 329.296c-.406.143-.823.427-1.032.324 0 0 .474.324.474.332.063 0 .195 0 .457-.147.38-.207.845-.337.965-.253l-.442-.314c-.065-.044-.24-.024-.423.058zM1069.525 330.152c-.386.145-.78.416-.995.32l.483.332c.064.006.203.018.443-.13.354-.2.808-.314.93-.23l-.46-.34c-.05-.038-.217-.015-.4.048zM1070.71 331.105c-.384.145-.77.41-.985.314 0 0 .478.333.49.333.048.006.186.01.434-.13.36-.204.805-.3.93-.214l-.45-.354c-.057-.038-.232-.02-.42.05zM1071.903 332.042l-.007.008c-.386.133-.784.402-.998.3 0 0 .478.344.478.35.05 0 .188.017.446-.122.363-.205.814-.297.937-.21l-.44-.344c-.064-.05-.226-.03-.417.018zM1073.02 333.076h-.002c-.382.123-.794.367-1.005.258 0 0 .466.357.466.37.053 0 .196.024.455-.105.37-.185.815-.27.934-.173l-.44-.368c-.048-.04-.214-.03-.41.016zM1074.15 334.11h-.013c-.387.104-.803.347-1.01.237 0 0 .448.37.46.378.05.002.194.02.452-.106.378-.18.832-.25.948-.163l-.43-.354c-.052-.057-.224-.048-.407.006zM1075.247 335.158c-.4.092-.817.332-1.02.21l.456.392c.053.01.19.02.446-.098.373-.16.833-.225.957-.13l-.417-.374c-.062-.047-.234-.047-.423 0zM1076.35 336.277c-.408.068-.85.27-1.04.127 0 0 .415.42.425.424.05.012.19.04.45-.052.404-.146.86-.15.965-.05l-.39-.41c-.05-.06-.22-.072-.41-.04zM1077.336 337.44h-.006c-.4.058-.84.238-1.043.1 0 0 .41.42.42.427.052.018.184.06.47-.027.395-.134.848-.137.958-.023l-.375-.43c-.064-.048-.233-.07-.424-.048zM1078.313 338.625c-.412.037-.86.215-1.05.074 0 0 .402.425.412.425.046.02.194.06.46-.02.398-.114.868-.108.958.005l-.37-.434c-.043-.05-.207-.078-.41-.05zM1079.244 339.828c-.41.033-.858.188-1.042.05 0 0 .392.44.392.446.05.018.19.053.47-.02.394-.104.866-.086.965.035l-.365-.446c-.05-.053-.222-.074-.42-.066zM1080.178 341.17c-.414-.028-.89.066-1.066-.1l.346.49c.055.02.182.084.456.058.416-.043.87.045.955.17l-.297-.49c-.042-.07-.214-.115-.395-.127zM1080.904 342.526h-.008c-.412-.04-.883.045-1.035-.142 0 0 .316.505.316.51.04.027.175.102.458.064.416-.026.87.06.956.19l-.285-.49c-.034-.06-.206-.114-.4-.132zM824.428 199.847c-.033-.056-.2-.116-.394-.15h-.006c-.205-.028-.438-.028-.628-.053v.433c.08.02.172.038.31.03.44-.01.897.092.97.216l-.252-.476zM823.4 198.77c.348.042.646.13.694.235l-.23-.493c-.033-.062-.18-.128-.385-.16-.025-.01-.058-.01-.08-.01v.428zM823.4 197.322v.24c.08.026.13.06.15.1l-.15-.34zM824.52 242.254c-.046-.02-.167-.095-.452-.084-.235.01-.48-.027-.668-.077v.363c.044.063.19.118.385.15h.006c.413.06.892-.022 1.052.156 0 0-.32-.503-.32-.508zM823.4 241.242c.338.028.654.028.766.17 0 0-.28-.517-.28-.525-.054-.023-.175-.095-.468-.095h-.018v.45zM823.4 239.807v.163c.056.02.102.043.126.083 0 0-.067-.123-.126-.246zM1081.917 343.957c-.073-.027-.173-.067-.29-.078-.413-.06-.9.024-1.056-.163 0 0 .317.504.32.514.05.024.168.097.456.08.196-.006.39.02.57.058v-.41zM1081.917 388.935c-.073-.037-.125-.064-.144-.107l.144.324v-.217zM1081.917 387.716c-.34-.037-.63-.125-.68-.227l.224.483c.024.06.18.13.385.164h.005c.025 0 .047 0 .068.008v-.43zM1081.917 386.41c-.073-.013-.173-.025-.302-.025-.435.002-.894-.09-.97-.22l.25.476c.033.073.2.125.397.15.21.027.43.04.624.056v-.436zM1081.917 345.233c-.302-.02-.566-.032-.67-.172 0 0 .274.533.28.54.05.026.152.075.39.087v-.454z"/><g><path d="M238.198 387.11l-.642.438c-.195-.242-.453-.346-.75-.346-.703 0-3.836 4.188-12.156 4.188-9.32 0-15.694-6.03-15.694-14.058 0-6.727 5.977-12.758 15.492-12.758 3.24 0 5.875.695 7.827 1.336 1.938.656 3.086 1.354 3.642 1.354.492 0 .54-.188.742-.445l.6.396-3.1 5.337-.643-.298c.103-.155.258-.354.258-.647 0-1.103-4.297-3.642-9.57-3.642-5.39 0-11.17 2.99-11.17 9.865 0 6.024 5.93 10.165 12.06 10.165 4.735 0 9.024-3.23 9.024-4.576 0-.25-.157-.558-.25-.695l.646-.406 3.682 4.79zM294.76 389.298c0 .693.242 1.193 1.188 1.193v.605h-6.578v-.604c.945 0 1.203-.5 1.203-1.192v-9.96h-17.648v9.96c0 .693.25 1.193 1.195 1.193v.605h-6.578v-.604c.944 0 1.194-.5 1.194-1.192v-22.616c0-.695-.25-1.203-1.194-1.203v-.605h6.578v.604c-.945 0-1.195.507-1.195 1.202v9.356h17.648v-9.356c0-.695-.258-1.203-1.203-1.203v-.605h6.578v.604c-.945 0-1.188.507-1.188 1.202v22.616zM330.72 384.117l-1.692 3.984c-.25.603-.703 1.446-.703 1.845 0 .354.258.547.852.547v.604h-6.133v-.604c.852 0 1.047-.146 2.047-2.336l9.024-20.14c.492-1.142.797-1.595.797-1.94 0-.305-.405-.602-.897-.602v-.604h7.273v.604c-.594 0-.797.203-.797.603 0 .39.35.938.895 2.086l9.57 19.836c1.146 2.343 1.188 2.49 2.336 2.49v.603h-6.92v-.602c.797 0 1-.24 1-.694 0-.297-.104-.5-.648-1.695l-1.896-3.983H330.72zm1.603-3.29h10.805l-5.633-11.765-5.172 11.766zM380.096 391.096v-.604c1.047 0 1.297-.5 1.297-1.193v-22.617c0-.695-.25-1.203-1.39-1.203v-.604h8.413v.604c-.844 0-1.14.297-1.14.646 0 .195.093.398.187.558l8.125 15.942 8.43-15.942c.057-.21.195-.406.195-.604 0-.305-.344-.602-1.242-.602v-.602h8.933v.602c-1.156 0-1.414.508-1.414 1.203V389.3c0 .695.257 1.195 1.413 1.195v.602h-6.984v-.602c1.14 0 1.397-.5 1.397-1.195V369.61l-.156-.094-10.616 21.077-10.61-21.077-.054.094v19.688c-.047.695.203 1.195 1.14 1.195v.602H380.097zM443.018 366.682c0-.695-.24-1.203-1.188-1.203v-.605h16.742c6.578 0 9.22 2.54 9.22 7.03 0 4.985-2.642 7.82-9.07 7.82h-11.517v9.57c0 .696.258 1.196 1.195 1.196v.603h-6.57v-.602c.945 0 1.188-.5 1.188-1.194v-22.614zm4.188 9.655h11.266c4.03 0 5.53-1.643 5.53-4.28 0-2.595-1.14-3.79-5.53-3.79h-11.266v8.07zM497.245 384.117l-1.71 3.984c-.243.603-.69 1.446-.69 1.845 0 .354.235.547.847.547v.604h-6.135v-.604c.846 0 1.057-.146 2.04-2.336l9.022-20.14c.5-1.142.796-1.595.796-1.94 0-.305-.398-.602-.89-.602v-.604h7.27v.604c-.602 0-.797.203-.797.603 0 .39.35.938.897 2.086L517.46 388c1.15 2.344 1.196 2.492 2.355 2.492v.602h-6.932v-.602c.797 0 .984-.242.984-.695 0-.297-.094-.5-.643-1.694l-1.89-3.983h-14.09v-.003zm1.586-3.29h10.82l-5.642-11.765-5.177 11.766zM563.096 381.23c-1.232 0-1.732.296-1.732 1.094h-.596v-5.884h.596c0 1.047.594 1.5 1.732 1.5h10.73v.595c-.704 0-.907.194-.907 1.305v4.328c0 1.147.257 1.297.905 1.444v.603c-4.79 3.78-10.078 5.18-14.258 5.18-8.768 0-15.25-5.383-15.25-13.055 0-7.78 6.28-13.758 14.75-13.758 8.568 0 11.115 3.39 12.312 3.39.546 0 .702-.304.89-.6l.604.404-3.492 5.134-.586-.406c.133-.148.188-.398.188-.594 0-1.148-4.228-3.938-9.813-3.938-7.476 0-10.765 4.688-10.765 9.97 0 6.47 4.982 10.06 10.266 10.06 4.282 0 7.93-1.25 10.173-2.98v-3.79l-5.747-.003zM626.838 384.518h.086v-17.836c0-.695-.232-1.203-1.188-1.203v-.605h5.977v.604c-.945 0-1.188.507-1.188 1.202v22.616c0 .693.24 1.193 1.188 1.193v.605h-6.375v-.604c.648 0 .992-.093.992-.403 0-.438-.344-.74-.5-.938l-17.734-20.19v20.337c0 .695.242 1.195 1.195 1.195v.603h-5.983v-.603c.945 0 1.203-.5 1.203-1.195V366.68c0-.695-.258-1.203-1.203-1.203v-.603h8.424v.603c-.74 0-.944.147-.944.547 0 .203.203.444.396.656l15.656 17.838zM663.393 366.682c0-.695-.24-1.203-1.193-1.203v-.605h20.883c1.695 0 1.992-.25 1.992-.99h.602v5.68h-.602c0-.852-.445-1.396-1.945-1.396h-15.547v7.874H677.7c1.193 0 2.047-.344 2.047-1.383h.594v6.017h-.593c0-.992-.547-1.336-1.953-1.336h-10.21v8.47h16.647c1.392 0 2.038-.453 2.038-1.695h.604v6.086h-.604c0-.804-.5-1.1-1.74-1.1H662.2v-.603c.953 0 1.193-.5 1.193-1.195v-22.62z"/><g><path d="M185.706 333.587c0-4.096 3.03-7.424 7.617-7.424h-3.93c-4.782 0-8.392 3.328-8.392 7.424 0 4.103 3.273 7.517 8.282 7.517h4.04c-4.687 0-7.616-3.415-7.616-7.517zM304.487 333.587c0-4.096 3.03-7.424 7.608-7.424h-3.914c-4.78 0-8.395 3.328-8.395 7.424 0 4.103 3.272 7.517 8.29 7.517h4.02c-4.68 0-7.608-3.415-7.608-7.517zM151.36 248.017c-1.068 0-2.1.062-3.132.188 10.953 2.562 18.508 8.664 23.21 21.04h5.126c-5.765-16.61-13.687-21.228-25.203-21.228zM442.284 333.44l-7.04-114.04-4.86 15.023 5.775 96.25-19.642 7.57v1.946h8.078v-1.948M430.424 204.83h-5.906L397.08 289.03l3.055 9.305M271.924 249.282l-12.406-4.11v-1.64h-8.266v1.946l15.148 6.117V287h5.524M163.573 330.51v-28.25l-15.148-4.297v-2.54h-7.352v4.228l17.016 6.563v23.017c-2.415 2.97-6.298 5.414-11.72 6.188 1.172.188 2.336.272 3.516.272 5.57 0 10.952-1.767 13.687-5.18z"/><path d="M103.463 290.44c0-29.517 18.953-48.767 47.703-48.767.233 0 .297-.01.102-.01h-6.336c-28.742 0-48.203 19.26-48.203 48.774 0 35.96 21.124 51.602 47.31 51.602h6.095c-26.11-.06-46.672-15.703-46.672-51.6zM271.948 334.617v-40.272H234.62v4.54h31.804v33.388l-15.15 6.18v1.736h8.267v-1.68M352.456 234.892l33.554 103.81h6.328L353.362 219.4"/><path fill="none" d="M352.456 234.04l.882-14.64"/><path d="M353.362 219.4l38.976 119.303M204.807 245.173v-1.642h-7.772v1.98l13.116 5.874v81.008l-9.17 4.03c-.618 1.607-1.76 2.915-3.313 3.767h7.14v-1.68l10.854-3.704v-85.61l-10.853-4.023zM332.393 206.79v-1.96h-8.125v1.96l14.713 6.892-7.43 117.79-12.243 6.086c-.64 1.094-1.576 2-2.74 2.633h8.154v-1.944l12.704-5.102 7.445-121.96-12.477-4.394zM484.112 305.984v-56.492l-10.938-4.32v-1.64h-6.232v1.952l11.77 5.898v54.6c0 25.79 13.83 36.07 40.02 36.07 2.528 0 3.015-.016 3.778-.016-22.187.003-38.398-10.263-38.398-36.052zM543.026 309.596v-60.103l-13.773-4.32v-1.64h-7.078v2.055l15.48 6.405v57.295c0 18.82-5.696 25.336-16.433 26.328 0 .04-.008-.03 0 0 .682.047 1.375.07 2.078.07 12.913.003 19.726-5.763 19.726-26.09zM589.557 333.73V248.9l-9.97-3.727v-1.64h-5.31V246l9.75 5.142v81.14l-11.782 6.15v1.757h6.273v-1.758M657.713 243.532h-6.164L630 286.204l3.08 6.078M597.47 274.595l23.587 45.164h5.53l-29.117-58.54M657.487 334.617V261.22l-5.555 11.18v59.475l-16.61 6.414v1.9h7.39v-1.758M701.948 333.73V248.9l-9.97-3.727v-1.64h-5.272V246l9.703 5.142v81.14l-11.767 6.15v1.757h6.258v-1.758M770.198 243.532h-6.157l-21.538 42.672 3.063 6.078M709.87 274.57l23.57 45.164h5.54l-29.11-58.514M769.87 334.596V261.22l-5.547 11.18v59.46l-16.61 6.408v1.896h7.383v-1.758"/><g fill="#CA9C4D"><path d="M304.487 333.587c0 4.103 2.93 7.517 7.608 7.517 4.688 0 7.71-3.414 7.71-7.517 0-4.096-3.02-7.424-7.71-7.424-4.577 0-7.608 3.33-7.608 7.424zM185.706 333.587c0 4.103 2.93 7.517 7.617 7.517 4.687 0 7.71-3.414 7.71-7.517 0-4.096-3.022-7.424-7.71-7.424-4.587 0-7.617 3.33-7.617 7.424zM302.057 338.51l-11.148-3.893v-85.42l11.147-4.024v-1.64H259.54v1.64l12.408 4.117v37.727H234.62V249.29l12.89-4.117v-1.64h-42.703v1.64l10.852 4.023v85.61l-10.853 3.703v1.68h42.703v-1.68l-12.89-4.096v-40.07h37.328v40.273l-12.407 3.892v1.68h42.517M478.15 338.242l-15.538-4.803-7.797-122.26 12.453-4.39v-1.96H430.47l-30.304 93.523-30.492-93.524h-37.28v1.96l12.476 4.39-7.446 121.963-12.703 5.1v1.946h39.58v-1.948l-17.68-5.1 6.742-113.743 38.976 119.32h4.203l38.705-119.32 7.04 114.04-17.69 4.802v1.947h53.556M189.76 295.423h-41.336v2.54l15.148 4.296v28.25c-2.734 3.413-8.117 5.18-13.688 5.18-12.406 0-24.922-9.665-24.922-45.25 0-31.57 11.828-42.415 26.397-42.415 11.53 0 19.437 4.61 25.22 21.227h2.24v-22.108c-8.687-3.328-17.116-5.47-27.655-5.47-28.75 0-47.703 19.25-47.703 48.767 0 35.96 20.625 51.603 46.812 51.603 13.97 0 25.51-5.478 32.353-12.615V301.09l7.133-3.125v-2.542zM473.174 243.532v1.642l10.938 4.32v56.49c0 25.79 16.21 36.057 38.396 36.057 25.806 0 40.75-10.266 40.75-36.055v-56.492l11.047-4.32v-1.64H529.25v1.64l13.773 4.32v60.103c0 20.327-6.813 26.094-19.73 26.094-11.655 0-18.96-5.767-18.96-26.397v-59.758l13.79-4.358v-1.642l-44.95-.003zM686.706 338.432l-10.258-3.815v-85.42l10.258-4.024v-1.64h-28.922L633.16 292.29l-24.744-48.758h-28.828v1.64l9.97 3.727v84.83l-11.04 4.702v1.757h35.766v-1.758l-16.813-4.893v-72.32l29.118 58.54h1.86l29.04-58.54v73.397l-14.775 3.815v1.757h43.993M799.104 338.432l-10.273-3.815v-85.42l10.274-4.024v-1.64H770.16l-24.634 48.757-24.72-48.758H691.98v1.64l9.968 3.727v84.83L690.9 338.43v1.757h35.774v-1.758l-16.804-4.893v-72.32l29.11 58.54h1.866l29.03-58.54v73.397l-14.772 3.815v1.757h44"/></g></g></g><g><path d="M904.706 224.67l-1.343.007c-.254-.56-.787-.87-1.374-.87h-1.115c-.563 0-.963.22-1.457.34h-.002c-.14-.04-.294-.1-.44-.19.148-.173.238-.397.238-.65 0-.567-.448-1.015-1.056-1.015h-1.115c-.61 0-1.054.448-1.054 1.014 0 .254.09.48.236.65-.146.09-.302.15-.44.19-.496-.12-.896-.34-1.457-.34h-1.115c-.584 0-1.113.312-1.367.87l-1.35-.007c-1.526 0-2.654 1.087-2.654 2.53 0 1.316.878 2.478 1.8 3.556l2.15 2.425h.522c.023-.01 2.606-1.08 5.842-1.08 3.25 0 5.844 1.082 5.844 1.082l1.777-2.425c.92-1.078 1.798-2.24 1.798-3.557 0-1.443-1.345-2.53-2.872-2.53zm-12.797 4.782c-.967-.148-2.258-.686-2.37-2.252-.035-.97.498-1.76 1.267-2.104-.022.058-.037.124-.037.18 0 .272.22.49.49.49h.444c.104.91.552 1.97 1.617 2.74-.25.62-.924.842-1.41.946zm4.45-1.36c-.29.38-.595.607-.897.728h-.004c-.577-.24-1.156-.845-1.565-1.606-.382-.735-.46-1.14-.46-1.774 0-.444.193-.803.534-.974.356.104.73.245 1.103.245 0 0 .476.045 1.107 0h.006c.104 0 .235-.01.378-.038.718 2.29-.205 3.42-.205 3.42zm4.947-.878c-.408.762-.99 1.365-1.566 1.607h-.003c-.302-.122-.604-.35-.89-.73 0 0-.928-1.128-.21-3.42.14.027.276.04.378.04h1.114c.375 0 .74-.14 1.098-.244.345.17.54.528.54.973 0 .633-.08 1.04-.46 1.774zm.867 1.216zm3.49-1.23c-.112 1.56-1.396 2.098-2.375 2.254-.486-.105-.866-.406-1.116-1.024.776-.915 1.307-1.9 1.35-2.883 0-.015-.004-.03-.006-.043.086.155.242.264.432.264.27 0 .49-.22.49-.49 0-.06-.013-.12-.032-.173.76.343 1.29 1.132 1.256 2.095z"/><path d="M924.253 283.716l.03-.024c1.27-.97 2.35-2.305 2.505-3.564.192-1.518-.592-3.144-3.015-3.113h-1.114c-.405 0-.927.123-1.284.373 1.147.28.512 1.456 1.004 2.593.354.876 1.374 1.207 1.242 2.046-.072.503-.33.83-.753 1.194-1.578 1.354-4.155 2.352-6.44 2.438-1.876-.077-3.184-.43-4.63-.882.455-.598.158-1.75-.913-1.804.088-1.32-.886-1.47-1.34-1.602-.94-.27-2.297.34-3.29.4-1.012.06-1.196-.158-1.362-.41-.072-.105-.134-.25-.188-.42-.232-1.06-.368-3.063-.434-4.19 0-.02-.002-.033-.004-.043-.07-.938.044-2.102.044-2.102.968 1.91 2.186 3.44 4.36 4.49h.652c-1.164-2.357-1.513-4.972-1.708-7.477l-.09-1.325c-.21-2.665-.774-4.967-2.003-5.077.273-.016.54-.064.79-.134 1.108-.3 1.96-.997 2.35-2.002.347 1.057.498 2.286.417 3.73-.2 3.544 1.356 5.272 1.356 5.272h.364c.5-.468.724-1.193.96-2.762-.1 3.08.45 5.104 1.063 6.034h.295c.654-.935 1.197-2.332 1.646-3.95-.06.356-.742 4.783.6 7.25h.285c.743-1.094 1.39-2.676 1.946-4.518-.07.404-1.053 6.367 2.357 8.476h.59c-.046-.44-.073-1.025-.093-1.628-.09-2.978.8-5.865 1.188-6.926 1.773-4.833 4.26-10.908 4.328-21.55.067-9.977-3.983-21.98-10.376-21.98-2.856 0-4.666 1.495-6.204 6.854-.403 1.415-1.153 3.626-1.968 5.62-.55 1.35-.867 2.74-1.66 3.8-1.022 1.36-2.007 1.672-2.7 1.854h-.003c-.396-.152-.613-.49-.688-.815.284-.017.926-.093 1.435-.48.334-.255.61-.645.688-1.242-1.577.44-3.17-.03-4.14-1.325-.578-.77-.823-1.49-.92-2.196h.855c1.73-.006 3.5-.688 4.574-2.472.292-.49.554-1.31.62-1.97l1.48-.285c.296-1.12-.62-1.95-1.765-1.973h-1.116c-.347-.007-.885.058-1.064.104.042-.81-1.03-1.27-1.898-.92-.338-.482-.982-.784-1.775-.87-1.93-.21-3.514.09-5.014 1.04-.832.526-1.71.998-2.717 1.12-.51-.068-.887-.234-1.46-.522h-.785c-.068-.035-.233 1.792.648 2.802.69.878 1.643 1.033 2.245 1.03l.308-.036c-.288.995-1.402 1.506-2.25 1.676-.52-.11-.97-.37-1.17-.713h-.685c-.072.686.048 2.87 2.152 3.38 0 0-1.522 1.277-1.79 3.545-.44-.797-.673-2.036-1.223-4.253 0 0-1.464-4.933-1.987-8.225-.62-3.898-1.847-4.64-4.046-4.698h-.35c-1.49-.037-2.872.457-4.113 1.373 0 0-8.557 5.68-8.557 24.062.18 10.17 2.848 14.933 4.617 19.764.39 1.06 1.5 3.536 1.454 6.942-.01.756-.044 1.192-.088 1.634h.473c.122-.027 3.553-.852 1.96-8.554.572 1.968 1.133 2.996 2.62 4.604h.302c.03-.028.944-.95.094-6.657.296 1.3 1.326 2.76 2.175 3.356h.263c.417-1.03.727-3.208.386-6.995.147 1.108.643 2.786 1.7 3.723h.23s.464-1.168.602-3.157l.012.165c0 2.918 1.194 5.455.466 9.567h.354c.053-.026 1.23-.605 1.99-3.272l.23 3.434c.045.796.103 1.497-.44 1.864-.345-.087-.72-.238-.997-.35-.53-.22-.978-.49-1.504-.473h-1.08c-.08 0-.164.008-.25.023-.156.03-.288.117-.384.236l-.912-.002c-1.34-.05-1.62 1.04-1.637 1.39-3.46-.25-6.238 3.348-8.86 3.46-.75-.066-1.8-.288-2.66-.96 0 0 1.432-.818 1.49-2.586 0-1.473-1.104-1.9-1.104-2.765 0-.608.09-.937.485-1.454h-.653c-2.472.946-4.143 2.283-4.143 4.175 0 2.816 2.96 4.08 5.627 4.772-.146.088-.983.325-1.25.497l-1.393-.01c-.298 0-.612.02-.938.086-2.48.5-1.743 3.3-3.45 4.55h.653c.728-.09 1.493.035 2.16.035 2.895 0 3.84-1.534 4.34-3.68.35-.326.77-.694 1.247-.92 1.037.124 2.308-.034 3.58-.498-.02.144-.03.286-.023.4-3.73 1.98-1.445 5.257-3.667 6.964h.653c.69 0 1.496-.057 2.397-.19 2.764-.403 4.144-2.188 3.947-4.283-.136-1.493-1.273-1.933-1.15-2.995.15-1.106 1.39-1.58 2.485-1.706 1.586.21 3.71 1.318 5.203 1.812 0 0-1.582 3.428-.14 6.393h.498s1.064-.14 2.103-.91c.04.862.513 2.068 1.55 2.99h.522s1.28-.314 2.226-1.88c.378 1.194 1.406 2.772 3.424 3.72h.477s2.108-1.373 2.695-4.08c.532.634 1.612 1.317 2.996 1.54h.42s.722-.88.643-3.055c.533.46 1.304.9 2.83 1.215h.426s1.206-1.987-.7-5.933c.498-.148 1.353-.35 2.207-.448.538.31 1.186.675 1.12 1.24-.045.345-.482.954-.53 1.643-.116 1.757 1.3 2.87 3.457 2.818h.97c.184 0 .368-.007.56-.022 1.273-.096 2.385-.53 3.48-1.306-1.082.145-1.846.007-2.472-.62-.256-.28-.726-.864-1.274-1.577-.452-.533-1.144-.925-2.128-1.07l-.008-.007c-.184-.225-.516-.63-.745-.96 1.63.5 3.647.76 5.177.794.74.09 1.443.312 1.76.78.945 1.42 1.153 3.062 4.928 3.062h.777c1.255 0 2.376-.74 2.61-1.848.186-.85.096-1.545-.27-2.18h-.927c-.218.47-.76.9-1.57 1.09-.018-.003-.035-.007-.05-.012-1.19-.308-1.842-1.315-3.31-1.232-.33.014-1.198.188-1.74-.017 2.687-.563 3.845-1.71 5.428-1.938.85.067 1.663.32 2.165.617h.792l.09-.312c-.304-.3-.644-.53-1.018-.694h1.217l.09-.314c-.123-.215-1.488-1.697-2.664-1.506z"/><path fill="#CA9C4D" d="M900.39 278.637c1.63-2.904 1.582-7.18 1.705-8.298.03-.266.093-.07.107 1.29.017 1.72.41 4.118 1.11 5.635.875-.84 1.337-3.718 1.364-7.247.002-.3.163.62.25 1.224 0 0 .57 6.422 4.403 7.854-1.165-2.356-1.514-4.974-1.71-7.478l-.09-1.326c-.224-2.826-.844-5.246-2.232-5.073-.437.054-.854.39-.986 1.02-.11-.57-.526-1.062-1.318-1.14-1.27-.108-2.913 1.222-2.522 4.085-.485-.075-.638-.707-.624-1.288-2.228 1.028-1.436 5.336-1.68 7.604 1.09-.237 1.628-3.624 1.745-4.162.07-.327.08-.088-.024 1.25-.175 2.24-.172 4.29.5 6.05zm-6.272.934c.627-1.337 1.108-3.22 1.108-5.76 0-5.534-1.478-8.074-4.54-9.052-2.29-.68-2.42.837-2.42.837-.206.678.21 1.52.21 1.52-.402-.05-.772-.84-.88-1.506l-.054-.315c-.195-1.764.7-3.418.7-3.418-.865.6-1.323 1.415-1.53 2.47-.53 2.72-.246 6.27-.246 6.27 0 2.918.894 6.128-.3 9.567 0 0 2.76-1.233 2.63-9.347 0 0 .983 5 2.79 7.89 0 0 .877-3.082-.098-9.565 0 0 .952 1.675 1.443 5.06.5 3.383.877 4.707 1.188 5.35zm9.713-39.575c-1.244 1.08-2.85 1.178-3.687 1.148-.024.36-.014.968.146 1.454 1.728-.006 3.5-.688 4.574-2.472.292-.49.554-1.31.62-1.97-.486.378-1.19 1.428-1.653 1.84zm6.984 45.517c.325-.078.62-.11.62-.11 2.108.293 2.647.973 5.803.973 1.716 0 3.466-.434 5.397-1.56.676-.39 1.108-.6 1.935-.454.713.127 1.2.395 2.257 1.18l.09-.313c-.122-.22-1.488-1.702-2.663-1.51 1.283-.973 2.377-2.32 2.535-3.588.19-1.52-.593-3.146-3.017-3.115-.403 0-.926.123-1.282.372 1.148.282.3 1.456.792 2.594.356.876 1.376 1.207 1.245 2.046-.073.503-.328.83-.754 1.194-1.65 1.416-4.168 2.455-6.545 2.455-2.324 0-3.782-.384-5.43-.9.456-.597.16-1.75-.91-1.803.113-1.728-1.553-1.44-1.553-1.44-.425.02-.93.145-1.572.278-.56.115-1.058.248-2.104.257-.477.003-.697-.282-.857-.766-.294-.896-.457-3.335-.53-4.593-.027.69-.076 1.41-.263 1.936 0 0 .103 1.472.235 2.717.18 1.17.633 1.422 1.66 1.422.593 0 1.397-.2 1.998-.328.48-.12 1.02-.288 1.517-.288.646 0 .85.345.81.712-.022.13-.137.303-.25.386.762.015 1.268.494 1.327.844.093.61-.27 1.05-1.112.975.034-.425-.216-1.04-.774-1.444-.347-.287-1.405-.63-2.81-.497l-.047.177c.51.032 1.506.22 2.144.476.5.193.9.65.943 1.15.04.657-.404 1.428-1.072 1.77-.036-.057-.075-.128-.075-.243 0-.336.26-.58.388-.796-.334-.172-.8-.427-.74-1.027-1.726.197-2.185-.663-2.47-1.103l-.27.126c.4.626.88 1.122.953 1.353.063.194.086.584-.423.7.263.048.277.284.254.532-.04.614-.435 1.128-1.06 1.388-.365.146-1.02.182-1.553-.088.696-.125 1.027-.34 1.305-.726.228-.35-.086-.726.314-.82-.78.016-1.024-.616-.983-1.1-.235-.56-.398-.806-.536-1.08l-.27.12.27.785c-.6-.1-1.174-.13-1.793-.055-.558.075-1.28.227-1.664.324-.313.055-.532-.236-.532-.236.116.293-.177.373-.366.43-.233.076-1.026.292-1.327.343-.04-.514.23-1.08.79-1.364 0 0 .377-.247 1.01-.35.616-.113 1.303.01 1.994-.038.925-.083 1.308-.76 1.286-2.142-.014-.972-.445-2.175-.066-2.927-.71-.244-.926-2.46-.926-2.46-.417 2.818-1.875 3.98-1.875 3.98-.535-.46-.658-1.772-.658-1.772.058 3.83-2.44 4.782-2.44 4.782-1.878-.733-2.52-2.88-2.52-2.88-.212.356-.523.614-.523.614-1.205-1.73-1.432-4.155-1.476-4.804-.008-.106-.028-.177-.023.003.093 3.2-.69 3.997-.69 3.997-.54-.49-.867-.99-1.054-1.348 0 0-.017.032-.057.068.213.63 0 3.788 0 3.788 0 .758.08 1.192.68 1.192.4 0 .59-.164 1.24-.085.295.035.793.145 1.172.564 0 0 .413-.05.924.123.522.177.7.673.75 1.234-.413 0-1.268-.116-1.568-.187-.116-.026-.534-.175-.504-.64-.094.306-.157.44-.536.402-.463-.036-1.17-.4-1.63-.436-.5-.045-.906.072-1.348.553-.41.42-.77.826-1.29.826-.195 0-.34-.057-.458-.13 0 0-.317-.197-.37.157v.008c-.313.21-.554.612-.54 1.04-.455-.155-.836-.48-.836-.963 0-.517.284-.844.5-.844.086-.373.535-.574.535-.574.316-.18 1.095-.16 1.503-.16.3 0 .82-.492.673-.59-.025-.02-.138-.09-.263-.075-.143.017-.3.193-.45.303-.176-.016-.424-.04-.543-.04-1.143 0-1.59.61-2.28.56-.306-.023-.54-.16-.69-.506-.202-.03-.414.142-.414.142-.347.276-.434.746-.396 1.327-.48-.19-.868-.75-.868-1.286 0-.368.074-.976.828-1.066 0 0 .616-.04.757.274.013-.282.33-.268.464-.268.694.015 1.155.004 2.727.12l-.043-.273c-1.207-.182-2.23-.29-3.292-.262 0 0-.215-.008-.215.24 0 0-.014-.18-.245-.228-.747-.17-1.416.287-1.416 1.118-.324-.036-.632-.383-.67-.744-.084-.605.128-1.14.767-1.374.866-.32 1.414.366 1.414.366 0-.11.104-.455.566-.5.563-.056 1.744.848 3.13.922.727.04 1.17-.386 1.17-1.128.006-.628-.224-2.63.03-3.035-.488-.405-.578-3.203-.578-3.203-.077.48-.207 1.18-.313 1.53l.277 3.264c.01.412.224 1.92-.693 1.92-.418 0-1.053-.253-1.465-.42-.605-.25-1.097-.565-1.722-.45-.28.056-.494.272-.53.58-.158-.228-.52-.346-.767-.346-1.112-.034-1.82.596-1.88 1.594-3.567-.42-5.9 3.268-8.762 3.268 0 0-2.11.214-3.63-.973 0 0 1.433-.82 1.49-2.587 0-1.472-1.103-1.9-1.103-2.765 0-.61.09-.94.486-1.454-2.472.945-3.683 2.282-3.683 4.174 0 2.504 2.5 4.08 5.167 4.77-.188.117-.77.484-.986.63-.48-.112-1.288-.224-2.13-.055-2.48.5-2.205 3.3-3.912 4.55.73-.09 1.494.035 2.16.035 2.896 0 3.84-1.535 4.34-3.682.35-.325.773-.693 1.248-.92 1.393.168 3.204-.173 4.88-1.08-.15.23-.23.69-.208.985-3.732 1.978-1.906 5.257-4.127 6.963.69 0 1.495-.057 2.397-.19 2.763-.402 4.144-2.188 3.948-4.282-.137-1.493-1.274-1.932-1.154-2.994.187-1.327 1.924-1.745 3.114-1.745 1.614 0 4.042 1.305 5.694 1.852 0 0-1.917 3.61-.757 6.392 0 0 2.082-.263 3.266-2.168 0 0-.406 2.453.907 4.25 0 0 2.243-.548 2.99-3.834 0 0 0 3.68 3.133 5.672 0 0 2.912-1.883 2.847-5.606 0 0 1.03 2.496 3.264 3.066 0 0 1.05-1.27.48-4.555 0 0 1.053 1.947 3.418 2.715 0 0 1.207-1.987-.7-5.932.702-.208 2.098-.53 3.23-.503.588.3 1.02.866.947 1.464-.043.347-.34.65-.383 1.34-.175 2.177 1.62 3.122 3.985 2.93 1.274-.095 2.387-.528 3.482-1.305-1.082.144-1.846.006-2.472-.622-.256-.28-.727-.865-1.276-1.576-.45-.533-1.145-.925-2.13-1.07-.182-.223-.518-.634-.752-.968 1.855.57 4.215.827 5.782.795.92-.022 1.49.205 1.88.777.944 1.42 2.015 3.06 4.98 3.063 1.256 0 2.377-.74 2.61-1.847.187-.85.095-1.546-.272-2.182-.307.667-1.193 1.308-2.254 1.14-1.386-.202-2.02-1.38-3.602-1.292-.33.014-1.2.188-1.74-.017 2.852-.596 3.98-1.85 5.723-1.97.806-.076 1.935.22 2.66.65l.09-.313c-.815-.81-1.928-1.126-3.212-.927-1.405.21-3.936 2.102-7.196 1.91-3.646-.217-4.34-1.08-6.2-1.226.057-.116.147-.318.16-.43.002.005.314.035.637-.042zm-37.762 2.113s-.16.004-.392-.012c-.16-.01-.273-.032-.475-.072l.827-.476c3.662 0 5.34-3.228 9.167-3.055.05.25.243.432.568.64-4.982.585-6.397 2.853-9.696 2.975zm30.355-.468c-.268-.382-.61-.55-1.028-.614l.237 1.16s.767 4.044-.352.49l-.594-1.662-.13.006c-.536.07-1.143.273-1.96.465l.064 1.707s.12 5.168-.534.537l-.374-2.068c-.74.13-1.63.23-2.745.23-.475 0-.946-.025-1.413-.065l-.343 1.904c-.656 4.63-.535-.537-.535-.537l.056-1.45c-.66-.08-1.296-.184-1.886-.296l-.086-.016-.447 1.25c-1.117 3.555-.352-.49-.352-.49l.183-.882c-.387-.08-.755-.16-1.078-.23.274-.412.597-.93 1.083-.886.16.01.354.036.566.065 1.11.156 2.853.492 4.35.492 2.593 0 4.167-.812 6.215-.983.942-.078 1.543.362 2.064 1.175-.217.576-.568.616-.963.702zm3.557-49.286c.297-1.118-.618-1.95-1.765-1.972-2.25-.048-4.897 2.188-5.03 4.674 3.733.012 4.238-2.942 5.623-3.08.516-.058.97.12 1.17.38zm-14.648-4.69s2.594-1.082 5.844-1.082c3.247 0 5.842 1.083 5.842 1.083l1.777-2.424c.92-1.078 1.798-2.24 1.798-3.557 0-1.443-1.344-2.532-2.872-2.532-.335 0-.64.05-.867.126-.028.007-.053.02-.076.028-.004 0-.007 0-.01.003-.12.05-.203.136-.246.24-.006.012-.012.023-.016.036-.142-.83-.782-1.294-1.503-1.294-.78 0-1.243.42-2.088.42-.054 0-.52-.02-.927-.27.148-.172.238-.397.238-.65 0-.567-.448-1.015-1.055-1.015-.61 0-1.058.45-1.058 1.015 0 .254.093.48.24.65-.405.25-.875.272-.928.272-.843 0-1.307-.42-2.086-.42-.72 0-1.36.463-1.5 1.29-.008-.015-.018-.028-.024-.042-.043-.098-.12-.18-.233-.228l-.02-.006c-.022-.008-.046-.02-.072-.026-.23-.077-.532-.127-.868-.127-1.526 0-2.87 1.088-2.87 2.53 0 1.318.877 2.48 1.8 3.558l1.776 2.426zm11.205-7.633c0-.015-.002-.03-.004-.043.085.155.242.264.432.264.27 0 .49-.22.49-.49 0-.134-.056-.255-.143-.344.117-.018.233-.024.334-.024 1.205 0 2.195.98 2.146 2.292-.15 2.087-2.395 2.347-3.164 2.297-.645-.033-1.137-.317-1.44-1.067.778-.918 1.308-1.903 1.35-2.886zm-4.674-1.463c.003 0 .005-.004.01-.007.3.53.938.634 1.27.634.6 0 1.166-.353 1.735-.353.64 0 1.022.46 1.022 1.082 0 .633-.08 1.04-.462 1.774-.532.994-1.36 1.725-2.087 1.725-.485 0-1.01-.214-1.487-.85 0 0-1.087-1.32 0-4.006zm6.07 6.95l-.427.598c-1.95-.814-4.12-1.193-6.314-1.193-2.192 0-4.367.378-6.318 1.192l-.43-.598c2.084-.837 4.69-1.248 6.73-1.248s4.676.41 6.76 1.248zm-10.46-6.676c.57 0 1.137.354 1.733.354.333 0 .973-.103 1.273-.634l.008.007c1.088 2.687 0 4.007 0 4.007-.478.634-1.003.847-1.486.847-.728 0-1.555-.73-2.09-1.726-.38-.735-.46-1.14-.46-1.774.002-.624.383-1.082 1.023-1.082zm-4.915 2.842c-.048-1.312.94-2.292 2.147-2.292.102 0 .218.007.336.025-.088.088-.143.208-.143.343 0 .27.22.49.492.49.187 0 .34-.107.425-.26 0 .013-.003.026-.003.04.04.984.57 1.97 1.348 2.883-.302.75-.796 1.034-1.438 1.065-.77.052-3.015-.208-3.163-2.295zm-15.637 48.358c.39 1.06 1.282 3.95 1.193 6.94-.02.605-.045 1.194-.09 1.635 0 0 3.937-.78 1.7-9.718-1.97-7.093-2.704-15.02-2.31-18.745 0 0 .37-3.197.48.088.062 1.794 1.346 19.026 5.015 24.425 0 0 1-.89.038-7.022s-1.58-8.08-1.875-14.6c0 0 .004-.01.002-.027-.083-.714.208-4.4.612.028.253 2.744 1.05 14.46 3.754 18.322.44-1.084.758-3.433.33-7.588-.514-4.967-.79-7.18-.79-7.18s-.43-5.073.444-.542c0 0 .665 3.64 1.057 6.932.396 3.293.574 4.45 1.274 5.106 0 0 .807-2.017.608-5.27-.248-4.12 1.444-7.393 4.087-7.656-.384.454-.646 1.138-.57 1.664.146 1.074.99 1.63 2.37 1.946 2.172.498 3.047 1.827 3.166 1.98 1.36 1.75 1.756 4.326 1.756 7.31 0 2.384-.49 4.336-1.1 5.93 0 0 .246 1.92 1.965 2.914 0 0 .635-.222 1.244-1.042.607-1.032.793-2.353.406-5.308-.27.272-.643.73-1.336.908.68-3-.968-8.55 2.506-9.86.456-1.997 2.05-2.776 3.288-2.664.61.057.97.262 1.18.5 0 0 .813-.5 1.2-2.28.533-2.628-1.653-3.04-1.653-3.04 1.82-2.03.808-4.76.808-4.76s-1.248.186-2.2-.632c-.958-.818-.257-1.458-.257-1.458 1.22 1.863 3.433.885 3.433.885 2.807-1.434 3.89-4.85 4.6-10.294.086-.66.525-.813 1.108-1.005l.038-.013c.565-.2 1.69-.642 2.065-.823.99-.492 1.48-1.385 1.597-2.89 0 0 .154-1.34-.282-3.818l.168.37.08.16c.92 1.92 2.396 3.703 3.298 3.304.832-.37.578-2.45 0-3.906l-.196-.594.306.552c1.338 2.482 2.64 4.23 3.164 4.093.455-.12.267-1.14-.004-1.83l-.258-.734c.01.002.405.69.412.698.172.263.685 1.11.693 1.792.01.543-.332.774-.475.812-.696.186-1.443-.308-2.654-2.26.134.883.257 2.18-.505 2.55 0 0-1.736.933-3.252-2.46.64 2.92-.176 4.23-1.672 4.973-.465.232-1.096.486-1.71.723l-.048.02c-.193.074-.382.146-.56.216-.162 2.73-.706 5.217-1.573 7.203 0 0 1.45 2.51 3.036 2.017 1.516-.523 1.923-5.612 1.923-8.49 0 0 .042-1.275.14.12.082 1.207.462 6.538 1.94 6.605.73.032 1.336-1.82 1.336-5.696 0-.613-.074-1.983-.074-1.983s-.1-1.476.074-.073c.174 1.4.83 7.006 2.664 6.74 1.315-.19 1.46-4.437 1.335-6.63 0 0-.007-.143.09.297 0 0 .846 7.537-1.103 8.016 0 0-1.715.412-2.462-3.413 0 0 .283 3.987-1.517 4.204-1.712.206-2.387-2.662-2.387-2.662s-.093 4.005-1.966 4.32c-2.064.35-3.633-2.344-3.633-2.344-.785 1.64-2.014 2.295-2.014 2.295.666 2.556-.462 4.008-.86 4.384-.396.375-.14-.122-.14-.122.646-2.113-.066-3.62-.066-3.62-.324.215-.73.228-.73.228.604 2.134-.33 4.444-.33 4.444 2.937 1.913 1.088 5.933 1.088 5.933 1.7-.464 2.8-1.853 2.54-3.866.973 1.398 1.48 3.205 1.34 5.596-.197 3.253.606 5.27.606 5.27.702-.656.858-1.816 1.274-5.105.594-4.687 1.058-6.92 1.058-6.92l.018-.082c.907-4.09.428.61.428.61s-.427 3.11-.79 7.183c-.36 4.074-.107 6.505.33 7.59 2.704-3.862 3.494-15.58 3.746-18.32.395-4.308.646-.71.62-.07-.002.044.004.07.004.07-.296 6.518-.914 8.464-1.877 14.598-.962 6.13.038 7.022.038 7.022 3.67-5.398 4.952-22.63 5.014-24.426.11-3.286.48-.087.48-.087.396 3.723-.34 11.65-2.31 18.744-2.234 8.94 1.708 9.728 1.708 9.728-.045-.44-.072-1.026-.092-1.63-.092-2.977.8-5.864 1.188-6.924 1.772-4.833 4.26-10.908 4.327-21.552.067-9.976-3.983-21.978-10.375-21.978-2.857 0-3.73 1.28-5.27 6.64-.402 1.414-1.153 3.625-1.97 5.62-.55 1.35-.864 2.742-1.66 3.8-1.336 1.78-2.31 2.135-3.132 2.153-.724.013-1.093-.457-1.194-.9.472-.03 1.93-.22 2.12-1.722-1.576.44-3.167-.03-4.14-1.326-1.012-1.35-1.01-2.556-.957-3.774.068-1.612.94-2.884 1.668-3.625 0 0 .136-.132.346-.317-.584-.188-1.29-.368-1.94-.403.17.164.25.438.215.772-.076.594-.473.87-.818.87-.45 0-.747-.336-.73-.87 0-.335.126-.61.377-.772-.122 0-.234.017-.338.017-.576.11-.823.5-.784.976.047.474.35.734.686.833-.705.103-1.225-.21-1.29-.73-.033-.263 0-.578.29-.805-.603.21-1.094.483-1.54.726.565-.93 1.748-1.597 3.19-1.685.955-.03 2.13.313 2.86.92.4-.338.965-.762 1.437-.922.04-.81-1.033-1.27-1.9-.922-.347-.5-1.02-.79-1.776-.87-1.45-.132-2.862.378-3.903 1.048-.977.63-2.02 1.153-3.264 1.146-.848-.005-1.26-.173-2.023-.556-.07-.035-.324 1.714.56 2.725 1.09 1.385 2.828.972 2.828.972-.307 1.194-1.55 1.757-2.475 1.827-.794.058-1.62-.265-1.916-.768-.07.687.048 2.87 2.152 3.38 0 0-1.032 1.634-1.418 3.828 0 0 .458.675 1.348.523-.53.52-1.148.31-1.148.31-.49-.137-.945-.613-1.158-.948-.508-.79-.73-2.044-1.32-4.42 0 0-1.463-4.93-1.986-8.223-.62-3.898-1.848-4.64-4.046-4.698-3.43-.086-6.29 2.647-8.195 6.865-.03.072-.062.144-.095.216-2.36 5.352-3.73 11.707-3.614 18.352.184 10.213 2.464 14.928 4.235 19.76zm-.096-31.535c.095-.47.086-.318.086-.318-.123 2.335.254 6.83 1.563 7.034 1.827.282 2.25-5.66 2.422-7.152.173-1.493.074.08.074.08s-.074 1.46-.074 2.11c0 4.13.837 6.073 1.564 6.038 1.473-.072 1.617-5.72 1.7-7.006.096-1.485.137-.127.137-.127 0 3.065.64 8.413 2.15 8.97 1.578.526 2.792-2.076 2.792-2.076-.863-2.114-1.404-4.764-1.57-7.67-.172-.075-.358-.153-.553-.232l-.05-.02c-.61-.25-1.24-.522-1.705-.77-1.49-.792-2.3-2.185-1.664-5.295-1.513 3.614-3.24 2.62-3.24 2.62-.76-.395-.636-1.774-.503-2.717-1.204 2.082-1.95 2.607-2.646 2.41-.14-.042-.478-.29-.47-.867.01-.727.52-1.628.692-1.91.005-.008.397-.74.406-.743 0 0-.24.74-.257.78-.267.735-.455 1.823-.003 1.95.523.146 1.82-1.715 3.153-4.36l.306-.586s-.188.602-.195.632c-.578 1.55-.83 3.766 0 4.16.898.426 2.37-1.475 3.287-3.518l.078-.173.167-.393c-.435 2.64-.28 4.066-.28 4.066.113 1.605.604 2.555 1.592 3.08.375.19 1.496.664 2.058.876l.038.014c.58.203 1.038.366 1.104 1.07.545 6.203 1.938 9.28 4.253 9.413 0 0 1.66.16 2.24-.75.03-.062.063-.135.094-.213l.01-.023c.01-.024.037-.035.066-.027l.026.007c.308.097.497.332.545.68.038.275-.16.595-.415 1-.43.69-1.02 1.63-.928 3.018.07 1.19.442 2.153 1.04 2.716 0 0 1.085 1.146 2.723 1.096l.133-.016c.027-.002.055.014.068.04.016.08-.122.14-.122.14-1.936.76-3.41-.46-3.41-.46-1.04-.85-1.48-2.25-1.587-2.94-.153-.994.037-2.36.462-3.136-3.27.146-4.413-2.162-4.413-2.162s-1.488 3.122-3.55 2.75c-1.864-.338-1.954-4.547-1.954-4.547s-.675 3.055-2.38 2.836c-1.793-.23-1.513-4.478-1.513-4.478-.745 4.074-2.452 3.636-2.452 3.636-1.938-.514-1.093-8.54-1.093-8.54z"/></g></svg>