<svg xmlns="http://www.w3.org/2000/svg" width="78" height="78" viewBox="0 0 78 78"><g fill="#CB0427"><path d="M45.647 41.343C42.29 46.29 45.14 52.79 48.613 56.09c3.158 3 5.694 3.708 6.026 3.792l1.61-3.09 4.66 12.73-13.162 2.675 1.748-3.242-1.78-1c-5.54-3.605-6.714-8.514-7.098-10.044-.655-2.635-1.64-10.52 5.03-16.567"/><path d="M45.587 41.556c2.393 5.478 9.413 6.536 14.053 5.36 4.112-1.044 6.067-2.74 6.398-3.05l-.018-.03-1.76-3.047 13.24 2.893L72.7 56.226l-1.77-3.16-1.732.94c-6.01 2.764-10.787 1.135-12.285.643-2.58-.854-9.775-4.23-11.328-13.094"/><path d="M68.994 28.333c-.916 6.548-4.865 9.692-6.09 10.686-2.11 1.713-8.836 5.945-17.138 2.47 5.905.943 10.586-4.393 12.103-8.935 1.357-4.07.96-6.647.883-7.047l-.044-.005-3.518-.152 9.563-9.606L72.75 26.54l-3.605-.21-.15 2.003zM28.836 22.807c-3.02 0-5.47-2.445-5.47-5.467 0-3.02 2.45-5.47 5.47-5.47s5.468 2.45 5.468 5.47c0 3.022-2.45 5.467-5.468 5.467"/><path d="M36.312 1.47C16.566 1.47.5 17.534.5 37.282c0 19.745 16.065 35.812 35.812 35.812 1.058 0 2.096-.067 3.13-.16l.237 3.597 6.548-6.334-7.33-5.593.275 3.775c-.942.087-1.896.148-2.86.148-1.52 0-3.01-.115-4.47-.326l-.146-.95-3.4-28.994c-.466-5.472 2.66-6.346 4.59-5.525l10.857 4.362c1.25.538 1.844-.505 1.844-.505s.703-1.09-.552-1.893c0 0-14.805-9.807-17.958-10.398-4.303-.806-8.563 2.682-9.513 7.224l-5.25 25.747c-4.52-5.42-7.248-12.39-7.248-19.983 0-17.23 14.017-31.246 31.245-31.246 9.203 0 17.484 4 23.21 10.353l3.21-3.253C56.177 5.972 46.76 1.47 36.31 1.47M20.37 49.388c.465-1.28 1.164-1.2 1.164-1.2s.627-.134.976 1.157l5.113 17.94c-4.263-1.235-8.154-3.354-11.457-6.148l4.203-11.75z"/></g></svg>