<svg xmlns="http://www.w3.org/2000/svg" width="78" height="78" viewBox="0 0 78 78"><path d="M45.647 41.344c-3.357 4.947-.505 11.45 2.966 14.747 3.158 3 5.695 3.71 6.027 3.794l1.61-3.09 4.66 12.73-13.162 2.675 1.748-3.243-1.78-1c-5.54-3.604-6.714-8.513-7.098-10.044-.655-2.638-1.64-10.523 5.03-16.57"/><path d="M45.587 41.557C47.98 47.035 55 48.093 59.64 46.915c4.11-1.043 6.066-2.74 6.397-3.048l-.018-.03-1.76-3.048 13.238 2.893L72.7 56.226l-1.77-3.16-1.73.94c-6.01 2.763-10.787 1.134-12.285.642-2.58-.85-9.775-4.227-11.328-13.09"/><path d="M68.994 28.333c-.916 6.55-4.864 9.692-6.09 10.686-2.11 1.713-8.836 5.946-17.137 2.47 5.905.943 10.585-4.393 12.102-8.935 1.357-4.07.96-6.647.884-7.046l-.044-.006-3.518-.153 9.563-9.606 7.993 10.795-3.604-.21-.15 2.003z"/><path fill="#121212" d="M28.836 22.808c-3.02 0-5.47-2.445-5.47-5.466 0-3.02 2.448-5.47 5.47-5.47 3.02 0 5.468 2.448 5.468 5.47 0 3.02-2.45 5.466-5.468 5.466"/><path fill="#121212" d="M36.312 1.47C16.567 1.47.502 17.535.502 37.284c0 19.745 16.063 35.812 35.81 35.812 1.058 0 2.096-.067 3.13-.16l.238 3.596 6.548-6.334-7.33-5.592.276 3.776c-.943.087-1.896.148-2.862.148-1.518 0-3.008-.116-4.467-.326l-.148-.952L28.3 38.26c-.468-5.474 2.657-6.348 4.59-5.527l10.854 4.362c1.25.538 1.845-.505 1.845-.505s.702-1.09-.554-1.894c0 0-14.805-9.807-17.958-10.397-4.303-.808-8.562 2.68-9.513 7.222l-5.25 25.747c-4.52-5.422-7.248-12.39-7.248-19.984 0-17.23 14.018-31.246 31.245-31.246 9.203 0 17.485 4 23.21 10.353l3.21-3.254C56.177 5.972 46.76 1.47 36.31 1.47M20.37 49.39c.466-1.282 1.164-1.2 1.164-1.2s.627-.135.977 1.156l5.113 17.94c-4.263-1.236-8.153-3.354-11.456-6.15L20.37 49.39z"/></svg>