<?xml version="1.0" standalone="no"?>
<!DOCTYPE svg PUBLIC "-//W3C//DTD SVG 1.1//EN" "http://www.w3.org/Graphics/SVG/1.1/DTD/svg11.dtd" >
<svg>
<metadata>
Created by FontForge 20090914 at Fri Nov 16 08:52:54 2012
 By www-data
Copyright (c) 1999 by Hubert Jocham. All rights reserved.
</metadata>
<defs>
<font id="NewJuneBook" horiz-adv-x="581" >
  <font-face 
    font-family="NewJuneBook"
    font-weight="400"
    font-stretch="normal"
    units-per-em="1000"
    panose-1="2 0 5 3 3 0 0 2 0 4"
    ascent="780"
    descent="-220"
    x-height="544"
    cap-height="744"
    bbox="-50.001 -196.002 1282 952.001"
    underline-thickness="50"
    underline-position="-50"
    unicode-range="U+0020-U+FB02"
  />
<missing-glyph horiz-adv-x="985" 
 />
    <glyph glyph-name="fi" unicode="fi" horiz-adv-x="597" 
d="M448 0l0.000976562 476.999h-272v-477h-62v477h-89v57h89v60c0 56.667 13.667 99.334 41 128.001s65.333 43 114 43c13.333 0 28.166 -1.16699 44.499 -3.5s36.833 -6.16602 61.5 -11.499l-10 -59c-23.333 5.33301 -42.5 9.16602 -57.5 11.499s-28.167 3.5 -39.5 3.5
c-34 0 -57.833 -9 -71.5 -27s-20.5 -47.667 -20.5 -89v-56h337v-534h-65zM524.001 718.999c0 -15.333 -4 -27.333 -12 -36s-18.667 -13 -32 -13s-24 4.33301 -32 13s-12 20.667 -12 36s4 27.5 12 36.5s18.667 13.5 32 13.5s24 -4.5 32 -13.5s12 -21.167 12 -36.5z" />
    <glyph glyph-name="fl" unicode="fl" horiz-adv-x="588" 
d="M114 593c0 56.667 14.832 99.5 44.499 128.5s68.834 43.5 117.501 43.5c22.667 0 47.5 -1.5 74.5 -4.5s59.5 -7.16699 97.5 -12.5l62 20v-768h-62v690c-42 6.66699 -76.5 11.167 -103.5 13.5s-50.167 3.5 -69.5 3.5c-36 0 -61.5 -10.667 -76.5 -32s-22.5 -50 -22.5 -86
v-55h173v-57h-173v-477h-62v477h-89v57h89v59z" />
    <glyph glyph-name=".notdef" horiz-adv-x="985" 
 />
    <glyph glyph-name="space" unicode=" " horiz-adv-x="255" 
 />
    <glyph glyph-name="space" unicode="&#xa0;" horiz-adv-x="255" 
 />
    <glyph glyph-name="exclam" unicode="!" horiz-adv-x="205" 
d="M73 225v519h64v-507zM150 40c0 -15.333 -4 -27.333 -12 -36s-19 -13 -33 -13c-13.333 0 -24 4.33301 -32 13s-12 20.667 -12 36s4 27.5 12 36.5s18.667 13.5 32 13.5c14 0 25 -4.5 33 -13.5s12 -21.167 12 -36.5z" />
    <glyph glyph-name="quotedbl" unicode="&#x22;" horiz-adv-x="365" 
d="M295 569h-54l-7 194h68zM123 569h-54l-6 194h68z" />
    <glyph glyph-name="numbersign" unicode="#" horiz-adv-x="695" 
d="M661 462h-138l-35 -190h143l-10 -59h-145l-39 -213h-61l40 213h-184l-42 -213h-61l41 213h-134l9 59h137l37 190h-143l10 58h144l42 224h61l-42 -224h182l42 224h60l-42 -224h138zM280 462l-37 -190h185l35 190h-183z" />
    <glyph glyph-name="dollar" unicode="$" 
d="M368 385c53.333 -13.333 94.834 -34.833 124.501 -64.5s44.5 -71.5 44.5 -125.5c0 -33.333 -6 -62.5 -18 -87.5s-27.833 -45.667 -47.5 -62s-42.167 -28.833 -67.5 -37.5s-51.333 -13.667 -78 -15v-122h-60v123c-31.333 3.33301 -60.5 8.66602 -87.5 15.999
s-55.167 16 -84.5 26l-43 15l15 61l42 -15c34.667 -12.667 68.5 -23.334 101.5 -32.001s67.5 -13 103.5 -13c20.667 0 40.667 2.66699 60 8s36.5 13.5 51.5 24.5s27.167 25.333 36.5 43s14 39.167 14 64.5c0 36 -9.5 64.5 -28.5 85.5s-49.167 36.5 -90.5 46.5l-135 34
c-52 12.667 -92.667 34.334 -122 65.001s-44 72 -44 124c0 34 6 63.333 18 88s28 45.167 48 61.5s42.667 28.5 68 36.5s51 12.333 77 13v121h60v-123c28 -2.66699 55.333 -7.66699 82 -15s54.667 -16 84 -26l42 -14l-15 -61l-41 15
c-34.667 12.667 -67.834 23.167 -99.501 31.5s-65.167 12.5 -100.5 12.5c-20.667 0 -40.667 -2.33301 -60 -7s-36.5 -12.5 -51.5 -23.5s-27 -25.167 -36 -42.5s-13.5 -38.666 -13.5 -63.999c0 -35.333 9.16699 -63.5 27.5 -84.5s47.833 -36.5 88.5 -46.5z" />
    <glyph glyph-name="percent" unicode="%" horiz-adv-x="901" 
d="M408 566c0 -61.333 -16.832 -109.168 -50.499 -143.501s-78.834 -51.5 -135.501 -51.5c-57.333 0 -102 17.333 -134 52s-48 82.334 -48 143.001s16.5 108.167 49.5 142.5s77.833 51.5 134.5 51.5c58 0 103.167 -17.167 135.5 -51.5s48.5 -81.833 48.5 -142.5z
M350.001 565.998c0 46 -11.001 81.332 -33.001 105.999s-53.667 37 -95 37s-72.333 -12.5 -93 -37.5s-31 -60.167 -31 -105.5c0 -46 10.833 -81.5 32.5 -106.5s52.834 -37.5 93.501 -37.5c42 0 73.5 12.333 94.5 37s31.5 60.334 31.5 107.001zM185 -0.00292969h-71l595 744
h71zM862 179.997c0 -61.333 -16.832 -109.168 -50.499 -143.501s-78.834 -51.5 -135.501 -51.5c-57.333 0 -102 17.333 -134 52s-48 82.334 -48 143.001s16.5 108.167 49.5 142.5s77.833 51.5 134.5 51.5c58 0 103.167 -17.167 135.5 -51.5s48.5 -81.833 48.5 -142.5z
M804.001 179.995c0 46 -11.001 81.332 -33.001 105.999s-53.667 37 -95 37s-72.333 -12.5 -93 -37.5s-31 -60.167 -31 -105.5c0 -46 10.833 -81.5 32.5 -106.5s52.834 -37.5 93.501 -37.5c42 0 73.5 12.333 94.5 37s31.5 60.334 31.5 107.001z" />
    <glyph glyph-name="ampersand" unicode="&#x26;" horiz-adv-x="690" 
d="M560 0l-55.9971 66.0029c-13.333 -12 -28.833 -22.833 -46.5 -32.5s-36.5 -17.834 -56.5 -24.501s-40.333 -11.834 -61 -15.501s-41 -5.5 -61 -5.5c-37.333 0 -70.166 5.16699 -98.499 15.5s-52 24.166 -71 41.499s-33.333 37.833 -43 61.5s-14.5 48.5 -14.5 74.5
c0 18.667 2.5 37.334 7.5 56.001s13.5 36.667 25.5 54s28.333 34.166 49 50.499s46.667 31.5 78 45.5l-39 45.5c-12 14.333 -22.333 28.666 -31 42.999s-15.5 29.666 -20.5 45.999s-7.5 34.5 -7.5 54.5c0 30 5.5 56.167 16.5 78.5s26 41 45 56s41 26.333 66 34
s51.5 11.5 79.5 11.5s54 -3.66699 78 -11s44.667 -18 62 -32s31 -31.667 41 -53s15 -46 15 -74c0 -25.333 -3.83301 -48.166 -11.5 -68.499s-19.834 -39.333 -36.501 -57s-38 -34.167 -64 -49.5s-57.333 -30.333 -94 -45l196 -216c17.333 20 31.5 48.167 42.5 84.5
s16.5 76.5 16.5 120.5v89h61v-92c0 -23.333 -1.83301 -46.5 -5.5 -69.5s-8.83398 -45.167 -15.501 -66.5s-14.834 -41.166 -24.501 -59.499s-20.834 -34.5 -33.501 -48.5l91 -108h-79zM458.003 585.003c0 32.667 -11.168 60.334 -33.501 83.001s-56.833 34 -103.5 34
c-50 0 -86.833 -12 -110.5 -36s-35.5 -54 -35.5 -90c0 -14.667 2 -28.334 6 -41.001s10 -25.5 18 -38.5s18.333 -26.5 31 -40.5l45 -48c30.667 11.333 57.334 23 80.001 35s41.667 24.833 57 38.5s26.833 29 34.5 46s11.5 36.167 11.5 57.5zM250.002 345.003
c-50 -21.333 -84.498 -45.334 -103.498 -72.001s-28.5 -56.667 -28.5 -90c0 -17.333 3 -34.166 9 -50.499s15.333 -31 28 -44s29.167 -23.5 49.5 -31.5s45.166 -12 74.499 -12c16 0 32.667 1.5 50 4.5s34.333 7.16699 51 12.5s32.167 12 46.5 20s27.166 16.667 38.499 26z
" />
    <glyph glyph-name="quotesingle" unicode="'" horiz-adv-x="203" 
d="M130 569h-56l-8 194h72z" />
    <glyph glyph-name="parenleft" unicode="(" horiz-adv-x="273" 
d="M41 339c0 84.667 6.33203 153.332 18.999 205.999s29.167 93.667 49.5 123s43 49.333 68 60s49.833 16 74.5 16v-57c-14 -0.666992 -29.5 -5 -46.5 -13s-33 -24.167 -48 -48.5s-27.5 -59.166 -37.5 -104.499s-15 -106 -15 -182c0 -77.333 5 -139.333 15 -186
s22.5 -82.5 37.5 -107.5s31 -41.667 48 -50s32.5 -12.833 46.5 -13.5v-56c-23.333 0 -47.5 5.66699 -72.5 17s-47.667 32 -68 62s-37.166 71.833 -50.499 125.5s-20 123.167 -20 208.5z" />
    <glyph glyph-name="parenright" unicode=")" horiz-adv-x="273" 
d="M239 339c0 -85.333 -6.66602 -154.831 -19.999 -208.498s-30.333 -95.5 -51 -125.5s-43.5 -50.667 -68.5 -62s-49.167 -17 -72.5 -17v56c14 0.666992 29.667 5.16699 47 13.5s33.5 25 48.5 50s27.5 60.833 37.5 107.5s15 108.667 15 186c0 76 -5 136.667 -15 182
s-22.5 80.166 -37.5 104.499s-31.167 40.5 -48.5 48.5s-33 12.333 -47 13v57c24.667 0 49.667 -5.33301 75 -16s48.166 -30.667 68.499 -60s36.833 -70.333 49.5 -123s19 -121.334 19 -206.001z" />
    <glyph glyph-name="asterisk" unicode="*" horiz-adv-x="542" 
d="M309 533l123 -149l-57 -41l-99 168l-100 -167l-57 41l124 149l-185 45l21 65l177 -74l-15 193h69l-15 -193l178 73l20 -65z" />
    <glyph glyph-name="plus" unicode="+" 
d="M319 264v-216h-62v216h-198v61h198v215h62v-215h202v-61h-202z" />
    <glyph glyph-name="comma" unicode="," horiz-adv-x="205" 
d="M114 -64c-5.33301 -18 -16.334 -27 -33.001 -27c-13.333 0 -22.666 4.33301 -27.999 13s-6.33301 19 -3 31l40 151h70z" />
    <glyph glyph-name="hyphen" unicode="-" horiz-adv-x="407" 
d="M63 296v62h282v-62h-282z" />
    <glyph glyph-name="period" unicode="." horiz-adv-x="205" 
d="M149 40c0 -15.333 -4 -27.333 -12 -36s-18.667 -13 -32 -13s-24 4.33301 -32 13s-12 20.667 -12 36s4 27.5 12 36.5s18.667 13.5 32 13.5s24 -4.5 32 -13.5s12 -21.167 12 -36.5z" />
    <glyph glyph-name="slash" unicode="/" horiz-adv-x="404" 
d="M83 0h-66l312 744h63z" />
    <glyph glyph-name="zero" unicode="0" 
d="M519 233c0 -78.667 -18.5 -139 -55.5 -181s-92.167 -63 -165.5 -63s-129.666 21 -168.999 63s-59 101.333 -59 178v280c0 76.667 19.667 136.167 59 178.5s95.666 63.5 168.999 63.5s128.5 -21.167 165.5 -63.5s55.5 -102.833 55.5 -181.5v-274zM458 507
c0 60.667 -12.5 107 -37.5 139s-66.5 48 -124.5 48c-57.333 0 -99 -16.5 -125 -49.5s-39 -78.833 -39 -137.5v-274c0 -58.667 13 -104.5 39 -137.5s68 -49.5 126 -49.5c57.333 0 98.5 16 123.5 48s37.5 78.333 37.5 139v274z" />
    <glyph glyph-name="one" unicode="1" 
d="M71 0l0.000976562 59.998h223v623h-54c-14 0 -31.667 -1 -53 -3s-40.333 -7 -57 -15l-16 58c6.66699 4 15.167 7.33301 25.5 10s21 4.83398 32 6.50098s22.167 2.83398 33.5 3.50098s21.666 1 30.999 1h61c22.667 0 39 -5 49 -15s15 -25.333 15 -46v-623h182v-60h-472z
" />
    <glyph glyph-name="two" unicode="2" 
d="M304 751c28 0 55.167 -3.49805 81.5 -10.498s49.5 -18.5 69.5 -34.5s36.167 -37 48.5 -63s18.5 -58 18.5 -96c0 -18.667 -2.16699 -37.667 -6.5 -57s-11.5 -39.333 -21.5 -60s-23.333 -41.834 -40 -63.501s-37.667 -44.5 -63 -68.5l-256 -241h389v-57h-419
c-13.333 0 -23.5 3.83301 -30.5 11.5s-10.5 18.167 -10.5 31.5c0 9.33301 1.83301 17.666 5.5 24.999s8.5 14 14.5 20l260 250c38.667 37.333 67.667 72 87 104s29 67.333 29 106c0 26 -4.16699 48 -12.5 66s-19.5 32.5 -33.5 43.5s-30.5 19 -49.5 24s-39.167 7.5 -60.5 7.5
c-26 0 -54.833 -3.16699 -86.5 -9.5s-64.5 -14.833 -98.5 -25.5l-38 -12l-13 60l36 11c37.333 11.333 72.5 20.5 105.5 27.5s64.5 10.5 94.5 10.5z" />
    <glyph glyph-name="three" unicode="3" 
d="M308 -8c-32 0 -65.666 3.50293 -100.999 10.5029s-73 16.167 -113 27.5l-40 11l14 59l40 -11c34 -9.33301 68.667 -18 104 -26s67 -12 95 -12c57.333 0 99.666 12.167 126.999 36.5s41 56.833 41 97.5c0 21.333 -3.83301 39.833 -11.5 55.5s-18.834 31.5 -33.501 47.5
l-55 58h-139v56h139l43 60c10.667 15.333 19.334 31.666 26.001 48.999s10 36 10 56c0 36 -11.5 65.5 -34.5 88.5s-61.833 34.5 -116.5 34.5c-26.667 0 -55.167 -3.5 -85.5 -10.5s-62.166 -15.167 -95.499 -24.5l-39 -10l-13 58l39 12
c37.333 11.333 71.666 20.166 102.999 26.499s62 9.5 92 9.5c70 0 122.833 -16.167 158.5 -48.5s53.5 -77.166 53.5 -134.499c0 -24.667 -4 -47.334 -12 -68.001s-18 -40 -30 -58l-48 -65l59 -62c34.667 -36.667 52 -79.334 52 -128.001c0 -29.333 -5.33301 -56 -16 -80
s-26 -44.5 -46 -61.5s-44.167 -30.167 -72.5 -39.5s-59.833 -14 -94.5 -14z" />
    <glyph glyph-name="four" unicode="4" 
d="M81 143c-14.667 0 -25.167 3.66699 -31.5 11s-9.5 17.333 -9.5 30c0 8 1.5 15.5 4.5 22.5s6.83301 13.833 11.5 20.5l320 491c13.333 21.333 31.333 32 54 32c30.667 0 46 -16 46 -48v-503h89v-56h-89v-143h-62v143h-333zM414 669l-305 -470h305v470z" />
    <glyph glyph-name="five" unicode="5" 
d="M292 51c30.667 0 57.3301 4.66504 79.9971 13.998s41.5 22.166 56.5 38.499s26.167 35.833 33.5 58.5s11 47.334 11 74.001c0 62 -15.833 106.833 -47.5 134.5s-76.167 41.5 -133.5 41.5c-16.667 0 -37.167 -1.83301 -61.5 -5.5s-49.166 -9.16699 -74.499 -16.5l-60 -18
v372h407v-62h-349v-236c16.667 4.66699 31.667 8.66699 45 12s25.833 6 37.5 8s22.5 3.33301 32.5 4s20.333 1 31 1c36 0 68.333 -4.66699 97 -14s53.334 -23.666 74.001 -42.999s36.5 -43.666 47.5 -72.999s16.5 -64.333 16.5 -105c0 -36.667 -5.5 -70 -16.5 -100
s-27 -55.667 -48 -77s-46.5 -37.833 -76.5 -49.5s-63.667 -17.5 -101 -17.5c-29.333 0 -59.166 3 -89.499 9s-64.5 14.667 -102.5 26l-37 10l13 60l38 -11c32.667 -9.33301 63.667 -17.5 93 -24.5s57.333 -10.5 84 -10.5z" />
    <glyph glyph-name="six" unicode="6" 
d="M128 435c44 14.667 79.168 24.167 105.501 28.5s47.166 6.5 62.499 6.5c80.667 0 140.834 -20.5 180.501 -61.5s59.5 -98.833 59.5 -173.5c0 -34 -4.83301 -65.667 -14.5 -95s-24.334 -54.833 -44.001 -76.5s-44 -38.667 -73 -51s-62.5 -18.5 -100.5 -18.5
c-37.333 0 -70.666 6 -99.999 18s-54.333 28.833 -75 50.5s-36.334 47.667 -47.001 78s-16 63.833 -16 100.5v275c0 34.667 5 66.5 15 95.5s24.5 53.667 43.5 74s42.333 36.166 70 47.499s59.167 17 94.5 17c29.333 0 60 -3.33301 92 -10s66 -14.667 102 -24l38 -11l-13 -59
l-38 10c-32 9.33301 -63.167 17.333 -93.5 24s-58.833 10 -85.5 10c-56.667 0 -98 -15.167 -124 -45.5s-39 -73.166 -39 -128.499v-81zM128.001 245c0 -60 15.166 -107.168 45.499 -141.501s74.5 -51.5 132.5 -51.5c55.333 0 97 16.833 125 50.5s42 77.834 42 132.501
c0 26 -3.16699 49.667 -9.5 71s-16.666 39.833 -30.999 55.5s-33.166 27.667 -56.499 36s-52 12.5 -86 12.5c-8 0 -16.5 -0.333008 -25.5 -1s-19.833 -2.16699 -32.5 -4.5s-27.334 -5.5 -44.001 -9.5l-60 -15v-135z" />
    <glyph glyph-name="seven" unicode="7" 
d="M258 0l-68 -0.000976562l286 685h-407v59h426c14.667 0 26 -3.66699 34 -11s12 -17.666 12 -30.999c0 -7.33301 -1.16699 -14.833 -3.5 -22.5s-4.83301 -14.5 -7.5 -20.5z" />
    <glyph glyph-name="eight" unicode="8" 
d="M296 -10c-38 0 -72.166 4.50293 -102.499 13.5029s-56.333 21.833 -78 38.5s-38.334 37 -50.001 61s-17.5 50.667 -17.5 80c0 25.333 4.33301 48.666 13 69.999s21.667 41.666 39 60.999l56 62l-46 63c-12 18 -21.833 37.5 -29.5 58.5s-11.5 43.833 -11.5 68.5
c0 56.667 19.667 101.834 59 135.501s94 50.5 164 50.5c72 0 127.667 -16.833 167 -50.5s59 -78.834 59 -135.501c0 -24.667 -3.66699 -47.334 -11 -68.001s-17.333 -40 -30 -58l-46 -64l58 -64c33.333 -36 50 -79 50 -129c0 -59.333 -21.5 -106.333 -64.5 -141
s-102.5 -52 -178.5 -52zM295.001 48.0029c61.333 0 106.833 12.333 136.5 37s44.5 57.334 44.5 98.001c0 21.333 -3.5 39.666 -10.5 54.999s-18.167 31.333 -33.5 48l-53 58h-171l-53 -58c-15.333 -16 -26.5 -32 -33.5 -48s-10.5 -34.667 -10.5 -56
c0 -40 15.5 -72.333 46.5 -97s76.833 -37 137.5 -37zM208.001 400.003h171.999l41 60c10.667 15.333 19.167 31.833 25.5 49.5s9.5 36.5 9.5 56.5c0 18 -3.16699 34.667 -9.5 50s-16.166 28.666 -29.499 39.999s-30.333 20.333 -51 27s-45 10 -73 10
c-28.667 0 -53.167 -3.33301 -73.5 -10s-37 -15.667 -50 -27s-22.667 -24.666 -29 -39.999s-9.5 -32 -9.5 -50c0 -20 3.33301 -38.833 10 -56.5s15 -34.167 25 -49.5z" />
    <glyph glyph-name="nine" unicode="9" 
d="M461 308c-44 -14.667 -79.168 -24.001 -105.501 -28.001s-47.166 -6 -62.499 -6c-80.667 0 -140.834 20.333 -180.501 61s-59.5 98.334 -59.5 173.001c0 34 4.83301 65.667 14.5 95s24.334 55 44.001 77s44 39.167 73 51.5s62.5 18.5 100.5 18.5
c37.333 0 70.666 -6 99.999 -18s54.333 -28.833 75 -50.5s36.334 -47.667 47.001 -78s16 -63.833 16 -100.5v-275c0 -35.333 -5 -67.333 -15 -96s-24.5 -53.334 -43.5 -74.001s-42.333 -36.5 -70 -47.5s-59.167 -16.5 -94.5 -16.5c-29.333 0 -60 2.83301 -92 8.5
s-66 13.834 -102 24.501l-38 11l13 60l38 -11c32 -9.33301 63.167 -17.333 93.5 -24s58.833 -10 85.5 -10c56.667 0 98 15.167 124 45.5s39 73.5 39 129.5v80zM460.999 498.999c0 59.333 -15.168 106.333 -45.501 141s-74.5 52 -132.5 52c-55.333 0 -97 -17 -125 -51
s-42 -78.333 -42 -133c0 -26 3.16699 -49.833 9.5 -71.5s16.833 -40 31.5 -55s33.5 -26.667 56.5 -35s51.5 -12.5 85.5 -12.5c8 0 16.5 0.333008 25.5 1s19.833 2.16699 32.5 4.5s27.334 5.33301 44.001 9s36.667 8.5 60 14.5v136z" />
    <glyph glyph-name="colon" unicode=":" horiz-adv-x="205" 
d="M149 40c0 -15.333 -4 -27.333 -12 -36s-18.667 -13 -32 -13s-24 4.33301 -32 13s-12 20.667 -12 36s4 27.5 12 36.5s18.667 13.5 32 13.5s24 -4.5 32 -13.5s12 -21.167 12 -36.5zM149 487c0 -15.333 -4 -27.333 -12 -36s-18.667 -13 -32 -13s-24 4.33301 -32 13
s-12 20.667 -12 36s4 27.5 12 36.5s18.667 13.5 32 13.5s24 -4.5 32 -13.5s12 -21.167 12 -36.5z" />
    <glyph glyph-name="semicolon" unicode=";" horiz-adv-x="205" 
d="M114 -64c-5.33301 -18 -16.334 -27 -33.001 -27c-13.333 0 -22.666 4.33301 -27.999 13s-6.33301 19 -3 31l40 151h70zM164.999 487c0 -15.333 -4 -27.333 -12 -36s-19 -13 -33 -13c-13.333 0 -24 4.33301 -32 13s-12 20.667 -12 36s4 27.5 12 36.5s18.667 13.5 32 13.5
c14 0 25 -4.5 33 -13.5s12 -21.167 12 -36.5z" />
    <glyph glyph-name="less" unicode="&#x3c;" 
d="M80 249c-20.667 8 -31 23.333 -31 46c0 20.667 10.667 35.667 32 45l451 185v-71l-416 -160l416 -161v-68z" />
    <glyph glyph-name="equal" unicode="=" 
d="M59 351v64h462v-64h-462zM59 182v64h462v-64h-462z" />
    <glyph glyph-name="greater" unicode="&#x3e;" 
d="M49 65v68l416 160l-416 161v71l451 -185c21.333 -9.33301 32 -24.333 32 -45c0 -22.667 -10.333 -38 -31 -46z" />
    <glyph glyph-name="question" unicode="?" horiz-adv-x="450" 
d="M232 689c-19.333 0 -41.4971 -1.83203 -66.4971 -5.49902s-51.833 -9.83398 -80.5 -18.501l-36 -11l-12 55l37 12c32 10 60.667 16.833 86 20.5s49.666 5.5 72.999 5.5c55.333 0 100 -14 134 -42s51 -68 51 -120c0 -38 -6.83301 -69.167 -20.5 -93.5
s-31.5 -48.5 -53.5 -72.5l-95 -100v-83l-59 -11v67c0 18.667 2 33.334 6 44.001s12.333 22.667 25 36l73 78c11.333 12 21 23 29 33s14.667 20 20 30s9.16602 20.667 11.499 32s3.5 24.333 3.5 39c0 31.333 -10.333 56.666 -31 75.999s-52.334 29 -95.001 29z
M265.003 40.001c0 -15.333 -4 -27.333 -12 -36s-19 -13 -33 -13c-13.333 0 -24 4.33301 -32 13s-12 20.667 -12 36s4 27.5 12 36.5s18.667 13.5 32 13.5c14 0 25 -4.5 33 -13.5s12 -21.167 12 -36.5z" />
    <glyph glyph-name="at" unicode="@" horiz-adv-x="919" 
d="M839 407c0 -38 -5.33594 -72.332 -16.0029 -102.999s-24.667 -56.834 -42 -78.501s-37.333 -38.5 -60 -50.5s-46.334 -18 -71.001 -18c-11.333 0 -21.333 1.16699 -30 3.5s-16.834 5 -24.501 8l-22.5 8.5c-7.33301 2.66699 -14.666 4 -21.999 4
c-21.333 0 -41.833 -2.66699 -61.5 -8s-41.5 -8 -65.5 -8c-26 0 -48.5 4.16699 -67.5 12.5s-35 20 -48 35s-22.667 32.667 -29 53s-9.5 42.166 -9.5 65.499c0 28.667 4.33301 56.167 13 82.5s21.5 49.5 38.5 69.5s38 36 63 48s54.167 18 87.5 18
c12.667 0 27.334 -0.666992 44.001 -2s37.667 -3.66602 63 -6.99902l5 36h54l-46 -349c1.33301 -1.33301 8.16602 -5 20.499 -11s26.166 -9 41.499 -9c16 0 31.667 4.33301 47 13s29 21.5 41 38.5s21.833 38 29.5 63s11.5 53.833 11.5 86.5
c0 44 -7.83301 83.833 -23.5 119.5s-37 66 -64 91s-58.833 44.333 -95.5 58s-76.334 20.5 -119.001 20.5c-50 0 -95.667 -8.5 -137 -25.5s-76.5 -40.667 -105.5 -71s-51.5 -66.5 -67.5 -108.5s-24 -88.333 -24 -139c0 -44.667 6.5 -86 19.5 -124s32 -71 57 -99
s55.333 -49.833 91 -65.5s76.5 -23.5 122.5 -23.5c24 0 46.333 2 67 6s40 8.5 58 13.5l52 14c16.667 4.33301 33.334 6.5 50.001 6.5c20.667 0 40.667 -5.33301 60 -16l44 -26l-22 -43l-40 20c-13.333 6.66699 -28.666 10 -45.999 10c-16.667 0 -32.667 -1.83301 -48 -5.5
s-31.666 -7.83398 -48.999 -12.501s-36.666 -8.83398 -57.999 -12.501s-46 -5.5 -74 -5.5c-54 0 -102.167 9.5 -144.5 28.5s-78.166 44.833 -107.499 77.5s-51.666 71.167 -66.999 115.5s-23 91.5 -23 141.5c0 58.667 9.83301 112.5 29.5 161.5s47 91 82 126
s76.5 62.333 124.5 82s100 29.5 156 29.5c51.333 0 98.833 -8.33301 142.5 -25s81.5 -40.167 113.5 -70.5s57 -66.666 75 -108.999s27 -89.166 27 -140.499zM572.997 492.001c-23.333 3.33301 -42.668 5.50098 -58.001 6.50098s-29.666 1.5 -42.999 1.5
c-26 0 -48.167 -4.66699 -66.5 -14s-33.333 -22 -45 -38s-20.167 -34.333 -25.5 -55s-8 -42 -8 -64c0 -16 2 -30.833 6 -44.5s10.333 -25.834 19 -36.501s19.667 -19 33 -25s29.333 -9 48 -9c4.66699 0 9.66699 0.166992 15 0.5s11.833 1 19.5 2s17.167 2.5 28.5 4.5
s25.333 4.66699 42 8z" />
    <glyph glyph-name="A" unicode="A" horiz-adv-x="672" 
d="M586 0l-64.999 172h-372l-65 -172h-67l270 713c9.33301 25.333 26.333 38 51 38c25.333 0 42.666 -12 51.999 -36l265 -715h-69zM338.001 682l-170 -454h334z" />
    <glyph glyph-name="B" unicode="B" horiz-adv-x="667" 
d="M146 0c-20.667 0 -36.498 5.16797 -47.498 15.501s-16.5 25.166 -16.5 44.499v625c0 18.667 5.33301 33.167 16 43.5s26 15.5 46 15.5h249c58.667 0 105 -14.667 139 -44s51 -73.333 51 -132c0 -24 -3.66699 -46.333 -11 -67s-17 -40 -29 -58l-47 -66l62 -65
c17.333 -18 30.666 -37.667 39.999 -59s14 -44.666 14 -69.999c0 -56.667 -18.833 -101.334 -56.5 -134.001s-89.834 -49 -156.501 -49h-253zM519.002 568.001c0 18 -2.33301 34.333 -7 49s-12 27.334 -22 38.001s-23.167 19 -39.5 25s-36.5 9 -60.5 9h-245v-288h297l43 61
c10 15.333 18.167 31.666 24.5 48.999s9.5 36.333 9.5 57zM145.002 346.001v-291h257c48.667 0 85.167 11.167 109.5 33.5s36.5 52.5 36.5 90.5c0 20.667 -4 39.5 -12 56.5s-19.667 33.833 -35 50.5l-58 60h-298z" />
    <glyph glyph-name="C" unicode="C" horiz-adv-x="661" 
d="M58 370c0 64.667 8.33301 120.664 25 167.997s39.667 86.5 69 117.5s63.666 54.167 102.999 69.5s82 23 128 23c30 0 60.333 -3.33301 91 -10s64.334 -15.667 101.001 -27l47 -14l-12 -60l-49 15c-36 11.333 -68.5 20 -97.5 26s-55.5 9 -79.5 9
c-39.333 0 -74.833 -6.16699 -106.5 -18.5s-58.834 -31.5 -81.501 -57.5s-40 -59 -52 -99s-18 -87.333 -18 -142c0 -55.333 6.16699 -103 18.5 -143s29.833 -72.833 52.5 -98.5s49.834 -44.667 81.501 -57s67.167 -18.5 106.5 -18.5c24.667 0 51.167 3 79.5 9
s60.5 14.667 96.5 26l49 15l12 -60l-47 -15c-37.333 -11.333 -71.166 -20.166 -101.499 -26.499s-60.5 -9.5 -90.5 -9.5c-46.667 0 -89.834 7.33301 -129.501 22s-74 37.334 -103 68.001s-51.667 69.834 -68 117.501s-24.5 104.5 -24.5 170.5z" />
    <glyph glyph-name="D" unicode="D" horiz-adv-x="720" 
d="M665 370c0 -59.333 -8 -111.831 -24 -157.498s-38.5 -84.334 -67.5 -116.001s-63.667 -55.667 -104 -72s-84.5 -24.5 -132.5 -24.5h-190c-20.667 0 -36.667 5.16699 -48 15.5s-17 25.166 -17 44.499v623c0 19.333 5.66699 34.333 17 45s27.333 16 48 16h193
c48.667 0 93 -8.5 133 -25.5s74.333 -41.5 103 -73.5s50.667 -71.167 66 -117.5s23 -98.833 23 -157.5zM600 370.002c0 48 -6.16797 91.501 -18.501 130.501s-30.166 72.333 -53.499 100s-51.833 49 -85.5 64s-72.167 22.5 -115.5 22.5h-180v-629h187
c85.333 0 151 27.167 197 81.5s69 131.166 69 230.499z" />
    <glyph glyph-name="E" unicode="E" horiz-adv-x="606" 
d="M147 0c-20.667 0 -36.667 5.16797 -48 15.501s-17 25.166 -17 44.499v623c0 19.333 5.66699 34.333 17 45s27.333 16 48 16h401v-59h-401v-276h353v-57h-353v-294h404v-58h-404z" />
    <glyph glyph-name="F" unicode="F" horiz-adv-x="568" 
d="M147 685v-290h358v-57h-358v-338h-65v683c0 19.333 5.66699 34.333 17 45s27.333 16 48 16h391v-59h-391z" />
    <glyph glyph-name="G" unicode="G" horiz-adv-x="713" 
d="M405 -8c-49.333 0 -94.998 7.33203 -136.998 21.999s-78.667 37.167 -110 67.5s-55.833 69.333 -73.5 117s-26.5 104.5 -26.5 170.5c0 64.667 8.66699 120.667 26 168s41.333 86.5 72 117.5s66.667 54.167 108 69.5s86 23 134 23c32 0 63.667 -3.33301 95 -10
s67 -15.667 107 -27l48 -14l-13 -61l-51 15c-38 11.333 -72.667 20.166 -104 26.499s-59 9.5 -83 9.5c-42 0 -79.833 -6.16699 -113.5 -18.5s-62.334 -31.5 -86.001 -57.5s-41.834 -59 -54.501 -99s-19 -87.333 -19 -142c0 -55.333 7 -103 21 -143s33.333 -73 58 -99
s54.167 -45.333 88.5 -58s72.166 -19 113.499 -19c30 0 59.333 1.83301 88 5.5s60.334 9.5 95.001 17.5v218h-186v56h185c41.333 0 62 -20 62 -60v-204c0 -19.333 -4.5 -33.666 -13.5 -42.999s-23.167 -16.666 -42.5 -21.999c-30 -8 -61.667 -14.333 -95 -19
s-64.333 -7 -93 -7z" />
    <glyph glyph-name="H" unicode="H" horiz-adv-x="707" 
d="M561 0v350h-415v-350h-64v744h64v-338h415v338h63v-744h-63z" />
    <glyph glyph-name="I" unicode="I" horiz-adv-x="230" 
d="M82 0v744h65v-744h-65z" />
    <glyph glyph-name="J" unicode="J" horiz-adv-x="362" 
d="M282 171c0 -58 -14.332 -101.667 -42.999 -131s-68.334 -44 -119.001 -44c-26 0 -61.667 5.33301 -107 16l10 60c24.667 -6 44.667 -10.167 60 -12.5s28 -3.5 38 -3.5c36 0 61 9.16699 75 27.5s21 48.5 21 90.5v570h65v-573z" />
    <glyph glyph-name="K" unicode="K" horiz-adv-x="643" 
d="M546 0l-209 435.001l-125 -147l-30 -37c-8.66699 -10.667 -15.667 -21.334 -21 -32.001s-9.33301 -22 -12 -34s-4 -26 -4 -42v-143h-63v744h63v-456l373 456h84l-218 -257l231 -487h-69z" />
    <glyph glyph-name="L" unicode="L" horiz-adv-x="561" 
d="M146 0c-20.667 0 -36.5 5.16797 -47.5 15.501s-16.5 25.166 -16.5 44.499v684h66v-685h373v-59h-375z" />
    <glyph glyph-name="M" unicode="M" horiz-adv-x="857" 
d="M665 704c6 15.333 14 26.667 24 34s21.667 11 35 11s25 -3.83301 35 -11.5s15 -21.167 15 -40.5v-697h-61v669l-241 -642c-8 -20.667 -23.333 -31 -46 -31c-24 0 -39.667 10.333 -47 31l-237 642v-669h-60v697c0 19.333 5.16699 32.833 15.5 40.5s22.833 11.5 37.5 11.5
c31.333 0 52.333 -15 63 -45l229 -636z" />
    <glyph glyph-name="N" unicode="N" horiz-adv-x="729" 
d="M143 0h-60.999v701c0 17.333 4.33301 30 13 38s20 12 34 12c21.333 0 38.666 -10 51.999 -30l406 -638v661h60v-700c0 -17.333 -4.33301 -29.833 -13 -37.5s-20 -11.5 -34 -11.5c-21.333 0 -38.333 10 -51 30l-406 638v-663z" />
    <glyph glyph-name="O" unicode="O" horiz-adv-x="780" 
d="M725 370c0 -61.333 -8.16699 -115.5 -24.5 -162.5s-39.333 -86.5 -69 -118.5s-65.167 -56.167 -106.5 -72.5s-87 -24.5 -137 -24.5s-95.333 8.33301 -136 25s-75.667 41 -105 73s-52 71.5 -68 118.5s-24 100.833 -24 161.5c0 60 8.16699 113.5 24.5 160.5
s39.5 86.667 69.5 119s65.667 56.833 107 73.5s87 25 137 25c49.333 0 94.5 -8.33301 135.5 -25s76 -41 105 -73s51.5 -71.5 67.5 -118.5s24 -100.833 24 -161.5zM659 370c0 103.333 -24 182.5 -72 237.5s-113.667 82.5 -197 82.5c-84.667 0 -150.834 -27.5 -198.501 -82.5
s-71.5 -134.167 -71.5 -237.5c0 -52 6.33301 -98 19 -138s30.834 -73.667 54.501 -101s52.334 -48 86.001 -62s71.167 -21 112.5 -21c83.333 0 148.666 27.5 195.999 82.5s71 134.833 71 239.5z" />
    <glyph glyph-name="P" unicode="P" horiz-adv-x="618" 
d="M575 521c0 -35.333 -5.50098 -66.666 -16.501 -93.999s-26.333 -50.666 -46 -69.999s-43 -34 -70 -44s-56.833 -15 -89.5 -15h-209v-298h-62v684c0 19.333 5.5 34.166 16.5 44.499s26.833 15.5 47.5 15.5h218c30 0 58 -5.16699 84 -15.5s48.333 -25 67 -44
s33.334 -42.333 44.001 -70s16 -58.834 16 -93.501zM514.999 522c0 52 -14.167 92.833 -42.5 122.5s-65.833 44.5 -112.5 44.5h-216v-336h209c50 0 89.5 14.667 118.5 44s43.5 71 43.5 125z" />
    <glyph glyph-name="Q" unicode="Q" horiz-adv-x="770" 
d="M724 370c0 -89.333 -17.002 -161.833 -51.002 -217.5s-82.667 -96.5 -146 -122.5c15.333 -8 31.666 -15 48.999 -21c14.667 -5.33301 31.334 -10 50.001 -14s37.667 -6 57 -6h27v-54h-27c-32.667 0 -60.667 3.33301 -84 10s-45.166 14.167 -65.499 22.5
s-41.166 15.833 -62.499 22.5s-46 10 -74 10c-50.667 -0 -97 7.83301 -139 23.5s-78 39 -108 70s-53.333 69.5 -70 115.5s-25 99.667 -25 161c0 60 8.16699 113.5 24.5 160.5s39.5 86.667 69.5 119s65.667 56.833 107 73.5s87 25 137 25c49.333 0 94.333 -8.33301 135 -25
s75.5 -41 104.5 -73s51.5 -71.5 67.5 -118.5s24 -100.833 24 -161.5zM658.998 370c0 103.333 -24.001 182.5 -72.001 237.5s-113.667 82.5 -197 82.5c-42 0 -79.667 -7 -113 -21s-61.833 -34.667 -85.5 -62s-41.667 -60.833 -54 -100.5s-18.5 -85.167 -18.5 -136.5
c0 -52 6.5 -97.667 19.5 -137s31.333 -72.166 55 -98.499s52.334 -46.166 86.001 -59.499s71.5 -20 113.5 -20c41.333 0 78.5 6.66699 111.5 20s61 33.166 84 59.499s40.5 59.166 52.5 98.499s18 85 18 137z" />
    <glyph glyph-name="R" unicode="R" horiz-adv-x="648" 
d="M550 0l-141.001 307h-263v-307h-64v685c0 39.333 20.333 59 61 59h243c62 0 110.333 -16.667 145 -50s52 -82.333 52 -147c0 -26.667 -5.16699 -52.167 -15.5 -76.5s-23.166 -46.5 -38.499 -66.5l-61 -79l153 -325h-71zM517.999 546
c0 20.667 -2.33398 39.833 -7.00098 57.5s-12.5 32.834 -23.5 45.501s-25.167 22.5 -42.5 29.5s-38.666 10.5 -63.999 10.5h-235v-327h279l43 60c13.333 18.667 25 38.167 35 58.5s15 42.166 15 65.499z" />
    <glyph glyph-name="S" unicode="S" horiz-adv-x="631" 
d="M395 386c55.333 -12.667 98.5 -34.333 129.5 -65s46.5 -73 46.5 -127c0 -35.333 -6.33301 -65.666 -19 -90.999s-29.5 -46.166 -50.5 -62.499s-45 -28.5 -72 -36.5s-54.833 -12 -83.5 -12c-43.333 0 -83.5 3.83301 -120.5 11.5s-76.5 18.5 -118.5 32.5l-45 14l16 61
l44 -15c36 -12 73 -22.5 111 -31.5s75.333 -13.5 112 -13.5c20 0 39.667 2.66699 59 8s36.5 13.666 51.5 24.999s27.167 25.833 36.5 43.5s14 39.167 14 64.5c0 35.333 -9.5 63.666 -28.5 84.999s-50.5 36.666 -94.5 45.999l-143 33c-56.667 12.667 -100 34.667 -130 66
s-45 73 -45 125c0 34.667 6.33301 64.834 19 90.501s29.5 46.667 50.5 63s45 28.5 72 36.5s54.5 12 82.5 12c21.333 0 41.5 -1 60.5 -3s37.833 -5 56.5 -9s37.5 -8.66699 56.5 -14s39.167 -11.333 60.5 -18l44 -14l-15 -61l-45 15c-36 12 -71.667 22.333 -107 31
s-72 13 -110 13c-20.667 0 -40.667 -2.66699 -60 -8s-36.5 -13.5 -51.5 -24.5s-27 -25.5 -36 -43.5s-13.5 -39.333 -13.5 -64c0 -36 9.5 -64.333 28.5 -85s50.167 -35.667 93.5 -45z" />
    <glyph glyph-name="T" unicode="T" horiz-adv-x="607" 
d="M337 685v-685h-66v685h-237v59h541v-59h-238z" />
    <glyph glyph-name="U" unicode="U" horiz-adv-x="715" 
d="M637 262c0 -42.667 -6.16699 -81 -18.5 -115s-30.333 -63 -54 -87s-52.834 -42.333 -87.501 -55s-74.667 -19 -120 -19c-90.667 0 -160 24.5 -208 73.5s-72 116.5 -72 202.5v482h65v-482c0 -69.333 17.667 -122.833 53 -160.5s89.333 -56.5 162 -56.5
c74.667 0 129.334 18.667 164.001 56s52 91 52 161v482h64v-482v0z" />
    <glyph glyph-name="V" unicode="V" horiz-adv-x="660" 
d="M375 28c-8 -22.667 -23.667 -34 -47 -34c-13.333 0 -23.5 2.83301 -30.5 8.5s-12.5 14.167 -16.5 25.5l-261 716h70l241 -673l241 673h68z" />
    <glyph glyph-name="W" unicode="W" horiz-adv-x="905" 
d="M741 33c-5.33301 -26.667 -21.667 -40 -49 -40c-26.667 0 -43.334 12 -50.001 36l-190 643l-194 -643c-7.33301 -24 -23.666 -36 -48.999 -36c-26.667 0 -42.667 13.333 -48 40l-131 711h62l123 -670l193 637c6 22 21.333 33 46 33s40 -11 46 -33l190 -638l125 671h60z
" />
    <glyph glyph-name="X" unicode="X" horiz-adv-x="673" 
d="M554 0l-217 330l-220 -330h-75l254 375l-251 369h78l216 -321l213 321h73l-246 -367l252 -377h-77z" />
    <glyph glyph-name="Y" unicode="Y" horiz-adv-x="638" 
d="M357 323v-323h-66v321l-274 423h75l234 -363l227 363h73z" />
    <glyph glyph-name="Z" unicode="Z" horiz-adv-x="633" 
d="M124 56l454 -0.000976562v-56h-479c-15.333 0 -26.5 4.33301 -33.5 13s-10.5 19.667 -10.5 33c0 8 1.16699 14.833 3.5 20.5s5.83301 11.834 10.5 18.501l437 602h-440v57h463c15.333 0 26.5 -4.33301 33.5 -13s10.5 -20 10.5 -34c0 -8 -1.16699 -14.833 -3.5 -20.5
s-5.83301 -11.5 -10.5 -17.5z" />
    <glyph glyph-name="bracketleft" unicode="[" horiz-adv-x="273" 
d="M76 -65v809h175v-56h-113v-698h113v-55h-175z" />
    <glyph glyph-name="backslash" unicode="\" horiz-adv-x="404" 
d="M17 744h63l312 -744h-65z" />
    <glyph glyph-name="bracketright" unicode="]" horiz-adv-x="273" 
d="M27 -65v55h113v698h-113v56h175v-809h-175z" />
    <glyph glyph-name="asciicircum" unicode="^" 
d="M450 43l-159 422l-157 -422h-67l183 468c8.66699 21.333 22.667 32 42 32c20 0 34.333 -10.667 43 -32l185 -468h-70z" />
    <glyph glyph-name="underscore" unicode="_" horiz-adv-x="500" 
d="M-2 -162v58h504v-58h-504z" />
    <glyph glyph-name="grave" unicode="`" horiz-adv-x="534" 
d="M194 763l94 -0.000976562l81 -79c7.33301 -7.33301 11 -15.666 11 -24.999c0 -6.66699 -2.5 -13 -7.5 -19s-12.167 -9 -21.5 -9c-8.66699 0 -17 4 -25 12z" />
    <glyph glyph-name="a" unicode="a" horiz-adv-x="589" 
d="M535 -8l-44.9971 27.0049c-10.667 5.33301 -21.5 9.16602 -32.5 11.499s-24.167 1.5 -39.5 -2.5l-41 -11c-24.667 -6.66699 -50.5 -12.334 -77.5 -17.001s-51.167 -7 -72.5 -7c-55.333 0 -98.166 13 -128.499 39s-45.5 62.333 -45.5 109c0 30 5.66699 55.167 17 75.5
s26.666 36.666 45.999 48.999s41.666 21.166 66.999 26.499s52 8 80 8h171v69c0 44 -12.167 75.333 -36.5 94s-56.833 28 -97.5 28c-25.333 0 -52.5 -3 -81.5 -9s-59.5 -13.667 -91.5 -23l-39 -11l-12 58l37 10c36 9.33301 69.167 17.333 99.5 24s59.833 10 88.5 10
c27.333 0 52.666 -3.33301 75.999 -10s43.666 -17.334 60.999 -32.001s31 -33.5 41 -56.5s15 -50.5 15 -82.5v-290l65 -40zM434.003 246.005h-172c-46.667 0 -82.834 -7.83301 -108.501 -23.5s-38.5 -42.167 -38.5 -79.5c0 -32 10.333 -55.833 31 -71.5
s50.667 -23.5 90 -23.5c16.667 0 36.834 1.83301 60.501 5.5s48.167 8.5 73.5 14.5l64 14v164z" />
    <glyph glyph-name="b" unicode="b" horiz-adv-x="592" 
d="M297 488c-8 0 -16.668 -0.332031 -26.001 -0.999023s-20 -2 -32 -4s-26.167 -5 -42.5 -9l-58.5 -15v-381c22 -5.33301 41 -9.5 57 -12.5s30 -5.33301 42 -7s22.333 -2.83398 31 -3.50098s17 -1 25 -1c33.333 0 61.666 5.33301 84.999 16s42.333 25.667 57 45
s25.334 42.333 32.001 69s10 55.667 10 87c0 32 -3.16699 61.333 -9.5 88s-16.666 49.5 -30.999 68.5s-33 33.833 -56 44.5s-50.833 16 -83.5 16zM304.999 548.001c78.667 0 137.334 -24.002 176.001 -72.002s58 -116.667 58 -206c0 -41.333 -5.5 -78.833 -16.5 -112.5
s-27 -62.5 -48 -86.5s-46.667 -42.5 -77 -55.5s-64.5 -19.5 -102.5 -19.5c-19.333 0 -42 1.66699 -68 5s-58 10 -96 20c-17.333 4.66699 -30.666 11.834 -39.999 21.501s-14 23.834 -14 42.501v672l61 13v-256c43.333 14 78.166 23.167 104.499 27.5s47.166 6.5 62.499 6.5z
" />
    <glyph glyph-name="c" unicode="c" horiz-adv-x="515" 
d="M52 272c0 45.333 5.83203 85.333 17.499 120s28 63.667 49 87s46.167 40.833 75.5 52.5s61.666 17.5 96.999 17.5c19.333 0 41.5 -2.33301 66.5 -7s53.5 -11.334 85.5 -20.001l39 -10l-12 -59l-39 10c-30.667 8 -57.167 14.5 -79.5 19.5s-41.5 7.5 -57.5 7.5
c-58.667 0 -102.834 -18 -132.501 -54s-44.5 -90.667 -44.5 -164c0 -74 15 -128.833 45 -164.5s74.333 -53.5 133 -53.5c16.667 0 35.834 2.16699 57.501 6.5s47.834 10.833 78.501 19.5l39 10l12 -58l-39 -11c-64 -18 -114.667 -27 -152 -27
c-35.333 0 -67.666 5.33301 -96.999 16s-54.5 27.334 -75.5 50.001s-37.333 51.5 -49 86.5s-17.5 76.833 -17.5 125.5z" />
    <glyph glyph-name="d" unicode="d" horiz-adv-x="591" 
d="M295 489c-32.667 0 -60.5029 -5.33398 -83.5029 -16.001s-41.667 -25.667 -56 -45s-24.666 -42.333 -30.999 -69s-9.5 -56 -9.5 -88c0 -31.333 3.33301 -60.333 10 -87s17.334 -49.667 32.001 -69s33.5 -34.333 56.5 -45s51.167 -16 84.5 -16c8 0 16.5 0.333008 25.5 1
s19.5 1.83398 31.5 3.50098s26 4 42 7s35 7.16699 57 12.5v381c-22.667 6 -42.167 10.833 -58.5 14.5s-30.666 6.66699 -42.999 9s-23 4 -32 5s-17.5 1.5 -25.5 1.5zM513.997 772.999l-0.00195312 -688.001c0 -34 -17.333 -55 -52 -63
c-22.667 -5.33301 -42.667 -9.66602 -60 -12.999s-32.833 -6 -46.5 -8s-25.667 -3.33301 -36 -4s-19.5 -1 -27.5 -1c-76.667 0 -135.834 23.833 -177.501 71.5s-62.5 115.167 -62.5 202.5c0 88.667 20.833 157.167 62.5 205.5s100.834 72.5 177.501 72.5
c8.66699 0 17.834 -0.5 27.501 -1.5s20.834 -2.66699 33.501 -5s27.167 -5.83301 43.5 -10.5l57.5 -17v246z" />
    <glyph glyph-name="e" unicode="e" horiz-adv-x="580" 
d="M468 300c0 28 -3.33398 53.999 -10.001 77.999s-17.167 45 -31.5 63s-32.666 32 -54.999 42s-48.833 15 -79.5 15c-52 0 -93.333 -17.667 -124 -53s-47.667 -83.666 -51 -144.999h351zM307.999 -6.00098c-38 0 -72.665 5.66895 -103.998 17.002
s-58.166 28.5 -80.499 51.5s-39.833 51.833 -52.5 86.5s-19 75.334 -19 122.001c0 48.667 6.5 90.667 19.5 126s30.667 64.5 53 87.5s48 40 77 51s59.5 16.5 91.5 16.5c35.333 0 67.666 -5.5 96.999 -16.5s54.5 -27.5 75.5 -49.5s37.333 -49.833 49 -83.5
s17.5 -73.167 17.5 -118.5c0 -26.667 -12 -40 -36 -40h-379c1.33301 -32.667 7.16602 -60.834 17.499 -84.501s24.166 -43.334 41.499 -59.001s37.5 -27.334 60.5 -35.001s47.833 -11.5 74.5 -11.5c21.333 0 43.333 2 66 6s51 11.333 85 22l49 16l13 -57l-48 -16
c-34.667 -11.333 -64.5 -19.333 -89.5 -24s-51.167 -7 -78.5 -7z" />
    <glyph glyph-name="f" unicode="f" horiz-adv-x="367" 
d="M365 691c-23.333 5.33301 -42.499 9.16504 -57.499 11.498s-28.167 3.5 -39.5 3.5c-34 0 -57.833 -9 -71.5 -27s-20.5 -47.667 -20.5 -89v-56h173v-57h-173v-477h-62v477h-89v57h89v60c0 56.667 13.667 99.334 41 128.001s65.333 43 114 43
c13.333 0 28.166 -1.16699 44.499 -3.5s36.833 -6.16602 61.5 -11.499z" />
    <glyph glyph-name="g" unicode="g" horiz-adv-x="587" 
d="M554 -18c0 -50 -21.834 -89.6641 -65.501 -118.997s-113.167 -44 -208.5 -44c-29.333 0 -57.333 2.5 -84 7.5s-50.5 13 -71.5 24s-37.667 25.667 -50 44s-18.5 40.5 -18.5 66.5c0 24 4.16699 44.167 12.5 60.5s16.833 29.833 25.5 40.5l51 62
c7.33301 9.33301 12.833 17.666 16.5 24.999s5.5 15.333 5.5 24c0 13.333 -3.33301 24.833 -10 34.5s-17.334 19.5 -32.001 29.5c-8.66699 6 -17.5 12.833 -26.5 20.5s-17 17 -24 28s-12.833 23.667 -17.5 38s-7 31.166 -7 50.499c0 28 5.33301 52.5 16 73.5
s25.667 38.667 45 53s42.666 25 69.999 32s58 10.5 92 10.5h63c24.667 0 44.334 0.5 59.001 1.5s28.667 3.5 42 7.5l111 30l14 -53l-123 -33c10.667 -7.33301 20.334 -17 29.001 -29c7.33301 -10 14.166 -22.5 20.499 -37.5s9.5 -33.167 9.5 -54.5
c0 -56.667 -19.833 -99 -59.5 -127s-94.5 -42 -164.5 -42c-11.333 0 -21.166 0.333008 -29.499 1s-15.5 1.66699 -21.5 3c-7.33301 1.33301 -13.666 2.66602 -18.999 3.99902c6 -6 10.167 -12.833 12.5 -20.5s3.5 -15.5 3.5 -23.5c0 -9.33301 -1.66699 -18.5 -5 -27.5
s-11.333 -21.5 -24 -37.5h199c55.333 0 96.5 -11.5 123.5 -34.5s40.5 -52.5 40.5 -88.5zM437.999 374.003c0 21.333 -3.99902 39.501 -11.999 54.501s-19.167 27.167 -33.5 36.5s-31.5 16 -51.5 20s-42.333 6 -67 6c-49.333 0 -89 -8.83301 -119 -26.5
s-45 -47.834 -45 -90.501c0 -22.667 4 -41.834 12 -57.501s19.167 -28.167 33.5 -37.5s31.666 -16.166 51.999 -20.499s42.5 -6.5 66.5 -6.5c23.333 0 45 2.16699 65 6.5s37.333 11.5 52 21.5s26.167 22.667 34.5 38s12.5 34 12.5 56zM495 -19.9961
c0 20.667 -8.00098 37.6709 -24.001 51.0039s-43.667 20 -83 20h-236c-13.333 -14.667 -22.833 -28.834 -28.5 -42.501s-8.5 -28.834 -8.5 -45.501s4.33301 -30.834 13 -42.501s20.834 -21.334 36.501 -29.001s34 -13.167 55 -16.5s43.5 -5 67.5 -5
c72 0 124.667 9.5 158 28.5s50 46.167 50 81.5z" />
    <glyph glyph-name="h" unicode="h" horiz-adv-x="566" 
d="M296 489c-8 0 -16.666 -0.334961 -25.999 -1.00195s-20.166 -2.16699 -32.499 -4.5s-26.5 -5.5 -42.5 -9.5l-57 -15v-459h-61v757l61 13v-257c44.667 14.667 79.5 24.167 104.5 28.5s45.167 6.5 60.5 6.5c36 0 66.167 -5.16699 90.5 -15.5s44 -24.166 59 -41.499
s25.833 -38 32.5 -62s10 -49.333 10 -76v-353h-61v350c0 20 -2.16699 38.333 -6.5 55s-11.833 31.334 -22.5 44.001s-24.834 22.5 -42.501 29.5s-39.834 10.5 -66.501 10.5z" />
    <glyph glyph-name="i" unicode="i" horiz-adv-x="233" 
d="M85 0v544h64v-544h-64zM161 716c0 -15.333 -4 -27.333 -12 -36s-19 -13 -33 -13c-13.333 0 -24 4.33301 -32 13s-12 20.667 -12 36s4 27.5 12 36.5s18.667 13.5 32 13.5c14 0 25 -4.5 33 -13.5s12 -21.167 12 -36.5z" />
    <glyph glyph-name="j" unicode="j" horiz-adv-x="245" 
d="M173 716c0 -15.333 -4 -27.333 -12 -36s-19 -13 -33 -13c-13.333 0 -24 4.33301 -32 13s-12 20.667 -12 36s4 27.5 12 36.5s18.667 13.5 32 13.5c14 0 25 -4.5 33 -13.5s12 -21.167 12 -36.5zM160 -12c0 -54.667 -13.499 -96.501 -40.499 -125.501
s-64.5 -43.5 -112.5 -43.5v55c33.333 0.666992 56.666 10.334 69.999 29.001s20 47 20 85v556h63v-556z" />
    <glyph glyph-name="k" unicode="k" horiz-adv-x="542" 
d="M447 0l-166.001 311l-85 -90l-23 -25.5c-7.33301 -8.33301 -13.666 -17.333 -18.999 -27s-9.5 -20.5 -12.5 -32.5s-4.5 -26 -4.5 -42v-94h-60v757l60 13v-541l288 315h80l-176 -188l190 -356h-72z" />
    <glyph glyph-name="l" unicode="l" horiz-adv-x="218" 
d="M77 0v756l63 14v-770h-63z" />
    <glyph glyph-name="m" unicode="m" horiz-adv-x="857" 
d="M139 0l-61.999 0.000976562v457c0 18.667 4.5 33 13.5 43s22.167 17.667 39.5 23c30.667 10 58.667 16.667 84 20s47.666 5 66.999 5c30.667 0 57 -4.16699 79 -12.5s40.667 -20.166 56 -35.499c33.333 15.333 65.5 27.166 96.5 35.499s61.5 12.5 91.5 12.5
c31.333 0 58.333 -4.5 81 -13.5s41.167 -21.667 55.5 -38s24.833 -35.833 31.5 -58.5s10 -47.667 10 -75v-363h-61v357c0 20 -2 38 -6 54s-10.833 29.667 -20.5 41s-22.334 20.166 -38.001 26.499s-35.167 9.5 -58.5 9.5c-13.333 0 -26.166 -0.833008 -38.499 -2.5
s-24.5 -4 -36.5 -7s-24.333 -6.66699 -37 -11l-41 -14.5c6.66699 -13.333 11.334 -27.666 14.001 -42.999s4 -31 4 -47v-363h-62v358c0 19.333 -2.16699 37.166 -6.5 53.499s-11.333 30.333 -21 42s-22.5 20.667 -38.5 27s-35.667 9.5 -59 9.5
c-17.333 0 -36.333 -1.5 -57 -4.5s-47.334 -9.83301 -80.001 -20.5v-465z" />
    <glyph glyph-name="n" unicode="n" horiz-adv-x="575" 
d="M139 0l-62 -0.00292969v458c0 19.333 4.33301 33.833 13 43.5s21.667 16.834 39 21.501c44 11.333 79.333 18.333 106 21s48.667 4 66 4c35.333 0 65.666 -5 90.999 -15s46 -23.833 62 -41.5s27.667 -38.334 35 -62.001s11 -49.5 11 -77.5v-352h-61v346
c0 20.667 -2.5 39.834 -7.5 57.501s-13.167 32.834 -24.5 45.501s-26.166 22.5 -44.499 29.5s-41.166 10.5 -68.499 10.5c-8.66699 0 -17.667 -0.166992 -27 -0.5s-20 -1.33301 -32 -3s-25.833 -4.16699 -41.5 -7.5s-33.834 -7.66602 -54.501 -12.999v-465z" />
    <glyph glyph-name="o" unicode="o" horiz-adv-x="604" 
d="M552 272c0 -44.667 -6 -84.334 -18 -119.001s-28.833 -63.667 -50.5 -87s-48 -41.166 -79 -53.499s-65.5 -18.5 -103.5 -18.5s-72.5 6.16699 -103.5 18.5s-57.167 30.5 -78.5 54.5s-37.833 53.167 -49.5 87.5s-17.5 73.5 -17.5 117.5c0 44.667 6 84.167 18 118.5
s29 63.333 51 87s48.5 41.667 79.5 54s65.5 18.5 103.5 18.5s72.333 -6.16699 103 -18.5s56.667 -30.333 78 -54s37.833 -52.667 49.5 -87s17.5 -73.833 17.5 -118.5zM489 272c0 70.667 -16.333 125.5 -49 164.5s-79 58.5 -139 58.5s-105.667 -19.5 -137 -58.5
s-47 -93.833 -47 -164.5c0 -72 16 -127.333 48 -166s78.333 -58 139 -58c60 0 105.833 19.333 137.5 58s47.5 94 47.5 166z" />
    <glyph glyph-name="p" unicode="p" horiz-adv-x="591" 
d="M296 55c32.667 0 60.5039 5.33398 83.5039 16.001s41.667 25.5 56 44.5s24.666 42 30.999 69s9.5 56.5 9.5 88.5c0 31.333 -3.33301 60.166 -10 86.499s-17.334 49.166 -32.001 68.499s-33.667 34.333 -57 45s-51.333 16 -84 16c-8 0 -16.5 -0.166992 -25.5 -0.5
s-19.5 -1.33301 -31.5 -3s-26 -4.16699 -42 -7.5s-35 -7.66602 -57 -12.999v-380c22 -6 41.167 -11 57.5 -15s30.666 -7 42.999 -9s23.166 -3.5 32.499 -4.5s18 -1.5 26 -1.5zM77.0039 -186.999v645c0 18 4.33301 32 13 42s21.667 17.333 39 22
c44.667 10.667 80.167 17.667 106.5 21s47.5 5 63.5 5c76.667 0 135.834 -23.833 177.501 -71.5s62.5 -115.167 62.5 -202.5c0 -88.667 -20.833 -157.167 -62.5 -205.5s-100.834 -72.5 -177.501 -72.5c-17.333 0 -37.833 2 -61.5 6s-57.167 13 -100.5 27v-203z" />
    <glyph glyph-name="q" unicode="q" horiz-adv-x="587" 
d="M295 55c8 0 16.5029 0.49707 25.5029 1.49707s19.5 2.5 31.5 4.5s26.167 4.83301 42.5 8.5s36.166 8.5 59.499 14.5v381c-22.667 5.33301 -42 9.5 -58 12.5s-29.833 5.33301 -41.5 7s-21.834 2.83398 -30.501 3.50098s-17 1 -25 1c-33.333 0 -61.833 -5.33301 -85.5 -16
s-42.834 -25.667 -57.501 -45s-25.334 -42.166 -32.001 -68.499s-10 -55.166 -10 -86.499c0 -32 3.16699 -61.5 9.5 -88.5s16.833 -50 31.5 -69s33.334 -33.833 56.001 -44.5s50.667 -16 84 -16zM287.003 -4.00293c-78.667 0 -137.502 24.001 -176.502 72.001
s-58.5 116.667 -58.5 206c0 41.333 5.5 78.833 16.5 112.5s27 62.5 48 86.5s46.667 42.5 77 55.5s64.5 19.5 102.5 19.5c19.333 0 42 -1.66699 68 -5s58.333 -10 97 -20c17.333 -4.66699 30.5 -11.834 39.5 -21.501s13.5 -24.167 13.5 -43.5v-631l-60 -13v216
c-43.333 -14.667 -78.166 -24 -104.499 -28s-47.166 -6 -62.499 -6z" />
    <glyph glyph-name="r" unicode="r" horiz-adv-x="349" 
d="M338 486c-34 0 -66.833 -1.50098 -98.5 -4.50098s-65.167 -9.16699 -100.5 -18.5v-463h-62v458c0 19.333 4.5 33.833 13.5 43.5s22.167 16.834 39.5 21.501c18.667 5.33301 36 9.66602 52 12.999s31.833 5.83301 47.5 7.5s32.167 2.83398 49.5 3.50098s37 1 59 1v-62z
" />
    <glyph glyph-name="s" unicode="s" horiz-adv-x="538" 
d="M334 291c44.667 -7.33301 79.501 -23.4971 104.501 -48.4971s37.5 -56.5 37.5 -94.5c0 -26.667 -5 -49.834 -15 -69.501s-23.5 -35.834 -40.5 -48.501s-36.5 -22 -58.5 -28s-45 -9 -69 -9c-36.667 0 -69.5 3 -98.5 9s-60.833 14 -95.5 24l-37 10l13 59l36 -11
c30 -8.66699 60 -16.167 90 -22.5s61 -9.5 93 -9.5c16.667 0 32.167 1.66699 46.5 5s27 8.83301 38 16.5s19.667 17.334 26 29.001s9.5 25.834 9.5 42.501c0 23.333 -7.33301 42.166 -22 56.499s-40.334 24.5 -77.001 30.5l-107 19c-44.667 8 -79.667 24 -105 48
s-38 55.667 -38 95c0 26.667 5 49.834 15 69.501s23.5 35.834 40.5 48.501s36.5 22.167 58.5 28.5s44.667 9.5 68 9.5c36.667 0 69.667 -2.83301 99 -8.5s61.333 -13.834 96 -24.501l36 -10l-12 -59l-37 10c-30 9.33301 -59.833 17.166 -89.5 23.499
s-60.834 9.5 -93.501 9.5c-16 0 -31.167 -1.83301 -45.5 -5.5s-27 -9.33398 -38 -17.001s-19.667 -17.334 -26 -29.001s-9.5 -25.834 -9.5 -42.501c0 -23.333 7.33301 -42.166 22 -56.499s40.334 -24.833 77.001 -31.5z" />
    <glyph glyph-name="t" unicode="t" horiz-adv-x="399" 
d="M369 9c-25.333 -5.33301 -46.833 -9.16699 -64.5 -11.5s-32.5 -3.5 -44.5 -3.5c-50.667 0 -88.334 14.5 -113.001 43.5s-37 71.167 -37 126.5v313h-88v57h88v139l61 13v-152h186v-57h-186v-308c0 -41.333 6.83301 -71.166 20.5 -89.499s37.5 -27.5 71.5 -27.5
c10.667 0 23.334 1.16699 38.001 3.5s34 6.16602 58 11.499z" />
    <glyph glyph-name="u" unicode="u" horiz-adv-x="577" 
d="M438 544l62.002 0.00195312v-459c0 -18.667 -4.33301 -32.834 -13 -42.501s-21.667 -16.834 -39 -21.501c-44 -11.333 -79.333 -18.333 -106 -21s-48.667 -4 -66 -4c-35.333 0 -65.666 5 -90.999 15s-46 23.667 -62 41s-27.667 38 -35 62s-11 49.667 -11 77v353h61v-347
c0 -20.667 2.5 -39.667 7.5 -57s13.167 -32.333 24.5 -45s26.166 -22.5 44.499 -29.5s41.166 -10.5 68.499 -10.5c8.66699 0 17.667 0.166992 27 0.5s20 1.33301 32 3s25.667 4 41 7s33.666 7.16699 54.999 12.5v466z" />
    <glyph glyph-name="v" unicode="v" horiz-adv-x="531" 
d="M312 26c-9.33301 -24 -26.333 -36 -51 -36c-25.333 0 -42.333 12 -51 36l-183 518h68l168 -487l173 487h68z" />
    <glyph glyph-name="w" unicode="w" horiz-adv-x="783" 
d="M636 31c-6 -27.333 -22.667 -41 -50 -41c-24 0 -40.667 12.667 -50 38l-145 440l-152 -441c-8 -24 -24.667 -36 -50 -36c-28 0 -45 13.333 -51 40l-101 513h65l91 -485l157 458c6 20 19.667 30 41 30s35 -10 41 -30l155 -459l96 486h62z" />
    <glyph glyph-name="x" unicode="x" horiz-adv-x="540" 
d="M430 0l-160 232l-161 -232h-74l197 274l-193 270h76l157 -226l152 226h73l-187 -266l197 -278h-77z" />
    <glyph glyph-name="y" unicode="y" horiz-adv-x="526" 
d="M152 -182c-12.667 0 -27.168 1.16699 -43.501 3.5s-35.833 6.83301 -58.5 13.5l10 58c22.667 -5.33301 41.167 -9.5 55.5 -12.5s26.833 -4.5 37.5 -4.5c26.667 0 45.834 6.33301 57.501 19s20.5 29.667 26.5 51l9 29l-219 569h71l182 -491l155 491h68l-206 -617
c-24 -72.667 -72.333 -109 -145 -109z" />
    <glyph glyph-name="z" unicode="z" horiz-adv-x="526" 
d="M440 544c14 0 24.333 -3.83301 31 -11.5s10 -17.834 10 -30.501c0 -14.667 -5.33301 -28 -16 -40l-341 -408h359v-54h-389c-14 0 -24.333 3.83301 -31 11.5s-10 17.834 -10 30.501c0 14.667 5.33301 28 16 40l341 408h-344v54h374z" />
    <glyph glyph-name="braceleft" unicode="{" horiz-adv-x="267" 
d="M143 338c13.333 -7.33301 23.833 -17.5 31.5 -30.5s11.5 -28.167 11.5 -45.5c0 -16 -2.5 -31.667 -7.5 -47s-10.667 -31 -17 -47s-12 -32.5 -17 -49.5s-7.5 -34.833 -7.5 -53.5c0 -26 6.66699 -45 20 -57s30.666 -18 51.999 -18h36v-57h-36
c-38 0 -69.5 10.833 -94.5 32.5s-37.5 53.5 -37.5 95.5c0 20.667 2.83301 40.167 8.5 58.5s11.667 35.833 18 52.5l18 47.5c5.66699 15 8.5 29.5 8.5 43.5c0 15.333 -5.16699 28 -15.5 38s-27.166 15 -50.499 15v44c23.333 0 40.166 5 50.499 15s15.5 22.667 15.5 38
c0 14 -2.83301 28.5 -8.5 43.5l-18 47.5c-6.33301 16.667 -12.333 34.167 -18 52.5s-8.5 37.833 -8.5 58.5c0 42 12.5 74 37.5 96s56.5 33 94.5 33h36v-58h-36c-21.333 0 -38.666 -6 -51.999 -18s-20 -31 -20 -57c0 -18.667 2.5 -36.5 7.5 -53.5s10.667 -33.5 17 -49.5
s12 -31.667 17 -47s7.5 -31 7.5 -47c0 -17.333 -3.83301 -32.5 -11.5 -45.5s-18.167 -23.167 -31.5 -30.5z" />
    <glyph glyph-name="bar" unicode="|" horiz-adv-x="211" 
d="M77 -180v943h57v-943h-57z" />
    <glyph glyph-name="braceright" unicode="}" horiz-adv-x="267" 
d="M132 338c-13.333 7.33301 -23.833 17.5 -31.5 30.5s-11.5 28.167 -11.5 45.5c0 16 2.5 31.667 7.5 47s10.667 31 17 47s12 32.5 17 49.5s7.5 34.833 7.5 53.5c0 26 -6.66699 45 -20 57s-30.666 18 -51.999 18h-36v58h36c38 0 69.5 -11 94.5 -33s37.5 -54 37.5 -96
c0 -20.667 -2.83301 -40.167 -8.5 -58.5s-11.667 -35.833 -18 -52.5l-18 -47.5c-5.66699 -15 -8.5 -29.5 -8.5 -43.5c0 -15.333 5.16699 -28 15.5 -38s27.166 -15 50.499 -15v-44c-23.333 0 -40.166 -5 -50.499 -15s-15.5 -22.667 -15.5 -38c0 -14 2.83301 -28.5 8.5 -43.5
l18 -47c6.33301 -16.333 12.333 -33.666 18 -51.999s8.5 -37.833 8.5 -58.5c0 -42 -12.5 -74 -37.5 -96s-56.5 -33 -94.5 -33h-36v57h36c21.333 0 38.666 6.16699 51.999 18.5s20 31.166 20 56.499c0 18.667 -2.5 36.5 -7.5 53.5s-10.667 33.5 -17 49.5s-12 31.667 -17 47
s-7.5 31 -7.5 47c0 17.333 3.83301 32.5 11.5 45.5s18.167 23.167 31.5 30.5z" />
    <glyph glyph-name="asciitilde" unicode="~" 
d="M243 303c-9.33301 7.33301 -18.333 12.833 -27 16.5s-17.667 5.5 -27 5.5c-16.667 0 -32.667 -5.33301 -48 -16s-30.333 -33 -45 -67l-47 31c16.667 41.333 37.667 70.833 63 88.5s51.333 26.5 78 26.5c30.667 0 60 -10 88 -30l61 -46c18 -14 36.333 -21 55 -21
c16 0 31.5 5.33301 46.5 16s29.833 33 44.5 67l47 -31c-16 -41.333 -36.667 -70.833 -62 -88.5s-51.333 -26.5 -78 -26.5c-30 0 -59 10 -87 30z" />
    <glyph glyph-name="exclamdown" unicode="&#xa1;" horiz-adv-x="205" 
d="M137 333v-519h-64v507zM61 517c0 15.333 4 27.5 12 36.5s18.667 13.5 32 13.5s24 -4.5 32 -13.5s12 -21.167 12 -36.5s-4 -27.333 -12 -36s-18.667 -13 -32 -13s-24 4.33301 -32 13s-12 20.667 -12 36z" />
    <glyph glyph-name="cent" unicode="&#xa2;" 
d="M68 272c0 41.333 4.83203 78.3311 14.499 110.998s23.5 60.5 41.5 83.5s39.667 41.167 65 54.5s53.333 22 84 26v126h60v-126c17.333 -1.33301 36.333 -4.16602 57 -8.49902s43.667 -9.83301 69 -16.5l39 -11l-12 -58l-39 10c-30.667 8 -57.167 14.5 -79.5 19.5
s-41.5 7.5 -57.5 7.5c-58.667 0 -102.834 -18 -132.501 -54s-44.5 -90.667 -44.5 -164c0 -74 15 -128.833 45 -164.5s74.333 -53.5 133 -53.5c16.667 0 35.834 2.33301 57.501 7s47.834 11 78.501 19l39 11l12 -59l-39 -10c-25.333 -6.66699 -48.333 -12.167 -69 -16.5
s-39.667 -7.16602 -57 -8.49902v-130h-60v130c-30.667 2.66699 -58.667 10.167 -84 22.5s-47 29.833 -65 52.5s-31.833 50.5 -41.5 83.5s-14.5 71.833 -14.5 116.5z" />
    <glyph glyph-name="sterling" unicode="&#xa3;" 
d="M57 0c-8.66699 0 -15.0039 2.50293 -19.0039 7.50293s-6 11.5 -6 19.5s2 14.833 6 20.5s10.333 8.5 19 8.5c30.667 0 55.834 4.16699 75.501 12.5s35 19.333 46 33s18.5 29.167 22.5 46.5s6 35 6 53c0 24.667 -6 51 -18 79h-127v55h103l-39.5 68
c-11 18.667 -20 36.167 -27 52.5s-12.167 32.5 -15.5 48.5s-5 34.667 -5 56c0 29.333 5.33301 55.833 16 79.5s25.5 43.667 44.5 60s41.5 29 67.5 38s54.333 13.5 85 13.5c30 0 60.5 -3.16699 91.5 -9.5s65.5 -15.166 103.5 -26.499l38 -11l-13 -60l-38 11
c-34 10 -66 18.333 -96 25s-58 10 -84 10c-27.333 0 -50.5 -3.33301 -69.5 -10s-34.5 -15.834 -46.5 -27.501s-20.833 -25.334 -26.5 -41.001s-8.5 -32.834 -8.5 -51.501c0 -20.667 2 -38.834 6 -54.501s9.83301 -31.667 17.5 -48s17 -34 28 -53s23.5 -41.833 37.5 -68.5
h197v-55h-173c5.33301 -15.333 9 -29.833 11 -43.5s3 -25.834 3 -36.501c0 -26.667 -4.16699 -51.667 -12.5 -75s-23.166 -45.666 -44.499 -66.999h179c36.667 0 63.834 6.83301 81.501 20.5s26.834 36.5 27.501 68.5h50c0 -46 -13.5 -82.167 -40.5 -108.5
s-65.167 -39.5 -114.5 -39.5h-338z" />
    <glyph glyph-name="yen" unicode="&#xa5;" 
d="M358 409h176v-54h-205v-81h205v-55h-205v-219h-66v219h-209v55h209v81h-209v54h179l-199 335h77l186 -329l183 329h74z" />
    <glyph glyph-name="brokenbar" unicode="&#xa6;" horiz-adv-x="213" 
d="M80 388v375h55v-375h-55zM80 -180v376h55v-376h-55z" />
    <glyph glyph-name="section" unicode="&#xa7;" 
d="M123 325c0 -26 2.83594 -49.667 8.50293 -71s15.334 -39.666 29.001 -54.999s32 -27.333 55 -36s51.5 -13 85.5 -13c8 0 16.667 0.5 26 1.5s20.333 2.66699 33 5s27.5 5.5 44.5 9.5s36.833 9 59.5 15v60c0 26 -2.83301 49.5 -8.5 70.5s-15.334 39.167 -29.001 54.5
s-32 27.166 -55 35.499s-51.5 12.5 -85.5 12.5c-8 0 -16.833 -0.5 -26.5 -1.5s-20.834 -2.66699 -33.501 -5s-27.334 -5.5 -44.001 -9.5s-36.334 -9 -59.001 -15v-58zM61.0029 517c0 34.667 5.00098 66.167 15.001 94.5s24.833 52.833 44.5 73.5s43.667 36.667 72 48
s60.833 17 97.5 17c29.333 0 60 -3.16699 92 -9.5s66 -14.5 102 -24.5l38 -10l-13 -60l-38 11c-32 9.33301 -63 17.166 -93 23.499s-58.667 9.5 -86 9.5c-58 0 -100.667 -15.5 -128 -46.5s-41 -73.167 -41 -126.5v-78c44 14.667 79 24 105 28s47 6 63 6
c80.667 0 140 -19.667 178 -59s57 -97 57 -173v-194c0 -34.667 -5.16699 -66.334 -15.5 -95.001s-25.333 -53.167 -45 -73.5s-43.834 -36.166 -72.501 -47.499s-61 -17 -97 -17c-29.333 0 -59.833 3.16699 -91.5 9.5s-65.5 14.5 -101.5 24.5l-38 11l13 60l38 -11
c32 -9.33301 63.333 -17.5 94 -24.5s59 -10.5 85 -10.5c58.667 0 101.5 15.333 128.5 46s40.5 73.334 40.5 128.001v78c-44 -14.667 -79 -24.167 -105 -28.5s-46.667 -6.5 -62 -6.5c-80.667 0 -140.167 20.167 -178.5 60.5s-57.5 98.5 -57.5 174.5v192z" />
    <glyph glyph-name="dieresis" unicode="&#xa8;" horiz-adv-x="563" 
d="M218 716c0 -15.333 -4 -27.333 -12 -36s-18.667 -13 -32 -13s-24 4.33301 -32 13s-12 20.667 -12 36s4 27.5 12 36.5s18.667 13.5 32 13.5s24 -4.5 32 -13.5s12 -21.167 12 -36.5zM444 716c0 -15.333 -4 -27.333 -12 -36s-19 -13 -33 -13c-13.333 0 -24 4.33301 -32 13
s-12 20.667 -12 36s4 27.5 12 36.5s18.667 13.5 32 13.5c14 0 25 -4.5 33 -13.5s12 -21.167 12 -36.5z" />
    <glyph glyph-name="copyright" unicode="&#xa9;" horiz-adv-x="919" 
d="M857 368c0 -57.333 -10.333 -110 -31 -158s-48.834 -89.333 -84.501 -124s-77.334 -61.834 -125.001 -81.501s-98.167 -29.5 -151.5 -29.5s-103.666 9.83301 -150.999 29.5s-88.833 46.834 -124.5 81.501s-63.834 76 -84.501 124s-31 100.667 -31 158
s10.333 109.833 31 157.5s48.834 88.667 84.501 123s77.167 61 124.5 80s97.666 28.5 150.999 28.5s103.833 -9.33301 151.5 -28s89.334 -45.167 125.001 -79.5s63.834 -75.333 84.501 -123s31 -100.5 31 -158.5zM802 368c0 50.667 -8.83301 96.6689 -26.5 138.002
s-41.834 76.666 -72.501 105.999s-66.5 52.166 -107.5 68.499s-84.5 24.5 -130.5 24.5c-46.667 0 -90.5 -8.16699 -131.5 -24.5s-76.667 -39.333 -107 -69s-54.333 -65.167 -72 -106.5s-26.5 -87 -26.5 -137c0 -49.333 8.83301 -94.833 26.5 -136.5
s41.834 -77.5 72.501 -107.5s66.5 -53.5 107.5 -70.5s84.5 -25.5 130.5 -25.5c46.667 0 90.5 8.5 131.5 25.5s76.667 40.5 107 70.5s54.333 65.833 72 107.5s26.5 87.167 26.5 136.5zM276 366.002c0 34 4.66699 63.999 14 89.999s22.5 47.833 39.5 65.5
s37.167 30.834 60.5 39.501s49 13 77 13c14.667 0 31.834 -2 51.501 -6s41.167 -9 64.5 -15l32 -8l-12 -49l-32 8c-23.333 5.33301 -43.166 9.66602 -59.499 12.999s-30.833 5 -43.5 5c-44 0 -77.667 -12.667 -101 -38s-35 -64.666 -35 -117.999s11.833 -92.833 35.5 -118.5
s57.5 -38.5 101.5 -38.5c12.667 0 27.167 1.66699 43.5 5s36.166 8 59.499 14l32 8l11 -49l-32 -8c-24.667 -6 -46.334 -10.833 -65.001 -14.5s-36 -5.5 -52 -5.5c-28 0 -53.5 4 -76.5 12s-43 20.333 -60 37s-30.167 38.167 -39.5 64.5s-14 57.5 -14 93.5z" />
    <glyph glyph-name="ordfeminine" unicode="&#xaa;" 
d="M471 324l-36.999 18.001c-10 4.66699 -20.333 7 -31 7s-23 -1.66699 -37 -5l-50 -10c-13.333 -2.66699 -26.166 -4.83398 -38.499 -6.50098s-24.166 -2.5 -35.499 -2.5c-43.333 0 -76.333 11.5 -99 34.5s-34 51.833 -34 86.5c0 23.333 4.33301 42.833 13 58.5
s20.5 28.167 35.5 37.5s32.167 16 51.5 20s40 6 62 6h118v41c0 32 -7.83301 54.5 -23.5 67.5s-37.167 19.5 -64.5 19.5c-19.333 0 -39.833 -1.83301 -61.5 -5.5s-44.834 -8.83398 -69.501 -15.501l-35 -9l-12 52l39 11c25.333 7.33301 50.666 13 75.999 17
s46.666 6 63.999 6c20 0 38.667 -2.5 56 -7.5s32.5 -13.167 45.5 -24.5s23.167 -26.166 30.5 -44.499s11 -40.5 11 -66.5v-218l46 -25zM389.001 519.001h-119c-34 0 -59.5 -5.33301 -76.5 -16s-25.5 -29 -25.5 -55c0 -25.333 7 -43.666 21 -54.999s35 -17 63 -17
c12 0 25.167 1.16699 39.5 3.5s30.833 5.16602 49.5 8.49902l48 9v122z" />
    <glyph glyph-name="guillemotleft" unicode="&#xab;" horiz-adv-x="551" 
d="M50 280c0 8 1.83301 15.667 5.5 23s8.5 14 14.5 20l150 146h80l-191 -189l192 -187h-80l-151 145c-13.333 13.333 -20 27.333 -20 42zM259 280c0 16 6.33301 30.334 19 43.001l151 146h79l-192 -189l195 -187h-80l-152 145c-6 6 -10.833 12.667 -14.5 20
s-5.5 14.666 -5.5 21.999z" />
    <glyph glyph-name="logicalnot" unicode="&#xac;" 
d="M460 90v220h-403v62h463v-282h-60z" />
    <glyph glyph-name="registered" unicode="&#xae;" horiz-adv-x="919" 
d="M571 458c0 20.667 -6.33301 36.833 -19 48.5s-28.667 17.5 -48 17.5h-123v-161h147l26 38c7.33301 11.333 12 21.833 14 31.5s3 18.167 3 25.5zM857 367.999c0 -57.333 -10.333 -110 -31 -158s-48.834 -89.333 -84.501 -124s-77.334 -61.834 -125.001 -81.501
s-98.167 -29.5 -151.5 -29.5s-103.666 9.83301 -150.999 29.5s-88.833 46.834 -124.5 81.501s-63.834 76 -84.501 124s-31 100.667 -31 158s10.333 109.833 31 157.5s48.834 88.667 84.501 123s77.167 61 124.5 80s97.666 28.5 150.999 28.5s103.833 -9.33301 151.5 -28
s89.334 -45.167 125.001 -79.5s63.834 -75.333 84.501 -123s31 -100.5 31 -158.5zM802 367.999c0 50.667 -8.83301 96.6689 -26.5 138.002s-41.834 76.666 -72.501 105.999s-66.5 52.166 -107.5 68.499s-84.5 24.5 -130.5 24.5c-46.667 0 -90.5 -8.16699 -131.5 -24.5
s-76.667 -39.333 -107 -69s-54.333 -65.167 -72 -106.5s-26.5 -87 -26.5 -137c0 -49.333 8.83301 -94.833 26.5 -136.5s41.834 -77.5 72.501 -107.5s66.5 -53.5 107.5 -70.5s84.5 -25.5 130.5 -25.5c46.667 0 90.5 8.5 131.5 25.5s76.667 40.5 107 70.5
s54.333 65.833 72 107.5s26.5 87.167 26.5 136.5zM511 572.001c34.667 0 62.5 -10.502 83.5 -31.502s31.5 -48.5 31.5 -82.5c0 -25.333 -7.33301 -49.666 -22 -72.999l-36 -52l82 -166h-58l-72 148h-139v-148h-53v357c0 18.667 4 31.334 12 38.001s20.333 10 37 10h134z" />
    <glyph glyph-name="macron" unicode="&#xaf;" horiz-adv-x="523" 
d="M110 667v60h313v-60h-313z" />
    <glyph glyph-name="degree" unicode="&#xb0;" horiz-adv-x="469" 
d="M421 571c0 -28 -4.33105 -53.668 -12.998 -77.001s-20.834 -43.666 -36.501 -60.999s-34.667 -30.833 -57 -40.5s-47.5 -14.5 -75.5 -14.5c-28.667 0 -54.167 4.83301 -76.5 14.5s-41.333 23.167 -57 40.5s-27.667 37.833 -36 61.5s-12.5 49.167 -12.5 76.5
s4.16699 52.666 12.5 75.999s20.5 43.666 36.5 60.999s35.333 31 58 41s48.334 15 77.001 15c28 0 53.167 -5 75.5 -15s41.166 -23.667 56.499 -41s27.166 -37.666 35.499 -60.999s12.5 -48.666 12.5 -75.999zM363.002 570.999c0 42 -10.666 76.333 -31.999 103
s-52 40 -92 40c-40.667 0 -71.334 -13.333 -92.001 -40s-31 -61 -31 -103s10.667 -76.5 32 -103.5s52.333 -40.5 93 -40.5c40 0 70.333 13.5 91 40.5s31 61.5 31 103.5z" />
    <glyph glyph-name="plusminus" unicode="&#xb1;" 
d="M318 295v-174h-60v174h-199v61h199v184h60v-184h203v-61h-203zM59 0v58h462v-58h-462z" />
    <glyph glyph-name="acute" unicode="&#xb4;" horiz-adv-x="534" 
d="M259 643c-8 -8 -16.333 -11.999 -25 -11.999c-9.33301 0 -16.5 3 -21.5 9s-7.5 12.333 -7.5 19c0 9.33301 3.66699 17.666 11 24.999l81 79h94z" />
    <glyph glyph-name="mu" unicode="&#xb5;" 
d="M140 544l-0.000976562 -347.001c0 -20.667 2.33301 -39.5 7 -56.5s12.5 -31.667 23.5 -44s25.667 -22 44 -29s41.5 -10.5 69.5 -10.5c8.66699 0 17.5 0.166992 26.5 0.5s19.5 1.33301 31.5 3s25.833 4 41.5 7s34.167 7.16699 55.5 12.5v464h62v-456
c0 -19.333 -4.16699 -33.666 -12.5 -42.999s-21.166 -16.333 -38.499 -21c-40.667 -11.333 -74 -18.5 -100 -21.5s-50 -4.5 -72 -4.5c-28 -0.666992 -54.667 3 -80 11s-45 19.667 -59 35v-230h-61v730h62z" />
    <glyph glyph-name="paragraph" unicode="&#xb6;" horiz-adv-x="618" 
d="M496 -186v876.004h-151v-876h-58v414c-40 0 -74.833 6.66699 -104.5 20s-54.5 31.666 -74.5 54.999s-34.833 50.666 -44.5 81.999s-14.5 65 -14.5 101c0 35.333 4.83301 68.666 14.5 99.999s24.167 58.666 43.5 81.999s44 41.833 74 55.5s65 20.5 105 20.5h268v-930h-58z
" />
    <glyph glyph-name="periodcentered" unicode="&#xb7;" horiz-adv-x="368" 
d="M233 367c0 -15.333 -4 -27.5 -12 -36.5s-19 -13.5 -33 -13.5c-13.333 0 -24 4.5 -32 13.5s-12 21.167 -12 36.5s4 27.333 12 36s18.667 13 32 13c14 0 25 -4.33301 33 -13s12 -20.667 12 -36z" />
    <glyph glyph-name="cedilla" unicode="&#xb8;" horiz-adv-x="523" 
d="M361 -117c0 -22 -8.33301 -40.666 -25 -55.999s-40.667 -23 -72 -23c-13.333 0 -26.333 1.33301 -39 4s-28 8 -46 16l12 39c28 -10.667 52 -16 72 -16c14.667 0 26.667 2.66699 36 8s14 14 14 26c0 15.333 -8.16699 25.166 -24.5 29.499s-38.5 5.5 -66.5 3.5l-3 5l41 81
h37l-25 -52c25.333 0 46.5 -5.33301 63.5 -16s25.5 -27 25.5 -49z" />
    <glyph glyph-name="ordmasculine" unicode="&#xba;" 
d="M476 540c0 -33.333 -4.50098 -63.167 -13.501 -89.5s-21.667 -48.833 -38 -67.5s-36 -32.834 -59 -42.501s-48.5 -14.5 -76.5 -14.5c-56.667 0 -101.5 18.833 -134.5 56.5s-49.5 90.167 -49.5 157.5c0 66.667 16.833 118.834 50.5 156.501s78.834 56.5 135.501 56.5
s101.667 -19 135 -57s50 -90 50 -156zM417.999 539.999c0 51.333 -11.5 91.333 -34.5 120s-54.5 43 -94.5 43c-41.333 0 -72.5 -14.333 -93.5 -43s-31.5 -68.667 -31.5 -120c0 -52 11.167 -92.333 33.5 -121s53.5 -43 93.5 -43c41.333 0 72.833 14.333 94.5 43
s32.5 69 32.5 121z" />
    <glyph glyph-name="guillemotright" unicode="&#xbb;" horiz-adv-x="551" 
d="M501 280c0 -14.667 -6.66699 -28.667 -20 -42l-151 -145h-80l192 187l-191 189h80l150 -146c6 -6 10.833 -12.667 14.5 -20s5.5 -15 5.5 -23zM292 280c0 -14.667 -6.66699 -28.667 -20 -42l-152 -145h-80l195 187l-192 189h79l151 -146c12.667 -12.667 19 -27 19 -43z
" />
    <glyph glyph-name="questiondown" unicode="&#xbf;" horiz-adv-x="450" 
d="M224 -131c20 0 42.332 1.66895 66.999 5.00195s51.334 9.66602 80.001 18.999l37 11l12 -56l-37 -11c-32 -9.33301 -60.833 -16 -86.5 -20s-50.167 -6 -73.5 -6c-55.333 0 -99.833 13.833 -133.5 41.5s-50.5 67.5 -50.5 119.5c0 38 6.66699 69.333 20 94s31.333 49 54 73
l94 99v84l59 11v-67c0 -18.667 -2 -33.334 -6 -44.001s-12 -22.667 -24 -36l-74 -79c-11.333 -12 -21 -23 -29 -33s-14.5 -20 -19.5 -30s-8.66699 -20.667 -11 -32s-3.5 -24.333 -3.5 -39c0 -31.333 10.167 -56.5 30.5 -75.5s51.833 -28.5 94.5 -28.5zM191.999 517.002
c0 15.333 4 27.5 12 36.5s18.667 13.5 32 13.5s24 -4.5 32 -13.5s12 -21.167 12 -36.5s-4 -27.333 -12 -36s-18.667 -13 -32 -13s-24 4.33301 -32 13s-12 20.667 -12 36z" />
    <glyph glyph-name="Agrave" unicode="&#xc0;" horiz-adv-x="672" 
d="M586 0l-64.999 172h-372l-65 -172h-67l270 713c9.33301 25.333 26.333 38 51 38c25.333 0 42.666 -12 51.999 -36l265 -715h-69zM338.001 682l-170 -454h334zM237.001 935l94 -0.000976562l81 -79c7.33301 -7.33301 11 -15.666 11 -24.999c0 -6.66699 -2.5 -13 -7.5 -19
s-12.167 -9 -21.5 -9c-8.66699 0 -17 4 -25 12z" />
    <glyph glyph-name="Aacute" unicode="&#xc1;" horiz-adv-x="672" 
d="M586 0l-64.999 172h-372l-65 -172h-67l270 713c9.33301 25.333 26.333 38 51 38c25.333 0 42.666 -12 51.999 -36l265 -715h-69zM338.001 682l-170 -454h334zM311.001 815c-8 -8 -16.333 -11.999 -25 -11.999c-9.33301 0 -16.5 3 -21.5 9s-7.5 12.333 -7.5 19
c0 9.33301 3.66699 17.666 11 24.999l81 79h94z" />
    <glyph glyph-name="Acircumflex" unicode="&#xc2;" horiz-adv-x="672" 
d="M586 0l-64.999 172h-372l-65 -172h-67l270 713c9.33301 25.333 26.333 38 51 38c25.333 0 42.666 -12 51.999 -36l265 -715h-69zM338.001 682l-170 -454h334zM338.001 952c16.667 0 30.332 -6.00098 40.999 -18.001l126 -124h-89l-78 90l-78 -90h-88l125 124
c4.66699 4.66699 10.334 8.83398 17.001 12.501s14.667 5.5 24 5.5z" />
    <glyph glyph-name="Atilde" unicode="&#xc3;" horiz-adv-x="672" 
d="M586 0l-64.999 172h-372l-65 -172h-67l270 713c9.33301 25.333 26.333 38 51 38c25.333 0 42.666 -12 51.999 -36l265 -715h-69zM338.001 682l-170 -454h334zM307.001 863c-15.333 11.333 -30.667 16.999 -46 16.999c-13.333 0 -26.166 -4.16699 -38.499 -12.5
s-24.166 -26.166 -35.499 -53.499l-46 26c13.333 35.333 31.666 60.666 54.999 75.999s45.666 23 66.999 23c13.333 0 25.833 -1.83301 37.5 -5.5s23.167 -9.83398 34.5 -18.501l48 -35c15.333 -10.667 30.333 -16 45 -16c13.333 0 26 4.33301 38 13
s23.667 26.334 35 53.001l47 -25c-13.333 -35.333 -31.5 -60.833 -54.5 -76.5s-45.167 -23.5 -66.5 -23.5c-13.333 0 -26 1.83301 -38 5.5s-23.667 9.83398 -35 18.501z" />
    <glyph glyph-name="Adieresis" unicode="&#xc4;" horiz-adv-x="672" 
d="M586 0l-64.999 172h-372l-65 -172h-67l270 713c9.33301 25.333 26.333 38 51 38c25.333 0 42.666 -12 51.999 -36l265 -715h-69zM338.001 682l-170 -454h334zM270.001 870c0 -15.333 -4 -27.333 -12 -36s-18.667 -13 -32 -13s-24 4.33301 -32 13s-12 20.667 -12 36
s4 27.5 12 36.5s18.667 13.5 32 13.5s24 -4.5 32 -13.5s12 -21.167 12 -36.5zM496.001 870c0 -15.333 -4 -27.333 -12 -36s-19 -13 -33 -13c-13.333 0 -24 4.33301 -32 13s-12 20.667 -12 36s4 27.5 12 36.5s18.667 13.5 32 13.5c14 0 25 -4.5 33 -13.5s12 -21.167 12 -36.5
z" />
    <glyph glyph-name="Aring" unicode="&#xc5;" horiz-adv-x="674" 
d="M586 0l-65 172h-372l-65 -172h-67l270 713c-16 8 -28.833 19.833 -38.5 35.5s-14.5 33.5 -14.5 53.5c0 30 9.83301 54.167 29.5 72.5s44.5 27.5 74.5 27.5s55 -9.16699 75 -27.5s30 -42.5 30 -72.5c0 -20.667 -5 -38.667 -15 -54s-23 -27 -39 -35l266 -713h-69zM338 682
l-170 -454h334zM338 860c-18 0 -32.332 -5.66699 -42.999 -17s-16 -25 -16 -41c0 -17.333 5.5 -31.5 16.5 -42.5s25.167 -16.5 42.5 -16.5c18 0 32.5 5.5 43.5 16.5s16.5 25.167 16.5 42.5c0 16 -5.33301 29.667 -16 41s-25.334 17 -44.001 17z" />
    <glyph glyph-name="AE" unicode="&#xc6;" horiz-adv-x="1004" 
d="M550 0c-21.333 0 -37.333 5.16797 -48 15.501s-16 25.166 -16 44.499v109h-333l-66 -169h-70l280 691c7.33301 17.333 16.833 30.5 28.5 39.5s28.167 13.5 49.5 13.5h575v-59h-400v-276h359v-56h-359v-295h404v-58h-404zM486 685.001h-128l-183 -459h311v459z" />
    <glyph glyph-name="Ccedilla" unicode="&#xc7;" horiz-adv-x="661" 
d="M58 370c0 64.667 8.33301 120.664 25 167.997s39.667 86.5 69 117.5s63.666 54.167 102.999 69.5s82 23 128 23c30 0 60.333 -3.33301 91 -10s64.334 -15.667 101.001 -27l47 -14l-12 -60l-49 15c-36 11.333 -68.5 20 -97.5 26s-55.5 9 -79.5 9
c-39.333 0 -74.833 -6.16699 -106.5 -18.5s-58.834 -31.5 -81.501 -57.5s-40 -59 -52 -99s-18 -87.333 -18 -142c0 -55.333 6.16699 -103 18.5 -143s29.833 -72.833 52.5 -98.5s49.834 -44.667 81.501 -57s67.167 -18.5 106.5 -18.5c24.667 0 51.167 3 79.5 9
s60.5 14.667 96.5 26l49 15l12 -60l-47 -15c-37.333 -11.333 -71.166 -20.166 -101.499 -26.499s-60.5 -9.5 -90.5 -9.5c-46.667 0 -89.834 7.33301 -129.501 22s-74 37.334 -103 68.001s-51.667 69.834 -68 117.501s-24.5 104.5 -24.5 170.5zM469 -117.003
c0 -22 -8.33301 -40.666 -25 -55.999s-40.667 -23 -72 -23c-13.333 0 -26.333 1.33301 -39 4s-28 8 -46 16l12 39c28 -10.667 52 -16 72 -16c14.667 0 26.667 2.66699 36 8s14 14 14 26c0 15.333 -8.16699 25.166 -24.5 29.499s-38.5 5.5 -66.5 3.5l-3 5l41 81h37l-25 -52
c25.333 0 46.5 -5.33301 63.5 -16s25.5 -27 25.5 -49z" />
    <glyph glyph-name="Egrave" unicode="&#xc8;" horiz-adv-x="606" 
d="M147 0c-20.667 0 -36.667 5.16797 -48 15.501s-17 25.166 -17 44.499v623c0 19.333 5.66699 34.333 17 45s27.333 16 48 16h401v-59h-401v-276h353v-57h-353v-294h404v-58h-404zM204 935.001l94 -0.000976562l81 -79c7.33301 -7.33301 11 -15.666 11 -24.999
c0 -6.66699 -2.5 -13 -7.5 -19s-12.167 -9 -21.5 -9c-8.66699 0 -17 4 -25 12z" />
    <glyph glyph-name="Eacute" unicode="&#xc9;" horiz-adv-x="606" 
d="M147 0c-20.667 0 -36.667 5.16797 -48 15.501s-17 25.166 -17 44.499v623c0 19.333 5.66699 34.333 17 45s27.333 16 48 16h401v-59h-401v-276h353v-57h-353v-294h404v-58h-404zM304 815.001c-8 -8 -16.333 -11.999 -25 -11.999c-9.33301 0 -16.5 3 -21.5 9
s-7.5 12.333 -7.5 19c0 9.33301 3.66699 17.666 11 24.999l81 79h94z" />
    <glyph glyph-name="Ecircumflex" unicode="&#xca;" horiz-adv-x="606" 
d="M147 0c-20.667 0 -36.667 5.16797 -48 15.501s-17 25.166 -17 44.499v623c0 19.333 5.66699 34.333 17 45s27.333 16 48 16h401v-59h-401v-276h353v-57h-353v-294h404v-58h-404zM316 952.001c16.667 0 30.332 -6.00098 40.999 -18.001l126 -124h-89l-78 90l-78 -90h-88
l125 124c4.66699 4.66699 10.334 8.83398 17.001 12.501s14.667 5.5 24 5.5z" />
    <glyph glyph-name="Edieresis" unicode="&#xcb;" horiz-adv-x="606" 
d="M147 0c-20.667 0 -36.667 5.16797 -48 15.501s-17 25.166 -17 44.499v623c0 19.333 5.66699 34.333 17 45s27.333 16 48 16h401v-59h-401v-276h353v-57h-353v-294h404v-58h-404zM248 869.001c0 -15.333 -4 -27.333 -12 -36s-18.667 -13 -32 -13s-24 4.33301 -32 13
s-12 20.667 -12 36s4 27.5 12 36.5s18.667 13.5 32 13.5s24 -4.5 32 -13.5s12 -21.167 12 -36.5zM474 869.001c0 -15.333 -4 -27.333 -12 -36s-19 -13 -33 -13c-13.333 0 -24 4.33301 -32 13s-12 20.667 -12 36s4 27.5 12 36.5s18.667 13.5 32 13.5c14 0 25 -4.5 33 -13.5
s12 -21.167 12 -36.5z" />
    <glyph glyph-name="Igrave" unicode="&#xcc;" horiz-adv-x="230" 
d="M82 0v744h65v-744h-65zM6 934l94 -0.000976562l81 -79c7.33301 -7.33301 11 -15.666 11 -24.999c0 -6.66699 -2.5 -13 -7.5 -19s-12.167 -9 -21.5 -9c-8.66699 0 -17 4 -25 12z" />
    <glyph glyph-name="Iacute" unicode="&#xcd;" horiz-adv-x="230" 
d="M82 0v744h65v-744h-65zM103 814c-8 -8 -16.333 -11.999 -25 -11.999c-9.33301 0 -16.5 3 -21.5 9s-7.5 12.333 -7.5 19c0 9.33301 3.66699 17.666 11 24.999l81 79h94z" />
    <glyph glyph-name="Icircumflex" unicode="&#xce;" horiz-adv-x="230" 
d="M82 0v744h65v-744h-65zM116 952c16.667 0 30.332 -6.00098 40.999 -18.001l126 -124h-89l-78 90l-78 -90h-88l125 124c4.66699 4.66699 10.334 8.83398 17.001 12.501s14.667 5.5 24 5.5z" />
    <glyph glyph-name="Idieresis" unicode="&#xcf;" horiz-adv-x="230" 
d="M82 0v744h65v-744h-65zM48 870c0 -15.333 -4 -27.333 -12 -36s-18.667 -13 -32 -13s-24 4.33301 -32 13s-12 20.667 -12 36s4 27.5 12 36.5s18.667 13.5 32 13.5s24 -4.5 32 -13.5s12 -21.167 12 -36.5zM274 870c0 -15.333 -4 -27.333 -12 -36s-19 -13 -33 -13
c-13.333 0 -24 4.33301 -32 13s-12 20.667 -12 36s4 27.5 12 36.5s18.667 13.5 32 13.5c14 0 25 -4.5 33 -13.5s12 -21.167 12 -36.5z" />
    <glyph glyph-name="Eth" unicode="&#xd0;" horiz-adv-x="722" 
d="M667 370c0 -59.333 -7.99902 -111.831 -23.999 -157.498s-38.333 -84.334 -67 -116.001s-63.167 -55.667 -103.5 -72s-84.5 -24.5 -132.5 -24.5h-191c-20.667 0 -36.5 5.16699 -47.5 15.5s-16.5 25.166 -16.5 44.499v293h-70v56h70v274c0 40.667 21.333 61 64 61h194
c48.667 0 93 -8.5 133 -25.5s74.167 -41.5 102.5 -73.5s50.166 -71.167 65.499 -117.5s23 -98.833 23 -157.5zM602.001 370.002c0 48 -6.16699 91.501 -18.5 130.501s-30 72.333 -53 100s-51.5 49 -85.5 64s-72.333 22.5 -115 22.5h-180v-278h229v-56h-229v-295h187
c84.667 0 150 27.167 196 81.5s69 131.166 69 230.499z" />
    <glyph glyph-name="Ntilde" unicode="&#xd1;" horiz-adv-x="729" 
d="M143 0h-60.999v701c0 17.333 4.33301 30 13 38s20 12 34 12c21.333 0 38.666 -10 51.999 -30l406 -638v661h60v-700c0 -17.333 -4.33301 -29.833 -13 -37.5s-20 -11.5 -34 -11.5c-21.333 0 -38.333 10 -51 30l-406 638v-663zM335.001 864
c-15.333 11.333 -30.667 16.999 -46 16.999c-13.333 0 -26.166 -4.16699 -38.499 -12.5s-24.166 -26.166 -35.499 -53.499l-46 26c13.333 35.333 31.666 60.666 54.999 75.999s45.666 23 66.999 23c13.333 0 25.833 -1.83301 37.5 -5.5s23.167 -9.83398 34.5 -18.501l48 -35
c15.333 -10.667 30.333 -16 45 -16c13.333 0 26 4.33301 38 13s23.667 26.334 35 53.001l47 -25c-13.333 -35.333 -31.5 -60.833 -54.5 -76.5s-45.167 -23.5 -66.5 -23.5c-13.333 0 -26 1.83301 -38 5.5s-23.667 9.83398 -35 18.501z" />
    <glyph glyph-name="Ograve" unicode="&#xd2;" horiz-adv-x="780" 
d="M725 370c0 -61.333 -8.16699 -115.5 -24.5 -162.5s-39.333 -86.5 -69 -118.5s-65.167 -56.167 -106.5 -72.5s-87 -24.5 -137 -24.5s-95.333 8.33301 -136 25s-75.667 41 -105 73s-52 71.5 -68 118.5s-24 100.833 -24 161.5c0 60 8.16699 113.5 24.5 160.5
s39.5 86.667 69.5 119s65.667 56.833 107 73.5s87 25 137 25c49.333 0 94.5 -8.33301 135.5 -25s76 -41 105 -73s51.5 -71.5 67.5 -118.5s24 -100.833 24 -161.5zM659 370c0 103.333 -24 182.5 -72 237.5s-113.667 82.5 -197 82.5c-84.667 0 -150.834 -27.5 -198.501 -82.5
s-71.5 -134.167 -71.5 -237.5c0 -52 6.33301 -98 19 -138s30.834 -73.667 54.501 -101s52.334 -48 86.001 -62s71.167 -21 112.5 -21c83.333 0 148.666 27.5 195.999 82.5s71 134.833 71 239.5zM278 934l94 -0.000976562l81 -79c7.33301 -7.33301 11 -15.666 11 -24.999
c0 -6.66699 -2.5 -13 -7.5 -19s-12.167 -9 -21.5 -9c-8.66699 0 -17 4 -25 12z" />
    <glyph glyph-name="Oacute" unicode="&#xd3;" horiz-adv-x="780" 
d="M725 370c0 -61.333 -8.16699 -115.5 -24.5 -162.5s-39.333 -86.5 -69 -118.5s-65.167 -56.167 -106.5 -72.5s-87 -24.5 -137 -24.5s-95.333 8.33301 -136 25s-75.667 41 -105 73s-52 71.5 -68 118.5s-24 100.833 -24 161.5c0 60 8.16699 113.5 24.5 160.5
s39.5 86.667 69.5 119s65.667 56.833 107 73.5s87 25 137 25c49.333 0 94.5 -8.33301 135.5 -25s76 -41 105 -73s51.5 -71.5 67.5 -118.5s24 -100.833 24 -161.5zM659 370c0 103.333 -24 182.5 -72 237.5s-113.667 82.5 -197 82.5c-84.667 0 -150.834 -27.5 -198.501 -82.5
s-71.5 -134.167 -71.5 -237.5c0 -52 6.33301 -98 19 -138s30.834 -73.667 54.501 -101s52.334 -48 86.001 -62s71.167 -21 112.5 -21c83.333 0 148.666 27.5 195.999 82.5s71 134.833 71 239.5zM379 814c-8 -8 -16.333 -11.999 -25 -11.999c-9.33301 0 -16.5 3 -21.5 9
s-7.5 12.333 -7.5 19c0 9.33301 3.66699 17.666 11 24.999l81 79h94z" />
    <glyph glyph-name="Ocircumflex" unicode="&#xd4;" horiz-adv-x="780" 
d="M725 370c0 -61.333 -8.16699 -115.5 -24.5 -162.5s-39.333 -86.5 -69 -118.5s-65.167 -56.167 -106.5 -72.5s-87 -24.5 -137 -24.5s-95.333 8.33301 -136 25s-75.667 41 -105 73s-52 71.5 -68 118.5s-24 100.833 -24 161.5c0 60 8.16699 113.5 24.5 160.5
s39.5 86.667 69.5 119s65.667 56.833 107 73.5s87 25 137 25c49.333 0 94.5 -8.33301 135.5 -25s76 -41 105 -73s51.5 -71.5 67.5 -118.5s24 -100.833 24 -161.5zM659 370c0 103.333 -24 182.5 -72 237.5s-113.667 82.5 -197 82.5c-84.667 0 -150.834 -27.5 -198.501 -82.5
s-71.5 -134.167 -71.5 -237.5c0 -52 6.33301 -98 19 -138s30.834 -73.667 54.501 -101s52.334 -48 86.001 -62s71.167 -21 112.5 -21c83.333 0 148.666 27.5 195.999 82.5s71 134.833 71 239.5zM393 952c16.667 0 30.332 -6.00098 40.999 -18.001l126 -124h-89l-78 90
l-78 -90h-88l125 124c4.66699 4.66699 10.334 8.83398 17.001 12.501s14.667 5.5 24 5.5z" />
    <glyph glyph-name="Otilde" unicode="&#xd5;" horiz-adv-x="780" 
d="M725 370c0 -61.333 -8.16699 -115.5 -24.5 -162.5s-39.333 -86.5 -69 -118.5s-65.167 -56.167 -106.5 -72.5s-87 -24.5 -137 -24.5s-95.333 8.33301 -136 25s-75.667 41 -105 73s-52 71.5 -68 118.5s-24 100.833 -24 161.5c0 60 8.16699 113.5 24.5 160.5
s39.5 86.667 69.5 119s65.667 56.833 107 73.5s87 25 137 25c49.333 0 94.5 -8.33301 135.5 -25s76 -41 105 -73s51.5 -71.5 67.5 -118.5s24 -100.833 24 -161.5zM659 370c0 103.333 -24 182.5 -72 237.5s-113.667 82.5 -197 82.5c-84.667 0 -150.834 -27.5 -198.501 -82.5
s-71.5 -134.167 -71.5 -237.5c0 -52 6.33301 -98 19 -138s30.834 -73.667 54.501 -101s52.334 -48 86.001 -62s71.167 -21 112.5 -21c83.333 0 148.666 27.5 195.999 82.5s71 134.833 71 239.5zM354 866c-15.333 11.333 -30.667 16.999 -46 16.999
c-13.333 0 -26.166 -4.16699 -38.499 -12.5s-24.166 -26.166 -35.499 -53.499l-46 26c13.333 35.333 31.666 60.666 54.999 75.999s45.666 23 66.999 23c13.333 0 25.833 -1.83301 37.5 -5.5s23.167 -9.83398 34.5 -18.501l48 -35c15.333 -10.667 30.333 -16 45 -16
c13.333 0 26 4.33301 38 13s23.667 26.334 35 53.001l47 -25c-13.333 -35.333 -31.5 -60.833 -54.5 -76.5s-45.167 -23.5 -66.5 -23.5c-13.333 0 -26 1.83301 -38 5.5s-23.667 9.83398 -35 18.501z" />
    <glyph glyph-name="Odieresis" unicode="&#xd6;" horiz-adv-x="780" 
d="M725 370c0 -61.333 -8.16699 -115.5 -24.5 -162.5s-39.333 -86.5 -69 -118.5s-65.167 -56.167 -106.5 -72.5s-87 -24.5 -137 -24.5s-95.333 8.33301 -136 25s-75.667 41 -105 73s-52 71.5 -68 118.5s-24 100.833 -24 161.5c0 60 8.16699 113.5 24.5 160.5
s39.5 86.667 69.5 119s65.667 56.833 107 73.5s87 25 137 25c49.333 0 94.5 -8.33301 135.5 -25s76 -41 105 -73s51.5 -71.5 67.5 -118.5s24 -100.833 24 -161.5zM659 370c0 103.333 -24 182.5 -72 237.5s-113.667 82.5 -197 82.5c-84.667 0 -150.834 -27.5 -198.501 -82.5
s-71.5 -134.167 -71.5 -237.5c0 -52 6.33301 -98 19 -138s30.834 -73.667 54.501 -101s52.334 -48 86.001 -62s71.167 -21 112.5 -21c83.333 0 148.666 27.5 195.999 82.5s71 134.833 71 239.5zM323 869c0 -15.333 -4 -27.333 -12 -36s-18.667 -13 -32 -13
s-24 4.33301 -32 13s-12 20.667 -12 36s4 27.5 12 36.5s18.667 13.5 32 13.5s24 -4.5 32 -13.5s12 -21.167 12 -36.5zM549 869c0 -15.333 -4 -27.333 -12 -36s-19 -13 -33 -13c-13.333 0 -24 4.33301 -32 13s-12 20.667 -12 36s4 27.5 12 36.5s18.667 13.5 32 13.5
c14 0 25 -4.5 33 -13.5s12 -21.167 12 -36.5z" />
    <glyph glyph-name="multiply" unicode="&#xd7;" 
d="M505 120l-44 -44l-172 171l-171 -171l-44 44l171 172l-171 172l44 44l171 -171l172 171l44 -44l-171 -172z" />
    <glyph glyph-name="Oslash" unicode="&#xd8;" horiz-adv-x="780" 
d="M725 370c0 -61.333 -8.16602 -115.499 -24.499 -162.499s-39.333 -86.5 -69 -118.5s-65.167 -56.167 -106.5 -72.5s-87 -24.5 -137 -24.5c-29.333 0 -56.833 2.66699 -82.5 8s-49.834 13.666 -72.501 24.999l-42 -78h-58l56 104c-42.667 32 -75.667 74.5 -99 127.5
s-35 116.833 -35 191.5c0 60 8.16699 113.5 24.5 160.5s39.5 86.667 69.5 119s65.667 56.833 107 73.5s87 25 137 25c56 0 107.333 -11.333 154 -34l43 78h58l-57 -105c42 -31.333 74.833 -73.5 98.5 -126.5s35.5 -116.5 35.5 -190.5zM659.001 370.001
c0 60 -8.33301 112.167 -25 156.5s-41 79.833 -73 106.5l-300 -556c36.667 -20 80.334 -30 131.001 -30c83.333 0 148.666 27.667 195.999 83s71 135.333 71 240zM120.001 370.001c0 -60.667 8.50098 -113.332 25.501 -157.999s41.167 -80.334 72.5 -107.001l301 556
c-18.667 9.33301 -38.667 16.666 -60 21.999s-44.333 8 -69 8c-84.667 0 -150.834 -27.667 -198.501 -83s-71.5 -134.666 -71.5 -237.999z" />
    <glyph glyph-name="Ugrave" unicode="&#xd9;" horiz-adv-x="715" 
d="M637 262c0 -42.667 -6.16699 -81 -18.5 -115s-30.333 -63 -54 -87s-52.834 -42.333 -87.501 -55s-74.667 -19 -120 -19c-90.667 0 -160 24.5 -208 73.5s-72 116.5 -72 202.5v482h65v-482c0 -69.333 17.667 -122.833 53 -160.5s89.333 -56.5 162 -56.5
c74.667 0 129.334 18.667 164.001 56s52 91 52 161v482h64v-482v0zM248 935l94 -0.000976562l81 -79c7.33301 -7.33301 11 -15.666 11 -24.999c0 -6.66699 -2.5 -13 -7.5 -19s-12.167 -9 -21.5 -9c-8.66699 0 -17 4 -25 12z" />
    <glyph glyph-name="Uacute" unicode="&#xda;" horiz-adv-x="715" 
d="M637 262c0 -42.667 -6.16699 -81 -18.5 -115s-30.333 -63 -54 -87s-52.834 -42.333 -87.501 -55s-74.667 -19 -120 -19c-90.667 0 -160 24.5 -208 73.5s-72 116.5 -72 202.5v482h65v-482c0 -69.333 17.667 -122.833 53 -160.5s89.333 -56.5 162 -56.5
c74.667 0 129.334 18.667 164.001 56s52 91 52 161v482h64v-482v0zM349 815c-8 -8 -16.333 -11.999 -25 -11.999c-9.33301 0 -16.5 3 -21.5 9s-7.5 12.333 -7.5 19c0 9.33301 3.66699 17.666 11 24.999l81 79h94z" />
    <glyph glyph-name="Ucircumflex" unicode="&#xdb;" horiz-adv-x="715" 
d="M637 262c0 -42.667 -6.16699 -81 -18.5 -115s-30.333 -63 -54 -87s-52.834 -42.333 -87.501 -55s-74.667 -19 -120 -19c-90.667 0 -160 24.5 -208 73.5s-72 116.5 -72 202.5v482h65v-482c0 -69.333 17.667 -122.833 53 -160.5s89.333 -56.5 162 -56.5
c74.667 0 129.334 18.667 164.001 56s52 91 52 161v482h64v-482v0zM361 952c16.667 0 30.332 -6.00098 40.999 -18.001l126 -124h-89l-78 90l-78 -90h-88l125 124c4.66699 4.66699 10.334 8.83398 17.001 12.501s14.667 5.5 24 5.5z" />
    <glyph glyph-name="Udieresis" unicode="&#xdc;" horiz-adv-x="715" 
d="M637 262c0 -42.667 -6.16699 -81 -18.5 -115s-30.333 -63 -54 -87s-52.834 -42.333 -87.501 -55s-74.667 -19 -120 -19c-90.667 0 -160 24.5 -208 73.5s-72 116.5 -72 202.5v482h65v-482c0 -69.333 17.667 -122.833 53 -160.5s89.333 -56.5 162 -56.5
c74.667 0 129.334 18.667 164.001 56s52 91 52 161v482h64v-482v0zM295 869c0 -15.333 -4 -27.333 -12 -36s-18.667 -13 -32 -13s-24 4.33301 -32 13s-12 20.667 -12 36s4 27.5 12 36.5s18.667 13.5 32 13.5s24 -4.5 32 -13.5s12 -21.167 12 -36.5zM521 869
c0 -15.333 -4 -27.333 -12 -36s-19 -13 -33 -13c-13.333 0 -24 4.33301 -32 13s-12 20.667 -12 36s4 27.5 12 36.5s18.667 13.5 32 13.5c14 0 25 -4.5 33 -13.5s12 -21.167 12 -36.5z" />
    <glyph glyph-name="Yacute" unicode="&#xdd;" horiz-adv-x="638" 
d="M357 323v-323h-66v321l-274 423h75l234 -363l227 363h73zM334 815c-8 -8 -16.333 -11.999 -25 -11.999c-9.33301 0 -16.5 3 -21.5 9s-7.5 12.333 -7.5 19c0 9.33301 3.66699 17.666 11 24.999l81 79h94z" />
    <glyph glyph-name="Thorn" unicode="&#xde;" horiz-adv-x="619" 
d="M575 390c0 -35.333 -5.50098 -66.667 -16.501 -94s-26.333 -50.666 -46 -69.999s-43 -34 -70 -44s-56.833 -15 -89.5 -15h-209v-167h-62v744h62v-131h220c30 0 58 -5.16699 84 -15.5s48.333 -25 67 -44s33.334 -42.333 44.001 -70s16 -58.834 16 -93.501z
M514.999 390.999c0 52 -14.167 92.834 -42.5 122.501s-65.833 44.5 -112.5 44.5h-216v-335h209c50 0 89.5 14.667 118.5 44s43.5 70.666 43.5 123.999z" />
    <glyph glyph-name="germandbls" unicode="&#xdf;" horiz-adv-x="564" 
d="M516 181c0 -27.333 -4.49902 -52.165 -13.499 -74.498s-22 -41.333 -39 -57s-37.333 -27.834 -61 -36.501s-50.167 -13 -79.5 -13h-84v55h82c48.667 0 83.167 11.833 103.5 35.5s30.5 53.167 30.5 88.5c0 20 -4.5 38.167 -13.5 54.5s-22.167 32.166 -39.5 47.499l-69 58
c-15.333 13.333 -23 27.666 -23 42.999c0 16 4.33301 30 13 42l47 66c9.33301 12.667 16.833 27.167 22.5 43.5s8.5 34.166 8.5 53.499c0 36.667 -12.167 66.667 -36.5 90s-57.5 35 -99.5 35c-44 0 -76.5 -12.333 -97.5 -37s-31.5 -60.334 -31.5 -107.001v-568h-61v568
c0 36 5.16699 66.667 15.5 92s24.166 46 41.499 62s37.5 27.667 60.5 35s47.5 11 73.5 11c28 0 53.833 -4 77.5 -12s44.167 -19.667 61.5 -35s31 -34.166 41 -56.499s15 -48.166 15 -77.499c0 -28.667 -4.33301 -52.667 -13 -72s-17 -34.666 -25 -45.999l-58 -80l79 -66
c23.333 -19.333 41 -40.333 53 -63s18.333 -49 19 -79z" />
    <glyph glyph-name="agrave" unicode="&#xe0;" horiz-adv-x="589" 
d="M535 -8l-44.9971 27.0049c-10.667 5.33301 -21.5 9.16602 -32.5 11.499s-24.167 1.5 -39.5 -2.5l-41 -11c-24.667 -6.66699 -50.5 -12.334 -77.5 -17.001s-51.167 -7 -72.5 -7c-55.333 0 -98.166 13 -128.499 39s-45.5 62.333 -45.5 109c0 30 5.66699 55.167 17 75.5
s26.666 36.666 45.999 48.999s41.666 21.166 66.999 26.499s52 8 80 8h171v69c0 44 -12.167 75.333 -36.5 94s-56.833 28 -97.5 28c-25.333 0 -52.5 -3 -81.5 -9s-59.5 -13.667 -91.5 -23l-39 -11l-12 58l37 10c36 9.33301 69.167 17.333 99.5 24s59.833 10 88.5 10
c27.333 0 52.666 -3.33301 75.999 -10s43.666 -17.334 60.999 -32.001s31 -33.5 41 -56.5s15 -50.5 15 -82.5v-290l65 -40zM434.003 246.005h-172c-46.667 0 -82.834 -7.83301 -108.501 -23.5s-38.5 -42.167 -38.5 -79.5c0 -32 10.333 -55.833 31 -71.5
s50.667 -23.5 90 -23.5c16.667 0 36.834 1.83301 60.501 5.5s48.167 8.5 73.5 14.5l64 14v164zM183.003 763.005l94 -0.000976562l81 -79c7.33301 -7.33301 11 -15.666 11 -24.999c0 -6.66699 -2.5 -13 -7.5 -19s-12.167 -9 -21.5 -9c-8.66699 0 -17 4 -25 12z" />
    <glyph glyph-name="aacute" unicode="&#xe1;" horiz-adv-x="589" 
d="M535 -8l-44.9971 27.0049c-10.667 5.33301 -21.5 9.16602 -32.5 11.499s-24.167 1.5 -39.5 -2.5l-41 -11c-24.667 -6.66699 -50.5 -12.334 -77.5 -17.001s-51.167 -7 -72.5 -7c-55.333 0 -98.166 13 -128.499 39s-45.5 62.333 -45.5 109c0 30 5.66699 55.167 17 75.5
s26.666 36.666 45.999 48.999s41.666 21.166 66.999 26.499s52 8 80 8h171v69c0 44 -12.167 75.333 -36.5 94s-56.833 28 -97.5 28c-25.333 0 -52.5 -3 -81.5 -9s-59.5 -13.667 -91.5 -23l-39 -11l-12 58l37 10c36 9.33301 69.167 17.333 99.5 24s59.833 10 88.5 10
c27.333 0 52.666 -3.33301 75.999 -10s43.666 -17.334 60.999 -32.001s31 -33.5 41 -56.5s15 -50.5 15 -82.5v-290l65 -40zM434.003 246.005h-172c-46.667 0 -82.834 -7.83301 -108.501 -23.5s-38.5 -42.167 -38.5 -79.5c0 -32 10.333 -55.833 31 -71.5
s50.667 -23.5 90 -23.5c16.667 0 36.834 1.83301 60.501 5.5s48.167 8.5 73.5 14.5l64 14v164zM296.003 643.005c-8 -8 -16.333 -11.999 -25 -11.999c-9.33301 0 -16.5 3 -21.5 9s-7.5 12.333 -7.5 19c0 9.33301 3.66699 17.666 11 24.999l81 79h94z" />
    <glyph glyph-name="acircumflex" unicode="&#xe2;" horiz-adv-x="589" 
d="M535 -8l-44.9971 27.0049c-10.667 5.33301 -21.5 9.16602 -32.5 11.499s-24.167 1.5 -39.5 -2.5l-41 -11c-24.667 -6.66699 -50.5 -12.334 -77.5 -17.001s-51.167 -7 -72.5 -7c-55.333 0 -98.166 13 -128.499 39s-45.5 62.333 -45.5 109c0 30 5.66699 55.167 17 75.5
s26.666 36.666 45.999 48.999s41.666 21.166 66.999 26.499s52 8 80 8h171v69c0 44 -12.167 75.333 -36.5 94s-56.833 28 -97.5 28c-25.333 0 -52.5 -3 -81.5 -9s-59.5 -13.667 -91.5 -23l-39 -11l-12 58l37 10c36 9.33301 69.167 17.333 99.5 24s59.833 10 88.5 10
c27.333 0 52.666 -3.33301 75.999 -10s43.666 -17.334 60.999 -32.001s31 -33.5 41 -56.5s15 -50.5 15 -82.5v-290l65 -40zM434.003 246.005h-172c-46.667 0 -82.834 -7.83301 -108.501 -23.5s-38.5 -42.167 -38.5 -79.5c0 -32 10.333 -55.833 31 -71.5
s50.667 -23.5 90 -23.5c16.667 0 36.834 1.83301 60.501 5.5s48.167 8.5 73.5 14.5l64 14v164zM301.003 765.005c16.667 0 30.332 -6.00098 40.999 -18.001l126 -124h-89l-78 90l-78 -90h-88l125 124c4.66699 4.66699 10.334 8.83398 17.001 12.501s14.667 5.5 24 5.5z" />
    <glyph glyph-name="atilde" unicode="&#xe3;" horiz-adv-x="589" 
d="M535 -8l-44.9971 27.0049c-10.667 5.33301 -21.5 9.16602 -32.5 11.499s-24.167 1.5 -39.5 -2.5l-41 -11c-24.667 -6.66699 -50.5 -12.334 -77.5 -17.001s-51.167 -7 -72.5 -7c-55.333 0 -98.166 13 -128.499 39s-45.5 62.333 -45.5 109c0 30 5.66699 55.167 17 75.5
s26.666 36.666 45.999 48.999s41.666 21.166 66.999 26.499s52 8 80 8h171v69c0 44 -12.167 75.333 -36.5 94s-56.833 28 -97.5 28c-25.333 0 -52.5 -3 -81.5 -9s-59.5 -13.667 -91.5 -23l-39 -11l-12 58l37 10c36 9.33301 69.167 17.333 99.5 24s59.833 10 88.5 10
c27.333 0 52.666 -3.33301 75.999 -10s43.666 -17.334 60.999 -32.001s31 -33.5 41 -56.5s15 -50.5 15 -82.5v-290l65 -40zM434.003 246.005h-172c-46.667 0 -82.834 -7.83301 -108.501 -23.5s-38.5 -42.167 -38.5 -79.5c0 -32 10.333 -55.833 31 -71.5
s50.667 -23.5 90 -23.5c16.667 0 36.834 1.83301 60.501 5.5s48.167 8.5 73.5 14.5l64 14v164zM260.003 684.005c-15.333 11.333 -30.667 16.999 -46 16.999c-13.333 0 -26.166 -4.16699 -38.499 -12.5s-24.166 -26.166 -35.499 -53.499l-46 26
c13.333 35.333 31.666 60.666 54.999 75.999s45.666 23 66.999 23c13.333 0 25.833 -1.83301 37.5 -5.5s23.167 -9.83398 34.5 -18.501l48 -35c15.333 -10.667 30.333 -16 45 -16c13.333 0 26 4.33301 38 13s23.667 26.334 35 53.001l47 -25
c-13.333 -35.333 -31.5 -60.833 -54.5 -76.5s-45.167 -23.5 -66.5 -23.5c-13.333 0 -26 1.83301 -38 5.5s-23.667 9.83398 -35 18.501z" />
    <glyph glyph-name="adieresis" unicode="&#xe4;" horiz-adv-x="589" 
d="M535 -8l-44.9971 27.0049c-10.667 5.33301 -21.5 9.16602 -32.5 11.499s-24.167 1.5 -39.5 -2.5l-41 -11c-24.667 -6.66699 -50.5 -12.334 -77.5 -17.001s-51.167 -7 -72.5 -7c-55.333 0 -98.166 13 -128.499 39s-45.5 62.333 -45.5 109c0 30 5.66699 55.167 17 75.5
s26.666 36.666 45.999 48.999s41.666 21.166 66.999 26.499s52 8 80 8h171v69c0 44 -12.167 75.333 -36.5 94s-56.833 28 -97.5 28c-25.333 0 -52.5 -3 -81.5 -9s-59.5 -13.667 -91.5 -23l-39 -11l-12 58l37 10c36 9.33301 69.167 17.333 99.5 24s59.833 10 88.5 10
c27.333 0 52.666 -3.33301 75.999 -10s43.666 -17.334 60.999 -32.001s31 -33.5 41 -56.5s15 -50.5 15 -82.5v-290l65 -40zM434.003 246.005h-172c-46.667 0 -82.834 -7.83301 -108.501 -23.5s-38.5 -42.167 -38.5 -79.5c0 -32 10.333 -55.833 31 -71.5
s50.667 -23.5 90 -23.5c16.667 0 36.834 1.83301 60.501 5.5s48.167 8.5 73.5 14.5l64 14v164zM236.003 716.005c0 -15.333 -4 -27.333 -12 -36s-18.667 -13 -32 -13s-24 4.33301 -32 13s-12 20.667 -12 36s4 27.5 12 36.5s18.667 13.5 32 13.5s24 -4.5 32 -13.5
s12 -21.167 12 -36.5zM462.003 716.005c0 -15.333 -4 -27.333 -12 -36s-19 -13 -33 -13c-13.333 0 -24 4.33301 -32 13s-12 20.667 -12 36s4 27.5 12 36.5s18.667 13.5 32 13.5c14 0 25 -4.5 33 -13.5s12 -21.167 12 -36.5z" />
    <glyph glyph-name="aring" unicode="&#xe5;" horiz-adv-x="589" 
d="M535 -8l-44.9971 27.0049c-10.667 5.33301 -21.5 9.16602 -32.5 11.499s-24.167 1.5 -39.5 -2.5l-41 -11c-24.667 -6.66699 -50.5 -12.334 -77.5 -17.001s-51.167 -7 -72.5 -7c-55.333 0 -98.166 13 -128.499 39s-45.5 62.333 -45.5 109c0 30 5.66699 55.167 17 75.5
s26.666 36.666 45.999 48.999s41.666 21.166 66.999 26.499s52 8 80 8h171v69c0 44 -12.167 75.333 -36.5 94s-56.833 28 -97.5 28c-25.333 0 -52.5 -3 -81.5 -9s-59.5 -13.667 -91.5 -23l-39 -11l-12 58l37 10c36 9.33301 69.167 17.333 99.5 24s59.833 10 88.5 10
c27.333 0 52.666 -3.33301 75.999 -10s43.666 -17.334 60.999 -32.001s31 -33.5 41 -56.5s15 -50.5 15 -82.5v-290l65 -40zM434.003 246.005h-172c-46.667 0 -82.834 -7.83301 -108.501 -23.5s-38.5 -42.167 -38.5 -79.5c0 -32 10.333 -55.833 31 -71.5
s50.667 -23.5 90 -23.5c16.667 0 36.834 1.83301 60.501 5.5s48.167 8.5 73.5 14.5l64 14v164zM293.003 596.005c-29.333 0 -54.001 9.33301 -74.001 28s-30 43 -30 73s9.83301 54.167 29.5 72.5s44.5 27.5 74.5 27.5s55 -9.16699 75 -27.5s30 -42.5 30 -72.5
s-10.167 -54.333 -30.5 -73s-45.166 -28 -74.499 -28zM293.002 755.005c-18 0 -32.332 -5.66699 -42.999 -17s-16 -25 -16 -41c0 -17.333 5.5 -31.5 16.5 -42.5s25.167 -16.5 42.5 -16.5c18 0 32.5 5.5 43.5 16.5s16.5 25.167 16.5 42.5c0 16 -5.33301 29.667 -16 41
s-25.334 17 -44.001 17z" />
    <glyph glyph-name="ae" unicode="&#xe6;" horiz-adv-x="960" 
d="M689 -6c-24 0 -47.4941 2.33594 -70.4941 7.00293s-46.167 13.667 -69.5 27c-10.667 5.33301 -22 8.83301 -34 10.5s-25.667 0.833984 -41 -2.49902l-95 -22c-25.333 -5.33301 -51.5 -10.166 -78.5 -14.499s-52.167 -6.5 -75.5 -6.5c-55.333 0 -98.166 13 -128.499 39
s-45.5 62 -45.5 108c0 30 5.66699 55.333 17 76s26.666 37.167 45.999 49.5s41.666 21.166 66.999 26.499s52 8 80 8h172v67c0 44.667 -12.167 76.5 -36.5 95.5s-56.5 28.5 -96.5 28.5c-25.333 0 -52.5 -3 -81.5 -9s-59.5 -13.667 -91.5 -23l-39 -11l-12 58l37 10
c36 9.33301 69.167 17.333 99.5 24s59.833 10 88.5 10c40.667 0 77.167 -8.33301 109.5 -25s55.166 -43.667 68.499 -81c21.333 37.333 49.166 64.666 83.499 81.999s71.5 26 111.5 26c35.333 0 67.666 -5.5 96.999 -16.5s54.5 -27.5 75.5 -49.5s37.333 -49.833 49 -83.5
s17.5 -73.167 17.5 -118.5c0 -26.667 -12.333 -40 -37 -40h-379c1.33301 -32.667 7.16602 -60.834 17.499 -84.501s24.166 -43.334 41.499 -59.001s37.5 -27.334 60.5 -35.001s47.833 -11.5 74.5 -11.5c22 0 44.167 2 66.5 6s50.833 11.333 85.5 22l49 16l12 -57l-47 -16
c-17.333 -6 -33.333 -11 -48 -15s-28.5 -7.16699 -41.5 -9.5s-25.833 -4 -38.5 -5s-26 -1.5 -40 -1.5zM235.006 48.0029c16.667 0 37.168 1.83398 61.501 5.50098s49.166 8.16699 74.499 13.5l109 25c-13.333 20.667 -24 43.667 -32 69s-12.667 53.666 -14 84.999h-174
c-46.667 0 -82.667 -7.83301 -108 -23.5s-38 -42.167 -38 -79.5c0 -32 10.5 -55.833 31.5 -71.5s50.833 -23.5 89.5 -23.5zM848.007 300.004c0 28 -3.33203 53.999 -9.99902 77.999s-17.167 45 -31.5 63s-32.5 32 -54.5 42s-48.333 15 -79 15
c-52.667 0 -94.334 -17.667 -125.001 -53s-47.667 -83.666 -51 -144.999h351z" />
    <glyph glyph-name="ccedilla" unicode="&#xe7;" horiz-adv-x="515" 
d="M52 272c0 45.333 5.83203 85.333 17.499 120s28 63.667 49 87s46.167 40.833 75.5 52.5s61.666 17.5 96.999 17.5c19.333 0 41.5 -2.33301 66.5 -7s53.5 -11.334 85.5 -20.001l39 -10l-12 -59l-39 10c-30.667 8 -57.167 14.5 -79.5 19.5s-41.5 7.5 -57.5 7.5
c-58.667 0 -102.834 -18 -132.501 -54s-44.5 -90.667 -44.5 -164c0 -74 15 -128.833 45 -164.5s74.333 -53.5 133 -53.5c16.667 0 35.834 2.16699 57.501 6.5s47.834 10.833 78.501 19.5l39 10l12 -58l-39 -11c-64 -18 -114.667 -27 -152 -27
c-35.333 0 -67.666 5.33301 -96.999 16s-54.5 27.334 -75.5 50.001s-37.333 51.5 -49 86.5s-17.5 76.833 -17.5 125.5zM375.999 -117c0 -22 -8.33301 -40.666 -25 -55.999s-40.667 -23 -72 -23c-13.333 0 -26.333 1.33301 -39 4s-28 8 -46 16l12 39
c28 -10.667 52 -16 72 -16c14.667 0 26.667 2.66699 36 8s14 14 14 26c0 15.333 -8.16699 25.166 -24.5 29.499s-38.5 5.5 -66.5 3.5l-3 5l41 81h37l-25 -52c25.333 0 46.5 -5.33301 63.5 -16s25.5 -27 25.5 -49z" />
    <glyph glyph-name="egrave" unicode="&#xe8;" horiz-adv-x="580" 
d="M468 300c0 28 -3.33398 53.999 -10.001 77.999s-17.167 45 -31.5 63s-32.666 32 -54.999 42s-48.833 15 -79.5 15c-52 0 -93.333 -17.667 -124 -53s-47.667 -83.666 -51 -144.999h351zM307.999 -6.00098c-38 0 -72.665 5.66895 -103.998 17.002
s-58.166 28.5 -80.499 51.5s-39.833 51.833 -52.5 86.5s-19 75.334 -19 122.001c0 48.667 6.5 90.667 19.5 126s30.667 64.5 53 87.5s48 40 77 51s59.5 16.5 91.5 16.5c35.333 0 67.666 -5.5 96.999 -16.5s54.5 -27.5 75.5 -49.5s37.333 -49.833 49 -83.5
s17.5 -73.167 17.5 -118.5c0 -26.667 -12 -40 -36 -40h-379c1.33301 -32.667 7.16602 -60.834 17.499 -84.501s24.166 -43.334 41.499 -59.001s37.5 -27.334 60.5 -35.001s47.833 -11.5 74.5 -11.5c21.333 0 43.333 2 66 6s51 11.333 85 22l49 16l13 -57l-48 -16
c-34.667 -11.333 -64.5 -19.333 -89.5 -24s-51.167 -7 -78.5 -7zM181.001 763.001l94 -0.000976562l81 -79c7.33301 -7.33301 11 -15.666 11 -24.999c0 -6.66699 -2.5 -13 -7.5 -19s-12.167 -9 -21.5 -9c-8.66699 0 -17 4 -25 12z" />
    <glyph glyph-name="eacute" unicode="&#xe9;" horiz-adv-x="580" 
d="M468 300c0 28 -3.33398 53.999 -10.001 77.999s-17.167 45 -31.5 63s-32.666 32 -54.999 42s-48.833 15 -79.5 15c-52 0 -93.333 -17.667 -124 -53s-47.667 -83.666 -51 -144.999h351zM307.999 -6.00098c-38 0 -72.665 5.66895 -103.998 17.002
s-58.166 28.5 -80.499 51.5s-39.833 51.833 -52.5 86.5s-19 75.334 -19 122.001c0 48.667 6.5 90.667 19.5 126s30.667 64.5 53 87.5s48 40 77 51s59.5 16.5 91.5 16.5c35.333 0 67.666 -5.5 96.999 -16.5s54.5 -27.5 75.5 -49.5s37.333 -49.833 49 -83.5
s17.5 -73.167 17.5 -118.5c0 -26.667 -12 -40 -36 -40h-379c1.33301 -32.667 7.16602 -60.834 17.499 -84.501s24.166 -43.334 41.499 -59.001s37.5 -27.334 60.5 -35.001s47.833 -11.5 74.5 -11.5c21.333 0 43.333 2 66 6s51 11.333 85 22l49 16l13 -57l-48 -16
c-34.667 -11.333 -64.5 -19.333 -89.5 -24s-51.167 -7 -78.5 -7zM305.001 643.001c-8 -8 -16.333 -11.999 -25 -11.999c-9.33301 0 -16.5 3 -21.5 9s-7.5 12.333 -7.5 19c0 9.33301 3.66699 17.666 11 24.999l81 79h94z" />
    <glyph glyph-name="ecircumflex" unicode="&#xea;" horiz-adv-x="580" 
d="M468 300c0 28 -3.33398 53.999 -10.001 77.999s-17.167 45 -31.5 63s-32.666 32 -54.999 42s-48.833 15 -79.5 15c-52 0 -93.333 -17.667 -124 -53s-47.667 -83.666 -51 -144.999h351zM307.999 -6.00098c-38 0 -72.665 5.66895 -103.998 17.002
s-58.166 28.5 -80.499 51.5s-39.833 51.833 -52.5 86.5s-19 75.334 -19 122.001c0 48.667 6.5 90.667 19.5 126s30.667 64.5 53 87.5s48 40 77 51s59.5 16.5 91.5 16.5c35.333 0 67.666 -5.5 96.999 -16.5s54.5 -27.5 75.5 -49.5s37.333 -49.833 49 -83.5
s17.5 -73.167 17.5 -118.5c0 -26.667 -12 -40 -36 -40h-379c1.33301 -32.667 7.16602 -60.834 17.499 -84.501s24.166 -43.334 41.499 -59.001s37.5 -27.334 60.5 -35.001s47.833 -11.5 74.5 -11.5c21.333 0 43.333 2 66 6s51 11.333 85 22l49 16l13 -57l-48 -16
c-34.667 -11.333 -64.5 -19.333 -89.5 -24s-51.167 -7 -78.5 -7zM296.001 765.001c16.667 0 30.332 -6.00098 40.999 -18.001l126 -124h-89l-78 90l-78 -90h-88l125 124c4.66699 4.66699 10.334 8.83398 17.001 12.501s14.667 5.5 24 5.5z" />
    <glyph glyph-name="edieresis" unicode="&#xeb;" horiz-adv-x="580" 
d="M468 300c0 28 -3.33398 53.999 -10.001 77.999s-17.167 45 -31.5 63s-32.666 32 -54.999 42s-48.833 15 -79.5 15c-52 0 -93.333 -17.667 -124 -53s-47.667 -83.666 -51 -144.999h351zM307.999 -6.00098c-38 0 -72.665 5.66895 -103.998 17.002
s-58.166 28.5 -80.499 51.5s-39.833 51.833 -52.5 86.5s-19 75.334 -19 122.001c0 48.667 6.5 90.667 19.5 126s30.667 64.5 53 87.5s48 40 77 51s59.5 16.5 91.5 16.5c35.333 0 67.666 -5.5 96.999 -16.5s54.5 -27.5 75.5 -49.5s37.333 -49.833 49 -83.5
s17.5 -73.167 17.5 -118.5c0 -26.667 -12 -40 -36 -40h-379c1.33301 -32.667 7.16602 -60.834 17.499 -84.501s24.166 -43.334 41.499 -59.001s37.5 -27.334 60.5 -35.001s47.833 -11.5 74.5 -11.5c21.333 0 43.333 2 66 6s51 11.333 85 22l49 16l13 -57l-48 -16
c-34.667 -11.333 -64.5 -19.333 -89.5 -24s-51.167 -7 -78.5 -7zM228.001 716.001c0 -15.333 -4 -27.333 -12 -36s-18.667 -13 -32 -13s-24 4.33301 -32 13s-12 20.667 -12 36s4 27.5 12 36.5s18.667 13.5 32 13.5s24 -4.5 32 -13.5s12 -21.167 12 -36.5zM454.001 716.001
c0 -15.333 -4 -27.333 -12 -36s-19 -13 -33 -13c-13.333 0 -24 4.33301 -32 13s-12 20.667 -12 36s4 27.5 12 36.5s18.667 13.5 32 13.5c14 0 25 -4.5 33 -13.5s12 -21.167 12 -36.5z" />
    <glyph glyph-name="igrave" unicode="&#xec;" horiz-adv-x="233" 
d="M85 0v544h64v-544h-64zM-9 763l94 -0.000976562l81 -79c7.33301 -7.33301 11 -15.666 11 -24.999c0 -6.66699 -2.5 -13 -7.5 -19s-12.167 -9 -21.5 -9c-8.66699 0 -17 4 -25 12z" />
    <glyph glyph-name="iacute" unicode="&#xed;" horiz-adv-x="233" 
d="M85 0v544h64v-544h-64zM112 643c-8 -8 -16.333 -11.999 -25 -11.999c-9.33301 0 -16.5 3 -21.5 9s-7.5 12.333 -7.5 19c0 9.33301 3.66699 17.666 11 24.999l81 79h94z" />
    <glyph glyph-name="icircumflex" unicode="&#xee;" horiz-adv-x="233" 
d="M85 0v544h64v-544h-64zM119 765c16.667 0 30.332 -6.00098 40.999 -18.001l126 -124h-89l-78 90l-78 -90h-88l125 124c4.66699 4.66699 10.334 8.83398 17.001 12.501s14.667 5.5 24 5.5z" />
    <glyph glyph-name="idieresis" unicode="&#xef;" horiz-adv-x="233" 
d="M85 0v544h64v-544h-64zM51 716c0 -15.333 -4 -27.333 -12 -36s-18.667 -13 -32 -13s-24 4.33301 -32 13s-12 20.667 -12 36s4 27.5 12 36.5s18.667 13.5 32 13.5s24 -4.5 32 -13.5s12 -21.167 12 -36.5zM277 716c0 -15.333 -4 -27.333 -12 -36s-19 -13 -33 -13
c-13.333 0 -24 4.33301 -32 13s-12 20.667 -12 36s4 27.5 12 36.5s18.667 13.5 32 13.5c14 0 25 -4.5 33 -13.5s12 -21.167 12 -36.5z" />
    <glyph glyph-name="eth" unicode="&#xf0;" horiz-adv-x="614" 
d="M312 458c-35.333 0 -65.001 -5 -89.001 -15s-43.333 -24 -58 -42s-25 -39 -31 -63s-9 -50 -9 -78c0 -31.333 3.83301 -59.666 11.5 -84.999s19.167 -47.166 34.5 -65.499s34.333 -32.5 57 -42.5s49 -15 79 -15c31.333 0 58.333 4.66699 81 14
s41.334 22.666 56.001 39.999s25.5 38.166 32.5 62.499s10.5 51.5 10.5 81.5v177c-45.333 12.667 -81.333 21 -108 25s-49 6 -67 6zM306.999 517c10 0 20.3301 -0.499023 30.9971 -1.49902s23 -2.66699 37 -5s30 -5.83301 48 -10.5l64 -17v48
c0 23.333 -2.5 43.666 -7.5 60.999s-12.5 34 -22.5 50l-146 -81v61l112 60c-27.333 17.333 -62.333 26 -105 26h-64v55h63c70.667 0 124 -16 160 -48l85 49v-62l-51 -28c12 -20 21.167 -41.333 27.5 -64s9.5 -49 9.5 -79v-284c0 -36.667 -5.16699 -70.5 -15.5 -101.5
s-25.666 -57.667 -45.999 -80s-45.666 -39.833 -75.999 -52.5s-65.5 -19 -105.5 -19s-75.167 7 -105.5 21s-55.5 33 -75.5 57s-35.167 52.167 -45.5 84.5s-15.5 66.833 -15.5 103.5c0 34 4.66699 66.5 14 97.5s23.833 58.333 43.5 82s44.834 42.5 75.501 56.5
s67.667 21 111 21z" />
    <glyph glyph-name="ntilde" unicode="&#xf1;" horiz-adv-x="575" 
d="M139 0l-62 -0.00292969v458c0 19.333 4.33301 33.833 13 43.5s21.667 16.834 39 21.501c44 11.333 79.333 18.333 106 21s48.667 4 66 4c35.333 0 65.666 -5 90.999 -15s46 -23.833 62 -41.5s27.667 -38.334 35 -62.001s11 -49.5 11 -77.5v-352h-61v346
c0 20.667 -2.5 39.834 -7.5 57.501s-13.167 32.834 -24.5 45.501s-26.166 22.5 -44.499 29.5s-41.166 10.5 -68.499 10.5c-8.66699 0 -17.667 -0.166992 -27 -0.5s-20 -1.33301 -32 -3s-25.833 -4.16699 -41.5 -7.5s-33.834 -7.66602 -54.501 -12.999v-465zM256 683.997
c-15.333 11.333 -30.667 16.999 -46 16.999c-13.333 0 -26.166 -4.16699 -38.499 -12.5s-24.166 -26.166 -35.499 -53.499l-46 26c13.333 35.333 31.666 60.666 54.999 75.999s45.666 23 66.999 23c13.333 0 25.833 -1.83301 37.5 -5.5s23.167 -9.83398 34.5 -18.501l48 -35
c15.333 -10.667 30.333 -16 45 -16c13.333 0 26 4.33301 38 13s23.667 26.334 35 53.001l47 -25c-13.333 -35.333 -31.5 -60.833 -54.5 -76.5s-45.167 -23.5 -66.5 -23.5c-13.333 0 -26 1.83301 -38 5.5s-23.667 9.83398 -35 18.501z" />
    <glyph glyph-name="ograve" unicode="&#xf2;" horiz-adv-x="604" 
d="M552 272c0 -44.667 -6 -84.334 -18 -119.001s-28.833 -63.667 -50.5 -87s-48 -41.166 -79 -53.499s-65.5 -18.5 -103.5 -18.5s-72.5 6.16699 -103.5 18.5s-57.167 30.5 -78.5 54.5s-37.833 53.167 -49.5 87.5s-17.5 73.5 -17.5 117.5c0 44.667 6 84.167 18 118.5
s29 63.333 51 87s48.5 41.667 79.5 54s65.5 18.5 103.5 18.5s72.333 -6.16699 103 -18.5s56.667 -30.333 78 -54s37.833 -52.667 49.5 -87s17.5 -73.833 17.5 -118.5zM489 272c0 70.667 -16.333 125.5 -49 164.5s-79 58.5 -139 58.5s-105.667 -19.5 -137 -58.5
s-47 -93.833 -47 -164.5c0 -72 16 -127.333 48 -166s78.333 -58 139 -58c60 0 105.833 19.333 137.5 58s47.5 94 47.5 166zM200 763l94 -0.000976562l81 -79c7.33301 -7.33301 11 -15.666 11 -24.999c0 -6.66699 -2.5 -13 -7.5 -19s-12.167 -9 -21.5 -9
c-8.66699 0 -17 4 -25 12z" />
    <glyph glyph-name="oacute" unicode="&#xf3;" horiz-adv-x="604" 
d="M552 272c0 -44.667 -6 -84.334 -18 -119.001s-28.833 -63.667 -50.5 -87s-48 -41.166 -79 -53.499s-65.5 -18.5 -103.5 -18.5s-72.5 6.16699 -103.5 18.5s-57.167 30.5 -78.5 54.5s-37.833 53.167 -49.5 87.5s-17.5 73.5 -17.5 117.5c0 44.667 6 84.167 18 118.5
s29 63.333 51 87s48.5 41.667 79.5 54s65.5 18.5 103.5 18.5s72.333 -6.16699 103 -18.5s56.667 -30.333 78 -54s37.833 -52.667 49.5 -87s17.5 -73.833 17.5 -118.5zM489 272c0 70.667 -16.333 125.5 -49 164.5s-79 58.5 -139 58.5s-105.667 -19.5 -137 -58.5
s-47 -93.833 -47 -164.5c0 -72 16 -127.333 48 -166s78.333 -58 139 -58c60 0 105.833 19.333 137.5 58s47.5 94 47.5 166zM286 643c-8 -8 -16.333 -11.999 -25 -11.999c-9.33301 0 -16.5 3 -21.5 9s-7.5 12.333 -7.5 19c0 9.33301 3.66699 17.666 11 24.999l81 79h94z" />
    <glyph glyph-name="ocircumflex" unicode="&#xf4;" horiz-adv-x="604" 
d="M552 272c0 -44.667 -6 -84.334 -18 -119.001s-28.833 -63.667 -50.5 -87s-48 -41.166 -79 -53.499s-65.5 -18.5 -103.5 -18.5s-72.5 6.16699 -103.5 18.5s-57.167 30.5 -78.5 54.5s-37.833 53.167 -49.5 87.5s-17.5 73.5 -17.5 117.5c0 44.667 6 84.167 18 118.5
s29 63.333 51 87s48.5 41.667 79.5 54s65.5 18.5 103.5 18.5s72.333 -6.16699 103 -18.5s56.667 -30.333 78 -54s37.833 -52.667 49.5 -87s17.5 -73.833 17.5 -118.5zM489 272c0 70.667 -16.333 125.5 -49 164.5s-79 58.5 -139 58.5s-105.667 -19.5 -137 -58.5
s-47 -93.833 -47 -164.5c0 -72 16 -127.333 48 -166s78.333 -58 139 -58c60 0 105.833 19.333 137.5 58s47.5 94 47.5 166zM305 765c16.667 0 30.332 -6.00098 40.999 -18.001l126 -124h-89l-78 90l-78 -90h-88l125 124c4.66699 4.66699 10.334 8.83398 17.001 12.501
s14.667 5.5 24 5.5z" />
    <glyph glyph-name="otilde" unicode="&#xf5;" horiz-adv-x="604" 
d="M552 272c0 -44.667 -6 -84.334 -18 -119.001s-28.833 -63.667 -50.5 -87s-48 -41.166 -79 -53.499s-65.5 -18.5 -103.5 -18.5s-72.5 6.16699 -103.5 18.5s-57.167 30.5 -78.5 54.5s-37.833 53.167 -49.5 87.5s-17.5 73.5 -17.5 117.5c0 44.667 6 84.167 18 118.5
s29 63.333 51 87s48.5 41.667 79.5 54s65.5 18.5 103.5 18.5s72.333 -6.16699 103 -18.5s56.667 -30.333 78 -54s37.833 -52.667 49.5 -87s17.5 -73.833 17.5 -118.5zM489 272c0 70.667 -16.333 125.5 -49 164.5s-79 58.5 -139 58.5s-105.667 -19.5 -137 -58.5
s-47 -93.833 -47 -164.5c0 -72 16 -127.333 48 -166s78.333 -58 139 -58c60 0 105.833 19.333 137.5 58s47.5 94 47.5 166zM270 684c-15.333 11.333 -30.667 16.999 -46 16.999c-13.333 0 -26.166 -4.16699 -38.499 -12.5s-24.166 -26.166 -35.499 -53.499l-46 26
c13.333 35.333 31.666 60.666 54.999 75.999s45.666 23 66.999 23c13.333 0 25.833 -1.83301 37.5 -5.5s23.167 -9.83398 34.5 -18.501l48 -35c15.333 -10.667 30.333 -16 45 -16c13.333 0 26 4.33301 38 13s23.667 26.334 35 53.001l47 -25
c-13.333 -35.333 -31.5 -60.833 -54.5 -76.5s-45.167 -23.5 -66.5 -23.5c-13.333 0 -26 1.83301 -38 5.5s-23.667 9.83398 -35 18.501z" />
    <glyph glyph-name="odieresis" unicode="&#xf6;" horiz-adv-x="604" 
d="M552 272c0 -44.667 -6 -84.334 -18 -119.001s-28.833 -63.667 -50.5 -87s-48 -41.166 -79 -53.499s-65.5 -18.5 -103.5 -18.5s-72.5 6.16699 -103.5 18.5s-57.167 30.5 -78.5 54.5s-37.833 53.167 -49.5 87.5s-17.5 73.5 -17.5 117.5c0 44.667 6 84.167 18 118.5
s29 63.333 51 87s48.5 41.667 79.5 54s65.5 18.5 103.5 18.5s72.333 -6.16699 103 -18.5s56.667 -30.333 78 -54s37.833 -52.667 49.5 -87s17.5 -73.833 17.5 -118.5zM489 272c0 70.667 -16.333 125.5 -49 164.5s-79 58.5 -139 58.5s-105.667 -19.5 -137 -58.5
s-47 -93.833 -47 -164.5c0 -72 16 -127.333 48 -166s78.333 -58 139 -58c60 0 105.833 19.333 137.5 58s47.5 94 47.5 166zM238 716c0 -15.333 -4 -27.333 -12 -36s-18.667 -13 -32 -13s-24 4.33301 -32 13s-12 20.667 -12 36s4 27.5 12 36.5s18.667 13.5 32 13.5
s24 -4.5 32 -13.5s12 -21.167 12 -36.5zM464 716c0 -15.333 -4 -27.333 -12 -36s-19 -13 -33 -13c-13.333 0 -24 4.33301 -32 13s-12 20.667 -12 36s4 27.5 12 36.5s18.667 13.5 32 13.5c14 0 25 -4.5 33 -13.5s12 -21.167 12 -36.5z" />
    <glyph glyph-name="divide" unicode="&#xf7;" 
d="M333 500c0 -14.667 -4 -26.667 -12 -36s-18.667 -14 -32 -14c-14 0 -24.833 4.66699 -32.5 14s-11.5 21.333 -11.5 36s3.83301 26.5 11.5 35.5s18.5 13.5 32.5 13.5c13.333 0 24 -4.5 32 -13.5s12 -20.833 12 -35.5zM59 264v62h462v-62h-462zM333 88
c0 -14.667 -4 -26.667 -12 -36s-18.667 -14 -32 -14c-14 0 -24.833 4.66699 -32.5 14s-11.5 21.333 -11.5 36s3.83301 26.5 11.5 35.5s18.5 13.5 32.5 13.5c13.333 0 24 -4.5 32 -13.5s12 -20.833 12 -35.5z" />
    <glyph glyph-name="oslash" unicode="&#xf8;" horiz-adv-x="604" 
d="M552 272c0 -44.667 -6.00098 -84.334 -18.001 -119.001s-28.833 -63.667 -50.5 -87s-48 -41.166 -79 -53.499s-65.5 -18.5 -103.5 -18.5c-38.667 0 -73 6 -103 18l-34 -64h-55l46 87c-33.333 22.667 -58.833 53.834 -76.5 93.501s-26.5 87.5 -26.5 143.5
c0 44.667 6 84.167 18 118.5s29 63.333 51 87s48.5 41.667 79.5 54s65.5 18.5 103.5 18.5c40.667 0 77.667 -7.33301 111 -22l32 62h54l-45 -87c30.667 -22.667 54.334 -53.334 71.001 -92.001s25 -85 25 -139zM116.999 272c0 -85.333 22 -147 66 -185l205 390
c-26.667 12.667 -55.667 19 -87 19c-60 0 -105.667 -19.667 -137 -59s-47 -94.333 -47 -165zM488.999 272c0 39.333 -5.33398 74 -16.001 104s-26 54.667 -46 74l-203 -387c22.667 -10 49.334 -15 80.001 -15c60 0 105.833 19.333 137.5 58s47.5 94 47.5 166z" />
    <glyph glyph-name="ugrave" unicode="&#xf9;" horiz-adv-x="577" 
d="M438 544l62.002 0.00195312v-459c0 -18.667 -4.33301 -32.834 -13 -42.501s-21.667 -16.834 -39 -21.501c-44 -11.333 -79.333 -18.333 -106 -21s-48.667 -4 -66 -4c-35.333 0 -65.666 5 -90.999 15s-46 23.667 -62 41s-27.667 38 -35 62s-11 49.667 -11 77v353h61v-347
c0 -20.667 2.5 -39.667 7.5 -57s13.167 -32.333 24.5 -45s26.166 -22.5 44.499 -29.5s41.166 -10.5 68.499 -10.5c8.66699 0 17.667 0.166992 27 0.5s20 1.33301 32 3s25.667 4 41 7s33.666 7.16699 54.999 12.5v466zM172.002 763.002l94 -0.000976562l81 -79
c7.33301 -7.33301 11 -15.666 11 -24.999c0 -6.66699 -2.5 -13 -7.5 -19s-12.167 -9 -21.5 -9c-8.66699 0 -17 4 -25 12z" />
    <glyph glyph-name="uacute" unicode="&#xfa;" horiz-adv-x="577" 
d="M438 544l62.002 0.00195312v-459c0 -18.667 -4.33301 -32.834 -13 -42.501s-21.667 -16.834 -39 -21.501c-44 -11.333 -79.333 -18.333 -106 -21s-48.667 -4 -66 -4c-35.333 0 -65.666 5 -90.999 15s-46 23.667 -62 41s-27.667 38 -35 62s-11 49.667 -11 77v353h61v-347
c0 -20.667 2.5 -39.667 7.5 -57s13.167 -32.333 24.5 -45s26.166 -22.5 44.499 -29.5s41.166 -10.5 68.499 -10.5c8.66699 0 17.667 0.166992 27 0.5s20 1.33301 32 3s25.667 4 41 7s33.666 7.16699 54.999 12.5v466zM281.002 643.002c-8 -8 -16.333 -11.999 -25 -11.999
c-9.33301 0 -16.5 3 -21.5 9s-7.5 12.333 -7.5 19c0 9.33301 3.66699 17.666 11 24.999l81 79h94z" />
    <glyph glyph-name="ucircumflex" unicode="&#xfb;" horiz-adv-x="577" 
d="M438 544l62.002 0.00195312v-459c0 -18.667 -4.33301 -32.834 -13 -42.501s-21.667 -16.834 -39 -21.501c-44 -11.333 -79.333 -18.333 -106 -21s-48.667 -4 -66 -4c-35.333 0 -65.666 5 -90.999 15s-46 23.667 -62 41s-27.667 38 -35 62s-11 49.667 -11 77v353h61v-347
c0 -20.667 2.5 -39.667 7.5 -57s13.167 -32.333 24.5 -45s26.166 -22.5 44.499 -29.5s41.166 -10.5 68.499 -10.5c8.66699 0 17.667 0.166992 27 0.5s20 1.33301 32 3s25.667 4 41 7s33.666 7.16699 54.999 12.5v466zM290.002 765.002
c16.667 0 30.332 -6.00098 40.999 -18.001l126 -124h-89l-78 90l-78 -90h-88l125 124c4.66699 4.66699 10.334 8.83398 17.001 12.501s14.667 5.5 24 5.5z" />
    <glyph glyph-name="udieresis" unicode="&#xfc;" horiz-adv-x="577" 
d="M438 544l62.002 0.00195312v-459c0 -18.667 -4.33301 -32.834 -13 -42.501s-21.667 -16.834 -39 -21.501c-44 -11.333 -79.333 -18.333 -106 -21s-48.667 -4 -66 -4c-35.333 0 -65.666 5 -90.999 15s-46 23.667 -62 41s-27.667 38 -35 62s-11 49.667 -11 77v353h61v-347
c0 -20.667 2.5 -39.667 7.5 -57s13.167 -32.333 24.5 -45s26.166 -22.5 44.499 -29.5s41.166 -10.5 68.499 -10.5c8.66699 0 17.667 0.166992 27 0.5s20 1.33301 32 3s25.667 4 41 7s33.666 7.16699 54.999 12.5v466zM222.002 716.002c0 -15.333 -4 -27.333 -12 -36
s-18.667 -13 -32 -13s-24 4.33301 -32 13s-12 20.667 -12 36s4 27.5 12 36.5s18.667 13.5 32 13.5s24 -4.5 32 -13.5s12 -21.167 12 -36.5zM448.002 716.002c0 -15.333 -4 -27.333 -12 -36s-19 -13 -33 -13c-13.333 0 -24 4.33301 -32 13s-12 20.667 -12 36s4 27.5 12 36.5
s18.667 13.5 32 13.5c14 0 25 -4.5 33 -13.5s12 -21.167 12 -36.5z" />
    <glyph glyph-name="yacute" unicode="&#xfd;" horiz-adv-x="526" 
d="M152 -182c-12.667 0 -27.168 1.16699 -43.501 3.5s-35.833 6.83301 -58.5 13.5l10 58c22.667 -5.33301 41.167 -9.5 55.5 -12.5s26.833 -4.5 37.5 -4.5c26.667 0 45.834 6.33301 57.501 19s20.5 29.667 26.5 51l9 29l-219 569h71l182 -491l155 491h68l-206 -617
c-24 -72.667 -72.333 -109 -145 -109zM276.999 643c-8 -8 -16.333 -11.999 -25 -11.999c-9.33301 0 -16.5 3 -21.5 9s-7.5 12.333 -7.5 19c0 9.33301 3.66699 17.666 11 24.999l81 79h94z" />
    <glyph glyph-name="thorn" unicode="&#xfe;" horiz-adv-x="588" 
d="M476 273c0 32 -3.16504 61.167 -9.49805 87.5s-16.833 49 -31.5 68s-33.5 33.833 -56.5 44.5s-50.833 16 -83.5 16c-8 0 -16.667 -0.333008 -26 -1s-20 -2 -32 -4s-26 -4.66699 -42 -8s-35.333 -8 -58 -14v-378c22.667 -6 42.167 -10.833 58.5 -14.5
s30.666 -6.5 42.999 -8.5s23 -3.5 32 -4.5s17.5 -1.5 25.5 -1.5c32.667 0 60.5 5.33301 83.5 16s41.667 25.5 56 44.5s24.666 42 30.999 69s9.5 56.5 9.5 88.5zM137.002 770l0.000976562 -252.001c43.333 12.667 77.833 20.834 103.5 24.501s46.167 5.5 61.5 5.5
c78 0 137 -23.667 177 -71s60 -115.333 60 -204s-20.833 -157 -62.5 -205s-100.834 -72 -177.501 -72c-17.333 0 -37.833 2 -61.5 6s-57.167 13 -100.5 27v-202l-60 -13v943z" />
    <glyph glyph-name="ydieresis" unicode="&#xff;" horiz-adv-x="526" 
d="M152 -182c-12.667 0 -27.168 1.16699 -43.501 3.5s-35.833 6.83301 -58.5 13.5l10 58c22.667 -5.33301 41.167 -9.5 55.5 -12.5s26.833 -4.5 37.5 -4.5c26.667 0 45.834 6.33301 57.501 19s20.5 29.667 26.5 51l9 29l-219 569h71l182 -491l155 491h68l-206 -617
c-24 -72.667 -72.333 -109 -145 -109zM204.999 716c0 -15.333 -4 -27.333 -12 -36s-18.667 -13 -32 -13s-24 4.33301 -32 13s-12 20.667 -12 36s4 27.5 12 36.5s18.667 13.5 32 13.5s24 -4.5 32 -13.5s12 -21.167 12 -36.5zM430.999 716c0 -15.333 -4 -27.333 -12 -36
s-19 -13 -33 -13c-13.333 0 -24 4.33301 -32 13s-12 20.667 -12 36s4 27.5 12 36.5s18.667 13.5 32 13.5c14 0 25 -4.5 33 -13.5s12 -21.167 12 -36.5z" />
    <glyph glyph-name="dotlessi" unicode="&#x131;" horiz-adv-x="233" 
d="M85 0v544h64v-544h-64z" />
    <glyph glyph-name="Lslash" unicode="&#x141;" horiz-adv-x="567" 
d="M149 414v-354.999h373v-59h-374c-20.667 0 -36.5 5.16699 -47.5 15.5s-16.5 25.166 -16.5 44.499v322l-70 -33v63l70 34v298h65v-267l168 82v-64z" />
    <glyph glyph-name="lslash" unicode="&#x142;" horiz-adv-x="231" 
d="M86 0v407l-68 -43v68l68 43v281l63 14v-253l67 43v-69l-67 -44v-447h-63z" />
    <glyph glyph-name="OE" unicode="&#x152;" horiz-adv-x="1095" 
d="M385 0c-48 0 -92.334 8.16602 -133.001 24.499s-75.5 40.333 -104.5 72s-51.667 70.334 -68 116.001s-24.5 98.167 -24.5 157.5c0 58.667 7.83301 111.167 23.5 157.5s37.834 85.5 66.501 117.5s63.167 56.5 103.5 73.5s84.833 25.5 133.5 25.5h655v-59h-400v-276h353
v-57h-353v-294h403v-58h-655zM120.999 369.999c0 -99.333 23.167 -176.167 69.5 -230.5s112.166 -81.5 197.499 -81.5h184v628h-177c-43.333 0 -82 -7.5 -116 -22.5s-62.667 -36.167 -86 -63.5s-41.166 -60.5 -53.499 -99.5s-18.5 -82.5 -18.5 -130.5z" />
    <glyph glyph-name="oe" unicode="&#x153;" horiz-adv-x="1017" 
d="M745 -6c-53.333 0 -99.3291 11.0029 -137.996 33.0029s-67.667 55.667 -87 101c-19.333 -44 -47.666 -77.333 -84.999 -100s-82 -34 -134 -34c-38 0 -72.5 6.16699 -103.5 18.5s-57.167 30.5 -78.5 54.5s-37.833 53.167 -49.5 87.5s-17.5 73.5 -17.5 117.5
c0 44.667 6 84.167 18 118.5s29 63.333 51 87s48.5 41.667 79.5 54s65.5 18.5 103.5 18.5c52 0 96.5 -11.333 133.5 -34s64.833 -56 83.5 -100c19.333 46.667 47.666 81 84.999 103s78.666 33 123.999 33c35.333 0 67.666 -5.5 96.999 -16.5s54.5 -27.5 75.5 -49.5
s37.333 -49.833 49 -83.5s17.5 -73.167 17.5 -118.5c0 -26.667 -12 -40 -36 -40h-379c1.33301 -32.667 7.16602 -60.834 17.499 -84.501s24.166 -43.334 41.499 -59.001s37.5 -27.334 60.5 -35.001s47.833 -11.5 74.5 -11.5c21.333 0 43.333 2 66 6s51 11.333 85 22l49 16
l13 -57l-48 -16c-34.667 -11.333 -64.5 -19.333 -89.5 -24s-51.167 -7 -78.5 -7zM489.004 272.003c0 70.667 -16.333 125.5 -49 164.5s-79 58.5 -139 58.5s-105.667 -19.5 -137 -58.5s-47 -93.833 -47 -164.5c0 -72 16 -127.333 48 -166s78.333 -58 139 -58
c60 0 105.833 19.333 137.5 58s47.5 94 47.5 166zM905.004 300.003c0 28 -3.33398 53.999 -10.001 77.999s-17.167 45 -31.5 63s-32.666 32 -54.999 42s-48.833 15 -79.5 15c-52 0 -93.333 -17.667 -124 -53s-47.667 -83.666 -51 -144.999h351z" />
    <glyph glyph-name="Scaron" unicode="&#x160;" horiz-adv-x="629" 
d="M395 386c55.333 -12.667 98.5 -34.333 129.5 -65s46.5 -73 46.5 -127c0 -35.333 -6.33301 -65.666 -19 -90.999s-29.5 -46.166 -50.5 -62.499s-45 -28.5 -72 -36.5s-54.833 -12 -83.5 -12c-43.333 0 -83.5 3.83301 -120.5 11.5s-76.5 18.5 -118.5 32.5l-45 14l16 61
l44 -15c36 -12 73 -22.5 111 -31.5s75.333 -13.5 112 -13.5c20 0 39.667 2.66699 59 8s36.5 13.666 51.5 24.999s27.167 25.833 36.5 43.5s14 39.167 14 64.5c0 35.333 -9.5 63.666 -28.5 84.999s-50.5 36.666 -94.5 45.999l-143 33c-56.667 12.667 -100 34.667 -130 66
s-45 73 -45 125c0 34.667 6.33301 64.834 19 90.501s29.5 46.667 50.5 63s45 28.5 72 36.5s54.5 12 82.5 12c21.333 0 41.5 -1 60.5 -3s37.833 -5 56.5 -9s37.5 -8.66699 56.5 -14s39.167 -11.333 60.5 -18l44 -14l-15 -61l-45 15c-36 12 -71.667 22.333 -107 31
s-72 13 -110 13c-20.667 0 -40.667 -2.66699 -60 -8s-36.5 -13.5 -51.5 -24.5s-27 -25.5 -36 -43.5s-13.5 -39.333 -13.5 -64c0 -36 9.5 -64.333 28.5 -85s50.167 -35.667 93.5 -45zM324 794.001c-16 0 -29.667 5.66699 -41 17l-125 125h88l78 -91l79 91h87l-124 -125
c-5.33301 -4.66699 -11.333 -8.66699 -18 -12s-14.667 -5 -24 -5z" />
    <glyph glyph-name="scaron" unicode="&#x161;" horiz-adv-x="537" 
d="M335 291c44.667 -7.33301 79.501 -23.4971 104.501 -48.4971s37.5 -56.5 37.5 -94.5c0 -26.667 -5 -49.834 -15 -69.501s-23.5 -35.834 -40.5 -48.501s-36.5 -22 -58.5 -28s-45 -9 -69 -9c-36.667 0 -69.5 3 -98.5 9s-60.833 14 -95.5 24l-37 10l13 59l36 -11
c30 -8.66699 60 -16.167 90 -22.5s61 -9.5 93 -9.5c16.667 0 32.167 1.66699 46.5 5s27 8.83301 38 16.5s19.667 17.334 26 29.001s9.5 25.834 9.5 42.501c0 23.333 -7.33301 42.166 -22 56.499s-40.334 24.5 -77.001 30.5l-107 19c-44.667 8 -79.667 24 -105 48
s-38 55.667 -38 95c0 26.667 5 49.834 15 69.501s23.5 35.834 40.5 48.501s36.5 22.167 58.5 28.5s44.667 9.5 68 9.5c36.667 0 69.667 -2.83301 99 -8.5s61.333 -13.834 96 -24.501l36 -10l-12 -59l-37 10c-30 9.33301 -59.833 17.166 -89.5 23.499
s-60.834 9.5 -93.501 9.5c-16 0 -31.167 -1.83301 -45.5 -5.5s-27 -9.33398 -38 -17.001s-19.667 -17.334 -26 -29.001s-9.5 -25.834 -9.5 -42.501c0 -23.333 7.33301 -42.166 22 -56.499s40.334 -24.833 77.001 -31.5zM282.001 619.003c-16 0 -29.667 5.66699 -41 17
l-125 125h88l78 -91l79 91h87l-124 -125c-5.33301 -4.66699 -11.333 -8.66699 -18 -12s-14.667 -5 -24 -5z" />
    <glyph glyph-name="Ydieresis" unicode="&#x178;" horiz-adv-x="638" 
d="M357 323v-323h-66v321l-274 423h75l234 -363l227 363h73zM259 870c0 -15.333 -4 -27.333 -12 -36s-18.667 -13 -32 -13s-24 4.33301 -32 13s-12 20.667 -12 36s4 27.5 12 36.5s18.667 13.5 32 13.5s24 -4.5 32 -13.5s12 -21.167 12 -36.5zM485 870
c0 -15.333 -4 -27.333 -12 -36s-19 -13 -33 -13c-13.333 0 -24 4.33301 -32 13s-12 20.667 -12 36s4 27.5 12 36.5s18.667 13.5 32 13.5c14 0 25 -4.5 33 -13.5s12 -21.167 12 -36.5z" />
    <glyph glyph-name="Zcaron" unicode="&#x17d;" horiz-adv-x="633" 
d="M124 56l454 -0.000976562v-56h-479c-15.333 0 -26.5 4.33301 -33.5 13s-10.5 19.667 -10.5 33c0 8 1.16699 14.833 3.5 20.5s5.83301 11.834 10.5 18.501l437 602h-440v57h463c15.333 0 26.5 -4.33301 33.5 -13s10.5 -20 10.5 -34c0 -8 -1.16699 -14.833 -3.5 -20.5
s-5.83301 -11.5 -10.5 -17.5zM321 793.999c-16 0 -29.667 5.66699 -41 17l-125 125h88l78 -91l79 91h87l-124 -125c-5.33301 -4.66699 -11.333 -8.66699 -18 -12s-14.667 -5 -24 -5z" />
    <glyph glyph-name="zcaron" unicode="&#x17e;" horiz-adv-x="526" 
d="M440 544c14 0 24.333 -3.83301 31 -11.5s10 -17.834 10 -30.501c0 -14.667 -5.33301 -28 -16 -40l-341 -408h359v-54h-389c-14 0 -24.333 3.83301 -31 11.5s-10 17.834 -10 30.501c0 14.667 5.33301 28 16 40l341 408h-344v54h374zM281 619c-16 0 -29.667 5.66699 -41 17
l-125 125h88l78 -91l79 91h87l-124 -125c-5.33301 -4.66699 -11.333 -8.66699 -18 -12s-14.667 -5 -24 -5z" />
    <glyph glyph-name="florin" unicode="&#x192;" 
d="M284 -10c0 -54.667 -13.499 -96.834 -40.499 -126.501s-64.833 -44.5 -113.5 -44.5v55c34 0.666992 58 11.167 72 31.5s21 49.5 21 87.5v484h-89v57h89v60c0 56.667 13.5 99.334 40.5 128.001s64.833 43 113.5 43c12 0 26.333 -1.16699 43 -3.5
s37.667 -6.16602 63 -11.499l-9 -59c-23.333 5.33301 -42.833 9.16602 -58.5 11.499s-28.834 3.5 -39.501 3.5c-34 0 -57.833 -9.16699 -71.5 -27.5s-20.5 -47.833 -20.5 -88.5v-56h173v-57h-173v-487z" />
    <glyph glyph-name="circumflex" unicode="&#x2c6;" horiz-adv-x="523" 
d="M281 765c16.667 0 30.332 -6.00098 40.999 -18.001l126 -124h-89l-78 90l-78 -90h-88l125 124c4.66699 4.66699 10.334 8.83398 17.001 12.501s14.667 5.5 24 5.5z" />
    <glyph glyph-name="caron" unicode="&#x2c7;" horiz-adv-x="523" 
d="M281 619c-16 0 -29.667 5.66699 -41 17l-125 125h88l78 -91l79 91h87l-124 -125c-5.33301 -4.66699 -11.333 -8.66699 -18 -12s-14.667 -5 -24 -5z" />
    <glyph glyph-name="breve" unicode="&#x2d8;" horiz-adv-x="523" 
d="M277 618c-22.667 0 -43.998 3.33301 -63.998 10s-37.333 16.167 -52 28.5s-26.334 27.333 -35.001 45s-13 37.167 -13 58.5h60c0 -27.333 9.83301 -48.5 29.5 -63.5s44.5 -22.5 74.5 -22.5c30.667 0 55.667 7.5 75 22.5s29 36.167 29 63.5h60
c0 -21.333 -4.33301 -40.833 -13 -58.5s-20.334 -32.667 -35.001 -45s-32 -21.833 -52 -28.5s-41.333 -10 -64 -10z" />
    <glyph glyph-name="dotaccent" unicode="&#x2d9;" horiz-adv-x="523" 
d="M310 716c0 -15.333 -4 -27.333 -12 -36s-19 -13 -33 -13c-13.333 0 -24 4.33301 -32 13s-12 20.667 -12 36s4 27.5 12 36.5s18.667 13.5 32 13.5c14 0 25 -4.5 33 -13.5s12 -21.167 12 -36.5z" />
    <glyph glyph-name="ring" unicode="&#x2da;" horiz-adv-x="523" 
d="M277 596c-29.333 0 -54.001 9.33301 -74.001 28s-30 43 -30 73s9.83301 54.167 29.5 72.5s44.5 27.5 74.5 27.5s55 -9.16699 75 -27.5s30 -42.5 30 -72.5s-10.167 -54.333 -30.5 -73s-45.166 -28 -74.499 -28zM276.999 755c-18 0 -32.332 -5.66699 -42.999 -17
s-16 -25 -16 -41c0 -17.333 5.5 -31.5 16.5 -42.5s25.167 -16.5 42.5 -16.5c18 0 32.5 5.5 43.5 16.5s16.5 25.167 16.5 42.5c0 16 -5.33301 29.667 -16 41s-25.334 17 -44.001 17z" />
    <glyph glyph-name="ogonek" unicode="&#x2db;" horiz-adv-x="531" 
d="M384 -147c-22 -8.66699 -41.168 -14.5 -57.501 -17.5s-31.833 -4.5 -46.5 -4.5c-34 0 -62 7 -84 21s-33 34.333 -33 61c0 20.667 5.33301 38.167 16 52.5s23 25.833 37 34.5l49 5l3 -5c-15.333 -9.33301 -27.166 -20.166 -35.499 -32.499s-12.5 -25.5 -12.5 -39.5
c0 -16.667 5.5 -28.834 16.5 -36.501s26.5 -11.5 46.5 -11.5c14.667 0 28.667 1.33301 42 4s29.333 7.66699 48 15l11 -46v0z" />
    <glyph glyph-name="tilde" unicode="&#x2dc;" horiz-adv-x="523" 
d="M230 684c-15.333 11.333 -30.667 16.999 -46 16.999c-13.333 0 -26.166 -4.16699 -38.499 -12.5s-24.166 -26.166 -35.499 -53.499l-46 26c13.333 35.333 31.666 60.666 54.999 75.999s45.666 23 66.999 23c13.333 0 25.833 -1.83301 37.5 -5.5
s23.167 -9.83398 34.5 -18.501l48 -35c15.333 -10.667 30.333 -16 45 -16c13.333 0 26 4.33301 38 13s23.667 26.334 35 53.001l47 -25c-13.333 -35.333 -31.5 -60.833 -54.5 -76.5s-45.167 -23.5 -66.5 -23.5c-13.333 0 -26 1.83301 -38 5.5s-23.667 9.83398 -35 18.501z
" />
    <glyph glyph-name="hungarumlaut" unicode="&#x2dd;" horiz-adv-x="523" 
d="M137 635c-4 -4 -8.5 -6.99902 -13.5 -8.99902s-9.16699 -3 -12.5 -3c-9.33301 0 -16.5 3.16699 -21.5 9.5s-7.5 13.166 -7.5 20.499c0 8 4 16.667 12 26l78 84h96zM327 628.001c-4 -4 -8.5 -6.99902 -13.5 -8.99902s-9.16699 -3 -12.5 -3
c-9.33301 0 -16.5 3.16699 -21.5 9.5s-7.5 13.166 -7.5 20.499c0 8 4 16.667 12 26l83 91h95z" />
    <glyph glyph-name="pi" unicode="&#x3c0;" horiz-adv-x="685" 
d="M188 489v-489h-62v489h-89v55h621v-55h-187v-320c0 -41.333 6.83301 -71.166 20.5 -89.499s37.5 -27.5 71.5 -27.5c10.667 0 23.334 1.16699 38.001 3.5s34 6.16602 58 11.499l10 -58c-50 -10 -86.333 -15 -109 -15c-50.667 0 -88.334 14.5 -113.001 43.5
s-37 71.167 -37 126.5v325h-222z" />
    <glyph glyph-name="endash" unicode="&#x2013;" 
d="M60 295v63h461v-63h-461z" />
    <glyph glyph-name="emdash" unicode="&#x2014;" horiz-adv-x="985" 
d="M57 295v62h871v-62h-871z" />
    <glyph glyph-name="quoteleft" unicode="&#x2018;" horiz-adv-x="205" 
d="M90 735c6 18.667 17.333 28 34 28c13.333 0 22.5 -4.33301 27.5 -13s5.83301 -19 2.5 -31l-39 -151h-71z" />
    <glyph glyph-name="quoteright" unicode="&#x2019;" horiz-adv-x="205" 
d="M114 595c-5.33301 -18 -16.334 -27 -33.001 -27c-13.333 0 -22.666 4.33301 -27.999 13s-6.33301 19 -3 31l40 151h70z" />
    <glyph glyph-name="quotesinglbase" unicode="&#x201a;" horiz-adv-x="205" 
d="M114 -64c-5.33301 -18 -16.334 -27 -33.001 -27c-13.333 0 -22.666 4.33301 -27.999 13s-6.33301 19 -3 31l40 151h70z" />
    <glyph glyph-name="quotedblleft" unicode="&#x201c;" horiz-adv-x="377" 
d="M266 735c5.33301 18.667 16.334 28 33.001 28c13.333 0 22.666 -4.33301 27.999 -13s6.33301 -19 3 -31l-40 -151h-70zM90.001 735c6 18.667 17.333 28 34 28c13.333 0 22.5 -4.33301 27.5 -13s5.83301 -19 2.5 -31l-39 -151h-71z" />
    <glyph glyph-name="quotedblright" unicode="&#x201d;" horiz-adv-x="377" 
d="M114 595c-5.33301 -18 -16.334 -27 -33.001 -27c-13.333 0 -22.666 4.33301 -27.999 13s-6.33301 19 -3 31l40 151h70zM289.999 595c-6 -18 -17.333 -27 -34 -27c-13.333 0 -22.5 4.33301 -27.5 13s-5.83301 19 -2.5 31l39 151h71z" />
    <glyph glyph-name="quotedblbase" unicode="&#x201e;" horiz-adv-x="377" 
d="M114 -64c-5.33301 -18 -16.334 -27 -33.001 -27c-13.333 0 -22.666 4.33301 -27.999 13s-6.33301 19 -3 31l40 151h70zM289.999 -64c-6 -18 -17.333 -27 -34 -27c-13.333 0 -22.5 4.33301 -27.5 13s-5.83301 19 -2.5 31l39 151h71z" />
    <glyph glyph-name="dagger" unicode="&#x2020;" horiz-adv-x="542" 
d="M296 440l18 -626h-79l18 626l-207 -16v78l207 -15l-18 257h79l-16 -257l203 15v-78z" />
    <glyph glyph-name="daggerdbl" unicode="&#x2021;" horiz-adv-x="542" 
d="M257 439l-211 -16v79l207 -15l-18 257h79l-16 -257l203 15v-79l-208 16l23 -160l-23 -159l208 15v-78l-203 15l16 -258h-79l18 258l-207 -15v78l211 -15l-23 158z" />
    <glyph glyph-name="bullet" unicode="&#x2022;" horiz-adv-x="426" 
d="M334 333c0 -40.667 -10.333 -72.167 -31 -94.5s-49 -33.5 -85 -33.5s-64.167 11.167 -84.5 33.5s-30.5 53.833 -30.5 94.5c0 40 10.167 71.167 30.5 93.5s48.5 33.5 84.5 33.5s64.333 -11.167 85 -33.5s31 -53.5 31 -93.5z" />
    <glyph glyph-name="ellipsis" unicode="&#x2026;" horiz-adv-x="615" 
d="M149 40c0 -15.333 -4 -27.333 -12 -36s-18.667 -13 -32 -13s-24 4.33301 -32 13s-12 20.667 -12 36s4 27.5 12 36.5s18.667 13.5 32 13.5s24 -4.5 32 -13.5s12 -21.167 12 -36.5zM354 40c0 -15.333 -4 -27.333 -12 -36s-18.667 -13 -32 -13s-24 4.33301 -32 13
s-12 20.667 -12 36s4 27.5 12 36.5s18.667 13.5 32 13.5s24 -4.5 32 -13.5s12 -21.167 12 -36.5zM559 40c0 -15.333 -4 -27.333 -12 -36s-18.667 -13 -32 -13s-24 4.33301 -32 13s-12 20.667 -12 36s4 27.5 12 36.5s18.667 13.5 32 13.5s24 -4.5 32 -13.5
s12 -21.167 12 -36.5z" />
    <glyph glyph-name="perthousand" unicode="&#x2030;" horiz-adv-x="1318" 
d="M408 566c0 -61.333 -16.832 -109.168 -50.499 -143.501s-78.834 -51.5 -135.501 -51.5c-57.333 0 -102 17.333 -134 52s-48 82.334 -48 143.001s16.5 108.167 49.5 142.5s77.833 51.5 134.5 51.5c58 0 103.167 -17.167 135.5 -51.5s48.5 -81.833 48.5 -142.5z
M350.001 565.998c0 46 -11.001 81.332 -33.001 105.999s-53.667 37 -95 37s-72.333 -12.5 -93 -37.5s-31 -60.167 -31 -105.5c0 -46 10.833 -81.5 32.5 -106.5s52.834 -37.5 93.501 -37.5c42 0 73.5 12.333 94.5 37s31.5 60.334 31.5 107.001zM185 -0.00292969h-71l595 744
h71zM862 179.997c0 -61.333 -16.832 -109.168 -50.499 -143.501s-78.834 -51.5 -135.501 -51.5c-57.333 0 -102 17.333 -134 52s-48 82.334 -48 143.001s16.5 108.167 49.5 142.5s77.833 51.5 134.5 51.5c58 0 103.167 -17.167 135.5 -51.5s48.5 -81.833 48.5 -142.5z
M804.001 179.995c0 46 -11.001 81.332 -33.001 105.999s-53.667 37 -95 37s-72.333 -12.5 -93 -37.5s-31 -60.167 -31 -105.5c0 -46 10.833 -81.5 32.5 -106.5s52.834 -37.5 93.501 -37.5c42 0 73.5 12.333 94.5 37s31.5 60.334 31.5 107.001zM1282 179.994
c0 -61.333 -16.832 -109.168 -50.499 -143.501s-78.834 -51.5 -135.501 -51.5c-57.333 0 -102 17.333 -134 52s-48 82.334 -48 143.001s16.5 108.167 49.5 142.5s77.833 51.5 134.5 51.5c58 0 103.167 -17.167 135.5 -51.5s48.5 -81.833 48.5 -142.5zM1224 179.992
c0 46 -11.001 81.332 -33.001 105.999s-53.667 37 -95 37s-72.333 -12.5 -93 -37.5s-31 -60.167 -31 -105.5c0 -46 10.833 -81.5 32.5 -106.5s52.834 -37.5 93.501 -37.5c42 0 73.5 12.333 94.5 37s31.5 60.334 31.5 107.001z" />
    <glyph glyph-name="guilsinglleft" unicode="&#x2039;" horiz-adv-x="342" 
d="M49 280c0 8 1.83301 15.667 5.5 23s8.5 14 14.5 20l151 146h78l-191 -189l194 -187h-80l-152 145c-13.333 13.333 -20 27.333 -20 42z" />
    <glyph glyph-name="guilsinglright" unicode="&#x203a;" horiz-adv-x="342" 
d="M292 280c0 -14.667 -6.66699 -28.667 -20 -42l-152 -145h-80l195 187l-192 189h79l151 -146c12.667 -12.667 19 -27 19 -43z" />
    <glyph glyph-name="fraction" unicode="&#x2044;" horiz-adv-x="887" 
d="M185 0h-71l595 744h71z" />
    <glyph glyph-name="Euro" unicode="&#x20ac;" 
d="M176 276c0 -78 15.833 -134.668 47.5 -170.001s76.834 -53 135.501 -53c17.333 0 37 2.33301 59 7s48.667 11 80 19l38 11l12 -60l-39 -11c-64 -18 -114.667 -27 -152 -27c-36 0 -69.167 5.83301 -99.5 17.5s-56.5 29.334 -78.5 53.001s-39.167 53.334 -51.5 89.001
s-18.5 77.167 -18.5 124.5h-76v57h76v80h-76v56h76c0 46.667 6.16699 87.667 18.5 123s29.5 64.833 51.5 88.5s48.167 41.5 78.5 53.5s63.5 18 99.5 18c19.333 0 41.5 -2.33301 66.5 -7s53.5 -11.334 85.5 -20.001l39 -10l-12 -61l-38 11
c-31.333 9.33301 -58 15.833 -80 19.5s-41.667 5.5 -59 5.5c-58.667 0 -103.834 -17.333 -135.501 -52s-47.5 -91 -47.5 -169h248v-56h-249v-80h249v-57h-248z" />
    <glyph glyph-name="trademark" unicode="&#x2122;" horiz-adv-x="856" 
d="M744 334l-0.000976562 321l-102 -301c-4 -13.333 -14.333 -20 -31 -20c-7.33301 0 -13.666 1.66699 -18.999 5s-9 8.33301 -11 15l-99 299v-319h-48v379c0 11.333 3.66699 20 11 26s15.666 9 24.999 9c22.667 0 36.667 -9 42 -27l101 -319l102 315
c4.66699 18.667 18.334 28 41.001 28c24.667 0 37 -10.667 37 -32v-379h-49zM234.999 696v-362h-55v362h-120v48h296v-48h-121z" />
    <glyph glyph-name="Omega" unicode="&#x2126;" horiz-adv-x="781" 
d="M727 432c0 -36 -5.66504 -70.166 -16.998 -102.499s-27 -61.5 -47 -87.5s-44.167 -48.333 -72.5 -67s-59.5 -32.667 -93.5 -42v-79h156v-54h-212v176c32 4.66699 61.5 14.167 88.5 28.5s50.333 32.5 70 54.5s35 47.667 46 77s16.5 61.333 16.5 96
c0 38 -6.83301 73 -20.5 105s-32.5 59.333 -56.5 82s-52.5 40.334 -85.5 53.001s-68.833 19 -107.5 19c-39.333 0 -75.5 -6 -108.5 -18s-61.333 -29.333 -85 -52s-42.167 -49.834 -55.5 -81.501s-20 -67.5 -20 -107.5c0 -36 5.33301 -68.667 16 -98
s25.5 -54.666 44.5 -75.999s41.833 -38.833 68.5 -52.5s56 -23.167 88 -28.5v-177h-212v54h156v79c-33.333 9.33301 -63.833 23 -91.5 41s-51.5 39.667 -71.5 65s-35.5 54.166 -46.5 86.499s-16.5 67.833 -16.5 106.5c0 47.333 8.66699 90.333 26 129
s41.166 71.834 71.499 99.501s66.166 49 107.499 64s85.666 22.5 132.999 22.5c46.667 0 90.334 -7.66699 131.001 -23s75.667 -36.833 105 -64.5s52.5 -60.834 69.5 -99.501s25.5 -81.334 25.5 -128.001z" />
    <glyph glyph-name="partialdiff" unicode="&#x2202;" 
d="M459 516c0 55.333 -12.8301 98.166 -38.4971 128.499s-66.834 45.5 -123.501 45.5c-26.667 0 -55.334 -3.33301 -86.001 -10s-62 -14.667 -94 -24l-38 -10l-12 59l38 11c36 10.667 69.833 19 101.5 25s62.5 9 92.5 9c35.333 0 66.666 -5.66699 93.999 -17
s50.5 -27.166 69.5 -47.499s33.5 -45 43.5 -74s15 -60.833 15 -95.5v-275c0 -36.667 -5.33301 -70.167 -16 -100.5s-26.167 -56.333 -46.5 -78s-45.166 -38.5 -74.499 -50.5s-62.666 -18 -99.999 -18c-38 0 -71.5 6 -100.5 18s-53.333 28.833 -73 50.5
s-34.334 47.167 -44.001 76.5s-14.5 61.333 -14.5 96c0 74.667 20.167 132.5 60.5 173.5s99.833 61.5 178.5 61.5c16 0 37.167 -2.16699 63.5 -6.5s61.166 -13.833 104.499 -28.5v81zM459.003 380l-60.001 15.001c-16.667 4 -31.167 7.16699 -43.5 9.5
s-23.166 3.83301 -32.499 4.5s-18 1 -26 1c-34 0 -62.667 -4.16699 -86 -12.5s-42 -20.333 -56 -36s-24.167 -34.167 -30.5 -55.5s-9.5 -45 -9.5 -71c0 -54.667 14.333 -98.834 43 -132.501s70.667 -50.5 126 -50.5c58 0 101.667 17.167 131 51.5s44 81.5 44 141.5v135z" />
    <glyph glyph-name="Delta" unicode="&#x2206;" horiz-adv-x="639" 
d="M19 0l258 715c8 23.333 24.333 35 49 35c25.333 0 42 -11.667 50 -35l254 -715h-611zM541 55l-217 620l-217 -620h434z" />
    <glyph glyph-name="product" unicode="&#x220f;" horiz-adv-x="654" 
d="M506 686v-686h-66v686h-217v-686h-66v686h-122v58h590v-58h-119z" />
    <glyph glyph-name="summation" unicode="&#x2211;" horiz-adv-x="674" 
d="M87 -179c-13.333 0 -24 3.83496 -32 11.502s-12 18.167 -12 31.5c0 7.33301 1.33301 14.666 4 21.999s6 13.666 10 18.999l274 377l-274 378c-4 6 -7.33301 12.5 -10 19.5s-4 14.167 -4 21.5c0 12.667 4 23 12 31s18.667 12 32 12h541v-159h-60v98h-449l291 -400
l-291 -401h459v109h60v-170h-551z" />
    <glyph glyph-name="minus" unicode="&#x2212;" 
d="M60 295v63h461v-63h-461z" />
    <glyph glyph-name="radical" unicode="&#x221a;" horiz-adv-x="631" 
d="M531 687l-193.999 -661c-6.66699 -24 -21.334 -36 -44.001 -36s-38 12 -46 36l-141 461h-96v57h149l134 -465l189 665h153v-57h-104z" />
    <glyph glyph-name="infinity" unicode="&#x221e;" horiz-adv-x="789" 
d="M757 297c0 -30 -4.00098 -58 -12.001 -84s-19.667 -48.333 -35 -67s-33.833 -33.334 -55.5 -44.001s-46.5 -16 -74.5 -16c-13.333 0 -28.666 1.33301 -45.999 4s-36 9 -56 19l-74 39l-76 -39c-20 -10 -38.667 -16.333 -56 -19s-32.666 -4 -45.999 -4
c-28 0 -53.167 5.33301 -75.5 16s-41 25.334 -56 44.001s-26.5 41 -34.5 67s-12 54 -12 84c0 30.667 4 59 12 85s19.5 48.333 34.5 67s33.5 33.167 55.5 43.5s47.333 15.5 76 15.5c13.333 0 28.833 -1.33301 46.5 -4s36.167 -9 55.5 -19l75 -40l75 40
c19.333 10 37.666 16.333 54.999 19s33 4 47 4c28.667 0 54 -5.16699 76 -15.5s40.5 -24.833 55.5 -43.5s26.333 -41 34 -67s11.5 -54.333 11.5 -85zM700.999 297c0 52.667 -11.333 91.667 -34 117s-51.667 38 -87 38c-12.667 0 -26.667 -1.5 -42 -4.5s-31 -8.5 -47 -16.5
l-61 -30v-211l61 -28c16 -7.33301 31.5 -12.5 46.5 -15.5s29.167 -4.5 42.5 -4.5c34 0 62.667 12.5 86 37.5s35 64.167 35 117.5zM375.999 401l-63.001 30.999c-15.333 7.33301 -30.666 12.5 -45.999 15.5s-29 4.5 -41 4.5c-35.333 0 -64.5 -12.5 -87.5 -37.5
s-34.5 -64.167 -34.5 -117.5s11.833 -92.666 35.5 -117.999s52.5 -38 86.5 -38c13.333 0 27 1.5 41 4.5s29.667 8.5 47 16.5l62 28v211z" />
    <glyph glyph-name="integral" unicode="&#x222b;" 
d="M280 -10c0 -54.667 -13.332 -96.834 -39.999 -126.501s-64.334 -44.5 -113.001 -44.5v55c34 0.666992 57.833 11.167 71.5 31.5s20.5 49.5 20.5 87.5v601c0 56.667 13.5 99.334 40.5 128.001s65.167 43 114.5 43c11.333 0 25.333 -1.16699 42 -3.5
s37.667 -6.16602 63 -11.499l-9 -59c-23.333 5.33301 -42.833 9.16602 -58.5 11.499s-28.5 3.5 -38.5 3.5c-34 0 -58 -9.16699 -72 -27.5s-21 -47.833 -21 -88.5v-600z" />
    <glyph glyph-name="approxequal" unicode="&#x2248;" 
d="M244 381c-18.667 13.333 -36.667 20 -54 20c-16.667 0 -32.667 -4.83301 -48 -14.5s-30.333 -31.167 -45 -64.5l-47 32c16.667 40 37.834 68.167 63.501 84.5s51.5 24.5 77.5 24.5c30.667 0 60 -10 88 -30l62 -44c19.333 -14 37.333 -21 54 -21c8 0 16 1 24 3
s15.833 6 23.5 12s15.167 14.167 22.5 24.5s14.666 23.833 21.999 40.5l47 -32c-16.667 -40 -37.667 -68.333 -63 -85s-51 -25 -77 -25c-30 0 -59.333 10.333 -88 31zM253 211c-8.66699 6 -17.499 10.832 -26.499 14.499s-18.167 5.5 -27.5 5.5
c-16.667 0 -32.667 -5 -48 -15s-30.333 -31.333 -45 -64l-47 32c16.667 40 37.667 68.167 63 84.5s51.333 24.5 78 24.5c14.667 0 29.5 -2.66699 44.5 -8s29.167 -12.666 42.5 -21.999l63 -44c19.333 -14 37.666 -21 54.999 -21c8 0 15.833 1 23.5 3s15.334 6 23.001 12
s15.167 14.167 22.5 24.5s14.666 23.833 21.999 40.5l47 -32c-16.667 -40.667 -37.5 -69.167 -62.5 -85.5s-50.5 -24.5 -76.5 -24.5c-30.667 0 -60 10 -88 30z" />
    <glyph glyph-name="notequal" unicode="&#x2260;" 
d="M268 183l-67 -142h-48l67 142h-161v62h189l49 108h-238v62h264l74 158h47l-73 -158h151v-62h-177l-49 -108h226v-62h-254z" />
    <glyph glyph-name="lessequal" unicode="&#x2264;" 
d="M82 275c-21.333 8 -32 23.667 -32 47c0 22 10.667 37 32 45l449 159v-71l-415 -135l415 -134v-68zM63 0v58h466v-58h-466z" />
    <glyph glyph-name="greaterequal" unicode="&#x2265;" 
d="M50 118v68l415 134l-415 135v71l449 -159c21.333 -8.66699 32 -23.667 32 -45c0 -23.333 -10.667 -39 -32 -47zM51 0v58h467v-58h-467z" />
    <glyph glyph-name="lozenge" unicode="&#x25ca;" horiz-adv-x="639" 
d="M372 12c-12 -17.333 -28.001 -26 -48.001 -26c-19.333 0 -34.666 8.66699 -45.999 26l-246 359l246 359c11.333 16.667 27.333 25 48 25c20 0 35.333 -8.33301 46 -25l244 -359zM326.999 697l-222 -326l222 -323l218 323z" />
    <glyph glyph-name=".null" horiz-adv-x="0" 
 />
    <glyph glyph-name="nonmarkingreturn" horiz-adv-x="255" 
 />
    </font>
</defs>
</svg>
