<?xml version="1.0" standalone="no"?>
<!DOCTYPE svg PUBLIC "-//W3C//DTD SVG 1.1//EN" "http://www.w3.org/Graphics/SVG/1.1/DTD/svg11.dtd" >
<svg xmlns="http://www.w3.org/2000/svg">
<metadata>Generated by IcoMoon</metadata>
<defs>
<font id="icomoon" horiz-adv-x="1024">
<font-face units-per-em="1024" ascent="960" descent="-64" />
<missing-glyph horiz-adv-x="1024" />
<glyph unicode="&#x20;" d="" horiz-adv-x="512" />
<glyph unicode="&#xe000;" d="M523.448 768.82c-116.92 0-211.64 24.268-211.64-92.59v-426.946c0-116.88 94.72-92.632 211.64-92.632 116.88 0 211.6-24.248 211.6 92.632v426.946c0 116.858-94.72 92.59-211.6 92.59zM461.026 296.816h-41.328v43.54h41.328v-43.54zM461.026 378.798h-41.328v43.52h41.328v-43.52zM461.026 462.746h-41.328v43.56h41.328v-43.56zM545.648 296.816h-41.328v43.54h41.328v-43.54zM545.648 378.798h-41.328v43.52h41.328v-43.52zM545.648 462.746h-41.328v43.56h41.328v-43.56zM627.61 296.816h-41.308v43.54h41.308v-43.54zM627.61 378.798h-41.308v43.52h41.308v-43.52zM627.61 462.746h-41.308v43.56h41.308v-43.56zM651.080 593.9h-251.884v83.948h251.884v-83.948z" />
<glyph unicode="&#xe001;" d="M520.473 935.792c-266.056 0-481.74-215.684-481.74-481.74s215.684-481.74 481.74-481.74 481.74 215.684 481.74 481.74-215.684 481.74-481.74 481.74zM520.473 37.674c-229.959 0-416.378 186.419-416.378 416.378s186.419 416.378 416.378 416.378c229.957 0 416.378-186.419 416.378-416.378s-186.421-416.378-416.378-416.378zM685.087 454.052c0-90.914-73.7-164.615-164.615-164.615s-164.615 73.7-164.615 164.615c0 90.914 73.7 164.615 164.615 164.615s164.615-73.7 164.615-164.615z" horiz-adv-x="1034" />
<glyph unicode="&#xe002;" d="M49.195 685.882h175.402c0 0 21.067-91.325 55.359-145.372 34.291-54.046 96.95-94.597 96.95-94.597v198.431c0 0 1.564 11.813-7.522 22.832-9.088 11.021-26.74 18.706-26.74 18.706h228.11v-239.969h36.914l152.308 239.969h212.318l-166.156-286.145 166.156-198.471h-235.387l-135.026 107.321-26.53 0.077-0.077-107.399h-179.924c0 0-72.816 40.944-194.579 184.575-120.032 141.589-151.574 300.042-151.574 300.042z" horiz-adv-x="1056" />
<glyph unicode="&#xe003;" d="M744.796 312.156c-11.55-14.808-28.958-32.912-44.482-25.886-35.164 15.994 9.83 132.588 44.79 143.912 19.292 6.226 31.928 0 38.256-11.51-5.038-38.808-18.494-74.956-38.564-106.516zM616.796 209.552c-2.13-1.414-3.686-2.682-4.71-3.788-27.688-9.974-57.57-15.422-88.678-15.422-35.328 0-69.018 7.024-99.778 19.702-35.184 23.736-19.19 44.482-1.74 74.63 17.592 30.372 98.324 20.788 98.324 20.788s81.286 9.606 98.836-20.788c17.592-30.354 33.996-51.162-2.254-75.122zM341.012 286.29c-8.028-3.666-16.61-0.492-24.596 5.428-29.266 37.58-48.538 83.292-53.76 133.242 7.086 7.25 18.248 10.26 33.67 5.264 34.938-11.368 79.912-127.94 44.686-143.934zM592.158 430.202c0-37.99-30.76-68.752-68.752-68.752-37.97 0-68.73 30.76-68.73 68.752 0 37.95 30.76 68.73 68.73 68.73 37.992 0.002 68.752-30.78 68.752-68.73zM523.408 714.752c112.006 0 207.544-70.226 245.104-169.062-0.39-14.008-4.178-30.086-18.76-34.366-62.342-24.002-114.422 27.586-229.54 29.184-115.098-1.598-166.666-53.186-229.008-29.184-10.384 3.052-15.216 12.062-17.224 22.078 34.060 105.246 132.834 181.35 249.428 181.35zM523.408 765.932c-173.056 0-313.364-140.308-313.364-313.364 0-173.036 140.308-313.364 313.364-313.364 173.076 0 313.384 140.328 313.384 313.364-0.020 173.056-140.308 313.364-313.384 313.364z" />
<glyph unicode="&#xe004;" d="M513.966 488.304c-55.848 0-101.048 45.24-101.048 101.028 0 55.768 45.2 101.048 101.048 101.048 55.746 0 101.008-45.282 101.008-101.048-0.022-55.788-45.282-101.028-101.008-101.028zM715.92 589.312c0 111.596-90.398 202.076-202.056 202.076-111.596 0-202.076-90.48-202.076-202.076 0-36.844 10.076-71.27 27.28-101.048h-0.246l175.042-353.608 175.124 353.608h-0.286c17.346 29.778 27.218 64.224 27.218 101.048z" />
<glyph unicode="&#xe005;" d="M403.17 787.046l53.288-145.448-31.294-20.008-64.43 157.246 42.436 8.21zM748.646 159.416l-151.020-41.39c-326.45 191.856-377.262 512.246-377.262 512.246l84.234 130.478 22.262 6.594 68.28-164.25-39.732-47.452 224.358-293.744 44.874 30.454 136.908-113.46-12.902-19.476zM787.006 205.086l-141.722 109.548 33.24 27.628 126.238-104.53-17.756-32.646z" />
<glyph unicode="&#xe006;" d="M173.139 532.714h677.723v-169.43h-677.723z" />
<glyph unicode="&#xe007;" d="M610.734 133.080l121.794 121.814-193.576 193.578 193.576 193.576-121.774 121.794-315.514-315.268z" />
<glyph unicode="&#xe008;" d="M209.798 442.060c3.952-53.166 47.842-95.15 102.010-95.15 20.46 0 39.424 6.124 55.44 16.446l230.4-115.2c3.932-53.126 47.82-95.192 101.97-95.192 56.77 0 102.79 46.040 102.79 102.81s-45.998 102.768-102.79 102.768c-20.44 0-39.404-6.144-55.398-16.446l-215.674 107.828 216.044 109.096c15.912-10.158 34.754-16.24 55.050-16.24 56.77 0 102.79 46.018 102.79 102.768s-45.998 102.768-102.79 102.768c-54.272 0-98.284-42.23-102.010-95.58l-230.748-116.51c-15.934 10.158-34.734 16.24-55.050 16.24-54.292 0-98.284-42.23-102.052-95.56l0.018-14.846z" />
<glyph unicode="&#xe009;" d="M697.754 626.668c-3.624 0-7.188 0-10.752-0.020-3.584 0.020-7.168 0.020-10.772 0.020-55.358 0-110.94-0.43-165.868-6.574-24.698-2.724-45.22-21.258-50.974-46.326-8.192-35.738-8.294-74.752-8.294-111.534 0-36.742 0-75.776 8.192-111.514 5.754-25.088 26.276-43.582 50.974-46.366 54.948-6.124 110.51-6.512 165.908-6.512h21.484c55.358 0 110.94 0.41 165.908 6.512 24.698 2.786 45.22 21.278 50.996 46.366 8.192 35.738 8.232 74.752 8.232 111.514 0 36.782 0.040 75.796-8.152 111.534-5.754 25.068-26.296 43.602-50.996 46.326-54.926 6.144-110.488 6.574-165.886 6.574zM696.442 360.182v211.17h28.488v-68.976c9.216 11.326 19.006 17.060 29.47 17.060 11.346 0 18.984-5.98 22.774-17.756 1.904-6.308 2.888-16.712 2.888-31.642v-62.628c0-14.54-0.984-25.048-2.888-31.704-3.81-11.694-11.448-17.654-22.774-17.654-10.138 0-19.968 5.592-29.47 17.388v-15.238h-28.488zM486.236 541.614v29.736h99.39v-29.736h-34.14v-181.432h-31.724v181.432h-33.526zM845.906 358.032c-14.91 0-26.256 5.346-34.508 16.118-6.042 7.844-9.154 20.234-9.154 36.966v55.112c0 16.794 2.764 29.122 8.806 37.048 8.254 10.792 19.6 16.138 34.14 16.138 14.316 0 25.662-5.346 33.67-16.138 5.96-7.926 8.806-20.254 8.806-37.048v-32.604h-56.996v-27.874c0-14.562 4.772-21.832 14.54-21.832 7.024 0 11.1 3.85 12.738 11.468 0.286 1.516 0.634 7.906 0.634 19.292h29.082v-4.158c0-9.176-0.348-15.524-0.614-18.35-0.942-6.348-3.154-12.042-6.656-17.080-7.906-11.448-19.6-17.058-34.488-17.058zM625.192 383.918c5.714 0 11.694 4.404 18.042 13.352v120.258h28.528v-157.348h-28.528l0.002 17.164c-11.386-13.004-22.098-19.292-32.604-19.292-9.154 0-15.504 3.706-18.35 11.674-1.556 4.752-2.498 12.288-2.498 23.408v124.416h28.468v-115.856c0-6.676 0-10.158 0.308-11.080 0.674-4.422 2.844-6.696 6.632-6.696zM276.602 384.204c-9.298 0-13.742 7.332-13.742 22.056v66.908c0 14.684 4.444 22.036 13.742 22.036 9.278 0 13.742-7.352 13.742-22.036v-66.908c0-14.724-4.464-22.056-13.742-22.056zM739.144 493.772c-4.69 0-9.442-2.232-14.214-6.922v-95.908c4.772-4.73 9.524-7.024 14.214-7.024 8.232 0 12.41 7.024 12.41 21.238v67.154c0 14.192-4.178 21.462-12.41 21.462zM844.944 493.772c-9.524 0-14.296-7.27-14.296-21.832v-14.562h28.528v14.562c-0.020 14.562-4.792 21.832-14.232 21.832zM425.698 519.208h-28.816v-121.528c-6.39-8.99-12.432-13.476-18.186-13.476-3.87 0-6.144 2.274-6.758 6.718-0.368 0.962-0.368 4.486-0.368 11.224v117.064h-28.692v-125.748c0-11.224 0.962-18.822 2.54-23.614 2.888-8.070 9.256-11.796 18.534-11.796 10.526 0 21.442 6.37 32.912 19.518v-17.368h28.816l-0.004 159.006zM276.602 521.114c-14.356 0-25.58-5.406-33.546-16.282-6.144-8.048-9.012-20.46-9.012-37.478v-55.664c0-16.876 2.888-29.45 9.012-37.356 7.966-10.874 19.19-16.282 33.546-16.282 14.438 0 25.64 5.406 33.608 16.282 6.042 7.926 8.97 20.48 8.97 37.356v55.664c0 17.018-2.928 29.43-8.97 37.478-7.966 10.874-19.168 16.282-33.608 16.282zM233.78 573.562h-32.298l-21.832-83.782-22.65 83.784-33.608-0.002c6.696-19.784 13.722-39.65 20.48-59.432 10.24-29.758 16.63-52.204 19.476-67.502v-86.426h31.99v86.426l38.442 126.934z" />
<glyph unicode="&#xe00a;" d="M512.472 569.734c0-10.036 1.168-19.866 3.318-29.224-106.64 5.346-201.176 56.442-264.5 134.082-11.060-18.984-17.388-41-17.388-64.532 0-44.524 22.692-83.804 57.118-106.804-21.054 0.656-40.838 6.41-58.122 16.056-0.020-0.552-0.020-1.106-0.020-1.618 0-62.178 44.236-114.054 102.932-125.87-10.752-2.928-22.098-4.486-33.792-4.486-8.294 0-16.302 0.798-24.146 2.294 16.322-50.974 63.692-88.104 119.87-89.15-43.91-34.406-99.246-54.928-159.396-54.928-10.362 0-20.562 0.614-30.618 1.802 56.812-36.434 124.252-57.672 196.752-57.672 236.032 0 365.118 195.564 365.118 365.138 0 5.592-0.102 11.1-0.39 16.63 25.108 18.084 46.818 40.674 64.040 66.416-23-10.2-47.738-17.1-73.708-20.214 26.48 15.892 46.838 41.042 56.442 71.004-24.842-14.684-52.286-25.396-81.49-31.13-23.43 24.944-56.77 40.51-93.656 40.51-70.878 0.022-128.364-57.424-128.364-128.304z" />
<glyph unicode="&#xe00b;" d="M432.66 550.38h129.904c-0.226-13.128 0.532-19.456 0.962-36.024 3.932 1.966 8.848 3.81 11.346 6.328 47.37 47.412 103.424 52.204 162.406 29.306 57.446-22.302 82.636-70.922 84.808-128.738 3.154-84.112 0.82-168.448 0.82-254.832h-130.294c0 52.696 0.040 105.37-0.020 158.044-0.020 20.44 0.574 40.96-0.512 61.4-2.396 44.892-26.584 72.090-62.526 71.66-36.72-0.43-67.092-31.15-68.26-73.196-1.556-57.304-0.492-114.668-0.552-171.97v-45.958h-128.040v383.98zM232.92 550.010h127.896v-383.692h-127.896zM223.272 672.010c0 40.652 32.932 73.606 73.606 73.606 40.632 0 73.584-32.952 73.584-73.606s-32.932-73.606-73.584-73.606c-40.652-0.020-73.606 32.954-73.606 73.606z" />
<glyph unicode="&#xe00c;" d="M410.522 503.378c-0.88 0-1.762 0.020-2.662 0.062-52.162 1.556-101.724 49.418-110.714 117.862-8.868 67.522 24.966 119.398 75.858 119.398 0.738 0 1.496-0.020 2.252-0.020 52.142-1.556 96.748-57.754 105.738-126.26 8.846-67.318-19.99-111.042-70.472-111.042zM447.528 355.206c42.188-29.328 76.226-47.656 84.766-81.080 1.598-6.758 2.478-13.762 2.478-20.89 0-2.622-0.102-5.222-0.246-7.782-3.298-55.296-42.7-97.464-147.088-97.464-77.702 0-133.816 49.152-133.816 108.258 0 15.728 4.834 30.864 13.476 44.544 22.876 36.27 72.294 62.464 128.102 62.464h1.966c18.106-0.186 35.024-3.136 50.362-8.050zM554.64 726.754l43.234 45.384h-193.516c-55.542 0-105.862-23.184-139.1-57.754-25.478-26.522-40.898-59.72-40.898-94.29 0-42.024 14.316-79.646 40.898-106.188 24.904-24.904 60.56-40.058 105.206-40.058 6.41 0 12.656 0.328 18.76 0.758-5.98-11.49-10.26-24.29-10.26-37.724 0-22.59 12.432-35.492 27.792-50.442-11.592 0-22.836-0.328-35.082-0.328-40.55 0-76.718-10.076-106.414-26.44-52.532-29-84.664-77.722-84.664-125.154 0-73.114 94.842-118.866 207.238-118.866 118.764 0 195.154 62.464 205.722 129.802 0.84 5.346 1.27 10.69 1.27 16.056 0 58.594-12.636 88.084-75.142 134.964-17.92 13.456-56.954 41.042-56.954 59.556 0 21.708 6.184 32.378 38.85 57.896 33.484 26.174 57.18 60.642 57.18 103.424 0 46.572-19.088 88.884-54.928 109.404h50.808zM836.588 629.33v44.626h-89.272v89.272h-44.646v-89.272h-89.252v-44.626h89.252v-89.272h44.646v89.272h89.272z" />
<glyph unicode="&#xe00d;" d="M313.922 634.818v-98.448h-84.624v-115.24h84.624v-311.152h121.876l0.002 311.152h119.644l5.448 115.24h-125.072v84.172c0 31.764 6.636 50.914 48.23 50.914 38.36 0 73.564-0.348 73.564-0.348l2.724 107.642c0 0-34.53 4.464-81.162 4.464-115.242 0.002-165.254-71.022-165.254-148.396z" />
<glyph unicode="&#xe00e;" d="M606.474 597.77v159.56h-336.814v-602.768h496.374v443.208zM763.904 633.222h-121.978v121.938z" />
<glyph unicode="&#xe00f;" d="M602.952 591.77v156.57h-330.568v-591.544h487.158v434.974h-156.59zM672.564 284.386h-313.16v23.224h313.16v-23.224zM672.564 362.66h-313.16v23.204h313.16v-23.204zM672.564 440.976h-313.16v23.184l313.16-0.002v-23.182zM672.564 519.25h-313.16v23.204h313.16v-23.204zM757.432 626.566h-119.664v119.664z" />
<glyph unicode="&#xe010;" d="M779.776 614.44l-101.888 103.67-161.936-164.74-161.914 164.74-101.908-103.67 161.956-164.74-161.956-164.802 101.888-103.63 161.934 164.762 161.936-164.762 101.888 103.63-161.936 164.802z" />
<glyph unicode="&#xe011;" d="M229.028 692.45c0 64.266 45.528 90.502 101.172 58.408l404.726-233.698c55.686-32.134 55.686-84.706 0-116.838l-404.726-233.656c-55.664-32.174-101.172-5.836-101.172 58.408v467.376z" />
<glyph unicode="&#xe012;" d="M829.256 545.342l-121.816 121.794-193.576-193.556-193.556 193.556-121.816-121.774 315.27-315.514z" />
<glyph unicode="&#xe013;" d="M417.014 763.842l-121.774-121.814 193.556-193.578-193.556-193.576 121.754-121.794 315.534 315.268z" />
<glyph unicode="&#xe014;" d="M198.492 351.622l121.836-121.774 193.556 193.556 193.578-193.556 121.794 121.752-315.248 315.536z" />
<glyph unicode="&#xe015;" d="M745.534 366.714l-95.704 2.682-5.53 5.038-92.958 97.362h-17.96v-219.074h85.012c3.298-26.152 25.396-46.47 52.45-46.47s49.132 20.296 52.45 46.47h22.242c34.878 0 63.14 19.948 63.57 54.6-0.78 32.564-11.042 51.958-63.572 59.392zM272.302 361.328v18.35c-33.69-1.576-60.58-29.224-60.58-63.324 0-34.078 26.89-61.706 60.58-63.284v108.258zM402.842 643.584c33.402 0 60.498 27.074 60.498 60.478s-27.096 60.498-60.498 60.498-60.478-27.096-60.478-60.498 27.096-60.478 60.478-60.478zM444.6 616.222h-83.476c-27.054 0-48.988-21.934-48.988-48.988v-379.802c0-17.694 14.356-32.052 32.052-32.052 17.736 0 32.092 14.356 32.092 32.052v173.876h52.736v-173.874c0-17.694 14.356-32.052 32.072-32.052 17.694 0 32.502 14.356 32.502 32.052v379.8c-0.002 27.054-21.936 48.988-48.99 48.988z" />
<glyph unicode="&#xe016;" d="M899.604 304.64c0-0.164-0.040-0.286-0.040-0.45 0.020-0.922 0.040-1.844 0.040-2.826v3.276zM844.062 384.102l-63.12 1.762-3.666 3.338-61.256 64.204h-140.104l-20.992-30.31 21.626-22.65 84.214-2.376 2.274-0.308c66.15-9.4 97.936-40.694 99.962-98.386 5.366-12.37 17.47-21.054 31.806-21.054 17.838 0 32.4 13.374 34.59 30.618h14.664c23 0 41.616 13.168 41.902 36.024-0.53 21.444-7.288 34.224-41.9 39.138zM209.306 351.866v66.908l-33.136-47.82c-35.942 0-65.086-29.164-65.086-65.126 0-35.942 29.144-65.086 65.086-65.086h15.974c1.658-13.128 7.946-24.72 17.162-33.24v144.364zM721.47 308.94c0 0.040-0.020 0.062-0.020 0.102-0.39 2.99-0.962 5.878-1.68 8.642-0.062 0.246-0.122 0.472-0.184 0.696-0.738 2.622-1.658 5.1-2.744 7.454-0.184 0.41-0.39 0.758-0.532 1.146-1.146 2.294-2.478 4.486-4.056 6.534-0.226 0.308-0.472 0.594-0.738 0.88-1.68 2.13-3.584 4.116-5.796 5.96-0.062 0.040-0.122 0.082-0.184 0.122-2.212 1.822-4.772 3.482-7.578 5.038-0.39 0.204-0.716 0.43-1.126 0.634-2.786 1.474-5.918 2.846-9.318 4.096-0.634 0.266-1.29 0.472-1.966 0.696-3.522 1.208-7.312 2.314-11.51 3.298-0.676 0.164-1.414 0.308-2.11 0.45-4.506 1.004-9.298 1.884-14.622 2.642l-97.936 2.764-5.632 5.182-25.722 26.932c-0.062 0-0.102 0-0.164 0l-51.794 53.964v-205.456h51.2c3.358-26.768 25.968-47.554 53.638-47.554s50.278 20.808 53.638 47.554h22.774c35.676 0 64.614 20.398 65.024 55.89-0.084 4.348-0.35 8.444-0.862 12.334zM722.35 296.612c0.020-1.454 0.062-2.868 0.062-4.362v5.1c0-0.268-0.062-0.472-0.062-0.738zM385.598 612.7h-85.422c-27.688 0-50.136-22.446-50.136-50.136v-388.608c0-18.146 14.704-32.83 32.83-32.83 18.146 0 32.83 14.684 32.83 32.83v177.91h53.964v-177.91c0-18.146 14.726-32.83 32.83-32.83 18.124 0 32.83 14.684 32.83 32.83v177.91h0.43v210.698c-0.042 27.69-22.468 50.136-50.156 50.136zM342.876 640.696c34.182 0 61.912 27.71 61.912 61.89s-27.73 61.89-61.912 61.89-61.87-27.71-61.87-61.89 27.69-61.89 61.87-61.89z" />
<glyph unicode="&#xe017;" d="M738.55 653.292h8.478c23.654-3.338 20.050-20.070 20.398-34.714-0.204-15.626-12.922-24.616-28.632-24.616h-10.036c-1.454-11.776-11.448-20.93-23.592-20.93-12.206 0-22.16 9.154-23.634 20.93h-100.312c-1.474-11.776-11.448-20.93-23.614-20.93-12.206 0-22.138 9.154-23.634 20.93h-7.024c-15.832 0-28.652 12.84-28.652 28.672s-4.382 99.45 11.468 99.45h189.46l39.326-68.792zM767.448 618.906c0-0.102-0.020-0.204-0.020-0.328 0-0.634 0.020-1.27 0.020-1.904v2.232zM738.55 433.992h8.478c23.654-3.338 20.050-20.050 20.398-34.714-0.204-15.626-12.922-24.596-28.632-24.596h-10.036c-1.454-11.796-11.448-20.93-23.592-20.93-12.206 0-22.16 9.134-23.634 20.93h-100.312c-1.474-11.796-11.448-20.93-23.614-20.93-12.206 0-22.138 9.134-23.634 20.93h-7.024c-15.832 0-28.652 12.84-28.652 28.652s-4.382 99.45 11.468 99.45h189.46l39.326-68.792zM767.448 399.606c0-0.122-0.020-0.204-0.020-0.328 0-0.634 0.020-1.27 0.020-1.926v2.254zM738.55 214.692h8.478c23.654-3.358 20.050-20.050 20.398-34.694-0.204-15.646-12.922-24.638-28.632-24.638h-10.036c-1.454-11.776-11.448-20.91-23.592-20.91-12.206 0-22.16 9.134-23.634 20.91h-100.312c-1.474-11.776-11.448-20.91-23.614-20.91-12.206 0-22.138 9.134-23.634 20.91h-7.024c-15.832 0-28.652 12.84-28.652 28.672 0 15.81-4.382 99.45 11.468 99.45h189.46l39.326-68.79zM767.448 180.306c0-0.102-0.020-0.204-0.020-0.308 0-0.656 0.020-1.27 0.020-1.926v2.234zM409.048 704.984c0-33.792-27.382-61.174-61.174-61.174-33.772 0-61.132 27.382-61.132 61.174 0 33.772 27.362 61.174 61.132 61.174 33.792-0.002 61.174-27.404 61.174-61.174zM439.624 566.6c0 27.362-22.18 49.542-49.542 49.542h-84.418c-27.362 0-49.542-22.18-49.542-49.542v-384.082c0-17.92 14.52-32.4 32.42-32.4 17.94 0 32.44 14.48 32.44 32.4v175.842h53.33v-175.842c0-17.92 14.5-32.4 32.42-32.4s32.87 14.48 32.87 32.4v175.842l0.002 208.24z" />
<glyph unicode="&#xe018;" d="M597.77 475.3h5.428c15.156-2.13 12.84-12.84 13.086-22.242-0.102-9.994-8.274-15.75-18.35-15.75h-6.41c-0.942-7.558-7.332-13.414-15.134-13.414s-14.172 5.858-15.134 13.414h-64.226c-0.962-7.558-7.332-13.414-15.134-13.414s-14.152 5.858-15.134 13.414h-4.506c-10.138 0-18.35 8.212-18.35 18.35s-2.826 63.692 7.312 63.692h121.324l25.228-44.050zM616.304 453.264c0-0.082-0.020-0.144-0.020-0.204 0.020-0.41 0.020-0.82 0.020-1.228v1.432zM597.77 334.848h5.428c15.156-2.13 12.84-12.84 13.086-22.242-0.102-9.994-8.274-15.75-18.35-15.75h-6.41c-0.942-7.536-7.332-13.414-15.134-13.414s-14.172 5.878-15.134 13.414h-64.226c-0.962-7.536-7.332-13.414-15.134-13.414s-14.152 5.878-15.134 13.414h-4.506c-10.138 0-18.35 8.212-18.35 18.35s-2.826 63.692 7.312 63.692h121.324l25.228-44.050zM616.304 312.812c0-0.082-0.020-0.144-0.020-0.204 0.020-0.43 0.020-0.82 0.020-1.228v1.432zM597.77 194.396h5.428c15.156-2.13 12.84-12.84 13.086-22.242-0.102-9.994-8.274-15.75-18.35-15.75h-6.41c-0.942-7.558-7.332-13.414-15.134-13.414s-14.172 5.858-15.134 13.414h-64.226c-0.962-7.558-7.332-13.414-15.134-13.414s-14.152 5.858-15.134 13.414h-4.506c-10.138 0-18.35 8.212-18.35 18.35 0 10.158-2.826 63.692 7.312 63.692h121.324l25.228-44.050zM616.304 172.38c0-0.062-0.020-0.144-0.020-0.226 0.020-0.41 0.020-0.798 0.020-1.228v1.454zM796.55 475.3h5.448c15.134-2.13 12.84-12.84 13.066-22.242-0.102-9.994-8.274-15.75-18.33-15.75h-6.43c-0.942-7.558-7.332-13.414-15.134-13.414s-14.152 5.858-15.134 13.414h-64.226c-0.962-7.558-7.312-13.414-15.134-13.414-7.802 0-14.152 5.858-15.114 13.414h-4.526c-10.118 0-18.35 8.212-18.35 18.35s-2.806 63.692 7.332 63.692h121.324l25.208-44.050zM815.064 453.264c0-0.082-0.020-0.144-0.020-0.204 0.020-0.41 0.020-0.82 0.020-1.228v1.432zM597.77 618.516h5.428c15.156-2.15 12.84-12.84 13.086-22.242-0.102-9.994-8.274-15.75-18.35-15.75h-6.41c-0.942-7.558-7.332-13.414-15.134-13.414s-14.172 5.858-15.134 13.414h-64.226c-0.962-7.558-7.332-13.414-15.134-13.414s-14.152 5.858-15.134 13.414h-4.506c-10.138 0-18.35 8.212-18.35 18.35s-2.826 63.692 7.312 63.692h121.324l25.228-44.050zM616.304 596.48c0-0.062-0.020-0.144-0.020-0.204 0.020-0.41 0.020-0.82 0.020-1.228v1.432zM796.55 618.516h5.448c15.134-2.15 12.84-12.84 13.066-22.242-0.102-9.994-8.274-15.75-18.33-15.75h-6.43c-0.942-7.558-7.332-13.414-15.134-13.414s-14.152 5.858-15.134 13.414h-64.226c-0.962-7.558-7.312-13.414-15.134-13.414-7.802 0-14.152 5.858-15.114 13.414h-4.526c-10.118 0-18.35 8.212-18.35 18.35s-2.806 63.692 7.332 63.692h121.324l25.208-44.050zM815.064 596.48c0-0.062-0.020-0.144-0.020-0.204 0.020-0.41 0.020-0.82 0.020-1.228v1.432zM796.55 334.848h5.448c15.134-2.13 12.84-12.84 13.066-22.242-0.102-9.994-8.274-15.75-18.33-15.75h-6.43c-0.942-7.536-7.332-13.414-15.134-13.414s-14.152 5.878-15.134 13.414h-64.226c-0.962-7.536-7.312-13.414-15.134-13.414-7.802 0-14.152 5.878-15.114 13.414h-4.526c-10.118 0-18.35 8.212-18.35 18.35s-2.806 63.692 7.332 63.692h121.324l25.208-44.050zM815.064 312.812c0-0.082-0.020-0.144-0.020-0.204 0.020-0.43 0.020-0.82 0.020-1.228v1.432zM796.55 194.396h5.448c15.134-2.13 12.84-12.84 13.066-22.242-0.102-9.994-8.274-15.75-18.33-15.75h-6.43c-0.942-7.558-7.332-13.414-15.134-13.414s-14.152 5.858-15.134 13.414h-64.226c-0.962-7.558-7.312-13.414-15.134-13.414-7.802 0-14.152 5.858-15.114 13.414h-4.526c-10.118 0-18.35 8.212-18.35 18.35 0 10.158-2.806 63.692 7.332 63.692h121.324l25.208-44.050zM815.064 172.38c0-0.062-0.020-0.144-0.020-0.226 0.020-0.41 0.020-0.798 0.020-1.228v1.454zM354.878 693.064c0-33.792-27.382-61.174-61.154-61.174-33.792 0-61.154 27.382-61.154 61.174 0 33.772 27.362 61.174 61.154 61.174 33.772 0 61.154-27.402 61.154-61.174zM385.454 554.68c0 27.362-22.18 49.542-49.542 49.542h-84.418c-27.362 0-49.542-22.18-49.542-49.542v-384.062c0-17.92 14.52-32.42 32.42-32.42 17.94 0 32.44 14.5 32.44 32.42v175.82h53.35v-175.82c0-17.92 14.5-32.42 32.42-32.42s32.85 14.5 32.85 32.42v175.82l0.002 208.242z" />
<glyph unicode="&#xe019;" d="M807.568 767.426h-598.2v-269.168h0.020v-358.892h598.18v628.060zM777.646 737.526v-568.258h-538.358v568.258h538.358z" />
<glyph unicode="&#xe01a;" d="M806.974 500.674l100.086 100.086-93.512 93.492-6.554-6.594v79.768h-598.22v-628.060h598.2v361.308zM238.694 498.278v0 239.248h538.358v-79.77l-243.998-243.958-140.226 140.206-93.45-93.47 233.676-233.74 244 243.98v-301.506h-538.36v329.010z" />
<glyph unicode="&#xe01b;" d="M791.286 750.714l-359.26-359.28-179.61 179.65-119.768-119.746 299.378-299.396 479.006 479.026z" />
<glyph unicode="&#xe01c;" d="M519.476 427.52l297.35 234.292c-3.38 0.43-7.25 0.656-11.756 0.656l-557.61-0.002c-5.796 0-10.69-0.45-14.97-1.228l286.986-233.718zM840.048 311.686v316.866h-0.308c-0.492 6.184-0.43 11.98-1.454 16.958l-207.646-165.294 209.408-198.922v30.392zM410.932 483.102l-201.216 163.020c-2.868-6.184-3.4-13.558-3.4-21.218v-331.654l204.616 189.852zM610.12 463.872l-88.494-70.43-91.608 74.22-222.29-208.468c2.826-9.872 11.468-15.422 37.704-15.422l571.31 0.002c8.602 1.27 13.988 3.788 17.428 7.29l-224.050 212.808z" />
<glyph unicode="&#xe01d;" d="M850.861 532.714h-254.145v254.145h-169.43v-254.145h-254.145v-169.43h254.145v-254.145h169.43v254.145h254.145z" />
<glyph unicode="&#xe01e;" d="M293.112 701.835v-503.457c0 0 276.382-55.444 335.199-65.633 26.398-4.574 139.549-31.446 139.549 8.852l0.002 434.541c0 45.369 0 73.353-48.764 76.839-3.532 0.272-8.943 0.749-15.643 1.406l0.749 62.915-0.070 25.988-34.841-4.505 0.136 0.295c0 16.188-12.519 40.502-48.086 37.196s-84.922-7.811-123.294-11.569-44.895-28.456-44.895-45.415l-160.038-17.457zM477.192 700.725c0.521 13.765-4.008 38.827 26.647 43.082l117.475 10.55c13.039 1.765 26.218-2.219 26.171-15.281s-0.092-26.285-0.092-26.285l34.864 4.483-0.749-60.651c-70.704 7.517-213.264 24.338-304.683 35.206l100.361 8.897z" horiz-adv-x="1028" />
<glyph unicode="&#xe01f;" d="M812.114 568.929h-7.907c8.258 40.070 30.663 187.145-86.099 187.145-135.163 0-159.48-118.958-159.48-118.958l-50.010-2.691c0 0-18.935 121.649-160.837 121.649-122.613 0-107.026-147.077-100.494-187.145h-8.359v-154.204h52.701v-274.802h485.343v274.825h35.141v154.182zM259.324 548.534h225.369v-113.414h-225.369v113.414zM312.045 395.812h172.666v-235.473l-172.666-0.020v235.493zM756.579 160.318h-190.266l0.002 235.494h190.266l-0.002-235.494zM791.698 435.144h-225.388v113.413h225.409l-0.020-113.413z" horiz-adv-x="1034" />
<glyph unicode="&#xe020;" d="M769.645 430.656v53.731c0 16.945-4.997 43.787-11.087 59.612l-8.705 22.617 12.064 0.002c15.57 0 28.265 12.721 28.265 28.265s-12.697 28.288-28.265 28.288h-33.797l-24.506 63.719c-6.115 15.849-24.414 32.606-40.751 37.275 0 0-42.291 12.090-129.681 12.090-87.388 0-129.703-12.114-129.703-12.114-16.317-4.67-34.638-21.405-40.729-37.253l-24.506-63.719h-33.819c-15.546 0-28.265-12.745-28.265-28.288s12.721-28.265 28.265-28.265h12.090l-8.707-22.617c-6.115-15.825-11.087-42.664-11.087-59.612v-51.816c-41.152-13.722-83.044-31.579-125.317-54.943v-130.31c251.308-130.287 630.194-102.373 723.558 0v130.31c0 0-47.195 27.94-125.316 53.029zM728.519 486.934c0-15.616-12.673-28.265-28.288-28.265s-28.265 12.651-28.265 28.265 12.651 28.265 28.265 28.265 28.288-12.65 28.288-28.265zM367.092 586.55l28.874 78.354c1.984 5.3 8.169 9.663 13.841 9.663h246.733c5.673 0 11.904-4.364 13.841-9.663l28.874-78.354c1.961-5.324-1.071-9.663-6.721-9.663h-318.694c-5.672 0-8.705 4.342-6.744 9.663zM366.133 515.196c15.592 0 28.243-12.673 28.243-28.265s-12.65-28.265-28.243-28.265c-15.639 0-28.288 12.673-28.288 28.265s12.65 28.265 28.288 28.265zM288.108 405.475c2.848 1.588 5.743 2.941 8.611 4.436v-59.214c0-19.793 16.198-35.992 35.992-35.992s35.969 16.198 35.969 35.992v20.564h329.010v-20.564c0-19.793 16.174-35.992 35.969-35.992s35.992 16.198 35.992 35.992v58.421c5.532-2.241 8.609-3.642 8.609-3.642v-77.165c-46.681-60.616-341.356-77.14-490.154 0v77.165zM548.004 192.981c-79.194 0-162.917 16.529-266.924 55.737l16.454 43.671c198.535-74.807 318.761-61.689 484.059-8.776l14.214-44.463c-89.159-28.571-166.044-46.169-247.805-46.169z" horiz-adv-x="1082" />
<glyph unicode="&#xe021;" d="M461.516 491.806c13.456 13.435 13.456 35.267 0 48.722-13.435 13.436-35.266 13.436-48.722 0-13.435-13.456-13.435-35.288 0-48.722 13.456-13.456 35.287-13.456 48.722 0zM268.016 170.097c0-19.027-15.424-34.451-34.451-34.451s-34.451 15.424-34.451 34.451c0 19.027 15.424 34.451 34.451 34.451s34.451-15.424 34.451-34.451zM332.529 655.247c0-19.027-15.425-34.452-34.452-34.452s-34.452 15.425-34.452 34.452c0 19.027 15.425 34.452 34.452 34.452s34.452-15.425 34.452-34.452zM256.246 697.078c13.456 13.434 13.456 35.266 0 48.722s-35.267 13.456-48.723 0-13.456-35.288 0-48.722c13.457-13.456 35.289-13.456 48.723 0zM391.988 561.336c13.456 13.434 13.456 35.266 0 48.722-13.476 13.456-35.266 13.456-48.722 0s-13.456-35.288 0-48.722c13.456-13.456 35.265-13.456 48.722 0zM741.375 629.206c13.456 13.456 13.456 35.288 0 48.722-13.455 13.456-35.266 13.456-48.722 0-13.456-13.454-13.456-35.266 0-48.722s35.267-13.456 48.722 0zM602.276 490.128c13.456 13.456 13.456 35.266 0 48.722-13.434 13.456-35.266 13.456-48.722 0-13.435-13.476-13.435-35.268 0-48.722 13.456-13.456 35.288-13.456 48.722 0zM671.846 559.656c13.434 13.456 13.434 35.266 0 48.722-13.456 13.456-35.288 13.456-48.723 0-13.453-13.454-13.453-35.266 0-48.722 13.435-13.456 35.267-13.456 48.723 0zM810.926 698.738c13.456 13.454 13.456 35.286 0 48.742-13.456 13.434-35.267 13.434-48.723 0-13.456-13.456-13.456-35.288 0-48.742 13.456-13.434 35.267-13.434 48.723 0zM621.446 331.878c-13.456-13.456-13.456-35.266 0-48.722s35.267-13.456 48.723 0c13.455 13.456 13.455 35.266 0 48.722-13.477 13.456-35.267 13.456-48.723 0zM690.974 262.348c-13.456-13.456-13.456-35.287 0-48.722 13.456-13.456 35.288-13.456 48.722 0 13.456 13.434 13.456 35.266 0 48.722-13.434 13.436-35.266 13.436-48.722 0zM610.706 377.067c0-19.027-15.424-34.451-34.451-34.451s-34.451 15.424-34.451 34.451c0 19.027 15.424 34.451 34.451 34.451s34.451-15.424 34.451-34.451zM275.394 260.67c-13.454-13.476-13.454-35.268 0-48.722 13.435-13.456 35.266-13.456 48.722 0 13.435 13.456 13.435 35.266 0 48.722-13.457 13.456-35.288 13.456-48.722 0zM760.546 192.798c-13.456-13.454-13.456-35.286 0-48.742 13.434-13.434 35.266-13.434 48.722 0 13.434 13.454 13.434 35.286 0 48.742-13.477 13.436-35.288 13.436-48.722 0zM532.745 469.3c-0.275 0.275-0.559 0.536-0.841 0.799-0.27 0.288-0.535 0.578-0.816 0.859-13.477 13.456-35.288 13.456-48.723 0-13.456-13.434-13.456-35.266 0-48.722 0.273-0.273 0.556-0.532 0.836-0.795 0.271-0.289 0.54-0.581 0.822-0.863 13.456-13.456 35.288-13.456 48.722 0 13.456 13.434 13.456 35.266 0 48.722zM403.757 305.839c0-19.027-15.425-34.452-34.452-34.452s-34.452 15.425-34.452 34.452c0 19.027 15.425 34.452 34.452 34.452s34.452-15.425 34.452-34.452zM414.474 399.75c-13.456-13.456-13.456-35.268 0-48.722 13.456-13.435 35.266-13.435 48.722 0 13.456 13.456 13.456 35.288 0 48.722-13.456 13.456-35.266 13.456-48.722 0z" />
<glyph unicode="&#xe022;" d="M700.848 766.013h-283.231c-37.044 0-67.175-31.013-67.175-69.064v-497.854c0-38.073 30.135-69.086 67.177-69.086h283.231c37.11 0 67.245 31.013 67.245 69.086l-0.002 497.854c0 38.074-30.135 69.064-67.245 69.064zM736.576 199.071c0-20.748-15.924-37.591-35.727-37.591h-283.232c-19.672 0-35.64 16.845-35.64 37.591l0.002 497.876c0 20.748 15.966 37.525 35.64 37.525h283.231c19.805 0 35.727-16.755 35.727-37.525v-497.876zM532.346 250.284c0 6.953 5.308 12.524 11.93 12.524h30.114c6.557 0 11.864-5.594 11.864-12.524v-31.712c0-6.93-5.308-12.569-11.864-12.569l-30.114-0.002c-6.623 0-11.93 5.658-11.93 12.568v31.714zM420.339 675.786c0 10.416 7.939 18.817 17.809 18.817h242.35c9.781 0 17.81-8.423 17.81-18.817v-366.418c0-10.352-8.005-18.773-17.81-18.773h-242.372c-9.848 0-17.81 8.423-17.81 18.773v366.419z" horiz-adv-x="1054" />
<glyph unicode="&#xe024;" d="M272.193 719.561c-187.923-187.923 97.75-469.807 260.702-375.893l201.454-216.68 136.176-28.783v168.791l-214.749 184.089 0.002 214.75c-0.024 0-180.323 256.963-383.591 53.723zM368.737 647.261c0 29.575 23.978 53.53 53.53 53.53s53.483-23.956 53.483-53.53c0-29.552-23.931-53.483-53.483-53.483s-53.53 23.931-53.53 53.483z" horiz-adv-x="1064" />
<glyph unicode="&#xe025;" d="M844.416 268.145c0 28.683-179.855 78.185-192.914 88.593-13.058 10.452-39.113 44.328-39.113 52.15s31.272 78.185 31.272 93.829 7.844 23.467 7.844 99.064c0 75.555-72.948 117.277-117.295 117.317h-0.019c-44.328-0.019-117.297-41.699-117.297-117.295s7.844-83.419 7.844-99.064 31.248-86.004 31.248-93.83-26.031-41.677-39.090-52.15c-13.036-10.409-192.914-59.911-192.914-88.593s-5.194-91.263-5.194-91.263h630.852c0 0-5.214 62.581-5.214 91.243z" horiz-adv-x="1052" />
<glyph unicode="&#xe026;" d="M915.016 545.418c0 21.811-17.857 39.668-39.694 39.668h-47.404l-34.422 89.411c-8.581 22.234-34.271 45.762-57.178 52.303 0 0-59.366 16.962-181.954 16.962-122.613-0.025-181.98-17.013-181.98-17.013-22.857-6.541-48.573-30.045-57.129-52.279l-34.398-89.411h-47.43c-21.834 0-39.668-17.833-39.668-39.642 0-21.836 17.833-39.693 39.668-39.693h16.912l-12.211-31.734c-8.556-22.21-15.544-59.838-15.544-83.641v-187.549c0-27.733 22.732-50.514 50.489-50.514s50.462 22.758 50.462 50.514v28.875h461.602v-28.875c0-27.733 22.681-50.514 50.462-50.514s50.489 22.758 50.489 50.514v187.549c0 23.774-7.013 61.429-15.544 83.641l-12.211 31.734h16.939c21.861 0 39.743 17.833 39.743 39.693zM321.352 533.679l40.49 109.955c2.761 7.463 11.489 13.555 19.423 13.555h346.199c7.908 0 16.64-6.094 19.398-13.53l40.514-109.978c2.738-7.437-1.517-13.53-9.45-13.53l-447.151-0.002c-7.908 0-12.187 6.094-9.426 13.53zM319.984 354.287c-21.911 0-39.693 17.76-39.693 39.667 0 21.861 17.783 39.642 39.693 39.642 21.886 0 39.668-17.783 39.668-39.642-0.027-21.937-17.784-39.667-39.668-39.667zM788.744 354.287c-21.911 0-39.668 17.76-39.668 39.667s17.76 39.642 39.668 39.642 39.668-17.734 39.668-39.642-17.708-39.667-39.668-39.667z" horiz-adv-x="1060" />
<glyph unicode="&#xe027;" d="M265.342 141.234h150.061v173.344h177.067v-173.344h139.993v252.878l128.159-1.592-355.878 362.22-362.964-360.91h123.563z" horiz-adv-x="1050" />
<glyph unicode="&#xe028;" d="M294.982 630.264c0 63.358 51.561 114.918 114.919 114.918s114.919-51.561 114.919-114.918c0-11.239-1.632-22.059-4.665-32.367 2.216-4.572 4.034-9.421 5.316-14.575l14.296-58.929c23.623 28.894 37.777 65.714 37.777 105.871 0 92.438-75.252 167.62-167.644 167.62-92.438 0-167.644-75.206-167.644-167.62 0-90.876 72.733-165.081 163.074-167.529l-13.129 53.961c-54.966 8.537-97.22 56.223-97.22 113.567zM433.734 635.651c1.329 0.42 2.682 0.77 4.058 1.119 5.644 1.377 11.403 2.076 17.139 2.076 11.451 0 22.339-2.729 32.042-7.509-0.537 42.022-34.885 76.067-77.049 76.067-42.513 0-77.094-34.581-77.094-77.117 0-32.951 20.777-61.098 49.903-72.127-2.122 18.77 3.265 37.171 14.084 51.584-6.785 4.338-11.309 11.915-11.309 20.522 0 13.455 10.936 24.395 24.395 24.395 11.655 0.022 21.38-8.115 23.829-19.007zM795.838 237.425l-49.903 205.396c-4.292 17.677-22.153 28.59-39.83 24.276l-20.030-4.874c-5.666-1.423-11.098-4.129-15.577-7.882-6.321 14.458-22.225 22.713-38.081 18.866l-20.008-4.85c-6.622-1.609-12.243-5.132-16.532-9.818-7.439 11.381-21.477 17.374-35.398 14.037l-20.053-4.85c-5.855-1.423-10.982-4.338-14.995-8.207l-28.45 116.948c-5.597 23.202-29.103 37.497-52.282 31.878-23.202-5.666-37.521-29.127-31.878-52.33l53.916-222.003c-7.976-6.46-14.925-14.201-20.381-23.227l-12.451-20.429c-26.024-42.721-12.451-98.665 30.293-124.735l56.923-34.651c2.776-1.703 5.622-3.215 8.534-4.572 21.665-22.574 54.475-33.393 87.098-25.49l112.212 27.283c48.666 11.777 78.655 60.795 66.878 109.229z" horiz-adv-x="1056" />
<glyph unicode="&#xe029;" d="M247.369 121.763c-1.705-0.349-3.436-0.349-5.143-0.504 1.705 0.198 3.437 0.198 5.143 0.504zM274.965 136.427c-7.201-7.178-15.977-11.729-25.189-13.964 9.258 2.254 17.991 6.806 25.189 13.964zM800.222 160.522c5.56 5.539 5.56 14.554 0 20.090-5.538 5.539-14.532 5.539-20.112 0-5.538-5.58-5.538-14.554 0-20.090 5.581-5.538 14.575-5.58 20.112 0zM237.129 120.802v0c-1.663 0-3.262 0.327-4.903 0.459 1.643-0.131 3.239-0.459 4.903-0.459zM226.929 121.763c-0.855 0.175-1.663 0.504-2.472 0.723 0.831-0.196 1.621-0.546 2.472-0.723zM217.036 124.718c-0.241 0.087-0.46 0.263-0.723 0.394 0.263-0.131 0.481-0.306 0.723-0.394zM752.843 135.442c20.002-20.002 52.412-20.002 72.44 0 19.981 20.002 19.981 52.437-0.020 72.44l-243.819 243.862-72.44-72.44 243.841-243.861zM445.23 587.91c20.417 48.956 10.789 107.452-29.041 147.262-39.808 39.808-98.306 49.46-147.241 29.041l100.996-100.996-72.438-72.44-100.998 100.997c-20.396-48.935-10.768-107.452 29.063-147.262 39.808-39.808 98.285-49.439 147.197-29.041l69.462-69.442 72.44 72.44-69.441 69.44zM838.5 733.967l-41.603 41.582-102.464-60.927-7.136-48.671 3.719-3.719-327.024-327.048-20.746 20.724-143.892-143.892c-20.878-20.879-20.878-54.691 0-75.611 5.011-5.011 10.789-8.732 16.961-11.36 0.263-0.131 0.46-0.306 0.723-0.394 2.407-0.985 4.903-1.598 7.397-2.233 0.831-0.198 1.663-0.547 2.472-0.723 1.772-0.35 3.524-0.35 5.317-0.504 1.643-0.153 3.24-0.459 4.903-0.459 1.706 0 3.348 0.349 5.076 0.48 1.705 0.153 3.436 0.153 5.144 0.481 0.831 0.175 1.598 0.504 2.429 0.723 9.214 2.233 17.968 6.785 25.168 13.939l143.914 143.892-20.766 20.746 327.089 327.138 3.74-3.764 48.671 7.113 60.905 102.484z" />
<glyph unicode="&#xe02a;" d="M166.116 448h128.505v-287.794h-128.505zM347.342 660.71h128.505v-500.504h-128.505zM528.568 575.205h128.505v-414.998h-128.505zM709.842 735.794h128.481v-575.59h-128.482z" horiz-adv-x="1020" />
<glyph unicode="&#xe02b;" d="M512 766.013c-175.357 0-318.013-142.657-318.013-318.013s142.657-318.013 318.013-318.013 318.013 142.656 318.013 318.013-142.676 318.013-318.013 318.013zM512 170.753c-152.874 0-277.247 124.374-277.247 277.247 0 33.094 6.133 64.689 16.804 94.131l51.581-30.057 10.258 17.623-54.166 31.577c11.675 25.993 27.309 49.793 46.040 70.806l49.528-58.452 15.552 13.171-50.965 60.155c19.84 19.205 42.55 35.392 67.378 48.031l45.692-70.085 17.092 11.14-44.173 67.786c29.853 12.494 62.414 19.635 96.43 20.885v-84.161h20.393l-0.019 84.183c32.52-1.21 63.603-7.879 92.349-19.369l-38.838-75.194 18.116-9.354 39.371 76.179c25.051-12.249 47.97-28.088 68.119-46.984l-50.001-70.25 16.597-11.818 47.929 67.316c20.886-22.711 38.161-48.748 50.595-77.432l-60.485-27.658 8.475-18.528 59.255 27.123c9.89-28.477 15.55-58.946 15.55-90.745 0.017-152.893-124.333-277.266-277.204-277.266zM487.257 514.865l27.062-5.498-53.223-186.068-58.802-75.398 56.28 31.698 22.61-55.316v93.517l63.705 184.262 27.801-7.304-15.060 109.602z" />
<glyph unicode="&#xe02c;" d="M577.044 431.289c-3.461 5.578-11.332 8.216-17.482 5.853l-27.044-10.435c-6.125-2.341-14.768-0.299-19.249 4.531l-20.37 19.249c-5.105 4.108-7.619 12.626-5.627 18.9l8.84 27.616c1.968 6.249-1.22 13.694-7.12 16.585l-54.761 20.792c-6.275 1.817-13.646-1.643-16.336-7.644l-11.803-26.496c-2.638-6-10.186-10.683-16.783-10.409l-28.038-0.795c-6.499-0.647-14.342 3.612-17.357 9.388l-13.322 25.8c-2.963 5.853-10.609 9.114-16.91 7.271 0 0-14.817-4.408-27.616-10.136-12.849-5.726-25.923-13.895-25.923-13.895-5.601-3.487-8.216-11.332-5.853-17.457l10.409-27.095c2.366-6.151 0.349-14.792-4.483-19.201l-19.273-20.346c-4.132-5.18-12.647-7.695-18.898-5.701l-27.666 8.84c-6.249 1.968-13.67-1.194-16.56-7.098l-20.816-54.809c-1.791-6.3 1.695-13.646 7.671-16.31l26.546-11.803c6-2.615 10.683-10.211 10.334-16.733l0.847-28.039c0.673-6.526-3.562-14.342-9.388-17.381l-25.8-13.322c-5.828-3.014-9.089-10.609-7.222-16.935 0 0 4.357-14.742 10.136-27.616 5.701-12.775 13.895-25.923 13.895-25.923 3.461-5.578 11.306-8.192 17.407-5.853l27.118 10.435c6.125 2.366 14.792 0.349 19.249-4.483l20.37-19.298c5.081-4.135 7.619-12.673 5.627-18.876l-8.815-27.64c-1.993-6.275 1.194-13.694 7.12-16.56l54.709-20.842c6.35-1.791 13.694 1.695 16.385 7.671l11.754 26.521c2.69 6.026 10.212 10.683 16.808 10.384l28.014 0.848c6.526 0.697 14.319-3.562 17.332-9.414l13.322-25.822c3.039-5.778 10.683-9.115 16.935-7.196 0 0 14.792 4.357 27.616 10.11 12.823 5.778 25.923 13.92 25.923 13.92 5.553 3.437 8.216 11.281 5.853 17.406l-10.409 27.095c-2.366 6.125-0.349 14.792 4.508 19.249l19.249 20.444c4.184 5.056 12.65 7.595 18.899 5.601l27.616-8.84c6.275-1.968 13.719 1.194 16.61 7.097l20.792 54.709c1.768 6.35-1.669 13.719-7.671 16.385l-26.521 11.754c-6 2.69-10.659 10.259-10.36 16.808l-0.848 27.989c-0.647 6.549 3.586 14.368 9.439 17.357l25.748 13.346c5.828 3.014 9.115 10.609 7.271 16.884 0 0-4.408 14.792-10.16 27.64-5.722 12.829-13.867 25.928-13.867 25.928zM404.474 257.5c-29.532-13.297-64.171-0.048-77.445 29.433-13.222 29.532-0.048 64.196 29.506 77.445 29.483 13.249 64.171 0.048 77.42-29.483 13.224-29.484 0.076-64.148-29.482-77.395zM865.556 635.139c-0.772 5.653-6.075 10.485-11.778 10.757l-25.25 1.246c-5.701 0.274-11.879 4.931-13.694 10.335l-9.439 22.487c-2.564 5.105-1.595 12.749 2.192 17.007l16.758 18.851c3.762 4.258 3.86 11.332 0.15 15.69l-36.182 35.807c-4.408 3.637-11.455 3.461-15.638-0.373l-18.75-16.884c-4.208-3.859-11.853-4.88-16.935-2.341l-22.613 9.214c-5.452 1.791-10.136 7.87-10.485 13.62l-1.494 25.152c-0.373 5.701-5.254 10.982-10.933 11.703 0 0-13.272 1.719-25.526 1.669-12.176-0.101-25.452-1.942-25.452-1.942-5.676-0.772-10.533-6.125-10.807-11.803l-1.22-25.151c-0.299-5.751-4.931-11.903-10.36-13.719l-22.487-9.439c-5.131-2.564-12.749-1.595-17.034 2.192l-18.849 16.685c-4.307 3.86-11.38 3.91-15.69 0.199l-35.834-36.133c-3.612-4.382-3.461-11.454 0.349-15.713l16.935-18.7c3.86-4.232 4.881-11.903 2.366-17.007l-9.213-22.536c-1.744-5.452-7.895-10.16-13.571-10.508l-25.2-1.494c-5.701-0.348-10.956-5.279-11.704-10.933 0 0-1.719-13.272-1.669-25.526 0.075-12.202 1.917-25.452 1.917-25.452 0.798-5.652 6.125-10.508 11.803-10.782l25.225-1.246c5.701-0.325 11.853-4.955 13.694-10.36l9.414-22.461c2.564-5.081 1.643-12.725-2.192-17.034l-16.734-18.802c-3.786-4.307-3.859-11.381-0.199-15.713l36.207-35.807c4.408-3.637 11.481-3.487 15.713 0.373l18.7 16.91c4.208 3.809 11.853 4.855 16.958 2.341l22.586-9.19c5.452-1.791 10.061-7.895 10.485-13.62l1.52-25.175c0.349-5.701 5.228-10.956 10.908-11.703 0 0 13.272-1.744 25.452-1.643 12.251 0.048 25.526 1.917 25.526 1.917 5.676 0.798 10.533 6.125 10.782 11.778l1.269 25.201c0.299 5.701 4.932 11.879 10.36 13.67l22.461 9.414c5.081 2.589 12.725 1.669 17.034-2.141l18.825-16.711c4.283-3.809 11.38-3.884 15.713-0.199l35.783 36.182c3.611 4.382 3.509 11.429-0.373 15.664l-16.884 18.751c-3.834 4.209-4.855 11.853-2.366 16.958l9.19 22.561c1.791 5.452 7.944 10.136 13.597 10.485l25.226 1.546c5.676 0.349 10.933 5.229 11.678 10.882 0 0 1.719 13.297 1.669 25.499-0.027 12.176-1.895 25.498-1.895 25.498zM667.288 550.52c-32.024-0.199-58.222 25.673-58.394 57.771s25.698 58.246 57.797 58.394c32.073 0.175 58.197-25.673 58.345-57.797 0.198-32.096-25.651-58.22-57.749-58.369z" />
<glyph unicode="&#xe02d;" d="M662.136 369.833l-196.695 196.779 14.028 14.028 196.717-196.779-14.050-14.028zM614.158 321.832l-196.717 196.779 14.089 14.028 196.695-196.739-14.068-14.069zM566.181 273.835l-196.695 196.779 14.069 14.028 196.695-196.758-14.069-14.049zM359.236 600.805c-19.369-19.39-50.812-19.39-70.24 0-19.348 19.39-19.348 50.874 0 70.262 19.409 19.41 50.852 19.41 70.24 0 19.428-19.39 19.428-50.874 0-70.262zM263.671 756.074c-32.943 0-59.663-26.68-59.663-59.644v-257.142l288.42-281.991c23.352-23.229 61.185-23.229 84.577 0l225.471 224.319c23.373 23.249 23.373 60.919 0 84.146l-299.162 290.31-0.307-0.327-239.334 0.327z" />
<glyph unicode="&#xe02e;" d="M545.024 312.905l172.015-171.971c28.188-28.21 73.884-28.21 102.135 0 28.188 28.166 28.188 73.97-0.020 102.181l-171.949 171.928zM647.161 415.020l-98.066 97.955c28.781 69.024 15.209 151.553-40.947 207.643-56.135 56.2-138.641 69.747-207.643 40.968 0 0 196.155-79.267 193.616-157.373-2.561-78.106-69.769-132.512-147.876-128.663-78.106 3.853-147.875 183.941-147.875 183.941-28.758-69.069-15.189-151.574 40.989-207.733 56.114-56.113 138.618-69.703 207.578-40.947l98.065-97.934z" />
<glyph unicode="&#xe02f;" d="M582.196 304.057c47.728 10.188 85.827 60.264 99.656 120.487l-215.285-29.146c17.825-64.421 64.302-102.302 115.63-91.34zM583.647 624.55c-51.668 1.094-98.741-46.456-116.926-114.915l215.726 12.452c-12.991 58.197-50.772 101.389-98.799 102.461zM278.734 776.272v-656.544l535.699 151.145v417.8l-535.7 87.598zM745.437 433.159l-30.737-4.138c-14.164-87.58-65.793-164.115-132.8-181.205-74.289-18.96-142.967 40.149-163.121 141.136l-50.136-6.784-0.078 121.819 50.316 2.866c20.434 106.061 90.047 179.656 165.031 174.838 67.565-4.338 118.614-72 131.489-157.671l30.718 1.771-0.675-92.63z" horiz-adv-x="1060" />
<glyph unicode="&#xe031;" d="M862.438 452.79h20.399c-0.249 17.937-1.851 35.489-4.789 52.545l-20.15-3.682-1.673 9.194 20.105 3.771c-3.796 18.999-9.172 37.41-15.993 55.122l-19.042-7.612-3.505 8.673 19.089 7.704c-7.658 18.183-16.807 35.67-27.358 52.162l-17.125-11.338-5.173 7.883 17.125 11.25c-11.158 16.356-23.697 31.718-37.455 45.836l-14.482-14.482-6.665 6.62 14.481 14.526c-12.583 12.199-26.139 23.54-40.55 33.728l-11.566-16.942-7.75 5.354 11.612 16.92c-15.836 10.594-32.69 19.881-50.287 27.719l-8.11-18.954-8.607 3.729 8.066 18.908c-18.004 7.433-36.801 13.373-56.229 17.621l-4.18-20.221-9.217 1.876 4.18 20.196c-19.113 3.614-38.812 5.67-58.94 5.939v-20.558h-9.329l0.021 20.558c-17.937-0.271-35.489-1.829-52.591-4.766l3.771-20.308-9.194-1.695-3.771 20.263c-19.089-3.75-37.546-9.194-55.214-15.95l7.704-19.27-8.766-3.479-7.658 19.246c-18.276-7.59-35.761-16.808-52.252-27.335l11.409-17.349-7.816-5.151-11.362 17.283c-16.399-11.114-31.759-23.653-45.859-37.455l14.616-14.616-6.687-6.643-14.639 14.639c-12.244-12.629-23.562-26.181-33.728-40.596l17.077-11.77-5.285-7.748-17.078 11.77c-10.687-15.882-19.947-32.734-27.81-50.355l19.113-8.179-3.661-8.632-19.089 8.179c-7.478-18.004-13.373-36.823-17.576-56.25l20.354-4.202-1.9-9.194-20.308 4.202c-3.68-19.156-5.737-38.811-6.008-58.94h20.785v-9.377l-20.785 0.023c0.271-17.937 1.921-35.468 4.856-52.636l20.421 3.771 1.696-9.194-20.421-3.818c3.771-19.067 9.194-37.499 16.015-55.212l19.337 7.75 3.502-8.674-19.337-7.771c7.612-18.253 16.807-35.716 27.425-52.252l17.349 11.498 5.15-7.861-17.374-11.387c11.206-16.446 23.72-31.786 37.546-45.881l14.616 14.616 6.643-6.643-14.641-14.641c12.628-12.289 26.203-23.585 40.64-33.774l11.726 17.077 7.75-5.265-11.726-17.101c15.881-10.641 32.689-19.881 50.287-27.674l8.201 19.067 8.63-3.727-8.133-19.067c17.981-7.433 36.801-13.259 56.251-17.508l4.18 20.219 9.194-1.875-4.18-20.242c19.134-3.616 38.788-5.601 58.871-5.831v20.558h9.42v-20.558c17.893 0.226 35.468 1.875 52.591 4.766l-3.796 20.286 9.217 1.673 3.796-20.173c19.021 3.727 37.455 9.194 55.144 15.972l-7.659 19.134 8.697 3.502 7.682-19.111c18.253 7.569 35.694 16.807 52.162 27.314l-11.339 17.238 7.861 5.128 11.294-17.125c16.379 11.137 31.697 23.631 45.859 37.455l-14.503 14.481 6.643 6.665 14.503-14.481c12.244 12.583 23.585 26.114 33.728 40.596l-16.942 11.634 5.354 7.704 16.875-11.567c10.617 15.836 19.881 32.689 27.674 50.287l-18.863 8.044 3.706 8.63 18.863-8.066c7.41 17.981 13.307 36.779 17.53 56.229l-20.060 4.135 1.829 9.194 20.082-4.135c3.616 19.111 5.649 38.834 5.919 58.849l-20.444 0.002v9.377zM544 190.895c-142.004 0-257.082 115.146-257.082 257.061 0 142.004 115.077 257.083 257.082 257.083s257.106-115.077 257.106-257.083c0-141.915-115.123-257.061-257.106-257.061zM544.021 677.228c-126.553 0-229.205-102.654-229.205-229.251 0-126.575 102.654-229.228 229.205-229.228 126.529 0 229.183 102.654 229.183 229.228 0 126.599-102.654 229.251-229.183 229.251zM577.841 631.461c3.75 6.031 11.726 10.934 32.532 3.771 20.806-7.274 35.512-16.106 47.124-24.194 11.612-8.066 37.817-30.385 45.316-44.3 7.658-13.873 9.329-20.559 5.557-24.693-7.388-7.998-73.782-28.465-81.643-29.391-7.883-0.883-21.033-3.502-32.689 4.585-6.076 4.224-13.76 12.763-15.113 32.283-1.334 19.564-4.789 75.929-1.084 81.938zM606.711 448.812c-8.993-2.665-18.433 2.507-21.054 11.43-2.644 8.97 2.463 18.411 11.477 21.054 8.97 2.665 18.411-2.463 21.033-11.43 2.621-8.992-2.508-18.433-11.454-21.054zM568.421 412.126c7.771 5.219 18.253 3.231 23.562-4.541 5.265-7.682 3.275-18.208-4.451-23.494-7.704-5.286-18.253-3.275-23.54 4.472-5.31 7.771-3.321 18.229 4.428 23.561zM544 525.284c9.377 0 16.967-7.59 16.967-16.967s-7.59-16.942-16.967-16.942c-9.353 0-16.967 7.569-16.967 16.942s7.612 16.967 16.967 16.967zM520.934 389.694c-5.649-7.388-16.265-8.901-23.72-3.231-7.433 5.601-8.879 16.31-3.253 23.72 5.649 7.499 16.288 8.923 23.766 3.275 7.433-5.693 8.881-16.244 3.209-23.766zM481.355 449.898c-8.924 2.802-13.937 12.289-11.093 21.213 2.778 8.993 12.312 13.915 21.235 11.116s13.893-12.266 11.116-21.257c-2.848-8.925-12.289-13.873-21.257-11.070zM385.819 568.161c13.237 17.598 26.139 28.894 37.433 37.499 11.158 8.583 40.437 26.705 55.958 29.709 15.52 2.984 22.432 2.598 25.166-2.305 5.331-9.443 4.631-78.91 3.094-86.681-1.535-7.75-3.050-21.099-14.3-29.709-5.919-4.562-16.356-9.263-35.422-4.585-18.999 4.676-73.759 18.592-78.366 23.924-4.539 5.422-6.776 14.526 6.441 32.148zM411.754 315.956c-6.484-2.802-15.791-2.327-28.804 15.452-13.057 17.711-20.15 33.411-25.054 46.65-4.97 13.216-13.893 46.446-12.244 62.17 1.738 15.768 4.111 22.253 9.625 23.448 10.594 2.417 76.832-18.456 83.788-22.183 6.959-3.818 19.294-9.105 24.285-22.364 2.575-6.936 4.066-18.321-5.919-35.173-9.986-16.875-39.172-65.152-45.678-67.999zM596.501 256.069c-21.235-5.965-38.36-7.050-52.48-7.050-14.162 0-48.391 3.389-62.577 10.37-14.097 7.162-19.337 11.634-18.592 17.191 1.469 10.776 44.3 65.581 50.265 70.709 6.009 5.219 15.249 14.91 29.391 14.91 7.456 0 18.592-2.665 30.904-17.914 12.266-15.227 47.283-59.528 47.691-66.598 0.362-7.094-3.343-15.679-24.6-21.621zM703.421 329.626c-11.093-11.249-17.011-14.821-22.003-12.403-9.826 4.834-48.48 62.534-51.552 69.828-3.094 7.298-9.377 19.179-4.948 32.643 2.305 7.050 8.314 16.853 26.613 23.742 18.299 6.913 71.343 26.341 78.141 24.467 6.866-1.829 13.802-8.066 12.875-30.069-1.062-21.937-5.265-38.63-9.67-52.028-4.449-13.53-18.3-44.931-29.458-56.181z" horiz-adv-x="1056" />
<glyph unicode="&#xe032;" d="M850.243 576.012l-154.989 157.559h-249.461v-70.586c-7.218 1.816-14.178 2.808-20.498 2.832h-0.018c-41.135-0.040-108.889-38.742-108.889-108.91 0-70.208 7.278-77.464 7.278-92.001s29.011-79.858 29.011-87.114-24.188-38.704-36.289-48.415c-12.104-9.691-179.116-55.651-179.116-82.27s-4.845-84.705-4.845-84.705h585.741c0 0-1.914 22.73-3.312 46.279h135.389v367.324zM692.879 656.009l83.688-85.34-83.688 0.398v84.943zM794.97 263.938h-97.445c-41.912 25.901-153.495 57.584-163.306 65.442-9.491 7.615-26.301 28.492-33.14 40.695v18.524c7.496 21.018 25.881 64.744 25.881 76.328 0 14.536 7.258 21.793 7.258 92.001 0 31.885-14.019 57.166-33.14 75.393l-0.015 46.002h155.030l-0.018-143.624 138.937-0.2v-270.558z" horiz-adv-x="1046" />
<glyph unicode="&#xe033;" d="M820.076 737.697l-18.377 18.377-289.697-289.697-289.697 289.697-18.377-18.377 289.697-289.697-289.697-289.697 18.377-18.377 289.697 289.697 289.697-289.697 18.377 18.377-289.697 289.697z" />
<glyph unicode="&#xe034;" d="M692.060 811.868c0-196.568-442.266-98.284-442.266-491.398 0-147.416 49.152-196.568 49.152-196.568h49.132c0 0-73.728 49.132-73.728 196.568 0 98.284 221.144 196.568 221.144 196.568s-196.076-106.352-196.076-207.278c312.852-49.050 486.092 315.228 392.642 502.108z" />
<glyph unicode="&#xe600;" d="M109.387 686.866v-86.856h847.273v86.856h-847.273zM109.387 404.573h847.273v86.876h-847.273v-86.876zM109.387 209.113h847.273v86.855h-847.273v-86.855z" horiz-adv-x="1029" />
<glyph unicode="&#xe601;" d="M908.836 589.967h-794.74c-77.711 0-64.948-63.013-64.919-140.601 0-77.711-12.763-140.662 64.919-140.662h50.375l40.594-66.669 46.804 66.669h656.969c77.649 0 64.919 62.951 64.919 140.662-0.001 77.587 12.73 140.601-64.921 140.601v0zM240.828 429.469v-60.857h-21.834v61.32l-78.42 96.039h28.785l54.311-68.64c2.183-2.83 4.303-6.397 6.333-10.671 1.629 3.443 3.596 6.735 5.965 9.716l56.217 69.594h28.66l-80.017-96.501zM495.061 384.449c-17.098-13.315-38.842-19.989-65.32-19.989h-1.568c-11.101 0-23.682 1.57-37.644 4.644-10.271 2.216-20.42 7.196-30.536 14.916-10.672 8.027-17.62 16.729-20.911 26.079-4.733 13.224-7.106 25.094-7.106 35.643 0 26.415 9.442 47.299 28.292 62.612 17.344 14.239 39.579 21.374 66.61 21.374 27.339 0 49.817-7.135 67.504-21.374 19.158-15.468 28.755-36.534 28.755-63.29 0-25.709-9.379-45.912-28.077-60.611l0.001-0.004zM714.666 431.5c0.062-12.487-1.322-22.204-4.185-29.215-10.057-24.97-35.365-37.426-75.776-37.426-14.392 0-27.987 1.998-40.718 5.995-16.637 5.229-27.43 12.948-32.352 23.219-3.567 7.412-5.843 13.807-6.95 19.157-0.859 4.733-1.322 11.5-1.322 20.266v92.472h22.48v-93.364c0-7.411 0.398-12.916 1.105-16.482 3.015-14.423 13.010-23.801 30.107-28.292 9.074-2.368 18.298-3.567 27.585-3.567 9.811 0 19.097 1.106 27.86 3.352 12.179 3.106 19.957 7.72 23.405 13.807 4.15 7.564 6.242 17.005 6.242 28.292v96.256h22.449v-94.472l0.070 0.002zM920.616 437.743h-54.586v-50.802h-21.804v50.802h-54.555v19.158h54.555v50.374h21.804v-50.374h54.586v-19.158zM477.964 495.68c-13.594 9.935-31.43 14.917-53.54 14.917-7.412 0-15.223-1.2-23.404-3.567-3.536-1.043-11.041-3.627-22.48-7.811-16.176-5.904-24.294-23.464-24.294-52.557 0-21.405 7.443-37.521 22.296-48.341 13.223-9.625 30.906-14.517 53.048-14.517 21.096 0 37.948 5.138 50.587 15.378 13.654 11.133 20.511 27.063 20.511 47.698 0 21.373-7.596 37.703-22.726 48.804l0.002-0.004z" horiz-adv-x="1028" />
<glyph unicode="&#xe602;" d="M378.757 402.35h262.513v-20.705h-262.513v20.705zM378.757 326.39h262.513v-20.767h-262.513v20.767zM378.757 250.388h262.513v-20.767h-262.513v20.767zM683.172 173.138h-346.849v295.158h346.87v-295.158zM337.306 716.411h345.436v-117.473h-345.436v117.473zM855.47 598.979h-145.121v145.060h-400.671v-145.101h-145.101v-331.571h139.612v-121.836h406.159v121.836h145.121v331.612z" />
<glyph unicode="&#xe603;" d="M445.698 532.72c-50.208 0-91.046-40.838-91.046-91.046 0-50.168 45.093-95.275 95.304-95.275 50.168 0 91.018 40.838 91.018 91.893 0.015 50.167-45.093 94.429-95.274 94.429zM807.336 541.697v136.183h-680.507v-510.405h680.523v136.071l119.104 119.048-119.119 119.104zM645.619 263.031l-19.574-19.574c-8.511-7.651-21.279-7.651-28.959 0l-80.774 80.845c-19.573-11.063-42.557-17.897-66.357-17.897-72.333 0-135.281 62.948-135.281 135.253 0 73.165 58.706 131.886 131.025 131.886 73.151 0 136.127-62.962 136.127-135.281 0-25.534-6.805-48.462-19.574-68.923l80.802-79.943c7.651-8.469 10.217-17.841 2.565-26.365z" />
<glyph unicode="&#xe604;" d="M665.65 563.406c-44.995 45.007-83.083 72.693-3.473 171.328 79.599 100.379 131.522 24.226 174.801-19.025 50.209-50.209 3.473-238.833-181.719-422.268-185.165-185.19-372.060-233.619-422.256-183.411-43.252 43.264-119.417 96.882-20.755 176.492 98.636 79.573 126.322 39.819 171.315-5.19 31.157-31.171 110.77 34.605 179.965 103.825 67.504 67.491 133.253 147.090 102.121 178.248z" />
<glyph unicode="&#xe605;" d="M577.99 756.075h-292.865v-616.151h474.81v431.173l-181.945 184.978zM673.43 564.864l-98.224 0.436v99.743l98.224-100.178zM349.999 204.777v486.446h181.987l-0.019-168.582 163.098-0.249v-317.614h-345.063z" horiz-adv-x="1045" />
<glyph unicode="&#xe606;" d="M332.001 733.86h520.131v-56.75h-520.131v56.75zM332.001 563.63h520.131v-56.75h-520.131v56.75zM332.001 393.421h520.131v-56.75h-520.131v56.75zM332.001 223.232h520.131v-56.75h-520.131v56.75zM271.79 705.454c0-27.423-22.651-49.644-50.586-49.644-27.894 0-50.545 22.221-50.545 49.644s22.651 49.664 50.565 49.664c27.914 0 50.565-22.241 50.565-49.664zM271.79 535.265c0-27.443-22.651-49.664-50.586-49.664-27.894 0-50.545 22.221-50.545 49.664 0 27.423 22.63 49.644 50.545 49.644 27.935-0.020 50.586-22.221 50.586-49.644zM271.79 365.036c0-27.423-22.651-49.644-50.586-49.644-27.894 0-50.545 22.221-50.545 49.644 0 27.443 22.63 49.664 50.545 49.664 27.935 0 50.586-22.221 50.586-49.664zM271.79 194.847c0-27.423-22.651-49.644-50.586-49.644-27.894 0-50.545 22.221-50.545 49.644s22.63 49.664 50.545 49.664c27.935-0.020 50.586-22.262 50.586-49.664z" />
<glyph unicode="&#xe607;" d="M304.816 599.12c-10.695-12.728-28.686-19.105-53.975-19.105h-78.984v166.435h73.302c13.2 0 23.2-0.753 29.94-2.34 9.888-2.368 17.907-7.048 24.036-14.037 6.127-6.99 9.191-15.541 9.191-25.567 0-10.724-1.922-18.717-5.792-24.063-3.815-5.347-10.778-9.498-20.833-12.476-1.56-0.474-4.541-1.254-8.969-2.368 20.887-2.953 33.644-10.11 38.212-21.473 2.507-6.154 3.761-11.975 3.761-17.462 0-10.498-3.288-19.69-9.889-27.544zM248 715.339h-36.54v-34.617h31.359c16.487 0 24.759 5.989 24.759 17.935-0.031 11.113-6.546 16.684-19.579 16.684zM249.895 650.726h-38.434v-40.746h28.992c10.054 0 17.296 0.918 21.697 2.868 6.936 3.009 10.389 8.8 10.389 17.407-0.030 13.646-7.577 20.47-22.643 20.47zM474.761 616.331c-5.18-13.063-14.232-23.117-27.099-30.191-11.781-6.573-25.064-9.858-39.853-9.858-12.115 0-23.895 2.534-35.371 7.548-13.173 5.766-22.057 13.535-26.624 23.311-5.486 11.947-8.244 25.706-8.244 41.247v98.062h41.969v-103.716c0-9.889 1.254-17.043 3.761-21.473 4.095-7.075 12.895-10.611 26.403-10.611 10.525 0 17.994 2.868 22.392 8.522 3.927 5.039 5.877 12.978 5.877 23.785v103.494h41.721v-92.88c0.031-16.487-1.615-28.908-4.93-37.237zM510.606 580.014v166.435h41.497v-166.435h-41.497zM584.382 580.014v166.435h41.497v-131.315h65.059v-35.12h-106.556zM783.348 713.697v-133.684h-41.969v133.684h-43.363v32.753h128.419v-32.753h-43.083zM243.043 498.465v-133.714h-41.969v133.714h-43.363v32.724h128.475v-32.781h-43.139v0.056zM409.005 364.085c-8.8-2.868-18.158-4.232-28.045-4.232-25.456 0-45.813 8.578-61.049 25.706-14.456 16.348-21.697 37.403-21.697 63.223 0 25.262 7.38 46.010 22.17 62.191 15.233 16.961 35.371 25.456 60.353 25.456 38.517 0 64.363-17.936 77.564-53.752 4.401-11.948 6.6-23.813 6.6-35.593 0-18.717-4.874-35.566-14.62-50.66-10.25-15.931-23.98-26.682-41.275-32.335zM380.486 501.5c-13.675 0-24.202-5.486-31.582-16.487-6.433-9.609-9.665-21.529-9.665-35.843 0-14.928 3.23-27.267 9.665-37.014 7.548-11.476 18.382-17.21 32.53-17.21 7.713 0 14.817 1.978 21.335 5.904 6.517 3.983 11.362 9.356 14.51 16.264 3.927 8.522 5.905 18.551 5.905 30.191 0 15.066-3.314 27.489-9.888 37.263-7.604 11.28-18.521 16.934-32.809 16.934zM243.043 283.235v-133.684h-41.969v133.684h-43.363v32.753h128.475v-32.753h-43.139zM407.111 149.551v70.964h-60.827v-70.964h-41.942v166.435h41.942v-60.103h60.827v60.103h41.721v-166.435h-41.721zM582.041 149.551l-33.253 59.408h-25.929v-59.408h-41.969v166.435h77.089c30.97 0 50.493-8.496 58.71-25.456 4.511-9.413 6.795-18.854 6.795-28.295 0-22.783-11.362-38.183-34.2-46.205l38.405-66.48h-45.647zM558.091 285.127h-35.231v-45.258h34.284c16.597 0 24.926 7.577 24.926 22.809-0.031 14.956-8.019 22.448-23.98 22.448zM648.022 149.551v166.435h41.497v-166.435h-41.497zM721.825 149.551v166.435h41.47v-131.315h65.059v-35.12h-106.528zM849.576 149.551v166.435h41.497v-131.315h65.059v-35.12h-106.556z" horiz-adv-x="1034" />
<glyph unicode="&#xe608;" d="M192.614 453.379c18.161-9.411 59.88-26.883 101.567-26.883 53.136 0 80.049 25.564 80.049 58.53 0 43.037-43.037 62.515-88.113 62.515h-41.718v73.336h39.71c34.286 0.688 78.012 13.456 78.012 50.438 0 26.225-21.518 45.734-64.584 45.734-35.634 0-73.335-15.464-91.498-26.225l-20.828 73.996c26.253 16.813 78.729 32.967 135.223 32.967 93.506 0 145.295-49.090 145.295-108.969 0-46.392-26.225-82.747-80.049-101.567v-1.349c52.447-9.411 94.854-49.12 94.854-106.273 0-77.412-67.941-133.815-178.919-133.815-56.523 0-104.266 14.805-129.828 30.899l20.828 76.663zM870.652 573.798c0-135.194-54.485-228.041-166.212-228.041-113.016 0-162.796 101.599-163.455 225.371 0 126.474 53.856 226.691 166.842 226.691 117.032-0.032 162.825-104.295 162.825-224.024zM643.927 571.102c-0.688-100.219 23.526-147.991 63.205-147.991 39.651 0 61.227 49.78 61.227 149.31 0 96.863-20.888 147.991-61.887 147.991-37.672 0.032-63.265-47.742-62.546-149.31zM230.226 159.705l-15.255-58.081h-50.229l65.485 226.572h63.565l66.413-226.572h-52.12l-16.543 58.081h-61.318zM284.562 198.066l-13.338 48.071c-3.806 13.456-7.611 30.299-10.788 43.726h-0.66c-3.178-13.427-6.353-30.598-9.86-43.726l-12.709-48.071h47.353zM453.082 101.624v226.572h56.584l44.504-83.045c12.708-23.886 25.414-52.12 34.975-77.711h0.929c-3.147 29.911-4.165 60.569-4.165 94.464v66.202h44.504v-226.541h-50.857l-45.764 87.392c-12.709 24.187-26.705 53.437-37.193 79.961l-0.959-0.36c1.257-29.91 1.888-61.798 1.888-98.811v-68.182l-44.445 0.061zM738.215 154.341c13.097-7.012 33.088-14.115 53.767-14.115 22.208 0 34.016 9.71 34.016 24.515 0 14.146-10.19 22.179-35.933 31.918-35.603 13.127-58.77 33.986-58.77 66.863 0 38.631 30.508 68.182 81.009 68.182 24.187 0 41.928-5.394 54.666-11.42l-10.759-41.358c-8.602 4.377-23.886 10.729-44.835 10.729s-31.139-10.069-31.139-21.848c0-14.445 12.049-20.829 39.739-31.887 37.822-14.805 55.564-35.604 55.564-67.553 0-38.032-27.663-70.309-86.463-70.309-24.425 0-48.64 6.743-60.658 13.816l9.8 42.466z" />
<glyph unicode="&#xe609;" d="M426.94 222.26c-1.182 2.211-2.132 4.32-3.187 6.428-0.85 1.775-1.799 3.649-2.572 5.323-1.338 2.956-2.469 5.734-3.549 8.431-0.283 0.694-0.566 1.44-0.85 2.108-1.207 3.162-2.237 6.171-3.163 9.1-0.027 0.076-0.077 0.18-0.103 0.283-4.833 15.502-6.12 27.302-6.246 34.013h425.088c19.332 0 34.962 15.657 34.962 34.989v382.129c0.027 19.332-15.684 35.014-34.962 35.014h-641.756c-19.332 0-35.014-15.684-35.014-35.014v-382.129c0-19.332 15.684-34.989 35.014-34.989h94.812c7.841-15.913 28.048-50.723 71.469-92.19 5.22-4.96 10.773-9.718 16.452-14.32 0.666-0.541 1.338-1.105 2.005-1.646 5.424-4.268 11.004-8.356 16.607-12.262 0.95-0.643 1.903-1.362 2.854-1.955 5.528-3.754 11.106-7.301 16.607-10.618 0.976-0.566 1.955-1.182 2.904-1.724 5.554-3.265 11.054-6.324 16.377-9.1 0.72-0.437 1.44-0.747 2.185-1.105 5.501-2.829 10.876-5.475 15.887-7.685 0.103-0.051 0.205-0.103 0.308-0.155 4.987-2.237 9.642-4.061 13.96-5.708 0.541-0.205 1.105-0.436 1.646-0.566 4.035-1.492 7.634-2.596 10.824-3.445 0.541-0.155 1.131-0.308 1.646-0.411 2.983-0.694 5.475-1.105 7.43-1.157 0.385 0 0.694 0 1.055 0.027 1.595 0.076 2.854 0.308 3.395 0.95 7.661 8.768-24.218 34.784-54.682 84.401-2.75 4.499-5.193 8.844-7.403 12.982zM555.995 359.977h-69.027v73.809h69.027v-73.809zM446.169 637.319c10.413 12.444 24.45 21.544 42.113 27.328 16.222 5.22 33.986 7.817 53.397 7.817 30.079 0 54.526-5.811 73.373-17.353 23.112-14.19 34.732-35.451 34.732-63.809 0-21.106-7.226-39.053-21.723-53.807-3.471-3.445-19.847-15.604-49.052-36.428-11.004-7.817-17.532-12.753-19.536-14.757-6.068-6.068-9.848-13.035-11.26-20.848h-55.118c0 11.595 0.976 20.438 3.009 26.531 2.596 7.533 7.482 14.937 14.705 22.185 13.573 9.847 27.328 19.692 41.212 29.538 16.248 14.062 24.397 27.585 24.397 40.517 0 12.057-3.623 21.544-10.85 28.433s-17.096 10.335-29.513 10.335c-15.348 0-27.763-4.755-37.329-14.217-9.538-9.461-14.32-21.801-14.32-36.995l-62.060 20.385c7.199 19.667 15.169 34.733 23.83 45.144z" horiz-adv-x="1023" />
<glyph unicode="&#xe60a;" d="M501.269 498.087c-66.685 0-120.922-54.238-120.922-120.921s54.238-120.921 120.922-120.921c66.685 0 120.944 54.238 120.944 120.921s-54.26 120.921-120.944 120.921zM501.269 320.384c-31.29 0-56.761 25.452-56.761 56.761s25.451 56.761 56.761 56.761c31.311 0 56.781-25.452 56.781-56.761s-25.472-56.761-56.781-56.761zM825.025 690.057c-16.917 16.404-44.015 16.042-60.463-0.963l-82.596-85.27c-18.864 15.080-39.652 27.782-61.915 37.811l34.412 112.133c6.93 22.586-5.752 46.517-28.315 53.446-22.562 6.823-46.517-5.775-53.468-28.338l-35.012-114.058c-11.977 1.499-24.060 2.546-36.442 2.546-160.018 0-290.2-130.182-290.2-290.2s130.182-290.22 290.22-290.22c159.995 0 290.2 130.203 290.2 290.22 0 60.868-18.926 117.349-51.072 164.059l85.61 88.349c16.468 16.94 16.018 44.036-0.963 60.483zM501.247 172.472c-112.858 0-204.675 91.815-204.675 204.675 0 112.837 91.815 204.651 204.675 204.651 112.837 0 204.651-91.815 204.651-204.651 0-112.858-91.815-204.675-204.651-204.675z" horiz-adv-x="1017" />
<glyph unicode="&#xe60b;" d="M371.692 282.399l-186.675 142.152 186.675 142.111v-73.277h47.8v205.19h31.867v60.273h-300.913v-538.481h269.046v135.311h-47.8zM483.021 756.92v-58.348h58.348zM743.404 533.053v142.541h-300.933v-182.19h63.877v73.257l186.655-142.111-186.655-142.152v73.277h-63.877v-218.521h443.453v395.899zM775.045 673.669v-108.933h108.954zM528.835 378.675l0.492-11.51v-38.359l125.747 95.744-125.747 95.724v-49.889h-180.142l-0.471 11.489v38.4l-125.747-95.724 125.747-95.744v49.869h93.757z" />
<glyph unicode="&#xe60c;" d="M801.479 230.116l-51.355 211.42c-4.399 18.223-22.79 29.412-40.988 24.99l-20.64-5.002c-5.802-1.426-11.429-4.277-15.998-8.096-6.525 14.839-22.911 23.371-39.175 19.43l-20.64-5.028c-6.791-1.644-12.64-5.292-17.038-10.053-7.637 11.65-22.088 17.908-36.444 14.43l-20.64-5.028c-6.017-1.451-11.262-4.447-15.444-8.434l-29.219 120.355c-5.825 23.901-29.992 38.596-53.846 32.795-23.926-5.825-38.62-29.967-32.819-53.87l55.512-228.527c-8.216-6.622-15.347-14.62-20.977-23.901l-12.832-21.026c-26.801-43.985-12.809-101.578 31.175-128.377l58.581-35.697c2.899-1.739 5.849-3.311 8.821-4.713 22.306-23.226 56.093-34.367 89.637-26.198l115.545 28.059c50.052 12.179 80.914 62.619 68.782 112.477zM518.33 667.72c2.73-9.934 4.205-20.396 4.205-31.2 0-11.577-1.692-22.74-4.786-33.325 2.271-4.713 4.133-9.692 5.438-14.959l14.742-60.708c24.264 29.725 38.861 67.693 38.861 108.996 0 26.681-6.091 51.985-16.99 74.579l-35.188-38.306c-1.862-2.055-4.011-3.698-6.284-5.076zM392.295 615.3c9.958 12.446 23.95 21.823 40.626 25.883 5.777 1.402 11.698 2.129 17.617 2.129 3.020 0 5.969-0.266 8.893-0.628l67.427 73.422c10.392 11.31 10.030 28.227 0.315 39.66l0.774 0.847c-31.369 32.335-75.234 52.467-123.713 52.467-95.148 0.023-172.558-77.384-172.558-172.558 0-93.554 74.87-169.922 167.845-172.436l-13.486 55.537c-56.623 8.773-100.101 57.857-100.101 116.898 0 65.229 53.071 118.301 118.301 118.301 22.21 0 42.969-6.236 60.758-16.942l-73.952-80.502c-11.094-12.083-10.44-30.767 1.255-42.077z" horiz-adv-x="1020" />
<glyph unicode="&#xe60d;" d="M105.938 357.203h27.139v-58.724h51.945v106.17h-24.835v29.39h103.92v-54.223h56.474v140.060h29.39v29.39h27.112v-55.742h49.697v-52.706h33.89v52.706l76.808 42.186v65.502h83.588v-61.002l36.168-74.556h18.057v124.281h20.333v-119.753h29.39v-196.562h42.918v438.319h13.557v97.141h54.223v-72.308h33.89v-76.808h49.616v-573.038h-813.274z" horiz-adv-x="1025" />
<glyph unicode="&#xe60e;" d="M940.576 393.007l-68.813 236.498c-4.404 15.322-20.459 24.134-35.806 19.7l-60.145-17.276c-15.35-4.493-24.163-20.514-19.728-35.867l68.813-236.498c4.404-15.322 20.486-24.134 35.834-19.7l60.173 17.306c15.381 4.492 24.104 20.513 19.671 35.836v0zM698.623 585.262c-21.742-0.527-57.577 3.473-66.011 7.411-8.432 3.968-13.893 6.477-20.544 9.573-33.122 15.468-60.67 28.306-60.67 28.306-0.934 0.494-1.896 0.64-2.83 1.023-0.264 0.088-0.467 0.145-0.671 0.175-3.415 1.371-7.062 2.306-10.913 2.656l-80.604 7.178c-9.542 0.847-18.648-1.751-26.002-6.83-0.146-0.059-0.381-0.262-0.701-0.556-1.808-1.283-3.502-2.656-5.049-4.263-20.048-17.452-84.162-75.582-84.162-75.582 1.721-1.721 4.262-3.792 7.588-5.923 2.102-1.371 4.582-2.714 7.294-3.999 2.423-1.139 4.989-2.16 7.852-3.093 1.198-0.38 2.392-0.818 3.708-1.139 14.824-3.852 36.947-4.263 61.897 12.84 2.306 1.632 15.846 11.002 19.932 13.978 6.566 4.817 18.356 9.31 36.040 7.968 17.686-1.343 45.701-9.252 45.701-9.252l267.169-163.919-54.952 189.131c0.030 0.030-22.267-5.137-44.067-5.691l0.002 0.005zM485.296 330.237c-15.173 4.522-31.167-4.114-35.661-19.32l-18.707-61.985c-4.493-15.204 4.143-31.139 19.348-35.661 15.173-4.522 31.139 4.203 35.661 19.348l18.678 61.956c4.523 15.234-4.143 31.167-19.319 35.659l0.001 0.002zM422.348 371.762c-15.173 4.523-31.139-4.113-35.633-19.377l-22.444-72.782c-4.493-15.204 4.174-31.166 19.346-35.719 15.204-4.465 31.14 4.203 35.661 19.377l22.413 72.869c4.493 15.145-4.144 31.109-19.348 35.633l0.006-0.002zM349.332 378.941c-15.204 4.493-31.195-4.143-35.69-19.347l-14.678-47.658c-4.493-15.205 4.174-31.141 19.347-35.634 15.173-4.523 31.167 4.144 35.692 19.348l14.651 47.627c4.522 15.204-4.144 31.167-19.319 35.661l-0.002 0.003zM279.703 397.297c-15.204 4.493-31.195-4.174-35.692-19.378l-4.551-14.532c-4.523-15.204 4.143-31.109 19.347-35.661 15.174-4.493 31.14 4.203 35.661 19.348l4.55 14.532c4.523 15.204-4.143 31.167-19.318 35.692l0.003-0.002zM247.515 619.467l-55.975 29.066c-14.944 5.575-31.601-1.984-37.179-16.927l-86.38-230.661c-5.603-14.944 1.955-31.6 16.953-37.237l55.975-29.123c14.913-5.516 31.601 2.014 37.179 16.953l86.38 230.631c5.574 14.999-1.955 31.663-16.953 37.297v0zM586.82 260.491l-35.106 21.536c-0.059 0-0.059 0-0.118 0.059l-31.43 19.261c-0.145-3.647-0.671-7.267-1.692-10.886l-14.123-46.692 52.441-32.187c13.482-8.317 31.139-4.058 39.427 9.425 8.318 13.54 4.114 31.194-9.397 39.485l-0.003-0.001zM780.829 395.458l-155.836 95.632c-0.613 0.35-1.226 0.671-1.837 1.023l-98.491 60.553c-7.705 2.014-28.221 6.944-40.943 7.911-0.904 0.088-1.778 0.118-2.656 0.175-14.123 0.527-21.332-3.591-23.756-5.368-4.321-3.15-18.181-12.784-20.312-14.241-17.976-12.343-36.799-18.241-56.001-17.541-5.981 0.262-11.934 1.11-17.713 2.598-1.225 0.35-2.421 0.671-3.591 1.080l-0.759 0.233c-3.443 1.139-6.623 2.422-9.688 3.852-3.151 1.46-6.188 3.093-9.018 4.933-3.909 2.509-7.381 5.253-9.982 7.88l-10.68 10.74 11.206 10.183c1.549 1.431 23.989 21.771 46.169 41.732-9.425-0.728-18.415-1.692-25.622-3.15-27.811-5.488-72.636-26.381-72.636-26.381l-69.076-184.96c0 0 15.554-26.148 15.966-24.863l4.641 14.796c5.543 18.679 23.227 31.371 42.899 30.644 3.62-0.118 7.207-0.728 10.651-1.778 11.091-3.241 20.194-10.652 25.682-20.779 1.168-2.19 2.129-4.465 2.918-6.8 8.11 7.294 18.88 11.468 30.381 11.032 3.591-0.176 7.178-0.728 10.68-1.778 11.032-3.27 20.134-10.622 25.621-20.837 0.322-0.526 0.526-1.023 0.817-1.577 8.288 10.855 21.536 17.511 35.897 17.015 3.621-0.176 7.208-0.728 10.68-1.778 11.061-3.297 20.166-10.651 25.651-20.807 4.057-7.382 5.749-15.612 5.107-23.813 6.477 3.356 13.832 5.166 21.509 4.844 3.621-0.145 7.208-0.728 10.68-1.752 11.061-3.27 20.166-10.622 25.681-20.779 0.672-1.255 1.255-2.451 1.779-3.708 1.023-0.145 2.014-0.467 3.006-1.024l39.367-24.163c0.059 0 0.059-0.030 0.088-0.059l68.9-42.284c13.452-8.288 31.11-4.085 39.456 9.397 8.288 13.51 4.058 31.194-9.453 39.455l-103.338 63.533c-3.415 2.043-4.493 6.538-2.393 9.983 2.071 3.383 6.595 4.436 10.011 2.364l39.484-24.22c0.118-0.059 0.145-0.145 0.234-0.234l88.363-54.22c13.482-8.288 31.167-4.027 39.455 9.425 8.288 13.51 4.057 31.167-9.452 39.456l-95.371 58.569c0 0 0 0 0 0.030l-41.847 25.709c-3.646 2.189-4.787 6.917-2.568 10.535 2.218 3.646 6.974 4.76 10.593 2.54l159.425-97.881c13.511-8.258 31.167-4.086 39.455 9.425 8.258 13.541 4.057 31.195-9.425 39.514l-0.011-0.018z" horiz-adv-x="1009" />
<glyph unicode="&#xe60f;" d="M641.269 262.163c-0.986 0.962-2.090 1.803-3.366 2.38l-25.241 11.227c-5.72 2.525-10.143 9.712-9.854 15.961l-0.409 13.342-0.409 13.317c-0.601 6.273 3.413 13.679 8.967 16.538l24.54 12.693c2.090 1.082 3.652 2.884 4.929 4.881 0.625 1.009 1.178 2.020 1.538 3.148s0.77 2.26 0.864 3.438c0.145 1.564 0 3.148-0.457 4.614 0 0-2.717 9.036-6.587 18.895-0.962 2.498-1.947 4.976-3.053 7.427-2.742 6.105-6.082 12.285-8.699 16.898-2.62 4.639-4.568 7.765-4.568 7.765-1.105 1.803-2.765 3.126-4.591 4.207-0.457 0.24-0.841 0.48-1.297 0.648-2.403 1.13-4.976 1.538-7.549 1.275-1.058-0.145-2.14-0.217-3.126-0.553l-25.792-9.905c-1.564-0.601-3.342-0.841-5.12-0.887-0.336 0-0.648 0.096-1.009 0.096-1.827 0.097-3.678 0.481-5.455 1.082-0.506 0.169-1.009 0.336-1.49 0.553-1.97 0.864-3.847 1.97-5.217 3.485l-19.398 18.292c-3.629 2.958-5.889 8.244-6.009 13.221-0.046 1.658 0.169 3.269 0.625 4.759l8.414 26.299c0.481 1.49 0.625 3.053 0.506 4.591-0.217 3.269-1.706 6.417-3.989 8.751-0.986 0.986-2.043 1.875-3.292 2.475l-36.633 13.919c0 0 0 0 0 0l-15.481 5.889c-6.009 1.706-13.005-1.611-15.527-7.284l-11.249-25.334c-2.499-5.673-9.688-10.167-15.961-9.854l-26.635-0.818c-6.249-0.601-13.655 3.438-16.538 8.967l-12.693 24.54c-2.837 5.576-10.096 8.654-16.080 6.898 0 0-14.061-4.159-26.275-9.64s-24.662-13.244-24.662-13.244c-5.338-3.292-7.813-10.77-5.553-16.587l9.904-25.816c2.26-5.817 0.336-14.062-4.278-18.292l-18.39-19.375c-3.893-4.88-12.020-7.308-17.956-5.361l-26.322 8.39c-5.962 1.924-13.052-1.13-15.794-6.755l-19.807-52.116c-1.705-6.009 1.587-12.98 7.308-15.527l25.241-11.203c5.696-2.549 10.167-9.736 9.854-15.961l0.818-26.683c0.577-6.226-3.461-13.655-8.967-16.538l-24.565-12.693c-5.529-2.861-8.631-10.12-6.874-16.13 0 0 4.159-14.062 9.64-26.251 5.455-12.235 13.221-24.663 13.221-24.663 3.318-5.313 10.77-7.837 16.586-5.553l25.816 9.878c5.817 2.26 14.037 0.336 18.292-4.231l19.422-18.39c4.831-3.893 7.259-12.020 5.361-17.979l-8.39-26.299c-1.924-5.986 1.13-13.078 6.731-15.794l52.116-19.807c6.034-1.73 13.029 1.564 15.527 7.284l11.227 25.241c2.549 5.697 9.736 10.192 15.986 9.878l26.659 0.794c6.226 0.625 13.63-3.438 16.514-8.967l12.669-24.565c2.884-5.505 10.143-8.654 16.154-6.851 0 0 14.037 4.159 26.251 9.616s24.663 13.244 24.663 13.244c5.338 3.318 7.813 10.77 5.553 16.587l-9.904 25.769c-2.26 5.841-0.313 14.086 4.278 18.315l18.365 19.422c3.943 4.831 12.020 7.259 17.979 5.384l26.299-8.438c5.962-1.899 13.078 1.154 15.817 6.731l9.977 26.225 7.235 19.062 2.597 6.827c0.434 1.49 0.529 3.101 0.385 4.614-0.313 3.269-1.924 6.37-4.301 8.606zM455.286 249.229c-28.124-12.597-61.105-0.047-73.702 28.029-12.62 28.101-0.046 61.081 28.029 73.677s61.081 0.047 73.702-28.076c12.62-28.004 0.047-61.008-28.029-73.628zM855.593 527.061h0.529l-173.412 282.015-173.436-282.015h0.529c-0.264-0.434-0.505-0.864-0.722-1.297l34.086-12.956 1.731-0.77c14.976-7.259 22.739-25.406 17.668-41.247l-7.499-23.557 17.092-16.13 23.051 8.847c3.871 1.515 7.981 2.26 12.26 2.26 12.26 0 23.749-6.273 29.951-16.345 0.384-0.529 8.582-13.823 14.641-27.211 5.986-13.342 10.433-28.364 10.624-28.965 4.665-15.817-2.861-33.438-17.5-40.937l-22.020-11.419 0.697-23.462 22.571-10c15.216-6.778 23.606-24.662 19.062-40.673l-0.553-1.756-8.461-22.282c8.533-1.082 17.283-1.73 26.151-1.73 112.161 0 203.074 90.935 203.074 203.097 0.096 39.085-10.984 75.551-30.119 106.536z" horiz-adv-x="1057" />
<glyph unicode="&#xe610;" d="M0 158.878h277.262v160.844l-11.387-0.381c-0.666-11.48-4.155-22.832-10.877-32.378-17.377-26.892-54.703-37.484-83.848-24.578-19.79 8.119-35.232 26.197-39.672 47.189-0.444 1.967-0.759 3.996-1.046 5.993l-12.59-0.317c-11.575-0.253-23.818-3.266-35.074 0.887-1.143 12.432 0.857 24.862 0.316 37.327-6.057 1.679-12.685 2.662-17.695 6.692-1.396 9.418-1.491 19.057-1.68 28.508 0.412 8.691 14.524 1.586 15.444 10.401-0.096 5.962-1.268 11.89-0.95 17.854 3.773 7.611 0.761 16.27 0.983 24.323 0.444 5.074-5.073 7.959-4.853 13.035-0.794 10.525 3.298 20.549 7.167 30.127 10.75 24.481 25.308 47.125 40.972 68.69 1.808 2.345 3.486 5.548 6.882 5.612 48.934 9.863 98.34 17.221 147.907 22.897v155.518h-277.26l-0.001-578.243zM337.071 158.878h277.261v170.233l-277.261-7.707v-162.526zM337.071 587.662c0.95 0.065 1.872 0.19 2.823 0.285 39.448 3.17 79.029 5.298 118.637 4.378 19.884-0.73 39.927-1.84 59.271-6.532 11.005-2.537 20.898-8.086 31.173-12.59 21.631-9.609 43.54-18.52 65.358-27.812v191.733h-277.261l-0.001-149.462zM674.144 737.121v-219.895c6.343-3.395 12.59-6.882 18.838-10.592 3.139-1.808 6.153-4.091 9.829-4.757 45.888-7.579 92.155-13.572 136.933-26.13 15.856-4.947 32.856-10.526 44.111-23.467 8.372-10.085 10.974-23.785 10.592-36.627 4.091-0.697 10.275 0.477 12.336-4.028 0.857-8.562 1.618-17.157 1.174-25.751-1.109-5.2-6.564-7.261-11.386-7.832-4.027-8.722-8.245-17.569-11.386-26.703 2.727-4.091 6.69-7.736 7.737-12.749-25.021-1.776-50.107-2.95-75.19-3.835l-9.768-0.286c-1.968-7.768-5.326-15.157-10.243-21.691-19.092-27.559-59.396-36.346-88.446-19.947-15.222 7.768-26.322 21.944-31.712 37.991l-3.362-0.127v-171.883h277.261v578.308l-277.318 0.001z" horiz-adv-x="951" />
<glyph unicode="&#xe611;" d="M539.45 797.792c-191.451 0-346.668-156.596-346.668-349.782 0-193.159 155.216-349.782 346.668-349.782 191.473 0 346.691 156.623 346.691 349.782 0 193.183-155.239 349.782-346.691 349.782zM539.45 118.175c-180.264 0-326.888 147.96-326.888 329.837 0 181.855 146.626 329.86 326.888 329.86 180.309 0 326.911-148.007 326.911-329.86 0-181.879-146.602-329.837-326.911-329.837zM539.45 763.689c-172.491 0-312.845-141.616-312.845-315.676s140.352-315.676 312.845-315.676c172.538 0 312.89 141.664 312.89 315.676 0 174.059-140.352 315.676-312.89 315.676zM733.826 670.641c45.762-40.683 78.838-95.503 92.625-157.743-4.519-0.821-12.827-2.598-21.793-3.581-12.827 56.668-42.978 106.645-84.549 143.98 4.776 6.718 10.744 13.598 13.717 17.344zM636.076 542.813c5.595 14.91 31.367 68.14 43.937 94.17 0.679 1.406 2.014 3.815 3.301 5.946 50.327-37.851 85.415-95.128 94.591-160.787-2.785-0.14-6.439-0.165-8.309-0.046-28.674 1.92-86.724 5.689-102.315 8.168-19.101 3.768-30.22 17.041-30.22 17.041s-0.022 0-0.046-0.046c-1.428 3.909-6.321 19.452-0.937 35.557zM642.255 448.016c0-57.184-46.113-103.79-102.829-103.79-56.693 0-102.807 46.58-102.807 103.79 0 57.208 46.136 103.767 102.807 103.767 56.717 0 102.829-46.558 102.829-103.767zM567.796 581.576c0 0-15.661-19.452-34.503-17.696-3.722 0.561-18.093 3.581-30.008 15.591-10.768 11.634-50.28 63.928-67.883 86.891-0.187 0.234-0.258 0.446-0.422 0.703 31.578 15.331 67.015 23.971 104.446 23.971 32.864 0 64.207-6.673 92.741-18.678-15.472-24.391-64.372-90.775-64.372-90.775zM539.45 744.774c31.32 0 61.468-4.962 89.792-14.114-4.519-8.73-8.943-17.344-10.276-20.014-25.141 7.726-51.848 11.89-79.494 11.89-33.823 0-66.197-6.227-96.112-17.673-5.009 7.396-9.034 15.262-11.282 19.405 33.263 13.201 69.451 20.505 107.371 20.505zM386.457 635.672c14.278-23.829 52.198-100.793 52.198-100.793s10.16-18.935 0.234-35.207l-0.141-0.258c-4.050-4.119-13.529-12.289-27.574-15.45-15.519-2.878-73.453-8.403-102.058-11.026-2.108-0.234-6.485-0.304-9.316-0.211 6.6 65.493 38.95 123.336 86.654 162.941zM331.427 657.814c6.367-6.414 11.939-13.272 14.631-16.713-37.287-38.014-63.575-86.937-73.875-141.687-9.198 1.241-17.742 2.833-21.747 3.371 11.071 59.97 39.932 113.622 80.989 155.029zM345.915 224.68c-45.716 40.332-78.908 94.778-92.998 156.55 8.333 0.468 17.344 0.727 22.4 0.865 13.413-54.916 43.164-103.274 83.802-139.579-5.338-7.257-11.377-14.98-13.201-17.837zM442.214 355.645c-5.57-14.817-27.527-66.713-40.098-92.765-1.264-2.645-5.080-9.034-5.992-10.042-0.022-0.022-0.071-0.046-0.071-0.071-50.443 37.805-85.695 94.966-94.966 160.6 25.586-0.234 112.637-8.403 112.637-8.403s22.752-1.897 31.039-19.101l0.468-1.264c1.336-6.063 1.241-16.15-3.018-28.956zM539.45 151.25c-30.782 0-60.486 4.821-88.388 13.669 3.604 6.999 7.608 15.053 10.112 20.154 24.813-7.491 51.075-11.564 78.276-11.564 29.001 0 56.927 4.564 83.167 13.062 3.066-9.434 6.086-17.789 7.582-20.834-28.581-9.364-59.081-14.489-90.752-14.489zM539.45 205.041c-32.583 0-63.646 6.578-92.038 18.398 0.046 0.071 0.071 0.141 0.117 0.187 11.889 20.083 62.967 93.35 62.967 93.35s12.57 17.321 31.462 15.567l-0.022 0.703c4.681-1.193 17.626-5.501 28.019-17.437 9.877-12.335 43.258-62.522 59.199-86.608 0.821-1.241 2.084-3.395 3.208-5.43-28.605-12.078-59.971-18.725-92.904-18.725zM683.407 253.144c-13.155 26.029-45.951 102.643-45.951 102.643s-9.269 19.826 1.781 35.369l0.492 0.937c8.052 16.759 27.059 19.149 27.059 19.149s86.373 10.604 112.193 11.61c-7.023-69.335-43-130.053-95.574-169.706zM734.88 226.318c-5.36 8.754-10.346 16.572-11.939 19.008 41.456 38.178 71.112 89.208 82.932 146.767 5.080-0.117 14.045-0.327 22.33-0.492-12.451-65.262-46.019-122.868-93.327-165.282zM539.45 537.618c-48.945 0-88.763-40.192-88.763-89.628 0-49.366 39.817-89.559 88.763-89.559s88.763 40.192 88.763 89.559c0.022 49.437-39.817 89.628-88.763 89.628zM504.221 517.135c8.614 0 15.613-7.047 15.613-15.73s-6.999-15.753-15.613-15.753c-8.614 0-15.637 7.070-15.637 15.753 0 8.685 7.023 15.73 15.637 15.73zM479.642 416.061c-8.613 0-15.613 7.047-15.613 15.729 0 8.708 6.999 15.777 15.613 15.777s15.613-7.070 15.613-15.777c0-8.685-6.999-15.729-15.613-15.729zM539.45 369.175c-8.613 0-15.613 7.070-15.613 15.729 0 8.684 6.999 15.799 15.613 15.799s15.613-7.116 15.613-15.799c0-8.662-6.999-15.729-15.613-15.729zM539.45 409.576c-21.043 0-38.084 17.18-38.084 38.413 0 21.28 17.040 38.484 38.084 38.484 21.066 0 38.107-17.206 38.107-38.484 0-21.23-17.040-38.413-38.107-38.413zM561.968 497.987c0 8.685 6.953 15.799 15.591 15.799 8.613 0 15.637-7.115 15.637-15.799 0-8.685-7.023-15.753-15.637-15.753-8.637 0-15.591 7.070-15.591 15.753zM614.775 426.967c0-8.684-6.999-15.753-15.637-15.753-8.59 0-15.591 7.070-15.591 15.753 0 8.708 6.999 15.753 15.591 15.753 8.637 0 15.637-7.047 15.637-15.753z" horiz-adv-x="1063" />
<glyph unicode="&#xe612;" d="M614.835 104.758c-25.695 5.468-51.078 14.858-75.089 28.731-122.242 70.607-164.601 226.324-95.485 348.999-5.42-10.307-8.573-22.011-8.573-34.487 0-12.523 3.156-24.3 8.668-34.631-0.047 0.047-0.047 0.097-0.097 0.143-2.77 4.888-5.323 9.922-7.754 14.906 10.042-132.91 120.966-237.666 256.45-237.666 27.597 0 54.089 4.383 78.941 12.403-42.287-45.369-96.232-79.785-157.062-98.401zM859.293 367.47c-17.556-19.507-38.338-36.654-62.326-50.549-123.011-71.018-280.364-28.849-351.357 94.185-0.193 0.361-0.385 0.675-0.554 1.011 12.619-22.614 36.725-37.906 64.42-37.906 27.742 0 51.897 15.339 64.517 38.003-0.241-0.434-0.409-0.747-0.577-1.106-0.217-0.337-0.409-0.674-0.625-1.011-0.239-0.481-0.506-0.889-0.796-1.324-2.867-4.888-5.925-9.562-9.032-14.209 110.079 75.159 145.335 223.601 77.615 340.929-13.848 23.938-30.947 44.743-50.379 62.3 62.469-14.329 118.677-44.962 163.975-87.177 8.069-24.972 12.546-51.488 12.546-79.157 0-142.036-115.183-257.245-257.268-257.245-0.385 0-0.771 0.046-1.156 0.046-0.554 0-1.060 0-1.566 0.047-5.634 0.047-11.246 0.337-16.832 0.698 120.145-57.749 266.325-14.063 334.067 103.241 13.871 23.961 23.359 49.247 28.803 74.895 10.188-33.258 15.701-68.562 15.701-105.169 0.047-27.67-3.204-54.62-9.174-80.507zM582.469 467.556c-10.018 132.933-120.941 237.689-256.45 237.689-27.574 0-54.089-4.382-78.966-12.403 42.335 45.369 96.232 79.759 157.087 98.425 25.743-5.491 51.078-14.88 75.089-28.754 122.264-70.584 164.625-226.348 95.461-349.021 5.468 10.308 8.598 22.011 8.598 34.511-0.046 6.574-0.337 13.101-0.82 19.556zM582.735 456.525c-0.097 0.796-0.239 1.59-0.337 2.409 0.097-0.796 0.241-1.614 0.337-2.409zM581.218 464.953c-0.193 0.796-0.409 1.565-0.602 2.36 0.217-0.796 0.409-1.565 0.602-2.36zM578.689 473.332c-0.193 0.554-0.434 1.204-0.602 1.782 0.169-0.577 0.409-1.204 0.602-1.782zM574.74 482.438c-0.047 0.046-0.047 0.046-0.047 0.046v0l0.047-0.046zM159.659 528.554c17.58 19.507 38.364 36.628 62.3 50.499 123.057 71.040 280.386 28.899 351.43-94.162 0.169-0.337 0.361-0.698 0.53-1.037h0.047c-12.596 22.614-36.773 37.953-64.517 37.953-27.718 0-51.848-15.339-64.444-37.953 0.193 0.337 0.361 0.698 0.577 1.037 0.169 0.337 0.409 0.65 0.577 1.011 0.289 0.458 0.554 0.915 0.843 1.349 2.867 4.841 5.876 9.562 9.055 14.184-110.127-75.136-145.359-223.601-77.641-340.929 13.8-23.914 30.874-44.696 50.307-62.274-62.419 14.354-118.653 44.985-163.951 87.202-8.068 24.925-12.546 51.511-12.546 79.133-0.023 142.013 115.137 257.221 257.221 257.221h1.204c0.53 0 1.037-0.047 1.542-0.047 5.659-0.046 11.246-0.337 16.808-0.747-120.099 57.796-266.301 14.087-334.043-103.241-13.825-23.938-23.313-49.223-28.826-74.871-10.138 33.209-15.653 68.538-15.653 105.12 0 27.694 3.227 54.668 9.174 80.554z" horiz-adv-x="1019" />
<glyph unicode="&#xe613;" d="M650.887 676.577h92.22v52.999h-132.077l-37.154-128.789 50.933-14.706zM916.099 414.73l-1.855 26.42-85.039-6.017c-5.856 9.594-16.297 16.033-28.354 15.397-12.428-0.663-22.578-8.586-27.11-19.32l-69.615-4.93c-6.623 72.451-35.615 145.538-87.158 145.538l-2.651-0.078c-53.847-2.862-75.551-81.46-73.723-157.038l-53.344-3.764c-7.287 96.223-38.875 190.509-89.915 221.938l17.462 70.198h142.809v52.999h-184.2l-28.46-113.976c-67.549-15.476-97.759-131.863-93.307-247.774l-131.97-9.327 1.855-26.42 131.731 9.327c9.83-116.045 54.962-227.982 126.776-227.982l3.419 0.078c74.677 3.975 108.703 123.806 105.125 244.514l53.53 3.789c7.023-71.683 35.961-143.207 86.946-143.207l2.624 0.053c53.316 2.835 75.154 79.871 73.83 154.733l68.927 4.878c5.512-10.785 16.908-17.94 29.759-17.252 13.251 0.714 24.061 9.513 28.117 21.36l83.793 5.856zM616.277 518.9c8.161-2.545 29.044-34.953 34.742-96.355l-57.373-4.029c-1.034 62.249 16.35 97.071 22.63 100.382zM360.048 591.008c21.888 0 65.348-63.175 74.306-183.803l-35.643-2.517c-5.14 11.634-16.908 19.533-30.369 18.814-13.805-0.714-24.752-10.362-28.354-22.948l-35.429-2.493c-4.081 114.347 29.655 191.594 55.49 192.945zM380.667 192.951l-0.608-26.526v26.5c-21.571 0-64.156 61.373-73.935 178.689l38.398 2.729c6.044-8.694 15.849-14.522 27.188-13.887 11.766 0.608 21.253 7.869 26.155 17.649l37.841 2.703c2.889-111.591-30.211-186.56-55.039-187.859zM629.182 298.155c-8.4 3.737-28.143 35.325-33.975 93.891l57.187 4.029c0.557-60.022-16.058-93.915-23.213-97.918z" horiz-adv-x="1020" />
<glyph unicode="&#xe614;" d="M312.897 621.437c21.337-15.841 37.649-33.647 55.106-48.441 13.775-15.144 28.249-29.617 43.417-43.417 5.421-6.367 12.88-14.001 20.044-21.733 6.516-6.987 14.199-18.975 20.044-16.686 0 0 0 0 0 0.024v0c-6.093 14.896-13.477 31.806-21.511 49.362-8.157 17.806-17.132 36.257-26.806 54.883-3.358 6.466-6.641 12.93-10.121 19.348-16.537 30.288-33.348 63.659-54.335 86.464-7.012 7.559-14.473 13.977-22.531 18.725-31.531 18.527-75.546 5.223-75.124-30.065 0.422-37.449 46.775-49.908 71.817-68.46zM490.228 724.138c1.143-5.273 2.288-10.569 3.010-15.866 0.846-6.267 1.542-12.831 2.188-19.421 1.593-16.511 2.56-33.497 2.808-49.211 0.1-6.292 0.125-12.459 0-18.18v-21.733c0.596-7.137 0.621-14.247 0.397-21.285-0.224-7.060-0.722-14.050-1.119-20.938-0.422-6.889-0.796-13.653-0.771-20.267 0-6.616 0.397-13.055 1.493-19.322 11.887 33.271 29.791 73.532 43.445 116.926 3.431 10.842 7.211 23.026 10.866 35.709 8.802 30.762 16.537 64.953 14.473 93.698-0.971 13.529-4.103 25.838-10.295 35.958-4.301 7.012-10.443 11.938-17.158 15.418-24.072 12.459-57.74 2.537-59.683-32.129v0 0c-0.995-17.655 5.746-38.295 10.344-59.359zM524.967 521.222c-0.397-1.417-0.324-2.139 0.125-2.363 3.059-1.468 24.071 23.35 28.299 27.429 0.722 0.846 1.542 1.716 2.288 2.561 10.443 11.887 21.486 23.897 32.776 36.354 12.781 14.050 25.713 28.672 38.146 44.29 0.074 0.1 0.174 0.199 0.274 0.298 25.438 32.055 54.608 65.972 60.13 98.549 0.995 5.993 1.218 11.963 0.97 17.757-0.671 14.424-5.147 27.627-13.553 36.48-3.88 4.154-8.655 7.312-14.176 9.25-9.126 3.183-16.712 4.004-23.051 2.985-21.385-3.431-28.747-27.901-34.218-54.111-1.543-7.461-2.985-15.069-4.525-22.381-15.791-75.249-48.689-141.943-73.484-197.099zM696.825 578.666c22.256 12.658 43.866 25.963 63.659 41.106 5.396 6.813 11.514 12.956 18.353 18.353 11.986 13.601 15.642 29.17 13.678 43.071-0.024 0.249-0.125 0.473-0.174 0.722-2.76 17.706-14.647 32.425-29.916 36.828-10.793 3.109-23.201 1.218-35.361-8.802-17.483-14.373-29.394-44.34-46.775-66.793-19.049-24.593-37.973-43.667-53.416-60.129-6.838-5.421-12.955-11.564-18.401-18.377-6.987-6.987-15.169-14.62-23.4-22.181-8.057-7.385-16.19-14.697-23.326-21.236-4.154-3.78-11.912-8.579-10.046-12.955 0.074-0.125-0.048-0.274 0.024-0.423 49.61 22.356 99.272 44.687 145.1 70.822zM570.076 489.491c6.142 0.423 12.435 0.747 18.849 1.045 91.785 4.178 204.907-1.517 253.348 39.041 2.164 1.816 4.276 3.904 6.241 6.216 13.75 16.113 21.236 42.797 7.113 60.603-28.499 36.007-74.825-8.305-98.524-23.4-52.869-33.621-131.846-60.553-187.026-83.504zM643.584 197.226c-13.204 19.719-24.37 40.609-34.863 61.919-6.789 13.802-13.33 27.753-19.372 42-12.184 28.897-23.326 58.438-34.268 88.13-0.423 1.293-0.074 3.283-1.666 3.332 4.129-65.899 0.373-149.452 13.75-211.274 4.402-20.342 10.643-38.37 19.67-52.594 8.977-14.223 29.419-32.677 53.415-30.040 11.938 1.318 21.41 8.878 27.28 18.277 3.283 5.249 5.72 10.892 6.142 16.76 1.567 23.65-18.502 46.129-30.089 63.486zM701.997 285.754c-31.010 24.768-55.579 48.639-80.148 75.151-6.813 5.421-12.955 11.564-18.401 18.353-2.661 3.358-6.89 7.907-11.314 12.633-1.788 1.938-3.557 3.78-5.347 5.746-4.427 4.775-13.75 17.158-13.404 11.687 5.397-14.922 12.135-30.587 19.396-46.527 10.793-23.6 23.002-47.944 35.733-72.065 4.378-8.257 8.802-16.736 13.305-25.165 12.633-23.747 26.112-47.025 41.728-64.929 4.824-5.545 9.822-10.768 15.093-15.093 4.054-3.307 9.027-6.069 14.448-8.356 30.487-12.831 76.541-7.634 70.748 36.779-4.154 31.93-58.936 53.54-81.839 71.792zM361.34 274.884c8.802 9.625 17.309 18.377 25.016 27.528 15.716 14.373 30.737 29.394 45.084 45.084 3.804 2.313 7.235 5.943 10.718 9.872 3.481 3.954 7.012 8.232 10.99 11.862 1.617 1.468 3.557 2.909 5.57 4.378 5.147 3.68 10.593 7.336 12.435 11.116 0.722 1.517 0.995 2.985 0.348 4.525v0 0c-12.709-6.69-28.175-13.851-44.985-21.41-60.054-27.104-137.965-60.253-175.438-102.155-10.592-11.836-17.557-31.307-17.357-48.965s7.583-33.446 25.688-37.872v0 0c10.344-0.971 18.625 0.596 25.863 3.431 18.602 7.336 28.722 24.668 38.096 41.478 3.63 6.565 7.235 12.955 11.19 18.602 8.903 12.483 17.978 22.927 26.781 32.528zM527.503 246.958c-1.243 27.975-1.367 56.746-0.522 82.757 0.596 18.353 1.643 35.312 3.010 49.536v0c-15.99-28.872-32.626-72.016-46.75-116.901-7.907-25.165-16.587-52.469-21.609-79.029-3.606-18.975-5.396-37.55-3.456-54.583 3.034-26.658 22.131-54.409 50.108-53.415 45.184 1.542 35.733 48.863 28.398 85.171-4.9 24.046-7.759 54.709-9.175 86.464zM498.26 377.588c-6.241-4.85-11.836-10.419-16.686-16.686-6.837-5.447-12.956-11.564-18.401-18.401-21.808-24.421-46.726-52.444-70.102-81.814-22.654-28.35-50.928-60.875-55.131-96.884-3.755-32.004 13.702-65.75 48.417-60.13 34.393 5.596 33.795 50.853 41.753 85.197 16.562 71.443 47.895 132.095 71.817 187.026-0.1 1.094-0.249 2.015-1.667 1.691zM383.025 701.609c37.151-55.629 67.118-139.182 86.837-193.766 0 0 0 0.024 0 0.024v0c5.57-7.832 4.129 26.259 1.667 31.73 0.024 11.762-0.249 23.947-0.696 36.231-1.143 32.004-3.88 64.704-8.033 95.191-1.417 10.443-2.885 20.864-4.626 30.587-4.501 24.892-9.872 50.753-22.305 69.553-11.464 17.407-28.922 28.819-57.842 27.304 0 0 0 0-0.024 0v0c-19.719-9.376-26.011-21.783-25.29-35.361 1.070-19.97 17.557-42.424 30.313-61.497zM185.803 550.489c13.055-7.609 30.536-10.718 48.366-13.901 6.241-1.119 12.508-2.264 18.625-3.679 71.22-16.511 134.060-48.341 188.693-71.817 0 0 0 0 0 0s0.024 0 0.024 0c-22.803 27.802-58.836 58.24-95.191 88.504-28.175 23.449-73.682 66.819-113.593 73.509-13.204 2.213-26.533 1.74-37.699-2.088-18.625-6.367-31.259-21.958-27.453-49.709 3.48-9.674 10.046-16.065 18.228-20.815zM324.56 434.384h53.441c23.002 2.388 45.73-4.378 65.127 0-58.911 19.719-145.449 63.386-228.779 68.435-64.929 3.954-103.547-53.889-48.442-85.145 57.892 0.572 97.008 19.919 158.653 16.712zM884.871 452.437c-0.1 0.423-0.1 0.945-0.224 1.343-0.125 0.348-0.324 0.597-0.423 0.945-6.168 19.273-24.992 29.767-48.615 26.434-24.47-3.456-53.812-9.822-86.066-13.726-11.067-1.343-22.479-2.437-34.169-2.985-47.769-2.238-94.969-2.062-131.945 1.667v0 0c27.080-17.879 69.306-29.343 111.903-43.418 50.158-16.587 123.193-40.558 165.393-17.929 10.494 5.646 19.174 14.026 24.992 26.285 1.243 7.907 0.796 15.045-0.846 21.385zM804.426 358.815c-9.524 1.764-19.422 3.332-28.945 5.421-19.322 4.251-38.843 10.072-58.040 16.686-50.232 17.283-97.927 40.211-132.343 56.774-0.397 0.024-0.796 0-1.193-0.074-1.417-0.224-2.512-0.846-0.473-1.567 4.378-4.602 9.15-9.376 13.875-14.126 22.031-22.304 47.496-46.054 75.796-69.704 1.89-1.543 3.63-3.109 5.545-4.675 34.541-28.448 73.882-63.61 113.543-71.817 22.555-4.675 43.692 0.522 55.952 12.782 6.938 6.987 11.116 16.19 10.866 27.328-0.697 30.24-25.911 37.624-54.583 42.97zM256.1 315.792c45.929 30.638 108.993 57.645 160.692 77.909 12.93 5.048 25.34 9.822 36.381 13.977-2.537 1.914-6.837 2.062-11.488 1.866-2.339-0.1-4.75-0.298-7.060-0.397s-4.551-0.1-6.516 0.198c-5.622-1.069-15.517 2.139-18.377-1.666v0c-54.31-1.542-104.691-3.48-155.297-13.354-37.947-7.411-103.273-24.395-91.861-78.507 0.796-3.755 3.234-7.658 6.142-11.363 5.794-7.511 14.247-14.026 20.565-15.368 3.059-0.646 6.093-0.895 9.126-0.822 21.187 0.473 41.728 16.886 57.692 27.528z" horiz-adv-x="1026" />
<glyph unicode="&#xe615;" d="M811.585 786.861h-630.727c-19.002 0-34.415-15.413-34.415-34.416v-375.549c0-19.002 15.412-34.39 34.415-34.39h93.188c7.732-15.641 27.592-49.852 70.244-90.609 5.13-4.878 10.587-9.551 16.197-14.074 0.632-0.531 1.314-1.087 1.945-1.618 5.33-4.193 10.838-8.213 16.322-12.054 0.937-0.632 1.871-1.365 2.806-1.92 5.433-3.69 10.916-7.176 16.322-10.436 0.961-0.556 1.92-1.162 2.854-1.694 5.456-3.209 10.865-6.216 16.096-8.946 0.708-0.454 1.414-0.732 2.148-1.087 5.408-2.778 10.688-5.382 15.617-7.553 0.102-0.050 0.202-0.102 0.304-0.152 1.238-0.556 2.248-0.911 3.437-1.414 3.563-1.516 7.101-3.007 10.284-4.193 0.253-0.102 0.531-0.201 0.806-0.304s0.531-0.228 0.806-0.278c1.97-0.732 3.563-1.137 5.331-1.694 1.744-0.531 3.738-1.263 5.305-1.668 0.531-0.151 1.112-0.304 1.618-0.406 2.931-0.683 5.382-1.087 7.302-1.137 0.38 0 0.683 0 1.037 0.025 1.567 0.076 2.806 0.304 3.335 0.936 0.936 1.061 1.263 2.4 1.087 4.016-1.414 11.344-28.653 36.259-54.855 78.885-2.679 4.447-5.079 8.718-7.252 12.785-1.188 2.173-2.098 4.245-3.134 6.317-0.831 1.719-1.767 3.588-2.551 5.229-1.314 2.905-2.425 5.634-3.487 8.288-0.278 0.658-0.556 1.414-0.832 2.072-1.187 3.109-2.197 6.039-3.109 8.946-0.025 0.076-0.076 0.177-0.102 0.278-1.037 3.361-1.845 6.441-2.603 9.424-2.628 10.562-3.462 18.85-3.563 23.979v0 0.025h417.798c16.625 0 30.473 11.774 33.681 27.466 0.454 2.224 0.683 4.548 0.683 6.922v375.574c0.076 19.002-15.361 34.415-34.339 34.415zM539.982 413.283h-67.844v72.542h67.844v-72.542zM610.806 587.779c-3.412-3.387-19.481-15.336-48.186-35.804-10.838-7.682-17.258-12.533-19.229-14.503-5.938-5.963-9.678-12.81-11.068-20.492h-54.199c0 11.396 0.961 20.088 2.957 26.077 2.577 7.403 7.353 14.679 14.456 21.806 13.342 9.678 26.834 19.355 40.504 29.032 15.993 13.822 23.979 27.112 23.979 39.821 0 11.851-3.563 21.174-10.663 27.944s-16.803 10.158-29.007 10.158c-15.085 0-27.264-4.674-36.662-13.973-9.375-9.296-14.1-21.427-14.1-36.359l-60.996 20.037c7.076 19.329 14.907 34.137 23.448 44.37 10.209 12.23 24.005 21.173 41.388 26.861 15.944 5.13 33.404 7.682 52.481 7.682 29.563 0 53.591-5.711 72.114-17.056 22.715-13.948 34.161-34.844 34.161-62.714 0-20.744-7.126-38.406-21.376-52.886zM871.264 743.628v-366.731c0-32.923-26.758-59.683-59.629-59.683h-387.805c2.224-7.101 5.99-15.691 10.688-24.863l61.704-29.917 117.646-3.613c-4.27-14.932-11.725-33.404-24.736-54.652-34.060-55.386-70.293-83.409-65.518-93.237 4.548-9.375 92.53 18.419 155.572 78.101 37.143 35.17 57.104 55.184 67.893 69.813h121.311c21.579 0 39.062 17.461 39.062 39.063v406.958c0 20.592-15.969 37.27-36.183 38.76z" horiz-adv-x="1054" />
<glyph unicode="&#xe616;" d="M503.869 735.62c3.137-2.21 3.316-1.080 7.684-3.47-4.267-7.118-3.932-20.305-14.649-18.84-5.063-7.968-15.678-11.977-21.666-19.611-8.174-10.307-18.17-32.075-16.809-51.688 0.616-8.481 4.523-17.194 4.909-26.577 0.308-7.3-2.005-14.033-1.413-20.897 0.464-5.551 2.21-10.872 3.522-16.090 1.208-4.96 4.369-9.972 4.856-14.676 0.616-5.5-2.313-11.696-2.108-17.477 0.464-13.211 7.71-27.81 10.462-43.283 4.882-26.987 1.003-58.37 4.19-85.305 1.903-15.678 2.622-38.346 2.108-57.932-16.346-2.956-46.597 7.968-48.885-11.901-2.698-23.492-1.568-64.254-2.776-92.218-0.54-12.157-1.903-23.954 8.354-26.551 12.132-3.008 21.127 2.545 32.873-0.642-2.698-27.066-2.005-62.61-0.694-90.882 0.308-7.35-1.646-15.782 3.47-18.841-1.362-8.018-3.572-18.686-2.749-26.551 11.103-5.99 29.427-1.208 41.225 0.694 1.363-5.32-0.746-11.334 0-18.17 5.32-2.366 13.392-4.471 21.64-4.163 2.648 0.103 5.99 1.621 8.379 1.413 3.597-0.36 7.428-3.676 11.155-4.882 10.897-3.548 26.192-4.395 39.865-3.497 13.134 0.875 26.551 1.697 34.929 10.488-6.58 17.427-36.754 11.258-44.028 27.94-0.925 3.754 3.728 1.823 2.803 5.576-2.622 4.19-3.213 10.307-9.793 10.514-2.749 14.444-11.155 23.288-16.065 35.598 2.673 8.018-1.849 17.041-5.628 25.856-2.467 5.834-8.481 13.417-8.379 18.17 0.155 5.089 7.016 9.124 9.099 14.008 2.237 5.27 1.105 8.892 3.497 14.623 14.161 2.417 29.505-5.808 37.756 2.776 5.474 5.808 4.831 27.965 5.576 44.028 1.003 22.438 0.694 43.23 2.081 62.841 2.005-9.124 8.328-14.033 9.073-24.443 5.474 5.937 0.591 19.379-2.749 25.907-1.749 3.367-6.218 6.169-8.379 9.767-2.956 4.805-3.804 10.178-9.793 11.876 2.57 17.684 7.943 32.538 9.073 51.662 7.916 3.754 7.3 11.796 9.099 23.773 1.157 7.814 5.037 15.165 4.909 20.973-0.155 4.19-2.366 7.814-2.158 11.85 0.18 3.239 2.673 6.426 2.803 9.793 0.54 10.409-9.689 19.43-12.569 30.046-2.494 9.099-0.616 18.943-1.388 30.071-0.694 10.152-3.702 19.456-4.19 29.3-1.646 32.075 2.030 65.052-7.71 90.138-4.96 12.697-8.454 26.242-14.649 34.209-6.89 8.816-23.003 17.065-16.783 34.929 10.102 0.155 18.841 1.672 23.747 6.965-1.466 10.409-0.771 17.221-2.803 25.856 0.642 2.673 5.346 1.182 5.628 4.19-0.616 4.856-6.193 10.616-9.099 15.37 5.833 2.288-0.385 2.749 4.19 8.379-1.928 7.172-5.99 12.234-9.073 18.197 17.401 7.84-0.232 16.475-14.676 20.921-4.575 1.466-8.328 4.138-11.876 4.909-4.805 1.029-11.797 0.72-15.396 0.72-0.514 0-1.234 1.466-2.056 1.388-7.428-0.823-15.318-10.204-21.024-7.016-6.502-8.174-15.576-13.802-17.401-27.218-1.62-11.618 2.237-24.134 1.337-37.73 4.628-4.293 7.709-15.448 9.124-25.162z" horiz-adv-x="1049" />
<glyph unicode="&#xe617;" d="M807.007 719.333h-225.071v-64.348c-9.422 9.192-20.682 16.746-31.455 19.822 0 0-51.477 14.679-157.793 14.679-106.347 0-157.823-14.706-157.823-14.706-19.821-5.689-42.112-26.055-49.523-45.302l-29.848-77.561h-41.136c-18.9-0.030-34.355-15.484-34.355-34.385 0-18.931 15.453-34.416 34.355-34.416h14.679l-10.57-27.547c-7.412-19.247-13.473-51.85-13.473-72.507v-162.618c0-24.073 19.679-43.778 43.752-43.778 24.074 0 43.777 19.735 43.777 43.778v25.049h400.272v-25.049c0-24.073 19.708-43.778 43.752-43.778 24.101 0 43.752 19.735 43.752 43.778v25.335h266.464v331.387l-139.756 142.167zM804.822 649.33l75.493-76.986-75.493 0.346v76.64zM190.596 507.391l35.161 95.312c2.355 6.465 9.938 11.777 16.833 11.777h300.16c6.893 0 14.479-5.314 16.832-11.749l22.321-60.612v-46.48h-383.122c-6.865-0.030-10.57 5.256-8.187 11.749l0.002 0.003zM189.42 351.81c-19.018 0-34.386 15.427-34.386 34.356 0 19.016 15.368 34.442 34.386 34.442 18.987 0 34.385-15.427 34.385-34.442 0-18.93-15.399-34.356-34.385-34.356v0zM595.925 351.321c-11.317 0-20.886 5.832-27.146 14.275-0.888 1.148-1.696 2.356-2.441 3.62-0.977 1.754-1.868 3.448-2.556 5.399-1.12 3.071-1.783 6.349-1.954 9.767-0.030 0.488-0.286 0.859-0.286 1.351 0 0.058 0.030 0.114 0.030 0.2s-0.030 0.172-0.030 0.26c0 4.395 1.062 8.476 2.585 12.295 0.201 0.573 0.487 1.005 0.718 1.55 1.636 3.591 3.791 6.808 6.492 9.625 0.2 0.201 0.346 0.401 0.517 0.604 2.988 2.959 6.263 5.517 10.111 7.269v-0.46c4.28 1.897 8.963 3.103 13.987 3.103 18.988 0 34.386-15.426 34.386-34.416-0.031-19.016-15.427-34.442-34.416-34.442h0.003zM896.921 295.623h-216.598v87.469c0 20.654-6.062 53.256-13.472 72.505l-10.571 27.521h14.68c18.9 0 34.385 15.483 34.385 34.416s-15.484 34.385-34.385 34.385h-39.185v117.548h139.837v-129.585l125.306-0.172v-244.085l0.003-0.002z" horiz-adv-x="1026" />
<glyph unicode="&#xe618;" d="M912.497 472.622l-0.832 26.867c-51.985-1.639-78.558-42.527-101.984-78.666-17.49-26.972-34.040-52.469-57.816-56.284-19.291-3.143-37.801 14.938-57.386 34.040-21.762 21.198-44.491 44.087-73.936 42.476-19.478-0.43-38.365-10.664-57.763-31.325-23.482-24.984-38.848-49.191-52.414-70.579-33.020-52.040-51.18-80.761-150.236-60.207-57.707 11.903-100.964 37.397-132.56 55.989-22.73 13.379-38.338 22.406-51.073 20.74-2.687 9.51-5.266 18.456-7.603 26.437-8.356 28.666-13.648 47.231-13.352 62.221 82.854-23.265 143.574-36.54 194.431-36.54 63.755 0 112.462 20.633 171.38 67.73 23.293 18.645 45.028 39.17 66.012 58.997 72.781 68.752 141.639 133.58 268.26 114.477l4.031 26.545c-139.785 21.251-216.544-51.343-290.775-121.491-20.581-19.478-41.885-39.574-64.344-57.549-97.282-77.803-162.516-76.677-340.879-26.571 10.72 15.852 32.832 32.212 71.76 60.931l15.904 11.74c20.633 15.233 39.656 30.277 57.95 44.76 94.596 74.742 169.178 133.796 345.259 121.086l1.936 26.785c-186.32 13.459-264.687-48.441-363.851-126.807-18.081-14.266-36.886-29.15-57.225-44.221l-15.876-11.714c-102.602-75.656-104.751-80.652-76.409-177.937 3.814-13.030 8.165-28.022 12.87-45.35-1.049-12.923 1.237-31.862 6.825-60.851l26.355 5.077c-6.798 35.247-7.201 49.3-6.473 54.915 6.798-2.255 20.149-10.129 31.218-16.628 31.326-18.485 78.666-46.344 140.725-59.186 23.158-4.782 42.826-6.959 59.671-6.959 36.646 0 60.046 10.477 78.235 26.679 8.356-39.734 27.97-104.59 68.752-112.623 2.742-0.565 5.509-0.805 8.248-0.805 23.991 0 48.038 20.581 71.679 61.281 9.698 16.685 21.761 34.309 33.394 51.368 19.587 28.612 36.431 53.625 42.96 74.044 11.74-6.287 24.423-9.805 38.553-7.549 35.571 5.721 56.203 37.477 76.113 68.186 21.762 33.582 42.341 65.26 80.278 66.47zM652.433 286.682c-11.903-17.436-24.259-35.464-34.469-53.060-19.102-32.913-37.774-50.482-51.475-47.581-20.633 4.084-42.235 51.907-51.208 112.033 6.045 8.383 11.796 17.327 17.733 26.651 12.923 20.364 27.592 43.444 49.326 66.602 14.212 15.098 26.921 22.62 38.795 22.891 18.913-0.053 35.974-16.739 54.565-34.872 5.67-5.536 11.554-11.257 17.679-16.603 4.917-9.001-24.906-52.604-40.944-76.058zM929.61 390.17c0-59.563-37.585-83.016-72.754-85.085l1.585-26.813c48.787 2.874 98.037 38.635 98.037 111.899h-26.866z" horiz-adv-x="1052" />
<glyph unicode="&#xe619;" d="M512.015 809.076c-199.097 0-361.087-161.991-361.087-361.087s161.991-361.087 361.087-361.087c199.096 0 361.043 161.991 361.043 361.087s-161.947 361.087-361.043 361.087zM512.015 172.667c-151.83 0-275.342 123.491-275.342 275.322s123.514 275.342 275.342 275.342c151.808 0 275.301-123.514 275.301-275.342s-123.491-275.322-275.301-275.322zM490.574 663.956h42.871v-151.679h-42.871v151.679zM451.38 478.302l-107.238 107.268 30.319 30.311 107.238-107.268-30.32-30.311zM542.331 508.598l107.252 107.253 30.299-30.299-107.252-107.253-30.299 30.299zM296.023 469.426h151.702v-42.871h-151.702v42.871zM576.298 469.426h151.702v-42.871h-151.702v42.871z" />
<glyph unicode="&#xe61a;" d="M489.632 756.075c-133.94-0.023-257.352-47.899-353.827-127.312l21.149-104.108c85.482 86.858 204.713 140.593 336.46 140.126 127.941-0.466 243.906-53.407 327.822-138.445l14.847 109.057c-95.238 75.537-215.639 120.68-346.451 120.68zM590.588 439.433c-36.088-59.431-66.597-122.314-99.134-183.846-13.912-26.307-27.289-52.916-41.668-80.834 24.067-12.536 43.953-22.875 66.852-34.828 48.25 91.082 93.769 179.994 142.32 267.203 17.739 31.956 15.476 61.906 2.101 98.81-26.563-19.77-54.202-39.706-70.472-66.503zM357.606 557.593c0-11.459-9.291-20.752-20.752-20.752s-20.752 9.291-20.752 20.752c0 11.459 9.291 20.752 20.752 20.752 11.459 0 20.752-9.291 20.752-20.752zM514.678 595.711c0-11.449-9.281-20.729-20.728-20.729s-20.728 9.281-20.728 20.729c0 11.448 9.281 20.729 20.728 20.729s20.728-9.282 20.728-20.729zM659.917 557.617c0-11.459-9.291-20.752-20.752-20.752s-20.752 9.291-20.752 20.752c0 11.459 9.291 20.752 20.752 20.752 11.459 0 20.752-9.291 20.752-20.752zM782.371 473.327c0-11.448-9.281-20.729-20.729-20.729s-20.728 9.281-20.728 20.729c0 11.448 9.281 20.729 20.728 20.729s20.729-9.281 20.729-20.729z" horiz-adv-x="1004" />
</font>
</defs>
</svg>
