<?xml version="1.0" standalone="no"?>
<!DOCTYPE svg PUBLIC "-//W3C//DTD SVG 1.1//EN" "http://www.w3.org/Graphics/SVG/1.1/DTD/svg11.dtd" >
<svg xmlns="http://www.w3.org/2000/svg" xmlns:xlink="http://www.w3.org/1999/xlink" version="1.1">
<metadata>
Created by FontForge 20150318 at Tue Jul 28 06:23:17 2015
 By uniteet7
Copyright (C) 1990-1992 ParaGraph International
</metadata>
<defs>
<font id="InformBold" horiz-adv-x="1024" >
  <font-face 
    font-family="Inform"
    font-weight="700"
    font-stretch="normal"
    units-per-em="2048"
    panose-1="2 11 8 0 0 0 0 0 0 0"
    ascent="1638"
    descent="-410"
    x-height="1041"
    cap-height="1434"
    bbox="-307 -561 2382 1843"
    underline-thickness="56"
    underline-position="-246"
    unicode-range="U+0020-2122"
  />
<missing-glyph horiz-adv-x="1536" 
d="M256 0v1280h1024v-1280h-1024zM1248 32v1216h-960v-1216h960z" />
    <glyph glyph-name=".notdef" horiz-adv-x="1536" 
d="M256 0v1280h1024v-1280h-1024zM1248 32v1216h-960v-1216h960z" />
    <glyph glyph-name=".null" horiz-adv-x="0" 
 />
    <glyph glyph-name="nonmarkingreturn" horiz-adv-x="0" 
 />
    <glyph glyph-name="space" unicode=" " horiz-adv-x="719" 
 />
    <glyph glyph-name="exclam" unicode="!" horiz-adv-x="660" 
d="M865 1223q0 -24 -13 -54q-14 -29 -75 -149q-61 -119 -130 -266q-28 -63 -63.5 -162t-54 -145t-44.5 -77.5t-63 -31.5q-24 0 -64.5 31t-71 72t-30.5 69q0 25 15 72.5t34 96.5t52 130q33 82 77 189q52 129 88 219.5t69 139t77 48.5q22 0 71.5 -32t87.5 -75t38 -75zM432 150
q0 -28 -16.5 -66.5t-24.5 -62.5q-7 -28 -14 -66q-6 -39 -18 -52.5t-47 -13.5q-74 0 -152 55t-78 134q0 47 19 100.5t53 90t76 36.5q38 0 85.5 -22t82 -58t34.5 -75z" />
    <glyph glyph-name="quotedbl" unicode="&#x22;" horiz-adv-x="928" 
d="M699 1438l-86 -436h-158l-86 436h330zM1092 1438l-84 -436h-160l-85 436h329z" />
    <glyph glyph-name="numbersign" unicode="#" horiz-adv-x="1411" 
d="M1059 1325l-93 -272h193l88 272h259l-89 -272h238l-84 -254h-238l-84 -250h240l-82 -254h-239l-88 -270h-259l88 270h-192l-88 -270h-259l88 270h-238l83 254l237 1l84 249h-240l85 254h240l88 272h262zM1075 799h-192l-85 -250h193z" />
    <glyph glyph-name="dollar" unicode="$" horiz-adv-x="994" 
d="M416 -17l-94 -199q-25 -46 -105 -46q-92 0 -92 55q0 12 10 33l100 203q-95 62 -134.5 118t-39.5 97q0 36 31.5 86t76.5 86.5t81 36.5q45 0 61.5 -29t30.5 -82q26 -92 99 -92q61 0 114 34t53 79q0 46 -27 77.5t-77 71.5q-78 62 -126.5 150.5t-48.5 183.5q0 74 39 141
q39 68 108 121q70 54 157 88q88 33 184 41l99 205q13 31 57 31q22 0 60 -21.5t38 -58.5q0 -18 -8 -39l-65 -135q74 -20 117 -74q42 -53 42 -119q0 -82 -64 -122q-64 -39 -122 -39q-17 0 -48 40q-32 41 -56 62.5t-66 21.5q-58 0 -102 -39q-43 -39 -43 -88q0 -30 36 -71
q6 -7 65 -64.5t92.5 -99t58 -102t24.5 -134.5q0 -111 -65 -205t-183 -148.5t-268 -54.5z" />
    <glyph glyph-name="percent" unicode="%" horiz-adv-x="1676" 
d="M701 1405q38 25 88 25q48 0 82 -87t34 -186q0 -125 -50.5 -232t-135.5 -168.5t-182 -61.5q-80 0 -147 41t-105.5 111t-38.5 151q0 114 67 221.5t155.5 175.5t142.5 68q42 0 90 -58zM649 1196q-57 -28 -99 -83t-42 -109q0 -56 43 -56q35 0 68 55.5t33 143.5q0 31 -3 49z
M1533 1288q0 -70 -441 -630q-136 -172 -284 -368q-148 -195 -204 -267t-99 -113t-73 -41q-28 0 -59 32.5t-51.5 79.5t-20.5 85q0 29 25.5 64t114 133.5t193.5 221.5q104 124 259 324q99 127 168.5 230t145.5 218.5t108.5 154t58.5 38.5q30 0 67.5 -27.5t64.5 -67t27 -67.5z
M1471 701q38 24 88 24q32 0 59 -41.5t42.5 -105.5t15.5 -125q0 -126 -51 -232.5t-136 -168.5t-182 -62q-80 0 -147 41.5t-105 111.5t-38 150q0 115 67 222q66 108 154.5 175.5t142.5 67.5q42 0 90 -57zM1420 492q-57 -28 -99 -83t-42 -110t42 -55q35 0 68 55t33 144
q0 30 -2 49z" />
    <glyph glyph-name="ampersand" unicode="&#x26;" horiz-adv-x="1344" 
d="M1033 418q0 -82 -59 -158t-152.5 -134.5t-198.5 -92t-189 -33.5q-85 0 -157 49q-71 48 -112.5 127t-41.5 166q0 148 116.5 286t285.5 210q-41 60 -41 160q0 77 55 153t142.5 135t184.5 93t177 34q65 0 136 -36t71 -154q0 -76 -24.5 -148t-71.5 -118q-48 -45 -113 -45
q-53 0 -83 9.5t-30 43.5q0 47 33 112q15 27 15 48q0 18 -25 18q-31 0 -77 -30.5t-80.5 -73t-34.5 -70.5q0 -65 43 -92q5 -4 32 -18t39 -25t12 -25q0 -23 -32 -43q-33 -19 -92 -41t-74 -30q-93 -52 -153.5 -121.5t-86.5 -135.5q-27 -65 -27 -108q0 -27 12.5 -52.5t42.5 -25.5
q48 0 131.5 48t133.5 91q-62 7 -62 93q0 75 12.5 104t35 36t132.5 30q168 34 396 34q90 0 90 -77q0 -125 -78 -166q-29 -16 -54 -20t-78 -4q-54 -1 -101 -3z" />
    <glyph glyph-name="quotesingle" unicode="'" horiz-adv-x="535" 
d="M699 1438l-86 -436h-158l-86 436h330z" />
    <glyph glyph-name="parenleft" unicode="(" horiz-adv-x="944" 
d="M625 420q0 -133 22.5 -202.5t59.5 -133.5t37 -103q0 -31 -36 -64q-35 -32 -80.5 -53.5t-68.5 -21.5q-51 0 -105 88q-54 89 -89 222q-37 132 -37 252q0 204 77.5 398.5t194.5 347.5t228 242t168 89q21 0 59 -27.5t66 -64.5t28 -68q0 -27 -26 -55q-27 -27 -114 -106
t-132 -134q-97 -117 -152 -230q-57 -112 -78.5 -205.5t-21.5 -170.5z" />
    <glyph glyph-name="parenright" unicode=")" horiz-adv-x="944" 
d="M565 908q0 148 -40 260q-18 47 -46 103q-28 57 -28 77q0 41 65 88q66 47 111 47q47 0 103 -82t94 -211.5t38 -265.5q0 -137 -34 -278q-35 -140 -136 -310t-286 -357q-137 -137 -203 -137q-28 0 -66 33t-67 74t-29 59q0 16 19.5 39t67.5 67t93.5 88t92.5 99
q251 290 251 607z" />
    <glyph glyph-name="asterisk" unicode="*" horiz-adv-x="926" 
d="M723 903q-19 -22 -41.5 -45.5t-44.5 -41t-37 -17.5q-13 0 -30 6.5t-38 18.5t-32 18q-16 8 -29 14q-13 7 -28 17.5t-24 24t-9 30.5q0 30 43 74t142 125q-38 40 -60.5 65.5t-37.5 49t-15 40.5q0 20 36 52q35 33 79 58t65 25q66 0 131 -151q101 106 145 106q18 0 32 -6
t23 -16q9 -9 22 -26q12 -16 19 -25q15 -17 27.5 -32t20.5 -31t8 -34q0 -30 -26 -59t-64.5 -56.5t-85.5 -60.5l29 -67q49 -114 49 -187q0 -28 -54 -28q-5 0 -26 1q-20 1 -37 1q-55 0 -75 11.5t-43 68t-34 77.5z" />
    <glyph glyph-name="plus" unicode="+" horiz-adv-x="1463" 
d="M287 826h440v440h254v-440h441v-254h-441v-441h-254v441h-440v254z" />
    <glyph glyph-name="comma" unicode="," horiz-adv-x="635" 
d="M471 123q0 -70 -61 -153t-145.5 -139.5t-143.5 -56.5q-39 0 -39 33q0 38 58 90q34 32 34 62q0 8 -5.5 13t-16 10t-15.5 8q-47 25 -47 74q0 52 29 109t74.5 94.5t89.5 37.5q32 0 77 -22t78 -63.5t33 -96.5z" />
    <glyph glyph-name="hyphen" unicode="-" horiz-adv-x="951" 
d="M320 424q-69 0 -91 35.5t-22 103.5q0 8 -1 24.5t-1 25.5q0 52 50 85.5t208 51.5q175 18 295 18q150 0 150 -92q0 -23 -6 -43q-26 -90 -35 -112t-34 -30q-24 -9 -120 -17q-95 -9 -188 -21q-54 -7 -117 -18t-88 -11z" />
    <glyph glyph-name="period" unicode="." horiz-adv-x="596" 
d="M432 150q0 -28 -16.5 -66.5t-24.5 -62.5q-7 -28 -14 -66q-6 -39 -18 -52.5t-47 -13.5q-40 0 -121 41q-55 30 -82 63t-27 85q0 47 19 100.5t53 90t76 36.5q29 0 108 -45q51 -27 72.5 -45.5t21.5 -64.5z" />
    <glyph glyph-name="slash" unicode="/" 
d="M1270 1395q0 -20 -13.5 -51.5t-66 -113t-155.5 -229t-293 -409.5q-367 -505 -485 -665q-119 -159 -184.5 -227.5t-107.5 -68.5q-36 0 -66 34t-47 80t-17 79q0 36 27.5 76.5t134 167t239.5 293.5q131 167 304 407q140 194 227 326q86 133 172 270q85 138 115.5 175.5
t57.5 37.5q24 0 62.5 -29.5t67 -72.5t28.5 -80z" />
    <glyph glyph-name="zero" unicode="0" 
d="M791 1321q75 103 135 103q32 0 68 -31t66 -87t48.5 -135t18.5 -171q0 -167 -59 -347q-61 -181 -160.5 -332.5t-221.5 -242.5q-121 -93 -237 -93q-75 0 -145 44q-70 42 -115 134t-45 230q0 104 27 211t69.5 202.5t91 175t96.5 143.5q184 247 275 247q49 0 88 -51zM467 281
q42 0 128 129.5t157 305.5t78 316v58q0 39 -33 39q-52 0 -162 -197q-74 -132 -119.5 -248t-63 -200.5t-17.5 -145.5q0 -57 32 -57z" />
    <glyph glyph-name="one" unicode="1" 
d="M721 994q-39 -13 -127.5 -46.5t-118.5 -33.5q-29 0 -57 33.5t-46 78t-18 66.5q0 19 27.5 37t128.5 67t158 78q168 88 235.5 119t102.5 31q44 0 92.5 -76t48.5 -123q0 -17 -10 -41q-10 -23 -44.5 -87.5t-58.5 -111.5q-47 -95 -76 -159t-105 -239q-75 -175 -95 -220
q-6 -15 -44 -109t-64 -148t-57 -89.5t-64 -35.5q-15 0 -48 18t-53 26q-18 8 -33.5 15t-31.5 18t-26 27t-10 38q0 38 81 219t177 376.5t136 271.5z" />
    <glyph glyph-name="two" unicode="2" 
d="M531 277q228 28 272 28q75 0 114 -63q40 -63 40 -121q0 -65 -51 -84.5t-105 -19.5q-33 0 -132 4q-100 4 -161 4q-97 0 -154 -8q-58 -7 -112 -20q-54 -12 -78 -12q-56 0 -89.5 71.5t-33.5 134.5q0 23 22 43t75 57.5t85 67.5q210 193 398 406t188 315q0 23 -12.5 43
t-40.5 20q-57 0 -143 -37q-44 -20 -68 -32q-23 -11 -39 -17t-29 -6q-29 0 -61.5 36.5t-56 85.5t-23.5 74q0 47 67.5 84.5t166 57.5t180.5 20q121 0 202 -58t117.5 -141t36.5 -159q0 -116 -96 -261.5t-226 -276.5t-253 -236z" />
    <glyph glyph-name="three" unicode="3" 
d="M547 883q84 54 169 121q83 67 83 108q0 43 -53 43q-46 0 -76 -12q-29 -13 -76 -38t-69 -25q-48 0 -84 73q-35 74 -35 115q0 46 51.5 81.5t128 55t143.5 19.5q131 0 211 -53q81 -53 113.5 -123t32.5 -130q0 -152 -264 -352q63 -18 103 -80t40 -133q0 -134 -104.5 -266.5
t-261.5 -217t-300 -84.5q-69 0 -139 30.5t-115 76.5t-45 88q0 25 24.5 66t56.5 71.5t52 30.5q37 0 105 -57q50 -45 84 -45q39 0 125.5 49.5t153.5 117.5t67 124q0 31 -22 49t-52 18q-40 0 -75 -13t-70 -13q-41 0 -70 88q-10 30 -19 54q-10 25 -14 39t-4 28q0 58 54.5 77
t150.5 19z" />
    <glyph glyph-name="four" unicode="4" 
d="M449 613q36 5 82 10t69.5 9t55.5 13q46 121 129 292q84 171 135 171q39 0 79.5 -28t66.5 -66.5t26 -67.5q0 -22 -121 -262q42 13 78 13q57 0 57 -78q0 -91 -17 -128.5t-60 -51t-169 -33.5q-47 -191 -108.5 -344.5t-126.5 -153.5q-49 0 -118 42q-68 42 -68 79q0 25 8 50.5
t39 113.5q32 88 55 164q-175 -31 -203 -31q-115 0 -165 90t-50 176q0 34 29 95.5t118 187t252 325.5q83 103 122.5 148t65 65.5t46.5 20.5q26 0 58 -39.5t55.5 -89.5t23.5 -70q0 -26 -26.5 -62.5t-112.5 -139.5q-85 -103 -157 -199t-148 -221z" />
    <glyph glyph-name="five" unicode="5" 
d="M772 1067q-28 -61 -80 -162q19 5 58 5q72 0 129 -45t89 -122t32 -169q0 -191 -185 -383q-197 -206 -413 -206q-99 0 -193 35.5t-151 89.5q-59 53 -59 101t60.5 115t110.5 67q25 0 43 -11.5t33 -31.5t29 -38q42 -56 104 -56q60 0 137.5 51.5t131.5 126.5t54 138
q0 45 -21 75q-23 29 -64 29q-36 0 -77 -17.5t-56 -17.5q-18 0 -50 43q-31 42 -57 93q-25 51 -25 71q0 11 6 25t28 56t45.5 91t64.5 139q21 50 36 86t33 69q19 33 41 52q23 19 52 19q15 0 62 -6.5t91 -6.5q100 0 162 11t111.5 26t66.5 15q38 0 58 -57t20 -97q0 -97 -105 -147
q-105 -49 -278 -56h-74z" />
    <glyph glyph-name="six" unicode="6" 
d="M584 819q87 29 156 29q84 0 150.5 -35t102 -96t35.5 -135q0 -149 -87.5 -288t-219.5 -223q-132 -86 -254 -86q-80 0 -155 38t-121 113q-48 75 -48 180q0 168 76 385t303 465q47 49 123.5 116t158.5 119.5t132 52.5q26 0 67 -29q42 -30 72.5 -70.5t30.5 -72.5
q0 -29 -104 -94t-200.5 -140t-217.5 -229zM516 676q-23 -43 -43.5 -104t-32.5 -126t-12 -118q0 -88 56 -88q44 0 103.5 46t102.5 114.5t43 130.5q0 63 -36 63q-10 0 -52 -18q-52 -27 -71 -27q-44 0 -58 127z" />
    <glyph glyph-name="seven" unicode="7" 
d="M851 1100q-327 -54 -408 -54q-78 0 -107 73.5t-29 150.5q0 36 19 54t52.5 24t125.5 9q93 3 98 3q155 7 233 19t144.5 28.5t110.5 16.5q27 0 65 -40.5t66.5 -93t28.5 -86.5q0 -15 -13 -34.5t-63 -88.5q-51 -68 -123 -171t-172 -256q-98 -152 -209 -334.5t-139.5 -227
t-61.5 -76t-73 -31.5q-10 0 -26 3.5t-28 3.5q-11 0 -33 -1q-21 -1 -32 -1q-50 0 -81.5 33.5t-31.5 64.5q0 40 34 99.5t117.5 173.5t226.5 307t309 432z" />
    <glyph glyph-name="eight" unicode="8" 
d="M903 719q97 -135 97 -240q0 -76 -41.5 -163t-117.5 -162t-182 -122t-231 -47q-136 0 -218 46.5t-115.5 116.5t-33.5 147t40 153q39 77 134 160q93 83 253 177q-84 114 -84 229q0 93 64 189t179 158q116 63 261 63q64 0 146 -24q82 -23 139 -61.5t57 -78.5
q0 -33 -27.5 -68t-83.5 -88q38 -26 53 -43.5t15 -46.5q0 -124 -304 -295zM978 1110q-53 25 -118 25q-53 0 -97 -31q-44 -30 -44 -72q0 -53 33 -96q55 32 120 82t106 92zM637 559q-117 -80 -186.5 -140.5t-69.5 -121.5q0 -18 15 -37q14 -18 47 -18q51 0 112.5 32t103.5 79
t42 90q0 17 -8 33.5t-26 40.5t-30 42z" />
    <glyph glyph-name="nine" unicode="9" 
d="M594 543q-99 -21 -145 -21q-93 0 -149.5 106.5t-56.5 219.5q0 136 84 273q85 137 214 225q130 88 252 88q91 0 168 -46.5t121 -129.5q45 -84 45 -191q0 -129 -47.5 -259t-123.5 -244.5t-166 -214t-181 -183.5q-42 -38 -109.5 -89.5t-133.5 -89.5t-102 -38q-69 0 -135 59
q-68 58 -68 109q0 34 39.5 64.5t124.5 79.5q86 48 128 77q108 79 241 205zM752 862q33 51 54.5 113.5t21.5 116.5q0 61 -58 61q-49 0 -104 -52q-54 -53 -90 -128q-35 -75 -35 -135q0 -35 10 -50.5t43 -15.5q35 0 79.5 27.5t78.5 62.5z" />
    <glyph glyph-name="colon" unicode=":" horiz-adv-x="590" 
d="M590 658q0 -22 -20 -73t-21 -54q-5 -16 -12 -58.5t-20.5 -58.5t-47.5 -16q-45 0 -123 41q-54 29 -80 61q-26 33 -26 86q0 43 19.5 97.5t53.5 93t72 38.5q27 0 111 -45q41 -21 67.5 -45.5t26.5 -66.5zM432 150q0 -28 -16.5 -66.5t-24.5 -62.5q-7 -28 -14 -66
q-6 -39 -18 -52.5t-47 -13.5q-40 0 -121 41q-55 30 -82 63t-27 85q0 47 19 100.5t53 90t76 36.5q29 0 108 -45q51 -27 72.5 -45.5t21.5 -64.5z" />
    <glyph glyph-name="semicolon" unicode=";" horiz-adv-x="627" 
d="M627 658q0 -22 -19.5 -72.5t-21.5 -54.5q-5 -16 -13 -58q-7 -42 -19 -59q-13 -16 -48 -16q-47 0 -123 41q-54 29 -80 61q-26 33 -26 86q0 44 19.5 98.5t53.5 92.5t72 38q24 0 111 -45q41 -21 67.5 -45t26.5 -67zM472 123q0 -70 -61.5 -153t-146 -139.5t-143.5 -56.5
q-39 0 -39 33q0 38 58 90q34 32 34 62q0 8 -5.5 13t-16 10t-15.5 8q-47 25 -47 74q0 52 29 109t74.5 94.5t89.5 37.5q32 0 77 -22t78 -63q34 -42 34 -97z" />
    <glyph glyph-name="less" unicode="&#x3c;" horiz-adv-x="1475" 
d="M1434 1088l-678 -387l678 -387l-125 -226l-1063 613l1063 610z" />
    <glyph glyph-name="equal" unicode="=" horiz-adv-x="1463" 
d="M286 1045h1136v-254h-1136v254zM286 598h1136v-254h-1136v254z" />
    <glyph glyph-name="greater" unicode="&#x3e;" horiz-adv-x="1475" 
d="M286 314l679 387l-679 387l126 223l1063 -610l-1063 -613z" />
    <glyph glyph-name="question" unicode="?" horiz-adv-x="901" 
d="M285 572q0 104 192 272q42 37 124 103.5t108 96t26 60.5q0 47 -38 47q-29 0 -101 -28q-91 -37 -117 -37q-53 0 -76.5 66t-23.5 128q0 52 60 84.5t134 46.5q74 15 111 15q95 0 173.5 -45t122.5 -115t44 -139q0 -98 -55.5 -174.5t-143.5 -139t-147 -104.5t-59 -70
q0 -23 39 -39q41 -13 41 -51q0 -22 -16 -39.5t-41 -34.5t-48 -32q-28 -23 -47 -38q-18 -16 -36 -26t-38 -10q-42 0 -86 34q-44 35 -73 83.5t-29 85.5zM473 150q0 -28 -16.5 -66.5t-24.5 -62.5q-7 -28 -14 -66q-6 -39 -18 -52.5t-47 -13.5q-40 0 -121 41q-55 30 -82 63
t-27 85q0 47 19 100.5t53 90t76 36.5q29 0 108 -45q51 -27 72.5 -45.5t21.5 -64.5z" />
    <glyph glyph-name="at" unicode="@" horiz-adv-x="1696" 
d="M1178 1020l22 29q26 31 47 31q32 0 67.5 -18.5t60 -47.5t24.5 -61q0 -19 -9 -42t-33 -75q-25 -51 -46 -101q-9 -20 -29 -60.5t-26 -59.5t-6 -45q0 -31 7.5 -46.5t35.5 -15.5q29 0 67 31.5t72.5 86t56 121t21.5 136.5q0 100 -43.5 190t-135.5 146.5t-229 56.5
q-116 0 -229 -49.5t-203.5 -139.5t-143.5 -211t-53 -255q0 -143 64 -249.5t177.5 -163t258.5 -56.5q96 0 153 18q57 19 85 19q23 0 40 -23t17 -49q0 -58 -80 -94.5t-213 -36.5q-273 0 -426.5 113t-208 262.5t-54.5 287.5q0 231 125 412q123 182 314 281.5t377 99.5
q127 0 235.5 -39t188.5 -113q81 -74 125.5 -178t44.5 -229q0 -166 -67 -298q-68 -131 -174.5 -204.5t-217.5 -73.5q-117 0 -182 86q-46 -38 -110 -62t-124 -24q-93 0 -154 72t-61 184q0 145 81 260t192 179q112 63 190 63q68 0 109 -45zM1010 586l102 266q-52 -6 -117 -49.5
t-110 -105.5t-45 -123q0 -58 55 -58q28 0 66.5 22t48.5 48z" />
    <glyph glyph-name="A" unicode="A" horiz-adv-x="1080" 
d="M301 688q64 132 149 275.5t174 245.5t154 102q40 0 60 -14q1 42 2 70t6.5 48.5t20 32.5t43.5 12q76 0 143 -51q68 -52 68 -168q0 -59 -22.5 -230t-54.5 -365.5t-53 -295.5q-14 -85 -29 -176q-15 -90 -45.5 -158.5t-84.5 -68.5q-28 0 -84 18t-100 52q-43 34 -43 80
q0 24 8 53t34 110q27 80 52 168q-112 -3 -199 -18q-19 -38 -82 -174q-65 -137 -104 -193q-40 -58 -82 -58q-18 0 -32 9.5t-34.5 31.5t-30.5 30q-6 5 -37 26q-30 21 -43.5 41.5t-13.5 52.5q0 42 30 112.5t62 127.5q-12 37 -26 109q-4 16 -4 45q0 42 41 67.5t157 50.5z
M623 690q10 0 29.5 1t30.5 1h76q35 170 53 320q-104 -149 -189 -322z" />
    <glyph glyph-name="B" unicode="B" horiz-adv-x="1028" 
d="M932 717q82 -69 82 -188q0 -89 -82 -220t-203.5 -227.5t-230.5 -96.5q-47 0 -82 23q-35 21 -70 80q-35 -66 -49 -85.5t-49 -19.5q-23 0 -41.5 12t-35.5 31q-18 20 -34 38q-7 7 -30.5 25.5t-34.5 33t-11 33.5q0 37 22.5 89.5t162.5 354.5q52 115 97 240q45 126 72 223
q-40 4 -70 80t-30 121q0 68 95.5 106t205.5 51q111 13 177 13q85 0 159 -23q73 -25 127 -68t83.5 -104t29.5 -135q0 -220 -260 -387zM676 869q112 70 175 123.5t63 105.5q0 57 -105 57q-36 0 -96 -16q27 -26 27 -51q0 -27 -25.5 -99t-38.5 -120zM442 303q100 22 190.5 101.5
t90.5 144.5q0 51 -67 51q-44 0 -86 -12q-74 -172 -128 -285z" />
    <glyph glyph-name="C" unicode="C" horiz-adv-x="914" 
d="M819 355q64 0 64 -78q0 -80 -22 -126t-61 -71t-112 -51q-129 -46 -221 -46q-59 0 -119 25.5t-137 104.5q-50 52 -69 107.5t-19 144.5q0 160 76 373q68 192 173 350t241 252t288 94q97 0 167.5 -38t70.5 -171q0 -166 -54 -247t-190 -81q-76 0 -76 66q0 13 11 49
q7 20 27 62q20 43 20 61q0 43 -35 43q-42 0 -109 -81q-66 -81 -132 -210.5t-109 -272t-43 -257.5q0 -117 67 -117q55 0 162 53q44 23 68.5 35.5t41.5 19.5t31 7z" />
    <glyph glyph-name="D" unicode="D" horiz-adv-x="1088" 
d="M424 1049q-63 2 -93 56t-30 108q0 70 73 110q73 41 171 56q98 16 184 16q142 0 247 -63t159.5 -169t54.5 -231q0 -157 -73.5 -322.5t-223.5 -330.5q-88 -99 -251 -215.5t-236 -116.5q-48 0 -103 100q-12 -19 -35.5 -39.5t-41.5 -20.5q-28 0 -73 27q-44 26 -78 64.5
t-34 73.5t31.5 86t97.5 161q67 109 131 264t123 386zM467 297q117 67 217 178.5t157.5 234.5t57.5 224q0 82 -37 116t-79 34q-21 0 -41 -7q-18 -77 -53 -190t-72 -219t-76.5 -204t-73.5 -167z" />
    <glyph glyph-name="E" unicode="E" horiz-adv-x="850" 
d="M617 832q52 6 110 6q82 0 113 -12t31 -54q0 -71 -13.5 -112.5t-39.5 -61.5q-27 -19 -66 -24.5t-109 -5.5h-65h-66q-22 -43 -64 -145t-42 -132q0 -35 43 -35q60 0 186 31q25 6 64 17q39 12 55 12q23 0 42 -18t19 -62q0 -93 -20 -126t-62 -50q-73 -29 -209 -51
q-136 -24 -219 -24q-72 0 -147.5 39t-75.5 163q0 81 55.5 243t136.5 336t150 287q-37 0 -50 25q-13 26 -13 73q0 12 1 39q1 26 1 39q0 36 14 57t54 35q41 15 117 26q76 12 222 26q85 8 140 8q77 0 112 -27q34 -26 74 -127q20 -51 20 -92q0 -47 -55 -47q-9 0 -58 7t-128 7
q-64 0 -93.5 -8t-49.5 -31t-46.5 -81t-68.5 -150z" />
    <glyph glyph-name="F" unicode="F" horiz-adv-x="799" 
d="M562 563q-78 -238 -122 -354t-83 -169q-40 -55 -88 -55q-20 0 -36 6t-35.5 17t-33.5 17q-6 3 -32 14q-27 12 -40.5 23t-21.5 28.5t-8 42.5q0 23 11 50.5t56.5 132.5t90.5 217q-22 9 -28.5 23t-6.5 44q0 9 2 25q2 17 2 24q0 9 -1 27.5t-1 28.5q0 50 42.5 85t100.5 38
q21 49 36 103t46 146q-28 0 -42.5 17t-19 40.5t-7.5 43.5q-2 9 -3.5 18t-3.5 20q-1 11 -1 23q0 100 169 144q209 51 322 51q105 0 163 -38.5t77.5 -88t19.5 -94.5q0 -35 -48 -44.5t-153.5 -15.5t-152.5 -18q8 -13 8 -29q0 -13 -4.5 -30t-16.5 -49q-11 -33 -25 -74.5
t-30 -94.5q59 11 129 11q58 0 98 -39.5t40 -100.5q0 -66 -29 -96t-69 -37t-128 -13q-88 -5 -143 -20z" />
    <glyph glyph-name="G" unicode="G" horiz-adv-x="1090" 
d="M697 428v39q-44 -8 -58 -8q-16 0 -20 31.5t-4 105.5q0 90 45.5 118.5t128.5 39.5q203 24 245 24q70 0 88.5 -44.5t18.5 -147.5q0 -52 -27 -76t-108 -37q0 -96 -87 -211q-86 -116 -207 -196.5t-210 -80.5q-100 0 -187.5 51.5t-139.5 140.5t-52 196q0 142 72.5 336
t202.5 356q91 115 185.5 190t176 113t142.5 52t102 14q58 0 116 -26.5t96 -81t38 -134.5q0 -79 -32 -145.5t-81 -105t-98 -38.5q-43 0 -75 31.5t-32 79.5q0 19 15 74q16 42 16 57q0 31 -27 31q-54 0 -138 -85.5t-167 -217.5t-137.5 -267t-54.5 -229t75 -94q22 0 40 8.5
t36 25.5t44 45q25 29 59 66z" />
    <glyph glyph-name="H" unicode="H" horiz-adv-x="1063" 
d="M838 877q95 201 148 306q54 104 90.5 151t68.5 47q43 0 66.5 -20t46.5 -60q4 -9 21.5 -36.5t23.5 -42.5t6 -34q0 -27 -14 -59.5t-64.5 -132t-102 -212.5t-112.5 -272q-44 -116 -62.5 -189t-43.5 -191q-26 -117 -46 -151t-61 -34q-27 0 -49.5 10t-44 28t-45.5 38
q-38 29 -50 39q-11 10 -22 33q-10 22 -10 59q0 99 146 450h-49q-56 -3 -123 -24q-36 -84 -113 -289q-25 -67 -50 -158t-39 -118.5t-47 -27.5q-23 0 -41 7q-17 7 -48 25t-54 28q-44 22 -63 42t-19 71q0 35 24.5 107t96.5 247q-36 0 -46.5 24t-10.5 93q0 40 -5.5 71.5
t-5.5 37.5q0 87 189 102q110 248 165 360t99 172t80 60q48 0 100 -72q9 -12 29.5 -36t29.5 -39.5t9 -28.5q0 -20 -63 -151q-65 -132 -111 -232q9 1 31 3q22 3 32 3q76 0 113 -4z" />
    <glyph glyph-name="I" unicode="I" horiz-adv-x="598" 
d="M275 -53q-41 0 -91.5 30t-86.5 74t-36 84q0 74 287 748q112 261 162.5 367.5t84.5 144.5q34 39 75 39q27 0 69.5 -37t73.5 -83t31 -73q0 -52 -18 -95t-91.5 -191t-146 -325.5t-158.5 -449.5q-17 -57 -29.5 -97.5t-27 -70.5t-37.5 -48q-24 -17 -61 -17z" />
    <glyph glyph-name="J" unicode="J" horiz-adv-x="979" 
d="M971 1434q30 0 82 -31.5t91.5 -76.5t39.5 -83q0 -28 -37 -139.5t-88 -243.5q-50 -133 -67 -170q-313 -705 -674 -705q-130 0 -213 86q-85 85 -85 216q0 119 31 189q29 69 98 101t187 32q66 0 66 -46q0 -12 -5 -24.5t-25 -56.5t-26 -56q-32 -73 -32 -131q0 -33 32 -33
q55 0 142 142t173.5 342t141.5 366q21 77 41.5 149.5t50.5 122.5t76 50z" />
    <glyph glyph-name="K" unicode="K" horiz-adv-x="1026" 
d="M805 666q22 -134 52 -255.5t59 -205.5q14 -37 43.5 -92.5t29.5 -79.5q0 -57 -64.5 -100.5t-115.5 -43.5q-69 0 -120 88.5t-82.5 208t-75.5 328.5q-56 -113 -102 -219q-45 -105 -79 -181t-57 -102.5t-57 -26.5q-19 0 -32.5 5t-32 17t-25.5 16q-6 3 -48.5 17.5t-60 35
t-17.5 66.5q0 27 17 65.5t81.5 166.5t122 246.5t128.5 278.5q32 72 78 191t70 174q23 56 50 93q27 38 56 38q14 0 32 -7.5t35.5 -16.5t36.5 -19q23 -8 45 -17q21 -8 35 -24t14 -45q0 -27 -23.5 -91t-107.5 -272q118 82 201 162q82 81 154.5 168t99.5 114t59 27
q52 0 80.5 -65t28.5 -117q0 -50 -71.5 -150t-189.5 -205t-247 -171z" />
    <glyph glyph-name="L" unicode="L" horiz-adv-x="830" 
d="M670 1434q31 0 80 -29q49 -28 85 -69t36 -72q0 -22 -14 -52t-76.5 -146.5t-134.5 -258.5q-45 -87 -108 -207q-63 -119 -84 -163q-22 -43 -38 -86t-16 -72q0 -43 39 -43q14 0 29 3q15 4 47 14q32 11 67 22q118 39 133 39q35 0 63 -24t28 -67q0 -103 -90 -165t-204 -87
q-115 -24 -198 -24q-70 0 -123 42t-81 107.5t-28 129.5q0 22 10.5 75t49 165t122.5 295q83 184 222 439q14 27 42 79.5t48.5 84.5t44 51t49.5 19z" />
    <glyph glyph-name="M" unicode="M" horiz-adv-x="1407" 
d="M1170 821q-50 -70 -99 -155.5t-94.5 -178.5t-77.5 -173q-44 -111 -66.5 -160.5t-45 -75t-49.5 -25.5q-51 0 -95 56q-17 20 -41 43t-32.5 37.5t-8.5 38.5t7.5 112t14.5 207t11 313q-38 -80 -69 -155q-31 -74 -64 -165t-49 -138q-18 -50 -49 -175.5t-61 -182.5
q-30 -59 -85 -59q-25 0 -120 71q-77 56 -77 131q0 30 33.5 112t72.5 164t62 129q60 123 109 212q49 90 120 200q71 111 169 252v63q0 59 17 87t71 28q18 0 35 -7t53 -14q68 -11 100.5 -37.5t32.5 -103.5q0 -166 -41 -563q43 84 115.5 200.5t160 234.5t167 193.5t131.5 75.5
q25 0 42 -12q18 -12 37 -39q20 -27 29 -39q19 -20 36 -38t28.5 -40t11.5 -49t-29 -99t-76.5 -188t-92.5 -261.5t-78 -321.5q-7 -37 -19.5 -161.5t-32.5 -184.5t-67 -60q-20 0 -39 9t-44 27t-36 25q-29 18 -50.5 31t-34.5 36t-13 69q0 66 32.5 201.5t137.5 502.5z" />
    <glyph glyph-name="N" unicode="N" horiz-adv-x="1063" 
d="M547 746q-35 -122 -100 -371q-23 -105 -41 -187.5t-48 -141.5q-29 -61 -77 -61q-32 0 -79 30.5t-83.5 70t-36.5 64.5q0 46 41 166q32 91 69.5 207t59.5 181q23 64 65 168q43 104 134 310q-5 34 -14 91t-9 83q0 27 24.5 53.5t76.5 26.5q91 0 139 -22t67 -65t27 -109
t23 -185q8 -60 24 -167q15 -106 23 -169q71 222 122 380.5t93 240.5q43 82 90 82q22 0 41 -14t33 -33q15 -20 28 -39q21 -23 36 -39t24.5 -31.5t9.5 -34.5q0 -18 -10 -46.5t-45.5 -114t-80 -197.5t-95.5 -250q-135 -366 -173 -561q-11 -55 -24 -85t-51 -30q-62 0 -133.5 48
t-77.5 140q-23 272 -72 611z" />
    <glyph glyph-name="O" unicode="O" horiz-adv-x="1039" 
d="M912 1315q79 37 98 37q39 0 69 -59t46 -149t16 -175q0 -170 -57 -346q-59 -175 -158 -321q-100 -145 -224 -231q-123 -86 -247 -86q-95 0 -166 58t-108 147q-38 90 -38 183q0 200 72.5 392.5t180 342t213.5 238.5q107 88 163 88q44 0 83.5 -37t56.5 -82zM846 1018
q0 92 -33 92q-52 0 -144.5 -135t-162.5 -315t-70 -307q0 -38 12 -66.5t27 -28.5q31 0 93.5 71.5t127 185.5t107.5 247t43 256z" />
    <glyph glyph-name="P" unicode="P" horiz-adv-x="967" 
d="M492 539q-47 -157 -78 -259q-31 -101 -56 -164t-54 -97t-68 -34q-12 0 -22 3t-33.5 11t-43.5 14q-57 15 -86 35q-31 21 -31 73q0 26 13 65t65 164q53 125 131 308t175 415q-23 4 -46.5 41.5t-23.5 143.5q0 88 139.5 132t272.5 44q136 0 233 -51t145 -130.5t48 -158.5
q0 -102 -109 -255t-250 -270q-140 -116 -217 -116q-61 0 -104 86zM582 776q109 67 209.5 149t100.5 138q0 45 -68 45t-97 -10q-28 -11 -40 -37t-40.5 -113.5t-64.5 -171.5z" />
    <glyph glyph-name="Q" unicode="Q" horiz-adv-x="1037" 
d="M879 232q24 -55 40 -85t35.5 -64t26 -48.5t6.5 -28.5q0 -26 -35 -68t-81 -74t-72 -32q-39 0 -79.5 57t-72.5 134q-86 -76 -184 -76q-75 0 -149.5 51t-121.5 143q-49 91 -49 203q0 209 85 405t214.5 346.5t262.5 236t221 85.5q35 0 74.5 -30.5t66.5 -71.5t27 -68
q0 -15 -12.5 -28.5t-35 -27t-46.5 -27.5q139 -34 139 -216q0 -110 -31 -236q-31 -125 -91 -250q-59 -124 -138 -230zM848 1051q-121 -68 -216 -191t-147 -261q-53 -137 -53 -242q0 -117 45 -117q29 0 82 63q-10 41 -22 110.5t-12 94.5q0 39 45 60.5t108 21.5q35 0 62 -6
q60 147 85 229t25 185q0 34 -2 53z" />
    <glyph glyph-name="R" unicode="R" horiz-adv-x="1073" 
d="M565 504h-8q-36 -91 -79 -216.5t-63 -178.5t-43 -87.5t-52 -34.5q-36 0 -93 18.5t-101.5 54t-44.5 86.5q0 30 45.5 147.5t108.5 264.5q64 147 129.5 291.5t100.5 217.5q-26 18 -38 85t-12 128q0 45 32.5 60t91.5 24q56 12 94 19q37 8 82 13t98 5q146 0 241.5 -53.5
t139 -135t43.5 -165.5q0 -96 -66 -185.5t-159 -157.5t-189 -118q37 -233 81 -332.5t93 -166.5q50 -67 50 -122q0 -24 -42 -46.5t-95 -37.5q-53 -14 -84 -14q-71 0 -129 105t-92.5 256t-39.5 276zM684 807q87 54 136 87.5t88 75.5q40 43 40 81q0 30 -24 46.5t-64 16.5
q-15 0 -57 -12q-45 -113 -65 -161q-21 -47 -54 -134z" />
    <glyph glyph-name="S" unicode="S" horiz-adv-x="918" 
d="M361 283q48 6 99 35.5t83 71t32 79.5q0 47 -30 85t-84 89q-75 69 -112.5 131.5t-37.5 147.5q0 123 99 242.5t251 195.5q152 74 300 74q108 0 171.5 -32t88 -75t24.5 -80q0 -56 -39.5 -133t-111 -132.5t-162.5 -55.5q-39 0 -70 22q-30 23 -30 52q0 50 45 100q47 52 47 61
t-9 18q-9 10 -24 10q-43 0 -104 -48t-106 -112q-44 -65 -44 -105q0 -27 17 -51q16 -23 45 -48q29 -24 56 -47q153 -128 153 -305q0 -121 -80 -235q-80 -113 -206 -183t-253 -70q-84 0 -155 30.5t-112 74t-41 80.5q0 39 31 92.5t72 92.5q42 38 72 38q35 0 61 -28
q27 -28 64 -82z" />
    <glyph glyph-name="T" unicode="T" horiz-adv-x="758" 
d="M713 1141q23 -17 23 -41q0 -19 -36.5 -128t-89.5 -256t-112 -302q-43 -115 -77 -208q-34 -92 -55 -137t-41 -64.5t-48 -19.5q-17 0 -32.5 6t-37.5 17.5t-31 14.5q-28 8 -53 15q-24 7 -42.5 22.5t-18.5 44.5q0 27 11 58t52.5 128.5t75.5 185.5q96 250 113 296.5
t34.5 101.5t63.5 180q-43 0 -64 52q-22 53 -22 104q0 68 23.5 106t65.5 54.5t109 25.5q68 8 140 17q146 20 209 20q126 0 169 -60q44 -60 44 -124q0 -57 -50 -74q-49 -18 -163 -22q-115 -5 -160 -13z" />
    <glyph glyph-name="U" unicode="U" horiz-adv-x="1112" 
d="M473 -53q-83 0 -160 54t-122 145q-47 91 -47 194q0 108 57 291t143 370q87 187 175 310t149 123q56 0 108 -45t52 -96q0 -33 -19 -78t-74 -148.5t-90 -173.5q-200 -401 -200 -575q0 -66 51 -66q63 0 154.5 141t173.5 318t122 285q28 73 61 178t47 144.5t35 65t54 25.5
t74.5 -28.5t70.5 -72.5t29 -85q0 -90 -72 -301t-191.5 -437t-271.5 -382t-309 -156z" />
    <glyph glyph-name="V" unicode="V" horiz-adv-x="973" 
d="M502 520h8q47 56 101.5 135.5t109 169.5t97.5 167q43 78 79 153q9 20 46.5 109.5t66.5 128.5t70 39q33 0 76 -44q42 -43 74 -100q30 -57 30 -90q0 -71 -120 -261t-224 -333q-35 -50 -110 -151t-167 -215q-91 -115 -172.5 -198t-118.5 -83q-55 0 -119.5 63.5t-64.5 149.5
q0 18 12 100t55.5 316t127.5 643q23 118 47 166.5t96 48.5q68 0 127 -50t59 -128q0 -37 -12.5 -86t-71.5 -261.5t-102 -388.5z" />
    <glyph glyph-name="W" unicode="W" horiz-adv-x="1405" 
d="M826 686h-7q-140 -314 -225 -474q-84 -159 -126 -206q-41 -47 -70 -47q-23 0 -43 9t-46 29q-26 21 -30 24q-1 1 -23 16q-21 14 -30.5 26.5t-15 36.5t-5.5 64q0 101 19.5 302t66.5 525q22 157 34 224t43.5 127.5t88.5 60.5q19 0 51 -11.5t45 -14.5q63 -18 89 -30t26 -50
q0 -26 -35 -140.5t-66 -251.5t-51 -335q35 67 71 137q37 70 69 132t73 145t88 182q1 1 40 94q39 94 65.5 129t62.5 35q21 0 37 -9t30.5 -21.5t29.5 -25.5q15 -10 31 -20q14 -10 23.5 -25t9.5 -41q0 -3 -35 -260q-35 -269 -35 -487q29 65 86 195.5t109 253t83 198.5
q24 67 46 124q21 58 47.5 93t66.5 35q28 0 51 -18q23 -17 55 -48q33 -29 52.5 -54t19.5 -60q0 -20 -10 -48q-11 -27 -41.5 -88.5t-70.5 -142.5q-21 -42 -61.5 -120t-99.5 -195q-61 -116 -118 -235t-111 -240q-23 -55 -47.5 -111t-55.5 -92q-32 -35 -77 -35q-54 0 -117 53
q-35 31 -48 59q-12 28 -15 81q-3 54 -3 198q0 220 9 348z" />
    <glyph glyph-name="X" unicode="X" horiz-adv-x="942" 
d="M796 723q20 -168 32 -262t21.5 -162.5t14.5 -107.5q4 -38 4 -62q0 -46 -21 -66t-69 -44q-23 -12 -50 -32q-27 -19 -43 -27q-16 -7 -40 -7q-34 0 -52 25t-26.5 74t-19.5 186q-12 138 -18 201q-93 -116 -182 -253t-114 -169q-24 -32 -61 -32q-26 0 -43 11t-38.5 34
t-35.5 34q-22 18 -38.5 32t-29 27.5t-21.5 32.5q-8 18 -8 41q0 33 102 155t232.5 260t188.5 193q-16 115 -32 196.5t-26.5 124t-19 81t-8.5 63.5q0 36 11.5 54t39.5 33q26 16 64 38q64 39 88 39q44 0 70 -37t38.5 -92t22.5 -138.5t13 -101.5q324 332 397 332q61 0 76 -48
q14 -47 14 -157q0 -47 -12.5 -73.5t-36 -48t-152.5 -134.5q-128 -113 -232 -213z" />
    <glyph glyph-name="Y" unicode="Y" horiz-adv-x="914" 
d="M393 533q-57 161 -57 436q0 22 -1 78t-1 88q0 129 22 207t85 78q19 0 39 -6t35 -14t32 -17q37 -13 63 -22.5t44 -29t18 -61.5q0 -53 -6 -78q-5 -25 -16 -55t-17 -68.5t-6 -105.5q0 -55 4 -144q81 115 155 239t124 208.5t86 126t69 41.5q23 0 66 -37.5t76.5 -83.5
t33.5 -68q0 -42 -131 -223q-97 -134 -155 -213t-92 -122t-55 -69q-22 -25 -50 -59q-48 -57 -74 -100q-25 -44 -51 -111q-25 -68 -68 -194q-17 -59 -35 -117q-17 -59 -43 -99.5t-67 -40.5q-22 0 -36 11t-70 18q-48 7 -78 27q-31 21 -31 78q0 25 8 52t36 93.5t61 146t83 210.5
z" />
    <glyph glyph-name="Z" unicode="Z" horiz-adv-x="928" 
d="M430 307q147 14 254 30t121 16q42 0 71 -32q30 -31 30 -81q0 -33 -14 -68q-17 -45 -36 -67.5t-47 -31t-93 -14.5q-64 -6 -95 -10q-151 -17 -248 -32t-139 -23.5t-54 -8.5q-31 0 -74 48t-74.5 110t-31.5 95q0 34 49 100t168 194t269 289t293 322q-74 -7 -164 -29
q-48 -12 -75 -19t-39.5 -10t-21.5 -3q-58 0 -84 56.5t-26 102.5q0 57 50 83t132 44q72 16 218 42q147 26 194 26q48 0 97 -40t81.5 -93t32.5 -86q0 -24 -27 -57.5t-98 -107t-116 -126.5q-15 -17 -88 -102q-75 -85 -121.5 -140t-124 -153t-169.5 -224z" />
    <glyph glyph-name="bracketleft" unicode="[" horiz-adv-x="1055" 
d="M947 1176q-93 -301 -173 -512q-79 -212 -144 -356t-91.5 -202.5t-26.5 -82.5q0 -42 68 -42q52 0 113 12.5t77 12.5q50 0 50 -62q0 -10 -44 -112q-18 -45 -40 -65q-21 -20 -74 -30t-160 -10q-85 0 -152.5 34t-106 90.5t-38.5 123.5q0 25 10.5 60t37 101.5t68 168.5
t101.5 256q74 190 139 426.5t111 322.5t158 126.5t354 40.5q36 0 56 -8.5t20 -42.5q0 -29 -32 -117q-19 -52 -35 -75q-16 -22 -40 -31t-105 -17q-80 -8 -101 -10z" />
    <glyph glyph-name="backslash" unicode="\" horiz-adv-x="1344" 
d="M369 1436q0 19 32 51.5t74.5 58t67.5 25.5q41 0 81 -64.5t74 -151.5t109 -286.5t131 -326.5q109 -246 186.5 -404.5t150 -296t91.5 -178.5t19 -70q0 -26 -25 -65q-26 -38 -63.5 -67.5t-71.5 -29.5t-71 46.5t-91.5 157t-139.5 301t-224 501.5q-154 344 -223 505t-88 216
t-19 78z" />
    <glyph glyph-name="bracketright" unicode="]" horiz-adv-x="1055" 
d="M355 29q93 300 171 508t144 355.5t92.5 206.5t26.5 83q0 41 -68 41q-55 0 -115.5 -12.5t-74.5 -12.5q-49 0 -49 62q0 8 3 17.5t15 38.5q13 28 25 56q18 45 39.5 65t74.5 30t160 10q85 0 152 -34q68 -34 106.5 -90.5t38.5 -123.5q0 -33 -16.5 -77t-89.5 -224
q-35 -88 -88 -224t-102 -264q-48 -129 -94 -257t-71 -210.5t-55.5 -127.5t-65.5 -63t-83 -24t-99 -10q-19 -2 -91 -11.5t-124 -9.5q-36 0 -56 9t-20 43q0 29 33 116q19 52 35 75t40 33q23 8 108.5 16t97.5 10z" />
    <glyph glyph-name="asciicircum" unicode="^" horiz-adv-x="1094" 
d="M490 850l-162 189l485 407l486 -407l-162 -189l-324 283z" />
    <glyph glyph-name="underscore" unicode="_" horiz-adv-x="1370" 
d="M-1 -561v254h1371v-254h-1371z" />
    <glyph glyph-name="grave" unicode="`" horiz-adv-x="432" 
d="M551 1180l-86 110q-3 4 -18 22.5t-22.5 31.5t-11.5 28q-4 17 -4 25q0 30 23 51q21 21 60 21h141q30 0 47 -13q18 -14 26 -34q9 -21 15 -52q7 -31 14 -65l25 -101v0q0 -43 -41 -61t-76 -18q-49 0 -92 55z" />
    <glyph glyph-name="a" unicode="a" horiz-adv-x="971" 
d="M507 101l-9 2q-98 -118 -207 -118q-110 0 -170 99q-59 98 -59 225q0 107 47 217t133 207q39 45 128 118t176 126t134 53q53 0 103 -57q47 104 104 104q23 0 43.5 -13t50.5 -38q39 -28 55.5 -46.5t16.5 -51.5q0 -26 -9 -47t-46 -89t-67 -137q-31 -68 -64 -169
q-57 -179 -70 -389q-5 -69 -19 -111t-61 -42q-4 0 -92 21q-4 1 -35.5 8t-49.5 16t-28 27q-12 17 -12 48q0 16 7 37zM654 719q-66 -25 -135 -92q-68 -67 -112 -149t-44 -152q0 -49 28 -49q25 0 68 42t95 142q53 100 100 258z" />
    <glyph glyph-name="b" unicode="b" horiz-adv-x="963" 
d="M621 971q29 17 76.5 32t78.5 15q53 0 100.5 -40.5t77 -109.5t29.5 -147q0 -118 -64 -247q-64 -128 -159 -239q-96 -110 -189.5 -180t-138.5 -70q-86 0 -139 112q-29 -70 -44 -90q-15 -22 -46 -22q-27 0 -71.5 25.5t-77.5 64t-33 77.5q0 22 44 119q44 98 96 222t151 398
q38 106 72 218q35 113 62 200q28 87 50 122q23 36 53 36q35 0 75.5 -25t68.5 -65t28 -80q0 -52 -19 -107.5t-81 -218.5zM375 287q78 24 152 93q74 70 120.5 155.5t46.5 148.5q0 66 -42 66q-24 0 -60.5 -20t-60.5 -46q-54 -131 -79.5 -203.5t-39.5 -110.5t-37 -83z" />
    <glyph glyph-name="c" unicode="c" horiz-adv-x="832" 
d="M379 332q0 -113 70 -113q51 0 129 52q30 19 81 56q51 38 70 38q27 0 27 -90q0 -93 -62 -159q-62 -65 -150.5 -98t-166.5 -33q-60 0 -128 29.5t-117.5 103t-49.5 198.5q0 113 53.5 241t142.5 238q90 111 198.5 178.5t215.5 67.5q112 0 167 -63t55 -161q0 -85 -63 -142.5
t-136 -57.5q-63 0 -63 65q0 21 8 49.5t8 55.5q0 23 -9 38t-20 15q-32 0 -96 -87t-114 -206t-50 -215z" />
    <glyph glyph-name="d" unicode="d" horiz-adv-x="930" 
d="M508 101q-43 -45 -104.5 -80.5t-110.5 -35.5q-51 0 -105.5 45.5t-90.5 116.5t-36 142q0 152 69 289t172 241q104 104 205.5 163t160.5 59q39 0 62 -23q24 -23 30 -57q73 210 145 363q73 153 146 153q29 0 63 -27q35 -27 58.5 -67t23.5 -74q0 -15 -6 -30.5t-27.5 -55.5
t-27.5 -53q-44 -89 -104 -243t-120 -329q-59 -174 -92 -295q-23 -87 -34.5 -157t-17 -106.5t-15.5 -56.5q-18 -36 -57 -36q-19 0 -62 14q-29 7 -62 16t-51 26.5t-18 52.5q0 20 6 45zM682 756q-79 -29 -159.5 -103.5t-133.5 -163.5q-53 -88 -53 -153q0 -53 37 -53
q39 0 103 38q64 39 98 83q40 184 108 352z" />
    <glyph glyph-name="e" unicode="e" horiz-adv-x="918" 
d="M387 424q-22 -64 -22 -115q0 -77 59 -77q71 0 160 43q49 23 76 37q28 14 42.5 20t24.5 6q19 0 36.5 -15t17.5 -52q0 -65 -7 -96t-23.5 -49.5t-55.5 -43.5q-154 -96 -312 -96q-136 0 -218.5 77.5t-82.5 219.5q0 124 58.5 259t152.5 249q95 113 202 182q108 68 200 68
q72 0 133 -39q60 -38 96 -101q35 -62 35 -129q0 -96 -77 -192q-78 -95 -184 -157t-176 -62q-53 0 -135 63zM453 570q45 9 102 41t96 73t39 74q0 39 -38 39q-26 0 -66 -37t-76.5 -89.5t-56.5 -100.5z" />
    <glyph glyph-name="f" unicode="f" horiz-adv-x="682" 
d="M564 705q-34 -80 -55 -138q-21 -57 -51 -147q-30 -89 -48 -139q-7 -20 -30 -98t-40.5 -124.5t-44.5 -79.5q-26 -32 -63 -32q-40 0 -113 53q-41 31 -59.5 62t-18.5 82q0 45 31 126q30 82 88 216q58 135 78 190q-40 0 -49 13.5t-23 62.5q-4 14 -10 33t-10 36t-4 27
q0 34 64 69q65 35 134 46q132 294 259 402t231 108q72 0 126 -50t54 -133q0 -94 -44 -149q-43 -55 -108 -55q-77 0 -106 68q-52 -60 -98 -165q32 5 55 5q27 0 60 -40t57.5 -90t24.5 -73q0 -38 -31 -50q-30 -12 -116 -19q-85 -7 -140 -17z" />
    <glyph glyph-name="g" unicode="g" horiz-adv-x="824" 
d="M715 979q31 14 93 32.5t87 18.5q29 0 50 -24q22 -25 22 -58q0 -8 -2 -27q-2 -18 -2 -28q0 -16 2 -45q2 -28 2 -41q0 -24 -41.5 -45.5t-95.5 -30.5q-8 -127 -48 -223.5t-99 -159.5t-125 -94t-128 -31q-48 0 -116 43q-25 -21 -25 -61q0 -22 26.5 -37.5t75 -30.5t123.5 -38
q86 -28 137.5 -69t51.5 -127q0 -109 -100.5 -207.5t-250 -157t-284.5 -58.5q-95 0 -161.5 40.5t-99.5 102t-33 119.5q0 61 57 136q57 76 189 155q-45 27 -45 72q0 72 57 130q58 58 167 138q-57 81 -57 178q0 110 73 234q73 125 170.5 212t155.5 87q64 0 174 -105zM580 815
q-58 -40 -121 -138q-63 -97 -63 -148q0 -64 38 -64q31 0 67 50q37 49 62 121t25 138q0 27 -8 41zM205 -76q-44 -31 -96 -82.5t-52 -77.5q0 -37 72 -37q50 0 111.5 23t106 54t44.5 50q0 14 -24 24q-24 11 -64.5 21t-97.5 25z" />
    <glyph glyph-name="h" unicode="h" horiz-adv-x="975" 
d="M597 918q170 100 241 100q39 0 75 -27q37 -28 60 -82q23 -53 23 -126q0 -53 -33 -190t-86 -289q-52 -152 -108 -254.5t-101 -102.5q-54 0 -122 65t-68 111q0 17 24 60q25 43 37 69q43 93 102.5 239.5t59.5 178.5q0 35 -37 35q-30 0 -87 -35q-58 -34 -93 -70
q-23 -52 -77 -194t-73 -199q-16 -57 -28.5 -103t-34 -81.5t-54.5 -35.5q-28 0 -76 24q-48 22 -84 59t-36 76q0 34 26 112t111 293q94 238 135 342q42 104 95 224q54 119 120 245q56 111 103 111q31 0 74.5 -32t75.5 -74.5t32 -69.5q0 -32 -29 -86t-167 -293z" />
    <glyph glyph-name="i" unicode="i" horiz-adv-x="531" 
d="M252 -33q-11 0 -24.5 5t-38 19t-33.5 19q-3 2 -31 15t-46 26q-17 13 -27.5 31t-10.5 43q0 71 53 201q12 29 75 190.5t110 265.5t99.5 177t98.5 73q31 0 64 -28t55.5 -67t22.5 -70q0 -20 -9 -41q-8 -21 -23.5 -49t-37.5 -68q-83 -157 -170 -457q-19 -80 -35 -141
q-15 -61 -37 -102q-21 -42 -55 -42zM594 1512q31 0 72.5 -28t70.5 -69t29 -77q0 -39 -27 -96q-28 -56 -68 -97q-39 -41 -73 -41q-27 0 -66.5 26.5t-67.5 66.5t-28 79q0 60 51.5 148t106.5 88z" />
    <glyph glyph-name="j" unicode="j" horiz-adv-x="482" 
d="M365 1022q29 0 72 -28t73.5 -67t30.5 -69q0 -77 -74 -300.5t-171 -460.5t-154 -337q-36 -64 -71.5 -98.5t-102.5 -51t-189 -16.5q-86 0 -86 51q0 32 20.5 57t67.5 70q84 83 170 248q87 165 152.5 342t97.5 306q16 74 36 162t49.5 140t78.5 52zM539 1512q29 0 70 -28
q40 -27 70 -68q28 -41 28 -78q0 -39 -27 -96q-27 -56 -66 -97t-71 -41q-27 0 -67 27t-69 67t-29 78q0 35 23.5 93t60.5 100.5t77 42.5z" />
    <glyph glyph-name="k" unicode="k" horiz-adv-x="928" 
d="M430 385l-10 4q-9 -25 -41.5 -123.5t-56 -157.5t-54.5 -100t-69 -41q-24 0 -68 33q-43 33 -77 77q-34 45 -34 79q0 23 64.5 166t108.5 241q43 99 141 357q29 74 76 209q47 136 67 188q21 52 46.5 85.5t58.5 33.5q26 0 70 -24q45 -23 78 -55q32 -31 32 -56
q0 -32 -16.5 -78.5t-85.5 -217.5t-122 -315q105 65 148.5 98t110.5 107q30 35 60.5 69t51.5 51t39 17t32 -11.5t25 -29.5q10 -17 19 -32q5 -7 19 -23q15 -15 21.5 -28t6.5 -33q0 -44 -38.5 -100.5t-100.5 -113t-133 -103t-129 -68.5q24 -142 54.5 -209.5t76 -145.5
t45.5 -120q0 -18 -17.5 -25t-52 -10t-41.5 -5q-12 -2 -43 -15t-49 -13q-83 0 -131 124t-82 314z" />
    <glyph glyph-name="l" unicode="l" horiz-adv-x="537" 
d="M244 -33q-16 0 -33 5t-32.5 13t-34.5 19q-25 12 -42.5 21.5t-30.5 20t-21.5 28t-8.5 41.5q0 52 65.5 237t145.5 384t113 270q75 163 120 249.5t85.5 132.5t81.5 46q30 0 66 -32q35 -31 60 -72t25 -66q0 -29 -53 -131q-137 -259 -212 -459.5t-132 -394.5
q-56 -194 -83 -253t-79 -59z" />
    <glyph glyph-name="m" unicode="m" horiz-adv-x="1346" 
d="M930 883q151 94 236 94q43 0 90.5 -36.5t78.5 -94t31 -117.5q0 -111 -36 -228t-113 -329q-32 -86 -48 -124.5t-46.5 -69.5t-73.5 -31q-14 0 -29.5 6t-36 20t-32.5 23q-39 26 -55 42.5t-16 51.5q0 22 9 40q8 19 33 58t42 69.5t35 74.5q105 266 105 311q0 37 -39 37
q-53 0 -157 -110q-84 -305 -147 -445t-134 -140q-20 0 -37.5 8t-33.5 19t-34 23q-2 2 -19.5 12t-26.5 18q-10 9 -17 23q-7 15 -7 33q0 25 40.5 116t74.5 177q12 30 30.5 76t35 95t16.5 77t-20 28q-17 0 -30.5 -11t-57.5 -50.5t-78 -60.5q-10 -29 -64 -192t-84 -236
t-62.5 -114t-72.5 -41q-9 0 -19.5 4t-30.5 14.5t-48 23.5q-83 37 -83 96q0 26 13 63t49 123t71.5 174.5t82.5 217.5q8 24 43.5 148t65.5 178.5t76 54.5q13 0 25 -6q13 -6 34 -20t31 -19q3 -2 30 -15t40 -23.5t13 -23.5q0 -7 -10.5 -37t-13.5 -55q49 46 127 92.5t129 46.5
q46 0 81 -40t44 -99z" />
    <glyph glyph-name="n" unicode="n" horiz-adv-x="955" 
d="M555 871q89 86 140 118.5t92 32.5q58 0 101 -51.5t65 -119t22 -107.5q0 -48 -27.5 -121t-88 -213t-83.5 -211q-5 -17 -22 -99t-36 -119q-18 -37 -54 -37q-21 0 -121 48q-43 22 -67 40q-23 18 -23 50q0 85 127 402q37 91 67.5 147.5t30.5 73.5q0 24 -14 24
q-25 0 -86.5 -40t-87.5 -66q-49 -116 -88 -232.5t-73 -216.5q-33 -100 -61 -144q-27 -45 -63 -45q-46 0 -121 62q-84 73 -84 113q0 21 14 54t62 132.5t93.5 204t94.5 238.5q4 10 32 106t53 141.5t63 45.5q21 0 86 -33q21 -9 40 -18q18 -8 32 -23q14 -14 14 -37q0 -13 -4 -27
t-10 -32q-7 -17 -15 -41z" />
    <glyph glyph-name="o" unicode="o" horiz-adv-x="928" 
d="M744 889q99 -33 141.5 -88t42.5 -164q0 -129 -82 -284t-212 -261.5t-263 -106.5q-89 0 -154.5 50.5t-100 130t-34.5 162.5q0 123 55.5 251t163.5 242q49 52 159 137t161 85t76 -41.5t47 -112.5zM637 754q-68 -33 -132 -113t-104 -178.5t-40 -181.5q0 -53 32 -53
q49 0 111 79t106 188t44 191q0 30 -17 68z" />
    <glyph glyph-name="p" unicode="p" horiz-adv-x="955" 
d="M307 78q-32 -74 -78 -202t-77 -185.5t-68 -57.5q-24 0 -75.5 30.5t-92 69.5t-40.5 66q0 12 10 35q9 24 34.5 79.5t91.5 199.5q20 45 42.5 97t56.5 134.5t69 170.5t57 143q-25 29 -39 92q-14 64 -14 100q0 40 45 72q45 33 100 47q4 10 20 77q16 68 34.5 100t52.5 32
q41 0 87.5 -18t78.5 -45q33 -26 33 -48q0 -12 -13 -63q61 28 132 28q65 0 115.5 -49.5t78.5 -127.5q27 -77 27 -152q0 -131 -103.5 -301.5t-241.5 -292.5q-139 -124 -226 -124q-23 0 -37.5 13t-32.5 41.5t-27 38.5zM401 307q81 37 153 108t114.5 147.5t42.5 129.5
q0 58 -53 58q-57 0 -103 -31q-135 -351 -154 -412z" />
    <glyph glyph-name="q" unicode="q" horiz-adv-x="973" 
d="M451 35l-12 -2q-63 -39 -150 -39q-76 0 -122 49t-65 116q-20 68 -20 130q0 122 69.5 253t180.5 242q110 112 234.5 180t226.5 68q101 0 106 -122q13 12 23 12q13 0 37 -31l28 -35q10 -9 18 -16t14 -14t10.5 -19t4.5 -29q0 -40 -68.5 -173t-113 -229t-114.5 -312
q-34 -103 -60 -253q-27 -149 -46 -200.5t-73 -51.5q-38 0 -88.5 28t-86.5 74t-36 97q0 47 17 89.5t86 187.5zM713 721q-70 -30 -151.5 -106t-137 -164.5t-55.5 -151.5q0 -41 29 -41q59 0 116 72.5t102.5 168.5t96.5 222z" />
    <glyph glyph-name="r" unicode="r" horiz-adv-x="729" 
d="M609 918q40 28 128 63t132 35q35 0 50 -20t15 -39q0 -28 -37 -113q-12 -28 -21 -64.5t-19.5 -48t-42.5 -18t-124 -14.5q-79 -7 -111.5 -17.5t-50.5 -36.5t-45.5 -111t-43.5 -130q-60 -170 -87 -240.5t-65.5 -133.5t-79.5 -63q-12 0 -27 6t-34.5 18t-36.5 22
q-21 10 -39 19q-17 8 -33.5 20.5t-26.5 31t-10 45.5q0 26 11 48t51 91.5t88 169.5q48 101 108 250q17 41 48 150q32 109 58 157q27 48 72 48q32 0 106 -31q75 -30 75 -49q0 -17 -8 -45z" />
    <glyph glyph-name="s" unicode="s" horiz-adv-x="740" 
d="M570 772q-31 -9 -65 -34t-34 -48t17.5 -37t59 -30.5t44.5 -18.5q43 -22 70.5 -68.5t27.5 -107.5q0 -86 -51.5 -167t-128 -142t-155 -97.5t-127.5 -36.5q-57 0 -120 35.5t-106 86.5t-43 94q0 28 27 70t62 73t57 31q20 0 57 -33q8 -7 20 -19t23 -21q11 -8 23 -14
q12 -5 24 -5q24 0 58.5 16.5t60 43t25.5 55.5t-19 39q-18 9 -72 26q-73 25 -103 74t-30 102q0 86 57 180.5t168 157.5q111 64 263 64q55 0 102 -24t73.5 -67.5t26.5 -99.5q0 -86 -52.5 -128t-106.5 -42q-85 0 -133 92z" />
    <glyph glyph-name="t" unicode="t" horiz-adv-x="629" 
d="M644 1012q44 8 77 8q26 0 39.5 -14t26.5 -47q14 -33 15 -35q6 -11 14 -25q9 -14 14 -29q4 -14 4 -28q0 -43 -36.5 -58t-119 -21.5t-124.5 -14.5q-50 -135 -86 -239t-56 -175q-21 -70 -30 -121t-9 -90q0 -37 6 -70q5 -32 5 -43q0 -25 -20 -44q-19 -19 -44 -19q-20 0 -42 8
q-21 9 -43 22q-22 14 -48 31q-32 19 -59 35q-28 17 -47 40t-19 54q0 36 34.5 151.5t79 240t75.5 188.5q-19 0 -27 -2q-15 -4 -27 -4q-32 0 -32 94q0 18 1 48q1 29 1 36q1 39 14 58q12 20 33 27t74 14.5t77 13.5q9 20 47 116t63.5 137.5t55.5 41.5q21 0 66.5 -26t82 -58.5
t36.5 -48.5q0 -28 -72 -152z" />
    <glyph glyph-name="u" unicode="u" horiz-adv-x="961" 
d="M504 109q-189 -124 -264 -124q-49 0 -90 45q-41 43 -65 109.5t-24 126.5q0 53 73.5 252.5t165.5 361t161 161.5q21 0 63 -21t76 -50q33 -28 33 -50q0 -10 -7.5 -24.5t-40.5 -74t-81 -147.5q-164 -302 -164 -389q0 -39 49 -39q37 0 136 66q63 193 129 332t143 276
q55 96 113 96q50 0 101.5 -50.5t51.5 -96.5q0 -30 -9 -47t-46 -76q-65 -101 -127 -249q-62 -147 -86 -253q-11 -46 -18.5 -134.5t-23 -125.5t-61.5 -37q-56 0 -126.5 33t-70.5 90q0 20 9 39z" />
    <glyph glyph-name="v" unicode="v" horiz-adv-x="793" 
d="M400 396l8 -5q95 143 152.5 256.5t103.5 220.5t69 140t62 33q25 0 43.5 -13.5t33.5 -33.5q16 -21 29 -39q29 -37 42.5 -59.5t13.5 -53.5q0 -22 -25 -70t-120 -204q-56 -91 -166.5 -236.5t-216.5 -255t-158 -109.5q-19 0 -84 33q-48 25 -66 42t-18 57q0 33 13.5 89.5
t25 164t16.5 333.5v107q0 114 18 176q19 61 80 61q33 0 54.5 -11t66.5 -40q66 -43 88.5 -63.5t22.5 -63.5q0 -13 -4 -44.5t-26 -138.5q-21 -107 -58 -273z" />
    <glyph glyph-name="w" unicode="w" horiz-adv-x="1229" 
d="M400 492q33 39 69 99q36 61 148 265q3 39 7 90q5 51 20.5 82t52.5 31q27 0 48 -10.5t41 -27.5t42 -36q16 -11 32.5 -23t27.5 -23q12 -12 21 -32t9 -45t-15 -82t-27 -114t-24 -168q87 131 142 225q16 29 66 131t87 147q37 46 84 46q23 0 39 -12q17 -12 36.5 -38.5
t20.5 -27.5q11 -12 30 -31.5t27.5 -35t8.5 -35.5q0 -28 -18 -65.5t-44 -77t-101 -147.5t-140 -204q-61 -91 -127 -195q-66 -103 -95.5 -146t-56 -64t-55.5 -21q-52 0 -116 42t-64 134q0 26 1.5 47.5t6 67t6.5 74.5q0 8 1 26.5t1 28.5q1 14 2 39q1 26 2 39q-26 -57 -96 -170
q-69 -113 -146 -201q-76 -89 -128 -89q-33 0 -72 25q-39 23 -66 59t-27 68q0 19 5 42t16 61t16 59q14 56 32 199q19 143 26 237q2 53 6 137q4 83 27.5 136t79.5 53q20 0 38 -7t41.5 -21.5t34.5 -20.5q27 -11 49 -19.5t37 -27t15 -57.5q0 -27 -37 -181q-35 -142 -47 -235z
" />
    <glyph glyph-name="x" unicode="x" horiz-adv-x="826" 
d="M645 537q40 -191 67.5 -289t27.5 -115q0 -41 -20 -63q-21 -21 -68 -55q-18 -14 -39 -31q-21 -16 -42 -27q-21 -10 -42 -10q-37 0 -55 27q-18 28 -24 63q-5 35 -11 105q-14 125 -25 182q-49 -59 -79.5 -94t-43.5 -52t-51 -73q-1 -1 -25.5 -42.5t-42.5 -58.5
q-18 -19 -43 -19q-29 0 -69.5 28t-70.5 67.5t-30 73.5q0 24 13 55t52.5 83t119.5 137.5t188 191.5q-29 80 -39.5 110.5t-15.5 44.5q-13 36 -33.5 75t-20.5 52q0 30 28.5 72.5t67.5 74.5t66 32q44 0 74 -41q31 -41 52 -102q22 -62 42 -122q141 130 200.5 172.5t88.5 42.5
q34 0 47.5 -28t26.5 -78q7 -26 16 -52q9 -25 12.5 -37.5t3.5 -25.5q0 -28 -28.5 -54t-119.5 -95q-92 -68 -155 -125z" />
    <glyph glyph-name="y" unicode="y" horiz-adv-x="908" 
d="M430 285l9 2q90 164 137 263t117 252.5t97 196.5q28 42 56 42q20 0 60 -32q40 -31 73 -75q31 -43 31 -76q0 -46 -71.5 -182.5t-159.5 -279.5q-88 -142 -142 -222q-50 -73 -129 -177q-79 -103 -170 -204.5t-174 -169.5t-137 -68q-48 0 -89 74.5t-41 116.5q0 20 26 38
q27 18 76 51q50 32 120.5 97.5t159.5 176.5q-73 22 -105 44t-41 52q-8 29 -8 90q0 106 20 285.5t57 314.5q38 135 89 135q40 0 95 -23t93.5 -58t38.5 -68q0 -31 -36 -195q-46 -196 -52 -401z" />
    <glyph glyph-name="z" unicode="z" horiz-adv-x="817" 
d="M570 770l-5 8q-59 -23 -154 -48t-128 -25q-38 0 -49 27t-21 81q-4 25 -11 51t-7 37q0 54 48.5 70.5t168.5 34.5q100 18 153.5 26.5t139.5 8.5q71 0 115 -36.5t61.5 -85t17.5 -85.5q0 -25 -23 -59t-87 -99.5t-211 -205.5q-165 -157 -205 -201q90 8 186 8q108 0 163 -27
q54 -26 54 -119q0 -50 -38.5 -86.5t-102.5 -36.5q-20 0 -61.5 4.5t-114.5 4.5q-84 0 -190 -17q-59 -11 -100 -32t-68 -21q-35 0 -68 30q-33 31 -54 75q-20 43 -20 75q0 84 205 283q271 264 406 360z" />
    <glyph glyph-name="braceleft" unicode="{" horiz-adv-x="1004" 
d="M238 582l74 203q36 -4 49 -4q55 0 89.5 19.5t57 56t45 98t43.5 120.5q41 107 70 171t79.5 126.5t128 101t187.5 38.5q72 0 148 -33l-64 -172q-24 4 -70 4q-61 0 -102.5 -46t-66.5 -111t-54 -168.5t-45 -143.5q-74 -188 -260 -188l-4 -15q53 -14 86 -57.5t33 -116.5
q0 -37 -15 -74q-14 -38 -77 -188q-13 -30 -43 -100t-39 -98t-9 -52q0 -87 115 -90l-51 -158q-40 -6 -80 -6q-137 0 -197.5 88.5t-60.5 202.5q0 64 25 133t77 182q72 151 72 197q0 80 -141 80z" />
    <glyph glyph-name="bar" unicode="|" horiz-adv-x="701" 
d="M410 -512v2036h250v-2036h-250z" />
    <glyph glyph-name="braceright" unicode="}" horiz-adv-x="1004" 
d="M1012 629l-74 -203q-37 4 -49 4q-55 0 -90 -19q-34 -19 -56 -54q-21 -36 -54.5 -126.5t-34.5 -95.5q-57 -149 -109 -240q-52 -90 -136.5 -143t-217.5 -53q-76 0 -150 32l64 172q24 -4 71 -4q60 0 101.5 46t66.5 111t55 169t46 146q33 80 89 133t169 53l4 15
q-118 37 -118 174q0 31 10 63.5t43 106.5t41 92q57 133 72 176q16 42 16 74q0 49 -28 68q-27 18 -85 22l49 158q39 6 80 6q137 0 198 -89q60 -88 60 -202q0 -41 -8.5 -79t-24 -78.5t-34 -80t-35.5 -78.5q-72 -158 -72 -196q0 -29 30 -54.5t111 -25.5z" />
    <glyph glyph-name="asciitilde" unicode="~" horiz-adv-x="1362" 
d="M1096 881l225 -68q-143 -286 -342 -286q-85 0 -196 47q-105 45 -158 45q-90 0 -111 -101l-228 68q49 104 136 195.5t217 91.5q51 0 86 -10q36 -11 121 -43q102 -39 145 -39q74 0 105 100z" />
    <glyph glyph-name="afii10051" horiz-adv-x="1198" 
d="M877 1110q-67 -143 -121 -286q74 18 115 18q86 0 167.5 -42.5t133 -120t51.5 -175.5q0 -114 -43.5 -210.5t-113 -165t-147 -106t-141.5 -37.5q-73 0 -122.5 52t-49.5 125q0 66 23.5 118t69.5 52q36 0 50 -13.5t29 -39t29 -25.5q21 0 46 32t44 84q17 51 17 107
q0 52 -21 78.5t-80 26.5q-62 0 -157 -33q-43 -105 -101 -278q-3 -9 -27.5 -103t-49.5 -138.5t-64 -44.5q-22 0 -69 20.5t-79 41.5q-61 40 -61 111q0 34 41 154t100.5 271.5t117.5 290.5t95 220q-57 -14 -112 -14q-148 0 -148 180q0 54 43 84q43 31 108.5 43.5t144.5 17
t155 8.5q27 2 87 8t108 9q48 4 89 4q139 0 182.5 -71t43.5 -130q0 -44 -25 -64t-62 -26.5t-133.5 -14t-162.5 -18.5z" />
    <glyph glyph-name="afii10052" horiz-adv-x="758" 
d="M713 1141q23 -17 23 -41q0 -19 -36.5 -128t-89.5 -256t-112 -302q-43 -115 -77 -208q-34 -92 -55 -137t-41 -64.5t-48 -19.5q-17 0 -32.5 6t-37.5 17.5t-31 14.5q-28 8 -53 15q-24 7 -42.5 22.5t-18.5 44.5q0 27 11 58t52.5 128.5t75.5 185.5q96 250 113 296.5
t34.5 101.5t63.5 180q-43 0 -64 52q-22 53 -22 104q0 68 23.5 106t65.5 54.5t109 25.5q68 8 140 17q146 20 209 20q126 0 169 -60q44 -60 44 -124q0 -57 -50 -74q-49 -18 -163 -22q-115 -5 -160 -13z" />
    <glyph glyph-name="quotesinglbase" unicode="&#x201a;" horiz-adv-x="635" 
d="M471 123q0 -70 -61 -153t-145.5 -139.5t-143.5 -56.5q-39 0 -39 33q0 38 58 90q34 32 34 62q0 8 -5.5 13t-16 10t-15.5 8q-47 25 -47 74q0 52 29 109t74.5 94.5t89.5 37.5q32 0 77 -22t78 -63.5t33 -96.5z" />
    <glyph glyph-name="afii10100" unicode="&#x192;" horiz-adv-x="869" 
d="M205 764q0 59 36 122.5t127 109t243 45.5q97 0 165 -39q67 -38 100.5 -97.5t33.5 -121.5q0 -107 -71 -184q-73 -77 -148 -115.5t-199 -90.5q-158 -63 -158 -116q0 -54 41 -54t139 43q33 15 76 39.5t64.5 34.5t44.5 10q74 0 74 -59q0 -112 -53 -172.5t-173 -99.5
q-99 -34 -205 -34q-169 0 -235 92t-66 189q0 137 94 216q94 80 232 133q43 16 106 40q62 25 100 51q38 27 38 58q0 20 -9 36.5t-22 16.5q-22 0 -51.5 -13.5t-84.5 -42.5q-54 -29 -95 -44.5t-74 -15.5q-70 0 -70 63z" />
    <glyph glyph-name="quotedblbase" unicode="&#x201e;" horiz-adv-x="1045" 
d="M451 123q0 -78 -60 -160q-60 -81 -140.5 -135t-129.5 -54q-39 0 -39 33q0 38 58 90q34 32 34 62q0 8 -5.5 13t-16 10t-15.5 8q-47 25 -47 74q0 51 29 108t74.5 95t89.5 38q37 0 77 -25t66 -68q25 -42 25 -89zM881 123q0 -78 -60 -160q-60 -81 -140.5 -135t-129.5 -54
q-38 0 -38 33q0 38 57 90q35 32 35 62q0 8 -6 13q-5 5 -16 10q-10 5 -15 8q-47 25 -47 74q0 51 28.5 108t74 95t89.5 38q37 0 77 -25t66 -68q25 -42 25 -89z" />
    <glyph glyph-name="ellipsis" unicode="&#x2026;" horiz-adv-x="1788" 
d="M431 150q0 -28 -16.5 -66.5t-23.5 -62.5q-8 -28 -14 -66.5t-18 -52t-47 -13.5q-74 0 -152.5 55t-78.5 134q0 47 19.5 100.5t53.5 90t76 36.5q38 0 85.5 -22t81.5 -58t34 -75zM1028 150q0 -28 -17 -66.5t-24 -62.5q-7 -28 -14 -66q-6 -39 -18 -52.5t-47 -13.5
q-74 0 -152 55t-78 134q0 47 19 100.5t53 90t76 36.5q38 0 85.5 -22t81.5 -58q35 -36 35 -75zM1624 150q0 -28 -16.5 -66.5t-24.5 -62.5q-7 -28 -14 -66q-6 -39 -18 -52.5t-48 -13.5q-45 0 -99.5 24.5t-91.5 67.5q-38 44 -38 97q0 47 19 100.5t53 90t76 36.5q38 0 85.5 -22
t82 -58t34.5 -75z" />
    <glyph glyph-name="dagger" unicode="&#x2020;" horiz-adv-x="1022" 
d="M810 721q-161 -471 -210.5 -615.5t-90.5 -247.5q-40 -103 -67.5 -140.5t-58.5 -37.5q-25 0 -68 29.5t-76.5 69t-33.5 67.5q0 13 9.5 48t34.5 107t94.5 265t150.5 410q-55 -10 -100 -26.5t-70 -16.5q-40 0 -52 26.5t-12 78.5q0 71 9 112t40 69t93 44q63 16 178 26
q27 111 50.5 202t56.5 143.5t89 52.5q28 0 71 -24q44 -24 76 -58t32 -62q0 -39 -72 -239q18 2 53 2q105 0 147 -32.5t42 -135.5q0 -72 -38 -92.5t-124 -20.5h-59q-62 0 -94 -4z" />
    <glyph glyph-name="daggerdbl" unicode="&#x2021;" horiz-adv-x="1305" 
d="M717 449q-35 -89 -65 -199q151 3 224.5 17.5t150.5 37.5t130 23q75 0 75 -80q0 -135 -77 -182q-61 -39 -262.5 -60t-376.5 -21q-18 0 -70 -1t-83 -1q-143 0 -232.5 24.5t-89.5 93.5q0 36 25 98q25 63 59 80q14 8 37 8t59 -8q60 -13 97 -15q42 138 65 185q-82 -4 -147 -4
q-58 0 -78.5 27.5t-20.5 47.5q0 41 41 134q24 53 56 68q32 16 121 16q39 0 127 -5q62 144 130.5 257t152.5 200q85 86 187 134t224 48q90 0 156.5 -33.5t102.5 -87.5q34 -55 34 -116q0 -69 -30 -152q-32 -84 -76.5 -141t-80.5 -57q-27 0 -80 15t-95 41q-41 27 -41 62
q0 23 27.5 50t41.5 44.5t23 71.5v17q-9 24 -37 24q-72 0 -162 -114t-143 -261q165 15 233 15q84 0 84 -78q0 -24 -8 -53q-19 -69 -42.5 -102t-61.5 -46q-39 -12 -112 -15t-192 -7z" />
    <glyph glyph-name="perthousand" unicode="&#x2030;" horiz-adv-x="2382" 
d="M701 1405q38 25 88 25q48 0 82 -87t34 -186q0 -125 -50.5 -232t-135.5 -168.5t-182 -61.5q-80 0 -147.5 41t-106 111t-38.5 151q0 114 68 222q66 107 156 175q88 68 142 68q42 0 90 -58zM649 1196q-57 -28 -99.5 -83t-42.5 -109q0 -56 44 -56q35 0 67.5 55.5t32.5 143.5
q0 31 -2 49zM1532 1288q0 -70 -441 -630q-135 -172 -283 -368q-148 -195 -204 -267t-99 -113t-73 -41q-28 0 -59.5 32.5t-52 79.5t-20.5 85q0 29 25.5 64t114 133.5t193.5 221.5q105 124 260 324q98 127 168 230t146 218.5t108.5 154t58.5 38.5q30 0 67.5 -27.5t63.5 -66.5
q27 -40 27 -68zM1471 701q38 24 88 24q32 0 59 -41.5t42 -105.5t15 -125q0 -126 -50.5 -232.5t-135.5 -168.5t-182 -62q-80 0 -147 41.5t-106 111.5q-38 70 -38 150q0 115 67 222q67 108 155.5 175.5t142.5 67.5q42 0 90 -57zM1420 492q-57 -28 -99.5 -83t-42.5 -110t43 -55
q35 0 67.5 55t32.5 144q0 30 -1 49zM2177 701q38 24 88 24q33 0 59.5 -41.5t42 -105.5t15.5 -125q0 -126 -50.5 -232.5t-136 -168.5t-182.5 -62q-79 0 -146 41.5t-106 111.5t-39 150q0 115 67 222q67 108 156 175.5t142 67.5q42 0 90 -57zM2126 492q-57 -28 -99 -83
t-42 -110t43 -55q35 0 67.5 55t32.5 144q0 30 -2 49z" />
    <glyph glyph-name="afii10058" unicode="&#x160;" horiz-adv-x="1454" 
d="M1049 861q50 14 123 14q115 0 188 -49t104 -122.5t31 -146.5q0 -107 -58 -211q-59 -103 -147 -185q-89 -81 -174.5 -128.5t-134.5 -47.5q-28 0 -45 9q-16 10 -37.5 33t-31.5 33q-19 -37 -36 -56t-44 -19q-32 0 -76 27q-44 25 -76.5 58.5t-32.5 52.5q0 23 16.5 60.5
t35.5 97t50 213.5t68 422q-113 -147 -214 -335t-169 -343q-35 -86 -56.5 -138t-44.5 -83.5t-54 -31.5q-35 0 -86 27.5t-89 63.5q-38 37 -38 64q0 47 71 191t163 306t128 215q94 140 218 296q124 157 171 157q28 0 56 -27q2 71 6 97q3 27 14 39t37 12q54 0 97.5 -29t68 -82.5
t24.5 -124.5q0 -162 -26 -329zM946 275q105 32 183.5 98.5t78.5 157.5q0 78 -75 78q-58 0 -119 -37q-19 -133 -68 -297z" />
    <glyph glyph-name="quilsinglleft" unicode="&#x2039;" horiz-adv-x="731" 
d="M449 482q18 -60 36.5 -155.5t18.5 -150.5q0 -59 -28.5 -89.5t-59.5 -30.5q-45 0 -68 44t-58 152.5t-69 169.5q-14 25 -27 48q-13 24 -21 44q-9 21 -9 39q0 31 21.5 56.5t58 52.5t88.5 65q41 32 76 68q36 36 71 75q36 39 57 56.5t38 17.5q38 0 58 -23t44 -65
q14 -20 26.5 -39t20.5 -35.5t8 -31.5q0 -93 -282 -268z" />
    <glyph glyph-name="afii10059" unicode="&#x152;" horiz-adv-x="1454" 
d="M727 604h-49q-56 -3 -123 -24q-105 -249 -155 -410q-4 -12 -21 -76q-16 -64 -30 -85q-13 -22 -42 -22q-23 0 -41 7q-17 7 -48 25t-54 28q-45 22 -63 42q-20 20 -20 71q0 35 24.5 107t96.5 247q-68 0 -68 226q0 87 189 102q111 248 166 360t99 172t80 60q27 0 67.5 -32
t69.5 -74q30 -42 30 -70q0 -20 -63.5 -151.5t-110.5 -231.5q50 6 99 6q25 0 78 -4q89 187 143 284q25 45 49 89q25 44 44 70t39 39q21 13 46 13q38 0 71 -33q34 -33 54 -78q21 -45 21 -77q0 -28 -21 -70q-20 -43 -63 -119t-68 -126q83 0 162 -45q79 -44 130 -117
q50 -72 50 -150q0 -95 -58.5 -195t-148 -185.5t-178.5 -137.5q-90 -54 -143 -54q-76 0 -139 71q-43 -69 -105 -69q-40 0 -102 64t-62 95q0 26 29 115q30 88 139 343zM932 307q107 34 186.5 105.5t79.5 132.5q0 34 -24 52t-47 18q-38 0 -82 -15q-47 -107 -113 -293z" />
    <glyph glyph-name="afii10061" horiz-adv-x="1026" 
d="M805 666q22 -134 52 -255.5t59 -205.5q14 -37 43.5 -92.5t29.5 -79.5q0 -45 -17.5 -62t-70.5 -47q-58 -35 -92 -35q-69 0 -120 88.5t-82.5 208t-75.5 328.5q-56 -113 -102 -219q-45 -105 -79 -181t-57 -102.5t-57 -26.5q-19 0 -32.5 5t-32 17t-25.5 16q-6 3 -48.5 17.5
t-60 35t-17.5 66.5q0 27 17 65.5t81.5 166.5t122 246.5t128.5 278.5q32 72 78 191t70 174q23 56 50 93q27 38 56 38q24 0 74 -18q49 -17 86.5 -46.5t37.5 -64.5q0 -27 -23.5 -91t-107.5 -272q118 82 201 162q82 81 154.5 168t99.5 114t59 27q52 0 80.5 -65t28.5 -117
q0 -50 -71.5 -150t-189.5 -205t-247 -171z" />
    <glyph glyph-name="afii10060" horiz-adv-x="1157" 
d="M759 830q69 20 140 20q139 0 208 -86t69 -184q0 -62 -47.5 -221.5t-109.5 -285.5t-109 -126q-20 0 -38 7.5t-42 23t-41.5 24t-37.5 18.5q-19 9 -32 24q-12 15 -12 40q0 18 8 42t36 85.5t46 102.5q76 166 76 223q0 20 -13.5 29.5t-56.5 9.5q-44 0 -151 -33
q-56 -137 -99 -272q-9 -28 -24 -91t-27 -101q-12 -37 -34 -65.5t-54 -28.5q-30 0 -96 34q-57 27 -85 57q-28 31 -28 82q0 67 149 434.5t209 499.5q-65 -12 -116 -12q-148 0 -148 180q0 54 43 84q43 31 108.5 43.5t144.5 17t155 8.5q27 2 87 8t108 9q48 4 89 4
q139 0 182.5 -71t43.5 -130q0 -44 -24 -64.5t-65 -27t-135.5 -14t-166.5 -19.5q-58 -131 -110 -278z" />
    <glyph glyph-name="afii10145" horiz-adv-x="1100" 
d="M629 258q108 261 194 508q87 247 130 371t75.5 177.5t79.5 53.5q35 0 82.5 -28.5t81 -67.5t33.5 -70q0 -34 -28 -114q-28 -79 -59 -154t-104 -250q-74 -174 -106 -256q-20 -51 -62 -177t-73 -173.5t-94 -73t-187 -33.5q-9 -34 -38.5 -137.5t-53 -171t-52 -111
t-59.5 -43.5q-23 0 -65.5 32t-76.5 72t-34 60q0 27 11 55t42 95q32 67 60 135q-28 -8 -60 -8q-79 0 -131.5 59t-52.5 152q0 56 16 106t76 204t127.5 348.5t155.5 498.5q33 117 96 117q28 0 81 -36t94 -85.5t41 -89.5q0 -29 -13 -77t-54.5 -162.5t-119.5 -309.5
q-39 -97 -65.5 -159t-55.5 -125q-28 -63 -37 -84q-8 -21 -8 -35q0 -33 51 -33q26 0 89.5 9.5t72.5 10.5z" />
    <glyph glyph-name="afii10099" horiz-adv-x="996" 
d="M322 963q-12 -4 -19 -4q-33 0 -49 49q-16 50 -16 88q0 42 44.5 58.5t133.5 29.5q124 289 195 289q32 0 86 -38q55 -37 55 -77q0 -27 -14 -67q-16 -41 -37 -68q88 27 168 27q29 0 63.5 -31t59 -73.5t24.5 -72.5q0 -18 -61 -18q-14 0 -38 1t-44 1q-123 0 -254 -35
q-41 -82 -64 -166q196 121 283 121q81 0 123 -69q43 -70 43 -193q0 -439 -375 -850q-59 -66 -158.5 -159t-134.5 -93q-30 0 -53 43q-23 44 -23 147q0 30 22.5 57.5t97.5 112t120 150.5q78 115 140.5 259t62.5 259q0 64 -39 64q-30 0 -87 -35q-58 -34 -93 -70
q-23 -52 -77 -194t-73 -199q-16 -57 -28.5 -103t-34 -81.5t-54.5 -35.5q-28 0 -76 24q-48 22 -84 59t-36 76q0 87 301 817z" />
    <glyph glyph-name="quoteleft" unicode="&#x2018;" horiz-adv-x="635" 
d="M410 1094q0 70 62 153q60 82 144.5 138.5t143.5 56.5q39 0 39 -33q0 -38 -57 -90q-35 -31 -35 -61q0 -8 6 -13t16 -10t15 -8q47 -25 47 -74q0 -52 -29 -109t-74.5 -94.5t-89.5 -37.5q-32 0 -77 22t-78 63.5t-33 96.5z" />
    <glyph glyph-name="quoteright" unicode="&#x2019;" horiz-adv-x="635" 
d="M799 1260q0 -147 -215 -289q-89 -59 -135 -59q-39 0 -39 32q0 40 58 90q35 31 35 62q0 8 -6 13q-5 5 -16.5 10t-14.5 8q-47 25 -47 73q0 53 28.5 109.5t73.5 94.5t90 38q31 0 76.5 -22t78.5 -64q33 -41 33 -96z" />
    <glyph glyph-name="quotedblleft" unicode="&#x201c;" horiz-adv-x="1045" 
d="M840 1094q0 78 60 159t140 135q81 54 130 54q39 0 39 -33q0 -38 -57 -90q-35 -31 -35 -61q0 -8 5.5 -13t16 -10t15.5 -8q47 -25 47 -74q0 -51 -29 -108t-74 -95t-90 -38q-60 0 -114 55t-54 127zM410 1094q0 78 60 159t140 135q81 54 130 54q39 0 39 -33q0 -38 -57 -90
q-35 -31 -35 -61q0 -8 5.5 -13t16 -10t15.5 -8q47 -25 47 -74q0 -51 -29.5 -108t-74.5 -95t-89 -38q-61 0 -115 55q-53 55 -53 127z" />
    <glyph glyph-name="quotedblright" unicode="&#x201d;" horiz-adv-x="1045" 
d="M779 1260q0 -79 -60 -160t-141 -134q-80 -54 -129 -54q-39 0 -39 32q0 40 58 90q35 31 35 62q0 8 -6 13q-5 5 -16.5 10t-14.5 8q-47 25 -47 73q0 51 28.5 108.5t73.5 95.5t90 38q38 0 77 -25q40 -25 66 -68q25 -42 25 -89zM1209 1260q0 -79 -60 -160t-141 -135
q-80 -53 -129 -53q-39 0 -39 32q0 40 58 90q29 29 33 39q2 9 2 23q0 8 -6 13q-5 5 -16 10q-10 5 -15 8q-47 25 -47 73q0 51 28.5 108.5t73.5 95.5t90 38q38 0 77.5 -25.5t65 -67.5t25.5 -89z" />
    <glyph glyph-name="bullet" unicode="&#x2022;" horiz-adv-x="1516" 
d="M532 717q0 93 47 174q48 80 128 127q81 47 174 47t173 -47q81 -47 128 -127.5t47 -173.5t-47 -173.5t-128 -127.5q-80 -47 -173 -47t-174 47q-80 47 -128 128q-47 80 -47 173z" />
    <glyph glyph-name="emdash" unicode="&#x2013;" horiz-adv-x="1463" 
d="M286 826h1136v-254h-1136v254z" />
    <glyph glyph-name="endash" unicode="&#x2014;" horiz-adv-x="1342" 
d="M318 445q-113 0 -113 90q0 77 32.5 118t88.5 56q57 14 139 18q82 3 193 6q48 3 128 6q80 4 181 7q100 2 182 2q152 0 152 -90q0 -154 -127 -164q-39 -4 -111 -5t-74 -1q-93 -2 -311 -19q-326 -24 -360 -24z" />
    <glyph glyph-name="trademark" unicode="&#x2122;" horiz-adv-x="1616" 
d="M858 1219q-74 -146 -145 -350q-5 -14 -21 -74.5t-30 -84.5t-41 -24q-40 0 -100 42t-60 87q0 24 12 60q13 35 47.5 109.5t107.5 219.5q-16 0 -34 -6q-30 -14 -53 -14q-41 0 -66 44q-25 45 -25 75q0 41 23.5 63t63 31.5t87 12.5t107.5 8q106 8 177 8q82 0 101.5 -23
t31.5 -74q1 -6 4 -22q4 -16 4 -25q0 -32 -33 -49q-27 -14 -119 -14h-39zM1565 1077h-12q-51 -69 -118 -172t-92 -135t-48 -32q-62 0 -81.5 47.5t-19.5 134.5v84q-11 -30 -17 -43.5t-14.5 -29.5t-17.5 -36q-5 -10 -33 -83t-49 -99.5t-55 -26.5q-33 0 -80 37.5t-47 65.5
q0 12 9 32.5t31.5 59.5t79.5 143q58 103 130 238q-19 97 -19 108q0 36 35 36q14 0 43.5 -6t44.5 -7q18 -1 34 -1t25 -5t15 -21q15 -35 20 -129q3 -31 9 -88q7 -58 8 -102q39 69 104.5 158.5t133 152t114.5 62.5q19 0 49 -27t53 -64q21 -37 21 -63q0 -15 -17 -46.5t-30 -66.5
q-44 -132 -84 -268q-20 -82 -33 -132.5t-34 -81t-64 -30.5q-23 0 -62 20t-39 62q0 31 9 59q8 29 24.5 72t26.5 74q11 35 17 56.5t13 44t17 48.5z" />
    <glyph glyph-name="afii10106" unicode="&#x161;" horiz-adv-x="1204" 
d="M500 512l-8 2q-46 -96 -130 -233.5t-167 -235.5t-131 -98q-24 0 -58 30q-35 31 -62 70q-26 40 -26 60q0 24 18 51.5t80 103.5t141 181q80 105 185 260q27 38 100 153q74 115 107 150t72 35q22 0 40.5 -7t44.5 -20.5t32 -15.5q61 -31 73.5 -45.5t12.5 -51.5
q0 -33 -13 -108.5t-24 -147.5q41 19 104 19q83 0 149.5 -39.5t105 -106.5t38.5 -145q0 -93 -69 -183q-71 -91 -178 -147q-108 -58 -210 -58q-110 0 -191 53t-81 145q0 25 4 58t19 126t22 145zM750 391q-10 -76 -10 -104q0 -43 32 -43q33 0 78 50q46 49 46 89q0 16 -15 27
q-14 10 -37 10q-27 0 -94 -29z" />
    <glyph glyph-name="quilsinglright" unicode="&#x203a;" horiz-adv-x="731" 
d="M363 518q-20 66 -37 157t-17 149q0 60 29.5 90t57.5 30q39 0 60 -31q22 -31 46 -110q25 -79 33 -100q19 -50 33.5 -80t40.5 -76q25 -45 32.5 -63t7.5 -35q0 -30 -23.5 -58t-61.5 -56q-37 -29 -80 -60q-47 -36 -80.5 -70t-71.5 -77q-37 -43 -54 -56.5t-36 -13.5
q-31 0 -53.5 19t-40.5 47t-41 65q-25 31 -25 61q0 53 91.5 131t189.5 137z" />
    <glyph glyph-name="afii10107" unicode="&#x153;" horiz-adv-x="1286" 
d="M580 424q-67 0 -121 -16q-58 -175 -91 -271q-32 -97 -60 -144q-28 -46 -66 -46q-21 0 -38 10q-17 11 -43 34q-26 24 -34 30q-1 1 -31 18q-29 17 -42 32.5t-13 39.5q0 36 51.5 137.5t65.5 140.5q-12 1 -21 12t-15 51q-5 39 -5 111q0 103 141 109q28 89 50 161t41 117
t43 68t57 23q48 0 106 -28.5t58 -88.5q0 -12 -5 -32t-25 -83q-19 -63 -38 -127q20 2 61 2h60q39 79 86 186t71.5 139t65.5 32q33 0 73.5 -23t69.5 -56q28 -32 28 -59q0 -21 -13 -48q-12 -27 -43 -85q-30 -58 -51 -102q93 0 165 -41t110 -104.5t38 -124.5q0 -89 -79.5 -186.5
t-201.5 -161.5q-121 -65 -237 -65q-55 0 -110 26.5t-90.5 70.5t-35.5 92q0 67 68 250zM858 420q-46 -92 -46 -151q0 -31 22 -31q41 0 94 53q54 53 54 86q0 15 -18 33t-56 18q-25 0 -50 -8z" />
    <glyph glyph-name="afii10109" horiz-adv-x="905" 
d="M420 428h-8q-43 -114 -62 -165q-19 -50 -32 -89q-9 -26 -21.5 -65.5t-28.5 -70.5q-15 -31 -38 -51t-52 -20q-13 0 -26 7q-13 8 -33.5 24t-46.5 35q-36 26 -54 47t-18 55q0 33 62 162q76 164 134 303q57 140 104 250t76 146t69 36q19 0 61 -19.5t74.5 -45.5t32.5 -47
q0 -20 -44.5 -116t-78.5 -157q71 38 127.5 85.5t92.5 88.5t122 146q59 74 94 74q50 0 84 -82q6 -13 17 -33t17 -34q5 -13 5 -25q0 -49 -58 -125q-59 -75 -150 -147t-179 -111q24 -168 80 -304q14 -34 34 -79t27 -63t7 -32t-17 -21q-16 -8 -39 -11q-22 -3 -39 -5
q-21 -5 -37.5 -10t-31.5 -9q-15 -3 -25 -3q-51 0 -97 69.5t-75 182.5q-28 112 -29 229z" />
    <glyph glyph-name="afii10108" horiz-adv-x="975" 
d="M321 963q-11 -4 -18 -4q-33 0 -49 49q-17 50 -17 88q0 42 45 58.5t133 29.5q125 289 196 289q32 0 86 -38q55 -37 55 -77q0 -27 -15 -67.5t-36 -67.5q88 27 168 27q29 0 63.5 -31t59 -73.5t24.5 -72.5q0 -18 -61 -18q-14 0 -38 1t-44 1q-123 0 -254 -35q-41 -82 -64 -166
q193 121 283 121q64 0 111 -52t47 -151q0 -49 -33.5 -185t-86 -286.5t-108 -253t-100.5 -102.5q-19 0 -39.5 11t-42.5 29t-39 32q-38 29 -54 48t-16 56q0 13 4 23q5 9 26 47t43 83t54 122q97 230 97 272q0 35 -37 35q-30 0 -87 -35q-58 -34 -93 -70q-23 -52 -77 -194
t-73 -199q-16 -57 -28.5 -103t-34 -81.5t-54.5 -35.5q-41 0 -100 40q-24 16 -40 26q-16 11 -29 23q-12 12 -20 29t-8 41q0 87 301 817z" />
    <glyph glyph-name="afii10193" unicode="&#x178;" horiz-adv-x="961" 
d="M504 109q-189 -124 -264 -124q-49 0 -90 45q-41 43 -65 109.5t-24 126.5q0 53 73.5 252.5t165.5 361t161 161.5q21 0 63 -21t76 -50q33 -28 33 -50q0 -10 -7.5 -24.5t-40.5 -74t-81 -147.5q-164 -302 -164 -389q0 -39 49 -39q37 0 136 66q63 193 129 332t143 276
q55 96 113 96q50 0 101.5 -50.5t51.5 -96.5q0 -30 -9 -47t-46 -76q-65 -101 -127 -249q-62 -147 -86 -253q-11 -46 -18.5 -134.5t-23 -125.5t-61.5 -37q-56 0 -126.5 33t-70.5 90q0 20 9 39zM312 -451q-87 0 -135 27.5t-48 68.5q0 55 42 135t116 139q75 58 168 58
q28 0 45.5 -26t17.5 -64q0 -17 -21 -56q-20 -39 -34 -81q-6 -17 -21.5 -69t-30 -78t-38.5 -40t-61 -14z" />
    <glyph glyph-name="afii10062" unicode="&#xa1;" horiz-adv-x="998" 
d="M670 875q100 139 201 309.5t138 221t81 50.5q47 0 100 -57.5t53 -118.5q0 -32 -24 -87.5t-128 -210t-302 -414.5q-145 -192 -239 -309q-93 -116 -149 -176.5t-83 -79t-47 -18.5q-29 0 -74 29q-47 29 -81 67q-35 39 -35 67q0 29 27.5 65t103.5 112t125.5 128.5
t106.5 128.5q-56 18 -71 53t-17 100v107q1 94 3 226q1 132 11 213q8 81 30.5 128t64.5 47q41 0 97 -29t96 -72t40 -83q0 -51 -14.5 -162t-14.5 -192zM977 1678q48 0 121 26t131 62q36 22 53 22q13 0 19 -4q24 -15 24 -47q0 -35 -30 -80q-31 -44 -92 -86t-151 -69
q-89 -27 -200 -27q-80 0 -146 46q-67 47 -67 97q0 31 20 87q21 55 53.5 96.5t68.5 41.5q54 0 120.5 -22t66.5 -62q0 -5 -12 -30q-12 -21 -12 -29q0 -22 33 -22z" />
    <glyph glyph-name="afii10110" unicode="&#xa2;" horiz-adv-x="908" 
d="M430 285l9 2q90 164 137 263t117 252.5t97 196.5q28 42 56 42q20 0 60 -32q40 -31 73 -75q31 -43 31 -76q0 -46 -71.5 -182.5t-159.5 -279.5q-88 -142 -142 -222q-50 -73 -129 -177q-79 -103 -170 -204.5t-174 -169.5t-137 -68q-48 0 -89 74.5t-41 116.5q0 20 26 38
q27 18 76 51q50 32 120.5 97.5t159.5 176.5q-73 22 -105 44t-41 52q-8 29 -8 90q0 106 20 285.5t57 314.5q38 135 89 135q40 0 95 -23t93.5 -58t38.5 -68q0 -31 -36 -195q-46 -196 -52 -401zM1023 1284q-20 -37 -88 -74.5t-151.5 -62t-144.5 -24.5q-51 0 -93 28.5t-65.5 72
t-23.5 85.5q0 46 30 92.5t70 77.5q41 31 66 31q24 0 58 -32t34 -54q0 -7 -16 -37q-19 -33 -19 -39q0 -18 13.5 -32.5t29.5 -14.5q27 0 97 39.5t106 70.5q71 60 104 60q21 0 21 -54q0 -24 -10 -70t-18 -63z" />
    <glyph glyph-name="afii10057" unicode="&#xa3;" horiz-adv-x="979" 
d="M971 1434q30 0 82 -31.5t91.5 -76.5t39.5 -83q0 -28 -37 -139.5t-88 -243.5q-50 -133 -67 -170q-313 -705 -674 -705q-130 0 -213 86q-85 85 -85 216q0 119 31 189q29 69 98 101t187 32q66 0 66 -46q0 -12 -5 -24.5t-25 -56.5t-26 -56q-32 -73 -32 -131q0 -33 32 -33
q55 0 142 142t173.5 342t141.5 366q21 77 41.5 149.5t50.5 122.5t76 50z" />
    <glyph glyph-name="currency" unicode="&#xa4;" horiz-adv-x="1702" 
d="M287 162l199 201q-101 159 -101 336q0 182 101 331l-199 201l174 172l199 -198q171 100 334 100q114 0 201 -33.5t132 -66.5l203 200l172 -174l-200 -201q102 -150 102 -331q0 -176 -102 -336l198 -201l-170 -172l-201 199q-156 -101 -335 -101q-165 0 -336 101
l-197 -199zM639 699q0 -96 49 -178.5t130 -130.5q82 -48 176 -48q95 0 177 48.5t130 130.5q47 83 47 178q0 96 -47.5 177t-129 128t-177.5 47q-94 0 -176 -47.5t-130.5 -128.5t-48.5 -176z" />
    <glyph glyph-name="afii10050" unicode="&#xa5;" horiz-adv-x="811" 
d="M693 1067q-26 -92 -60.5 -219t-62.5 -222q-27 -94 -56 -177q-31 -101 -65.5 -210t-72 -181.5t-79.5 -72.5q-17 0 -39 9q-21 9 -42 22.5t-42 26.5q-25 13 -52 26.5t-44 31.5t-17 45q0 34 62 172t118 277t136 403q-27 0 -38 11t-28 56.5t-25 63.5q-16 39 -16 65
q0 41 32.5 67t91.5 42.5t107.5 24.5t227.5 36q92 12 101 21q6 6 11 24t13 35q27 53 213 53q38 0 55 -19t17 -40q0 -32 -35.5 -127t-50.5 -119q-32 -52 -85 -74.5t-162 -35.5q-108 -14 -113 -15z" />
    <glyph glyph-name="brokenbar" unicode="&#xa6;" horiz-adv-x="590" 
d="M590 658q0 -22 -20 -73t-21 -54q-5 -16 -12 -58.5t-20.5 -58.5t-47.5 -16q-45 0 -123 41q-54 29 -80 61q-26 33 -26 86q0 43 19.5 97.5t53.5 93t72 38.5q27 0 111 -45q41 -21 67.5 -45.5t26.5 -66.5zM432 150q0 -28 -16.5 -66.5t-24.5 -62.5q-7 -28 -14 -66
q-6 -39 -18 -52.5t-47 -13.5q-40 0 -121 41q-55 30 -82 63t-27 85q0 47 19 100.5t53 90t76 36.5q29 0 108 -45q51 -27 72.5 -45.5t21.5 -64.5z" />
    <glyph glyph-name="section" unicode="&#xa7;" horiz-adv-x="996" 
d="M747 404q25 -49 25 -97q0 -79 -61 -168.5t-167.5 -150t-234.5 -60.5q-112 0 -170 52t-58 127q0 74 42 137t115 63q62 0 78 -55q8 -33 12.5 -43t21.5 -10q35 0 76 35q41 36 41 67q0 30 -35 60q-15 12 -68 37q-53 26 -89.5 50t-62.5 67t-26 110q0 75 43 149t113 130
q70 57 147 85q-28 43 -28 76q0 75 55 162t155 147t226 60q77 0 137 -25q60 -24 93 -63q32 -38 32 -78q0 -31 -29 -76.5t-76 -80t-95 -34.5q-36 0 -42.5 12t-13.5 50q-5 39 -38 39q-38 0 -67.5 -20t-29.5 -48q0 -39 29 -62q28 -22 90 -57q152 -81 152 -235q0 -68 -31 -135.5
t-96.5 -125.5t-164.5 -91zM568 582q7 3 52 26q46 23 68.5 38.5t36.5 35t14 43.5q0 49 -85 80q-57 -20 -112 -60t-55 -91q0 -43 81 -72z" />
    <glyph glyph-name="afii10023" unicode="&#xa8;" horiz-adv-x="850" 
d="M616 832q53 6 111 6q109 0 129 -21q14 -16 14 -41q0 -21 -8 -49q-4 -23 -7 -48q-4 -24 -11.5 -43t-22.5 -34q-26 -23 -76 -26.5t-233 -7.5q-23 -44 -65 -145.5t-42 -131.5q0 -35 44 -35q77 0 116 8t68 23q29 16 49 22q20 7 72 7q23 0 42 -18t19 -62q0 -93 -20 -126
t-62 -50q-73 -29 -209 -51q-136 -24 -219 -24q-72 0 -147 39q-77 39 -77 163q0 81 55.5 243t137 336t150.5 287q-38 0 -51 25q-13 26 -13 73q0 12 1 39q1 26 1 39q0 36 14.5 57t54.5 35q41 15 117 26q76 12 222 26q85 8 140 8q77 0 112 -27q34 -26 74 -127q20 -51 20 -92
q0 -47 -55 -47q-9 0 -58 7t-128 7q-64 0 -93.5 -8t-49.5 -31.5t-46 -80.5q-28 -58 -70 -150zM811 1645q0 -25 -13 -54q-12 -28 -24 -55q-6 -15 -14 -49q-7 -34 -19 -47q-11 -14 -42 -14q-44 0 -97 17t-91 48t-38 72q0 73 38.5 156t94.5 83q30 0 80.5 -23.5t87.5 -60.5
q37 -36 37 -73zM1196 1645q0 -14 -6 -32t-16 -38q-9 -21 -17 -39q-9 -20 -18 -54t-19 -45t-38 -11q-59 0 -133 47q-75 48 -75 110q0 43 14 95q15 52 41 88q27 36 60 36q39 0 88 -27t84 -64.5t35 -65.5z" />
    <glyph glyph-name="copyright" unicode="&#xa9;" horiz-adv-x="1735" 
d="M287 709q0 198 97 364.5t264 263t362 96.5q151 0 284 -56q132 -55 231 -155q100 -101 155 -233.5t55 -279.5q0 -198 -96.5 -364t-262.5 -263q-167 -96 -366 -96q-196 0 -363 96q-166 96 -263 262.5t-97 364.5zM492 709q0 -141 69 -260.5t188.5 -188.5t260.5 -69
q144 0 263 69q120 69 188.5 188.5t68.5 260.5q0 144 -68 263q-69 120 -189 189q-119 68 -263 68q-141 0 -260.5 -68.5t-188.5 -188.5q-69 -119 -69 -263zM930 305q-125 0 -192 80q-66 79 -66 183q0 76 34 168.5t98 178t152 138.5t189 53q86 0 134 -40t48 -109
q0 -109 -42 -160.5t-136 -51.5q-47 0 -47 36q0 9 17 38q16 30 16 72q0 32 -17 32q-26 0 -74 -50q-48 -49 -84 -125t-36 -150q0 -86 47 -86q23 0 82 31q24 12 45.5 25.5t34 19.5t24.5 6q41 0 41 -47q0 -242 -268 -242z" />
    <glyph glyph-name="afii10053" unicode="&#xaa;" horiz-adv-x="934" 
d="M479 559q-26 -116 -26 -182q0 -77 16 -108t62 -31q64 0 157 57q57 36 78 48t51 12q72 0 72 -78q0 -58 -27.5 -122.5t-120.5 -117t-268 -52.5q-102 0 -182 55q-81 53 -124.5 141.5t-43.5 185.5q0 163 61.5 350.5t171 351t253.5 264.5t303 101q233 0 233 -193
q0 -50 -20 -120q-19 -59 -44 -88t-63.5 -38.5t-103.5 -9.5q-49 0 -72 20.5t-23 43.5q0 24 19.5 63t19.5 49q0 19 -22 19q-38 0 -91 -61q-52 -61 -101 -146q-48 -85 -76 -158q155 8 174 11q29 3 78 10.5t69 7.5q25 0 44 -16q20 -17 20 -54q0 -40 -33 -112q-22 -47 -41 -69
q-19 -21 -59 -32.5t-119 -11.5v0z" />
    <glyph glyph-name="guillemotleft" unicode="&#xab;" horiz-adv-x="1106" 
d="M449 482q18 -60 36.5 -155.5t18.5 -150.5q0 -59 -28.5 -89.5t-59.5 -30.5q-38 0 -60.5 32.5t-50 119t-28.5 89.5q-14 36 -30.5 70t-40.5 79t-33 67.5t-9 39.5q0 31 21.5 56.5t58 52.5t88.5 65q41 32 76 68q36 36 71 75q36 39 57 56.5t38 17.5q38 0 58 -23t44 -65
q14 -20 26.5 -39t20.5 -35.5t8 -31.5q0 -93 -282 -268zM840 424q0 -7 14 -90q11 -59 11 -104q0 -46 -25 -71.5t-57 -25.5q-31 0 -48 24t-27 60t-24 84q-11 32 -42 92t-31 89q0 28 20.5 51.5t73 61t55.5 40.5q40 33 87 82.5t68 67.5t44 18q32 0 67 -65q39 -67 39 -91
q0 -32 -23 -64.5t-57.5 -60t-72.5 -52t-72 -46.5z" />
    <glyph glyph-name="logicalnot" unicode="&#xac;" horiz-adv-x="1463" 
d="M246 983h1135v-645h-254v391h-881v254z" />
    <glyph glyph-name="registered" unicode="&#xae;" horiz-adv-x="1735" 
d="M287 709q0 198 97 364.5t264 263t362 96.5q151 0 284 -56q132 -55 231 -155q100 -101 155 -233.5t55 -279.5q0 -198 -96.5 -364t-262.5 -263q-167 -96 -366 -96q-196 0 -363 96q-166 96 -263 262.5t-97 364.5zM492 709q0 -141 69 -260.5t188.5 -188.5t260.5 -69
q144 0 263 69q120 69 188.5 188.5t68.5 260.5q0 144 -68 263q-69 120 -189 189q-119 68 -263 68q-141 0 -260.5 -68.5t-188.5 -188.5q-69 -119 -69 -263zM920 633q-8 -23 -25 -110q-18 -86 -39.5 -122t-68.5 -36q-34 0 -74.5 30.5t-40.5 59.5q0 9 4 26t14 56t25 102
q27 114 56.5 204.5t29.5 94.5q-5 0 -16 -1t-15 -1q-25 0 -32 18t-7 46q0 42 66 88q65 47 293 47q102 0 164.5 -49t62.5 -121q0 -121 -102 -209q-26 -22 -67.5 -44t-41.5 -34q0 -8 64 -88q27 -35 60 -70t46 -55q27 -38 27 -61q0 -58 -139 -58q-50 0 -124.5 96.5t-119.5 190.5
zM953 772q62 35 107.5 79.5t45.5 78.5q0 33 -55 33q-22 0 -30.5 -4t-15.5 -18t-20 -58.5t-32 -110.5z" />
    <glyph glyph-name="afii10056" unicode="&#xaf;" horiz-adv-x="666" 
d="M316 -53q-23 0 -43.5 10t-47 31t-40.5 31q-45 29 -64 50.5t-19 65.5q0 74 287 748q112 261 162.5 367.5t84.5 144.5q34 39 75 39q34 0 75 -33t70 -79t29 -81q0 -22 -54 -135.5t-111 -243.5t-142 -364q-25 -67 -60 -194t-58 -196q-24 -68 -58 -115q-35 -46 -86 -46z
M740 1684q0 -25 -16.5 -59t-20.5 -48q-5 -13 -14 -49t-21 -49q-12 -12 -41 -12q-40 0 -95 21q-55 22 -94 58t-39 78q0 69 39.5 144t96.5 75q32 0 81 -23q50 -23 87 -60t37 -76zM1116 1626q0 -18 -5.5 -35t-16.5 -41t-14 -32q-7 -17 -14 -50q-7 -32 -19 -46.5t-43 -14.5
q-42 0 -95.5 21.5t-91.5 57.5q-39 37 -39 79t16.5 94t47.5 88.5t72 36.5q28 0 77.5 -23t87 -60t37.5 -75z" />
    <glyph glyph-name="degree" unicode="&#xb0;" horiz-adv-x="574" 
d="M368 1229q0 73 36 134.5t97 96.5q62 35 134 35q73 0 134 -35q62 -35 97 -97q35 -61 35 -134q0 -72 -35 -134q-35 -61 -96 -97q-62 -35 -135 -35q-111 0 -189 77q-78 78 -78 189zM520 1229q0 -46 34.5 -80.5t80.5 -34.5q30 0 56.5 16t42.5 42.5t16 56.5q0 46 -34.5 80.5
t-80.5 34.5t-80 -35q-35 -34 -35 -80z" />
    <glyph glyph-name="plusminus" unicode="&#xb1;" horiz-adv-x="1463" 
d="M287 1022h440v402h254v-402h441v-254h-441v-317h-254v317h-440v254zM287 357h1135v-254h-1135v254z" />
    <glyph glyph-name="afii10055" unicode="&#xb2;" horiz-adv-x="598" 
d="M275 -53q-41 0 -91.5 30t-86.5 74t-36 84q0 74 287 748q112 261 162.5 367.5t84.5 144.5q34 39 75 39q27 0 69.5 -37t73.5 -83t31 -73q0 -52 -18 -95t-91.5 -191t-146 -325.5t-158.5 -449.5q-17 -57 -29.5 -97.5t-27 -70.5t-37.5 -48q-24 -17 -61 -17z" />
    <glyph glyph-name="afii10103" unicode="&#xb3;" horiz-adv-x="531" 
d="M252 -33q-11 0 -24.5 5t-38 19t-33.5 19q-3 2 -31 15t-46 26q-17 13 -27.5 31t-10.5 43q0 71 53 201q12 29 75 190.5t110 265.5t99.5 177t98.5 73q31 0 64 -28t55.5 -67t22.5 -70q0 -20 -9 -41q-8 -21 -23.5 -49t-37.5 -68q-83 -157 -170 -457q-19 -80 -35 -141
q-15 -61 -37 -102q-21 -42 -55 -42zM594 1512q31 0 72.5 -28t70.5 -69t29 -77q0 -39 -27 -96q-28 -56 -68 -97q-39 -41 -73 -41q-27 0 -66.5 26.5t-67.5 66.5t-28 79q0 60 51.5 148t106.5 88z" />
    <glyph glyph-name="afii10098" unicode="&#xb4;" horiz-adv-x="725" 
d="M541 776q-41 -162 -105 -362q-30 -99 -63 -217t-45 -153t-29 -56t-45 -21q-19 0 -36.5 6t-38.5 19q-22 14 -35 21q-7 3 -46 16.5t-58 30.5t-19 49q0 39 33 114q26 61 58 138q33 78 53 128t44 116.5t42 129.5q-17 0 -27 6.5t-16 19.5q-7 14 -13.5 37.5t-17.5 61.5
q-8 25 -8 52q0 64 90 94t321 33h84q42 0 60.5 7t35.5 36q13 23 25 44q12 22 35 35q23 14 67 19h57q36 -4 52 -18.5t16 -59.5q0 -28 -26.5 -92.5t-47.5 -99.5q-75 -134 -180 -134q-17 0 -59.5 4.5t-85.5 4.5q-48 0 -72 -9z" />
    <glyph glyph-name="mu" unicode="&#xb5;" horiz-adv-x="1096" 
d="M328 131q-45 -113 -88 -234q-44 -120 -63.5 -167.5t-41.5 -78t-47 -30.5q-22 0 -75.5 26t-95 61t-41.5 62q0 39 46 133q47 94 121 240q72 146 151.5 346t151.5 457q3 11 21 86t35.5 103.5t52.5 28.5q38 0 88 -24t84 -64.5t34 -86.5q0 -32 -10.5 -61.5t-87.5 -237.5
q-46 -120 -67.5 -176.5t-31.5 -89t-10 -55.5q0 -41 21 -66q20 -24 45 -24q23 0 58 26q36 25 57 54q31 93 76 204q45 112 98 217t104 170.5t91 65.5q31 0 67.5 -24.5t61 -59.5t24.5 -63q0 -17 -9 -37t-21.5 -40t-30.5 -48q-134 -215 -181 -319q-46 -104 -46 -156
q0 -58 20 -58q11 0 28.5 15.5t43.5 15.5q19 0 46 -26q28 -27 48 -64.5t20 -67.5q0 -47 -81.5 -92t-143.5 -45q-70 0 -124 43q-55 44 -79 115q-105 -111 -184 -111q-56 0 -95.5 40t-39.5 97z" />
    <glyph glyph-name="paragraph" unicode="&#xb6;" horiz-adv-x="1415" 
d="M1237 1125h-143q-89 -150 -147 -288q-57 -138 -140 -368q-38 -106 -58 -168t-29 -98.5t-19 -81.5q-23 -88 -37 -117q-24 -45 -62 -45q-15 0 -31 6t-37 16q-20 11 -30 15l-62 24q-31 13 -51 36q-19 23 -19 65q0 48 24.5 112t84.5 198q60 135 92 221q-37 -7 -79 -7
q-58 0 -105 36t-75 92.5t-28 111.5q0 85 48 188q48 104 115 179q56 62 141.5 128t134.5 66q35 0 60 -16t52 -42t36 -26q35 0 47.5 6.5t16.5 19t10.5 18t29.5 5.5q26 0 38 -6t25.5 -20t22.5 -19.5t29 -5.5q6 0 13 3.5t19.5 13t14.5 10.5q27 16 82 16q38 0 97 -4t89 -4
q28 0 81.5 4t86.5 4q127 0 127 -92q0 -21 -10 -51q-38 -111 -82 -127q-21 -6 -35 -6q-8 0 -18.5 2t-14.5 2q-9 0 -14 -10q-18 -35 -81 -194q-64 -158 -127 -324t-97 -267q-16 -48 -45 -166q-29 -117 -57.5 -164t-86.5 -47q-48 0 -116 49q-36 24 -55 52.5t-19 85.5
q0 54 34 162.5t122 308.5q88 201 237 508z" />
    <glyph glyph-name="periodcentered" unicode="&#xb7;" horiz-adv-x="596" 
d="M555 637q0 -25 -15.5 -59.5t-25.5 -67.5q-10 -51 -15 -77.5t-18 -41t-47 -14.5q-44 0 -120 43q-56 30 -82.5 62t-26.5 86q0 40 18.5 95t52.5 93q33 39 77 39q29 0 108 -45q49 -26 71.5 -46.5t22.5 -66.5z" />
    <glyph glyph-name="afii10071" unicode="&#xb8;" horiz-adv-x="910" 
d="M387 424q-22 -64 -22 -115q0 -77 59 -77q71 0 160 43q49 23 80 38t44 20q14 5 25 5q45 0 45 -65q0 -12 -1 -29.5t-1 -22.5q-6 -79 -74.5 -132t-159 -78t-159.5 -25q-136 0 -218.5 77.5t-82.5 219.5q0 124 58.5 259t152.5 249q95 113 202 182q108 68 200 68q72 0 133 -39
q60 -38 96 -101q35 -62 35 -129q0 -96 -77 -192q-78 -95 -184 -157t-176 -62q-53 0 -135 63zM453 570q45 9 102 41t96 73t39 74q0 39 -38 39q-26 0 -66 -37t-76.5 -89.5t-56.5 -100.5zM602 1514q32 0 72 -28t69 -69t29 -75q0 -38 -28 -95.5t-67.5 -100t-72.5 -42.5
q-25 0 -64 26.5t-68 66.5t-29 79q0 36 25.5 93.5t63.5 100.5q37 44 70 44zM989 1514q33 0 72 -28q40 -29 67 -70t27 -74q0 -31 -26 -90t-64.5 -103.5t-75.5 -44.5q-25 0 -64.5 27t-69 66.5t-29.5 78.5q0 34 26 91q26 58 64 102q38 45 73 45z" />
    <glyph glyph-name="afii61352" unicode="&#xb9;" horiz-adv-x="1782" 
d="M547 697q-26 -85 -50 -160.5t-30.5 -97.5t-19.5 -64q-6 -20 -33.5 -145.5t-55.5 -185t-77 -59.5q-45 0 -131 73q-23 18 -34 28t-22.5 27t-11.5 37q0 60 75.5 273.5t172.5 458.5t121 300q-5 34 -14 91t-9 83q0 27 24.5 53.5t76.5 26.5q88 0 135 -20q46 -19 65 -58
q20 -39 29 -110q10 -71 20 -156q20 -141 56 -344q40 103 91.5 259.5t80.5 235.5q28 80 60 129q32 50 71 50q22 0 41 -14t33 -33q15 -20 28 -39q21 -23 35.5 -39t24.5 -31.5t10 -34.5q0 -23 -23.5 -75.5t-61.5 -140.5q-39 -87 -96 -239.5t-128 -375.5q-21 -65 -48 -183.5
t-38 -159.5t-31 -76q-21 -34 -53 -34q-58 0 -131.5 46t-79.5 132q-11 143 -18 202q-7 60 -54 370zM1643 1045q12 15 32.5 29t36.5 14q45 0 78 -110t33 -220q0 -137 -59 -242.5t-151.5 -162t-186.5 -56.5q-85 0 -142 40.5t-84 103t-27 127.5q0 121 71 248q72 126 163 212
t133 86q17 0 30.5 -9t38 -31t34.5 -29zM1579 883q-180 -147 -180 -297q0 -70 49 -70q34 0 66 42t51.5 110.5t19.5 138.5q0 42 -6 76zM1141 -23q-131 0 -131 99q0 49 23 76.5t60 38.5t92 16t105 8q168 17 248 17q88 0 133 -16t45 -66q0 -85 -47 -107q-48 -21 -143 -28
q-23 -2 -48 -5t-42 -4q-66 -4 -103 -8q-32 -3 -96.5 -12t-95.5 -9z" />
    <glyph glyph-name="afii10101" unicode="&#xba;" horiz-adv-x="852" 
d="M444 609q50 4 76 4q240 0 240 -60q0 -38 -50.5 -89.5t-86.5 -51.5q-15 0 -74 4t-100 4q-37 0 -80 -8q-17 -47 -17 -86q0 -31 17 -49.5t47 -18.5q53 0 123 31l44 22t51 23.5t34 7.5q25 0 46 -19t21 -69q0 -83 -28 -122t-82 -68q-147 -79 -260 -79q-124 0 -214 84t-90 243
q0 114 53.5 243t142.5 239q89 111 196.5 179t210.5 68q126 0 177.5 -70.5t51.5 -157.5q0 -38 -28.5 -69t-72 -49.5t-79.5 -18.5q-61 0 -61 70q0 8 3 23.5t3 25.5q0 24 -25 24q-49 0 -102.5 -69.5t-86.5 -140.5z" />
    <glyph glyph-name="guillemotright" unicode="&#xbb;" horiz-adv-x="1106" 
d="M738 518q-33 136 -43.5 188t-10.5 118q0 60 29.5 90t56.5 30q40 0 62 -31.5t45.5 -109.5t32.5 -100q20 -55 36.5 -88.5t39.5 -73.5t31 -58q7 -17 7 -34q0 -30 -23.5 -58t-62.5 -57t-80 -59q-50 -40 -86 -77.5t-66.5 -74t-49 -51t-39.5 -14.5t-36 7t-26 19t-26 36t-17 26
q-12 18 -25 35.5t-21.5 35.5t-8.5 33q0 93 281 268zM348 576q0 16 -14 90q-10 48 -10 104q0 45 24.5 72t57.5 27q31 0 47.5 -24t31.5 -78q14 -53 19 -66q14 -36 44 -94t30 -87t-19 -52q-19 -22 -67.5 -56t-63.5 -45q-24 -19 -71 -70t-74.5 -75.5t-52.5 -24.5q-33 0 -68 65
q-7 14 -17 31t-16 30.5t-6 29.5q0 33 22 64.5t56 58.5t79 56t68 44z" />
    <glyph glyph-name="afii10105" unicode="&#xbc;" horiz-adv-x="482" 
d="M365 1022q29 0 72 -28t73.5 -67t30.5 -69q0 -77 -74 -300.5t-171 -460.5t-154 -337q-36 -64 -71.5 -98.5t-102.5 -51t-189 -16.5q-86 0 -86 51q0 32 20.5 57t67.5 70q84 83 170 248q87 165 152.5 342t97.5 306q16 74 36 162t49.5 140t78.5 52zM539 1512q29 0 70 -28
q40 -27 70 -68q28 -41 28 -78q0 -39 -27 -96q-27 -56 -66 -97t-71 -41q-27 0 -67 27t-69 67t-29 78q0 35 23.5 93t60.5 100.5t77 42.5z" />
    <glyph glyph-name="afii10054" unicode="&#xbd;" horiz-adv-x="918" 
d="M361 283q48 6 99 35.5t83 71t32 79.5q0 47 -30 85t-84 89q-75 69 -112.5 131.5t-37.5 147.5q0 123 99 242.5t251 195.5q152 74 300 74q108 0 171.5 -32t88 -75t24.5 -80q0 -56 -39.5 -133t-111 -132.5t-162.5 -55.5q-39 0 -70 22q-30 23 -30 52q0 50 45 100q47 52 47 61
t-9 18q-9 10 -24 10q-43 0 -104 -48t-106 -112q-44 -65 -44 -105q0 -27 17 -51q16 -23 45 -48q29 -24 56 -47q153 -128 153 -305q0 -121 -80 -235q-80 -113 -206 -183t-253 -70q-84 0 -155 30.5t-112 74t-41 80.5q0 39 31 92.5t72 92.5q42 38 72 38q35 0 61 -28
q27 -28 64 -82z" />
    <glyph glyph-name="afii10102" unicode="&#xbe;" horiz-adv-x="740" 
d="M570 772q-31 -9 -65 -34t-34 -48t17.5 -37t59 -30.5t44.5 -18.5q43 -22 70.5 -68.5t27.5 -107.5q0 -86 -51.5 -167t-128 -142t-155 -97.5t-127.5 -36.5q-57 0 -120 35.5t-106 86.5t-43 94q0 28 27 70t62 73t57 31q20 0 57 -33q8 -7 20 -19t23 -21q11 -8 23 -14
q12 -5 24 -5q24 0 58.5 16.5t60 43t25.5 55.5t-19 39q-18 9 -72 26q-73 25 -103 74t-30 102q0 86 57 180.5t168 157.5q111 64 263 64q55 0 102 -24t73.5 -67.5t26.5 -99.5q0 -86 -52.5 -128t-106.5 -42q-85 0 -133 92z" />
    <glyph glyph-name="afii10104" unicode="&#xbf;" horiz-adv-x="649" 
d="M314 -33q-13 0 -25.5 5t-35 18t-36.5 20q-3 2 -31 15t-45 26t-27.5 31t-10.5 43q0 71 53 201q19 46 83.5 208.5t99 237.5t77.5 144q78 116 123 116q30 0 62.5 -20.5t55 -56.5t22.5 -76q0 -30 -13 -60q-20 -48 -54.5 -116t-53 -108t-48.5 -124.5t-69 -218.5
q-20 -80 -35.5 -141t-37 -102.5t-54.5 -41.5zM453 1514q29 0 69.5 -28.5t71.5 -68.5q29 -41 29 -75q0 -31 -27 -90t-66 -103.5t-75 -44.5q-26 0 -65 26t-67.5 66t-28.5 80q0 44 26 100q26 57 64 97q38 41 69 41zM828 1514q28 0 69.5 -29t71 -69t29.5 -74q0 -29 -28 -88.5
t-68 -104.5t-74 -45q-26 0 -65 26q-38 26 -67.5 66.5t-29.5 79.5q0 40 27 97.5t65 98.5q38 42 70 42z" />
    <glyph glyph-name="afii10017" unicode="&#xc0;" horiz-adv-x="1080" 
d="M301 688q64 132 149 275.5t174 245.5t154 102q40 0 60 -14q1 42 2 70t6.5 48.5t20 32.5t43.5 12q76 0 143 -51q68 -52 68 -168q0 -59 -22.5 -230t-54.5 -365.5t-53 -295.5q-14 -85 -29 -176q-15 -90 -45.5 -158.5t-84.5 -68.5q-28 0 -84 18t-100 52q-43 34 -43 80
q0 24 8 53t34 110q27 80 52 168q-112 -3 -199 -18q-19 -38 -82 -174q-65 -137 -104 -193q-40 -58 -82 -58q-18 0 -32 9.5t-34.5 31.5t-30.5 30q-6 5 -37 26q-30 21 -43.5 41.5t-13.5 52.5q0 42 30 112.5t62 127.5q-12 37 -26 109q-4 16 -4 45q0 42 41 67.5t157 50.5z
M623 690q10 0 29.5 1t30.5 1h76q35 170 53 320q-104 -149 -189 -322z" />
    <glyph glyph-name="afii10017" unicode="&#x410;" horiz-adv-x="1080" 
d="M301 688q64 132 149 275.5t174 245.5t154 102q40 0 60 -14q1 42 2 70t6.5 48.5t20 32.5t43.5 12q76 0 143 -51q68 -52 68 -168q0 -59 -22.5 -230t-54.5 -365.5t-53 -295.5q-14 -85 -29 -176q-15 -90 -45.5 -158.5t-84.5 -68.5q-28 0 -84 18t-100 52q-43 34 -43 80
q0 24 8 53t34 110q27 80 52 168q-112 -3 -199 -18q-19 -38 -82 -174q-65 -137 -104 -193q-40 -58 -82 -58q-18 0 -32 9.5t-34.5 31.5t-30.5 30q-6 5 -37 26q-30 21 -43.5 41.5t-13.5 52.5q0 42 30 112.5t62 127.5q-12 37 -26 109q-4 16 -4 45q0 42 41 67.5t157 50.5z
M623 690q10 0 29.5 1t30.5 1h76q35 170 53 320q-104 -149 -189 -322z" />
    <glyph glyph-name="afii10018" unicode="&#xc1;" horiz-adv-x="1014" 
d="M676 850q21 2 59 2q79 0 145 -44.5t104 -115.5t38 -145q0 -84 -53.5 -183t-138.5 -185q-84 -86 -179 -139q-96 -55 -172 -55q-61 0 -131 71q-43 -71 -98 -71q-13 0 -25 8q-13 9 -32.5 26.5t-34.5 29.5q-17 13 -42 31.5t-40 42t-15 55.5q0 60 20 91.5t63 95.5t116 227
t174 463q-67 2 -86 77q-19 76 -19 142q0 47 36 72q36 26 85 36q49 11 156 27q41 7 92 15t75 11q24 4 71.5 7.5t81.5 3.5q50 0 93 -21.5t74 -56.5t47.5 -72t16.5 -67q0 -48 -70 -66t-196 -24q-126 -5 -156 -10q21 -20 21 -41q0 -31 -28.5 -110.5t-51.5 -127.5zM454 301
q123 45 195 112t72 124q0 55 -59 55q-37 0 -92 -24q-50 -106 -54 -126q-3 -20 -62 -141z" />
    <glyph glyph-name="afii10018" unicode="&#x411;" horiz-adv-x="1014" 
d="M676 850q21 2 59 2q79 0 145 -44.5t104 -115.5t38 -145q0 -84 -53.5 -183t-138.5 -185q-84 -86 -179 -139q-96 -55 -172 -55q-61 0 -131 71q-43 -71 -98 -71q-13 0 -25 8q-13 9 -32.5 26.5t-34.5 29.5q-17 13 -42 31.5t-40 42t-15 55.5q0 60 20 91.5t63 95.5t116 227
t174 463q-67 2 -86 77q-19 76 -19 142q0 47 36 72q36 26 85 36q49 11 156 27q41 7 92 15t75 11q24 4 71.5 7.5t81.5 3.5q50 0 93 -21.5t74 -56.5t47.5 -72t16.5 -67q0 -48 -70 -66t-196 -24q-126 -5 -156 -10q21 -20 21 -41q0 -31 -28.5 -110.5t-51.5 -127.5zM454 301
q123 45 195 112t72 124q0 55 -59 55q-37 0 -92 -24q-50 -106 -54 -126q-3 -20 -62 -141z" />
    <glyph glyph-name="afii10019" unicode="&#xc2;" horiz-adv-x="1028" 
d="M932 717q82 -69 82 -188q0 -89 -82 -220t-203.5 -227.5t-230.5 -96.5q-47 0 -82 23q-35 21 -70 80q-35 -66 -49 -85.5t-49 -19.5q-23 0 -41.5 12t-35.5 31q-18 20 -34 38q-7 7 -30.5 25.5t-34.5 33t-11 33.5q0 37 22.5 89.5t162.5 354.5q52 115 97 240q45 126 72 223
q-40 4 -70 80t-30 121q0 68 95.5 106t205.5 51q111 13 177 13q85 0 159 -23q73 -25 127 -68t83.5 -104t29.5 -135q0 -220 -260 -387zM676 869q112 70 175 123.5t63 105.5q0 57 -105 57q-36 0 -96 -16q27 -26 27 -51q0 -27 -25.5 -99t-38.5 -120zM442 303q100 22 190.5 101.5
t90.5 144.5q0 51 -67 51q-44 0 -86 -12q-74 -172 -128 -285z" />
    <glyph glyph-name="afii10019" unicode="&#x412;" horiz-adv-x="1028" 
d="M932 717q82 -69 82 -188q0 -89 -82 -220t-203.5 -227.5t-230.5 -96.5q-47 0 -82 23q-35 21 -70 80q-35 -66 -49 -85.5t-49 -19.5q-23 0 -41.5 12t-35.5 31q-18 20 -34 38q-7 7 -30.5 25.5t-34.5 33t-11 33.5q0 37 22.5 89.5t162.5 354.5q52 115 97 240q45 126 72 223
q-40 4 -70 80t-30 121q0 68 95.5 106t205.5 51q111 13 177 13q85 0 159 -23q73 -25 127 -68t83.5 -104t29.5 -135q0 -220 -260 -387zM676 869q112 70 175 123.5t63 105.5q0 57 -105 57q-36 0 -96 -16q27 -26 27 -51q0 -27 -25.5 -99t-38.5 -120zM442 303q100 22 190.5 101.5
t90.5 144.5q0 51 -67 51q-44 0 -86 -12q-74 -172 -128 -285z" />
    <glyph glyph-name="afii10020" unicode="&#xc3;" horiz-adv-x="758" 
d="M713 1141q23 -17 23 -41q0 -19 -36.5 -128t-89.5 -256t-112 -302q-43 -115 -77 -208q-34 -92 -55 -137t-41 -64.5t-48 -19.5q-17 0 -32.5 6t-37.5 17.5t-31 14.5q-28 8 -53 15q-24 7 -42.5 22.5t-18.5 44.5q0 27 11 58t52.5 128.5t75.5 185.5q96 250 113 296.5
t34.5 101.5t63.5 180q-43 0 -64 52q-22 53 -22 104q0 68 23.5 106t65.5 54.5t109 25.5q68 8 140 17q146 20 209 20q126 0 169 -60q44 -60 44 -124q0 -57 -50 -74q-49 -18 -163 -22q-115 -5 -160 -13z" />
    <glyph glyph-name="afii10020" unicode="&#x413;" horiz-adv-x="758" 
d="M713 1141q23 -17 23 -41q0 -19 -36.5 -128t-89.5 -256t-112 -302q-43 -115 -77 -208q-34 -92 -55 -137t-41 -64.5t-48 -19.5q-17 0 -32.5 6t-37.5 17.5t-31 14.5q-28 8 -53 15q-24 7 -42.5 22.5t-18.5 44.5q0 27 11 58t52.5 128.5t75.5 185.5q96 250 113 296.5
t34.5 101.5t63.5 180q-43 0 -64 52q-22 53 -22 104q0 68 23.5 106t65.5 54.5t109 25.5q68 8 140 17q146 20 209 20q126 0 169 -60q44 -60 44 -124q0 -57 -50 -74q-49 -18 -163 -22q-115 -5 -160 -13z" />
    <glyph glyph-name="afii10021" unicode="&#xc4;" horiz-adv-x="1245" 
d="M867 -4q-172 30 -428 30q-117 0 -183 -5q-1 -4 -26 -108q-25 -103 -44 -124t-67 -21q-183 0 -183 127q0 45 30 148q45 152 54.5 182.5t26.5 51.5t41.5 26.5t107.5 14.5q40 90 176 324q134 234 276 424t219 190q12 0 31 -5q19 -4 26 -6q-2 19 -2 52q0 77 18 107
q19 30 60 30q73 0 134.5 -50t61.5 -157t-21.5 -295t-52.5 -382q-30 -193 -51 -292q48 -4 90.5 -29.5t42.5 -74.5q0 -27 -21 -101t-28 -98q-9 -37 -20.5 -84t-27.5 -81t-45 -55.5t-73 -21.5q-15 0 -28 4.5t-31 15t-20 11.5q-40 17 -62 42t-22 79q0 11 4 26q4 16 14.5 43.5
t22.5 61.5zM766 291q67 256 123 637q-68 -89 -136 -198t-125 -214q-56 -105 -104 -209q150 0 242 -16z" />
    <glyph glyph-name="afii10021" unicode="&#x414;" horiz-adv-x="1245" 
d="M867 -4q-172 30 -428 30q-117 0 -183 -5q-1 -4 -26 -108q-25 -103 -44 -124t-67 -21q-183 0 -183 127q0 45 30 148q45 152 54.5 182.5t26.5 51.5t41.5 26.5t107.5 14.5q40 90 176 324q134 234 276 424t219 190q12 0 31 -5q19 -4 26 -6q-2 19 -2 52q0 77 18 107
q19 30 60 30q73 0 134.5 -50t61.5 -157t-21.5 -295t-52.5 -382q-30 -193 -51 -292q48 -4 90.5 -29.5t42.5 -74.5q0 -27 -21 -101t-28 -98q-9 -37 -20.5 -84t-27.5 -81t-45 -55.5t-73 -21.5q-15 0 -28 4.5t-31 15t-20 11.5q-40 17 -62 42t-22 79q0 11 4 26q4 16 14.5 43.5
t22.5 61.5zM766 291q67 256 123 637q-68 -89 -136 -198t-125 -214q-56 -105 -104 -209q150 0 242 -16z" />
    <glyph glyph-name="afii10022" unicode="&#xc5;" horiz-adv-x="850" 
d="M617 832q52 6 110 6q82 0 113 -12t31 -54q0 -71 -13.5 -112.5t-39.5 -61.5q-27 -19 -66 -24.5t-109 -5.5h-65h-66q-22 -43 -64 -145t-42 -132q0 -35 43 -35q60 0 186 31q25 6 64 17q39 12 55 12q23 0 42 -18t19 -62q0 -93 -20 -126t-62 -50q-73 -29 -209 -51
q-136 -24 -219 -24q-72 0 -147.5 39t-75.5 163q0 81 55.5 243t136.5 336t150 287q-37 0 -50 25q-13 26 -13 73q0 12 1 39q1 26 1 39q0 36 14 57t54 35q41 15 117 26q76 12 222 26q85 8 140 8q77 0 112 -27q34 -26 74 -127q20 -51 20 -92q0 -47 -55 -47q-9 0 -58 7t-128 7
q-64 0 -93.5 -8t-49.5 -31t-46.5 -81t-68.5 -150z" />
    <glyph glyph-name="afii10022" unicode="&#x415;" horiz-adv-x="850" 
d="M617 832q52 6 110 6q82 0 113 -12t31 -54q0 -71 -13.5 -112.5t-39.5 -61.5q-27 -19 -66 -24.5t-109 -5.5h-65h-66q-22 -43 -64 -145t-42 -132q0 -35 43 -35q60 0 186 31q25 6 64 17q39 12 55 12q23 0 42 -18t19 -62q0 -93 -20 -126t-62 -50q-73 -29 -209 -51
q-136 -24 -219 -24q-72 0 -147.5 39t-75.5 163q0 81 55.5 243t136.5 336t150 287q-37 0 -50 25q-13 26 -13 73q0 12 1 39q1 26 1 39q0 36 14 57t54 35q41 15 117 26q76 12 222 26q85 8 140 8q77 0 112 -27q34 -26 74 -127q20 -51 20 -92q0 -47 -55 -47q-9 0 -58 7t-128 7
q-64 0 -93.5 -8t-49.5 -31t-46.5 -81t-68.5 -150z" />
    <glyph glyph-name="afii10024" unicode="&#xc6;" horiz-adv-x="1561" 
d="M1045 518h-8q-26 -71 -69.5 -204.5t-67.5 -195.5t-52.5 -97.5t-66.5 -35.5q-24 0 -78.5 13t-100.5 40q-47 28 -47 69q0 15 6 29.5t35.5 76t61.5 137.5t71 181l-10 2q-42 -59 -130 -158.5t-190 -198.5q-101 -99 -186 -164t-127 -65q-32 0 -62 35t-48 83q-17 48 -17 83
q0 30 30 59q31 30 147 124q115 95 225 198q111 103 245 256q-100 193 -143 285.5t-43 138.5q0 26 15 41.5t46 30t41 20.5q15 8 35 24.5t35 24.5t31 8q33 0 53 -33.5t42 -106.5q22 -72 32 -95q49 -118 123 -246q70 168 108 259q39 92 66 144.5t51.5 73t60.5 20.5
q16 0 29.5 -3.5t30.5 -11.5q17 -7 22 -9q25 -7 48 -13t41 -18.5t18 -34.5t-11 -51t-61 -147.5t-83 -206.5q112 76 194 155t159 171q78 91 108.5 121t64.5 30q33 0 63 -39.5t48 -89.5t18 -70q0 -50 -102 -160q-103 -109 -237 -220q-133 -111 -206 -156q12 -99 25.5 -168
t35 -136.5t54.5 -138.5q4 -10 29.5 -61.5t35 -75.5t9.5 -43q0 -43 -80 -76t-152 -33q-54 0 -103.5 108t-80.5 259q-31 152 -31 262z" />
    <glyph glyph-name="afii10024" unicode="&#x416;" horiz-adv-x="1561" 
d="M1045 518h-8q-26 -71 -69.5 -204.5t-67.5 -195.5t-52.5 -97.5t-66.5 -35.5q-24 0 -78.5 13t-100.5 40q-47 28 -47 69q0 15 6 29.5t35.5 76t61.5 137.5t71 181l-10 2q-42 -59 -130 -158.5t-190 -198.5q-101 -99 -186 -164t-127 -65q-32 0 -62 35t-48 83q-17 48 -17 83
q0 30 30 59q31 30 147 124q115 95 225 198q111 103 245 256q-100 193 -143 285.5t-43 138.5q0 26 15 41.5t46 30t41 20.5q15 8 35 24.5t35 24.5t31 8q33 0 53 -33.5t42 -106.5q22 -72 32 -95q49 -118 123 -246q70 168 108 259q39 92 66 144.5t51.5 73t60.5 20.5
q16 0 29.5 -3.5t30.5 -11.5q17 -7 22 -9q25 -7 48 -13t41 -18.5t18 -34.5t-11 -51t-61 -147.5t-83 -206.5q112 76 194 155t159 171q78 91 108.5 121t64.5 30q33 0 63 -39.5t48 -89.5t18 -70q0 -50 -102 -160q-103 -109 -237 -220q-133 -111 -206 -156q12 -99 25.5 -168
t35 -136.5t54.5 -138.5q4 -10 29.5 -61.5t35 -75.5t9.5 -43q0 -43 -80 -76t-152 -33q-54 0 -103.5 108t-80.5 259q-31 152 -31 262z" />
    <glyph glyph-name="afii10025" unicode="&#xc7;" horiz-adv-x="981" 
d="M820 787q149 -35 149 -203q0 -141 -68.5 -254t-176.5 -189.5t-223 -116t-204 -39.5q-67 0 -122.5 19t-95 50t-59.5 65t-20 66q0 33 28 73t65 68q36 29 57 29q27 0 47 -16q19 -15 45 -42q49 -49 90 -49q52 0 126 42.5t129 100t55 99.5q0 41 -23 68.5t-64 27.5
q-14 0 -100 -6q-92 -10 -109 -10q-80 0 -80 57q0 39 23 104q21 62 36 88q15 27 47 41q31 15 93 15q47 0 70 -2q132 62 199 130q65 68 65 109q0 47 -61 47q-78 0 -160 -61q-90 -68 -142 -68q-34 0 -61 54.5t-27 101.5q0 63 50 120t138 92.5t195 35.5q186 0 269 -104
q84 -104 84 -230q0 -122 -84 -197t-180 -116z" />
    <glyph glyph-name="afii10025" unicode="&#x417;" horiz-adv-x="981" 
d="M820 787q149 -35 149 -203q0 -141 -68.5 -254t-176.5 -189.5t-223 -116t-204 -39.5q-67 0 -122.5 19t-95 50t-59.5 65t-20 66q0 33 28 73t65 68q36 29 57 29q27 0 47 -16q19 -15 45 -42q49 -49 90 -49q52 0 126 42.5t129 100t55 99.5q0 41 -23 68.5t-64 27.5
q-14 0 -100 -6q-92 -10 -109 -10q-80 0 -80 57q0 39 23 104q21 62 36 88q15 27 47 41q31 15 93 15q47 0 70 -2q132 62 199 130q65 68 65 109q0 47 -61 47q-78 0 -160 -61q-90 -68 -142 -68q-34 0 -61 54.5t-27 101.5q0 63 50 120t138 92.5t195 35.5q186 0 269 -104
q84 -104 84 -230q0 -122 -84 -197t-180 -116z" />
    <glyph glyph-name="afii10026" unicode="&#xc8;" horiz-adv-x="1161" 
d="M830 588q-36 -33 -64 -61q-27 -28 -52 -56t-103 -117t-166 -188q-4 -4 -52 -64.5t-82 -88.5t-71 -28q-16 0 -32 8q-16 9 -31.5 20.5t-30.5 23.5q-5 4 -25.5 18t-32.5 24.5t-19.5 25.5t-7.5 32q0 89 238 668q63 156 113.5 279.5t84.5 195.5t67.5 113t66.5 41
q22 0 65 -28.5t76 -68.5t33 -73q0 -28 -13.5 -66.5t-30.5 -75.5q-17 -36 -87.5 -187.5t-124.5 -270.5q70 83 171 185q101 103 409 403q144 141 207 141q23 0 39.5 -8.5t24 -19.5t15.5 -29t15 -33q4 -7 15.5 -24.5t17.5 -30.5t6 -27q0 -43 -36.5 -87t-116.5 -114
q-50 -102 -105 -241q-54 -139 -103 -285t-67 -234q-2 -7 -19 -111.5t-41 -153.5q-25 -48 -71 -48q-19 0 -35.5 7.5t-42.5 25t-51 33.5q-82 48 -82 145q0 47 14 100t41.5 128t75.5 202z" />
    <glyph glyph-name="afii10026" unicode="&#x418;" horiz-adv-x="1161" 
d="M830 588q-36 -33 -64 -61q-27 -28 -52 -56t-103 -117t-166 -188q-4 -4 -52 -64.5t-82 -88.5t-71 -28q-16 0 -32 8q-16 9 -31.5 20.5t-30.5 23.5q-5 4 -25.5 18t-32.5 24.5t-19.5 25.5t-7.5 32q0 89 238 668q63 156 113.5 279.5t84.5 195.5t67.5 113t66.5 41
q22 0 65 -28.5t76 -68.5t33 -73q0 -28 -13.5 -66.5t-30.5 -75.5q-17 -36 -87.5 -187.5t-124.5 -270.5q70 83 171 185q101 103 409 403q144 141 207 141q23 0 39.5 -8.5t24 -19.5t15.5 -29t15 -33q4 -7 15.5 -24.5t17.5 -30.5t6 -27q0 -43 -36.5 -87t-116.5 -114
q-50 -102 -105 -241q-54 -139 -103 -285t-67 -234q-2 -7 -19 -111.5t-41 -153.5q-25 -48 -71 -48q-19 0 -35.5 7.5t-42.5 25t-51 33.5q-82 48 -82 145q0 47 14 100t41.5 128t75.5 202z" />
    <glyph glyph-name="afii10027" unicode="&#xc9;" horiz-adv-x="1161" 
d="M830 588q-114 -105 -193.5 -195t-174.5 -208t-138.5 -159t-83.5 -41q-16 0 -32 8q-16 9 -31.5 20.5t-30.5 23.5q-5 4 -25.5 18t-32.5 24.5t-19.5 25.5t-7.5 32q0 89 238 668q63 156 113.5 279.5t84.5 195.5t67.5 113t66.5 41q22 0 65 -28.5t76 -68.5t33 -73
q0 -28 -13.5 -66.5t-30.5 -75.5q-17 -36 -87.5 -187.5t-124.5 -270.5q55 65 105 117t167 166t142 139q73 74 132 133t101 97t77 57q34 20 63 20q23 0 39.5 -8.5t24 -19.5t15.5 -29t15 -33q4 -7 15.5 -24.5t17.5 -30.5t6 -27q0 -43 -36.5 -87t-116.5 -114q-50 -102 -105 -241
q-54 -139 -103 -285t-67 -234q-2 -7 -19 -111.5t-41 -153.5q-25 -48 -71 -48q-19 0 -35.5 7.5t-42.5 25t-51 33.5q-82 48 -82 145q0 47 14 100t41.5 128t75.5 202zM1114 1579q48 0 122 26.5t130 61.5q36 23 54 23q12 0 18 -4q25 -15 25 -47q0 -80 -59 -125q-61 -44 -181 -84
q-160 -53 -234 -53q-80 0 -146.5 46t-66.5 97q0 54 44.5 139.5t97.5 85.5q54 0 121 -22t67 -62q0 -7 -12 -31q-12 -20 -12 -28q0 -23 32 -23z" />
    <glyph glyph-name="afii10027" unicode="&#x419;" horiz-adv-x="1161" 
d="M830 588q-114 -105 -193.5 -195t-174.5 -208t-138.5 -159t-83.5 -41q-16 0 -32 8q-16 9 -31.5 20.5t-30.5 23.5q-5 4 -25.5 18t-32.5 24.5t-19.5 25.5t-7.5 32q0 89 238 668q63 156 113.5 279.5t84.5 195.5t67.5 113t66.5 41q22 0 65 -28.5t76 -68.5t33 -73
q0 -28 -13.5 -66.5t-30.5 -75.5q-17 -36 -87.5 -187.5t-124.5 -270.5q55 65 105 117t167 166t142 139q73 74 132 133t101 97t77 57q34 20 63 20q23 0 39.5 -8.5t24 -19.5t15.5 -29t15 -33q4 -7 15.5 -24.5t17.5 -30.5t6 -27q0 -43 -36.5 -87t-116.5 -114q-50 -102 -105 -241
q-54 -139 -103 -285t-67 -234q-2 -7 -19 -111.5t-41 -153.5q-25 -48 -71 -48q-19 0 -35.5 7.5t-42.5 25t-51 33.5q-82 48 -82 145q0 47 14 100t41.5 128t75.5 202zM1114 1579q48 0 122 26.5t130 61.5q36 23 54 23q12 0 18 -4q25 -15 25 -47q0 -80 -59 -125q-61 -44 -181 -84
q-160 -53 -234 -53q-80 0 -146.5 46t-66.5 97q0 54 44.5 139.5t97.5 85.5q54 0 121 -22t67 -62q0 -7 -12 -31q-12 -20 -12 -28q0 -23 32 -23z" />
    <glyph glyph-name="afii10028" unicode="&#xca;" horiz-adv-x="1026" 
d="M805 666q22 -134 52 -255.5t59 -205.5q14 -37 43.5 -92.5t29.5 -79.5q0 -45 -17.5 -62t-70.5 -47q-58 -35 -92 -35q-69 0 -120 88.5t-82.5 208t-75.5 328.5q-56 -113 -102 -219q-45 -105 -79 -181t-57 -102.5t-57 -26.5q-19 0 -32.5 5t-32 17t-25.5 16q-6 3 -48.5 17.5
t-60 35t-17.5 66.5q0 27 17 65.5t81.5 166.5t122 246.5t128.5 278.5q32 72 78 191t70 174q23 56 50 93q27 38 56 38q24 0 74 -18q49 -17 86.5 -46.5t37.5 -64.5q0 -27 -23.5 -91t-107.5 -272q118 82 201 162q82 81 154.5 168t99.5 114t59 27q52 0 80.5 -65t28.5 -117
q0 -50 -71.5 -150t-189.5 -205t-247 -171z" />
    <glyph glyph-name="afii10028" unicode="&#x41a;" horiz-adv-x="1026" 
d="M805 666q22 -134 52 -255.5t59 -205.5q14 -37 43.5 -92.5t29.5 -79.5q0 -45 -17.5 -62t-70.5 -47q-58 -35 -92 -35q-69 0 -120 88.5t-82.5 208t-75.5 328.5q-56 -113 -102 -219q-45 -105 -79 -181t-57 -102.5t-57 -26.5q-19 0 -32.5 5t-32 17t-25.5 16q-6 3 -48.5 17.5
t-60 35t-17.5 66.5q0 27 17 65.5t81.5 166.5t122 246.5t128.5 278.5q32 72 78 191t70 174q23 56 50 93q27 38 56 38q24 0 74 -18q49 -17 86.5 -46.5t37.5 -64.5q0 -27 -23.5 -91t-107.5 -272q118 82 201 162q82 81 154.5 168t99.5 114t59 27q52 0 80.5 -65t28.5 -117
q0 -50 -71.5 -150t-189.5 -205t-247 -171z" />
    <glyph glyph-name="afii10029" unicode="&#xcb;" horiz-adv-x="1034" 
d="M760 912q-54 -77 -106 -164t-113.5 -207.5t-153.5 -310.5q-9 -19 -39.5 -97t-55.5 -113t-64 -35q-18 0 -37 11t-52 35t-45 31q-14 8 -32 19q-18 12 -30 27.5t-12 39.5q0 36 45 134t107 213t119 212q58 98 90 149q292 455 373 455q33 0 61 -29q2 77 15 114.5t61 37.5
q71 0 128 -49q56 -48 56 -178q0 -70 -16 -217t-36.5 -291t-45.5 -288t-43 -220q-36 -169 -59 -210q-23 -37 -60 -37q-14 0 -30 5.5t-32 13.5l-28 14q-10 5 -51 21q-42 17 -61 34t-19 44q0 48 32.5 163t64 254.5t69.5 418.5z" />
    <glyph glyph-name="afii10029" unicode="&#x41b;" horiz-adv-x="1034" 
d="M760 912q-54 -77 -106 -164t-113.5 -207.5t-153.5 -310.5q-9 -19 -39.5 -97t-55.5 -113t-64 -35q-18 0 -37 11t-52 35t-45 31q-14 8 -32 19q-18 12 -30 27.5t-12 39.5q0 36 45 134t107 213t119 212q58 98 90 149q292 455 373 455q33 0 61 -29q2 77 15 114.5t61 37.5
q71 0 128 -49q56 -48 56 -178q0 -70 -16 -217t-36.5 -291t-45.5 -288t-43 -220q-36 -169 -59 -210q-23 -37 -60 -37q-14 0 -30 5.5t-32 13.5l-28 14q-10 5 -51 21q-42 17 -61 34t-19 44q0 48 32.5 163t64 254.5t69.5 418.5z" />
    <glyph glyph-name="afii10030" unicode="&#xcc;" horiz-adv-x="1407" 
d="M1170 821q-50 -70 -99 -155.5t-94.5 -178.5t-77.5 -173q-44 -111 -66.5 -160.5t-45 -75t-49.5 -25.5q-51 0 -95 56q-17 20 -41 43t-32.5 37.5t-8.5 38.5t7.5 112t14.5 207t11 313q-38 -80 -69 -155q-31 -74 -64 -165t-49 -138q-18 -50 -49 -175.5t-61 -182.5
q-30 -59 -85 -59q-25 0 -120 71q-77 56 -77 131q0 30 33.5 112t72.5 164t62 129q60 123 109 212q49 90 120 200q71 111 169 252v63q0 59 17 87t71 28q18 0 35 -7t53 -14q68 -11 100.5 -37.5t32.5 -103.5q0 -166 -41 -563q43 84 115.5 200.5t160 234.5t167 193.5t131.5 75.5
q25 0 42 -12q18 -12 37 -39q20 -27 29 -39q19 -20 36 -38t28.5 -40t11.5 -49t-29 -99t-76.5 -188t-92.5 -261.5t-78 -321.5q-7 -37 -19.5 -161.5t-32.5 -184.5t-67 -60q-20 0 -39 9t-44 27t-36 25q-29 18 -50.5 31t-34.5 36t-13 69q0 66 32.5 201.5t137.5 502.5z" />
    <glyph glyph-name="afii10030" unicode="&#x41c;" horiz-adv-x="1407" 
d="M1170 821q-50 -70 -99 -155.5t-94.5 -178.5t-77.5 -173q-44 -111 -66.5 -160.5t-45 -75t-49.5 -25.5q-51 0 -95 56q-17 20 -41 43t-32.5 37.5t-8.5 38.5t7.5 112t14.5 207t11 313q-38 -80 -69 -155q-31 -74 -64 -165t-49 -138q-18 -50 -49 -175.5t-61 -182.5
q-30 -59 -85 -59q-25 0 -120 71q-77 56 -77 131q0 30 33.5 112t72.5 164t62 129q60 123 109 212q49 90 120 200q71 111 169 252v63q0 59 17 87t71 28q18 0 35 -7t53 -14q68 -11 100.5 -37.5t32.5 -103.5q0 -166 -41 -563q43 84 115.5 200.5t160 234.5t167 193.5t131.5 75.5
q25 0 42 -12q18 -12 37 -39q20 -27 29 -39q19 -20 36 -38t28.5 -40t11.5 -49t-29 -99t-76.5 -188t-92.5 -261.5t-78 -321.5q-7 -37 -19.5 -161.5t-32.5 -184.5t-67 -60q-20 0 -39 9t-44 27t-36 25q-29 18 -50.5 31t-34.5 36t-13 69q0 66 32.5 201.5t137.5 502.5z" />
    <glyph glyph-name="afii10031" unicode="&#xcd;" horiz-adv-x="1063" 
d="M838 877q95 201 148 306q54 104 90.5 151t68.5 47q43 0 66.5 -20t46.5 -60q4 -9 21.5 -36.5t23.5 -42.5t6 -34q0 -27 -14 -59.5t-64.5 -132t-102 -212.5t-112.5 -272q-44 -116 -62.5 -189t-43.5 -191q-26 -117 -46 -151t-61 -34q-27 0 -49.5 10t-44 28t-45.5 38
q-38 29 -50 39q-11 10 -22 33q-10 22 -10 59q0 99 146 450h-49q-56 -3 -123 -24q-36 -84 -113 -289q-25 -67 -50 -158t-39 -118.5t-47 -27.5q-23 0 -41 7q-17 7 -48 25t-54 28q-44 22 -63 42t-19 71q0 35 24.5 107t96.5 247q-36 0 -46.5 24t-10.5 93q0 40 -5.5 71.5
t-5.5 37.5q0 87 189 102q110 248 165 360t99 172t80 60q48 0 100 -72q9 -12 29.5 -36t29.5 -39.5t9 -28.5q0 -20 -63 -151q-65 -132 -111 -232q9 1 31 3q22 3 32 3q76 0 113 -4z" />
    <glyph glyph-name="afii10031" unicode="&#x41d;" horiz-adv-x="1063" 
d="M838 877q95 201 148 306q54 104 90.5 151t68.5 47q43 0 66.5 -20t46.5 -60q4 -9 21.5 -36.5t23.5 -42.5t6 -34q0 -27 -14 -59.5t-64.5 -132t-102 -212.5t-112.5 -272q-44 -116 -62.5 -189t-43.5 -191q-26 -117 -46 -151t-61 -34q-27 0 -49.5 10t-44 28t-45.5 38
q-38 29 -50 39q-11 10 -22 33q-10 22 -10 59q0 99 146 450h-49q-56 -3 -123 -24q-36 -84 -113 -289q-25 -67 -50 -158t-39 -118.5t-47 -27.5q-23 0 -41 7q-17 7 -48 25t-54 28q-44 22 -63 42t-19 71q0 35 24.5 107t96.5 247q-36 0 -46.5 24t-10.5 93q0 40 -5.5 71.5
t-5.5 37.5q0 87 189 102q110 248 165 360t99 172t80 60q48 0 100 -72q9 -12 29.5 -36t29.5 -39.5t9 -28.5q0 -20 -63 -151q-65 -132 -111 -232q9 1 31 3q22 3 32 3q76 0 113 -4z" />
    <glyph glyph-name="afii10032" unicode="&#xce;" horiz-adv-x="1039" 
d="M912 1315q79 37 98 37q39 0 69 -59t46 -149t16 -175q0 -170 -57 -346q-59 -175 -158 -321q-100 -145 -224 -231q-123 -86 -247 -86q-95 0 -166 58t-108 147q-38 90 -38 183q0 200 72.5 392.5t180 342t213.5 238.5q107 88 163 88q44 0 83.5 -37t56.5 -82zM846 1018
q0 92 -33 92q-52 0 -144.5 -135t-162.5 -315t-70 -307q0 -38 12 -66.5t27 -28.5q31 0 93.5 71.5t127 185.5t107.5 247t43 256z" />
    <glyph glyph-name="afii10032" unicode="&#x41e;" horiz-adv-x="1039" 
d="M912 1315q79 37 98 37q39 0 69 -59t46 -149t16 -175q0 -170 -57 -346q-59 -175 -158 -321q-100 -145 -224 -231q-123 -86 -247 -86q-95 0 -166 58t-108 147q-38 90 -38 183q0 200 72.5 392.5t180 342t213.5 238.5q107 88 163 88q44 0 83.5 -37t56.5 -82zM846 1018
q0 92 -33 92q-52 0 -144.5 -135t-162.5 -315t-70 -307q0 -38 12 -66.5t27 -28.5q31 0 93.5 71.5t127 185.5t107.5 247t43 256z" />
    <glyph glyph-name="afii10033" unicode="&#xcf;" horiz-adv-x="1116" 
d="M778 1100q-54 -111 -106 -232t-91 -222q-38 -101 -93 -250q-18 -48 -58.5 -180.5t-72.5 -180.5q-33 -50 -91 -50q-23 0 -41 8q-17 9 -37.5 25t-28.5 21q-14 9 -26 16q-13 8 -25 20t-19.5 30t-7.5 43q0 111 330 895q-40 8 -52 66q-12 59 -12 155q0 38 92.5 64t221 40
t263.5 21q135 6 213 6q128 0 167 -23t70 -73q29 -49 29 -109q0 -24 -30 -46q-31 -21 -91 -21q-159 -328 -228 -511q-70 -182 -138 -417q-6 -20 -24 -107.5t-38.5 -123.5t-64.5 -36q-43 0 -92 49q-3 3 -44 39.5t-57.5 61.5t-16.5 57q0 63 67.5 253.5t160 406t153.5 326.5h-41
q-12 -1 -75 -10.5t-66 -10.5z" />
    <glyph glyph-name="afii10033" unicode="&#x41f;" horiz-adv-x="1116" 
d="M778 1100q-54 -111 -106 -232t-91 -222q-38 -101 -93 -250q-18 -48 -58.5 -180.5t-72.5 -180.5q-33 -50 -91 -50q-23 0 -41 8q-17 9 -37.5 25t-28.5 21q-14 9 -26 16q-13 8 -25 20t-19.5 30t-7.5 43q0 111 330 895q-40 8 -52 66q-12 59 -12 155q0 38 92.5 64t221 40
t263.5 21q135 6 213 6q128 0 167 -23t70 -73q29 -49 29 -109q0 -24 -30 -46q-31 -21 -91 -21q-159 -328 -228 -511q-70 -182 -138 -417q-6 -20 -24 -107.5t-38.5 -123.5t-64.5 -36q-43 0 -92 49q-3 3 -44 39.5t-57.5 61.5t-16.5 57q0 63 67.5 253.5t160 406t153.5 326.5h-41
q-12 -1 -75 -10.5t-66 -10.5z" />
    <glyph glyph-name="afii10034" unicode="&#xd0;" horiz-adv-x="967" 
d="M492 539q-47 -157 -78 -259q-31 -101 -56 -164t-54 -97t-68 -34q-12 0 -22 3t-33.5 11t-43.5 14q-57 15 -86 35q-31 21 -31 73q0 26 13 65t65 164q53 125 131 308t175 415q-23 4 -46.5 41.5t-23.5 143.5q0 88 139.5 132t272.5 44q136 0 233 -51t145 -130.5t48 -158.5
q0 -102 -109 -255t-250 -270q-140 -116 -217 -116q-61 0 -104 86zM582 776q109 67 209.5 149t100.5 138q0 45 -68 45t-97 -10q-28 -11 -40 -37t-40.5 -113.5t-64.5 -171.5z" />
    <glyph glyph-name="afii10034" unicode="&#x420;" horiz-adv-x="967" 
d="M492 539q-47 -157 -78 -259q-31 -101 -56 -164t-54 -97t-68 -34q-12 0 -22 3t-33.5 11t-43.5 14q-57 15 -86 35q-31 21 -31 73q0 26 13 65t65 164q53 125 131 308t175 415q-23 4 -46.5 41.5t-23.5 143.5q0 88 139.5 132t272.5 44q136 0 233 -51t145 -130.5t48 -158.5
q0 -102 -109 -255t-250 -270q-140 -116 -217 -116q-61 0 -104 86zM582 776q109 67 209.5 149t100.5 138q0 45 -68 45t-97 -10q-28 -11 -40 -37t-40.5 -113.5t-64.5 -171.5z" />
    <glyph glyph-name="afii10035" unicode="&#xd1;" horiz-adv-x="914" 
d="M819 355q64 0 64 -78q0 -80 -22 -126t-61 -71t-112 -51q-129 -46 -221 -46q-59 0 -119 25.5t-137 104.5q-50 52 -69 107.5t-19 144.5q0 160 76 373q68 192 173 350t241 252t288 94q97 0 167.5 -38t70.5 -171q0 -166 -54 -247t-190 -81q-76 0 -76 66q0 13 11 49
q7 20 27 62q20 43 20 61q0 43 -35 43q-42 0 -109 -81q-66 -81 -132 -210.5t-109 -272t-43 -257.5q0 -117 67 -117q55 0 162 53q44 23 68.5 35.5t41.5 19.5t31 7z" />
    <glyph glyph-name="afii10035" unicode="&#x421;" horiz-adv-x="914" 
d="M819 355q64 0 64 -78q0 -80 -22 -126t-61 -71t-112 -51q-129 -46 -221 -46q-59 0 -119 25.5t-137 104.5q-50 52 -69 107.5t-19 144.5q0 160 76 373q68 192 173 350t241 252t288 94q97 0 167.5 -38t70.5 -171q0 -166 -54 -247t-190 -81q-76 0 -76 66q0 13 11 49
q7 20 27 62q20 43 20 61q0 43 -35 43q-42 0 -109 -81q-66 -81 -132 -210.5t-109 -272t-43 -257.5q0 -117 67 -117q55 0 162 53q44 23 68.5 35.5t41.5 19.5t31 7z" />
    <glyph glyph-name="afii10036" unicode="&#xd2;" horiz-adv-x="828" 
d="M883 1123q-121 -272 -190 -462q-68 -190 -129 -380.5t-86 -243t-62 -52.5q-38 0 -89 24q-50 24 -86 62.5t-36 80.5q0 67 128 398t222 550q-17 0 -75 -5t-80 -5q-99 0 -99 182q0 56 63 85t131.5 37t215.5 19q35 4 106 8q71 5 107 9q33 4 47 4q99 0 162 -58t63 -137
q0 -41 -19.5 -59.5t-47.5 -23.5t-110 -14q-83 -8 -136 -19z" />
    <glyph glyph-name="afii10036" unicode="&#x422;" horiz-adv-x="828" 
d="M883 1123q-121 -272 -190 -462q-68 -190 -129 -380.5t-86 -243t-62 -52.5q-38 0 -89 24q-50 24 -86 62.5t-36 80.5q0 67 128 398t222 550q-17 0 -75 -5t-80 -5q-99 0 -99 182q0 56 63 85t131.5 37t215.5 19q35 4 106 8q71 5 107 9q33 4 47 4q99 0 162 -58t63 -137
q0 -41 -19.5 -59.5t-47.5 -23.5t-110 -14q-83 -8 -136 -19z" />
    <glyph glyph-name="afii10037" unicode="&#xd3;" horiz-adv-x="916" 
d="M669 854q92 133 197 314t142.5 234.5t81.5 53.5q47 0 100 -57.5t53 -118.5q0 -32 -24 -87.5t-128 -210t-302 -414.5q-145 -192 -239 -309q-93 -116 -149 -176.5t-83 -79t-47 -18.5q-29 0 -74 29q-47 29 -81 67q-35 39 -35 67q0 29 27.5 65t103.5 112t125.5 128.5
t106.5 128.5q-55 17 -71.5 55.5t-16.5 114.5v90q0 228 7 354q8 126 31.5 193t70.5 67q41 0 97 -29t96 -72t40 -83q0 -27 -12 -158q-17 -158 -17 -260z" />
    <glyph glyph-name="afii10037" unicode="&#x423;" horiz-adv-x="916" 
d="M669 854q92 133 197 314t142.5 234.5t81.5 53.5q47 0 100 -57.5t53 -118.5q0 -32 -24 -87.5t-128 -210t-302 -414.5q-145 -192 -239 -309q-93 -116 -149 -176.5t-83 -79t-47 -18.5q-29 0 -74 29q-47 29 -81 67q-35 39 -35 67q0 29 27.5 65t103.5 112t125.5 128.5
t106.5 128.5q-55 17 -71.5 55.5t-16.5 114.5v90q0 228 7 354q8 126 31.5 193t70.5 67q41 0 97 -29t96 -72t40 -83q0 -27 -12 -158q-17 -158 -17 -260z" />
    <glyph glyph-name="afii10038" unicode="&#xd4;" horiz-adv-x="1452" 
d="M903 414q-20 -82 -77 -264q-5 -14 -30 -102t-47.5 -125.5t-58.5 -37.5q-14 0 -31.5 5t-44.5 15t-30 11q-23 7 -58 18t-54 29.5t-19 53.5q0 36 44 169t79 222q-55 -25 -129 -25q-108 0 -175 96t-67 232q0 87 33 180q33 94 118 189.5t232 175.5q155 84 236 84q55 0 90 -58
q14 45 27 84t33 63.5t52 24.5q19 0 35 -6t38.5 -17.5t37.5 -17.5q8 -3 40 -12.5t51 -21.5t19 -31q0 -23 -28 -78q46 14 80 14q75 0 138.5 -41.5t100.5 -112t37 -155.5q0 -184 -118.5 -321t-290.5 -258q-100 -70 -148 -70q-33 0 -57 22t-58 66zM996 674q131 75 203.5 149
t72.5 132q0 69 -76 69q-35 0 -59.5 -20.5t-57 -94.5t-83.5 -235zM805 1020q-112 -30 -204.5 -109.5t-92.5 -166.5q0 -76 82 -76q53 0 82 24q29 25 43 63q15 38 41 125t49 140z" />
    <glyph glyph-name="afii10038" unicode="&#x424;" horiz-adv-x="1452" 
d="M903 414q-20 -82 -77 -264q-5 -14 -30 -102t-47.5 -125.5t-58.5 -37.5q-14 0 -31.5 5t-44.5 15t-30 11q-23 7 -58 18t-54 29.5t-19 53.5q0 36 44 169t79 222q-55 -25 -129 -25q-108 0 -175 96t-67 232q0 87 33 180q33 94 118 189.5t232 175.5q155 84 236 84q55 0 90 -58
q14 45 27 84t33 63.5t52 24.5q19 0 35 -6t38.5 -17.5t37.5 -17.5q8 -3 40 -12.5t51 -21.5t19 -31q0 -23 -28 -78q46 14 80 14q75 0 138.5 -41.5t100.5 -112t37 -155.5q0 -184 -118.5 -321t-290.5 -258q-100 -70 -148 -70q-33 0 -57 22t-58 66zM996 674q131 75 203.5 149
t72.5 132q0 69 -76 69q-35 0 -59.5 -20.5t-57 -94.5t-83.5 -235zM805 1020q-112 -30 -204.5 -109.5t-92.5 -166.5q0 -76 82 -76q53 0 82 24q29 25 43 63q15 38 41 125t49 140z" />
    <glyph glyph-name="afii10039" unicode="&#xd5;" horiz-adv-x="942" 
d="M796 723q20 -168 32 -262t21.5 -162.5t14.5 -107.5q4 -38 4 -62q0 -46 -21 -66t-69 -44q-23 -12 -50 -32q-27 -19 -43 -27q-16 -7 -40 -7q-34 0 -52 25t-26.5 74t-19.5 186q-12 138 -18 201q-93 -116 -182 -253t-114 -169q-24 -32 -61 -32q-26 0 -43 11t-38.5 34
t-35.5 34q-22 18 -38.5 32t-29 27.5t-21.5 32.5q-8 18 -8 41q0 33 102 155t232.5 260t188.5 193q-16 115 -32 196.5t-26.5 124t-19 81t-8.5 63.5q0 36 11.5 54t39.5 33q26 16 64 38q64 39 88 39q44 0 70 -37t38.5 -92t22.5 -138.5t13 -101.5q324 332 397 332q61 0 76 -48
q14 -47 14 -157q0 -47 -12.5 -73.5t-36 -48t-152.5 -134.5q-128 -113 -232 -213z" />
    <glyph glyph-name="afii10039" unicode="&#x425;" horiz-adv-x="942" 
d="M796 723q20 -168 32 -262t21.5 -162.5t14.5 -107.5q4 -38 4 -62q0 -46 -21 -66t-69 -44q-23 -12 -50 -32q-27 -19 -43 -27q-16 -7 -40 -7q-34 0 -52 25t-26.5 74t-19.5 186q-12 138 -18 201q-93 -116 -182 -253t-114 -169q-24 -32 -61 -32q-26 0 -43 11t-38.5 34
t-35.5 34q-22 18 -38.5 32t-29 27.5t-21.5 32.5q-8 18 -8 41q0 33 102 155t232.5 260t188.5 193q-16 115 -32 196.5t-26.5 124t-19 81t-8.5 63.5q0 36 11.5 54t39.5 33q26 16 64 38q64 39 88 39q44 0 70 -37t38.5 -92t22.5 -138.5t13 -101.5q324 332 397 332q61 0 76 -48
q14 -47 14 -157q0 -47 -12.5 -73.5t-36 -48t-152.5 -134.5q-128 -113 -232 -213z" />
    <glyph glyph-name="afii10040" unicode="&#xd6;" horiz-adv-x="1100" 
d="M588 258q108 261 194 506t129 371q44 126 76.5 179.5t79.5 53.5q42 0 117 -55q80 -55 80 -111q0 -50 -71.5 -239t-157 -392t-117.5 -270q41 17 96 17q74 0 74 -97q0 -59 -33 -170q-45 -149 -76 -230q-30 -80 -94 -153q-63 -74 -156 -74q-42 0 -70 27.5t-28 60.5
q0 30 9 54q9 25 42 105q32 81 56 155q-326 -56 -402 -56q-100 0 -177 63.5t-77 156.5q0 55 19.5 116t84 231t130.5 361t141 449q33 117 96 117q49 0 135 -82q81 -74 81 -129q0 -90 -187 -549q-77 -187 -123.5 -292t-46.5 -118q0 -28 37 -28q53 0 139 22z" />
    <glyph glyph-name="afii10040" unicode="&#x426;" horiz-adv-x="1100" 
d="M588 258q108 261 194 506t129 371q44 126 76.5 179.5t79.5 53.5q42 0 117 -55q80 -55 80 -111q0 -50 -71.5 -239t-157 -392t-117.5 -270q41 17 96 17q74 0 74 -97q0 -59 -33 -170q-45 -149 -76 -230q-30 -80 -94 -153q-63 -74 -156 -74q-42 0 -70 27.5t-28 60.5
q0 30 9 54q9 25 42 105q32 81 56 155q-326 -56 -402 -56q-100 0 -177 63.5t-77 156.5q0 55 19.5 116t84 231t130.5 361t141 449q33 117 96 117q49 0 135 -82q81 -74 81 -129q0 -90 -187 -549q-77 -187 -123.5 -292t-46.5 -118q0 -28 37 -28q53 0 139 22z" />
    <glyph glyph-name="afii10041" unicode="&#xd7;" horiz-adv-x="996" 
d="M787 873q40 95 93 205t110 197q58 87 98 87q29 0 70 -34t72.5 -79t31.5 -69q0 -12 -5.5 -24t-31.5 -57q-25 -46 -51 -95q-71 -139 -119 -246q-48 -106 -74 -181q-27 -74 -61 -193q-35 -118 -41 -140q-4 -13 -29 -112.5t-50 -142.5q-26 -42 -71 -42q-12 0 -24 6
q-11 7 -35 24t-59 40q-84 49 -84 114q0 36 54 190.5t97 266.5q-166 -49 -225 -49q-54 0 -96 45q-43 46 -67 108q-24 63 -24 107q0 63 64 220.5t143 286t125 128.5q30 0 69 -34q40 -33 70 -77t30 -69q0 -23 -12.5 -50.5t-34 -63.5t-41.5 -69q-64 -112 -83 -150
q-18 -39 -18 -63q0 -30 26 -30q54 0 183 45z" />
    <glyph glyph-name="afii10041" unicode="&#x427;" horiz-adv-x="996" 
d="M787 873q40 95 93 205t110 197q58 87 98 87q29 0 70 -34t72.5 -79t31.5 -69q0 -12 -5.5 -24t-31.5 -57q-25 -46 -51 -95q-71 -139 -119 -246q-48 -106 -74 -181q-27 -74 -61 -193q-35 -118 -41 -140q-4 -13 -29 -112.5t-50 -142.5q-26 -42 -71 -42q-12 0 -24 6
q-11 7 -35 24t-59 40q-84 49 -84 114q0 36 54 190.5t97 266.5q-166 -49 -225 -49q-54 0 -96 45q-43 46 -67 108q-24 63 -24 107q0 63 64 220.5t143 286t125 128.5q30 0 69 -34q40 -33 70 -77t30 -69q0 -23 -12.5 -50.5t-34 -63.5t-41.5 -69q-64 -112 -83 -150
q-18 -39 -18 -63q0 -30 26 -30q54 0 183 45z" />
    <glyph glyph-name="afii10042" unicode="&#xd8;" horiz-adv-x="1479" 
d="M555 232q117 261 215 536q17 48 53 179.5t63.5 212.5t69 139.5t97.5 58.5q35 0 78.5 -25t74 -63.5t30.5 -75.5q0 -24 -13 -70.5t-45 -136t-84 -227.5q-46 -121 -81.5 -209t-66.5 -159q-30 -72 -36.5 -88.5t-6.5 -30.5q0 -31 37 -31q27 0 129 20q102 253 176 478
q40 118 85 264t71 213.5t58.5 107t78.5 39.5q34 0 79 -24.5t76.5 -58t31.5 -58.5q0 -67 -172 -520q-34 -91 -124 -350q-89 -259 -136 -312t-117 -61q-71 -7 -398 -17q-103 -3 -158 -5q-56 -2 -112 -5q-57 -2 -107 -4q-51 -2 -87 -2q-95 0 -146 48q-52 49 -69 105.5t-17 88.5
q0 34 12.5 81.5t61.5 187.5q48 141 83.5 244t84.5 255q23 72 57 210t58.5 190t66.5 52q33 0 89.5 -34.5t100.5 -80.5t44 -77q0 -25 -136 -406q-70 -198 -104 -281.5t-70.5 -169t-36.5 -100.5q0 -25 10 -33t29 -8q20 0 123 13z" />
    <glyph glyph-name="afii10042" unicode="&#x428;" horiz-adv-x="1479" 
d="M555 232q117 261 215 536q17 48 53 179.5t63.5 212.5t69 139.5t97.5 58.5q35 0 78.5 -25t74 -63.5t30.5 -75.5q0 -24 -13 -70.5t-45 -136t-84 -227.5q-46 -121 -81.5 -209t-66.5 -159q-30 -72 -36.5 -88.5t-6.5 -30.5q0 -31 37 -31q27 0 129 20q102 253 176 478
q40 118 85 264t71 213.5t58.5 107t78.5 39.5q34 0 79 -24.5t76.5 -58t31.5 -58.5q0 -67 -172 -520q-34 -91 -124 -350q-89 -259 -136 -312t-117 -61q-71 -7 -398 -17q-103 -3 -158 -5q-56 -2 -112 -5q-57 -2 -107 -4q-51 -2 -87 -2q-95 0 -146 48q-52 49 -69 105.5t-17 88.5
q0 34 12.5 81.5t61.5 187.5q48 141 83.5 244t84.5 255q23 72 57 210t58.5 190t66.5 52q33 0 89.5 -34.5t100.5 -80.5t44 -77q0 -25 -136 -406q-70 -198 -104 -281.5t-70.5 -169t-36.5 -100.5q0 -25 10 -33t29 -8q20 0 123 13z" />
    <glyph glyph-name="afii10043" unicode="&#xd9;" horiz-adv-x="1581" 
d="M555 232q117 261 215 536q17 48 53 179.5t63.5 212.5t69 139.5t97.5 58.5q35 0 78.5 -25t74 -63.5t30.5 -75.5q0 -24 -13 -70.5t-45 -136t-84 -227.5q-46 -121 -81.5 -209t-66.5 -159q-30 -72 -36.5 -88.5t-6.5 -30.5q0 -31 37 -31q27 0 129 20q102 253 176 478
q19 55 81 258t106.5 284.5t105.5 81.5q37 0 81 -29q45 -30 75.5 -69t30.5 -64q0 -67 -147 -438q-105 -268 -199 -463q41 17 96 17q74 0 74 -97q0 -59 -33 -170q-31 -105 -55 -175q-24 -69 -58 -134t-81 -105.5t-107 -40.5q-39 0 -71 23q-31 23 -31 63q0 26 9 52t29 70t37 90
q18 46 31 102q-220 -18 -480 -34q-260 -15 -425 -15q-94 0 -146 49t-69 105.5t-17 87.5q0 34 12.5 81.5t61.5 187.5q48 141 83.5 244t84.5 255q23 72 57 210t58.5 190t66.5 52q33 0 89.5 -34.5t100.5 -80.5t44 -77q0 -25 -136 -406q-70 -198 -104 -281.5t-70.5 -169
t-36.5 -100.5q0 -25 10 -33t29 -8q20 0 123 13z" />
    <glyph glyph-name="afii10043" unicode="&#x429;" horiz-adv-x="1581" 
d="M555 232q117 261 215 536q17 48 53 179.5t63.5 212.5t69 139.5t97.5 58.5q35 0 78.5 -25t74 -63.5t30.5 -75.5q0 -24 -13 -70.5t-45 -136t-84 -227.5q-46 -121 -81.5 -209t-66.5 -159q-30 -72 -36.5 -88.5t-6.5 -30.5q0 -31 37 -31q27 0 129 20q102 253 176 478
q19 55 81 258t106.5 284.5t105.5 81.5q37 0 81 -29q45 -30 75.5 -69t30.5 -64q0 -67 -147 -438q-105 -268 -199 -463q41 17 96 17q74 0 74 -97q0 -59 -33 -170q-31 -105 -55 -175q-24 -69 -58 -134t-81 -105.5t-107 -40.5q-39 0 -71 23q-31 23 -31 63q0 26 9 52t29 70t37 90
q18 46 31 102q-220 -18 -480 -34q-260 -15 -425 -15q-94 0 -146 49t-69 105.5t-17 87.5q0 34 12.5 81.5t61.5 187.5q48 141 83.5 244t84.5 255q23 72 57 210t58.5 190t66.5 52q33 0 89.5 -34.5t100.5 -80.5t44 -77q0 -25 -136 -406q-70 -198 -104 -281.5t-70.5 -169
t-36.5 -100.5q0 -25 10 -33t29 -8q20 0 123 13z" />
    <glyph glyph-name="afii10044" unicode="&#xda;" horiz-adv-x="1094" 
d="M767 867q40 10 71 10q78 0 147 -46.5t109.5 -119.5t40.5 -150q0 -107 -93.5 -244t-222.5 -234q-128 -98 -219 -98q-76 0 -155 83q-9 -17 -19 -35q-9 -18 -19.5 -28.5t-25.5 -10.5q-89 0 -145 66q-20 20 -36.5 37t-26 33t-9.5 36q0 34 13 64.5t74.5 157t113.5 245.5
q38 87 93 235t89 255q-85 -21 -139 -21q-121 0 -121 182q0 96 188 123q199 27 271 27q75 0 109 -24t59 -68q49 -85 49 -99q0 -34 -12 -41.5t-44 -14.5q-32 -6 -46 -21q-13 -16 -94 -299zM535 283q66 19 134 63q68 45 113.5 96t45.5 89q0 78 -84 78q-16 0 -29 -3
q-14 -2 -25 -5t-16 -5q-67 -165 -139 -313z" />
    <glyph glyph-name="afii10044" unicode="&#x42a;" horiz-adv-x="1094" 
d="M767 867q40 10 71 10q78 0 147 -46.5t109.5 -119.5t40.5 -150q0 -107 -93.5 -244t-222.5 -234q-128 -98 -219 -98q-76 0 -155 83q-9 -17 -19 -35q-9 -18 -19.5 -28.5t-25.5 -10.5q-89 0 -145 66q-20 20 -36.5 37t-26 33t-9.5 36q0 34 13 64.5t74.5 157t113.5 245.5
q38 87 93 235t89 255q-85 -21 -139 -21q-121 0 -121 182q0 96 188 123q199 27 271 27q75 0 109 -24t59 -68q49 -85 49 -99q0 -34 -12 -41.5t-44 -14.5q-32 -6 -46 -21q-13 -16 -94 -299zM535 283q66 19 134 63q68 45 113.5 96t45.5 89q0 78 -84 78q-16 0 -29 -3
q-14 -2 -25 -5t-16 -5q-67 -165 -139 -313z" />
    <glyph glyph-name="afii10045" unicode="&#xdb;" horiz-adv-x="1481" 
d="M363 68q-24 -42 -41 -61.5t-49 -19.5t-78 29.5t-79.5 72t-33.5 77.5q0 32 11.5 58t57.5 116q47 89 98 205.5t114 288.5q46 126 95 279t65 198t37.5 71.5t58.5 26.5q31 0 71.5 -27t69.5 -66.5t29 -74.5q0 -80 -105 -374q41 10 72 10q78 0 147 -46.5t109.5 -119.5
t40.5 -150q0 -107 -93.5 -244t-222.5 -234q-128 -98 -219 -98q-76 0 -155 83zM453 283q66 19 134 63q68 45 113.5 96t45.5 89q0 78 -84 78q-20 0 -70 -13q-60 -150 -139 -313zM1577 1395q40 0 57 -21.5t39 -66.5q5 -12 22.5 -43t24.5 -50q7 -18 7 -38q0 -23 -15 -58
t-50 -100t-60 -115q-39 -76 -114.5 -268t-115.5 -315q-7 -24 -34.5 -138t-56 -174.5t-72.5 -60.5q-41 0 -90 33q-50 34 -83.5 82.5t-33.5 89.5q0 74 101 350q196 535 307 714t167 179z" />
    <glyph glyph-name="afii10045" unicode="&#x42b;" horiz-adv-x="1481" 
d="M363 68q-24 -42 -41 -61.5t-49 -19.5t-78 29.5t-79.5 72t-33.5 77.5q0 32 11.5 58t57.5 116q47 89 98 205.5t114 288.5q46 126 95 279t65 198t37.5 71.5t58.5 26.5q31 0 71.5 -27t69.5 -66.5t29 -74.5q0 -80 -105 -374q41 10 72 10q78 0 147 -46.5t109.5 -119.5
t40.5 -150q0 -107 -93.5 -244t-222.5 -234q-128 -98 -219 -98q-76 0 -155 83zM453 283q66 19 134 63q68 45 113.5 96t45.5 89q0 78 -84 78q-20 0 -70 -13q-60 -150 -139 -313zM1577 1395q40 0 57 -21.5t39 -66.5q5 -12 22.5 -43t24.5 -50q7 -18 7 -38q0 -23 -15 -58
t-50 -100t-60 -115q-39 -76 -114.5 -268t-115.5 -315q-7 -24 -34.5 -138t-56 -174.5t-72.5 -60.5q-41 0 -90 33q-50 34 -83.5 82.5t-33.5 89.5q0 74 101 350q196 535 307 714t167 179z" />
    <glyph glyph-name="afii10046" unicode="&#xdc;" horiz-adv-x="1012" 
d="M363 68q-24 -42 -41 -61.5t-49 -19.5t-78 29.5t-79.5 72t-33.5 77.5q0 32 11.5 58t57.5 116q47 89 98 205.5t114 288.5q46 126 95 279t65 198t37.5 71.5t58.5 26.5q31 0 71.5 -27t69.5 -66.5t29 -74.5q0 -80 -104 -374q40 10 71 10q78 0 147 -46.5t109.5 -119.5
t40.5 -150q0 -107 -93.5 -244t-222.5 -234q-128 -98 -219 -98q-76 0 -155 83zM453 283q66 19 134 63q68 45 113.5 96t45.5 89q0 78 -84 78q-20 0 -70 -13q-60 -150 -139 -313z" />
    <glyph glyph-name="afii10046" unicode="&#x42c;" horiz-adv-x="1012" 
d="M363 68q-24 -42 -41 -61.5t-49 -19.5t-78 29.5t-79.5 72t-33.5 77.5q0 32 11.5 58t57.5 116q47 89 98 205.5t114 288.5q46 126 95 279t65 198t37.5 71.5t58.5 26.5q31 0 71.5 -27t69.5 -66.5t29 -74.5q0 -80 -104 -374q40 10 71 10q78 0 147 -46.5t109.5 -119.5
t40.5 -150q0 -107 -93.5 -244t-222.5 -234q-128 -98 -219 -98q-76 0 -155 83zM453 283q66 19 134 63q68 45 113.5 96t45.5 89q0 78 -84 78q-20 0 -70 -13q-60 -150 -139 -313z" />
    <glyph glyph-name="afii10047" unicode="&#xdd;" horiz-adv-x="994" 
d="M676 639q-127 -2 -173 -8t-78 -15.5t-75 -9.5q-63 0 -63 66q0 13 3 25q4 11 17 43.5t21 54.5q22 64 58.5 92.5t150.5 28.5q119 0 223 -8q30 90 30 174q0 94 -61 94q-85 0 -207 -64q-72 -41 -118 -41q-74 0 -74 76q0 109 89 198q90 89 345 89q87 0 169 -45
q82 -47 132.5 -125t50.5 -170q0 -145 -56.5 -336t-162.5 -367.5t-257 -289.5q-152 -115 -333 -115q-77 0 -161 41t-84 182q0 78 18.5 132t65 84t125.5 30q49 0 76.5 -21t27.5 -61q0 -12 -4 -39q-10 -51 -10 -63q0 -31 28 -31q45 0 103 73q58 71 109 166.5t75 159.5z" />
    <glyph glyph-name="afii10047" unicode="&#x42d;" horiz-adv-x="994" 
d="M676 639q-127 -2 -173 -8t-78 -15.5t-75 -9.5q-63 0 -63 66q0 13 3 25q4 11 17 43.5t21 54.5q22 64 58.5 92.5t150.5 28.5q119 0 223 -8q30 90 30 174q0 94 -61 94q-85 0 -207 -64q-72 -41 -118 -41q-74 0 -74 76q0 109 89 198q90 89 345 89q87 0 169 -45
q82 -47 132.5 -125t50.5 -170q0 -145 -56.5 -336t-162.5 -367.5t-257 -289.5q-152 -115 -333 -115q-77 0 -161 41t-84 182q0 78 18.5 132t65 84t125.5 30q49 0 76.5 -21t27.5 -61q0 -12 -4 -39q-10 -51 -10 -63q0 -31 28 -31q45 0 103 73q58 71 109 166.5t75 159.5z" />
    <glyph glyph-name="afii10048" unicode="&#xde;" horiz-adv-x="1557" 
d="M1430 1315q79 37 98 37q39 0 69 -58.5t46 -149t16 -175.5q0 -170 -57 -346q-58 -175 -158 -321q-100 -145 -223.5 -231t-247.5 -86q-95 0 -166 58t-107 147q-38 90 -38 183q0 95 27 231q-67 -3 -133 -24q-105 -249 -156 -410q-4 -12 -21 -76q-16 -64 -30 -85
q-13 -22 -42 -22q-23 0 -41 7q-17 7 -48 25t-54 28q-44 22 -63 42t-19 71q0 35 24.5 107t96.5 247q-36 0 -46.5 24t-10.5 93q0 40 -5.5 71.5t-5.5 37.5q0 87 189 102q110 248 165 360t99 172t80 60q48 0 100 -72q9 -12 29.5 -36t29.5 -39.5t9 -28.5q0 -20 -63.5 -151.5
t-110.5 -231.5q31 6 64 6h61q36 84 100 181q62 96 136.5 181t145 138t121.5 53q44 0 83.5 -37t56.5 -82zM1364 1018q0 92 -33 92q-39 0 -102 -78t-127 -201q-63 -124 -105 -254t-42 -224q0 -38 11.5 -66.5t27.5 -28.5q30 0 92.5 71.5t127 185.5t107.5 247t43 256z" />
    <glyph glyph-name="afii10048" unicode="&#x42e;" horiz-adv-x="1557" 
d="M1430 1315q79 37 98 37q39 0 69 -58.5t46 -149t16 -175.5q0 -170 -57 -346q-58 -175 -158 -321q-100 -145 -223.5 -231t-247.5 -86q-95 0 -166 58t-107 147q-38 90 -38 183q0 95 27 231q-67 -3 -133 -24q-105 -249 -156 -410q-4 -12 -21 -76q-16 -64 -30 -85
q-13 -22 -42 -22q-23 0 -41 7q-17 7 -48 25t-54 28q-44 22 -63 42t-19 71q0 35 24.5 107t96.5 247q-36 0 -46.5 24t-10.5 93q0 40 -5.5 71.5t-5.5 37.5q0 87 189 102q110 248 165 360t99 172t80 60q48 0 100 -72q9 -12 29.5 -36t29.5 -39.5t9 -28.5q0 -20 -63.5 -151.5
t-110.5 -231.5q31 6 64 6h61q36 84 100 181q62 96 136.5 181t145 138t121.5 53q44 0 83.5 -37t56.5 -82zM1364 1018q0 92 -33 92q-39 0 -102 -78t-127 -201q-63 -124 -105 -254t-42 -224q0 -38 11.5 -66.5t27.5 -28.5q30 0 92.5 71.5t127 185.5t107.5 247t43 256z" />
    <glyph glyph-name="afii10049" unicode="&#xdf;" horiz-adv-x="998" 
d="M633 396l-18 2q-97 -134 -187 -231q-91 -96 -164 -152q-72 -56 -127 -82q-54 -25 -84 -25q-40 0 -78 67q-37 68 -37 124q0 43 12.5 61.5t95.5 65.5q81 48 132 79q107 68 187 148q-85 26 -116 93q-32 68 -32 138q0 195 108 340q47 61 120.5 123.5t157.5 116.5
q85 54 158 85q73 32 114 32q52 0 76 -74q21 55 37 75.5t55 20.5q23 0 44 -14t39.5 -34t41.5 -44q29 -28 42 -49t13 -58q0 -35 -77 -233q-87 -224 -123 -322q-38 -99 -61.5 -172.5t-50.5 -175t-42 -155.5q-14 -54 -24 -97q-11 -42 -23 -73q-13 -30 -36.5 -49t-60.5 -19
q-72 0 -141.5 36.5t-69.5 98.5q0 26 9.5 57t42.5 115.5t67 180.5zM860 1051q-84 -24 -156 -76t-113.5 -115t-41.5 -114q0 -37 19 -60.5t57 -23.5q42 0 69 24q27 25 47.5 67.5t54.5 134.5t64 163z" />
    <glyph glyph-name="afii10049" unicode="&#x42f;" horiz-adv-x="998" 
d="M633 396l-18 2q-97 -134 -187 -231q-91 -96 -164 -152q-72 -56 -127 -82q-54 -25 -84 -25q-40 0 -78 67q-37 68 -37 124q0 43 12.5 61.5t95.5 65.5q81 48 132 79q107 68 187 148q-85 26 -116 93q-32 68 -32 138q0 195 108 340q47 61 120.5 123.5t157.5 116.5
q85 54 158 85q73 32 114 32q52 0 76 -74q21 55 37 75.5t55 20.5q23 0 44 -14t39.5 -34t41.5 -44q29 -28 42 -49t13 -58q0 -35 -77 -233q-87 -224 -123 -322q-38 -99 -61.5 -172.5t-50.5 -175t-42 -155.5q-14 -54 -24 -97q-11 -42 -23 -73q-13 -30 -36.5 -49t-60.5 -19
q-72 0 -141.5 36.5t-69.5 98.5q0 26 9.5 57t42.5 115.5t67 180.5zM860 1051q-84 -24 -156 -76t-113.5 -115t-41.5 -114q0 -37 19 -60.5t57 -23.5q42 0 69 24q27 25 47.5 67.5t54.5 134.5t64 163z" />
    <glyph glyph-name="afii10065" unicode="&#xe0;" horiz-adv-x="971" 
d="M507 101l-9 2q-98 -118 -207 -118q-110 0 -170 99q-59 98 -59 225q0 107 47 217t133 207q39 45 128 118t176 126t134 53q53 0 103 -57q47 104 104 104q23 0 43.5 -13t50.5 -38q39 -28 55.5 -46.5t16.5 -51.5q0 -26 -9 -47t-46 -89t-67 -137q-31 -68 -64 -169
q-57 -179 -70 -389q-5 -69 -19 -111t-61 -42q-4 0 -92 21q-4 1 -35.5 8t-49.5 16t-28 27q-12 17 -12 48q0 16 7 37zM654 719q-66 -25 -135 -92q-68 -67 -112 -149t-44 -152q0 -49 28 -49q25 0 68 42t95 142q53 100 100 258z" />
    <glyph glyph-name="afii10065" unicode="&#x430;" horiz-adv-x="971" 
d="M507 101l-9 2q-98 -118 -207 -118q-110 0 -170 99q-59 98 -59 225q0 107 47 217t133 207q39 45 128 118t176 126t134 53q53 0 103 -57q47 104 104 104q23 0 43.5 -13t50.5 -38q39 -28 55.5 -46.5t16.5 -51.5q0 -26 -9 -47t-46 -89t-67 -137q-31 -68 -64 -169
q-57 -179 -70 -389q-5 -69 -19 -111t-61 -42q-4 0 -92 21q-4 1 -35.5 8t-49.5 16t-28 27q-12 17 -12 48q0 16 7 37zM654 719q-66 -25 -135 -92q-68 -67 -112 -149t-44 -152q0 -49 28 -49q25 0 68 42t95 142q53 100 100 258z" />
    <glyph glyph-name="afii10066" unicode="&#xe1;" horiz-adv-x="996" 
d="M596 928h14q106 100 203 100q62 0 113 -44.5t79.5 -117t28.5 -153.5q0 -92 -56.5 -217t-153.5 -243.5t-212.5 -193t-228.5 -74.5q-90 0 -154 63q-64 61 -96 150q-31 88 -31 161q0 97 57 250q109 290 230 463q119 173 235.5 253.5t252.5 124.5q122 38 172 68q19 12 32 20
q14 9 27.5 15t28.5 6q48 0 96.5 -42.5t48.5 -88.5t-37 -82t-92.5 -60.5t-138.5 -52t-98 -33.5q-109 -42 -182 -106t-138 -166zM731 744q-62 0 -147.5 -72t-148.5 -170t-63 -166q0 -35 15 -58.5t31 -23.5q48 0 131 82.5t147 191.5t64 183q0 33 -29 33z" />
    <glyph glyph-name="afii10066" unicode="&#x431;" horiz-adv-x="996" 
d="M596 928h14q106 100 203 100q62 0 113 -44.5t79.5 -117t28.5 -153.5q0 -92 -56.5 -217t-153.5 -243.5t-212.5 -193t-228.5 -74.5q-90 0 -154 63q-64 61 -96 150q-31 88 -31 161q0 97 57 250q109 290 230 463q119 173 235.5 253.5t252.5 124.5q122 38 172 68q19 12 32 20
q14 9 27.5 15t28.5 6q48 0 96.5 -42.5t48.5 -88.5t-37 -82t-92.5 -60.5t-138.5 -52t-98 -33.5q-109 -42 -182 -106t-138 -166zM731 744q-62 0 -147.5 -72t-148.5 -170t-63 -166q0 -35 15 -58.5t31 -23.5q48 0 131 82.5t147 191.5t64 183q0 33 -29 33z" />
    <glyph glyph-name="afii10067" unicode="&#xe2;" horiz-adv-x="901" 
d="M776 522q52 -71 52 -157q0 -91 -51 -180t-143 -146q-91 -58 -204 -58q-101 0 -180.5 45.5t-123.5 123t-44 168.5q0 126 57 255q57 130 150 235t203 167t213 62q80 0 138 -31t89 -81t31 -104q0 -160 -187 -299zM490 643q76 19 149 70q74 51 74 94q0 35 -37 35
q-40 0 -93 -62q-54 -61 -93 -137zM410 471q-47 -91 -47 -151q0 -70 71 -70q47 0 80 39.5t33 83.5q0 11 -12 43q-33 -8 -49 -8q-31 0 -76 63z" />
    <glyph glyph-name="afii10067" unicode="&#x432;" horiz-adv-x="901" 
d="M776 522q52 -71 52 -157q0 -91 -51 -180t-143 -146q-91 -58 -204 -58q-101 0 -180.5 45.5t-123.5 123t-44 168.5q0 126 57 255q57 130 150 235t203 167t213 62q80 0 138 -31t89 -81t31 -104q0 -160 -187 -299zM490 643q76 19 149 70q74 51 74 94q0 35 -37 35
q-40 0 -93 -62q-54 -61 -93 -137zM410 471q-47 -91 -47 -151q0 -70 71 -70q47 0 80 39.5t33 83.5q0 11 -12 43q-33 -8 -49 -8q-31 0 -76 63z" />
    <glyph glyph-name="afii10068" unicode="&#xe3;" horiz-adv-x="869" 
d="M205 764q0 59 36 122.5t127 109t243 45.5q97 0 165 -39q67 -38 100.5 -97.5t33.5 -121.5q0 -107 -71 -184q-73 -77 -148 -115.5t-199 -90.5q-158 -63 -158 -116q0 -54 41 -54t139 43q33 15 76 39.5t64.5 34.5t44.5 10q74 0 74 -59q0 -112 -53 -172.5t-173 -99.5
q-99 -34 -205 -34q-169 0 -235 92t-66 189q0 137 94 216q94 80 232 133q43 16 106 40q62 25 100 51q38 27 38 58q0 20 -9 36.5t-22 16.5q-22 0 -51.5 -13.5t-84.5 -42.5q-54 -29 -95 -44.5t-74 -15.5q-70 0 -70 63z" />
    <glyph glyph-name="afii10068" unicode="&#x433;" horiz-adv-x="869" 
d="M205 764q0 59 36 122.5t127 109t243 45.5q97 0 165 -39q67 -38 100.5 -97.5t33.5 -121.5q0 -107 -71 -184q-73 -77 -148 -115.5t-199 -90.5q-158 -63 -158 -116q0 -54 41 -54t139 43q33 15 76 39.5t64.5 34.5t44.5 10q74 0 74 -59q0 -112 -53 -172.5t-173 -99.5
q-99 -34 -205 -34q-169 0 -235 92t-66 189q0 137 94 216q94 80 232 133q43 16 106 40q62 25 100 51q38 27 38 58q0 20 -9 36.5t-22 16.5q-22 0 -51.5 -13.5t-84.5 -42.5q-54 -29 -95 -44.5t-74 -15.5q-70 0 -70 63z" />
    <glyph glyph-name="afii10069" unicode="&#xe4;" horiz-adv-x="973" 
d="M753 957q-5 137 -73 243q-25 42 -51 73t-59 67.5t-47.5 59t-14.5 44.5q0 27 30 59t69 54t63 22q50 0 113 -50t121 -137t94 -196t36 -223q0 -235 -71 -421t-184.5 -312.5t-237.5 -189.5q-125 -65 -227 -65q-91 0 -171 67q-82 66 -82 227q0 130 60 265t152.5 245.5
t186 175.5t157.5 65q60 0 136 -73zM715 772q-81 -28 -169 -108t-147 -181t-59 -184q0 -45 29 -45q42 0 114 72.5t138 191.5q66 120 94 254z" />
    <glyph glyph-name="afii10069" unicode="&#x434;" horiz-adv-x="973" 
d="M753 957q-5 137 -73 243q-25 42 -51 73t-59 67.5t-47.5 59t-14.5 44.5q0 27 30 59t69 54t63 22q50 0 113 -50t121 -137t94 -196t36 -223q0 -235 -71 -421t-184.5 -312.5t-237.5 -189.5q-125 -65 -227 -65q-91 0 -171 67q-82 66 -82 227q0 130 60 265t152.5 245.5
t186 175.5t157.5 65q60 0 136 -73zM715 772q-81 -28 -169 -108t-147 -181t-59 -184q0 -45 29 -45q42 0 114 72.5t138 191.5q66 120 94 254z" />
    <glyph glyph-name="afii10070" unicode="&#xe5;" horiz-adv-x="918" 
d="M387 424q-22 -64 -22 -115q0 -77 59 -77q71 0 160 43q49 23 76 37q28 14 42.5 20t24.5 6q19 0 36.5 -15t17.5 -52q0 -65 -7 -96t-23.5 -49.5t-55.5 -43.5q-154 -96 -312 -96q-136 0 -218.5 77.5t-82.5 219.5q0 124 58.5 259t152.5 249q95 113 202 182q108 68 200 68
q72 0 133 -39q60 -38 96 -101q35 -62 35 -129q0 -96 -77 -192q-78 -95 -184 -157t-176 -62q-53 0 -135 63zM453 570q45 9 102 41t96 73t39 74q0 39 -38 39q-26 0 -66 -37t-76.5 -89.5t-56.5 -100.5z" />
    <glyph glyph-name="afii10070" unicode="&#x435;" horiz-adv-x="918" 
d="M387 424q-22 -64 -22 -115q0 -77 59 -77q71 0 160 43q49 23 76 37q28 14 42.5 20t24.5 6q19 0 36.5 -15t17.5 -52q0 -65 -7 -96t-23.5 -49.5t-55.5 -43.5q-154 -96 -312 -96q-136 0 -218.5 77.5t-82.5 219.5q0 124 58.5 259t152.5 249q95 113 202 182q108 68 200 68
q72 0 133 -39q60 -38 96 -101q35 -62 35 -129q0 -96 -77 -192q-78 -95 -184 -157t-176 -62q-53 0 -135 63zM453 570q45 9 102 41t96 73t39 74q0 39 -38 39q-26 0 -66 -37t-76.5 -89.5t-56.5 -100.5z" />
    <glyph glyph-name="afii10072" unicode="&#xe6;" horiz-adv-x="1329" 
d="M869 402h-7q-1 -6 -23 -81.5t-30 -107.5q-11 -51 -24 -105q-12 -53 -36.5 -88t-68.5 -35q-18 0 -98 32q-40 15 -59 30t-28.5 42.5t-9.5 76.5q0 38 23 95t71 161h-8q-52 -50 -89.5 -91.5t-86.5 -98.5q-48 -58 -77 -88q-167 -177 -242 -177q-20 0 -36.5 11t-37.5 35
q-21 22 -29 28q-44 38 -60 57.5t-16 57.5q0 21 23.5 40.5t88 58t95.5 61.5q247 176 344 286q-71 96 -115 181t-44 133q0 30 18 46.5t59 32t50 19.5l24 12q12 7 20 10q9 3 19 3q47 0 109 -119q6 -12 26.5 -57.5t39.5 -82t45 -75.5q13 32 56 151t68 153t68 34q33 0 73 -19.5
t68.5 -48.5t28.5 -59q0 -31 -12 -68q-13 -36 -41.5 -97t-38.5 -87h10q103 88 170 155q67 68 116.5 125t64.5 71.5t34 14.5q25 0 55.5 -32.5t52 -78.5t21.5 -77q0 -114 -389 -360q50 -135 83 -201q34 -65 65.5 -117.5t31.5 -73.5q0 -63 -106 -103q-26 -9 -54 -21t-39.5 -15.5
t-21.5 -3.5q-40 0 -71 42q-30 43 -50 105.5t-36.5 138t-36.5 169.5z" />
    <glyph glyph-name="afii10072" unicode="&#x436;" horiz-adv-x="1329" 
d="M869 402h-7q-1 -6 -23 -81.5t-30 -107.5q-11 -51 -24 -105q-12 -53 -36.5 -88t-68.5 -35q-18 0 -98 32q-40 15 -59 30t-28.5 42.5t-9.5 76.5q0 38 23 95t71 161h-8q-52 -50 -89.5 -91.5t-86.5 -98.5q-48 -58 -77 -88q-167 -177 -242 -177q-20 0 -36.5 11t-37.5 35
q-21 22 -29 28q-44 38 -60 57.5t-16 57.5q0 21 23.5 40.5t88 58t95.5 61.5q247 176 344 286q-71 96 -115 181t-44 133q0 30 18 46.5t59 32t50 19.5l24 12q12 7 20 10q9 3 19 3q47 0 109 -119q6 -12 26.5 -57.5t39.5 -82t45 -75.5q13 32 56 151t68 153t68 34q33 0 73 -19.5
t68.5 -48.5t28.5 -59q0 -31 -12 -68q-13 -36 -41.5 -97t-38.5 -87h10q103 88 170 155q67 68 116.5 125t64.5 71.5t34 14.5q25 0 55.5 -32.5t52 -78.5t21.5 -77q0 -114 -389 -360q50 -135 83 -201q34 -65 65.5 -117.5t31.5 -73.5q0 -63 -106 -103q-26 -9 -54 -21t-39.5 -15.5
t-21.5 -3.5q-40 0 -71 42q-30 43 -50 105.5t-36.5 138t-36.5 169.5z" />
    <glyph glyph-name="afii10073" unicode="&#xe7;" horiz-adv-x="838" 
d="M691 602q115 -43 115 -161q0 -78 -41 -159.5t-109.5 -148.5t-151 -107.5t-162.5 -40.5q-71 0 -146 36t-125 84.5t-50 83.5q0 38 50 105t85 67q23 0 45 -15t54 -45t51.5 -43.5t37.5 -13.5q51 0 112 54.5t61 101.5q0 71 -48 71q-36 0 -100 -26q-71 -29 -113 -29
q-39 0 -54 52.5t-15 99.5q0 16 17 30t44.5 25t61.5 21.5t68 21.5q153 51 153 125q0 37 -37 37q-25 0 -111 -54q-113 -69 -133 -69t-36 38q-15 39 -15 72q0 67 63 118.5t153.5 79.5t166.5 28q107 0 181 -63q75 -63 75 -148q0 -144 -147 -228z" />
    <glyph glyph-name="afii10073" unicode="&#x437;" horiz-adv-x="838" 
d="M691 602q115 -43 115 -161q0 -78 -41 -159.5t-109.5 -148.5t-151 -107.5t-162.5 -40.5q-71 0 -146 36t-125 84.5t-50 83.5q0 38 50 105t85 67q23 0 45 -15t54 -45t51.5 -43.5t37.5 -13.5q51 0 112 54.5t61 101.5q0 71 -48 71q-36 0 -100 -26q-71 -29 -113 -29
q-39 0 -54 52.5t-15 99.5q0 16 17 30t44.5 25t61.5 21.5t68 21.5q153 51 153 125q0 37 -37 37q-25 0 -111 -54q-113 -69 -133 -69t-36 38q-15 39 -15 72q0 67 63 118.5t153.5 79.5t166.5 28q107 0 181 -63q75 -63 75 -148q0 -144 -147 -228z" />
    <glyph glyph-name="afii10074" unicode="&#xe8;" horiz-adv-x="961" 
d="M504 109q-189 -124 -264 -124q-49 0 -90 45q-41 43 -65 109.5t-24 126.5q0 53 73.5 252.5t165.5 361t161 161.5q21 0 63 -21t76 -50q33 -28 33 -50q0 -10 -7.5 -24.5t-40.5 -74t-81 -147.5q-164 -302 -164 -389q0 -39 49 -39q37 0 136 66q63 193 129 332t143 276
q55 96 113 96q50 0 101.5 -50.5t51.5 -96.5q0 -30 -9 -47t-46 -76q-65 -101 -127 -249q-62 -147 -86 -253q-11 -46 -18.5 -134.5t-23 -125.5t-61.5 -37q-56 0 -126.5 33t-70.5 90q0 20 9 39z" />
    <glyph glyph-name="afii10074" unicode="&#x438;" horiz-adv-x="961" 
d="M504 109q-189 -124 -264 -124q-49 0 -90 45q-41 43 -65 109.5t-24 126.5q0 53 73.5 252.5t165.5 361t161 161.5q21 0 63 -21t76 -50q33 -28 33 -50q0 -10 -7.5 -24.5t-40.5 -74t-81 -147.5q-164 -302 -164 -389q0 -39 49 -39q37 0 136 66q63 193 129 332t143 276
q55 96 113 96q50 0 101.5 -50.5t51.5 -96.5q0 -30 -9 -47t-46 -76q-65 -101 -127 -249q-62 -147 -86 -253q-11 -46 -18.5 -134.5t-23 -125.5t-61.5 -37q-56 0 -126.5 33t-70.5 90q0 20 9 39z" />
    <glyph glyph-name="afii10075" unicode="&#xe9;" horiz-adv-x="957" 
d="M504 109q-189 -124 -264 -124q-77 0 -127 93q-52 92 -52 176q0 44 42 172t107 273.5t132 243.5t119 98q21 0 63 -21t76 -50q33 -28 33 -50q0 -10 -7.5 -24.5t-40.5 -74t-81 -147.5q-164 -302 -164 -389q0 -39 49 -39q37 0 136 66q63 193 129 332t143 276q55 96 113 96
q50 0 101.5 -50.5t51.5 -96.5q0 -30 -9 -47t-46 -76q-65 -101 -127 -249q-62 -147 -86 -253q-11 -46 -18.5 -134.5t-23 -125.5t-61.5 -37q-56 0 -126 33t-70 90q0 20 8 39zM1149 1284q-19 -37 -87 -74.5t-151.5 -62t-144.5 -24.5q-51 0 -93 28.5t-65.5 72t-23.5 85.5
q0 46 30 92.5t70 77.5q41 31 66 31q24 0 58 -32t34 -54q0 -8 -16 -37q-19 -33 -19 -39q0 -18 13.5 -32.5t29.5 -14.5q27 0 97 39.5t106 70.5q71 60 104 60q21 0 21 -54q0 -24 -10 -70t-19 -63z" />
    <glyph glyph-name="afii10075" unicode="&#x439;" horiz-adv-x="957" 
d="M504 109q-189 -124 -264 -124q-77 0 -127 93q-52 92 -52 176q0 44 42 172t107 273.5t132 243.5t119 98q21 0 63 -21t76 -50q33 -28 33 -50q0 -10 -7.5 -24.5t-40.5 -74t-81 -147.5q-164 -302 -164 -389q0 -39 49 -39q37 0 136 66q63 193 129 332t143 276q55 96 113 96
q50 0 101.5 -50.5t51.5 -96.5q0 -30 -9 -47t-46 -76q-65 -101 -127 -249q-62 -147 -86 -253q-11 -46 -18.5 -134.5t-23 -125.5t-61.5 -37q-56 0 -126 33t-70 90q0 20 8 39zM1149 1284q-19 -37 -87 -74.5t-151.5 -62t-144.5 -24.5q-51 0 -93 28.5t-65.5 72t-23.5 85.5
q0 46 30 92.5t70 77.5q41 31 66 31q24 0 58 -32t34 -54q0 -8 -16 -37q-19 -33 -19 -39q0 -18 13.5 -32.5t29.5 -14.5q27 0 97 39.5t106 70.5q71 60 104 60q21 0 21 -54q0 -24 -10 -70t-19 -63z" />
    <glyph glyph-name="afii10076" unicode="&#xea;" horiz-adv-x="905" 
d="M420 428h-8q-43 -114 -62 -165q-19 -50 -32 -89q-9 -26 -21.5 -65.5t-28.5 -70.5q-15 -31 -38 -51t-52 -20q-13 0 -26 7q-13 8 -33.5 24t-46.5 35q-36 26 -54 47t-18 55q0 33 62 162q76 164 134 303q57 140 104 250t76 146t69 36q19 0 61 -19.5t74.5 -45.5t32.5 -47
q0 -20 -44.5 -116t-78.5 -157q71 38 127.5 85.5t92.5 88.5t122 146q59 74 94 74q50 0 84 -82q6 -13 17 -33t17 -34q5 -13 5 -25q0 -49 -58 -125q-59 -75 -150 -147t-179 -111q24 -168 80 -304q14 -34 34 -79t27 -63t7 -32t-17 -21q-16 -8 -39 -11q-22 -3 -39 -5
q-21 -5 -37.5 -10t-31.5 -9q-15 -3 -25 -3q-51 0 -97 69.5t-75 182.5q-28 112 -29 229z" />
    <glyph glyph-name="afii10076" unicode="&#x43a;" horiz-adv-x="905" 
d="M420 428h-8q-43 -114 -62 -165q-19 -50 -32 -89q-9 -26 -21.5 -65.5t-28.5 -70.5q-15 -31 -38 -51t-52 -20q-13 0 -26 7q-13 8 -33.5 24t-46.5 35q-36 26 -54 47t-18 55q0 33 62 162q76 164 134 303q57 140 104 250t76 146t69 36q19 0 61 -19.5t74.5 -45.5t32.5 -47
q0 -20 -44.5 -116t-78.5 -157q71 38 127.5 85.5t92.5 88.5t122 146q59 74 94 74q50 0 84 -82q6 -13 17 -33t17 -34q5 -13 5 -25q0 -49 -58 -125q-59 -75 -150 -147t-179 -111q24 -168 80 -304q14 -34 34 -79t27 -63t7 -32t-17 -21q-16 -8 -39 -11q-22 -3 -39 -5
q-21 -5 -37.5 -10t-31.5 -9q-15 -3 -25 -3q-51 0 -97 69.5t-75 182.5q-28 112 -29 229z" />
    <glyph glyph-name="afii10077" unicode="&#xeb;" horiz-adv-x="844" 
d="M500 512l-8 2q-46 -96 -130 -233.5t-167 -235.5t-131 -98q-24 0 -58 30q-35 31 -62 70q-26 40 -26 60q0 24 18 51.5t80 103.5t141 181q80 105 185 260q21 30 96 148t110 154t75 36q27 0 76 -18t88 -45q37 -26 37 -52q0 -19 -16 -125.5t-28 -217.5q-11 -112 -13 -259
q0 -30 1 -86q1 -57 1 -82q0 -93 -22 -141q-21 -48 -83 -48q-20 0 -37.5 6t-45.5 23q-28 18 -30 19l-45 22.5t-30 21.5q-15 13 -23 34.5t-8 56.5q0 40 9 101.5t23 137t23 123.5z" />
    <glyph glyph-name="afii10077" unicode="&#x43b;" horiz-adv-x="844" 
d="M500 512l-8 2q-46 -96 -130 -233.5t-167 -235.5t-131 -98q-24 0 -58 30q-35 31 -62 70q-26 40 -26 60q0 24 18 51.5t80 103.5t141 181q80 105 185 260q21 30 96 148t110 154t75 36q27 0 76 -18t88 -45q37 -26 37 -52q0 -19 -16 -125.5t-28 -217.5q-11 -112 -13 -259
q0 -30 1 -86q1 -57 1 -82q0 -93 -22 -141q-21 -48 -83 -48q-20 0 -37.5 6t-45.5 23q-28 18 -30 19l-45 22.5t-30 21.5q-15 13 -23 34.5t-8 56.5q0 40 9 101.5t23 137t23 123.5z" />
    <glyph glyph-name="afii10078" unicode="&#xec;" horiz-adv-x="1299" 
d="M942 484l-8 2q-65 -83 -131 -209q-12 -24 -56 -117q-43 -93 -76 -133q-33 -42 -75 -42q-16 0 -74 28q-42 19 -62 40q-20 22 -20 68q0 23 15 85.5t44 250.5q-85 -126 -164 -241q-78 -116 -147.5 -192.5t-119.5 -76.5q-20 0 -35.5 8t-31 23t-24.5 23.5t-26 24t-26 31.5
q-8 15 -8 35q0 42 50 113.5t169 218t187 242.5q52 72 122.5 188.5t97 151.5t57.5 35q37 0 81 -26t73.5 -68.5t29.5 -90.5q0 -20 -20 -106.5t-33 -192.5q52 73 138 218q87 145 134.5 205.5t98.5 60.5q20 0 38 -10t40.5 -30.5t26.5 -23.5q12 -9 27 -19.5t24 -20.5t14.5 -25
t5.5 -37q0 -42 -21 -166t-35 -226t-24 -255q-2 -69 -5 -133q-3 -65 -22 -107q-18 -41 -65 -41q-27 0 -98 30q-14 7 -53 19t-55 29t-16 57q0 41 8 91.5t27.5 161.5t22.5 149z" />
    <glyph glyph-name="afii10078" unicode="&#x43c;" horiz-adv-x="1299" 
d="M942 484l-8 2q-65 -83 -131 -209q-12 -24 -56 -117q-43 -93 -76 -133q-33 -42 -75 -42q-16 0 -74 28q-42 19 -62 40q-20 22 -20 68q0 23 15 85.5t44 250.5q-85 -126 -164 -241q-78 -116 -147.5 -192.5t-119.5 -76.5q-20 0 -35.5 8t-31 23t-24.5 23.5t-26 24t-26 31.5
q-8 15 -8 35q0 42 50 113.5t169 218t187 242.5q52 72 122.5 188.5t97 151.5t57.5 35q37 0 81 -26t73.5 -68.5t29.5 -90.5q0 -20 -20 -106.5t-33 -192.5q52 73 138 218q87 145 134.5 205.5t98.5 60.5q20 0 38 -10t40.5 -30.5t26.5 -23.5q12 -9 27 -19.5t24 -20.5t14.5 -25
t5.5 -37q0 -42 -21 -166t-35 -226t-24 -255q-2 -69 -5 -133q-3 -65 -22 -107q-18 -41 -65 -41q-27 0 -98 30q-14 7 -53 19t-55 29t-16 57q0 41 8 91.5t27.5 161.5t22.5 149z" />
    <glyph glyph-name="afii10079" unicode="&#xed;" horiz-adv-x="977" 
d="M545 682q20 2 61 2q21 0 62 -8q48 116 75 180.5t49 105t44.5 60t52.5 19.5q15 0 28 -4q12 -3 22 -10q11 -6 20.5 -14t21.5 -17q18 -11 37.5 -23t30 -27.5t10.5 -42.5q0 -29 -14 -66t-50 -109t-65 -138t-59 -156q-23 -68 -32 -119t-12 -100q-2 -50 -4 -96t-8 -76
q-17 -96 -90 -96q-11 0 -21.5 1.5t-24 5t-27.5 7.5q-47 12 -74 24t-49.5 47t-22.5 99q0 86 74 293q-67 0 -121 -16q-25 -71 -63.5 -187.5t-58 -167t-42.5 -78.5t-53 -28q-21 0 -38 10q-17 11 -43 34q-26 24 -34 30q-1 1 -31 18q-29 17 -42 32.5t-13 39.5q0 36 51.5 137.5
t65.5 140.5q-12 1 -21 12t-15 51q-5 39 -5 111q0 103 141 109q30 98 52 169t41 114.5t40 64.5q22 21 52 21q27 0 61 -15q24 -9 46 -18t35.5 -18.5t20.5 -24.5t7 -41q0 -12 -5 -32t-25 -83q-19 -63 -38 -127z" />
    <glyph glyph-name="afii10079" unicode="&#x43d;" horiz-adv-x="977" 
d="M545 682q20 2 61 2q21 0 62 -8q48 116 75 180.5t49 105t44.5 60t52.5 19.5q15 0 28 -4q12 -3 22 -10q11 -6 20.5 -14t21.5 -17q18 -11 37.5 -23t30 -27.5t10.5 -42.5q0 -29 -14 -66t-50 -109t-65 -138t-59 -156q-23 -68 -32 -119t-12 -100q-2 -50 -4 -96t-8 -76
q-17 -96 -90 -96q-11 0 -21.5 1.5t-24 5t-27.5 7.5q-47 12 -74 24t-49.5 47t-22.5 99q0 86 74 293q-67 0 -121 -16q-25 -71 -63.5 -187.5t-58 -167t-42.5 -78.5t-53 -28q-21 0 -38 10q-17 11 -43 34q-26 24 -34 30q-1 1 -31 18q-29 17 -42 32.5t-13 39.5q0 36 51.5 137.5
t65.5 140.5q-12 1 -21 12t-15 51q-5 39 -5 111q0 103 141 109q30 98 52 169t41 114.5t40 64.5q22 21 52 21q27 0 61 -15q24 -9 46 -18t35.5 -18.5t20.5 -24.5t7 -41q0 -12 -5 -32t-25 -83q-19 -63 -38 -127z" />
    <glyph glyph-name="afii10080" unicode="&#xee;" horiz-adv-x="928" 
d="M744 889q99 -33 141.5 -88t42.5 -164q0 -129 -82 -284t-212 -261.5t-263 -106.5q-89 0 -154.5 50.5t-100 130t-34.5 162.5q0 123 55.5 251t163.5 242q49 52 159 137t161 85t76 -41.5t47 -112.5zM637 754q-68 -33 -132 -113t-104 -178.5t-40 -181.5q0 -53 32 -53
q49 0 111 79t106 188t44 191q0 30 -17 68z" />
    <glyph glyph-name="afii10080" unicode="&#x43e;" horiz-adv-x="928" 
d="M744 889q99 -33 141.5 -88t42.5 -164q0 -129 -82 -284t-212 -261.5t-263 -106.5q-89 0 -154.5 50.5t-100 130t-34.5 162.5q0 123 55.5 251t163.5 242q49 52 159 137t161 85t76 -41.5t47 -112.5zM637 754q-68 -33 -132 -113t-104 -178.5t-40 -181.5q0 -53 32 -53
q49 0 111 79t106 188t44 191q0 30 -17 68z" />
    <glyph glyph-name="afii10081" unicode="&#xef;" horiz-adv-x="955" 
d="M555 871q89 86 140 118.5t92 32.5q58 0 101 -51.5t65 -119t22 -107.5q0 -48 -27.5 -121t-88 -213t-83.5 -211q-5 -17 -22 -99t-36 -119q-18 -37 -54 -37q-21 0 -121 48q-43 22 -67 40q-23 18 -23 50q0 85 127 402q37 91 67.5 147.5t30.5 73.5q0 24 -14 24
q-25 0 -86.5 -40t-87.5 -66q-49 -116 -88 -232.5t-73 -216.5q-33 -100 -61 -144q-27 -45 -63 -45q-33 0 -82.5 33.5t-86 75.5t-36.5 66q0 21 14 54t62 132.5t93.5 204t94.5 238.5q4 10 32 106t53 141.5t63 45.5q21 0 86 -33q21 -9 40 -18q18 -8 32 -23q14 -14 14 -37
q0 -13 -4 -27t-10 -32q-7 -17 -15 -41z" />
    <glyph glyph-name="afii10081" unicode="&#x43f;" horiz-adv-x="955" 
d="M555 871q89 86 140 118.5t92 32.5q58 0 101 -51.5t65 -119t22 -107.5q0 -48 -27.5 -121t-88 -213t-83.5 -211q-5 -17 -22 -99t-36 -119q-18 -37 -54 -37q-21 0 -121 48q-43 22 -67 40q-23 18 -23 50q0 85 127 402q37 91 67.5 147.5t30.5 73.5q0 24 -14 24
q-25 0 -86.5 -40t-87.5 -66q-49 -116 -88 -232.5t-73 -216.5q-33 -100 -61 -144q-27 -45 -63 -45q-33 0 -82.5 33.5t-86 75.5t-36.5 66q0 21 14 54t62 132.5t93.5 204t94.5 238.5q4 10 32 106t53 141.5t63 45.5q21 0 86 -33q21 -9 40 -18q18 -8 32 -23q14 -14 14 -37
q0 -13 -4 -27t-10 -32q-7 -17 -15 -41z" />
    <glyph glyph-name="afii10082" unicode="&#xf0;" horiz-adv-x="955" 
d="M307 78q-32 -74 -78 -202t-77 -185.5t-68 -57.5q-24 0 -75.5 30.5t-92 69.5t-40.5 66q0 12 10 35q9 24 34.5 79.5t91.5 199.5q20 45 42.5 97t56.5 134.5t69 170.5t57 143q-25 29 -39 92q-14 64 -14 100q0 40 45 72q45 33 100 47q4 10 20 77q16 68 34.5 100t52.5 32
q41 0 87.5 -18t78.5 -45q33 -26 33 -48q0 -12 -13 -63q61 28 132 28q65 0 115.5 -49.5t78.5 -127.5q27 -77 27 -152q0 -131 -103.5 -301.5t-241.5 -292.5q-139 -124 -226 -124q-23 0 -37.5 13t-32.5 41.5t-27 38.5zM401 307q81 37 153 108t114.5 147.5t42.5 129.5
q0 58 -53 58q-57 0 -103 -31q-135 -351 -154 -412z" />
    <glyph glyph-name="afii10082" unicode="&#x440;" horiz-adv-x="955" 
d="M307 78q-32 -74 -78 -202t-77 -185.5t-68 -57.5q-24 0 -75.5 30.5t-92 69.5t-40.5 66q0 12 10 35q9 24 34.5 79.5t91.5 199.5q20 45 42.5 97t56.5 134.5t69 170.5t57 143q-25 29 -39 92q-14 64 -14 100q0 40 45 72q45 33 100 47q4 10 20 77q16 68 34.5 100t52.5 32
q41 0 87.5 -18t78.5 -45q33 -26 33 -48q0 -12 -13 -63q61 28 132 28q65 0 115.5 -49.5t78.5 -127.5q27 -77 27 -152q0 -131 -103.5 -301.5t-241.5 -292.5q-139 -124 -226 -124q-23 0 -37.5 13t-32.5 41.5t-27 38.5zM401 307q81 37 153 108t114.5 147.5t42.5 129.5
q0 58 -53 58q-57 0 -103 -31q-135 -351 -154 -412z" />
    <glyph glyph-name="afii10083" unicode="&#xf1;" horiz-adv-x="832" 
d="M379 332q0 -113 70 -113q51 0 129 52q30 19 81 56q51 38 70 38q27 0 27 -90q0 -93 -62 -159q-62 -65 -150.5 -98t-166.5 -33q-60 0 -128 29.5t-117.5 103t-49.5 198.5q0 113 53.5 241t142.5 238q90 111 198.5 178.5t215.5 67.5q112 0 167 -63t55 -161q0 -85 -63 -142.5
t-136 -57.5q-63 0 -63 65q0 21 8 49.5t8 55.5q0 23 -9 38t-20 15q-32 0 -96 -87t-114 -206t-50 -215z" />
    <glyph glyph-name="afii10083" unicode="&#x441;" horiz-adv-x="832" 
d="M379 332q0 -113 70 -113q51 0 129 52q30 19 81 56q51 38 70 38q27 0 27 -90q0 -93 -62 -159q-62 -65 -150.5 -98t-166.5 -33q-60 0 -128 29.5t-117.5 103t-49.5 198.5q0 113 53.5 241t142.5 238q90 111 198.5 178.5t215.5 67.5q112 0 167 -63t55 -161q0 -85 -63 -142.5
t-136 -57.5q-63 0 -63 65q0 21 8 49.5t8 55.5q0 23 -9 38t-20 15q-32 0 -96 -87t-114 -206t-50 -215z" />
    <glyph glyph-name="afii10084" unicode="&#xf2;" horiz-adv-x="1346" 
d="M930 883q49 31 119 62.5t121 31.5t96.5 -41.5t72.5 -100t27 -106.5q0 -111 -36 -228t-113 -329q-32 -86 -48 -124.5t-46.5 -69.5t-73.5 -31q-53 0 -111 48q-58 49 -58 95q0 22 9 40q8 19 33 58t42 69.5t35 74.5q105 266 105 311q0 37 -39 37q-53 0 -157 -110
q-84 -305 -147 -445t-134 -140q-34 0 -75.5 21.5t-70.5 53.5t-29 61q0 25 40.5 116t74.5 177q12 30 30.5 76t35 95t16.5 77t-20 28q-17 0 -30.5 -11t-57.5 -50.5t-78 -60.5q-10 -29 -64 -192t-84 -236t-62.5 -114t-72.5 -41q-24 0 -68 19q-44 17 -78.5 48.5t-34.5 70.5
q0 26 13 63t49 123t71.5 174.5t82.5 217.5q8 24 43.5 148t65.5 178.5t76 54.5q13 0 25 -6q13 -6 34 -20t31 -19q3 -2 30 -15t40 -23.5t13 -23.5q0 -7 -10.5 -37t-13.5 -55q49 46 127 92.5t129 46.5q46 0 81 -40t44 -99z" />
    <glyph glyph-name="afii10084" unicode="&#x442;" horiz-adv-x="1346" 
d="M930 883q49 31 119 62.5t121 31.5t96.5 -41.5t72.5 -100t27 -106.5q0 -111 -36 -228t-113 -329q-32 -86 -48 -124.5t-46.5 -69.5t-73.5 -31q-53 0 -111 48q-58 49 -58 95q0 22 9 40q8 19 33 58t42 69.5t35 74.5q105 266 105 311q0 37 -39 37q-53 0 -157 -110
q-84 -305 -147 -445t-134 -140q-34 0 -75.5 21.5t-70.5 53.5t-29 61q0 25 40.5 116t74.5 177q12 30 30.5 76t35 95t16.5 77t-20 28q-17 0 -30.5 -11t-57.5 -50.5t-78 -60.5q-10 -29 -64 -192t-84 -236t-62.5 -114t-72.5 -41q-24 0 -68 19q-44 17 -78.5 48.5t-34.5 70.5
q0 26 13 63t49 123t71.5 174.5t82.5 217.5q8 24 43.5 148t65.5 178.5t76 54.5q13 0 25 -6q13 -6 34 -20t31 -19q3 -2 30 -15t40 -23.5t13 -23.5q0 -7 -10.5 -37t-13.5 -55q49 46 127 92.5t129 46.5q46 0 81 -40t44 -99z" />
    <glyph glyph-name="afii10085" unicode="&#xf3;" horiz-adv-x="908" 
d="M430 285l9 2q90 164 137 263t117 252.5t97 196.5q28 42 56 42q20 0 60 -32q40 -31 73 -75q31 -43 31 -76q0 -46 -71.5 -182.5t-159.5 -279.5q-88 -142 -142 -222q-50 -73 -129 -177q-79 -103 -170 -204.5t-174 -169.5t-137 -68q-48 0 -89 74.5t-41 116.5q0 20 26 38
q27 18 76 51q50 32 120.5 97.5t159.5 176.5q-73 22 -105 44t-41 52q-8 29 -8 90q0 106 20 285.5t57 314.5q38 135 89 135q40 0 95 -23t93.5 -58t38.5 -68q0 -31 -36 -195q-46 -196 -52 -401z" />
    <glyph glyph-name="afii10085" unicode="&#x443;" horiz-adv-x="908" 
d="M430 285l9 2q90 164 137 263t117 252.5t97 196.5q28 42 56 42q20 0 60 -32q40 -31 73 -75q31 -43 31 -76q0 -46 -71.5 -182.5t-159.5 -279.5q-88 -142 -142 -222q-50 -73 -129 -177q-79 -103 -170 -204.5t-174 -169.5t-137 -68q-48 0 -89 74.5t-41 116.5q0 20 26 38
q27 18 76 51q50 32 120.5 97.5t159.5 176.5q-73 22 -105 44t-41 52q-8 29 -8 90q0 106 20 285.5t57 314.5q38 135 89 135q40 0 95 -23t93.5 -58t38.5 -68q0 -31 -36 -195q-46 -196 -52 -401z" />
    <glyph glyph-name="afii10086" unicode="&#xf4;" horiz-adv-x="1407" 
d="M1006 903l6 -4q59 38 135.5 75.5t116.5 37.5q36 0 74 -32.5t64 -97t26 -155.5q0 -111 -60 -241t-157 -248q-97 -117 -202 -190q-104 -73 -185 -73q-71 0 -95 85q-33 -88 -70 -185q-37 -96 -71 -170q-34 -73 -72 -122q-39 -48 -75 -48q-24 0 -41 14q-17 15 -34.5 44
t-25.5 40q-5 8 -23 25q-17 18 -25 29q-8 12 -8 26q0 33 57.5 152t90.5 168q-105 -46 -149 -46q-47 0 -99 53q-52 51 -88 127q-35 75 -35 138q0 100 66 222t164.5 233t194.5 183q97 71 149 71q29 0 58 -29.5t42 -66.5q32 78 71.5 190t61.5 150q23 39 56 39q25 0 68 -25
q43 -24 78 -56.5t35 -51.5q0 -71 -99 -261zM809 266q78 27 153 102.5t124 168.5q47 92 47 160q0 34 -25 34q-35 0 -94 -47q-58 -48 -90 -88q-30 -84 -50.5 -145.5t-32.5 -96t-32 -88.5zM682 735q-77 -40 -155 -114t-129 -158q-50 -84 -50 -151q0 -24 11 -37t22 -13
q44 0 154 80q48 125 80 216.5t67 176.5z" />
    <glyph glyph-name="afii10086" unicode="&#x444;" horiz-adv-x="1407" 
d="M1006 903l6 -4q59 38 135.5 75.5t116.5 37.5q36 0 74 -32.5t64 -97t26 -155.5q0 -111 -60 -241t-157 -248q-97 -117 -202 -190q-104 -73 -185 -73q-71 0 -95 85q-33 -88 -70 -185q-37 -96 -71 -170q-34 -73 -72 -122q-39 -48 -75 -48q-24 0 -41 14q-17 15 -34.5 44
t-25.5 40q-5 8 -23 25q-17 18 -25 29q-8 12 -8 26q0 33 57.5 152t90.5 168q-105 -46 -149 -46q-47 0 -99 53q-52 51 -88 127q-35 75 -35 138q0 100 66 222t164.5 233t194.5 183q97 71 149 71q29 0 58 -29.5t42 -66.5q32 78 71.5 190t61.5 150q23 39 56 39q25 0 68 -25
q43 -24 78 -56.5t35 -51.5q0 -71 -99 -261zM809 266q78 27 153 102.5t124 168.5q47 92 47 160q0 34 -25 34q-35 0 -94 -47q-58 -48 -90 -88q-30 -84 -50.5 -145.5t-32.5 -96t-32 -88.5zM682 735q-77 -40 -155 -114t-129 -158q-50 -84 -50 -151q0 -24 11 -37t22 -13
q44 0 154 80q48 125 80 216.5t67 176.5z" />
    <glyph glyph-name="afii10087" unicode="&#xf5;" horiz-adv-x="826" 
d="M645 537q40 -191 67.5 -289t27.5 -115q0 -41 -20 -63q-21 -21 -68 -55q-18 -14 -39 -31q-21 -16 -42 -27q-21 -10 -42 -10q-37 0 -55 27q-18 28 -24 63q-5 35 -11 105q-14 125 -25 182q-49 -59 -79.5 -94t-43.5 -52t-51 -73q-1 -1 -25.5 -42.5t-42.5 -58.5
q-18 -19 -43 -19q-29 0 -69.5 28t-70.5 67.5t-30 73.5q0 24 13 55t52.5 83t119.5 137.5t188 191.5q-29 80 -39.5 110.5t-15.5 44.5q-13 36 -33.5 75t-20.5 52q0 30 28.5 72.5t67.5 74.5t66 32q44 0 74 -41q31 -41 52 -102q22 -62 42 -122q141 130 200.5 172.5t88.5 42.5
q34 0 47.5 -28t26.5 -78q7 -26 16 -52q9 -25 12.5 -37.5t3.5 -25.5q0 -28 -28.5 -54t-119.5 -95q-92 -68 -155 -125z" />
    <glyph glyph-name="afii10087" unicode="&#x445;" horiz-adv-x="826" 
d="M645 537q40 -191 67.5 -289t27.5 -115q0 -41 -20 -63q-21 -21 -68 -55q-18 -14 -39 -31q-21 -16 -42 -27q-21 -10 -42 -10q-37 0 -55 27q-18 28 -24 63q-5 35 -11 105q-14 125 -25 182q-49 -59 -79.5 -94t-43.5 -52t-51 -73q-1 -1 -25.5 -42.5t-42.5 -58.5
q-18 -19 -43 -19q-29 0 -69.5 28t-70.5 67.5t-30 73.5q0 24 13 55t52.5 83t119.5 137.5t188 191.5q-29 80 -39.5 110.5t-15.5 44.5q-13 36 -33.5 75t-20.5 52q0 30 28.5 72.5t67.5 74.5t66 32q44 0 74 -41q31 -41 52 -102q22 -62 42 -122q141 130 200.5 172.5t88.5 42.5
q34 0 47.5 -28t26.5 -78q7 -26 16 -52q9 -25 12.5 -37.5t3.5 -25.5q0 -28 -28.5 -54t-119.5 -95q-92 -68 -155 -125z" />
    <glyph glyph-name="afii10088" unicode="&#xf6;" horiz-adv-x="1032" 
d="M527 103h-7q-51 -52 -120.5 -85t-122.5 -33q-87 0 -151.5 80.5t-64.5 192.5q0 58 19 127t48 139q29 71 66.5 143t55.5 107q72 138 114 198t103 60q34 0 72.5 -22.5t65 -53.5t26.5 -53q0 -16 -9 -35q-9 -18 -40 -71q-32 -52 -60 -105q-27 -53 -66 -134.5t-71.5 -161
t-32.5 -109.5q0 -41 60 -41q22 0 42.5 13.5t58.5 52t52 53.5q43 128 99 273.5t127.5 274t128.5 128.5q15 0 29.5 -6t25.5 -15t21.5 -19.5l19.5 -19.5q28 -24 42.5 -40t14.5 -38q0 -11 -5 -23.5t-20 -45.5l-40 -88q-25 -54 -74 -164q-117 -275 -117 -326q0 -18 21 -18
q31 0 45.5 6t30.5 6q28 0 52.5 -24t24.5 -76q0 -37 -18 -95.5t-82 -228.5q-32 -85 -72 -129.5t-135 -44.5q-45 0 -77.5 25t-32.5 52q0 20 6 34t26.5 51.5t39.5 82.5t34 101q-58 -19 -76 -19q-28 0 -53 29q-24 28 -24 95z" />
    <glyph glyph-name="afii10088" unicode="&#x446;" horiz-adv-x="1032" 
d="M527 103h-7q-51 -52 -120.5 -85t-122.5 -33q-87 0 -151.5 80.5t-64.5 192.5q0 58 19 127t48 139q29 71 66.5 143t55.5 107q72 138 114 198t103 60q34 0 72.5 -22.5t65 -53.5t26.5 -53q0 -16 -9 -35q-9 -18 -40 -71q-32 -52 -60 -105q-27 -53 -66 -134.5t-71.5 -161
t-32.5 -109.5q0 -41 60 -41q22 0 42.5 13.5t58.5 52t52 53.5q43 128 99 273.5t127.5 274t128.5 128.5q15 0 29.5 -6t25.5 -15t21.5 -19.5l19.5 -19.5q28 -24 42.5 -40t14.5 -38q0 -11 -5 -23.5t-20 -45.5l-40 -88q-25 -54 -74 -164q-117 -275 -117 -326q0 -18 21 -18
q31 0 45.5 6t30.5 6q28 0 52.5 -24t24.5 -76q0 -37 -18 -95.5t-82 -228.5q-32 -85 -72 -129.5t-135 -44.5q-45 0 -77.5 25t-32.5 52q0 20 6 34t26.5 51.5t39.5 82.5t34 101q-58 -19 -76 -19q-28 0 -53 29q-24 28 -24 95z" />
    <glyph glyph-name="afii10089" unicode="&#xf7;" horiz-adv-x="914" 
d="M602 594q33 109 56.5 177t36.5 106q29 85 51 124q22 40 65 40q27 0 72 -22.5t79 -52.5t34 -54q0 -29 -31.5 -108t-46.5 -128q-35 -112 -62 -200q-28 -87 -46 -152q-17 -65 -27 -127q-7 -51 -12.5 -93t-14.5 -75q-9 -35 -26 -58.5t-46 -23.5q-16 0 -34 8q-17 8 -37 21
t-35 24q-22 14 -46 30q-23 16 -36.5 35.5t-13.5 51.5q0 37 27 105t39 112q-148 -74 -206 -74q-52 0 -98 45q-45 45 -72.5 108.5t-27.5 115.5q0 48 20 104t92 229q21 51 35 82q15 31 40 59q26 27 58 27q47 0 114 -39t67 -77q0 -13 -7 -33t-24 -57t-53 -115q-55 -125 -55 -156
q0 -16 5 -23q6 -8 23 -8q27 0 70.5 23.5t72.5 48.5z" />
    <glyph glyph-name="afii10089" unicode="&#x447;" horiz-adv-x="914" 
d="M602 594q33 109 56.5 177t36.5 106q29 85 51 124q22 40 65 40q27 0 72 -22.5t79 -52.5t34 -54q0 -29 -31.5 -108t-46.5 -128q-35 -112 -62 -200q-28 -87 -46 -152q-17 -65 -27 -127q-7 -51 -12.5 -93t-14.5 -75q-9 -35 -26 -58.5t-46 -23.5q-16 0 -34 8q-17 8 -37 21
t-35 24q-22 14 -46 30q-23 16 -36.5 35.5t-13.5 51.5q0 37 27 105t39 112q-148 -74 -206 -74q-52 0 -98 45q-45 45 -72.5 108.5t-27.5 115.5q0 48 20 104t92 229q21 51 35 82q15 31 40 59q26 27 58 27q47 0 114 -39t67 -77q0 -13 -7 -33t-24 -57t-53 -115q-55 -125 -55 -156
q0 -16 5 -23q6 -8 23 -8q27 0 70.5 23.5t72.5 48.5z" />
    <glyph glyph-name="afii10090" unicode="&#xf8;" horiz-adv-x="1327" 
d="M512 365q52 203 95.5 340.5t78 209.5t62 99t53.5 27q31 0 74 -28t74 -67q30 -38 30 -67t-40 -117q-41 -87 -74 -176q-42 -111 -59 -154.5t-23.5 -65t-6.5 -36.5q0 -31 39 -31q27 0 75 31t67 53q81 260 184 514q59 144 117 144q29 0 70.5 -32.5t72.5 -76.5q29 -44 29 -78
q0 -29 -71 -196q-91 -206 -179 -502q-12 -45 -21.5 -81t-20.5 -64.5t-27 -45t-40 -16.5q-27 0 -70 24t-75.5 57t-32.5 52q0 39 8 58q-54 -57 -124 -105q-70 -50 -121 -50q-38 0 -78 33.5t-64 75.5q-164 -109 -262 -109q-74 0 -132.5 85.5t-58.5 206.5q0 68 32 195.5
t81 260.5t100 220q50 88 87 88q23 0 68 -26q44 -25 79 -61t35 -67q0 -16 -10 -43q-9 -27 -32 -78q-22 -51 -54 -123q-111 -255 -111 -305q0 -39 53 -39q25 0 62.5 22t60.5 44z" />
    <glyph glyph-name="afii10090" unicode="&#x448;" horiz-adv-x="1327" 
d="M512 365q52 203 95.5 340.5t78 209.5t62 99t53.5 27q31 0 74 -28t74 -67q30 -38 30 -67t-40 -117q-41 -87 -74 -176q-42 -111 -59 -154.5t-23.5 -65t-6.5 -36.5q0 -31 39 -31q27 0 75 31t67 53q81 260 184 514q59 144 117 144q29 0 70.5 -32.5t72.5 -76.5q29 -44 29 -78
q0 -29 -71 -196q-91 -206 -179 -502q-12 -45 -21.5 -81t-20.5 -64.5t-27 -45t-40 -16.5q-27 0 -70 24t-75.5 57t-32.5 52q0 39 8 58q-54 -57 -124 -105q-70 -50 -121 -50q-38 0 -78 33.5t-64 75.5q-164 -109 -262 -109q-74 0 -132.5 85.5t-58.5 206.5q0 68 32 195.5
t81 260.5t100 220q50 88 87 88q23 0 68 -26q44 -25 79 -61t35 -67q0 -16 -10 -43q-9 -27 -32 -78q-22 -51 -54 -123q-111 -255 -111 -305q0 -39 53 -39q25 0 62.5 22t60.5 44z" />
    <glyph glyph-name="afii10091" unicode="&#xf9;" horiz-adv-x="1409" 
d="M901 137h-8q-46 -53 -115 -102.5t-122 -49.5q-33 0 -74 31t-68 78q-7 -4 -15 -9.5t-13 -8.5q-146 -91 -234 -91q-74 0 -132.5 85.5t-58.5 206.5q0 68 32 195.5t81 260.5t100 220q50 88 87 88q23 0 68 -26q44 -25 79 -61t35 -67q0 -16 -10 -43q-9 -27 -32 -78
q-22 -51 -54 -123q-111 -255 -111 -305q0 -39 53 -39q25 0 62.5 22t60.5 44q52 203 95.5 340.5t78 209.5t62 99t53.5 27q31 0 74 -28t74 -67q30 -38 30 -67q0 -14 -6 -34q-6 -19 -13.5 -35t-31.5 -68q-32 -73 -92 -229.5t-60 -182.5q0 -31 39 -31q27 0 71 27.5t71 56.5
q71 229 120.5 366t94.5 214.5t86 77.5q29 0 70.5 -32.5t72.5 -76.5q29 -44 29 -78q0 -27 -71 -196q-39 -86 -90.5 -223t-51.5 -179q0 -18 20 -18q4 0 35 6q18 6 39 6q28 0 54 -24.5t26 -75.5q0 -30 -16.5 -82.5t-84.5 -241.5q-28 -82 -71 -128q-42 -46 -137 -46
q-44 0 -76.5 24.5t-32.5 52.5q0 24 41 108t63 161q-41 -19 -73 -19q-42 0 -74.5 31t-32.5 91q0 8 4 36z" />
    <glyph glyph-name="afii10091" unicode="&#x449;" horiz-adv-x="1409" 
d="M901 137h-8q-46 -53 -115 -102.5t-122 -49.5q-33 0 -74 31t-68 78q-7 -4 -15 -9.5t-13 -8.5q-146 -91 -234 -91q-74 0 -132.5 85.5t-58.5 206.5q0 68 32 195.5t81 260.5t100 220q50 88 87 88q23 0 68 -26q44 -25 79 -61t35 -67q0 -16 -10 -43q-9 -27 -32 -78
q-22 -51 -54 -123q-111 -255 -111 -305q0 -39 53 -39q25 0 62.5 22t60.5 44q52 203 95.5 340.5t78 209.5t62 99t53.5 27q31 0 74 -28t74 -67q30 -38 30 -67q0 -14 -6 -34q-6 -19 -13.5 -35t-31.5 -68q-32 -73 -92 -229.5t-60 -182.5q0 -31 39 -31q27 0 71 27.5t71 56.5
q71 229 120.5 366t94.5 214.5t86 77.5q29 0 70.5 -32.5t72.5 -76.5q29 -44 29 -78q0 -27 -71 -196q-39 -86 -90.5 -223t-51.5 -179q0 -18 20 -18q4 0 35 6q18 6 39 6q28 0 54 -24.5t26 -75.5q0 -30 -16.5 -82.5t-84.5 -241.5q-28 -82 -71 -128q-42 -46 -137 -46
q-44 0 -76.5 24.5t-32.5 52.5q0 24 41 108t63 161q-41 -19 -73 -19q-42 0 -74.5 31t-32.5 91q0 8 4 36z" />
    <glyph glyph-name="afii10092" unicode="&#xfa;" horiz-adv-x="985" 
d="M345 611q22 68 59 161q-22 -2 -82 -20q-88 -27 -92 -27q-70 0 -70 68q0 26 29 123q15 47 50 73t117.5 39t231.5 13q36 0 78 -17q41 -16 70 -42t29 -52q0 -28 -45 -113q-44 -86 -76 -165q40 4 59 4q72 0 132 -40q61 -41 95.5 -101.5t34.5 -116.5q0 -89 -79.5 -186.5
t-201.5 -161.5q-121 -65 -237 -65q-55 0 -110 26.5t-90 70.5t-35 92q0 83 37 156q-7 -4 -19 -4q-13 0 -22 11q-10 12 -21 35t-29 60q-14 25 -14 47q0 35 35 62q23 17 85.5 39.5t80.5 30.5zM547 383q-36 -95 -36 -114q0 -31 22 -31q41 0 94 53q54 52 54 86q0 29 -38 29
q-36 0 -96 -23z" />
    <glyph glyph-name="afii10092" unicode="&#x44a;" horiz-adv-x="985" 
d="M345 611q22 68 59 161q-22 -2 -82 -20q-88 -27 -92 -27q-70 0 -70 68q0 26 29 123q15 47 50 73t117.5 39t231.5 13q36 0 78 -17q41 -16 70 -42t29 -52q0 -28 -45 -113q-44 -86 -76 -165q40 4 59 4q72 0 132 -40q61 -41 95.5 -101.5t34.5 -116.5q0 -89 -79.5 -186.5
t-201.5 -161.5q-121 -65 -237 -65q-55 0 -110 26.5t-90 70.5t-35 92q0 83 37 156q-7 -4 -19 -4q-13 0 -22 11q-10 12 -21 35t-29 60q-14 25 -14 47q0 35 35 62q23 17 85.5 39.5t80.5 30.5zM547 383q-36 -95 -36 -114q0 -31 22 -31q41 0 94 53q54 52 54 86q0 29 -38 29
q-36 0 -96 -23z" />
    <glyph glyph-name="afii10093" unicode="&#xfb;" horiz-adv-x="1336" 
d="M262 611q56 168 117 307q26 56 50 89.5t63 33.5q25 0 71 -17q46 -16 81.5 -43t35.5 -57q0 -11 -5.5 -26t-29.5 -63.5t-40 -82.5t-44 -100q41 4 60 4q72 0 132 -40q61 -41 95 -101q35 -61 35 -117q0 -89 -80 -186q-79 -98 -201 -162q-121 -65 -237 -65q-55 0 -110 26.5
t-91 70.5q-35 44 -35 92q0 83 37 156q-6 -4 -18 -4q-13 0 -22.5 11t-20.5 34.5t-29 60.5q-15 24 -15 47q0 35 35 62q23 17 86 39q62 23 80 31zM465 383q-37 -97 -37 -114q0 -31 23 -31q41 0 94 52.5t53 86.5q0 29 -37 29q-34 0 -96 -23zM1073 -53q-19 0 -35.5 7.5
t-39.5 24.5t-25 19q-27 14 -52.5 26t-45 33t-19.5 56q0 40 59 208t113 302q90 218 150 318t110 100q30 0 65 -29t61 -72q24 -44 24 -84q0 -16 -11.5 -37.5t-33.5 -63.5q-23 -41 -55.5 -116t-77.5 -203q-58 -163 -79 -253q-21 -89 -38 -146q-27 -90 -70 -90z" />
    <glyph glyph-name="afii10093" unicode="&#x44b;" horiz-adv-x="1336" 
d="M262 611q56 168 117 307q26 56 50 89.5t63 33.5q25 0 71 -17q46 -16 81.5 -43t35.5 -57q0 -11 -5.5 -26t-29.5 -63.5t-40 -82.5t-44 -100q41 4 60 4q72 0 132 -40q61 -41 95 -101q35 -61 35 -117q0 -89 -80 -186q-79 -98 -201 -162q-121 -65 -237 -65q-55 0 -110 26.5
t-91 70.5q-35 44 -35 92q0 83 37 156q-6 -4 -18 -4q-13 0 -22.5 11t-20.5 34.5t-29 60.5q-15 24 -15 47q0 35 35 62q23 17 86 39q62 23 80 31zM465 383q-37 -97 -37 -114q0 -31 23 -31q41 0 94 52.5t53 86.5q0 29 -37 29q-34 0 -96 -23zM1073 -53q-19 0 -35.5 7.5
t-39.5 24.5t-25 19q-27 14 -52.5 26t-45 33t-19.5 56q0 40 59 208t113 302q90 218 150 318t110 100q30 0 65 -29t61 -72q24 -44 24 -84q0 -16 -11.5 -37.5t-33.5 -63.5q-23 -41 -55.5 -116t-77.5 -203q-58 -163 -79 -253q-21 -89 -38 -146q-27 -90 -70 -90z" />
    <glyph glyph-name="afii10094" unicode="&#xfc;" horiz-adv-x="903" 
d="M263 611q55 168 116 307q26 56 50 89.5t63 33.5q25 0 71 -17q46 -16 82 -43t36 -57q0 -11 -6 -26t-29.5 -63.5t-39.5 -82.5t-44 -100q40 4 59 4q72 0 132 -40q61 -41 95.5 -101.5t34.5 -116.5q0 -89 -79.5 -186.5t-201.5 -161.5q-121 -65 -237 -65q-55 0 -110 26.5
t-90 70.5t-35 92q0 83 37 156q-7 -4 -19 -4q-13 0 -22.5 11t-20.5 34.5t-28 60.5q-15 24 -15 47q0 35 35 62q23 17 86 39q62 23 80 31zM465 383q-36 -97 -36 -114q0 -31 22 -31q41 0 94 53q54 52 54 86q0 29 -38 29q-34 0 -96 -23z" />
    <glyph glyph-name="afii10094" unicode="&#x44c;" horiz-adv-x="903" 
d="M263 611q55 168 116 307q26 56 50 89.5t63 33.5q25 0 71 -17q46 -16 82 -43t36 -57q0 -11 -6 -26t-29.5 -63.5t-39.5 -82.5t-44 -100q40 4 59 4q72 0 132 -40q61 -41 95.5 -101.5t34.5 -116.5q0 -89 -79.5 -186.5t-201.5 -161.5q-121 -65 -237 -65q-55 0 -110 26.5
t-90 70.5t-35 92q0 83 37 156q-7 -4 -19 -4q-13 0 -22.5 11t-20.5 34.5t-28 60.5q-15 24 -15 47q0 35 35 62q23 17 86 39q62 23 80 31zM465 383q-36 -97 -36 -114q0 -31 22 -31q41 0 94 53q54 52 54 86q0 29 -38 29q-34 0 -96 -23z" />
    <glyph glyph-name="afii10095" unicode="&#xfd;" horiz-adv-x="842" 
d="M465 441q-93 -2 -146 -10.5t-93 -8.5q-56 0 -56 47q0 21 10 58q4 18 9 40t15.5 41t29.5 29q11 7 29 9q19 2 72 4q52 1 85 2q29 0 52.5 -1.5t31.5 -1.5q24 0 37.5 11.5t28.5 48.5q6 12 6 29q0 38 -47 38q-22 0 -44.5 -5t-54.5 -17q-32 -11 -55 -19q-76 -24 -106 -24
q-40 0 -53 24q-13 25 -13 82q3 23 7.5 51.5t22.5 50.5t64 46q47 24 127 47q98 29 160 29q77 0 141 -43.5t100.5 -109t36.5 -128.5q0 -95 -50 -228q-50 -132 -137 -258t-198.5 -207.5t-230.5 -81.5q-117 0 -181.5 66t-64.5 160q0 44 36 90.5t130 46.5q86 0 86 -79
q0 -7 -2 -18t-2 -17q0 -25 27 -25q54 0 97 64.5t93 167.5z" />
    <glyph glyph-name="afii10095" unicode="&#x44d;" horiz-adv-x="842" 
d="M465 441q-93 -2 -146 -10.5t-93 -8.5q-56 0 -56 47q0 21 10 58q4 18 9 40t15.5 41t29.5 29q11 7 29 9q19 2 72 4q52 1 85 2q29 0 52.5 -1.5t31.5 -1.5q24 0 37.5 11.5t28.5 48.5q6 12 6 29q0 38 -47 38q-22 0 -44.5 -5t-54.5 -17q-32 -11 -55 -19q-76 -24 -106 -24
q-40 0 -53 24q-13 25 -13 82q3 23 7.5 51.5t22.5 50.5t64 46q47 24 127 47q98 29 160 29q77 0 141 -43.5t100.5 -109t36.5 -128.5q0 -95 -50 -228q-50 -132 -137 -258t-198.5 -207.5t-230.5 -81.5q-117 0 -181.5 66t-64.5 160q0 44 36 90.5t130 46.5q86 0 86 -79
q0 -7 -2 -18t-2 -17q0 -25 27 -25q54 0 97 64.5t93 167.5z" />
    <glyph glyph-name="afii10096" unicode="&#xfe;" horiz-adv-x="1391" 
d="M553 422h-39q-14 0 -43 -4q-27 -76 -96 -244q-10 -25 -33 -95t-41.5 -102.5t-48.5 -32.5q-14 0 -30.5 8.5t-39.5 25t-59 41.5q-1 0 -21 13.5t-33 24.5q-13 12 -20.5 25.5t-7.5 30.5q0 34 46.5 136t76.5 155q-12 27 -22 94q-11 63 -11 78q0 45 35 74t129 38q41 123 69 206
q28 84 51.5 126.5t51.5 42.5q36 0 79 -23q44 -24 75 -57.5t31 -60.5q0 -22 -6 -44t-30.5 -91.5t-31.5 -91.5q29 4 45 4q23 0 35 -2q38 55 121.5 139.5t169 145.5t139.5 61q34 0 69 -43t35 -84q0 -30 -20 -47q112 -5 162 -60q51 -55 51 -172q0 -130 -81 -285
q-80 -155 -210 -260q-129 -107 -266 -107q-82 0 -148 45.5t-103.5 121.5t-37.5 162q0 71 8 108zM1100 754q-70 -34 -134.5 -114t-103 -176.5t-38.5 -176.5q0 -59 41 -59q50 0 110 83q59 84 101 194.5t42 180.5q0 32 -18 68z" />
    <glyph glyph-name="afii10096" unicode="&#x44e;" horiz-adv-x="1391" 
d="M553 422h-39q-14 0 -43 -4q-27 -76 -96 -244q-10 -25 -33 -95t-41.5 -102.5t-48.5 -32.5q-14 0 -30.5 8.5t-39.5 25t-59 41.5q-1 0 -21 13.5t-33 24.5q-13 12 -20.5 25.5t-7.5 30.5q0 34 46.5 136t76.5 155q-12 27 -22 94q-11 63 -11 78q0 45 35 74t129 38q41 123 69 206
q28 84 51.5 126.5t51.5 42.5q36 0 79 -23q44 -24 75 -57.5t31 -60.5q0 -22 -6 -44t-30.5 -91.5t-31.5 -91.5q29 4 45 4q23 0 35 -2q38 55 121.5 139.5t169 145.5t139.5 61q34 0 69 -43t35 -84q0 -30 -20 -47q112 -5 162 -60q51 -55 51 -172q0 -130 -81 -285
q-80 -155 -210 -260q-129 -107 -266 -107q-82 0 -148 45.5t-103.5 121.5t-37.5 162q0 71 8 108zM1100 754q-70 -34 -134.5 -114t-103 -176.5t-38.5 -176.5q0 -59 41 -59q50 0 110 83q59 84 101 194.5t42 180.5q0 32 -18 68z" />
    <glyph glyph-name="afii10097" unicode="&#xff;" horiz-adv-x="908" 
d="M561 377l-26 -6q-34 -64 -116 -179q-83 -114 -171 -202q-89 -87 -145 -87q-34 0 -99 74q-66 75 -66 113q0 33 30 57q31 25 109 64q78 40 133 72t116 86q-90 6 -141.5 76t-51.5 155q0 97 63 179t156 141t181 91t131 32q36 0 55 -25t23 -57q42 80 98 80q15 0 29 -7
q15 -7 34 -20q20 -13 29 -18q45 -26 61.5 -40t16.5 -53q0 -37 -45 -135q-20 -45 -57.5 -174t-69.5 -261.5t-39 -195.5q-10 -90 -26.5 -140t-67.5 -50q-16 0 -99 26q-63 19 -91 36q-27 15 -27 61q0 26 7 60t30.5 116.5t35.5 130.5zM668 768q-114 -26 -181 -69t-67 -88
q0 -48 53 -48q41 0 142 54q16 50 53 151z" />
    <glyph glyph-name="afii10097" unicode="&#x44f;" horiz-adv-x="908" 
d="M561 377l-26 -6q-34 -64 -116 -179q-83 -114 -171 -202q-89 -87 -145 -87q-34 0 -99 74q-66 75 -66 113q0 33 30 57q31 25 109 64q78 40 133 72t116 86q-90 6 -141.5 76t-51.5 155q0 97 63 179t156 141t181 91t131 32q36 0 55 -25t23 -57q42 80 98 80q15 0 29 -7
q15 -7 34 -20q20 -13 29 -18q45 -26 61.5 -40t16.5 -53q0 -37 -45 -135q-20 -45 -57.5 -174t-69.5 -261.5t-39 -195.5q-10 -90 -26.5 -140t-67.5 -50q-16 0 -99 26q-63 19 -91 36q-27 15 -27 61q0 26 7 60t30.5 116.5t35.5 130.5zM668 768q-114 -26 -181 -69t-67 -88
q0 -48 53 -48q41 0 142 54q16 50 53 151z" />
    <glyph glyph-name="nonbreakingspace" unicode="&#xa0;" horiz-adv-x="432" 
 />
  </font>
</defs>
</svg>
