<?xml version="1.0" standalone="no"?>
<!DOCTYPE svg PUBLIC "-//W3C//DTD SVG 1.1//EN" "http://www.w3.org/Graphics/SVG/1.1/DTD/svg11.dtd" >
<svg xmlns="http://www.w3.org/2000/svg">
<metadata></metadata>
<defs>
<font id="lunchboxregular" horiz-adv-x="854" >
<font-face units-per-em="2048" ascent="1536" descent="-512" />
<missing-glyph horiz-adv-x="585" />
<glyph horiz-adv-x="0" />
<glyph unicode="&#xd;" horiz-adv-x="811" />
<glyph horiz-adv-x="0" />
<glyph horiz-adv-x="0" />
<glyph unicode=" "  horiz-adv-x="585" />
<glyph unicode="&#x09;" horiz-adv-x="585" />
<glyph unicode="&#xa0;" horiz-adv-x="585" />
<glyph unicode="!" horiz-adv-x="423" d="M104 1468q2 37 5.5 83t23.5 77q29 10 68 7t61 -13q4 -33 10.5 -120t11.5 -199.5t9 -238.5t7 -236.5t5 -193.5t2 -112q0 -39 4 -86t-16 -78q-10 -14 -27.5 -21t-37 -9t-35 -2h-21.5q-23 0 -34 3t-15 29q-4 39 4 79t8 79q0 33 -3 112t-6 180t-8 210.5t-8 205t-5.5 162 t-2.5 82.5zM152.5 59.5q-9.5 26.5 2 56t60.5 54.5q31 10 53.5 2t34.5 -26.5t16.5 -41t-0.5 -38.5q-8 -29 -39.5 -45.5t-60.5 -20.5q-16 -2 -36.5 15.5t-30 44z" />
<glyph unicode="&#x22;" horiz-adv-x="512" d="M106 1649q4 6 19.5 8t33 1t33 -4t19.5 -5q10 -10 13 -33t3 -51.5t-3 -58t-3 -54.5q0 -6 -14 -7t-31.5 1t-34 5t-18.5 5v6t-4 6q-6 66 -12.5 118t-0.5 63zM276 1464q4 33 3.5 67t-0.5 61.5t1 45t9 19.5q6 2 24.5 2h38t34.5 -2t20 -4q2 -2 1 -5.5t3 -5.5 q-10 -18 -11.5 -46.5t-0.5 -57.5t2 -51.5t-1 -26.5q-8 -4 -28.5 -6t-42 -2t-37 3t-15.5 9z" />
<glyph unicode="#" horiz-adv-x="1351" d="M103 1088.5q-3 23.5 1 46.5q0 -6 1 -6.5t2.5 3t1.5 6.5t-3 1q14 10 32 9t32 3l55 4q31 2 61.5 3t59.5 1q2 25 3 48.5t1 47.5q2 53 3 107.5t1 107.5q0 41 1 81t-5 81q25 14 56.5 12t60.5 -2q20 0 53 5.5t47 -15.5q0 -119 -7 -236.5t-17 -234.5q29 -2 55.5 -2h52.5 q41 0 80 -1t78 -3l-8 219q-4 57 0 117q0 10 -2 28.5t-2 39t4 36t16 19.5q23 10 51.5 11t53.5 1q14 0 29.5 1t29.5 -2t23.5 -11t9.5 -27q0 -47 -5 -95t-8 -95q-2 -49 -1 -98.5t1 -100.5v-25.5t-2 -25.5l125 -4q29 0 56.5 -1t56.5 5q10 -25 8 -56.5t0 -60.5q0 -20 3 -53 t-11 -47q-61 0 -123 4t-125 12q-2 -39 -3 -77t-1 -74q0 -27 1 -51.5t1 -51.5l70 6h42t40 -2q6 0 19 2t27.5 2t25 -3t14.5 -15q6 -25 7 -53.5t1 -53.5v-30.5t-1 -29.5t-7 -22.5t-19 -9.5q-35 2 -66.5 6.5t-64.5 6.5q-20 2 -39.5 1t-40.5 -1v-57.5t-2 -57.5q-4 -41 -4 -82 t2 -82t4 -87t-8 -87q2 12 -1 10t-7 -8t-5 -12t5 -4q-33 -18 -76 -21.5t-78 -3.5q-18 14 -24 36.5t-7 48.5t2 51.5t5 45.5q8 78 10 158l4 160q-41 4 -80 6t-80 2q-37 0 -73.5 -2t-71.5 -4q0 -74 2 -147.5t4 -145.5q2 -29 3 -56.5t1 -56.5q2 -18 5 -44.5t-3 -43.5 q-6 -16 -31.5 -14t-35.5 4q-23 0 -45.5 -4t-44.5 0q10 -2 -0.5 6t-8.5 2q-10 18 -8 43t-2 47l-4 78q-2 51 -3 101.5t-1 101.5v64.5t-2 64.5q-41 2 -80 0q-31 -2 -61.5 -5t-59.5 7q8 -2 6 2t-7 8t-9 5t0 -7q-14 33 -15 76t-4 80q10 18 25.5 24t34 7.5t36 -1l31.5 -4.5 q27 -4 52.5 -6t52.5 -6v102q0 49 1 98.5t3 98.5q-23 -2 -45.5 -3t-44.5 -1q-20 -2 -38.5 -3t-39.5 -1q-12 -2 -30.5 -5t-30.5 3q-10 6 -9.5 31.5t0.5 35.5q2 23 -1 46.5zM356 6l2 -2q-2 0 -2 2zM510 680h45q66 -2 131.5 -1t130.5 5q2 72 1 141.5t-3 141.5q-59 8 -116.5 12 t-116.5 8h-26.5t-27.5 2q-6 -76 -11 -150.5t-7 -150.5v-8zM985 33l2 2zM987 39v4v-4z" />
<glyph unicode="$" horiz-adv-x="1024" d="M104 287q-4 27 4.5 41t22.5 20t34.5 6h41.5q39 -2 64.5 -5t41.5 -44q18 -55 57.5 -100t96.5 -49q4 117 5 249t1 242q-25 29 -50.5 54.5t-51.5 52.5q-45 43 -89 101t-79 123.5t-56.5 134.5t-23.5 134q-2 76 21.5 136.5t59.5 105.5t80 75.5t80.5 49t61.5 26t25 2.5l-2 130 q39 2 71 4q29 2 51.5 2t24.5 2q4 -8 8 -31t6 -47q2 -29 2 -64q12 -2 25 -6q10 -4 23.5 -6t25.5 -6q76 -23 128 -79t77 -134q10 -33 12 -64.5t-7 -57t-31.5 -41t-63.5 -11.5q-45 4 -64.5 16.5t-17.5 53.5q4 61 -22.5 104t-73.5 41q4 -63 3 -132t-3 -138.5t-4.5 -139 t-0.5 -133.5v-57v-29q43 -49 77 -85t61.5 -66.5t48 -59t39.5 -63.5q25 -47 43 -93t27.5 -92.5t5 -92.5t-28.5 -95q-51 -100 -146 -145q-16 -10 -32.5 -14.5t-30.5 -8.5q-16 -4 -31 -4q-2 -16 -2 -33v-63q2 -51 -18.5 -82t-75.5 -31t-77.5 11.5t-14.5 70.5q2 16 4 32.5 t2 33.5v34q-10 -2 -20 0q-10 0 -21.5 2t-24.5 7q-59 16 -108 47.5t-90 79.5q-35 35 -64.5 81t-36.5 97zM296 1269.5q-11 -63.5 34 -163.5q2 -4 21.5 -34t43 -63.5t46 -59t28.5 -17.5q-6 59 -5 122.5t3 128t2 128t-8 123.5q-10 -2 -49 -15.5t-72 -49.5t-44 -99.5zM621 145 q20 8 43 19q16 8 34.5 19.5t28.5 21.5q45 51 36 112.5t-38 113.5t-59.5 85t-30.5 31q0 -57 -1 -105.5t-3 -94.5t-5 -95.5t-5 -106.5z" />
<glyph unicode="%" horiz-adv-x="1767" d="M109 1128q-10 86 2 172t45.5 154t86 112t119.5 48q14 2 26.5 2h27.5q70 4 129 -37t103 -109.5t72 -156.5t34 -178.5t-11.5 -173t-62.5 -141t-121.5 -85.5t-187.5 -2q-68 14 -115 55t-78 96.5t-47 120t-22 123.5zM260 1130q0 -4 1 -10t1 -10v12q2 -25 9.5 -59.5t22.5 -68 t38.5 -59.5t60.5 -34q59 -12 98 10.5t61.5 64.5t31 94t4.5 95q-4 39 -12.5 84t-28 85t-51 68t-80.5 32q-51 4 -82 -27t-48.5 -77t-21.5 -99t-4 -94q0 -4 1 -7.5t1 -7.5q0 4 -1 5t-1 3zM514 -12q-2 33 5 59.5t17.5 51t22.5 50t23 54.5q6 18 29.5 82.5t58.5 160t75.5 211 t82.5 236.5t82 236.5t72 209t51.5 155.5t21.5 79q2 31 11 63.5t46 36.5q16 2 41 3t51.5 0t49 -5t34.5 -16l-22 -69q-21 -68 -56.5 -180t-82 -255t-95.5 -294.5t-96 -299t-86 -266.5t-64.5 -199t-29.5 -96q-8 -25 -49 -33t-87.5 -6t-80 11t-25.5 20zM1052.5 644 q12.5 112 62.5 189.5t140.5 103t231.5 -35.5q78 -43 116.5 -108.5t52 -144.5t7.5 -163t-14 -159q-10 -86 -52.5 -153t-104.5 -102.5t-138 -33.5t-152 53q-53 37 -93 129t-54.5 202.5t-2 222.5zM1206 528q-2 -41 1 -93t16.5 -101t43 -87t81.5 -46q35 -6 59.5 13t40.5 51 t24.5 68t12.5 62.5t5 37.5t1 -7q0 4 1 9t1 9q2 12 3 42t-1 66t-9 76t-23.5 72.5t-43 54t-67.5 21.5q-43 0 -71 -26.5t-44 -65.5t-22.5 -82t-8.5 -74zM1490 439q-1 7 3 40v-35q-2 -12 -3 -5z" />
<glyph unicode="&#x26;" horiz-adv-x="1286" d="M106.5 482.5q12.5 95.5 47 186.5t85 175t99.5 151q-23 55 -50.5 105.5t-50 101.5t-32.5 106.5t2 121.5q10 53 43 100t79 79.5t100 48t110 9.5q82 -10 129 -54t65.5 -105.5t13 -134.5t-29 -143.5t-61.5 -132t-83 -100.5q12 -25 31 -58.5t40.5 -72.5t45 -81t45.5 -80 q53 -92 109 -193q12 31 14 98.5t-1 140t-10 132t-13 75.5q14 2 39.5 5.5t53 3.5t51 -5.5t32.5 -19.5q14 -23 24 -99.5t11.5 -175t-12 -203t-46.5 -179.5q16 -25 36.5 -60t41 -71.5t41 -70.5t39.5 -58q14 -18 25.5 -31.5t12.5 -24t-9.5 -20.5t-38.5 -23q-49 -20 -81 -26 t-69 41t-67.5 86t-51.5 96q-35 -16 -64.5 -36.5t-64.5 -39.5q-41 -23 -85 -35t-89 -12q-172 0 -282.5 83t-159.5 214q-27 90 -14.5 185.5zM305 407q-6 -48 4 -81q12 -43 40 -76t65 -52.5t80 -25.5t84 4q47 10 95 45t77 70q-66 139 -123 252q-25 47 -49.5 94t-47 85t-41 64.5 t-28.5 32.5q-6 -6 -22.5 -35.5t-36 -73.5t-40 -97.5t-36 -105.5t-21.5 -100zM383 1317q6 -47 29.5 -90t64.5 -68q6 2 29.5 32t46 71t36 85.5t1.5 79.5q-6 16 -22.5 32t-38 25t-45 9t-44.5 -14q-37 -27 -50 -71t-7 -91z" />
<glyph unicode="'" horiz-adv-x="34" d="M-86 1624q4 16 12 22.5t19 10.5q12 -4 26.5 -3t31.5 3t33.5 2t33.5 -8q2 -20 1 -42t-1 -42q0 -31 7 -75t11 -73q2 -8 -16.5 -15t-43 -10t-47 -4t-30.5 3q-2 0 0 3t-2 -3q-6 6 -10.5 39.5t-8.5 72.5t-8 74t-8 45z" />
<glyph unicode="(" horiz-adv-x="620" d="M106 991q6 154 34 298.5t71 291.5q14 47 20.5 99.5t26.5 99.5q8 18 40 21t65.5 0t61.5 -8t28 -1q2 2 -2.5 -22.5t-11.5 -61.5t-18.5 -77.5t-19.5 -67.5q-41 -127 -63 -271q-25 -154 -35 -306t12 -306q18 -139 42 -272.5t77 -262.5q6 -16 23.5 -42.5t33 -55.5t23.5 -56.5 t-2 -43.5q-8 -12 -28.5 -18.5t-45 -7.5t-48 0t-36.5 1q-25 0 -44 25.5t-33.5 58.5t-24.5 65.5t-16 49.5q-29 66 -50.5 132t-38.5 136q-33 147 -39 299t-2 303z" />
<glyph unicode=")" horiz-adv-x="608" d="M104 1788q41 14 93.5 16t105.5 0q20 -66 50 -126t55 -122q27 -63 40 -130.5t23 -133.5q23 -156 31 -310.5t-6 -311.5q-14 -147 -42 -285.5t-87 -278.5q-8 -18 -16.5 -43.5t-21 -49t-29.5 -41t-42 -19.5q-20 -2 -50 -1t-52 5q-18 2 -24.5 23.5t-2.5 35.5q20 68 32.5 110 t24 77t21.5 74.5t29 103.5q33 119 46 240.5t23 244.5q8 121 -16.5 245t-44.5 245q-18 117 -62 231q-8 20 -22.5 46t-26.5 52.5t-21.5 52t-7.5 50.5z" />
<glyph unicode="*" horiz-adv-x="768" d="M106 1536q-12 27 13 45l71 45l15 14q-8 4 -14.5 6.5t-12.5 4.5l-41 18q-23 12 -18 35q4 29 11 56.5t22 56.5q8 18 30 12l45 -14l25 -7h2l4 2q10 35 10 62q-2 10 -2 20.5t8 20.5q4 0 7.5 2t7.5 2l121 12q8 2 20 2q23 -2 27 -26q0 -20 -2 -29q-4 -18 0 -35.5t10 -34.5 q8 -4 13 -1t9 7l54 39q23 18 43 -2t38.5 -40.5t34.5 -43.5t0 -43q-8 -10 -16 -17t-18 -15l-33 -25q-6 -4 -17 -18q20 -23 50 -29q12 -4 24 -12q23 -16 10 -39q-10 -23 -18 -44.5t-25 -41.5q-10 -14 -19 -17.5t-26 4.5q-16 6 -30.5 14.5t-30.5 18.5l-31 15q-8 -4 -8 -8.5 v-8.5q-2 -20 -3 -38.5t-1 -39.5q0 -35 -31 -37q-29 -4 -54.5 -6t-53.5 -4q-23 0 -23 23q-2 18 -2 35.5v35.5q-10 0 -12 -2q-12 -10 -25.5 -20t-23.5 -21q-23 -23 -32 -18.5t-24 25.5q-16 23 -32.5 44t-32.5 44z" />
<glyph unicode="+" horiz-adv-x="884" d="M104 793q0 20 17.5 30.5t40 14.5t45 4h37.5q23 0 42 1t36 3q16 2 30 2q-6 59 -10 110q-4 43 -2 81t16 48q33 20 60.5 22.5t46.5 -3.5q23 -8 39 -25q4 -49 6 -90q2 -35 3 -70.5t-1 -52.5q0 -10 35 -14t80 -4t88 2t55 2q4 -10 8 -39t4 -59.5t-5 -56t-17 -27.5 q-53 -10 -119 -12.5t-117 -0.5q8 -47 6 -96t2 -98q2 -31 -3 -44t-15 -17.5t-26.5 -4.5t-36.5 -2q-16 -2 -31 -5t-27 -1t-19 11.5t-7 33.5q0 27 -1.5 60.5t-1.5 64.5t-1 57.5t-1 40.5q-59 -6 -127.5 -3t-121.5 -3q-4 35 -6.5 69t-0.5 71z" />
<glyph unicode="," horiz-adv-x="397" d="M104 123q2 20 15.5 36.5t33 26t42 10.5t43.5 -12q16 -14 33.5 -35.5t21.5 -58.5q2 -31 -8.5 -64.5t-38.5 -52.5q-8 -4 -28.5 -16t-37.5 -8q-4 8 -9 18.5t-3 16.5q8 4 14 6t23 8q27 12 31 49q-23 -14 -46.5 -13t-43 13t-32 31.5t-10.5 44.5z" />
<glyph unicode="-" horiz-adv-x="884" d="M102 649q2 31 1 61.5t-1 63.5q0 25 9 31q4 2 12 2l141 -4h430q16 -2 29.5 -4t30.5 -6q6 0 18 -9q6 -4 6 -22q2 -35 3 -67.5t1 -65.5q0 -39 -14 -39h-22.5t-22.5 2q-2 0 -24.5 2t-57.5 4t-75 4t-78.5 5t-69.5 4t-45 3q-12 0 -42 1t-61.5 1h-60.5h-41h-13.5t-13.5 -4 q-8 -4 -15 -1t-15 5q-4 0 -6.5 10.5t-2.5 22.5z" />
<glyph unicode="." horiz-adv-x="372" d="M102 120q2 30 21.5 54.5t54.5 28.5q-2 -2 -8 -2h6q49 6 71.5 -26t21.5 -70.5t-27.5 -67.5t-75.5 -12q-35 10 -50.5 37.5t-13.5 57.5z" />
<glyph unicode="/" horiz-adv-x="989" d="M104 -12q0 12 25 91t67 198.5t95 268t109.5 303.5t111.5 301t99 260t73 184.5t33 72.5q16 8 34.5 9t34.5 -1q23 -2 44.5 -6t36 -13t18.5 -26.5t-8 -44.5q2 -4 -3.5 -13t-1.5 -13q-2 -10 -27.5 -82t-67.5 -184.5t-93 -253t-105.5 -285t-107.5 -282.5t-95 -246.5t-70 -174 t-32 -67.5q-6 0 -26.5 -1t-44 -2t-47 -3.5t-35.5 -6.5q0 4 -6 8.5t-11 8.5z" />
<glyph unicode="0" horiz-adv-x="1060" d="M104.5 1061.5q-6.5 148.5 12.5 296.5q6 55 25.5 91t47.5 83q18 29 44 46t57 28.5t63.5 15.5t63.5 8q59 4 124.5 7t119.5 -27q27 -16 56.5 -30.5t51.5 -35.5q39 -35 65.5 -76t43 -85t24.5 -85.5t12 -74.5q10 -70 13.5 -139.5t5.5 -141.5q4 -74 9 -146.5t11 -144.5 q6 -80 3 -156.5t-9 -156.5q-6 -74 -26.5 -126t-71.5 -106q-23 -23 -53.5 -40t-66.5 -29t-71.5 -20.5t-66.5 -12.5q-61 -8 -128 2t-125 38t-102 74t-63 111q-16 63 -20 128t-13 130q-8 70 -16 138.5t-10 140.5q-4 147 -10.5 295.5zM299 1077q-2 -106 5 -210.5t11 -211.5 q2 -47 3 -105t4.5 -112.5t9.5 -99.5t18 -66q33 -23 55.5 -41t65.5 -26q43 -10 87 -14.5t89 12.5q70 29 88.5 88t18.5 127q0 86 -1 171t-12 171q-10 94 -8 188t-6 189q-4 47 -11 91t-14 91q-4 29 -16 47t-24 31q-14 14 -33 22q-74 4 -140.5 -6t-123.5 -29 q-23 -23 -36.5 -59.5t-19.5 -79.5t-8 -87t-2 -81z" />
<glyph unicode="1" horiz-adv-x="477" d="M51 1356q-2 12 18.5 48t47 78t52.5 82t34 62q10 10 33.5 13t49 0t49 -8t36.5 -9q2 -4 2 -23.5v-45v-54v-51.5q-10 -219 -12.5 -393t-0.5 -335t5.5 -328t3.5 -374q-29 -14 -75 -15t-77 11q-6 197 -7 355.5t0 309t2 308.5t-1 352q0 2 -4 -8t-12.5 -22.5t-18.5 -19.5t-24 1 q-27 12 -52.5 29.5t-48.5 36.5z" />
<glyph unicode="2" horiz-adv-x="954" d="M111 1210q-12 63 0 126t40.5 115t67.5 90t78 54q31 12 83 24.5t114.5 8.5t132 -34.5t135.5 -106.5q53 -61 69.5 -142t9.5 -162t-32 -153t-51 -117q-29 -72 -73 -134t-92 -121.5t-95 -118t-84 -123.5q-12 -23 -27.5 -47.5t-28 -51t-18.5 -54t-2 -54.5q63 -16 126.5 -16 t124 4t120 7t118.5 -7q12 -10 16.5 -34t4.5 -50.5v-52t2 -42.5q6 -4 -42 -11t-124 -12t-167 -7t-171 2t-134 14.5t-58 30.5q-6 41 -7.5 81t3.5 81q12 123 50 216t89 174t113.5 157.5t123.5 162.5q47 59 84 137t37 150q2 88 -38 157.5t-95 96.5t-111.5 -3t-89.5 -142 q-4 -12 -5 -32t-5 -37t-12 -30.5t-27 -13.5q-10 0 -34.5 -2t-50 0t-46 6t-22.5 16z" />
<glyph unicode="3" horiz-adv-x="1019" d="M103 1579q1 16 18 29q37 8 77 1t78 -5q47 4 94.5 -0.5t94.5 -1.5q92 2 183 9t183 5q10 -14 -1 -39t-17 -37q-14 -25 -31.5 -49.5t-33.5 -46.5l-74 -115q-16 -25 -30.5 -51.5t-31.5 -52.5q-14 -23 -24 -43.5t-25 -42.5q8 -10 18.5 -13.5t22.5 -9.5q2 -2 11.5 -5t18.5 -6 t17 -6t8 -5q2 -8 15.5 -11.5t23.5 -7.5q12 -8 23.5 -16t21.5 -19q12 -10 28.5 -21t19.5 -26q0 -2 2 -2t2 2q29 -45 55.5 -90t42.5 -98q8 -29 5 -55.5t1 -55.5q6 -35 12.5 -69.5t6.5 -69.5q-2 -61 -15.5 -115.5t-34.5 -113.5q-8 -23 -14 -43.5t-20 -40.5q-16 -23 -34 -44.5 t-24 -50.5q-14 -8 -20 -26q-12 -10 -23.5 -20.5t-21.5 -20.5q-12 -16 -33 -31.5t-37 -25.5q-53 -29 -105.5 -24t-107.5 13q-14 2 -33.5 10.5t-38 20.5t-33 26.5t-18.5 28.5q-14 8 -29.5 21.5t-23.5 27.5q-8 12 -23.5 25.5t-19.5 26.5q4 4 3 5t3 5q-4 4 -5 -1t-5 -3 q0 14 -10.5 22.5t-14.5 20.5q-2 10 -8 23.5t-10 23.5q-14 20 -25.5 61t-5.5 66q14 6 36.5 9t46.5 5t47.5 5t39.5 10q0 -6 1 -14.5t5 -12.5q8 -8 6 -13t0 -20q2 -23 9.5 -42t7.5 -42q16 -37 42.5 -64.5t63.5 -41.5q41 -4 72 6t55.5 31.5t43 50t34.5 59.5q39 70 45 151t-2 156 q-4 39 -10 77t-21 73q-18 45 -48 70.5t-68 50.5q-35 23 -73 36t-79 19q-23 4 -46.5 3t-45.5 1h-12.5t-18.5 2q-10 0 -22 2q-6 23 7 47.5t32 38.5q18 37 41.5 72t46.5 70t42 68.5t35 70.5q16 29 38 54.5t32 57.5q-61 -10 -123 -12q-27 -4 -53.5 -9t-52.5 -1q-20 2 -44 -2 t-48.5 -7t-47 0t-36.5 23q6 25 3 45.5t-6.5 39t-2.5 34.5z" />
<glyph unicode="4" horiz-adv-x="1067" d="M104 555q2 25 18.5 58.5t38 70.5t42 69.5t30.5 53.5q6 10 30 58l57.5 115t71.5 143.5t72 146t59.5 124t31.5 74.5q4 10 12 29t19.5 37t23 33.5t21.5 19.5q6 2 23.5 4t38 0t40 -6t29.5 -10q0 4 6 2q0 -2 1 -4t1 -6q4 -4 4 -11h-2q6 -35 10 -106.5t7.5 -151t4.5 -153.5 t3 -115q0 -25 1 -65.5t1 -82.5v-76v-44q-2 -16 -6.5 -32.5t0.5 -33.5q14 -2 35.5 1t43 4t42 0t32.5 -11q18 -16 14 -33.5t1 -38.5q0 -6 2 -17t1 -21.5t-5.5 -17.5t-16.5 -7q-10 0 -32.5 3t-48 3t-46 -3t-24.5 -13q-4 -8 -6.5 -43t-4.5 -84t-3 -105.5t-2 -107.5t-1 -91v-55 q2 -31 -8 -39t-39 -14q-29 -4 -55.5 -5t-55.5 -1q-6 4 -7 9t-5 9q0 25 1 93.5t4 149.5t5 161t7 127q-23 0 -71 -2t-107.5 -3t-121 -1t-111.5 1t-81 4t-25 7zM365 684h131.5t130.5 6q6 23 9 72t4 109.5t1 126t-1 122t-4 96t-5 52.5q-6 -16 -14.5 -28.5t-16.5 -27.5 q0 -2 -1 -2t-1 -2q-2 -2 -2 -4q-10 -18 -30.5 -63t-47 -102.5t-54.5 -120t-50.5 -113.5t-36.5 -86t-12 -35z" />
<glyph unicode="5" horiz-adv-x="960" d="M104 381q0 12 40 22.5t89.5 16.5t91.5 5t46 -9q-2 -23 -1 -46.5t3 -45.5q4 -57 34.5 -91t86.5 -24q61 4 91.5 49t44 103.5t13.5 120v98.5q0 39 -5 90t-17.5 101t-32 96t-45.5 75q-29 31 -66 47.5t-78 22.5t-80.5 3t-72.5 -14q-10 -4 -22.5 -8t-23 -5t-18.5 3t-10 17 q-4 14 -8 74.5t-8 136t-8.5 150.5t-6.5 118q-2 27 -3 49.5t5.5 37.5t22.5 23.5t49 6.5q14 -2 46 -3.5t74 -2.5t91 -2t98 -1q113 -2 250 -2q6 -31 8 -59q2 -25 0 -52.5t-12 -45.5q-86 -10 -172 -4t-172 4h-34.5t-37.5 -4q-31 -4 -26.5 -26t8.5 -46l20 -158q70 -4 132.5 -7 t118 -23.5t104.5 -66.5t92 -132q29 -59 37 -123t14 -129q4 -57 3 -133t-12 -157t-34 -157.5t-61.5 -138t-96 -98.5t-137.5 -37q-90 0 -155.5 23.5t-112.5 66.5t-79 105.5t-52 140.5q-4 10 -9.5 22.5t-3.5 22.5z" />
<glyph unicode="6" horiz-adv-x="954" d="M103 914.5q1 111.5 11.5 217t34 197.5t62.5 160q47 80 133 106.5t172 3.5q37 -10 74 -26.5t70.5 -39t61.5 -52t44 -64.5q14 -29 21.5 -64.5t11.5 -68.5q2 -10 1 -26.5t-16 -20.5q-6 -2 -36.5 -6t-66.5 -5t-63.5 4t-27.5 23q2 55 -23.5 99.5t-79.5 62.5 q-53 18 -85.5 -21.5t-50 -100t-22.5 -125t-5 -97.5q20 16 44.5 31.5t56.5 25t72 8.5t93 -18q27 -8 57.5 -27.5t58 -44t51 -53t34.5 -53.5q47 -109 57 -238t-14.5 -253.5t-83 -235.5t-150.5 -180q-20 -14 -59 -23.5t-85 -8.5t-94.5 14.5t-87.5 45.5q-63 53 -93.5 118 t-41.5 143q-8 74 -17 170t-14.5 203.5t-4.5 219zM313 464q-2 -71 12.5 -133.5t51.5 -99t117 -12.5q55 18 88.5 84t49 145.5t15.5 157.5t-12 121q-35 127 -90.5 160t-108.5 -1t-90 -118t-33 -190q2 -43 0 -114z" />
<glyph unicode="7" horiz-adv-x="1050" d="M103 1620q-1 12 4.5 22.5t21.5 14.5q29 10 57.5 7t59.5 -1q41 4 78.5 6t78.5 0q74 0 149 -3t150 1q31 4 60 4t59 -2q23 -2 48.5 0t43.5 -8q18 -12 20.5 -35.5t10.5 -40.5q10 -31 -9.5 -49t-39.5 -33q-53 -39 -91 -90t-85 -92q-20 -39 -45 -73t-41 -72q-35 -80 -62 -166 q-27 -80 -39 -162t-22 -166q-10 -86 -20.5 -168t-12.5 -168q-2 -41 -3 -83t1 -83q0 -16 5 -36.5t8.5 -42t3.5 -41t-11 -33.5q-20 -10 -42.5 -9.5t-41.5 -9.5q-16 -10 -38.5 -9t-41.5 5q-12 10 -19 32.5t-5 39.5q2 10 2 18t-4 17q-6 10 -4 20t0 25q-4 23 -1 47t3 49v18.5 t-8 18.5q8 10 8 23.5t2 25.5q8 104 17 204.5t26 205.5l14 100q4 27 5 53.5t12 50.5q23 51 37 103.5t32 103.5q10 23 20.5 43.5t20.5 40.5q14 25 24.5 51.5t26.5 48.5q14 18 24.5 39t20.5 43q12 23 29.5 39.5t28.5 38.5q-59 2 -119.5 1t-122.5 1h-61.5t-61.5 2 q-29 0 -59.5 -1t-59.5 7q-20 6 -23 22.5t-7 33.5q-2 12 -6.5 25.5t-5.5 25.5z" />
<glyph unicode="8" horiz-adv-x="1040" d="M105.5 533.5q9.5 89.5 33.5 187.5q10 39 19.5 84t25 87t40 79t61.5 59q-43 33 -65.5 79t-29 97t0 103.5t22.5 99.5q16 49 49 88t76 64.5t92 36t102 4.5q47 -4 93.5 -15.5t87.5 -34.5q47 -25 69.5 -65.5t44.5 -85.5q25 -45 20 -103.5t-16 -105.5q-10 -47 -28.5 -91 t-59.5 -73q88 -47 131.5 -123t55.5 -165t3 -183t-24 -178q-6 -43 -21.5 -83t-35.5 -79q-16 -31 -35.5 -68.5t-46.5 -60.5q-23 -20 -48.5 -40.5t-53.5 -35.5q-29 -16 -57.5 -13t-61.5 5q-41 0 -79 8t-79 19q-6 2 -23.5 9t-36 16.5t-32.5 19.5t-10 16q-16 0 -29.5 12.5t-26 29 t-22.5 32.5t-18 29q-10 16 -19.5 30.5t-21.5 28.5l-29 92q-27 98 -17.5 187.5zM289 403q4 -55 20.5 -111t63.5 -91q53 -39 120.5 -38t118.5 40q53 39 71.5 104.5t29.5 124.5q0 4 5 22.5t9 39.5l12 53q-4 2 -1 11t5 20.5t2 21.5t-8 16q4 2 4 17.5t-2 33t-4 34t-2 20.5 q-6 33 -15 62.5t-32 56.5q-47 59 -112.5 74.5t-135.5 -15.5q-35 -16 -57.5 -44t-35.5 -60.5t-22.5 -69.5t-15.5 -70q-10 -61 -16 -124.5t-2 -127.5zM356 1320q-4 -38 10.5 -73t42 -64.5t61.5 -43t71 -8t67 37.5q20 25 33.5 56.5t15.5 65.5t-7 67t-32 57q-41 45 -106 41 q-20 0 -37.5 -2t-34.5 -14q-14 -12 -25.5 -25.5t-23.5 -25.5q-31 -31 -35 -69z" />
<glyph unicode="9" horiz-adv-x="933" d="M104.5 1183.5q-0.5 110.5 26.5 213.5q10 39 32.5 77.5t54.5 69.5t70 52.5t79 29.5q47 10 94 14.5t90 -2t82 -26t74 -53.5q45 -47 71.5 -141.5t38.5 -214.5t12 -255t-7 -265t-20.5 -242.5t-27.5 -188.5t-61 -133.5t-111.5 -89t-139.5 -33.5t-149 35q-35 23 -66.5 52.5 t-51.5 66.5q-29 47 -51.5 95t-22.5 103q4 4 26.5 10.5t50 11.5t53 10t36.5 7q12 -10 19 -29.5t15.5 -44t16.5 -49t22 -41.5q33 -39 80 -48t90 20q31 20 51.5 77.5t32 124t12.5 128t-10 89.5q-27 -6 -51 -15t-48.5 -16.5t-51.5 -10.5t-55 3q-96 23 -161.5 71t-96.5 120 q-18 51 -25.5 100t-11.5 103q-10 104 -10.5 214.5zM285 1200q-6 -74 1 -145.5t27.5 -134t51.5 -99.5q29 -33 72.5 -45t84.5 2q43 16 66 51q16 20 25.5 67.5t13.5 100t5 99.5t1 69q0 45 -4 97.5t-19.5 97.5t-46.5 75.5t-86 34.5q-59 0 -100 -37.5t-63.5 -98t-28.5 -134.5z " />
<glyph unicode=":" horiz-adv-x="389" d="M106 735q10 27 31 43.5t47 22.5q2 0 2 -1t2 -1q-2 0 -2 2h2q20 4 40 -10.5t28 -30.5q10 -23 5 -50.5t-23 -43.5q-6 -8 -20.5 -17.5t-24.5 -11.5q-39 -2 -68 27.5t-19 70.5zM124 51q-9 41 9 70q16 29 51 37t60 -17q14 -14 26.5 -40.5t10.5 -53.5l4 4v-2q0 -4 -3 -13 t-6 -11q-14 -29 -51 -37t-63 6q-29 16 -38 57zM182 801h6h-6z" />
<glyph unicode=";" horiz-adv-x="380" d="M105.5 95.5q3.5 19.5 13.5 35.5q16 27 40.5 32t48 -4t42 -29.5t24.5 -47.5q4 -23 1 -50.5t-11 -47.5q-8 -23 -22 -41q-10 -14 -24 -25.5t-30 0.5q-2 18 6.5 31.5t18.5 26t18.5 25.5t4.5 36q-14 -10 -31 -22.5t-45 -8.5q-20 4 -33.5 18.5t-19 33t-2 38zM106 698 q-4 16 4.5 43t22.5 39q16 10 41 12.5t41 -1.5q31 -10 43 -40t2 -59q-10 -33 -41 -49q-12 -6 -32.5 -10t-34.5 2q-14 4 -26.5 21.5t-12.5 21.5z" />
<glyph unicode="&#x3c;" horiz-adv-x="768" d="M104 873.5q-2 23.5 13 44.5q72 98 140.5 197t135.5 204q23 37 46.5 76t58.5 69q20 18 40.5 17.5t41 -12t41 -27t43.5 -25.5q2 -8 -23 -48t-62.5 -97.5t-82.5 -123t-84 -123.5t-64.5 -102t-25.5 -57q0 -12 20 -53t52 -95t70 -115.5t72.5 -116t62.5 -94.5t40 -52 q-2 -6 -10 -20.5t-19.5 -32t-24 -31.5t-18.5 -20q-29 -25 -52 -12.5t-46 36.5q-18 20 -46 60t-58.5 87.5t-61.5 99.5t-58.5 98t-49 81t-29.5 51q-10 18 -24.5 41t-25 47.5t-12.5 48z" />
<glyph unicode="=" horiz-adv-x="1357" d="M103.5 566q1.5 27 7.5 50q8 18 24.5 24.5t33.5 7.5t35.5 -2t33.5 -5q12 -2 88.5 -1t186.5 1t234.5 1t230 -1t176.5 -5t73 -11q6 -23 7 -51.5t1 -53.5v-30.5t-1 -30t-7 -22.5t-19 -9q-98 0 -241.5 1t-297 3t-298 7t-240.5 16q-10 0 -16 17t-9.5 42t-2 52zM108.5 916.5 q-2.5 29.5 1 65.5t11.5 66.5t20 30.5q131 6 244 2t233.5 -8t267 -1.5t349.5 20.5q12 0 16 -31t2 -70t-7 -74.5t-11 -42.5q-92 0 -198.5 2.5t-239.5 4.5t-300 4t-378 2q-8 0 -10.5 29.5z" />
<glyph unicode="&#x3e;" horiz-adv-x="745" d="M102 1403q2 8 17.5 20.5t35 22.5t40 17t32.5 7q8 0 41 -45t78 -111.5t96.5 -144t94.5 -145.5t71.5 -115t30.5 -51q6 -16 2 -23.5t-2 -23.5q-18 -27 -47 -72t-60.5 -98t-65.5 -107.5t-61.5 -101.5t-47 -80t-23.5 -41q-8 -12 -17.5 -36.5t-23.5 -30.5q-18 -10 -39 -6 t-41 14t-38.5 22.5t-33.5 20.5q-4 8 14.5 48t49.5 95.5t67.5 116.5t69.5 115.5t56.5 93.5t25.5 45q6 18 -21.5 79.5t-69.5 135.5t-89 142.5t-80 103.5q-16 35 -35.5 64.5t-26.5 68.5z" />
<glyph unicode="?" horiz-adv-x="946" d="M106 1200q-4 41 5.5 89t27 92t27.5 63q43 76 107.5 122t139 57t153.5 -14t149 -91q53 -49 88 -121t39 -146q4 -121 -16.5 -212t-54.5 -158.5t-76 -116.5t-82 -88t-72.5 -73t-48.5 -71q-6 -12 -7.5 -38.5t-0.5 -55t4.5 -55.5t5.5 -41q4 -29 -8.5 -43t-33 -18.5t-45 -3 t-47.5 1.5q-43 0 -61 28.5t-22.5 68.5t3 82t15.5 70q31 98 99.5 187.5t142.5 158.5q41 39 73.5 80t46.5 97q14 59 6 118.5t-28 112.5q-16 47 -42 91t-77 57q-45 12 -91 0.5t-75 -48.5q-35 -43 -35 -88t4 -94q2 -20 -20.5 -33.5t-53 -19.5t-61 -7t-43.5 5q-31 14 -35 55z M326 104.5q14 34.5 39 49.5q23 14 51 15t49 -24q29 -37 19.5 -71.5t-35 -55t-60 -18.5t-59.5 41q-18 29 -4 63.5z" />
<glyph unicode="@" horiz-adv-x="1449" d="M107.5 503.5q7.5 100.5 27 200t43.5 189.5q16 61 47 122.5t72 116t91 99.5t108 76q55 29 120.5 45t132 17t132 -11t120.5 -39q59 -29 110.5 -75t92.5 -102.5t70 -120t43 -126.5q33 -133 29.5 -286.5t-25.5 -289.5q-8 -51 -32.5 -112.5t-63.5 -110.5t-93.5 -73.5 t-121.5 0.5q-12 4 -34 18t-43.5 29.5t-36.5 27t-17 11.5q-72 -51 -136.5 -45t-124.5 47q-78 53 -118.5 155.5t-52 220t2 234.5t46.5 199q14 37 39.5 69.5t58.5 57t69.5 39t75.5 12.5q25 -2 44.5 -10.5t32.5 -17.5t23.5 -17.5t18.5 -8.5q12 18 15.5 29.5t8.5 18t16 8.5t40 2 q39 0 61.5 -13.5t26.5 -54.5v-66.5v-141.5v-177t2 -174t6 -132t13 -50q-10 -16 -1 -38t25 -34t36.5 -9t35.5 36q14 31 24.5 95.5t17.5 135t9 133t0 90.5q-8 68 -22.5 137.5t-41 133t-69.5 115t-109 81.5q-55 25 -119.5 35t-129 3t-124 -32.5t-102.5 -72.5 q-47 -51 -79.5 -115.5t-56.5 -135.5t-40 -142.5t-29 -137.5q-12 -61 -14 -130.5t10.5 -137t39 -129t73.5 -108.5t109.5 -81t127.5 -40q35 -2 63 -6.5t48.5 -15.5t31.5 -33.5t13 -61.5q2 -25 -3 -36t-16.5 -15t-27.5 -4h-39q-33 -2 -70.5 7t-76.5 22.5t-75 29.5t-67 29 q-96 41 -156.5 109.5t-93 152.5t-41 182t-1 198.5zM655 533.5q0 -64.5 10.5 -118t33 -89t59.5 -37.5q49 41 70.5 97t28.5 118.5t4 126.5t-3 119q-2 0 -4 10t-5 24.5t-6 28.5t-9 21q-29 47 -55.5 49t-48 -27t-39 -81t-27 -114.5t-9.5 -127z" />
<glyph unicode="A" horiz-adv-x="974" d="M20 12q-2 19 -2 39q0 35 6 69q10 54 26 108.5t33 107.5t28 104q29 145 56.5 288.5t55.5 289.5q23 104 45.5 207.5t46.5 208.5q10 41 19.5 79.5t21.5 79.5q8 25 24 32q14 6 33 6h5q22 -1 45.5 -6t44.5 -3q12 -16 22.5 -71.5t17.5 -119t13 -120t8 -74.5q10 -86 23.5 -171 t30.5 -171q18 -96 36.5 -190.5t40.5 -190.5q16 -63 29 -126t27 -126q10 -52 21 -104q9 -44 9 -89v-16q0 -29 -18 -49q-16 2 -35.5 1t-41 -1t-40 2t-30.5 10q-4 14 -11.5 48t-16.5 78t-19.5 92.5t-19.5 90.5t-15.5 71.5t-6.5 37.5q-56 6 -126 8h-23q-57 0 -102 -8 q-20 -43 -29.5 -95t-20.5 -97q-8 -29 -14 -55.5t-12 -55.5q-6 -33 -10.5 -67.5t-26.5 -59.5q-14 -2 -34.5 -2h-41t-40 3t-32.5 7zM315 602q21 -3 42 -3q25 0 51 4q31 4 62 4q17 0 34 -1q-2 10 -7 51t-14.5 94.5t-20.5 114t-21.5 110.5t-19.5 82t-13 32q0 -2 -1 -2.5t-1 -2.5 q0 -6 -11.5 -59t-25 -127t-29 -155t-25.5 -142z" />
<glyph unicode="B" d="M102 367v208.5t2 208.5q1 102 1 204t-1 203v54q0 175 11 352q35 4 70.5 13.5t70.5 15.5q39 6 79 7h16q32 0 65 -3q82 -6 157 -31q33 -10 61 -39.5t46 -58.5q37 -55 45 -125q3 -28 3 -57q0 -42 -7 -84q-12 -70 -45 -132.5t-80 -105.5q4 -4 25.5 -19t52.5 -38 q29 -35 47 -72q23 -51 25 -101t2 -105q2 -92 3 -184v-10q0 -86 -16 -173q-16 -86 -60 -149.5t-134 -90.5q-45 -12 -91.5 -19t-91.5 -18q-27 -6 -51 -12t-51 -6q-30 0 -62 2q-10 1 -22 1q-21 0 -43 -3q-22 27 -22 70q1 3 1 6v30q0 29 -2 52zM289 539.5q0 -76.5 4 -153.5 t16 -165q66 8 123 13.5t90 41.5q4 4 14.5 34t21.5 74t19.5 96.5t8.5 103.5v70.5t-6.5 80.5t-19.5 77t-40 56q-52 20 -110 22q-9 0 -17 1q-50 0 -100 -12q0 -98 -2 -180.5t-2 -159zM291 1464q4 -88 6 -185t6 -167q17 -8 35 -8h8q23 2 51 6l15 3q14 3 35.5 12.5t43 23 t33.5 31.5q23 36 27 78q2 21 2 41.5t-2 41.5q-6 43 -24.5 69t-55.5 46q-35 21 -70 21q-10 1 -19 -1q-44 -8 -91 -12zM397 1110q2 0 3 1t3 1q-2 -2 -4 -2h-2z" />
<glyph unicode="C" horiz-adv-x="935" d="M102 500q2 72 4 145q1 55 1 110v56v48q-1 60 1 119q2 83 10.5 165t28.5 164q16 61 42 119.5t64 105.5t90 77.5t124 37.5q9 1 17 0q50 -1 104 -19q64 -22 118 -63t88.5 -96.5t34.5 -116.5q-41 -14 -86 -36q-35 -17 -72 -17q-10 0 -20 1q-10 18 -16 37t-13.5 37.5 t-18.5 34.5t-30 29q-38 27 -78 27l-1 -1q-40 0 -76 -28q-41 -33 -63.5 -74t-35 -86t-16.5 -93t-6 -96q-4 -121 -7 -239q-2 -70 -2 -142q0 -48 1 -96q0 -45 -1 -96v-17q0 -43 4 -85q5 -52 20.5 -99t49.5 -82q27 -29 66 -44q22 -8 43 -8q17 0 33 5q39 12 62.5 45t39.5 66 q10 20 25.5 28.5t34 8.5t39 -5.5t40.5 -7.5q16 -2 38 -4t34 -16q16 -16 3 -38.5t-23 -37.5q-25 -37 -51.5 -73.5t-58.5 -67.5t-70.5 -52.5t-86.5 -27.5q-20 -2 -40 -2q-62 0 -122 22q-80 30 -139 87q-55 53 -83 117q-26 62 -36 132q-8 57 -8 117v25z" />
<glyph unicode="D" horiz-adv-x="907" d="M104 195q0 55 4 111q2 36 2 71q0 20 -1 41q-2 42 -2 83q0 61 4 123q3 51 3 103t-3 104q-1 38 -1 76q0 66 4 133t4 133q0 38 -1 76q-1 17 -1 34q0 34 3 66.5t3 65.5q0 16 -1 33q-2 51 -3 101v7q0 47 13 93q37 16 78 18q20 1 41 1l41 -1q47 -2 93 -4t93 -8q33 -4 70 -11.5 t72.5 -19.5t66.5 -32.5t49 -49.5q23 -35 35 -73.5t18.5 -79.5t8.5 -83t4 -81q3 -46 3 -92q0 -53 -4 -107q-7 -98 -7 -197q2 -96 4 -191q1 -24 1 -47q0 -71 -5 -142q-3 -38 -3 -74v-19v-5q0 -43 -14 -85q-14 -39 -36.5 -74.5t-49.5 -68.5q-51 -66 -121.5 -84.5t-146.5 -26.5 q-16 -2 -59.5 -4t-91.5 -5t-91 -4h-26q-23 0 -35 1q-16 51 -16 97zM282 370q-2 -43 -3 -86q0 -55 4 -110q22 -3 45 -3q32 0 64 6q56 11 110 24q55 12 75.5 52t30.5 93q12 61 13.5 125t3.5 127q0 33 2 108.5t4 159.5t4 159t4 110q1 15 1 31q0 38 -4 80q-5 58 -20 112 q-14 49 -50 74.5t-80 35.5q-36 8 -75 7h-17q-48 -2 -89 -11q-4 -109 -8 -226t-10 -232q-5 -63 -4 -126q0 -48 2 -94q5 -81 5 -164q0 -28 -1 -55q-1 -99 -7 -197z" />
<glyph unicode="E" d="M102 1212q0 108 4 216q2 51 3 103q0 57 -3 114q14 12 33 17t39.5 7t41 1t38.5 1l135 6q37 2 74 3t74 1q41 2 88 2t86 -20q4 -35 4 -71t10 -70q6 -23 -1 -33t-20.5 -15.5t-31 -5.5h-33.5q-88 -2 -175 -5t-175 -9q1 -24 0 -48q0 -48 -2 -98q-4 -74 -11 -148q-6 -74 -9 -148 q-1 -20 -1 -40q0 -53 6 -104q84 0 169 14q49 8 98 7q36 0 73 -4q8 -25 10.5 -51.5t8.5 -51.5q0 -6 4 -17t6 -23.5t1 -23.5t-9 -16q-16 -10 -44 -9t-46 -1q-66 -4 -133.5 -5t-132.5 -5q-2 -26 -2 -53t2 -53q4 -54 8 -107q4 -61 7 -121.5t13 -120.5q49 -10 99.5 -13t101.5 -5 q29 -2 58.5 -2h60.5q23 0 52 2t52 -6q10 -18 14.5 -44t4.5 -53.5t-1 -54t1 -47.5q-25 -2 -77 -4t-117.5 -2h-136.5t-129.5 2t-97 3t-42.5 3q-16 39 -20.5 78t-6.5 80q-4 49 -7 99t-3 99q3 83 3 167v42q-1 105 -5 209q-4 109 -6.5 215.5t-4.5 216.5z" />
<glyph unicode="F" horiz-adv-x="751" d="M102 659q0 123 1 244t3 244v239q0 59 -1 120v8q0 57 14 110q72 8 144.5 8t144.5 4l124 6q23 2 58 7q10 1 19 1q21 0 34 -8q0 -27 1 -51t3 -51q0 -14 2 -42v-7q0 -23 -12 -31q-16 -10 -45 -9t-47 1q-63 0 -130 3q-15 1 -31 1q-51 0 -101 -8q1 -63 1 -118v-53 q-1 -77 -1 -150.5t1 -148.5t5 -165q31 -4 61.5 -1t60 5t57.5 2t54 -8q-2 -19 -2 -36q0 -26 4 -47q2 -12 2 -24q0 -24 -8 -47q-38 -7 -76 -7q-19 0 -38.5 2t-38.5 2q-38 0 -76 -7q1 -52 1 -105v-52q-1 -80 -1 -158v-83t-2 -83q-2 -23 -2 -42.5v-41.5q2 -18 5 -36.5t-1 -37.5 q-29 -4 -80 -8q-17 -1 -33 -1q-31 0 -57 5q-8 52 -8 106v21q1 32 1 63.5t-1 63.5q-4 100 -6.5 200.5t-2.5 200.5z" />
<glyph unicode="G" horiz-adv-x="956" d="M104 1024q-3 30 -3 60q0 77 14 157q6 39 13 80t30 74q51 82 141 125q94 47 190.5 47t188.5 -51q33 -18 64.5 -42t56.5 -53q10 -14 19 -29.5t13 -31.5q4 -25 -11 -37t-32 -25q-14 -10 -29.5 -22t-31.5 -19q-12 -4 -24.5 6.5t-22.5 16.5q-43 23 -79 55.5t-87 44.5 q-20 5 -41 5t-43 -5q-43 -10 -76 -37q-41 -31 -51 -77q-8 -39 -8 -79v-16q1 -27 1 -53q0 -79 -5 -158.5t-5 -157.5q0 -26 1 -52q0 -57 4 -113.5t8 -114.5q4 -53 5 -104t7 -103q4 -37 18.5 -72.5t49.5 -56.5q33 -20 75 -25q9 -1 18 -1q31 0 58 14q29 14 47.5 38t29.5 52.5 t17.5 60t10.5 60.5q8 45 21 103q6 28 6 53q0 27 -7 51q0 2 -4 6q-25 7 -49 7q-21 0 -42 -5q-29 -6 -57 -6q-17 0 -34 2q-20 2 -28.5 18.5t-10.5 36t-2 41t-2 35.5q-4 20 17.5 28.5t51 11.5t59.5 2t42 -1h60.5t60.5 4q29 4 57.5 4t56.5 -12q16 -49 16.5 -99.5t2.5 -103.5 q2 -55 3 -109v-10q0 -50 -9 -102q-6 -45 -18.5 -90t-32 -86t-50 -76t-73.5 -55q-72 -33 -161 -33h-11q-95 2 -168 37q-45 20 -78 57t-55.5 81t-38 92t-23.5 91q-21 100 -21 201v23q2 62 2 125q0 50 -1 100q-4 111 -11 217z" />
<glyph unicode="H" horiz-adv-x="952" d="M102 16q12 86 14.5 172t2.5 173.5t-1 173.5v34q0 69 3 138q4 94 9 185q4 65 4 132q0 27 -1 53q0 88 3 174t3 172q0 16 -3 42t-2 49.5t9.5 43t28.5 23.5q23 4 45.5 5t44.5 1q23 -2 35 -6t16 -33q2 -21 2 -42q0 -16 -1 -32q-3 -38 -5 -75l-4 -197q-2 -100 -3 -198v-40 q0 -79 3 -157l160 -8q40 -2 82.5 -2t87.5 2q4 109 10 217t17 217q4 49 6 98t6 99q0 12 -1 35.5t0 48t6 44t19 21.5q27 2 53.5 0t48 -13.5t35 -30.5t13.5 -50q0 -35 -1 -72t-3 -74q-8 -213 -19 -425t-22 -427q-6 -119 -9 -236.5t-12 -236.5q-36 -6 -72 -11q-20 -3 -40 -3 q-16 0 -31 2q-24 63 -24 134v16q3 80 6 151q2 84 3 166t5 164h-28q-70 0 -139 8q-42 5 -83 5t-82 -5l-12 -365q-2 -29 -2 -57.5t-4 -56.5q0 -8 -1.5 -30.5t-4.5 -47.5t-9 -45.5t-14 -24.5q-12 -2 -36 -4t-48.5 -4t-44 0t-19.5 10z" />
<glyph unicode="I" horiz-adv-x="425" d="M83 92v16q0 16 1 34q2 26 4 46q12 117 14 233l4 232q1 66 1 132q0 115 -4 229q-7 180 -15 362v58.5t2 58.5q0 10 -2 28.5t-2 39t3 36t15 19.5q25 10 53.5 11t53.5 1q13 0 29 1h8q10 0 22 -2q14 -3 23.5 -11.5t9.5 -26.5q-2 -47 -6 -94t-6 -94q-1 -34 -1 -67v-34 q1 -50 1 -98q-2 -102 -9.5 -202.5t-7.5 -202.5q0 -104 6 -206q4 -63 5 -127q0 -39 -2 -79q-4 -41 -4 -82t2 -82q2 -45 4 -93v-15q0 -40 -9 -76q-27 -18 -74.5 -23.5t-86.5 -7.5q-18 14 -24.5 37t-7.5 49z" />
<glyph unicode="J" horiz-adv-x="968" d="M104 788q39 2 74 3h54.5t35.5 -3h6v-6q6 -45 7.5 -89t1.5 -89q0 -98 10 -194.5t72 -178.5q35 -41 81 -41q70 0 125 62q23 25 35 56.5t19 60.5q4 8 5 15t3 13q8 31 14 61.5t10 61.5q4 51 4 102q0 25 -1 51q-3 77 -7 152q0 12 -1 24.5t-1 22.5l-2 25q-4 84 -7 167 q-1 36 -1 71q0 48 2 96q1 23 1 46v23q-1 35 -1 70q-4 53 -4 106.5t8 106.5q4 23 10.5 34t30.5 21q27 10 60 11h12q23 0 50.5 -5.5t49.5 -25.5l2 -2l2 -4q1 -21 1 -42q0 -42 -3 -85q-4 -64 -8 -127q-4 -31 -5 -62.5t-3 -62.5l-4 -146q0 -59 -1 -116.5t-7 -116.5 q-6 -49 -8.5 -100.5t-4.5 -100.5q-2 -41 -3 -79.5t-5 -79.5q0 -14 -1 -27.5t-3 -28.5q-4 -74 -13.5 -151.5t-43.5 -139.5q-18 -31 -47 -58.5t-64 -46.5t-74 -30.5t-75 -11.5q-37 0 -79 10t-82 28.5t-74 45.5t-54 61q-41 68 -52.5 139.5t-19.5 147.5l-2 17l-2 25 q-2 26 -5 63.5t-6 81t-6.5 81t-4.5 62.5z" />
<glyph unicode="K" horiz-adv-x="944" d="M102 555q0 86 2 131q1 82 1 164v81.5v80.5q0 82 1 164q0 55 1.5 111t3.5 112q1 51 -3 111q0 8 -1 16q0 51 20 88h18q32 0 63 5q12 2 24 2q27 0 51 -11q3 -49 3 -115v-33q-1 -88 -3 -171t-4 -145q-1 -31 -1 -48.5t1 -22.5q10 8 40.5 44t70.5 86t84 107.5t82 106.5t63.5 83 t29.5 40q16 20 29.5 43t42.5 27q10 2 29.5 4t39 1t35 -8t15.5 -26v-6q0 -17 -10 -35q-12 -22 -23 -39q-23 -35 -57.5 -81t-73.5 -97t-79 -101t-71.5 -92l-54 -72t-27.5 -36q16 -29 27.5 -56.5t24.5 -56.5q6 -18 23.5 -59t41 -95.5t49 -116.5t49 -120.5t44 -109t32.5 -80.5 q16 -39 29.5 -76t28.5 -76q13 -35 31 -75q16 -36 16 -69v-7q-4 -8 -32 -13.5t-59.5 -5.5t-60.5 3t-35 9q-8 8 -30.5 63.5t-53 135.5t-64.5 176.5t-66.5 187.5t-58.5 167.5t-38 117.5q-16 -12 -27.5 -28.5t-27.5 -28.5v-62.5t-2 -62.5l-9 -219q-6 -115 -8 -227.5t-2 -227.5 q-33 -10 -72.5 -11t-76.5 -1q-10 25 -9 54.5t-2 56.5q0 27 -1 103.5t-2 165.5t-1 175z" />
<glyph unicode="L" horiz-adv-x="778" d="M104 1174v16q0 42 9 82q10 41 12 85q1 15 1 29q0 29 -3 56q-2 27 -2 59.5t16 57.5q6 10 25.5 10t43 -3t46.5 -9.5t33 -8.5q10 -34 11 -72q0 -12 1 -26q0 -25 -2 -51q-2 -39 -6 -78q-3 -26 -3 -51q0 -13 1 -25q4 -90 6 -178q1 -29 1 -59q0 -59 -3 -119q-4 -92 -5 -180v-59 q0 -59 1 -120q0 -47 2 -91t6 -89q2 -23 2 -48q0 -18 -1 -36q-1 -9 -1 -17q0 -34 10 -67q35 -12 79 -16t92 -6t95 -5t88 -16q9 -23 13 -51q3 -19 3 -35q0 -7 -1 -14q-2 -25 -29 -27t-45 -4q-33 0 -64.5 -3t-64.5 -3q-37 0 -74 2q-12 1 -25 1q-24 0 -48 -3q-27 -2 -51.5 -1 t-49.5 -1h-15q-24 0 -40 5q-20 7 -31 42q-10 31 -10 60.5t-2 60.5q-2 16 -3 33.5t-1 34.5q-2 10 -1 21t-1 19q-10 90 -10 184.5v186.5q-1 73 -1 144v71v54q0 80 -2 161q0 47 -2 97z" />
<glyph unicode="M" horiz-adv-x="1058" d="M106 354q2 87 1 175q0 75 -1 151v106.5v178t2.5 211t6.5 204t8 156.5t12 70q12 2 25.5 6t29 8t28.5 5h5l21 -3q16 -8 25.5 -31.5t15.5 -40.5q6 -18 25.5 -74.5t44 -131t52 -157.5t51 -153.5t42 -120t24.5 -57.5q2 2 6.5 13.5t9.5 24.5t9 25.5t4 16.5q2 2 17.5 49 t39 116.5t50 150.5t51 153t43 122t24.5 60q16 8 36 5t38 1q20 4 41.5 10.5t40.5 -8.5q0 -49 1 -138t4 -201.5t5 -240.5t5 -258t4 -253t1 -223.5t-2 -171t-6 -97.5q-14 -4 -46 -9q-23 -4 -45 -4q-9 0 -17 1q-30 2 -54 12.5t-24 34.5q2 82 2 163t-4 163v58v107.5t-1 131 t-2 128t-2 98.5t-3 46q-2 -2 -10.5 -35t-21.5 -81t-28.5 -104t-31 -107.5t-29 -88.5t-19.5 -47q-16 -23 -31.5 -28t-33 -3.5t-35.5 4.5t-39 1q-6 10 -18.5 39.5t-26.5 70.5t-30.5 86t-31 85t-23.5 66.5t-11 30.5q-6 10 -6 25.5t-13 22.5q0 -156 -2 -283q0 -55 -1 -109.5 t-2 -101.5t-2 -82t-3 -49q-6 -43 -6 -88q0 -18 1 -34v-19q0 -52 -13 -103q-26 -8 -58 -8q-15 0 -33 2q-52 6 -86 25q-2 87 -2 174q0 76 2 151zM307 881h8q1 1 1 2q0 3 -3 8h-6v-10z" />
<glyph unicode="N" horiz-adv-x="1001" d="M102 33q10 16 10.5 36.5t0.5 39.5q0 31 2 60.5t4 57.5q4 59 6 117q1 29 1 59t-1 60q-1 31 -1 61q0 92 5 182q6 120 8 242q1 123 9 243q6 95 6 191v52v45t2 45q2 16 3 41.5t11 38.5q12 12 32.5 17t42 7t43 1t38.5 -1q18 -20 23 -50t15 -56l44 -138q23 -72 42 -144.5 t48 -141.5q27 -59 48 -122t48 -124q12 -29 24.5 -58.5t26.5 -58.5q6 -33 20.5 -61.5t30.5 -57.5q6 48 6 96q0 18 -1 36q-3 66 -5 131q-1 19 -1 38q0 47 4 93q5 65 12 131q4 63 7 127.5t7 130.5q2 31 3 62.5t1 64.5q0 30 -6 68q-2 14 -2 27q0 22 6 40q18 -4 43 -4h51.5t50 -3 t41.5 -9q23 -7 26 -21q2 -8 2 -20q0 -8 -1 -17q-6 -35 -6 -71.5t-2 -71.5q-10 -145 -16 -287.5t-13 -286.5q-8 -150 -10 -317.5t-14 -314.5q-2 -28 -2 -56q0 -22 1 -44q1 -15 1 -30q0 -35 -5 -69q-4 -25 -28 -36t-54 -13q-9 -1 -17 -1q-21 0 -42 4q-29 5 -43 13 q-6 10 -10 23.5t-8 25.5q-20 47 -53 142.5t-69 201t-66.5 201.5t-47.5 148q-18 68 -36.5 145.5t-57.5 136.5q4 -8 1 -16t-3 -15q-2 -18 -2 -34.5t2 -32.5q1 -28 1 -58t-1 -61q-4 -63 -9 -125.5t-10 -126.5l-12 -260q-4 -69 -8 -139q-1 -20 -1 -39q0 -49 7 -96 q-4 -10 -17.5 -15.5t-29.5 -7.5t-32.5 -2h-24.5q-25 -2 -56.5 0t-42.5 31z" />
<glyph unicode="O" horiz-adv-x="946" d="M104 967q1 34 1 68v35q0 26 -0.5 52t0.5 52q1 52 9.5 103.5t28.5 100.5q43 100 129 174q47 41 110.5 57.5t127.5 18.5h8q58 0 108 -28q54 -30 95 -74q18 -23 38.5 -40.5t33.5 -43.5q16 -33 23.5 -68.5t17.5 -70.5q10 -76 10 -152q0 -33 -2 -65q-4 -81 -4 -165v-55 q1 -65 2 -131q0 -33 -1 -67q-1 -100 -3 -197q-1 -20 -1 -41.5t1 -46.5q1 -15 1 -30q1 -34 -3 -68q-4 -49 -17.5 -94.5t-44.5 -73.5q-35 -31 -71.5 -61.5t-82.5 -41.5q-49 -12 -101 -14h-15q-44 0 -86 10q-18 4 -41 10.5t-39 20.5t-34.5 21.5t-35.5 21.5q-35 27 -53 64.5 t-35 76.5q-35 84 -44 167t-15 171q-4 53 -6 107.5t-4 107.5q-3 46 -5 94q-1 26 -1 53q0 21 1 42zM306 781q5 -104 9 -210q2 -41 4.5 -89t11.5 -96t26.5 -91t52.5 -74q18 -16 50 -25.5t65.5 -9.5t62 11.5t39.5 38.5q14 35 17 77.5t7 77.5q4 27 8.5 52.5t4.5 52.5q0 23 4 44 t8 44q10 78 10 155q0 19 -1 38q-3 95 -7 194q-1 18 -1 36q0 27 2 55q3 46 3 92t-7 91t-26 88q-14 35 -44 55.5t-64 28.5q-20 4 -39 4q-26 0 -48 -8q-38 -14 -75 -43q-14 -41 -29.5 -82t-21.5 -86q-10 -53 -12 -105.5t-5 -105.5q-7 -71 -7 -140q0 -35 2 -70z" />
<glyph unicode="P" horiz-adv-x="905" d="M104 50.5q0 17.5 3.5 36.5t3.5 32q0 59 2 115.5t2 115.5q4 109 4 216.5t6 215.5q12 199 12 395v56q0 53 -2 103t-2 102q0 34 -1 72v11q0 32 5 62q2 12 13.5 19.5t25.5 11.5t29.5 5t25.5 3q41 4 83 8t83 4q45 0 90 -4t87 -17.5t78 -37t65 -62.5q43 -61 58.5 -137 t21.5 -147q6 -64 6 -127q0 -24 -1 -48q-3 -87 -7 -175q0 -39 -8.5 -79t-25 -75t-44 -61.5t-68.5 -38.5q-41 -13 -85 -23q-36 -8 -72 -8h-15q-47 2 -93 8q-28 4 -56 4q-19 0 -37 -2q0 -8 -3 -27.5t-5 -46t-4 -55t0 -55.5q3 -34 3 -68q0 -16 -1 -34q-2 -52 -2 -103 q0 -43 -1.5 -86t-5.5 -86q0 -16 -6 -27.5t-26 -11.5q-23 2 -46.5 3t-46.5 1q-25 0 -34 12.5t-9 30zM283 1446q3 -139 3 -276v-69q-1 -171 -1 -345q25 -12 57 -12h12q25 0 52 1q33 2 68.5 4.5t64.5 18.5t45 46t26 60q23 66 29 136q3 35 3 69t-3 68q-4 35 -11 69q-5 26 -5 53 v15q0 37 -3.5 68.5t-33.5 56.5q-27 23 -66 35t-81 16q-21 2 -42 2t-41 -2q-41 -4 -73 -14z" />
<glyph unicode="Q" horiz-adv-x="1003" d="M102 600q4 53 7 109q4 115 9 226.5t19 223.5q4 27 10.5 52.5t8.5 52.5q2 25 3 49t5 49q10 45 37.5 89t56.5 77q31 35 72 60.5t87 42t93 21.5q18 2 36 2q28 0 56 -5q78 -14 125 -67.5t82 -119.5q16 -33 22.5 -74.5t10.5 -78.5q6 -43 10 -87t4 -89q-1 -42 -1 -83.5t1 -82.5 t1 -82.5t-1 -83.5q-2 -78 -11 -155l-18 -154q-8 -72 -17 -144.5t-38 -138.5q14 -16 29 -31q12 -12 24.5 -25.5t22.5 -23.5q16 -14 36 -33q16 -15 16 -33q0 -4 -1 -8q-16 -8 -28.5 -21.5t-24.5 -27.5t-24.5 -26.5t-28.5 -20.5q-11 -5 -21 -5q-7 0 -13 2q-16 5 -29 17.5 t-24.5 26.5t-19.5 27q-16 20 -24.5 15t-28.5 -13q-39 -14 -86 -21q-35 -5 -70 -5q-18 0 -35 1q-53 4 -100 25q-41 18 -75 46.5t-61.5 65.5t-46 78t-26.5 82q-8 47 -12 95t-12 96q-7 41 -7 80v28zM287 571v-27q0 -60 7 -128q9 -84 46 -150q33 -55 104 -61q12 0 26.5 -5 t28 -8.5t28 -3.5t26.5 9q-25 10 -37 37.5t-31 41.5q-8 6 -20 20.5t-10 25.5q4 18 14 21t20 15q8 6 16.5 17.5t19 24t20.5 20.5t22 8q8 0 20.5 -12.5t25 -26.5t21.5 -25.5t11 -9.5q-2 2 1 24.5t8 50.5t9.5 55.5t6.5 41.5q4 53 8 107.5t6 109.5q4 100 4 199.5t-2 200.5 q0 37 -2 74.5t-11 74.5t-27.5 69t-49.5 56q-12 8 -30.5 17.5t-38 14.5t-39 5t-33.5 -10q-61 -45 -91 -106.5t-43.5 -125t-15.5 -122t-6 -99.5q-9 -95 -9 -190v-19v-43q0 -84 -3 -168z" />
<glyph unicode="R" horiz-adv-x="917" d="M104 316.5v250t2.5 285.5t5.5 284.5t8 251t12 182t15 77.5q16 14 31 13t35 3q49 8 99 10q17 1 33 1l67 -3q74 -4 126 -15t86.5 -24.5t53 -28t29.5 -22.5q23 -23 40 -68t29 -103t19.5 -121.5t11.5 -120t6 -99.5t1 -59q0 -94 -13 -154.5t-31 -98.5t-39.5 -58.5t-36.5 -34.5 q16 -31 37 -58.5t37 -60.5q10 -18 17.5 -67.5t12.5 -105t7 -106.5t2 -76q-1 -17 -1 -34q0 -26 2 -52q1 -18 2 -37q0 -25 -3 -49q-23 -16 -49 -18q-9 -1 -18 -1q-17 0 -33 3q-18 2 -52 1t-51 11q-6 38 -6 75v19q2 46 2 93q0 27 1 71v31q0 31 -1 65q-2 52 -9 103t-24 90 q-23 20 -55.5 29.5t-70.5 9.5t-76.5 -5t-69.5 -13v-74t-2 -108.5t-5 -123t-9.5 -117t-13.5 -89t-17 -39.5q-2 -2 -12.5 -2t-16.5 8q-2 -2 0 -3t0 -3h-29.5t-34 2t-29.5 9t-17 21q-2 4 -3.5 74t-1.5 179.5zM287 1130q-2 -48 -2 -97q0 -129 12 -259q12 1 32.5 1t48.5 -1 q19 -1 38 -1q38 0 78 3q60 4 104.5 22.5t48.5 59.5q2 -2 3 26v33v41q-1 46 -3 102t-4 109.5t-5 98t-5 67.5q-8 57 -33 87t-96 53q-52 16 -106 17h-9q-49 0 -96 -9q0 -175 -6 -353z" />
<glyph unicode="S" horiz-adv-x="983" d="M123 1265.5q0 55.5 12 108.5t37 96q58 92 156 142q82 41 173 41q19 0 38 -2q37 -4 72.5 -13.5t66.5 -25.5q29 -16 65.5 -48t51.5 -63q6 -16 22.5 -47t29.5 -64.5t18 -62.5t-7 -43q-10 -10 -36.5 -18.5t-57.5 -13.5t-58.5 -3t-39.5 15q-12 10 -13.5 37.5t-9.5 44.5 q-10 23 -23.5 42t-31.5 33q-23 18 -58.5 31.5t-64.5 13.5q-31 -2 -57.5 -17t-45.5 -38q-37 -45 -55 -103q-11 -34 -11 -68q0 -23 5 -46q10 -47 42 -84t67 -72q70 -72 151.5 -138t153.5 -138q59 -57 109.5 -129t66.5 -150q9 -37 9 -72v-7q-1 -38 -9 -78q-8 -53 -19.5 -101.5 t-48.5 -93.5q-35 -39 -90 -73.5t-108 -49.5q-55 -12 -119 -14h-14q-56 0 -103 14q-49 16 -101 55t-83 80q-12 18 -26.5 44t-25 54.5t-14.5 56.5t0 50q8 41 31 46t61 9q29 2 57.5 1t53.5 -15v-9q0 -40 16 -79q18 -43 49 -73t74 -42q16 -4 34 -5q29 0 63 12q55 20 82.5 58 t34.5 84q3 18 3 36q0 29 -7 58q-11 48 -36 91q-53 92 -124.5 166t-151.5 145q-59 53 -119.5 104.5t-95.5 125.5q-18 43 -29.5 96t-11.5 108.5z" />
<glyph unicode="T" d="M104 1629.5q0 15.5 7 29.5q4 8 6 14t14 10q16 8 34.5 9.5t35.5 -0.5q41 -2 79 -8q28 -4 58 -4q11 0 22 1q52 1 104 5q27 2 55 2q25 0 50 -2q14 -1 27 -1q27 0 52 3q38 4 75 12h3q12 0 18 -12q6 -14 7 -32v-12q0 -14 -1 -26q-2 -20 -2 -25q4 -39 -8.5 -56t-51.5 -21 q-35 -4 -68.5 -6.5t-68.5 -8.5q-4 -94 -5 -187t-7 -188q-4 -96 -4 -190t-5 -193q-2 -94 -6 -187q-2 -37 -2 -75q0 -56 4 -112q2 -24 2 -47.5t-2 -47.5q-4 -48 -6 -96q-3 -30 -3 -59q0 -15 1 -29t0 -29q0 -29 -2 -59q-26 -3 -51 -3q-21 0 -41 2q-45 5 -86 9q-5 38 -5 76 q0 41 6 81q7 50 7 100q0 27 -2 55q-3 31 -3 62q0 15 1 30l4 90l4 90v12v20.5t1 18.5t3 6l-1 30t-2 67.5t-1 71.5v40q1 28 1 56t-1 56q-2 56 -6 113q-4 82 -4 163v54q2 108 4 220h-45h-76q-27 -4 -60.5 -7.5t-56.5 19.5q6 14 4.5 30.5t-4 33t-2.5 32z" />
<glyph unicode="U" horiz-adv-x="1011" d="M100 805q-1 35 -1 70q0 53 2 105q3 87 8 175q4 63 6 127t4 129v102q-2 27 -8.5 60t16.5 55q33 5 72 5h13q46 -1 85 -15q3 -44 3 -87q0 -69 -8 -139q-13 -112 -18 -227q-4 -119 -4 -237.5t9 -237.5q4 -57 9 -113.5t11 -113.5q4 -47 10 -96.5t29 -90.5q18 -39 51 -61 q33 -23 73 -29q19 -3 37 -3l43 5q40 8 74 27q31 18 50.5 47t31 62.5t15.5 70.5t6 70q1 45 1 90v45q-1 68 -5 137q-4 150 -10.5 299.5t-12.5 298.5q-2 37 -3 75t-5 75q-2 27 -9 67q-3 17 -3 31q0 20 6 35q18 12 48 15t52 5l16 4l8 2q5 0 9 -2q2 0 10 -3t16.5 -8t14.5 -9l6 -4 q12 -37 13 -79t6 -83q10 -121 16 -241.5t7 -243.5q2 -125 5 -250v-31q0 -109 -12 -219q-6 -57 -18.5 -114.5t-35 -112t-57 -100.5t-86.5 -78q-55 -37 -121.5 -51.5t-132.5 -14.5q-35 0 -71.5 15.5t-70.5 39t-63.5 53t-50.5 58.5q-23 31 -31 70.5t-14 74.5q-23 123 -30 247 t-11 247z" />
<glyph unicode="V" horiz-adv-x="980" d="M104 1595q-1 4 -1 7q1 10 5 20q6 14 9 27q45 0 86 9q34 7 67 7h15q8 -8 12 -38t6 -64.5t4 -68.5t4 -50q14 -78 25.5 -154t28.5 -151q16 -78 29.5 -155t29.5 -155q16 -72 27.5 -148.5t44.5 -145.5q14 29 16 60.5t6 59.5l21 133q12 76 19 151t24 148q16 76 32.5 150 t28.5 149l25 142q6 33 10 69.5t24 65.5q16 -1 31 -1q29 0 57 4q18 3 35 3q25 0 47 -6q4 -15 4 -31v-11q-2 -22 -9 -43.5t-16 -43t-13 -41.5q-2 -12 -14.5 -77.5t-30 -164t-38 -219.5t-43 -245.5t-43 -243.5t-37 -214.5t-26.5 -154.5t-10 -65q-4 -27 0 -54.5t-6 -54.5h-26.5 t-38 2t-36 4t-20.5 2q-2 4 -9 34t-16.5 73t-21.5 93t-22.5 97t-18.5 84t-12 55q-23 102 -54.5 199.5t-56.5 200.5q-27 109 -47.5 215t-42.5 215q-8 47 -13 92t-14 92q-2 12 -7 33.5t-11 43t-12.5 39t-6.5 21.5z" />
<glyph unicode="W" horiz-adv-x="1550" d="M102 1606q2 6 35 6t74 -1t79 -4t50 -5q5 -35 5 -84v-16.5v-17.5q0 -51 5 -102q2 -25 16.5 -99.5t34 -171.5t40 -202.5t38 -193.5t28.5 -144.5t9 -54.5q10 10 22.5 58.5t24.5 117t25.5 147.5t24 151.5t19.5 128t13 77.5q2 14 7 46t10.5 65.5t12.5 62.5t15 39 q10 10 32.5 13t47.5 0t46.5 -10t31.5 -15q12 -12 28.5 -79t35 -161t37 -203.5t37 -206t33.5 -168t28 -90.5q4 2 13 54.5t21.5 134.5t27.5 187.5t30.5 214t30 212t26.5 185.5t20.5 133t12.5 53q16 -4 39.5 -2t52.5 4q12 1 24 1q17 0 37 -2q32 -3 66 -15l-12 -70 q-13 -70 -33.5 -182.5t-45 -257t-51 -295t-52 -294.5t-46 -258t-33 -184.5t-14.5 -72.5q-8 -16 -33.5 -23.5t-54.5 -10.5q-14 -2 -28.5 -1.5t-28.5 1.5q-28 3 -41 9q-4 8 -19.5 78t-35 170t-42 216t-42 214t-32.5 162.5t-16 67.5q-8 -10 -17 -50.5t-18.5 -89.5t-16.5 -97 t-13 -71q-6 -29 -16.5 -81t-21.5 -112.5t-22.5 -123t-20.5 -114.5t-15 -87t-6 -41q-2 -31 -39 -39q-6 -2 -22.5 -3t-35 -1t-35 1t-22.5 3q-10 4 -28.5 57.5t-43 135.5t-50.5 180t-49.5 190.5t-41.5 167t-27 111.5q-6 33 -18 100.5t-25.5 150.5t-28 170t-26.5 159.5 t-19.5 120t-7.5 51.5z" />
<glyph unicode="X" horiz-adv-x="989" d="M104 1632q16 6 37 14.5t41 10.5q5 1 9 1q13 0 27 -5q18 -6 28 -27q18 -41 30.5 -83t26.5 -85q35 -109 76 -211t72 -211q4 -12 7 -26.5t13 -24.5q2 -4 6 0t8 12.5t7.5 15.5t3.5 9q6 14 20 55t32.5 96.5l40 120t43 126t42 114.5t37.5 88q28 13 68 13h15q50 -3 89 -11 q4 -17 4 -26q0 -5 -1 -8q-3 -9 -14 -31q-4 -8 -21 -58.5t-44 -123t-57.5 -160t-59 -170t-52.5 -151.5t-36 -105q-6 -16 -19.5 -44t-7.5 -47q2 -8 21.5 -59t46.5 -125t58.5 -158t58 -157.5t43 -125.5t16.5 -61q-16 -10 -33.5 -12t-35.5 0q-24 0 -50 -2q-8 -1 -17 -1 q-17 0 -34 3q-12 25 -35.5 87.5t-49 133t-50.5 136t-37 96.5q-10 -10 -31.5 -69.5t-47 -134.5t-51 -144.5t-44.5 -98.5q-27 -6 -53.5 -4t-52.5 0q-10 0 -20.5 -1t-20 2t-14.5 9t-3 21q4 25 14.5 48t20.5 46q4 10 19.5 52t38 98.5t47 123t47 126t38.5 106.5q23 65 23 67 q-1 11 -19 74q-20 70 -51.5 169t-69.5 216t-70 218.5t-53.5 172t-19.5 80.5z" />
<glyph unicode="Y" horiz-adv-x="958" d="M104 1608q0 11 25 22q27 12 61 18q29 6 56 6h9q32 -1 38 -14q2 -4 16.5 -50t35 -112.5t45 -143.5t46 -142.5t36.5 -110.5t20 -47q4 4 19 48t36.5 107.5t45 137.5t44 139.5t34 112.5t13.5 59q12 20 33 20h1q23 -1 42 -5q20 -2 44.5 1t45.5 -7q5 -2 5 -14q0 -7 -2 -18 q-5 -28 -16.5 -62.5t-22.5 -66.5t-13 -42q-6 -18 -22.5 -76.5t-40 -137.5t-48 -166t-46 -163t-37 -131.5t-15.5 -69.5q0 -6 1 -56t1 -124v-159t-1 -157.5t-4 -123.5t-7 -57q-8 -10 -25.5 -6.5t-30.5 1.5q-16 -2 -32 -7q-10 -3 -19 -3q-7 0 -14 2q-6 6 -8 49t-2 97.5t1 105.5 t1 76q0 20 -2 69.5t-5.5 104.5t-6.5 104.5t-5 71.5q-8 70 -41 137q-6 12 -18.5 45t-29.5 77t-36.5 95.5t-37 101.5t-33 93t-23.5 72q-10 37 -24.5 72.5t-28.5 72.5q-8 18 -14.5 36.5t-12.5 39.5q-6 18 -16 36q-15 29 -15 42z" />
<glyph unicode="Z" horiz-adv-x="954" d="M104 41q4 47 23.5 90t38.5 84q14 35 43 120t64.5 197.5t78.5 241.5t86 252t84 226.5t74 166.5q-46 8 -95 8q-42 0 -85 -6q-94 -12 -183 -12q-37 0 -52 7t-23 42q-2 10 -3 26.5t0 34t5 32t14 20.5q6 4 48 10t103.5 10t135.5 7.5t143.5 3.5t125.5 -4.5t87 -14.5h2l2 -2 q2 0 4 -1t4 -1q4 -6 5.5 -13t5.5 -12q-18 -84 -53 -177t-68 -171q-35 -86 -59.5 -173t-57.5 -173q-6 -14 -24.5 -62t-45 -117t-57.5 -147.5t-58.5 -151.5t-48 -133.5t-28.5 -90.5q48 -12 100 -12q5 0 10 -1q47 0 91 5q27 2 54 2l48 -2q17 -1 34 -1q34 0 66 5q20 2 41 4 t36.5 -1t23.5 -15q6 -10 6 -28v-10q-2 -16 -1 -32.5t-1 -29.5t-11.5 -23.5t-31.5 -14.5q-35 -6 -91.5 -9t-122 -4t-135 -1t-130 1t-106.5 1h-64q-30 -2 -42 9q-11 9 -10 32v8z" />
<glyph unicode="[" horiz-adv-x="745" d="M103 1687.5q-1 16.5 0 32t12 25.5q6 6 44 7t92 0t116.5 -4t116 -6t88.5 -5l34 -2q10 -29 8.5 -59.5t6.5 -59.5q4 -16 0.5 -32.5t-25.5 -20.5q-35 -4 -69.5 -1t-69.5 3q-39 -2 -76 -3t-74 -1q6 -12 10.5 -105.5t8.5 -231t6 -300t3 -314t0 -271.5t-3 -173q35 -6 67.5 -7 t67.5 -1q31 2 68.5 7t66.5 -11q16 -8 26.5 -29t13.5 -44.5t-3 -45t-23 -29.5q-47 8 -128.5 6t-160.5 -2t-138.5 5t-61.5 26q-4 47 -2 93t0 93q-2 68 -4 194t-3 276.5t-2 308t-2 291t-1 223.5v106q0 12 -4.5 28.5t-5.5 33z" />
<glyph unicode="\" horiz-adv-x="1024" d="M105.5 1333.5q-11.5 30.5 13.5 50.5q18 0 35.5 8.5t35.5 12.5q25 4 32 2t32 6q8 -2 22.5 -24.5t30 -56.5t31.5 -72.5t29.5 -71.5t17.5 -44l12 -34l21 -53q22 -53 57 -140.5l80 -200t92 -231t94 -236.5t85 -216.5t63.5 -167t32.5 -90.5h-52.5t-40 1t-38 3t-46.5 4 q-10 18 -40.5 89t-74.5 175.5t-97.5 232.5t-108.5 259t-107.5 257t-93.5 227t-67.5 166.5t-28.5 78.5q-10 35 -21.5 65.5z" />
<glyph unicode="]" horiz-adv-x="755" d="M102 1622v27.5t3.5 36t10.5 33t19 18.5q16 2 63.5 2t102.5 -2t107.5 -4t76.5 -2q14 0 41 3t53.5 1t46 -10.5t21.5 -28.5q0 -10 1 -72.5t2 -151t2 -190.5t0 -194.5t-1 -161.5t-2 -92q-4 -39 -3 -114t1 -166t-2 -186.5t-8 -174t-20.5 -131t-38.5 -54.5q-43 -6 -87.5 -1 t-87.5 -1q-63 -8 -124.5 -2t-122.5 16q-4 10 -8.5 32t-4.5 44.5t5.5 41t19.5 22.5q49 14 107.5 6t109.5 -8q12 0 25.5 -1t24.5 0t18.5 7t9.5 20q4 31 2 60.5t-2 60.5q0 20 2 65.5t5 105t7 127t6 131t3 117.5t-1 87q0 10 -1 52t-2 100.5t-3 126t-3 126t-3 101.5t-2 53 q0 12 -1 24.5t-1 24.5q-4 29 -14.5 26t-34.5 -3q-31 0 -80 -2t-96 -2t-85 1t-44 7q-10 10 -11.5 23.5t-1.5 25.5z" />
<glyph unicode="^" horiz-adv-x="851" d="M102 1505q76 57 142 105q55 41 105 76.5t67 46.5q10 2 30.5 -10.5t42 -30t40 -35t26.5 -23.5q23 -16 57.5 -39.5t65.5 -47t52.5 -39t17.5 -11.5q-2 -4 -11.5 -19.5t-20.5 -34t-23.5 -36t-20.5 -25.5q-6 -6 -41 16.5t-76 52.5t-78 58.5t-49 34.5t-26.5 -1t-30 -19.5 t-28.5 -25.5t-21 -19q-31 -25 -63 -49.5t-66 -47.5q-10 -8 -23.5 7.5t-27 39t-23.5 47t-17 29.5z" />
<glyph unicode="_" horiz-adv-x="1224" d="M105.5 -3q-7.5 42 5.5 66q10 18 37.5 17.5t44.5 1.5q86 6 171 9t171 5q88 2 173 6t173 -2q18 -2 54 -3t72.5 -3t66.5 -5t34 -7q4 -35 10 -77t0 -87q-10 -4 -77.5 -7t-164 -6t-209 -4t-212 -1h-171t-87.5 2q-18 0 -38 1t-38 9q-16 6 -9 11t-1 3q2 29 -5.5 71z" />
<glyph unicode="`" horiz-adv-x="382" d="M104.5 1614q-4.5 10 1.5 18q18 23 55 28t62 7q16 0 25.5 -15.5t14.5 -37t6 -43t3 -31.5q2 -20 6.5 -42.5t0.5 -41.5q-8 -33 -34 -33t-42 23q-18 25 -30.5 53.5t-29.5 54.5q-4 6 -12 16.5t-15 22t-11.5 21.5z" />
<glyph unicode="a" horiz-adv-x="841" d="M96 479q6 100 50 190.5t143 131.5q35 17 76 25q20 4 40 4q21 0 41 -5q2 0 16.5 -3t32 -7t31.5 -7l13 -3q12 27 16 59.5t-3 63t-24.5 56.5t-46.5 38q-39 14 -58.5 1t-30.5 -40t-19 -56.5t-25 -47.5q-26 -3 -58 -3h-16q-41 1 -59 21q-6 25 -6 50q1 39 15 77q24 64 72 111 t112 71q37 14 75 13q26 0 52 -7q78 -20 116.5 -74.5t55.5 -129.5q16 -78 22 -165q2 -24 2 -47q0 -61 -12 -118l2 2q2 -30 2 -59t-2 -57q-4 -58 -6 -118v-260q0 -16 2 -44.5t0 -56.5t-12.5 -48.5t-36.5 -20.5q-24 0 -50 -12q-16 -7 -30 -7q-10 0 -19 3q-16 6 -19 21.5 t-9 35.5q-29 -18 -56 -30q-25 -10 -52 -19.5t-54 -5.5q-43 8 -86 30.5t-72 55.5q-16 16 -30.5 35.5t-30.5 38.5q-16 23 -23.5 51.5t-15.5 52.5q-25 91 -25 187v26zM284 452q-1 -19 -1 -38q0 -37 4 -74q6 -55 25 -95q18 -41 48 -59q14 -9 31 -8q19 0 43 10q33 14 56.5 41 t37 61t19.5 70.5t6 71.5q0 29 -2 66t-11.5 71.5t-27.5 63.5t-51 41q-35 0 -63.5 -8.5t-49.5 -22.5l-2 -2h-2l-4 -4l-4 -4l-4 -4q-20 -25 -32.5 -73t-15.5 -104zM332 629q4 2 9 7l7 7q-2 0 -2 -2h-2l-4 -4z" />
<glyph unicode="b" horiz-adv-x="819" d="M103 942q3 118 14 236q4 53 8 104t4 104q0 48 -6 96q-2 15 -2 28q0 34 10 67q23 17 63 21q11 1 21 1q25 0 45 -8t28.5 -32.5t9.5 -53t-3 -58.5t-6 -46q-2 -10 -2 -47v-79v-75t-2 -33q51 13 105 15h17q45 0 87 -12q50 -14 91.5 -43t69.5 -80q47 -83 55 -181q5 -58 5 -113 q0 -39 -2 -77q-4 -49 -10.5 -99.5t-12.5 -99.5q-10 -66 -15 -132t-26 -128q-10 -27 -22.5 -50.5t-30.5 -43.5l-23.5 -23.5t-27.5 -19.5q-10 -6 -19.5 -8t-15.5 -13q-52 -4 -106 -9q-10 -1 -19 -1q-44 0 -84 19q-2 -12 1 -28.5t-7 -27.5q-14 -2 -34.5 -6t-42.5 -5 q-11 0 -21 -1q-11 0 -21 1q-20 1 -35 9q-14 8 -14 22.5v28.5l-4 134q-4 129 -9 254.5t-10 255.5q-2 68 -2 136q0 51 1 101zM262 890v-13q0 -25 2 -48q2 -41 2 -78.5v-76.5q2 -72 5 -139.5t8 -139.5q2 -27 4 -55.5t16 -52.5q18 -31 37.5 -40t52.5 -16q12 -2 23 -2q37 1 61 21 q31 26 41 80q19 117 19 234v12v30q0 107 6 215q1 18 1 36v17q-1 26 -7.5 52t-20.5 46.5t-41 35.5q-30 17 -62 17q-22 0 -45 -8q-56 -20 -85 -69q-17 -26 -17 -58z" />
<glyph unicode="c" horiz-adv-x="776" d="M102 576v34q0 87 11 172q8 59 26.5 127t51 125.5t82 98.5t120.5 49l28 2l124 -29q14 -6 36.5 -17.5t42.5 -26.5q22 -15 36 -33q13 -16 12 -33q0 -17 -14 -35q-12 -16 -29 -28.5t-33 -26t-25 -21.5q-10 -10 -24.5 -3t-29.5 20.5t-30.5 26.5t-23.5 17q-22 11 -42 11 q-25 0 -44 -18q-35 -32 -57.5 -85t-35 -111.5t-16.5 -89.5q-14 -92 -24 -186q-3 -29 -4 -59q0 -64 16 -125q10 -47 35.5 -89t73.5 -65q28 -14 52 -14q19 0 35 9q36 20 62 60q12 18 25.5 22.5t27 -0.5t26.5 -17.5t23 -24.5q32 -34 32 -68q0 -36 -38 -71q-70 -66 -166 -74 q-14 -1 -29 -1q-80 0 -149 38q-47 25 -77.5 61.5t-47 80.5t-23.5 92t-9 98q-5 103 -7 207z" />
<glyph unicode="d" horiz-adv-x="790" d="M74 518v127t6 127q4 59 14 127t43 121q29 45 66 79t90 50q30 9 61 9q26 0 50 -6q56 -13 108 -26q-1 41 -1 79v39q1 56 2 114.5t1 119t-2 130.5q10 2 17.5 6t19.5 6q10 0 22.5 1t22.5 3q26 4 50 5h7q21 0 43 -5q12 -16 8 -37.5t0 -40.5q2 -12 3.5 -52t1.5 -89v-96v-74 q-4 -111 -4.5 -220.5t-6.5 -219.5q-6 -111 -9 -217q-1 -46 -1 -93q0 -62 2 -125q4 -88 6 -174q1 -29 1 -58q0 -58 -3 -116q-25 -4 -49.5 -6t-48.5 -2q-16 0 -42 -3q-6 -1 -11 -1q-18 0 -29 8q0 4 -7 15.5t-5 27.5q-10 -2 -17.5 -9t-15.5 -11q-10 -8 -23.5 -9.5t-25.5 -1.5 q-51 0 -101 17q-37 12 -70.5 27.5t-51.5 41.5q-66 86 -92.5 197t-28.5 215zM231 463q0 -27 3.5 -58.5t11.5 -62.5t20.5 -57.5t34.5 -44.5q39 -36 82 -46q9 -2 18 -2l68 33q10 8 17.5 16.5t15.5 18.5q10 10 7 22.5t-5 26.5q-4 31 -4 61.5t2 61.5q2 66 6 132q3 44 3 88 q0 22 -1 44q0 35 -2 69t-2 69q0 16 1 34.5t3 34.5q-8 10 -18.5 17.5t-20.5 11.5q-51 27 -91 35q-6 1 -11 1q-35 0 -70 -42q-37 -43 -44 -104.5t-13 -114.5q-6 -61 -10 -123q-2 -39 -2 -78q0 -22 1 -43z" />
<glyph unicode="e" horiz-adv-x="862" d="M102 647q0 84 16.5 179.5t57.5 177t109.5 135t173.5 53.5q86 0 134 -35t74.5 -87t35 -112.5t14.5 -113.5q4 -47 8 -94.5t4 -94.5v-30.5t-2 -30.5q-2 -12 -41 -15.5t-78 -3.5h-53q-55 -4 -111.5 -13t-109.5 -9h-21q-27 0 -26 -12q0 -13 -1 -71v-11q0 -53 9 -109 q10 -62 41 -112t92 -50q47 0 72.5 20.5t40 51.5t20.5 65.5t12 63.5h21q18 0 46 -7t53.5 -18.5t44 -26.5t18.5 -34q0 -70 -30 -126t-78 -95t-108.5 -60.5t-119.5 -21.5q-74 0 -126 33t-87 87t-56.5 122.5t-31.5 141.5t-13.5 141.5t-3.5 121.5zM291 745q27 -4 55.5 -6t56.5 -2 q45 0 88.5 4t79.5 11q4 20 4 32q0 23 -4 42.5t-8 39.5q-6 25 -14 51.5t-21.5 48t-30.5 35t-42 13.5q-49 0 -80 -30t-48.5 -71t-24.5 -88t-11 -80z" />
<glyph unicode="f" horiz-adv-x="876" d="M104 1088q2 20 6.5 41.5t8.5 37.5q12 0 31.5 1t41 1t41 1t33.5 4q0 51 8.5 105t24.5 104.5t45 94.5t72 78q51 39 110 60q39 15 82 15q20 0 41 -3q16 -2 42 -10t47.5 -22.5t31.5 -33.5q4 -7 4 -15q0 -11 -8 -23q-18 -27 -41 -55.5t-51 -45.5q-6 -4 -13.5 0t-13.5 12.5 t-12 15.5t-12 9q-20 8 -45 6t-46 -10q-37 -16 -56 -48t-29.5 -72t-14.5 -82t-10 -74q14 -4 43 -6.5t57.5 -3.5t50 -3t25.5 -4q8 -29 9 -75v-6q0 -42 -13 -66q-6 -12 -29.5 -15.5t-52.5 -2.5t-55.5 4.5t-36.5 3.5q-3 -33 -3 -67q0 -59 9 -119q14 -93 23 -185q4 -66 5 -129.5 t1 -128.5q0 -45 7 -90l14 -90t12 -91q3 -20 3 -39q0 -26 -4 -51q-10 -2 -38.5 -6t-59.5 -7t-57.5 -3t-30.5 10q-12 25 -11 57.5t3 59.5q1 22 1 44q0 43 -3 87q-4 64 -8 129q-4 76 -8.5 151.5t-8.5 151.5q-2 40 -2 80t2 80q2 32 2 64q0 47 -4 94q-14 -2 -35.5 -1t-43 3t-41 4 t-31.5 6q-6 12 -9 30q-1 9 -1 20q0 8 1 18z" />
<glyph unicode="g" horiz-adv-x="823" d="M104 684q-1 20 -1 40q0 58 10 114q10 66 28.5 132t61.5 120q35 41 82 66.5t102 29.5q31 2 56.5 -5t54.5 -18q16 -8 37.5 -22.5t42.5 -10.5q4 8 2 19.5t-4.5 23t0 20.5t14.5 13q19 7 39 7q8 0 17 -1q28 -4 56 0q16 -16 15.5 -31.5t-0.5 -31.5q-2 -27 -1 -53.5t-1 -53.5 q-2 -53 -5 -103t-8 -103q-5 -87 -5 -175v-29q1 -102 5 -204q2 -72 9.5 -147.5t7.5 -151.5t-12.5 -149.5t-47.5 -137.5q-37 -68 -102 -112.5t-143 -48.5q-23 0 -65 3t-80 15t-56 34.5t6 57.5q16 23 35.5 41t38.5 41q12 14 25.5 14t27.5 -8t26.5 -18.5t24.5 -16.5 q18 -10 36 -7t32 12.5t26.5 23.5t22.5 29q25 35 32 76q3 20 3 40q0 22 -4 45q2 -6 -15.5 -11t-39 -9t-41 -6t-23.5 -2q-12 -1 -25 -1q-108 0 -180 81q-39 41 -61.5 91t-33.5 104.5t-14 109.5t-3 108q0 78 -5 156zM258 526q4 -59 10 -119.5t31 -115.5q12 -25 34.5 -46.5 t49.5 -32.5q25 -10 51 -10h4q29 1 54 21q20 16 29 39t13.5 48.5t5.5 52t1 49.5q4 86 8 169t4 169v88t-11.5 92t-39.5 68q-24 21 -67 21q-10 0 -21 -1q-31 -4 -52.5 -19.5t-37 -38t-24.5 -50t-15 -52.5q-16 -82 -25 -165q-4 -49 -4 -98q0 -34 2 -69z" />
<glyph unicode="h" horiz-adv-x="808" d="M106 420q-2 92 -2 185q0 106 2 214q2 78 3.5 154t5.5 153q3 95 3 190v47v21q0 107 9 215q41 5 82 13q13 2 26 3l56 -11q2 -6 3 -60.5t1 -127.5t1 -149.5t5 -127.5h29q56 1 110 -5q68 -8 123 -53q31 -27 51.5 -60.5t36.5 -68.5q35 -86 42 -185t9 -192q2 -67 2 -134 q0 -133 -8 -265q-2 -29 -3 -54.5t-5 -51.5q0 -12 -4 -22.5t-10 -20.5q-6 -12 -24 -19q-18 -6 -40 -7h-11q-17 0 -31 2q-20 3 -29 11q-13 29 -13 71v19q4 54 4 91q-1 53 -1 106v53q1 80 1 158q0 62 1 126v15q0 56 -7 111q-4 45 -22.5 92t-48.5 82q-27 33 -76 42q-10 2 -20 2 q-36 0 -62 -26q1 -46 1 -92q0 -114 -4 -230q-5 -160 -9 -323q0 -57 -1 -113.5t-3 -113.5v-25.5t-7 -23.5q-12 -20 -30.5 -25.5t-40 -2.5t-43 9.5t-39.5 6.5q-9 199 -13 397z" />
<glyph unicode="i" horiz-adv-x="423" d="M114 1354q5 45 36.5 73.5t76.5 30.5h4q43 0 78 -39l2 -2l4 -4q15 -36 15 -41q0 -3 -4 4q1 -7 1 -14q1 -28 -13 -52q-16 -30 -42 -46.5t-59 -18.5h-6q-30 0 -55 19q-39 40 -39 81q0 4 1 9zM118 124q5 58 5 105v187.5t2 187.5l4 148q1 37 1 73.5t-1 73.5l-6 154 q0 29 -3 62.5t5 62.5q10 0 41 5q32 5 64 8q16 2 30 1q14 0 28 -1q26 -3 31 -15q5 -28 5 -57q0 -7 -1 -14q-2 -36 -4 -71q-4 -88 -10 -174t-10 -172q-5 -102 -5 -203v-33v-79q0 -78 -1 -156q-1 -22 -1 -43v-22q1 -32 5 -64q0 -8 2 -20.5t2 -24.5t-5 -21.5t-17 -11.5 q-18 -3 -35 -3h-8q-20 1 -43 3q-12 0 -31 6.5t-25 6.5q-4 0 -5 -1.5t-3 -1.5q-12 36 -12 78q0 12 1 26z" />
<glyph unicode="j" horiz-adv-x="378" d="M-205 -213q-4 7 -4 14q0 9 7 17q12 16 22 26q14 16 21 37t30 27q18 0 33.5 -9.5t34.5 -13.5q11 -2 20 -2q40 0 67 26q33 32 51.5 86t26 122.5t8.5 134.5v62.5v57.5v34q0 31 1 49v200.5t1 190.5t3 187t6 190q60 10 118 10h19q20 0 29.5 -12.5t12.5 -28.5q2 -12 2 -25v-9 q-1 -19 -1 -34q-3 -128 -3 -269v-72v-90q0 -133 -2 -260q-3 -169 -16.5 -311t-45.5 -226q-18 -37 -51 -74t-74 -64.5t-86 -43.5q-36 -12 -69 -12q-9 0 -17 1q-39 4 -80 25.5t-64 58.5zM158 1479q20 10 42 10h7q26 -2 49 -14.5t34 -33.5q6 -12 6 -26q0 -11 -3 -22 q-4 -41 -31 -62q-26 -24 -56 -24q-4 0 -8 1q-34 3 -57 35q-19 28 -19 68q0 46 36 68z" />
<glyph unicode="k" horiz-adv-x="892" d="M104 78.5q0 21.5 1 42t1 37.5q-1 44 -1 88v45q1 67 4 133q4 104 4 207.5t2 208.5q0 124 1 244v80q0 81 -1 163v101.5t-2 101.5l-4 49q-2 14 17 19.5t46 5.5t51.5 -4.5t30.5 -4.5q10 0 18.5 -1t18.5 -1q-2 -61 -4 -145t-3 -176t-2 -183.5t-1 -167t1 -128t5 -66.5 q39 27 62.5 70t49.5 80q29 41 56.5 78.5t56.5 74.5q20 29 39.5 54.5t42.5 50.5q10 12 30.5 11t34.5 1q31 2 63 2t62 -4q5 -14 5 -27q0 -8 -2 -16q-5 -20 -17 -39t-27.5 -35t-27.5 -31q-29 -33 -56.5 -65.5t-56.5 -67.5q-25 -29 -50.5 -58.5t-47.5 -60.5q-6 -10 -10.5 -16 t0.5 -16l24 -60l117 -291q16 -41 32.5 -79.5t34.5 -77.5l50 -115q8 -18 19 -42.5t-13 -41.5q-20 -2 -41 0t-41 0q-18 0 -39 -5t-31 13q-23 37 -38 78t-29 80q-74 197 -172 381q-23 -16 -44.5 -40t-35.5 -46q-10 -18 -6 -51t6 -54q7 -76 7 -150v-18q-1 -82 -1 -169 q-9 -15 -29 -21q-16 -5 -36 -5h-8q-24 1 -50.5 3t-50.5 0q-8 14 -11.5 34.5t-3.5 42z" />
<glyph unicode="l" horiz-adv-x="413" d="M102 60q-1 9 -1 18q0 8 1 18q2 18 2 31q4 57 6.5 114.5t4.5 116.5q2 65 2 129q0 48 -1 96.5t-1 96.5q0 64 2 129l8 111q0 25 -2 47t2 45t0 47t-4 47v53.5t2 52.5q0 49 1 97.5t3 95.5q2 23 2 46.5t-4 45.5q-4 29 2 57.5t6 57.5q35 10 75 11t75 9q8 -10 13 -31.5t8 -49 t4 -55.5v-18q0 -17 -1 -30q-2 -53 -9 -106.5t-11 -106.5q-3 -35 -3 -71q0 -18 1 -36q2 -54 2 -108q-2 -47 -3 -94v-31q0 -32 1 -64q1 -35 1 -70v-35v-21q0 -42 3 -84v-22q1 -43 -5 -83q-5 -37 -6 -74q0 -15 1 -30q2 -27 -1.5 -51.5t-1.5 -51.5q0 -25 4.5 -50.5t4.5 -51.5 v-55.5t-2 -55.5q0 -18 -1 -40.5t-12 -39.5q-39 -4 -68.5 -7t-76.5 -9q-12 8 -16.5 25t-6.5 35z" />
<glyph unicode="m" horiz-adv-x="1323" d="M104 1108.5q0 21.5 3.5 40t13.5 25.5q10 4 28.5 0.5t30.5 -3.5l36 4.5t36 -4.5q12 -12 10 -30.5t2 -38.5q23 10 39 24.5t39 24.5q66 27 129 27q66 -2 123 -48q12 -10 24.5 -19t22.5 -19q4 -4 10 -15.5t15 -11.5q16 6 25 21.5t24 25.5q39 33 92 53q44 18 88 18 q49 0 98 -22q18 -10 39 -18t37 -23q16 -16 27.5 -36.5t23.5 -39.5q23 -37 36 -78.5t20 -84.5q10 -53 13 -106.5t9 -106.5q4 -27 8 -86.5t7.5 -124t5.5 -121.5t2 -82l-4 -123q-2 -27 0 -55.5t-11 -52.5h-12q-28 1 -56 -7q-34 -10 -69 -10q-31 -2 -39 12.5t-14 42.5 q-13 71 -13 143v10q1 77 3 155q3 64 3 126v31q-1 78 -12 158q-4 39 -5 75t-13 72q-10 35 -19.5 69t-29.5 65q-8 14 -23.5 23t-33 12.5t-34 -3t-28.5 -20.5q-4 -6 -19.5 -28.5t-31 -48.5t-28.5 -50.5t-15 -34.5q-4 -35 -5 -71v-23q0 -24 1 -47q6 -162 15 -323t13 -322 l-184 -9q2 76 4 144q2 60 3 120v23q0 45 -3 78q-8 80 -10 159q-1 40 -1 80t1 81v61.5t-3 68t-12.5 65.5t-29.5 54q-23 27 -52.5 38.5t-59 7t-56.5 -21.5t-45 -48q-16 -29 -16.5 -64t-2.5 -65q-1 -27 -1 -54v-27q1 -40 3 -79q2 -82 9.5 -162t9.5 -162q0 -35 2 -71.5t4 -71.5 q2 -37 6 -83q1 -13 1 -26q0 -31 -7 -57q-35 -6 -76 -8q-14 -1 -27 -1q-26 0 -51 3q-10 8 -13 26.5t-3 40t2 41t2 31.5l-6 176q-2 88 -5 175.5t-9 175.5q-5 94 -7 186q0 31 -1 61q0 61 2 123q0 8 -2.5 28.5t-2.5 42z" />
<glyph unicode="n" horiz-adv-x="825" d="M104 154q5 68 9 141q6 66 6 131.5t2 130.5q2 147 11 293.5t11 294.5q8 10 22.5 16t31 9.5t32 5.5t27.5 6t22 4q22 0 32 -20q14 -28 14 -62q66 41 142 43h6q73 0 134 -47q31 -25 45.5 -54.5t20.5 -66.5q8 -47 17 -92t13 -92q8 -98 10.5 -197.5t6.5 -198.5q3 -39 3 -78v-20 q-1 -49 -5 -98q-3 -30 -3 -60q0 -15 1 -31v-18q0 -37 -6 -74q-16 -6 -35 -4t-35 4q-16 4 -32.5 2t-31.5 3q-23 10 -20.5 34.5t4.5 42.5q2 35 3 68t5 68q4 66 6 131t5 131q0 68 -1.5 135t-11.5 133q-4 25 -6 56.5t-8 62.5t-21.5 54.5t-46.5 31.5t-54 2t-41.5 -22.5t-35 -38 t-33.5 -40.5q-20 -23 -23 -57.5t-5 -64.5l-10 -146q-4 -72 -9.5 -144.5t-7.5 -144.5q0 -81 2 -159q0 -13 1 -26q0 -66 -9 -132q-21 2 -44 2q-17 0 -34 -1h-13q-33 0 -56 13q-8 51 -8 100q0 20 1 40z" />
<glyph unicode="o" horiz-adv-x="880" d="M106 499q-2 36 -3 71q-1 55 5 110q8 90 33 176t74 162q49 74 126 98q33 10 68 9q46 0 93 -17q74 -29 121 -76t77 -119q35 -78 50.5 -160.5t21.5 -168.5q4 -43 6 -87q1 -15 1 -29q0 -29 -3 -58q-2 -18 -7 -35t-9 -33q-6 -18 -6 -35t-11 -33q-10 -49 -30.5 -96t-50.5 -88 q-14 -18 -27.5 -32.5t-36.5 -26.5q-4 -2 -14.5 -6.5t-19.5 -8.5t-16 -5t-7 5q-23 -16 -62 -16t-63 8l-58 10q-16 2 -26 9.5t-27 13.5q-90 37 -132 112.5t-52 168.5q-9 86 -15 177zM259 611q-2 -19 -2 -37q0 -22 3 -42q5 -30 5 -60v-10v-13q0 -28 3 -56q2 -23 7.5 -51.5 t12.5 -57t19 -54t31 -42.5q14 -12 37.5 -21t50.5 -13q15 -2 30 -2q12 0 22 1q24 3 40 17q20 18 30.5 47t14.5 60.5t5 63.5t1 56q2 69 3 133v25q0 52 -3 107q-4 35 -6 67.5t-12 65.5q-10 29 -9 53t-16 53q-14 25 -27.5 42.5t-43.5 21.5q-11 1 -21 1q-16 0 -30 -4 q-20 -7 -44 -30q-23 -23 -35 -51.5t-18 -57.5q-10 -33 -19 -66.5t-16 -66.5q-8 -37 -13 -79z" />
<glyph unicode="p" horiz-adv-x="866" d="M104 138q5 243 11 485v76.5t3 129t7 151.5t12 144.5t20.5 108.5t30.5 45q13 1 27 1h13q20 -1 40 -1q16 0 23.5 -3t19.5 -9q4 -14 4 -27.5t4 -26.5q53 14 107 22q19 3 38 3q36 0 71 -10q47 -16 84.5 -49t62.5 -74q63 -109 74 -234q5 -71 5 -140q0 -53 -3 -105 q-3 -44 -3 -87q0 -22 1 -44v-17q0 -56 -11 -112q-10 -55 -31.5 -107.5t-56.5 -97.5q-45 -55 -111 -92q-59 -33 -125 -33h-15q-31 2 -57.5 15.5t-55.5 17.5q0 -80 -2 -158q-2 -66 -4 -137.5t-4 -124.5q-35 -4 -81 -4t-81 4q-19 200 -19 397q0 47 2 93zM287 380q0 -46 16 -85 q31 -33 78 -61q27 -17 57 -17q23 0 49 10q39 29 61 77.5t32 107.5q16 109 18 220v44q0 89 -6 176q-4 45 -22.5 89t-43.5 81q-27 41 -66 44h-9q-34 0 -70 -19q-45 -23 -58.5 -66t-19.5 -90q-14 -94 -14 -188v-24q1 -35 1 -70q0 -71 -3 -140v-89z" />
<glyph unicode="q" horiz-adv-x="923" d="M102 508q0 127 14.5 258t67.5 248q23 53 62 86t92 49q29 9 59 9t61 -10q60 -18 111 -50q-4 16 -4 35.5t-2 35.5q40 20 90 20l3 -1q51 0 92 -12q7 -50 7 -101q0 -31 -3 -62q-7 -81 -7 -163q0 -92 1 -180q1 -29 1 -59q0 -60 -2 -122q-2 -82 -6 -162.5t-6 -162.5 q-1 -29 -1 -58v-29q1 -44 5 -87t6 -88t15 -88q16 -4 29.5 0t23.5 -13q4 -16 6 -33.5t4 -35.5v-17.5t-3 -28t-8 -26.5t-13 -12q-8 4 -22.5 6t-18.5 2q-29 0 -58.5 11t-50.5 30q-31 27 -52.5 65.5t-33.5 81.5t-15 87q-1 19 -1 37q0 25 2 48q-29 -10 -59.5 -16t-61.5 -6 q-23 2 -43.5 6t-42.5 8q-10 2 -30.5 16.5t-42 31t-37 30.5t-17.5 18q-4 6 -16.5 22.5t-25.5 37t-24.5 42t-13.5 38.5q-31 129 -31 264zM280 450q3 -88 25 -169q10 -35 28.5 -61.5t53.5 -37.5q21 -5 38 -5q15 0 27 4q27 9 43.5 25.5t24.5 34t10 21.5q2 8 5.5 56.5t5.5 118 t3 148.5t1 146.5t-1 114.5t-3 51q-16 25 -39 47.5t-48 32.5q-14 6 -29 6q-10 0 -21 -3q-25 -7 -44 -42q-16 -29 -23 -60.5t-15 -62.5q-12 -47 -23.5 -95t-15.5 -95q-4 -57 -4 -116q0 -29 1 -59z" />
<glyph unicode="r" horiz-adv-x="727" d="M104 1218v6q0 14 9 27q16 14 36.5 12.5t40.5 -1.5q22 0 44 5q7 2 15 2q15 0 30 -7q0 -14 2 -27q0 -10 1 -23.5t3 -25.5q23 4 44 18.5t44 18.5q41 10 86 10q19 0 39 -2q33 -4 59.5 -19.5t49 -36t41 -45t34.5 -49.5q12 -17 12 -31q0 -5 -2 -10q-6 -18 -24 -34 q-8 -6 -19.5 -17.5t-25 -21t-26.5 -14.5t-24 -1q-20 8 -36.5 30t-38.5 32q-23 10 -48.5 16t-52.5 2q-25 -4 -42 -19.5t-29.5 -37t-20.5 -46t-10 -44.5q-4 -35 -6 -113t-2 -166t1 -167t1 -115q2 -46 2 -91q0 -34 -1 -67q-3 -78 -7 -158q-16 -6 -35 -6h-35q-19 2 -41 -1 q-8 -1 -14 -1q-14 0 -25 4q-12 4 -16 19.5t-4 34t2 37t2 28.5q0 88 5 175q3 48 3 98q0 39 -2 79q-3 82 -3 162v41q1 100 3 205q0 47 -2 96t-6 98q-2 27 -2 53.5t-4 53.5q-3 16 -5 34z" />
<glyph unicode="s" horiz-adv-x="841" d="M100 176q0 6 18.5 25.5t43 39t49.5 31t39 -1.5q31 -25 73 -56q43 -30 83 -41q15 -4 28 -4q25 1 47 13q35 20 49 94q4 19 4 38q0 52 -30 98q-40 62 -99 114t-123.5 98t-101.5 93q-35 45 -47 92t-12 100t25.5 115.5t68.5 101.5q67 59 145 75q38 8 71 8q36 0 67 -9 q55 -14 93 -34.5t61.5 -41t33.5 -36t10 -17.5q-10 -14 -30.5 -35.5t-42 -39t-40 -28t-24.5 -3.5q-23 25 -56.5 41t-68.5 18h-8q-30 0 -56 -14q-28 -16 -40 -56q-7 -27 -7 -52q0 -23 6 -42q13 -41 41.5 -75.5t66.5 -64.5t75 -58q74 -59 134 -129t83 -160q5 -23 5 -51v-10 q-1 -34 -7 -68.5t-18.5 -66.5t-28.5 -54q-16 -23 -32.5 -42.5t-67.5 -47.5q-33 -18 -74 -26.5t-81 -8.5t-76 6t-56 16q-31 12 -60.5 27.5t-54.5 36.5q-8 4 -21.5 15.5t-26.5 25.5t-22.5 27.5t-7.5 23.5z" />
<glyph unicode="t" horiz-adv-x="763" d="M106 1099q-2 7 -2 14q0 14 7 30q29 2 52 3t52 1q7 25 7 51q0 12 -1 22q-3 25 -3 48q0 12 1 24q2 20 2 38q0 14 -1 26q-3 30 1 61q14 8 36 11.5t47.5 3.5t51 -1t45.5 -1q2 -51 7 -103q4 -43 6 -92t4 -84q41 -9 86 -9h9.5h8.5q45 0 86 -9q2 -12 7.5 -30t7.5 -36t-2.5 -34.5 t-16.5 -24.5q-16 -10 -38.5 -9.5t-39.5 0.5q-29 0 -55.5 1t-54.5 -5q-7 -79 -7 -159q0 -32 1 -64q4 -112 4 -223q-1 -18 -1 -35q0 -36 3 -72q4 -54 8 -106q0 -14 3 -42t9 -54.5t18.5 -48t32.5 -23.5q16 0 28.5 13.5t29.5 13.5q6 0 25.5 -11.5t40 -26t36 -27.5t15.5 -19 q0 -16 -10.5 -34t-20.5 -28q-27 -33 -74 -43q-29 -6 -55 -6q-15 0 -29 2q-31 6 -58.5 18.5t-54.5 24.5q-45 23 -66.5 73t-28.5 109.5t-7 119t-2 102.5q-8 133 -8 265t-19 265q-23 6 -47 10t-55 0q-18 10 -15 29.5t1 36.5q-1 23 -7 44z" />
<glyph unicode="u" horiz-adv-x="950" d="M100 835.5q0 77.5 1 133t1 69.5v76t7 76q16 8 41.5 11t53 3t53.5 -4t44 -10q6 -4 6 -25.5t-2 -27.5q0 -6 -3 -50.5t-6 -110t-6 -140t-6 -142t-5.5 -118t-2.5 -62.5q1 -20 1 -41q0 -31 -2 -63v-12q0 -46 20 -89q6 -12 12 -26.5t17 -24.5q6 -6 26 -18q20 -11 50 -17 q22 -4 50 -4h18q38 2 81 21q18 10 31.5 28.5t19.5 36.5q14 35 20.5 73t8.5 77q3 59 3 117q0 29 -1 58q-2 87 -4 175q-2 86 -7.5 172t-15.5 172v8q0 43 60 47q18 0 36.5 2t36.5 4h13.5h24.5h25.5t16.5 -2q4 -4 5 -41q0 -18 0.5 -39.5t-0.5 -46.5q-1 -49 -2 -100v-32 q0 -30 1 -50q1 -36 1 -72.5t-1 -72.5l-4 -148v-38q1 -118 11 -234q12 -135 16 -275q-6 -2 -6 -5t-4 -9q-23 -16 -54.5 -14t-60.5 0q-35 -4 -42 14t-20 41q2 -4 -11 -16.5t-17 -14.5q-25 -20 -51 -32q-16 -8 -39 -11.5t-41 -7.5q-26 -7 -55 -7q-11 0 -23 1q-37 4 -75 16.5 t-73 30.5q-27 14 -51 40t-41 50q-20 29 -30.5 60.5t-20.5 64.5q-10 27 -15 90.5t-8.5 145.5t-4.5 172t-1 167.5z" />
<glyph unicode="v" horiz-adv-x="757" d="M104 1198q47 4 84 4q33 0 63 -2t40 -8q-2 -10 3 -48t13 -90.5t19.5 -111.5t21.5 -111.5t18.5 -91.5t12.5 -49q14 59 31.5 144.5t32 164t23.5 136t9 61.5q20 23 62.5 23h83.5q34 -12 34 -39q0 -22 -6 -47q-4 -12 -15 -95.5t-27.5 -200t-35 -250.5t-35 -251t-27.5 -200 t-13 -95q-4 -16 -11.5 -28.5t-25.5 -12.5h-29.5t-38 1t-34 2t-17.5 3q-4 6 -15.5 56.5t-30 129t-40 177t-43 203t-41.5 208t-36 188.5t-24 146q-7 49 -6 74v10z" />
<glyph unicode="w" horiz-adv-x="1253" d="M106 1094q-2 8 -2 15t2 12q4 9 15.5 13.5t27 6.5t31.5 6q39 8 74 9h2q34 0 49 -38q4 -12 10.5 -58t13.5 -112.5t15 -145.5t15.5 -155t14.5 -140.5t13 -103.5q6 14 15.5 74t22.5 141.5t28.5 174t31 169t30.5 127t28 50.5q8 0 24.5 -1t35 -2t34.5 -2t25 -4q18 -4 23 -26.5 t9 -38.5q4 -14 15.5 -56t26 -100.5t32.5 -125t34.5 -130t32 -116t25.5 -82.5q6 12 17.5 67.5t22.5 130t23.5 160.5t21.5 158.5t14.5 124t5.5 57.5q39 2 75 2q31 0 60.5 -3t46.5 -11q4 -2 4 -21q0 -12 -2 -32q-4 -50 -16.5 -128.5t-31 -177t-38 -201t-39.5 -200.5t-36.5 -176 t-27 -127t-10.5 -53q-33 -8 -69 -8q-11 0 -22 1q-48 3 -95 7q-4 12 -14.5 61t-25.5 116.5t-32.5 147.5t-35 154t-32 134t-22.5 91q-16 -33 -30.5 -96.5t-28 -142t-23.5 -161.5t-19 -153t-16.5 -117t-11.5 -53q-29 -6 -60.5 -3t-60.5 -3q-4 2 -23.5 81t-46 198.5t-56 258 t-56.5 260.5t-44 204.5t-20 91.5z" />
<glyph unicode="x" horiz-adv-x="929" d="M106 1117q5 9 15 14.5t24.5 6.5t22.5 1q18 0 36.5 2t35.5 8q25 4 37 0t18 -15.5t10 -26.5t10 -34q31 -76 55.5 -161t73.5 -152q16 20 37 79.5t42.5 123t43 115.5t39.5 63q16 10 38 14t45.5 6t46 3t40.5 5q17 4 27 4q17 0 21 -10q2 -5 2 -13q0 -14 -7 -36 q-10 -31 -38.5 -98.5t-61.5 -142t-63 -141t-42 -97.5q-12 -27 -21 -50.5t-16.5 -40t-12.5 -24.5t-7 -4q2 -4 18.5 -40t40 -85t51 -101t52.5 -89q10 -16 24.5 -37t27.5 -43.5t20.5 -45t3.5 -42.5q-4 -12 -33 -18.5t-64 -8.5q-26 -3 -57 -3q-16 0 -33 1l-67 113 q-29 47 -58.5 94t-46.5 80q-23 -31 -35 -55.5t-21 -47t-18.5 -48t-23.5 -60.5q-14 -37 -34.5 -55.5t-47.5 -22.5q-11 -2 -22 -2q-18 0 -38 4q-32 6 -69 16q-6 8 0 33t20.5 62t35 81t42.5 89q53 104 123 235q-20 66 -41 123q-16 49 -32.5 97t-24.5 73q-29 74 -60.5 144.5 t-78.5 136.5q-7 9 -7 16q0 4 2 7z" />
<glyph unicode="y" horiz-adv-x="845" d="M104 1157q0 47 7 53q25 -2 70.5 -2t72.5 2q21 -53 21 -112q0 -6 -1 -12q-2 -66 -6 -125q0 -29 2 -89.5t6.5 -128t9.5 -129t9 -88.5q6 -43 9 -87t26 -83q12 -25 38.5 -50t55.5 -25q14 0 29.5 7t30 18t24.5 21.5t14 16.5q23 33 27 70t10 71q2 10 3 53.5t1 103.5t-2 129 t-3 131.5t-3 110.5t-4 64q-2 14 -4 28.5t2 31.5q2 14 -3 33.5t3 29.5q33 16 81 16q4 1 9 1q43 0 82 -5q14 -59 17 -120.5t3 -124t-3 -123.5q-2 -37 -2 -74q0 -25 1 -49l4 -146q2 -31 2 -62q0 -47 -4 -95q-6 -78 -6 -156q0 -33 -1 -64.5t-3 -64.5q-4 -59 -18.5 -114.5 t-36.5 -112.5q-31 -76 -76 -116t-89 -58.5t-79 -20.5t-41 -2t-23.5 7.5t-36 15.5t-36 17t-25.5 15q-16 10 -23 15.5t-12 25.5q2 4 6.5 16.5t8.5 16.5q6 8 15 24.5t20.5 33t22.5 31t20 16.5q33 -18 62 -39q18 -14 41 -14q13 0 26 4q25 6 41 25.5t26 45t14.5 52t4.5 49.5 q-51 -31 -107 -31q-20 0 -40 4q-79 14 -138 65q-35 31 -57.5 70t-37 83t-21.5 90t-13 91q-16 102 -16 204.5t2 207.5q0 27 -2 84t-4.5 116.5t-2.5 106.5z" />
<glyph unicode="z" horiz-adv-x="806" d="M103 50q3 24 14.5 50.5t17.5 44.5q8 27 36 100.5t63.5 170t73.5 202t68 194.5q30 90 44 148q8 34 8 49q0 11 -4 13q-10 4 -40 4t-64.5 -1t-67.5 -4t-47 -7q-12 -2 -27.5 -2t-29 4t-23.5 13t-10 26q0 35 -1 59.5t11 59.5q35 6 89 9t115.5 5t123 2h111.5t81 -2t33 -2 q1 -3 1 -9q-1 -22 -19 -83q-24 -76 -61.5 -180.5t-83.5 -226.5t-87 -230.5t-68.5 -191t-27.5 -111.5q16 -4 53 -3t80 2t88 3q12 1 23 1q31 -1 58 -5q36 -6 55.5 -16.5t10.5 -33.5q3 -22 3 -45v-13q-1 -30 -11 -52h-51h-93h-114.5h-117t-100.5 -1t-62 -1q-34 0 -44 18 q-7 13 -8 30q0 6 1 12z" />
<glyph unicode="{" horiz-adv-x="731" d="M104 887q2 29 15.5 57.5t30.5 48.5q10 14 22 25.5t25 21.5q27 23 48 49.5t31 61.5t11.5 70.5t-0.5 72.5q-4 66 -5 138.5t33 134.5q16 29 49 55.5t64 36.5q18 8 36.5 10t37.5 4q4 0 17 1t26.5 1t26 -1t14.5 -5q8 -12 10 -37.5t2 -54.5q0 -33 -2 -68q-18 4 -35 7 q-33 4 -63 -13q-25 -14 -36 -41.5t-12 -58.5t2 -62.5t7 -56.5q10 -88 -12.5 -176t-75.5 -158q-4 -4 -14.5 -14t-22.5 -22.5t-20.5 -23.5t-8.5 -13q4 -16 13.5 -27.5t19.5 -24.5q12 -6 30.5 -30.5t36 -53t31 -53t15.5 -31.5q18 -45 25 -92t11 -96q2 -10 2 -35.5v-53.5v-49.5 t3 -23.5q10 -35 26.5 -60.5t52.5 -31.5q8 -2 17.5 -1t17.5 -1t14.5 -7t6.5 -18q0 -10 -1 -27.5t-3 -36t-5.5 -32.5t-5.5 -16q-6 2 -36.5 -4t-70.5 -5t-81 17t-66 63q-31 57 -43 109.5t-16 114.5q-4 33 -2 68.5t2 72.5t-6 73t-23 64q-16 27 -39.5 45.5t-48.5 34.5 q-31 25 -55.5 71t-22.5 87z" />
<glyph unicode="|" horiz-adv-x="425" d="M103 32.5q-1 26.5 1 52.5t5 46q12 117 14 231.5t4 231.5q2 90 1 213t-4 251t-7 251t-8 213v58.5t2 57.5q0 10 -2.5 29t-2.5 39t3.5 35.5t15.5 19.5q25 10 53.5 11.5t52.5 1.5q14 0 29.5 1t30 -2.5t24 -11.5t9.5 -26q-2 -47 -6.5 -95.5t-6.5 -95.5v-81v-118.5v-120v-81.5 q-2 -102 -9 -202.5t-7 -201.5q0 -104 6 -206.5t2 -206.5q-4 -41 -4 -82t2 -82q2 -43 4 -92t-8 -90q-33 -25 -78 -28t-84 -5q-18 14 -24.5 36.5t-7.5 49z" />
<glyph unicode="}" horiz-adv-x="720" d="M104 1553.5q0 15.5 2.5 29.5t6.5 27q10 35 29.5 37t52.5 0q53 -2 108 -22.5t84 -72.5q33 -55 41 -113.5t13 -116.5t16.5 -115.5t52.5 -108.5q16 -23 35.5 -44.5t36 -46t26.5 -51t8 -57.5q-2 -35 -17 -63.5t-35.5 -53t-42 -49t-38.5 -53.5q-33 -59 -31.5 -127t7.5 -135.5 t3 -134t-46 -121.5q-27 -37 -67 -60.5t-81 -35.5q-18 -4 -36.5 -8.5t-34.5 -4.5q-10 -2 -16.5 1t-12.5 7v-2q-10 -10 -15.5 0.5t-2.5 16.5q-8 35 -6.5 70.5t6.5 78.5q39 4 78.5 18.5t56.5 55.5q10 61 9 129t0 135.5t12 131t48 118.5q12 18 29.5 34.5t28 32t8.5 32t-25 34.5 q-53 41 -76.5 98.5t-31.5 124.5q-8 61 -6 126t-15 124q-6 29 -20.5 42.5t-32.5 20.5t-39.5 11t-42.5 14q-14 6 -20.5 18.5t-6.5 28z" />
<glyph unicode="~" horiz-adv-x="1075" d="M106 784q6 12 18.5 24.5t28 23t32 20.5t26.5 16q76 47 149.5 56.5t149.5 -43.5q27 -18 64.5 -42t76.5 -36t75 -5t60 50q10 20 33 27.5t48.5 5.5t49 -12.5t35.5 -22.5q23 -16 19 -39t-20.5 -44.5t-37 -41t-30.5 -29.5q-43 -45 -100.5 -59.5t-118 -8t-118 28t-100.5 49.5 q-63 45 -116.5 38t-108.5 -52q-16 -16 -29.5 -22.5t-21.5 6.5q-23 23 -48.5 54.5t-15.5 57.5z" />
<glyph unicode="&#xa1;" horiz-adv-x="423" d="M104 1034q8 29 40 45.5t61 20.5q16 2 36.5 -15.5t30 -44t-2 -56t-60.5 -54.5q-31 -10 -53.5 -2t-34.5 26.5t-16.5 41t-0.5 38.5zM113 664q-4 47 16 77q8 14 26.5 21.5t38 9.5t35 2h21.5q23 0 34 -3t15 -30q4 -39 -4 -78.5t-8 -78.5q0 -33 3 -112t6 -179t8 -211t8 -206 t5 -162.5t2 -82.5q-2 -37 -5 -83t-23 -76q-29 -10 -68 -7t-61 13q-4 33 -10.5 120t-11.5 199.5t-9 238.5t-7 236.5t-5 193.5t-2 112q0 39 -4 86z" />
<glyph unicode="&#xa2;" horiz-adv-x="851" d="M106 722q3 120 13 245q4 37 10 74.5t23 72.5q16 37 41.5 68.5t48.5 66.5q35 10 62.5 26.5t68.5 20.5q6 23 5 52.5t-1 59.5t3 57.5t17 45.5q16 0 31.5 -2t36.5 2q20 4 41.5 12.5t34.5 -10.5q4 -8 6 -23t2 -24q2 -23 0 -48t-2 -50q0 -18 -1 -33.5t-1 -31.5 q29 -10 55.5 -19.5t50.5 -26.5q31 -20 47.5 -45.5t32.5 -56.5q6 -14 13.5 -25.5t3.5 -29.5q-20 -16 -43 -30.5t-46 -18.5q-2 -4 -12 -11.5t-18 -5.5q-2 0 -15.5 13.5t-31 29t-30.5 26.5t-15 5q-6 -23 -6.5 -47.5t-2.5 -48.5q-2 -10 -4 -19.5t-2 -19.5q-2 -20 1 -37.5 t3 -38.5q-6 -150 -2 -297t17 -270q12 4 22 19.5t19 27.5q35 -4 71.5 -19.5t71.5 -23.5q14 -14 14 -29.5t-7 -31t-16 -32t-14 -32.5q-18 -25 -37.5 -47.5t-48.5 -38.5q-25 -10 -43 -19.5t-45 -17.5q-4 -31 -6 -67.5t-18 -57.5q-47 2 -85 0t-89 -4q-8 31 -6 66.5t0 76.5 q-20 20 -48 36t-51 28q-20 16 -33.5 37.5t-27.5 40.5q-10 14 -18.5 29.5t-16.5 33.5q-16 41 -17 85t-3 87q-6 125 -3 245zM283 696q2 -33 1 -64.5t1 -60.5q2 -25 3 -53.5t4 -58t10 -55t20 -44.5q4 -4 7 -9t9 -3q10 86 14 168t0 172q-4 100 6.5 200.5t3.5 213.5q0 4 -2 2 q-14 -4 -23.5 -12.5t-19.5 -14.5q-14 -27 -17 -55.5t-5 -60.5q-4 -76 -10 -134.5t-2 -130.5z" />
<glyph unicode="&#xa3;" horiz-adv-x="1103" d="M102 681.5v37.5q0 49 50 49q25 0 50 1t48 3q8 10 8 19.5t-2 17.5l-8 186q-2 23 -1 45.5t1 44.5q2 23 1 46.5t-1 46.5t-2 45t-2 45q2 86 31.5 156.5t93.5 127.5q37 37 82 66q100 57 202 43q51 -6 99 -25q47 -20 84 -57q29 -31 2 -57q-20 -23 -40 -41.5t-42 -38.5 q-29 -29 -62 -10l-32 16q-33 20 -66 22q-29 6 -53 -12q-47 -29 -64 -86q-10 -27 -15 -53.5t-11 -52.5q-4 -18 -4 -38t-3 -40q-2 -14 -2 -27.5t-4 -27.5q-4 -41 -5 -80t1 -78q4 -39 4 -78t4 -78q0 -10 1 -19t1 -20q12 -6 23.5 -6h22.5l184 6h39q35 -2 37 -37q2 -10 3 -22 t-1 -25q-2 -16 -3 -30.5t-6 -30.5q-4 -18 -12 -25.5t-31 -5.5q-4 0 -6 1t-4 1q-45 -6 -88 -3t-88 3q-27 0 -39 -3t-16 -9t-4 -17.5v-29.5q-4 -39 0 -76q4 -49 -3.5 -97t-17.5 -98l-4 -24t-6 -27q12 -10 24.5 -12t22.5 -2q39 -4 76 -6t76 -2q33 -2 64.5 6t62.5 18 q47 16 59 66l10 37q6 14 25 18q63 2 131 -16q16 -4 21.5 -16.5t-1.5 -28.5q-16 -47 -37.5 -89t-52.5 -83q-16 -23 -38.5 -38.5t-47.5 -27.5q-37 -18 -75.5 -29.5t-79.5 -7.5q-25 4 -49.5 2t-49.5 -2q-57 0 -114.5 2t-116.5 11l-150 12q-4 0 -8 1t-8 1q-6 35 -7 67.5t-3 67.5 q8 8 14 15.5t16 11.5q53 41 72 110q12 41 8 92l-4 154q-2 10 -2 18.5t-8 18.5q-14 2 -27.5 0t-27.5 -2q-16 0 -32.5 -1t-33.5 -1q-20 0 -26 24q-4 10 -5 31q-2 18 -2 36.5z" />
<glyph unicode="&#xa4;" horiz-adv-x="931" d="M106 -20q-6 12 0.5 29.5t15.5 37t20.5 35.5t17.5 27q4 6 13 18t18.5 25.5t16.5 27t9 21.5q2 20 -9 41.5t-15 40.5q-6 29 -5.5 62.5t-1.5 68.5q-4 53 -3 104t5 105q4 47 20.5 92t22.5 92q4 23 0 37t-16 37q-4 6 -17.5 28.5t-27.5 47t-25.5 45t-9.5 24.5q14 29 45 46.5 t56 39.5q37 -25 59 -64.5t51 -74.5q0 2 11.5 8t26.5 12t28.5 12.5t17.5 6.5q27 4 52.5 3t52.5 -5q4 0 17 -3t26.5 -6.5t25.5 -5.5l12 -2q8 4 12.5 13.5t6.5 19.5q2 4 11 14.5t13 16.5q6 12 14.5 24.5t12.5 26.5q18 8 36.5 5t36 -11t35 -18.5t33.5 -16.5q6 -2 -5 -42 t-28.5 -89t-33 -93t-15.5 -55q-2 -23 0.5 -45t4.5 -45q4 -72 12 -143.5t10 -142.5q0 -35 -2 -68t-8 -68q-4 -25 -15.5 -50t-9.5 -50q4 -33 29 -63.5t41 -59.5q10 -16 17 -29.5t-3 -35.5q-6 -4 -12 -8.5t-16 -2.5q-18 -18 -47 -31.5t-58 -11.5q-4 -4 1 -4t3 -4q-10 0 -10 5.5 t-8 7.5q-4 8 4 8q-12 16 -24.5 40.5t-28.5 43.5q-29 -20 -70 -29.5t-76 -7.5q-6 0 -28.5 5t-46 12t-43 14.5t-19.5 13.5q-2 10 -9 14t-14 10q-10 -45 -27.5 -81.5t-45.5 -65.5q-23 -6 -32 3t-19 18q-8 4 -21.5 11t-23.5 13q-8 4 -11.5 8t-11.5 2q0 2 -9.5 3.5t-11.5 5.5z M352 600q2 -55 7.5 -111.5t15.5 -109.5q8 -37 24.5 -82t46.5 -70q16 -14 33 -15t32 6t26.5 21.5t19.5 30.5q23 47 28 95.5t15 97.5q-6 66 -5 134.5t-22 131.5q-8 25 -25.5 45.5t-40 31.5t-48 12t-47.5 -15l-19 -17q-35 -35 -39 -88t-2 -98z" />
<glyph unicode="&#xa5;" horiz-adv-x="964" d="M104 1569q-2 10 2.5 22.5t-0.5 22.5q-2 4 5.5 11t9.5 11q33 10 62.5 20.5t60.5 20.5q8 2 22.5 -31.5t30.5 -86t34.5 -115t35 -119.5t26.5 -99t15 -55l18 -71l12 -40t15 -40q2 -6 7 -16.5t9 -22.5t8 -22.5t2 -14.5q23 66 36 134.5t30 135.5q16 66 43.5 129.5t44.5 129.5 q4 18 11 48.5t17.5 61.5t24.5 56.5t37 33.5q10 4 16 -1t17 -9q27 -4 56.5 -4t47.5 -14q2 -39 -6 -79t-20.5 -79t-26.5 -77t-29 -75q-25 -68 -48 -137.5t-40 -140.5q-14 -63 -32.5 -124t-34.5 -124q37 10 82 8t79 -6q10 -4 8.5 -15.5t-1.5 -25.5q0 -29 5 -67.5t-5 -55.5 q-6 -10 -15.5 -11t-17.5 -9q-45 4 -91 4t-100 -4q-8 -8 -11 -19.5t-7 -23.5q35 -8 80 -6t80 4q8 -6 22 -8.5t27.5 -5.5t23 -9t9.5 -20q0 -20 -1.5 -56.5t-7.5 -46.5q0 -4 -2 -4t-4 -2h2q-4 -4 -10 -3t-6 -3q-31 2 -56.5 2t-50 -1t-50 -2t-58.5 1q-8 -84 -4 -167t8 -167 q0 -16 3 -33.5t3 -33t-6 -26.5t-25 -15q-6 -2 -13 -1t-17 1q-25 -2 -50.5 -5.5t-39.5 0.5q-18 23 -12.5 60t1.5 69q-6 74 2.5 156t-2.5 154q-23 -2 -35 -3t-26 -5q-20 2 -39 -2.5t-39 -9.5t-40.5 -8t-45.5 3q-14 35 -16 85t-4 93q55 4 123.5 7.5t115.5 1.5q10 14 8 36.5 t-16 28.5q-10 4 -22.5 2t-28.5 -2q-37 -2 -83 0t-73 -8q-8 8 -16 10q-16 29 -13.5 66t-1.5 77q12 8 25.5 5.5t28.5 -2.5q39 -2 77.5 4t75.5 6q2 0 -11 44t-29.5 99t-33 103.5t-20.5 58.5q-43 113 -85 227.5t-67 235.5z" />
<glyph unicode="&#xa6;" horiz-adv-x="421" d="M104 1202q-2 14 2.5 25.5t8.5 21.5q2 8 14 13q6 4 21 4l108 6h4q25 0 27 -25v-25.5t2 -27.5q4 -53 6 -105.5t4 -105.5q2 -10 2 -22.5v-24.5l4 -285v-41q-4 -25 -28 -30q-14 -4 -27.5 -5.5t-28.5 -3.5h-53q-33 2 -35 35v37l-26 332q0 18 -1.5 36.5t1.5 37.5q4 39 4 76.5 t-9 76.5zM129 467v24.5t4 26.5l37 8q29 2 55.5 2h55.5h12q18 -2 20 -20v-57q0 -6 -1 -12.5t-1 -12.5q10 -59 7 -116.5t-1 -116.5q0 -70 -1 -138.5t-1 -138.5v-45q-2 -29 -28 -35l-105 -12q-8 0 -24 4q-20 8 -21 27q-2 14 -2 28.5v28.5q-2 117 -2 231.5v231.5q0 23 -2 46 t-2 46z" />
<glyph unicode="&#xa7;" horiz-adv-x="1257" d="M102 -310.5q0 19.5 13 21.5q10 4 19 11.5t24 13.5q14 4 29.5 5t29.5 5q10 2 17.5 6t15.5 4q27 -4 33 -27.5t22 -37.5q23 -61 79 -97t138 -20q57 10 86 51t33 93.5t-10.5 106.5t-40.5 91q-49 66 -114.5 111t-125.5 98q-59 47 -109.5 110.5t-80.5 133.5q-43 94 -35 195.5 t74 185.5q10 14 26.5 26t32.5 23q59 37 125 65l57 13q-2 0 -7 13t-9 29.5t-8 31t-4 18.5q-20 92 7 180t88.5 152.5t146.5 96.5t180 11q66 -14 125 -44t104 -83q20 -25 36.5 -51.5t26.5 -56.5q2 -4 7.5 -26t9.5 -46q6 -29 12 -64q-12 0 -16 -5t-2 -9q-2 4 -28.5 -2t-53.5 -12 q-39 -10 -45 -9q-10 4 -22.5 13.5t-18.5 17.5q-20 23 -26.5 54.5t-22.5 58.5q-35 59 -98.5 75.5t-123.5 -12.5q-55 -29 -78.5 -88t-13.5 -121q12 -78 62.5 -140t109.5 -111q61 -49 126 -108.5t115 -128.5t79.5 -146.5t23.5 -163.5q-6 -59 -28.5 -115.5t-69.5 -95.5 q-23 -18 -49.5 -31.5t-54.5 -24.5q-6 -2 -26 -6t-43.5 -8t-41.5 -5t-21 3q29 -55 42.5 -122.5t-3.5 -129.5q-16 -59 -37.5 -103t-68.5 -87q-49 -43 -112.5 -74t-131 -40t-132 7.5t-114.5 69.5q-29 29 -55 66.5t-43 76.5q-2 4 -10 23.5t-14.5 42t-6.5 42zM227 313 q3 -8 13 -14q0 14 -13 14zM334 479q4 -59 34.5 -106t69.5 -88q12 -12 28.5 -34t36 -42.5t39 -36.5t38.5 -18q39 -4 76.5 -15.5t78.5 -11.5q51 0 96.5 28.5t61.5 77.5q10 31 7 62t-14.5 61.5t-28.5 59t-36 53.5q-43 59 -97 106.5t-108 96.5l-24 22q-8 10 -17.5 20.5 t-17.5 14.5q-14 10 -32.5 6t-35.5 -12q-33 -14 -62.5 -41t-51 -59.5t-33.5 -69.5t-8 -74z" />
<glyph unicode="&#xa8;" horiz-adv-x="559" d="M103 1511.5q-1 26.5 15.5 53.5t41.5 37q35 14 69 -19q12 -12 13.5 -29.5t-6 -34t-18.5 -30.5t-21 -23q-49 -12 -71 3.5t-23 42zM311.5 1555.5q14.5 25.5 40 37t54 3t45.5 -45.5q10 -25 2.5 -43t-25.5 -28q-27 -16 -62.5 -11t-52.5 33q-16 29 -1.5 54.5z" />
<glyph unicode="&#xa9;" horiz-adv-x="1382" d="M104 1096v24q12 96 20.5 192.5t31.5 192.5q6 29 15 55.5t24 51.5q10 16 20 28.5t23 26.5q25 27 49 52.5t55 47.5q45 33 94 59.5t103 43.5q29 8 54 16t54 12q23 4 43.5 5.5t36.5 3.5q23 0 43.5 -1t40.5 -3q35 -2 68.5 -12.5t66.5 -26.5q31 -16 60.5 -36t52.5 -48 q8 -14 22 -25q23 -16 38.5 -37.5t25.5 -44.5q10 -20 17 -39.5t16 -40.5q10 -23 18 -45t18 -45q10 -20 14.5 -41.5t8.5 -44.5q8 -41 14 -83t13 -85q2 -18 3 -36.5t1 -34.5q0 -25 1 -49.5t5 -49.5q4 -43 5 -87t-3 -87q-8 -133 -37 -266q-8 -43 -22.5 -85t-34.5 -83 q-29 -57 -66 -105.5t-92 -82.5q-51 -31 -104.5 -56.5t-114.5 -33.5q-39 -4 -78 -8.5t-80 -0.5q-23 4 -42 8.5t-42 6.5q-49 6 -93 26.5t-85 44.5q-20 12 -36.5 26.5t-33.5 31.5q-84 92 -141 202q-14 29 -22.5 56.5t-14.5 56.5q-4 16 -7 33.5t-7 34.5l-6 30q-4 90 -10.5 177.5 t-2.5 177.5zM276 1018q2 -47 2.5 -93t0.5 -94l6 -40q4 -33 15 -63l22 -60q10 -31 23 -59.5t28 -57.5q18 -37 45.5 -67.5t68.5 -49.5l23 -14q29 -16 45 -24.5t31.5 -14.5t33 -11t48.5 -14q18 -4 37 0q25 4 48 13.5t46 19.5q90 35 155 103q29 29 50.5 62.5t33.5 72.5 q16 49 25.5 98t13.5 100q2 33 3 64t1 63q2 23 2 47.5v49.5h-2v73q0 41 -2 79t-8 79l-10 84q-6 35 -12.5 66.5t-22.5 62.5q-10 20 -19.5 39.5t-25.5 36.5l-43 49q-31 39 -72 57.5t-86 28.5q-53 14 -104 8t-103 -22q-14 -4 -27.5 -9.5t-25.5 -13.5q-33 -23 -63.5 -46.5 t-59.5 -51.5q-31 -35 -49 -76q-4 -8 -5 -16.5t-5 -18.5q-14 -45 -24.5 -92t-14.5 -94q-6 -51 -10 -102.5t-8 -102.5q-2 -12 -3.5 -24.5t-1.5 -24.5zM360 1010q-2 16 0 34.5t2 34.5q0 59 3.5 117.5t13.5 116.5q16 78 53 142.5t103 111.5q59 43 126.5 53t139.5 -12 q16 -4 29.5 -12.5t27.5 -18.5q33 -23 60.5 -48.5t50.5 -60.5q-2 -6 -2 -10t-4 -8q-18 -23 -40 -45.5t-46 -40.5q-20 -12 -37 8q-8 10 -14.5 18.5t-14.5 16.5q-18 25 -44 36t-51.5 9t-49 -15.5t-41.5 -37.5q-10 -14 -17 -29q-18 -41 -32.5 -83t-18.5 -87l-6 -41 q-8 -45 -9 -90t-3 -92q-4 -72 18 -139q10 -31 24.5 -59.5t36.5 -53.5q33 -35 79 -37t79 33l10 14q12 12 21.5 13.5t23.5 -9.5l74 -65q8 -8 16.5 -14.5t14.5 -16.5q18 -20 2 -43q-57 -74 -137 -106q-25 -10 -52.5 -12.5t-54.5 -6.5q-12 -2 -24.5 -1t-24.5 3q-27 0 -53 17 q-14 8 -27.5 14t-25.5 14q-20 10 -33.5 28.5t-30.5 35.5q-16 20 -28.5 43.5t-26.5 46.5l-6 14q-25 41 -35 84t-12 90q-2 37 -4.5 73t-2.5 73z" />
<glyph unicode="&#xaa;" horiz-adv-x="686" d="M102 1061q4 70 13 129q6 39 27.5 68.5t50.5 52.5l28 16q33 20 68 21.5t69 -11.5l43 -16q10 14 7.5 25.5t-7.5 21.5q-8 20 -17 28.5t-34 18.5q-16 -2 -31 -24q-14 -27 -47 -23l-53 6q-16 4 -24 12q-18 10 -13 31q16 51 43 91t80 61q35 14 68 20t67 -4q57 -14 90 -69 q16 -29 26.5 -61t16.5 -66q10 -41 10.5 -82t-5.5 -84q-6 -59 -9.5 -121t-1.5 -121q0 -25 1 -49.5t1 -48.5q0 -6 -1 -12.5t-1 -12.5q-4 -10 -8 -15t-16 -5q-25 -2 -49.5 -2h-47.5q-20 0 -28 14l-12 27l-15 -7q-23 -18 -53.5 -25t-64 -4t-65.5 17t-56 43q-35 47 -43 100 q-6 27 -7 60zM225 1094q4 -51 33 -86q16 -23 37.5 -27t44.5 8q49 27 57 76v17.5t2 19.5q6 20 -1 38.5t-15 39.5q-14 35 -57 41q-10 0 -15 -2q-41 -14 -64.5 -49t-21.5 -76z" />
<glyph unicode="&#xab;" horiz-adv-x="901" d="M102 737q8 27 21.5 47.5t30.5 42.5q47 63 90 129t82 136q6 12 13 24t15 25q18 25 47 10q16 -10 35 -19.5t35 -19.5q20 -12 10 -31q-4 -8 -8 -14t-8 -14l-47 -76q-29 -47 -58.5 -92t-60.5 -92q-10 -16 -17.5 -25.5t-7.5 -19t5.5 -20.5t19.5 -32q29 -41 57.5 -78.5 t57.5 -78.5l39 -41q20 -23 37.5 -45.5t29.5 -51.5q-16 -29 -36.5 -47t-47.5 -35q-12 -8 -26 3q-6 4 -11.5 10t-11.5 12q-41 51 -81 102.5t-77 104.5q-25 37 -50 72.5t-52 72.5zM391 739q-12 25 6 41q29 25 52.5 55.5t50.5 59.5q14 16 26.5 33.5t24.5 34.5l65 94l50 69 q10 19 26 23q25 -10 47.5 -22.5t44.5 -26.5q20 -14 9 -35q-37 -59 -73 -117.5t-75 -118.5q-10 -18 -24.5 -35.5t-28.5 -33.5q-10 -14 -12 -20.5t8 -22.5q20 -39 43.5 -74t48.5 -70q27 -35 51.5 -71.5t46.5 -73.5q25 -33 -16 -51q-20 -10 -42 -17.5t-44 -17.5q-16 -10 -35 8 l-18 23q-33 53 -66 103t-68 102q-14 23 -28.5 46t-30.5 46q-10 16 -19.5 34.5t-19.5 34.5z" />
<glyph unicode="&#xac;" horiz-adv-x="1280" d="M102 862q0 23 15 35q20 2 40.5 3t41.5 1q27 0 51 -1t51 -1h34t20.5 -1t21.5 -1h35h110l105 4h8q31 -4 61.5 -2t59.5 4q18 0 35.5 2t33.5 2l99 4h24l154 -10q18 0 36.5 -2t37.5 -8q0 -6 1 -11.5t-1 -9.5q0 -35 -2.5 -69.5t-2.5 -69.5q0 -23 -1 -44t4 -44q4 -41 0.5 -80 t-5.5 -80q0 -8 -8 -20q-18 -14 -37 -14l-94 6q-25 4 -31 26q0 4 -1 10.5t-1 10.5q-2 53 -6 108.5t0 110.5q0 8 -2 10q-8 10 -18 10h-21q-29 0 -40 1t-19 1t-20.5 -1t-39.5 -3q-35 -2 -68.5 0t-68.5 -2q-18 -2 -26.5 -3t-14.5 -2t-14 0t-27 1h-40.5h-79h-98.5h-99h-83t-46 2 q-33 0 -53 10q-2 4 -4.5 5.5t-2.5 3.5q-2 29 -3 54.5t-1 53.5z" />
<glyph unicode="&#xad;" horiz-adv-x="782" d="M51 649q2 31 1 61.5t-1 63.5q0 25 8 31q4 2 13 2l141 -4h430q16 -2 29.5 -4t29.5 -6q6 0 19 -9q6 -4 6 -22q2 -35 3 -67.5t1 -65.5q0 -39 -14 -39h-22.5t-22.5 2q-2 0 -24.5 2t-57.5 4t-75 4t-79 5t-69.5 4t-44.5 3q-12 0 -42 1t-62 1h-60.5h-40.5h-13.5t-13.5 -4 q-8 -4 -15 -1t-16 5q-4 0 -6 10.5t-2 22.5z" />
<glyph unicode="&#xae;" horiz-adv-x="1198" d="M102 1142q-2 79 19 163q12 53 23.5 99t48.5 91q55 68 127.5 96.5t152.5 50.5q82 23 172 17t168 -31q98 -29 155.5 -99.5t80.5 -166.5q16 -70 17 -139.5t9 -139.5q10 -127 16.5 -248.5t0.5 -248.5q-4 -59 -6.5 -123t-30.5 -117q-31 -55 -57.5 -92t-82.5 -64 q-29 -12 -64.5 -19t-73.5 -10t-73.5 -4t-66.5 -3q-4 0 -33 1t-66.5 3t-75.5 6t-61 12q-37 12 -69.5 29.5t-61.5 40.5q-47 39 -77.5 89t-49 106.5t-26.5 115.5t-8 119q-2 76 -3.5 150.5t-1.5 150.5q0 86 -2 165zM269 970q5 -93 7 -177q2 -31 3.5 -61t1.5 -62q0 -29 1 -58.5 t5 -56.5q4 -29 7 -56.5t9 -52.5q14 -49 42 -80.5t75 -39.5q53 -10 111.5 -5t111.5 9q33 2 81 4t94 14t81 43t41 90q6 72 4 155t-9 167t-15.5 167.5t-10.5 159.5q-4 66 -15 129.5t-32 106.5q-16 35 -43.5 68.5t-62.5 50.5q-55 27 -122 20.5t-126 -16.5q-53 -10 -106.5 -36 t-82.5 -77q-27 -41 -35 -99t-14 -124q-6 -90 -1 -183zM404.5 917.5q-1.5 55.5 1.5 94.5q2 66 3 127t5 127q2 37 9 59.5t38 32.5q10 4 24.5 6t24.5 2q53 6 107.5 0t101.5 -39q59 -43 91 -114.5t28 -141.5q-2 -78 -10.5 -127t-18.5 -78.5t-19.5 -40t-13.5 -8.5 q31 -18 46.5 -52t22.5 -75t9 -81t4 -70q2 -25 -2 -48.5t-8 -46.5q-20 2 -42 -1t-42.5 -6t-38.5 0t-31 18q6 -2 2 2t-4 8q0 10 -1 36.5t-4 57.5t-7 60.5t-8 44.5q-10 29 -29.5 53t-64.5 14q-4 -23 -7.5 -65.5t-5.5 -85.5t-4 -78t-4 -37l-137 -16q-2 8 -4 41.5t-4 83t-4 109.5 t-2 119.5t-1.5 115zM580 901q16 0 29.5 5t27.5 12q16 10 24.5 48t6.5 82t-14.5 86t-37.5 60q-10 0 -15 3t-15 3q4 -72 0 -142.5t-6 -156.5z" />
<glyph unicode="&#xaf;" horiz-adv-x="841" d="M66 1636q2 29 1 57.5t-1 57.5q0 23 8 29q6 2 14 2l152 -4h467q16 -2 31.5 -3t31.5 -6q4 0 21 -8q6 -4 6 -20q2 -31 3 -62.5t1 -60.5q0 -37 -17 -37h-23t-24 2q-4 0 -55 3t-115.5 7t-125 7.5t-83.5 3.5q-14 0 -45.5 1t-66.5 1h-65.5h-43.5q-20 0 -28 -4q-10 -2 -17.5 0 t-17.5 4q-4 0 -6 10t-2 20z" />
<glyph unicode="&#xb0;" horiz-adv-x="638" d="M104 1430q-4 39 2.5 76.5t26.5 70.5q27 47 79 70.5t105 25.5q14 0 33 -4t37.5 -12t34.5 -17.5t27 -17.5q14 -10 29.5 -28.5t27.5 -42t20.5 -50t8.5 -51.5q-2 -20 -9.5 -49t-17.5 -45q-16 -27 -44 -48.5t-59.5 -36t-66.5 -19.5t-66 3q-18 4 -39.5 13.5t-37.5 21.5 q-12 10 -23.5 20.5t-21.5 24.5q-16 23 -28.5 46.5t-17.5 48.5zM260 1446q8 -12 23.5 -16.5t27.5 -4.5q8 0 20.5 3.5t25 8.5t19.5 13t5 20q-4 23 -22.5 31t-41.5 6q-29 -4 -51 -21.5t-6 -39.5z" />
<glyph unicode="&#xb1;" horiz-adv-x="884" d="M102 145q2 31 1 62t-1 63q0 25 9 31q4 2 12 2l141 -4h430q16 -2 29.5 -4t30.5 -6q6 0 18 -8q6 -4 6 -23q2 -35 3 -67.5t1 -65.5q0 -39 -14 -39h-22.5t-22.5 2q-2 0 -24.5 2t-57.5 4t-75 4t-78.5 5t-69.5 4.5t-45 3.5q-12 0 -42 1t-61.5 1h-60.5h-41h-13.5t-13.5 -4 q-8 -4 -15 -1t-15 5q-4 0 -6.5 10t-2.5 22zM104 793q0 20 17.5 30.5t40 14.5t45 4h37.5q23 0 42 1t36 3q16 2 30 2q-6 59 -10 110q-4 43 -2 81t16 48q33 20 60.5 22.5t46.5 -3.5q23 -8 39 -25q4 -49 6 -90q2 -35 3 -70.5t-1 -52.5q0 -10 35 -14t80 -4t88 2t55 2q4 -10 8 -39 t4 -59.5t-5 -56t-17 -27.5q-53 -10 -119 -12.5t-117 -0.5q8 -47 6 -96t2 -98q2 -31 -3 -44t-15 -17.5t-26.5 -4.5t-36.5 -2q-16 -2 -31 -5t-27 -1t-19 11.5t-7 33.5q0 27 -1.5 60.5t-1.5 64.5t-1 57.5t-1 40.5q-59 -6 -127.5 -3t-121.5 -3q-4 35 -6.5 69t-0.5 71z" />
<glyph unicode="&#xb2;" horiz-adv-x="509" d="M33 757.5q0 16.5 1 37t3 39t4 28.5q2 16 23.5 54t49 81t54.5 83t43 63q31 41 60.5 84t39.5 94q2 20 5 49t-1 53.5t-18 40t-47 11.5q-35 -16 -47.5 -39t-15.5 -45.5t-3 -39t-12 -18.5h-21.5t-38 4t-39 11.5t-20.5 21.5q-6 23 1 55.5t18 55.5q10 23 27.5 48t39.5 38 q27 16 59.5 26.5t63.5 8.5q41 -2 78 -17.5t63 -44.5q16 -20 28.5 -39.5t23.5 -54.5q8 -29 13 -56.5t5 -56.5q-2 -111 -67 -207q-43 -66 -94.5 -125t-78.5 -139q27 -4 55.5 -3t55.5 1t50.5 -4t37.5 -18q4 -29 1 -67t-3 -58q-2 -2 -31.5 -1t-73.5 2t-94.5 4t-93.5 6t-71.5 6 t-30.5 5q-2 6 -2 22.5z" />
<glyph unicode="&#xb3;" horiz-adv-x="518" d="M20 1251q0 6 25 32t55.5 58.5t57 63.5t32.5 47q-14 4 -34.5 0t-42 -8t-40 -8t-28.5 0q-2 41 -5 79.5t-9 73.5q0 2 32.5 7.5t74.5 9.5t80 8t46 4l101 4q14 0 31.5 3t29.5 -7q4 -25 -5 -47.5t-22 -38.5q-16 -23 -35.5 -43.5t-35.5 -42.5q-18 -23 -37 -54.5t-35 -54.5 q6 2 20.5 -2t31 -10t29.5 -13t17 -9q20 -18 37 -43t29 -52q20 -45 29.5 -101t9.5 -106q2 -47 -7.5 -108.5t-36 -117.5t-73.5 -94t-121 -34q-33 2 -67.5 23.5t-57.5 46.5t-34 55.5t-17 63.5l-12 73q-2 12 -6 28.5t2 29.5q20 14 51 14t65 4q23 -16 26 -51t13 -74 q4 -18 9.5 -34.5t21.5 -20.5q4 0 14.5 3t20.5 7t18 9t11 10q25 33 30 75q8 33 0 73t-18 73q-8 29 -21.5 70.5t-38.5 56.5q-12 8 -40.5 12t-60.5 7t-57.5 5t-29.5 4q-8 4 -15.5 17.5t-7.5 23.5z" />
<glyph unicode="&#xb4;" horiz-adv-x="415" d="M104 1370q-2 20 6.5 55t20.5 71t24.5 66.5t20.5 41.5q29 4 63.5 5t69.5 -5q8 -8 -3 -49.5t-29.5 -86.5t-36 -81.5t-21.5 -36.5q-33 -4 -63.5 1t-51.5 19z" />
<glyph unicode="&#xb5;" horiz-adv-x="862" d="M104 -252q2 19 2 43q2 23 3.5 42.5t5.5 39.5q4 49 1 97t3 98q12 141 7 276t-7 277q-4 80 0 170t8 174q0 39 6 79q2 37 0 70t27 55q16 -8 32.5 -10t34 -4t32.5 -6t30 -12q6 -4 6 -34t-3 -66t-7 -69.5t-4 -41.5q-2 -53 -3.5 -108.5t1.5 -108.5q0 -59 1 -116.5t3 -115.5 q2 -61 0 -121q-2 -29 -6.5 -58.5t12.5 -57.5q20 -35 55 -55.5t75 -26.5t79 2t69 35q16 14 16.5 40.5t0.5 45.5l4 135q4 86 3 170t3 170q2 43 -1 80.5t-1 74.5q4 41 3 89.5t-1 107.5q2 16 4 34.5t10 35.5q29 4 55.5 -3.5t49.5 -3.5q10 0 17 4.5t18 2.5q6 0 5 -6.5t7 -2.5 q-2 -6 0 -20t-6 -25q4 -207 -1 -411.5t-14 -413.5q-2 -41 -3 -84t-1 -84q0 -31 4 -75t-14 -70q-6 4 -5 1t-3 -5q-6 -4 -14.5 -4.5t-14.5 -0.5q-16 -2 -25.5 -1t-13.5 -3q-12 4 -24.5 -2t-16.5 2q-4 -4 -9 -3t-9 -3v5t-4 -5q-4 4 -10.5 14.5t-8.5 22.5q-14 -4 -23 -8 t-18.5 -7t-19.5 -6t-29 -6q6 6 -2 3t-10 -5q-16 6 -36.5 1t-37.5 -1q-23 4 -42 10.5t-40 12.5q-10 4 -19 13t-20 14q-2 -72 4.5 -146t-4.5 -139q-4 2 -9 -2t-3 -6q-35 -8 -58.5 -8t-58.5 -3q0 2 3 1t3 4q-10 -2 -12 -3.5t-10 -1.5q-23 8 -21 27z" />
<glyph unicode="&#xb6;" horiz-adv-x="1206" d="M104 1065q0 45 1 95t8.5 100.5t19.5 98.5t35 89l20 29q43 74 112 102.5t149 38.5q47 6 92 12t92 4q53 -4 106.5 -2t106.5 -2q51 -2 98 -12t98 -19q20 -4 36 -5t22 -11q4 -10 2 -19.5t-4 -21.5q-8 -92 -2 -183t2 -183l-19 -385q-2 -53 -3 -107.5t-1 -108.5v-111t2 -114 q2 -61 3 -123.5t-1 -126.5q-2 -39 -4 -69.5t-28 -40.5q-10 -4 -33 -3t-47.5 5t-44 10t-23.5 12q-10 18 -5 46t7 46q4 29 3 59t-1 58q-2 61 -6 124l-8 126q-2 45 4 90t6 92q2 53 0 106.5t2 106.5q10 133 6 265.5t-14 263.5q-23 6 -43.5 12t-44.5 8q-2 0 -2 -56t1 -141 t3 -185.5t3 -190.5t3 -156.5t2 -83.5q0 -53 -2 -107.5t2 -107.5q4 -49 4 -97t-2 -97q-4 -45 0 -91.5t-8 -89.5q-14 -10 -34.5 -9t-43.5 -1t-52.5 -6t-43.5 10q-6 6 -9 22.5t-4 37t-1 40v31.5q-2 102 -6.5 211t1.5 203q-18 2 -37.5 -2t-39.5 0q-23 4 -47.5 14t-49.5 15 q-47 10 -96 21t-88 46q-41 37 -69.5 87t-47 106.5t-28 115t-9.5 109.5z" />
<glyph unicode="&#xb7;" horiz-adv-x="587" d="M92 -213q-4 18 5 31.5t28 11.5l59 -6h20.5t20.5 2q27 6 35 27q10 23 -12 32l-37 15l-31 10q-10 31 -7 61.5t-7 61.5q-12 2 2 5t39.5 6t58.5 5t58.5 2t39 -3t3.5 -9q0 -14 -2 -23q-2 -20 4 -36.5t28 -26.5q20 -14 41 -39q8 -8 14.5 -17.5t10.5 -19.5q29 -49 -6 -96 q-10 -16 -25.5 -32.5t-34.5 -27.5q-18 -10 -36.5 -20t-38.5 -16q-78 -29 -160 -31h-21q-20 4 -22 18q-6 14 -6 29q-4 23 -9.5 43t-11.5 43z" />
<glyph unicode="&#xb8;" horiz-adv-x="555" d="M92 -213q-4 18 5 31.5t28 11.5l59 -6h20.5t20.5 2q27 6 35 27q10 23 -12 32l-37 15l-31 10q-10 31 -7 61.5t-7 61.5q-12 2 2 5t39.5 6t58.5 5t58.5 2t39 -3t3.5 -9q0 -14 -2 -23q-2 -20 4 -36.5t28 -26.5q20 -14 41 -39q8 -8 14.5 -17.5t10.5 -19.5q29 -49 -6 -96 q-10 -16 -25.5 -32.5t-34.5 -27.5q-18 -10 -36.5 -20t-38.5 -16q-78 -29 -160 -31h-21q-20 4 -22 18q-6 14 -6 29q-4 23 -9.5 43t-11.5 43z" />
<glyph unicode="&#xb9;" horiz-adv-x="399" d="M20 1546q0 8 15.5 25.5t34 36t34 33t15.5 18.5q27 23 80 20.5t96 -10.5q4 -150 3 -308.5t-1 -311.5q0 -66 -4 -128.5t0 -125.5q-4 -4 -25.5 -6.5t-45 -2.5t-43 1t-19.5 6v74.5t1 141.5t1 172v166.5t-1 126.5l-1 50q-4 0 -12.5 -7.5t-18.5 -16.5t-20.5 -16t-14.5 -7 q-8 2 -19.5 12t-19.5 18q-8 6 -21.5 17.5t-13.5 21.5z" />
<glyph unicode="&#xba;" horiz-adv-x="638" d="M104 1430q-4 39 2.5 76.5t26.5 70.5q27 47 79 70.5t105 25.5q14 0 33 -4t37.5 -12t34.5 -17.5t27 -17.5q14 -10 29.5 -28.5t27.5 -42t20.5 -50t8.5 -51.5q-2 -20 -9.5 -49t-17.5 -45q-16 -27 -44 -48.5t-59.5 -36t-66.5 -19.5t-66 3q-18 4 -39.5 13.5t-37.5 21.5 q-12 10 -23.5 20.5t-21.5 24.5q-16 23 -28.5 46.5t-17.5 48.5zM260 1446q8 -12 23.5 -16.5t27.5 -4.5q8 0 20.5 3.5t25 8.5t19.5 13t5 20q-4 23 -22.5 31t-41.5 6q-29 -4 -51 -21.5t-6 -39.5z" />
<glyph unicode="&#xbb;" horiz-adv-x="905" d="M105.5 382.5q-3.5 10.5 7.5 29.5l96 155l94 152l12 22q-23 31 -38 65t-37 64q-37 43 -74 97q-16 23 -28.5 43t-26.5 43q-14 18 4 41l7 7l7 7l72 51q18 14 30.5 11t28.5 -19q45 -53 83 -108.5t79 -110.5l53 -72q10 -16 21.5 -31.5t21.5 -31.5q6 -10 11.5 -23.5t9.5 -23.5 q-18 -35 -38 -66t-38 -61l-60 -107l-116 -186l-4 -6q-10 -14 -24.5 -17.5t-27.5 2.5q-25 10 -49 22.5t-49 24.5l-6 4q-18 12 -21.5 22.5zM410 1103.5q2 8.5 8 14.5q10 10 26 21q14 10 28.5 21t31.5 22q23 10 39 -8l35 -52q27 -35 52 -67.5t50 -67.5q27 -35 50.5 -71.5 t49.5 -71.5q23 -33 22 -63.5t-18 -63.5q-29 -49 -56.5 -98.5t-55.5 -98.5q-16 -33 -35 -64.5t-37 -64.5q-6 -12 -14 -24.5t-17 -26.5q-14 -18 -32 -8q-25 10 -49.5 21.5t-47.5 23.5q-8 4 -11 12t1 19q12 31 24.5 60.5t28.5 57.5q33 55 64 112.5t59 117.5q0 4 2 10l-30 45 l-27 45q-20 35 -38.5 67.5t-41.5 65.5q-12 23 -27.5 43.5t-25.5 42.5q0 4 -2 5t-2 5q-6 10 -4 18.5z" />
<glyph unicode="&#xbc;" horiz-adv-x="1103" d="M61 1546q0 8 15.5 25.5t34 36t34 33t15.5 18.5q27 23 80 20.5t96 -10.5q4 -150 3 -308.5t-1 -311.5q0 -66 -4 -128.5t0 -125.5q-4 -4 -25.5 -6.5t-45 -2.5t-43 1t-19.5 6v74.5t1 141.5t1 172v166.5t-1 126.5l-1 50q-4 0 -12.5 -7.5t-18.5 -16.5t-20.5 -16t-14.5 -7 q-8 2 -19.5 12t-19.5 18q-8 6 -21.5 17.5t-13.5 21.5zM102 0q6 23 32 91.5t64 166.5t85 216t94 236.5t92 231.5t80 200t45 114l33 79l8 23q8 22 21.5 55t29.5 72t31.5 72.5t30 56t22.5 24.5q25 -8 32 -6t32 -2q18 -4 35.5 -12t35.5 -8q25 -20 13.5 -51t-21.5 -66 q-4 -12 -29.5 -77.5t-66.5 -167t-93.5 -227.5t-107.5 -257t-108.5 -259t-97.5 -232.5t-75.5 -175t-39.5 -89.5q-27 -2 -46.5 -4t-38 -3t-40 -1h-52.5zM502 270q2 2 2 3t4 3l10 25q10 25 24.5 54.5t29 57t18.5 36.5q6 12 24.5 52t42 93t50 111.5t49 106.5t40 81t23.5 35 q4 0 21.5 3t38 3t37 -4t18.5 -15q0 -4 1 -34.5t2 -74.5t1 -97.5t1 -104.5t1 -95v-69q18 -10 41 -4t39 -6q0 -8 5 -34.5t9 -56.5t3 -54.5t-13 -26.5q-18 -4 -37.5 -3t-44.5 -5q-2 -14 -1 -47t2 -67t3 -60l2 -27q2 0 -3 -12t-7 -17q-2 -4 -27.5 -9t-54.5 -8t-52.5 -1t-23.5 14 v2q-2 0 -1 32t3 73t3 81t-1 52q0 2 -20.5 4t-51 3t-66.5 1t-67.5 1t-53 2t-23.5 3zM750 420q10 -10 22 -9t27 5q2 41 5 87t1 87q-18 -39 -28.5 -84t-26.5 -86z" />
<glyph unicode="&#xbd;" horiz-adv-x="1146" d="M61 1546q0 8 15.5 25.5t34 36t34 33t15.5 18.5q27 23 80 20.5t96 -10.5q4 -150 3 -308.5t-1 -311.5q0 -66 -4 -128.5t0 -125.5q-4 -4 -25.5 -6.5t-45 -2.5t-43 1t-19.5 6v74.5t1 141.5t1 172v166.5t-1 126.5l-1 50q-4 0 -12.5 -7.5t-18.5 -16.5t-20.5 -16t-14.5 -7 q-8 2 -19.5 12t-19.5 18q-8 6 -21.5 17.5t-13.5 21.5zM102 0q6 23 32 91.5t64 166.5t85 216t94 236.5t92 231.5t80 200t45 114l33 79l8 23q8 22 21.5 55t29.5 72t31.5 72.5t30 56t22.5 24.5q25 -8 32 -6t32 -2q18 -4 35.5 -12t35.5 -8q25 -20 13.5 -51t-21.5 -66 q-4 -12 -29.5 -77.5t-66.5 -167t-93.5 -227.5t-107.5 -257t-108.5 -259t-97.5 -232.5t-75.5 -175t-39.5 -89.5q-27 -2 -46.5 -4t-38 -3t-40 -1h-52.5zM627 45q0 16 1 36.5t3 39t4 29.5q2 16 23.5 54t49 81t54 83t43.5 62q31 41 60.5 84t39.5 94q2 20 5 49t-1 53.5t-18 40 t-47 11.5q-35 -16 -47.5 -39t-15.5 -45.5t-3 -38.5t-12 -18h-21.5t-38 4t-39 11t-20.5 21q-6 23 1 55.5t18 55.5q10 23 27.5 48.5t39.5 37.5q27 16 59.5 26.5t63.5 8.5q41 -2 78 -17.5t63 -44.5q16 -20 28.5 -39.5t23.5 -54.5q8 -29 13 -56.5t5 -55.5q-2 -111 -68 -207 q-43 -66 -94 -125.5t-78 -138.5q27 -4 55.5 -3.5t55.5 0.5t50.5 -4t37.5 -18q4 -29 1 -67t-3 -58q-2 -2 -31.5 -1t-74 2t-94.5 4t-93 6t-71.5 6t-30.5 6q-2 6 -2 22z" />
<glyph unicode="&#xbe;" horiz-adv-x="1140" d="M20 1251q0 6 25 32t55.5 58.5t57 63.5t32.5 47q-14 4 -34.5 0t-42 -8t-40 -8t-28.5 0q-2 41 -5 79.5t-9 73.5q0 2 32.5 7.5t74.5 9.5t80 8t46 4l101 4q14 0 31.5 3t29.5 -7q4 -25 -5 -47.5t-22 -38.5q-16 -23 -35.5 -43.5t-35.5 -42.5q-18 -23 -37 -54.5t-35 -54.5 q6 2 20.5 -2t31 -10t29.5 -13t17 -9q20 -18 37 -43t29 -52q20 -45 29.5 -101t9.5 -106q2 -47 -7.5 -108.5t-36 -117.5t-73.5 -94t-121 -34q-33 2 -67.5 23.5t-57.5 46.5t-34 55.5t-17 63.5l-12 73q-2 12 -6 28.5t2 29.5q20 14 51 14t65 4q23 -16 26 -51t13 -74 q4 -18 9.5 -34.5t21.5 -20.5q4 0 14.5 3t20.5 7t18 9t11 10q25 33 30 75q8 33 0 73t-18 73q-8 29 -21.5 70.5t-38.5 56.5q-12 8 -40.5 12t-60.5 7t-57.5 5t-29.5 4q-8 4 -15.5 17.5t-7.5 23.5zM186 0q6 23 32 91.5t63.5 166.5t85 216t94.5 236.5t92 231.5t80 200t45 114 l33 79l8 23q8 22 21.5 55t29.5 72t31.5 72.5t30 56t22.5 24.5q25 -8 32 -6t32 -2q18 -4 35.5 -12t35.5 -8q25 -20 13.5 -51t-21.5 -66q-4 -12 -29.5 -77.5t-66.5 -167t-93.5 -227.5t-107.5 -257t-108.5 -259t-97.5 -232.5t-75.5 -175t-40.5 -89.5q-27 -2 -46 -4t-37.5 -3 t-40 -1h-52.5zM526 270q2 2 2 3t4 3l10 25q11 25 25.5 54.5t28.5 57t18 36.5q6 12 24.5 52t42.5 93t50.5 111.5t49 106.5t40 81t23.5 35q4 0 21.5 3t38 3t36.5 -4t18 -15q0 -4 1.5 -34.5t2.5 -74.5t1 -97.5t1 -104.5t1 -95v-69q18 -10 40.5 -4t38.5 -6q0 -8 5.5 -34.5 t9.5 -56.5t3 -54.5t-13 -26.5q-18 -4 -38 -3t-44 -5q-2 -14 -1 -47t2 -67t3 -60l2 -27q2 0 -3 -12t-7 -17q-2 -4 -28 -9t-54.5 -8t-52 -1t-23.5 14v2q-2 0 -1 32t3 73t3 81t-1 52q0 2 -20.5 4t-51 3t-66.5 1t-68 1t-53.5 2t-23.5 3zM774 420q10 -10 22.5 -9t26.5 5 q2 41 5 87t1 87q-18 -39 -28.5 -84t-26.5 -86z" />
<glyph unicode="&#xbf;" horiz-adv-x="946" d="M104 -211q-4 121 16.5 212t54.5 158.5t76 117t82 89.5l72.5 72.5t49.5 69.5q6 12 7 38.5t-1 55.5t-4 55.5t-4 40.5q-4 29 8 42.5t32.5 18.5t45 4t47.5 -1q43 0 61.5 -28.5t22.5 -68.5t-3.5 -82t-15.5 -71q-31 -98 -99.5 -187t-141.5 -159q-41 -39 -74 -80t-47 -96 q-14 -59 -6 -118.5t28 -113.5q16 -47 42 -91t77 -56q45 -12 91 -1t75 48q35 43 35 88t-4 94q-2 20 20.5 33.5t53 20t61.5 7.5t43 -5q31 -14 35 -55.5t-5.5 -89.5t-26.5 -92t-28 -62q-43 -78 -107.5 -123t-139 -56.5t-153.5 14t-149 91.5q-53 49 -87.5 120.5t-39.5 145.5z M461.5 966.5q9.5 34.5 35 55t60 18.5t59.5 -41q18 -29 4 -63.5t-38 -48.5q-23 -14 -51.5 -15.5t-49.5 23.5q-29 37 -19.5 71.5z" />
<glyph unicode="&#xc0;" horiz-adv-x="856" d="M57 12q-6 53 4.5 107.5t25.5 109t32.5 107.5t27.5 104q29 145 56.5 288.5t56.5 289.5q23 104 45.5 207.5t46.5 208.5q10 41 19.5 79.5t21.5 79.5q8 25 24.5 32t38 6t45 -6t44.5 -3q12 -16 22.5 -71.5t17.5 -119t13 -120t8 -74.5q10 -86 23.5 -171t29.5 -171 q18 -96 37 -190.5t41 -190.5q16 -63 29 -126t27 -126q10 -51 21 -103.5t9 -105.5q0 -29 -18 -49q-16 2 -35.5 1t-41 -1t-40 2t-31.5 10q-4 14 -11 48t-16 78t-19.5 92.5t-19.5 90.5t-15.5 71.5t-6.5 37.5q-55 6 -125.5 8t-126.5 -8q-20 -43 -29 -95t-20 -97 q-8 -29 -14 -55.5t-12 -55.5q-6 -33 -10.5 -67.5t-26.5 -59.5q-14 -2 -34.5 -2h-41t-40 3t-32.5 7zM352 602q45 -6 93.5 1t95.5 3q-2 10 -7.5 51t-14.5 94.5t-20.5 114t-21.5 110.5t-19 82t-14 32q0 -2 -1 -2.5t-1 -2.5v-2q-2 -10 -13 -64t-24.5 -127t-29 -152t-23.5 -138z M420 1917q-4 10 2 18q16 20 51 26.5t62 8.5h4q16 0 25 -15.5t14.5 -37t6.5 -43t3 -31.5q2 -20 6 -42.5t0 -41.5q-8 -33 -33.5 -33t-42.5 23q-18 25 -30.5 53.5t-28.5 55.5q-4 6 -12.5 16t-15.5 21.5t-11 21.5z" />
<glyph unicode="&#xc1;" horiz-adv-x="901" d="M59 12q-6 53 4.5 107.5t25.5 109t32.5 107.5t28.5 104q29 145 56 288.5t56 289.5q23 104 45.5 207.5t46.5 208.5q10 41 19.5 79.5t21.5 79.5q8 25 24.5 32t38 6t45 -6t44.5 -3q12 -16 22.5 -71.5t17.5 -119t13 -120t8 -74.5q10 -86 23.5 -171t30.5 -171 q18 -96 36.5 -190.5t40.5 -190.5q16 -63 29 -126t27 -126q10 -51 21 -103.5t9 -105.5q0 -29 -18 -49q-16 2 -35.5 1t-41 -1t-40 2t-31.5 10q-4 14 -11 48t-16 78t-19.5 92.5t-19.5 90.5t-15.5 71.5t-6.5 37.5q-55 6 -125.5 8t-126.5 -8q-20 -43 -29 -95t-20 -97 q-8 -29 -14 -55.5t-12 -55.5q-6 -33 -10.5 -67.5t-26.5 -59.5q-14 -2 -34.5 -2h-41t-40 3t-32.5 7zM354 602q45 -6 93.5 1t95.5 3q-2 10 -7.5 51t-14.5 94.5t-20.5 114t-21.5 110.5t-19 82t-14 32q0 -2 -1 -2.5t-1 -2.5v-2q-2 -10 -13 -64t-24.5 -127t-29 -152t-23.5 -138z M401 1749q-2 20 6.5 55t20.5 71t24.5 66.5t20.5 40.5q29 4 63.5 5t69.5 -5q8 -8 -3 -49t-29.5 -86t-36 -81.5t-21.5 -36.5q-33 -4 -63.5 1t-51.5 19z" />
<glyph unicode="&#xc2;" horiz-adv-x="1011" d="M57 12q-6 53 4.5 107.5t25.5 109t32.5 107.5t27.5 104q29 145 56.5 288.5t56.5 289.5q23 104 45.5 207.5t46.5 208.5q10 41 19.5 79.5t21.5 79.5q8 25 24.5 32t38 6t45 -6t44.5 -3q12 -16 22.5 -71.5t17.5 -119t13 -120t8 -74.5q10 -86 23.5 -171t29.5 -171 q18 -96 37 -190.5t41 -190.5q16 -63 29 -126t27 -126q10 -51 21 -103.5t9 -105.5q0 -29 -18 -49q-16 2 -35.5 1t-41 -1t-40 2t-31.5 10q-4 14 -11 48t-16 78t-19.5 92.5t-19.5 90.5t-15.5 71.5t-6.5 37.5q-55 6 -125.5 8t-126.5 -8q-20 -43 -29 -95t-20 -97 q-8 -29 -14 -55.5t-12 -55.5q-6 -33 -10.5 -67.5t-26.5 -59.5q-14 -2 -34.5 -2h-41t-40 3t-32.5 7zM195 1786.5q0 9.5 12 23.5q20 20 39.5 41t42.5 41l119 111q10 10 22 17.5t25 17.5l20 12q18 8 33 -8q59 -59 123.5 -116.5t134.5 -106.5q14 -8 25 -23q16 -16 0 -31 q-23 -20 -46.5 -40.5t-46.5 -38.5q-16 -14 -30 0l-25 18l-117 108q-8 6 -14 12.5t-20 10.5q-33 -25 -66 -47.5t-61 -48.5l-33 -31q-4 -4 -8.5 -8t-8.5 -8q-16 -10 -23 -10.5t-20 12.5q-16 16 -32.5 33.5t-32.5 35.5q-12 14 -12 23.5zM352 602q45 -6 93.5 1t95.5 3 q-2 10 -7.5 51t-14.5 94.5t-20.5 114t-21.5 110.5t-19 82t-14 32q0 -2 -1 -2.5t-1 -2.5q0 -6 -11 -59t-24.5 -127t-29 -155t-25.5 -142z" />
<glyph unicode="&#xc3;" horiz-adv-x="948" d="M92 12q-6 53 4 107.5t25.5 109t33 107.5t27.5 104q29 145 56.5 288.5t56.5 289.5q23 104 45 207.5t47 208.5q10 41 19.5 79.5t21.5 79.5q8 25 24.5 32t38 6t45 -6t44.5 -3q12 -16 22 -71.5t17.5 -119t13.5 -120t8 -74.5q10 -86 23.5 -171t29.5 -171q18 -96 37 -190.5 t41 -190.5q16 -63 28.5 -126t26.5 -126q10 -51 21.5 -103.5t9.5 -105.5q0 -29 -18 -49q-16 2 -36 1t-41.5 -1t-39.5 2t-31 10q-4 14 -11 48t-16.5 78t-19.5 92.5t-19.5 90.5t-15.5 71.5t-6 37.5q-55 6 -125.5 8t-126.5 -8q-20 -43 -29.5 -95t-19.5 -97q-8 -29 -14 -55.5 t-13 -55.5q-6 -33 -10 -67.5t-26 -59.5q-14 -2 -35 -2h-41.5t-40 3t-31.5 7zM223 1815.5q0 17.5 10 25.5q16 20 33 31q20 12 41 25.5t43 19.5q10 2 19.5 4t19.5 2q35 -2 67.5 -8t63.5 -27q23 -16 48.5 -26.5t52.5 -18.5q10 -4 30 -8q41 -6 66 20l41 37q12 10 28 2q4 -4 5 -4 q16 -16 31.5 -43.5t23.5 -50.5q-2 -16 -21 -35q-16 -16 -35.5 -29.5t-41.5 -23.5q-31 -14 -70 -14q-27 2 -51.5 5t-46.5 13q-20 8 -38 17.5t-36 19.5q-10 4 -18.5 10t-18.5 13q-45 25 -104 8q-23 -6 -39 -25q-4 -4 -7.5 -7t-7.5 -7q-20 -20 -41 -2l-41 49q-6 10 -6 27.5z M387 602q45 -6 93 1t95 3q-2 10 -7 51t-14 94.5t-20.5 114t-21.5 110.5t-19.5 82t-13.5 32q0 -2 -1 -2.5t-1 -2.5v-2q-2 -10 -13 -64t-24.5 -127t-29 -152t-23.5 -138z" />
<glyph unicode="&#xc4;" horiz-adv-x="913" d="M82 12q-6 53 4 107.5t25.5 109t33 107.5t27.5 104q29 145 56.5 288.5t56.5 289.5q23 104 45 207.5t47 208.5q10 41 19.5 79.5t21.5 79.5q8 25 24.5 32t38 6t45 -6t43.5 -3q12 -16 22.5 -71.5t17.5 -119t13.5 -120t8.5 -74.5q10 -86 23.5 -171t29.5 -171 q18 -96 36.5 -190.5t41.5 -190.5q16 -63 28.5 -126t26.5 -126q10 -51 21.5 -103.5t9.5 -105.5q0 -29 -19 -49q-16 2 -35.5 1t-41 -1t-40 2t-30.5 10q-4 14 -11 48t-16.5 78t-19.5 92.5t-19.5 90.5t-15.5 71.5t-6 37.5q-55 6 -126 8t-126 -8q-20 -43 -29.5 -95t-19.5 -97 q-8 -29 -14.5 -55.5t-12.5 -55.5q-6 -33 -10 -67.5t-27 -59.5q-14 -2 -34.5 -2h-41t-40 3t-31.5 7zM329 1781.5q-1 26.5 15 53.5t41 37q35 14 70 -19q12 -12 13 -29.5t-6 -33.5t-18.5 -30.5t-21.5 -22.5q-49 -12 -70.5 3t-22.5 41.5zM377 602q45 -6 93 1t95 3q-2 10 -7 51 t-14 94.5t-20.5 114t-21.5 110.5t-19.5 82t-13.5 32q0 -2 -1 -2.5t-1 -2.5v-2q-2 -10 -13.5 -64t-24.5 -127t-28.5 -152t-23.5 -138zM537 1826q14 25 39.5 36.5t54 3.5t45.5 -45q10 -25 2.5 -43.5t-25.5 -28.5q-27 -16 -62.5 -11t-51.5 34t-2 54z" />
<glyph unicode="&#xc5;" horiz-adv-x="974" d="M115 12q-6 53 4 107.5t25.5 109t33 107.5t27.5 104q29 145 56.5 288.5t55.5 289.5q23 104 45.5 207.5t47.5 208.5q10 41 17 68.5t19 68.5q-10 12 -26.5 22.5t-26.5 24.5q-25 35 -26 70l-5 61q-6 53 17.5 91t64.5 65q59 37 129 30.5t123 -61.5q16 -18 26.5 -38.5 t18.5 -47.5q10 -39 3 -75t-23 -75q-12 -35 -41 -55t-66 -24q6 -39 14.5 -89.5t15.5 -98.5t12.5 -85t7.5 -49q10 -86 23 -171t30 -171q18 -96 36.5 -190.5t41.5 -190.5q16 -63 28.5 -125.5t26.5 -126.5q10 -51 21.5 -103.5t9.5 -105.5q0 -29 -19 -49q-16 2 -35.5 1t-41 -1 t-40 2t-30.5 10q-4 14 -11.5 48t-16.5 78t-19.5 92.5t-19.5 90.5t-15 71.5t-6 37.5q-55 6 -126 8t-126 -8q-20 -43 -29.5 -95t-19.5 -97q-8 -29 -14.5 -55.5t-12.5 -55.5q-6 -33 -10 -67.5t-27 -59.5q-14 -2 -34.5 -2h-41t-40 3t-31.5 7zM410 602q45 -6 93 1t95 3 q-2 10 -7 51t-14.5 94.5t-20.5 114t-21.5 110.5t-19.5 82t-13 32q0 -2 -1 -2.5t-1 -2.5v-2q-2 -10 -13.5 -64t-24.5 -127t-28.5 -152t-23.5 -138zM500 1710q4 -10 14 -22q18 -25 53 -13q4 4 12.5 9.5t16.5 11.5q25 25 10 51q-6 10 -29.5 23.5t-35.5 9.5q-2 -2 -4 -2t-5 -2 q-6 -6 -13 -11.5t-11 -13.5q-16 -16 -8 -41z" />
<glyph unicode="&#xc6;" horiz-adv-x="1435" d="M104 6l13 47l73 199q4 14 8.5 27.5t8.5 27.5q16 63 39.5 125t50.5 121q6 12 11 24.5t9 24.5q35 100 76 195.5t82 191.5q12 27 22.5 53.5t20.5 53.5q33 74 65.5 148.5t63.5 148.5q16 39 30.5 77.5t29.5 77.5l10 37q0 6 4 23q6 27 15 35t38 10l154 4q86 2 172 2t172 -6h16 q16 0 25 -19l6 -37q4 -20 5 -39.5t3 -39.5q6 -39 -33 -45q-23 -6 -43 -7q-66 -4 -130 -8t-130 -2h-24.5t-24.5 -4q-10 -29 -11 -56.5t-1 -56.5q-2 -74 -1 -148.5t1 -148.5l4 -211q10 -14 21.5 -17t23.5 -3l195 -6q6 0 12 -1t12 -1q8 -12 10 -25.5t2 -25.5l4 -74 q0 -41 -38 -41h-183q-12 0 -25.5 -1t-25.5 -3q-10 -16 -12 -29.5t-2 -28.5q2 -20 2 -40.5v-42.5v-59t-4 -60q-2 -35 -1 -72t7 -74q6 -33 43 -32h162l108 -7q14 0 27.5 1t25.5 1q20 0 31 -22q0 -4 1 -5t1 -3q0 -33 1 -66t1 -65q-4 -27 -30 -29h-19q-47 -2 -94 -3t-94 -1 q-33 0 -66 1t-67 1h-28.5t-29.5 -2q-37 -6 -74.5 -3t-76.5 5q-2 4 -4 10t-2 10q-2 18 -1 37t-2 37v136.5t-2 136.5q0 23 -2 46t-4 48q-8 2 -14 4t-12 2q-51 -6 -101.5 -5t-101.5 3h-31q-12 -39 -27.5 -75t-25.5 -75l-57 -209q-8 -23 -17.5 -45t-25.5 -43q-31 -10 -64 -13 t-67 -7q-16 -4 -34 -5t-34 -3q-10 0 -16.5 4t-4.5 14zM545 635q8 -2 14 -4t14 -2q16 -2 32 -1t32 1q18 0 35.5 -1t34.5 1q33 0 32 33v40q-6 51 -4 101.5t6 101.5q4 57 5.5 112.5t3.5 115.5q2 4 1 7t-1 9q-10 -6 -13.5 -13.5t-7.5 -13.5l-74 -182q-8 -23 -13 -44.5t-15 -43.5 l-64 -158q-6 -14 -11 -28.5t-7 -30.5z" />
<glyph unicode="&#xc7;" horiz-adv-x="935" d="M102 500.5q2 72.5 4 144.5q2 82 1 166t1.5 167t10.5 165t28 164q16 61 42 119.5t64 105.5t90 77.5t124 37.5q57 4 120.5 -18.5t118 -63.5t89 -96.5t34.5 -116.5q-41 -14 -86 -36t-92 -16q-10 18 -16 37t-13.5 37.5t-18.5 34.5t-30 29q-39 27 -79.5 26.5t-75.5 -28.5 q-41 -33 -63.5 -74t-35 -86t-16.5 -93t-6 -96q-4 -121 -7 -238.5t-1 -238.5q0 -45 -1 -96t4 -102.5t20.5 -98.5t49.5 -82q27 -29 66 -44t76 -3q39 12 62.5 45t39.5 66q10 20 25.5 28.5t34 8.5t39 -5t40.5 -8q16 -2 38 -4t34 -16q16 -16 3 -38.5t-23 -37.5 q-25 -37 -51.5 -73.5t-58.5 -67.5t-70.5 -52.5t-86.5 -27.5q-10 -2 -18 -2h-18q4 -31 32 -47q20 -14 41 -39q8 -8 14.5 -17.5t10.5 -19.5q29 -49 -6 -96q-10 -16 -25.5 -32.5t-34.5 -27.5q-18 -10 -36.5 -20t-38.5 -16q-78 -29 -160 -31h-21q-20 4 -22 18q-6 14 -6 29 q-4 23 -9.5 43t-11.5 43q-4 18 5.5 31.5t27.5 11.5l59 -6h20.5t20.5 2q27 6 35 27q10 23 -12 32l-37 15l-31 10q-4 23 -7 38t-4 30.5l-2 31t-1 37.5q-27 12 -36 26.5t-30 35.5q-55 53 -82.5 116.5t-37 133t-7.5 142z" />
<glyph unicode="&#xc8;" d="M102 1212q0 109 4.5 216.5t-0.5 216.5q14 12 33 17t39.5 7t41 1t38.5 1l135 6q37 2 74 3t74 1q41 2 88 2t86 -20q4 -35 4 -71t10 -70q6 -23 -1 -33t-20.5 -15.5t-31 -5.5h-33.5q-88 -2 -175 -5t-175 -9q2 -72 -2 -145.5t-10.5 -148.5t-9.5 -148.5t5 -143.5q84 0 169 13.5 t171 3.5q8 -25 10.5 -51.5t8.5 -51.5q0 -6 4 -17t6 -23.5t1 -23.5t-9 -16q-16 -10 -44 -9t-46 -1q-66 -4 -133.5 -5t-132.5 -5q-4 -53 0 -106.5t8 -106.5q4 -61 7 -121.5t13 -120.5q49 -10 99.5 -13t101.5 -5q29 -2 58.5 -2h60.5q23 0 52 2t52 -6q10 -18 14.5 -44t4.5 -53.5 t-1 -54t1 -47.5q-25 -2 -77 -4t-117.5 -2h-136.5t-129.5 2t-97 3t-42.5 3q-16 39 -20.5 78t-6.5 80q-4 49 -7 99t-3 99q4 104 3 209t-5 209q-4 109 -6.5 215.5t-4.5 216.5zM383 1917q-4 10 2 18q16 20 51 26.5t62 8.5h4q16 0 25.5 -15.5t14.5 -37t6 -43t3 -31.5 q2 -20 6 -42.5t0 -41.5q-8 -33 -33.5 -33t-42.5 23q-18 25 -30.5 53.5t-28.5 55.5q-4 6 -12.5 16t-15.5 21.5t-11 21.5z" />
<glyph unicode="&#xc9;" d="M102 1212q0 109 4.5 216.5t-0.5 216.5q14 12 33 17t39.5 7t41 1t38.5 1l135 6q37 2 74 3t74 1q41 2 88 2t86 -20q4 -35 4 -71t10 -70q6 -23 -1 -33t-20.5 -15.5t-31 -5.5h-33.5q-88 -2 -175 -5t-175 -9q2 -72 -2 -145.5t-10.5 -148.5t-9.5 -148.5t5 -143.5q84 0 169 13.5 t171 3.5q8 -25 10.5 -51.5t8.5 -51.5q0 -6 4 -17t6 -23.5t1 -23.5t-9 -16q-16 -10 -44 -9t-46 -1q-66 -4 -133.5 -5t-132.5 -5q-4 -53 0 -106.5t8 -106.5q4 -61 7 -121.5t13 -120.5q49 -10 99.5 -13t101.5 -5q29 -2 58.5 -2h60.5q23 0 52 2t52 -6q10 -18 14.5 -44t4.5 -53.5 t-1 -54t1 -47.5q-25 -2 -77 -4t-117.5 -2h-136.5t-129.5 2t-97 3t-42.5 3q-16 39 -20.5 78t-6.5 80q-4 49 -7 99t-3 99q4 104 3 209t-5 209q-4 109 -6.5 215.5t-4.5 216.5zM332 1765q-2 20 6 55t20.5 71t24.5 67t20 41q29 4 64 5t70 -5q8 -8 -3.5 -49t-30 -86t-35.5 -82 t-22 -37q-33 -4 -63.5 1t-50.5 19z" />
<glyph unicode="&#xca;" d="M102 1212q0 109 4.5 216.5t-0.5 216.5q14 12 33 17t39.5 7t41 1t38.5 1l135 6q37 2 74 3t74 1q41 2 88 2t86 -20q4 -35 4 -71t10 -70q6 -23 -1 -33t-20.5 -15.5t-31 -5.5h-33.5q-88 -2 -175 -5t-175 -9q2 -72 -2 -145.5t-10.5 -148.5t-9.5 -148.5t5 -143.5q84 0 169 13.5 t171 3.5q8 -25 10.5 -51.5t8.5 -51.5q0 -6 4 -17t6 -23.5t1 -23.5t-9 -16q-16 -10 -44 -9t-46 -1q-66 -4 -133.5 -5t-132.5 -5q-4 -53 0 -106.5t8 -106.5q4 -61 7 -121.5t13 -120.5q49 -10 99.5 -13t101.5 -5q29 -2 58.5 -2h60.5q23 0 52 2t52 -6q10 -18 14.5 -44t4.5 -53.5 t-1 -54t1 -47.5q-25 -2 -77 -4t-117.5 -2h-136.5t-129.5 2t-97 3t-42.5 3q-16 39 -20.5 78t-6.5 80q-4 49 -7 99t-3 99q4 104 3 209t-5 209q-4 109 -6.5 215.5t-4.5 216.5zM135 1852.5q0 9.5 12 23.5q20 20 40 40.5t42 41.5l119 110q10 10 22.5 17.5t24.5 17.5l21 13 q18 8 33 -9q59 -59 123.5 -116.5t134.5 -106.5q14 -8 24 -22q16 -16 0 -31q-23 -20 -46 -41t-46 -39q-16 -14 -31 0l-24 18l-117 109q-8 6 -14.5 12.5t-20.5 10.5q-33 -25 -65.5 -47.5t-61.5 -49.5l-33 -30q-4 -4 -8 -8.5t-8 -8.5q-16 -10 -23.5 -10t-19.5 12 q-16 16 -32.5 33.5t-33.5 36.5q-12 14 -12 23.5z" />
<glyph unicode="&#xcb;" d="M102 1212q0 109 4.5 216.5t-0.5 216.5q14 12 33 17t39.5 7t41 1t38.5 1l135 6q37 2 74 3t74 1q41 2 88 2t86 -20q4 -35 4 -71t10 -70q6 -23 -1 -33t-20.5 -15.5t-31 -5.5h-33.5q-88 -2 -175 -5t-175 -9q2 -72 -2 -145.5t-10.5 -148.5t-9.5 -148.5t5 -143.5q84 0 169 13.5 t171 3.5q8 -25 10.5 -51.5t8.5 -51.5q0 -6 4 -17t6 -23.5t1 -23.5t-9 -16q-16 -10 -44 -9t-46 -1q-66 -4 -133.5 -5t-132.5 -5q-4 -53 0 -106.5t8 -106.5q4 -61 7 -121.5t13 -120.5q49 -10 99.5 -13t101.5 -5q29 -2 58.5 -2h60.5q23 0 52 2t52 -6q10 -18 14.5 -44t4.5 -53.5 t-1 -54t1 -47.5q-25 -2 -77 -4t-117.5 -2h-136.5t-129.5 2t-97 3t-42.5 3q-16 39 -20.5 78t-6.5 80q-4 49 -7 99t-3 99q4 104 3 209t-5 209q-4 109 -6.5 215.5t-4.5 216.5zM239 1806.5q-1 26.5 15 53t41 36.5q35 14 70 -18q12 -12 13 -29.5t-6 -34t-18.5 -31t-21.5 -22.5 q-49 -12 -70.5 3.5t-22.5 42zM447 1850.5q14 25.5 39.5 36.5t54 3t45.5 -45q10 -25 2.5 -43t-25.5 -28q-27 -16 -62.5 -11.5t-51.5 33.5t-2 54.5z" />
<glyph unicode="&#xcc;" horiz-adv-x="462" d="M104.5 1904.5q-4.5 10.5 1.5 18.5q18 23 55 28t62 7q16 0 25.5 -15.5t14.5 -37t6 -43t3 -31.5q2 -20 6.5 -43t0.5 -41q-8 -33 -34 -33t-42 23q-18 25 -30.5 53.5t-29.5 54.5q-4 6 -12 16.5t-15 21.5t-11.5 21.5zM120 91.5q-1 25.5 1 51t4 45.5q12 117 14 233l4 232 q4 182 -3 361.5t-15 361.5v58.5t2 58.5q0 10 -2 28.5t-2 39t3 36t15 19.5q25 10 53.5 11t53.5 1q14 0 29.5 1t30 -2t23.5 -11.5t9 -26.5q-2 -47 -6 -94t-6 -94q-2 -51 -1 -100.5t1 -98.5q-2 -102 -9.5 -202.5t-7.5 -202.5q0 -104 6.5 -206t1.5 -206q-4 -41 -4 -82t2 -82 q2 -45 4.5 -93t-8.5 -91q-27 -18 -75 -23.5t-86 -7.5q-18 14 -24.5 37t-7.5 48.5z" />
<glyph unicode="&#xcd;" horiz-adv-x="444" d="M83 91.5q-1 25.5 1 51t4 45.5q12 117 14 233l4 232q4 182 -3 361.5t-15 361.5v58.5t2 58.5q0 10 -2 28.5t-2 39t3 36t15 19.5q25 10 53.5 11t53.5 1q14 0 29.5 1t30 -2t23.5 -11.5t9 -26.5q-2 -47 -6 -94t-6 -94q-2 -51 -1 -100.5t1 -98.5q-2 -102 -9.5 -202.5 t-7.5 -202.5q0 -104 6.5 -206t2.5 -206q-4 -41 -4 -82t2 -82q2 -45 4 -93t-9 -91q-27 -18 -74.5 -23.5t-86.5 -7.5q-18 14 -24.5 37t-7.5 48.5zM133 1757q-2 20 6 55t20.5 71t25 66.5t20.5 41.5q29 4 63.5 5t69.5 -5q8 -8 -3 -49t-29.5 -86.5t-36 -82t-21.5 -36.5 q-33 -4 -63.5 1t-51.5 19z" />
<glyph unicode="&#xce;" horiz-adv-x="468" d="M-14 1815.5q0 9.5 12 23.5q20 20 39.5 41t42.5 41l119 111q10 10 22 17t25 17l20 13q18 8 33 -8q59 -59 123.5 -117t134.5 -107q14 -8 25 -22q16 -16 0 -31q-23 -20 -46.5 -40.5t-46.5 -39.5q-16 -14 -30 0l-25 19l-117 108q-8 6 -14 12.5t-20 10.5q-33 -25 -66 -47.5 t-61 -49.5l-33 -30q-4 -4 -8 -8.5t-9 -8.5q-16 -10 -23 -10t-20 12q-16 16 -32.5 34t-32.5 36q-12 14 -12 23.5zM116 91.5q-1 25.5 1 51t4 45.5q12 117 14 233l4 232q4 182 -3 361.5t-15 361.5v58.5t2 58.5q0 10 -2 28.5t-2 39t3 36t15 19.5q25 10 53.5 11t53.5 1 q14 0 29.5 1t29.5 -2t23.5 -11.5t9.5 -26.5q-2 -47 -6 -94t-6 -94q-2 -51 -1 -100.5t1 -98.5q-2 -102 -9.5 -202.5t-7.5 -202.5q0 -104 6 -206t2 -206q-4 -41 -4 -82t2 -82q2 -45 4 -93t-8 -91q-27 -18 -75 -23.5t-87 -7.5q-18 14 -24 37t-7 48.5z" />
<glyph unicode="&#xcf;" horiz-adv-x="559" d="M103 1796q-1 27 15.5 53.5t41.5 36.5q35 14 69 -18q12 -12 13.5 -29.5t-6 -34t-18.5 -31t-21 -22.5q-49 -12 -71 3t-23 42zM130 91.5q-1 25.5 1 51t4 45.5q12 117 14.5 233t4.5 232q4 182 -3.5 361.5t-15.5 361.5v58.5t2 58.5q0 10 -2 28.5t-2 39t3 36t16 19.5 q25 10 53 11t53 1q14 0 29.5 1t30 -2t23.5 -11.5t9 -26.5q-2 -47 -6 -94t-6 -94q-2 -51 -1 -100.5t1 -98.5q-2 -102 -9 -202.5t-7 -202.5q0 -104 6 -206t2 -206q-4 -41 -4 -82t2 -82q2 -45 4 -93t-8 -91q-27 -18 -75 -23.5t-87 -7.5q-18 14 -24.5 37t-7.5 48.5z M311.5 1840.5q14.5 25.5 40 36.5t54 3t45.5 -45q10 -25 2.5 -43.5t-25.5 -28.5q-27 -16 -62.5 -11t-52.5 34q-16 29 -1.5 54.5z" />
<glyph unicode="&#xd0;" horiz-adv-x="944" d="M33 797q2 29 1 56.5t-1 55.5q0 20 6 27q4 2 10 2l96 -4q2 78 6.5 157.5t2.5 157.5q-2 51 2 100.5t2 98.5q-2 51 -3 101t13 100q37 16 78 18t82 0q47 -2 93 -4t93 -8q33 -4 70 -11.5t72.5 -19.5t66.5 -32.5t49 -49.5q23 -35 35 -73.5t18 -79.5t8.5 -83t4.5 -81 q6 -100 -1.5 -198.5t-7.5 -197.5q2 -96 4.5 -191t-4.5 -189q-4 -47 -3 -92.5t-13 -90.5q-14 -39 -36.5 -74.5t-49.5 -68.5q-51 -66 -121.5 -84.5t-146.5 -26.5q-16 -2 -59.5 -4t-91.5 -5t-91 -4t-61 1q-16 53 -15.5 99.5t0.5 95.5q0 55 3 111t1 112q-4 88 1.5 175t3.5 175 h-68q-14 0 -21 -4q-4 -4 -10 -1t-12 5q-2 0 -4 9t-2 20zM318.5 370.5q-5.5 -98.5 0.5 -196.5q53 -8 109.5 3t110.5 24q55 12 75.5 52t30.5 93q12 61 13 125t4 127q0 33 2 108.5t4 159.5t4 159t4 110q2 53 -3 111.5t-20 111.5q-14 49 -50 74.5t-80 35t-92 7.5t-89 -11 q-4 -109 -8 -226.5t-10 -231.5l-5 -72h154q25 -4 45 -8q4 0 12 -8q6 -4 7 -21q0 -29 1 -59.5t1 -59.5q0 -35 -11 -35h-16t-16 2q-2 0 -18.5 1.5t-42 3.5t-55.5 4t-58 4q2 -47 3 -95.5t1 -95.5q-2 -98 -7.5 -196.5z" />
<glyph unicode="&#xd1;" horiz-adv-x="1001" d="M102 33q10 16 10.5 36.5t0.5 39.5q0 31 2 60.5t4 57.5q4 59 6 117.5t0 118.5q-2 123 4 242.5t8 242.5t9.5 243t5.5 243v45t2 45q2 16 3 41.5t11 38.5q12 12 32.5 17t42 7t43 1t38.5 -1q18 -20 23 -50t15 -56l44 -138q23 -72 42 -144.5t48 -141.5q27 -59 48 -122t48 -124 q12 -29 24.5 -58.5t26.5 -58.5q6 -33 20.5 -61.5t30.5 -57.5q8 66 5 131.5t-5 131.5t3 131t12 131q4 63 7 127.5t7 130.5q2 31 3 62.5t1 64.5q0 29 -6 67.5t4 67.5q18 -4 43 -4h51.5t50 -3t41.5 -9q23 -8 26 -21.5t1 -36.5q-6 -35 -6 -71.5t-2 -71.5q-10 -145 -15.5 -287.5 t-13.5 -286.5q-8 -150 -10 -317.5t-14 -314.5q-4 -49 -1 -99.5t-4 -99.5q-4 -25 -27.5 -36t-54 -13t-59.5 3t-43 13q-6 10 -10 23.5t-8 25.5q-20 47 -53 142.5t-69 201t-66.5 201.5t-47.5 148q-18 68 -36.5 145.5t-57.5 136.5q4 -8 1 -16t-3 -15q-4 -35 0 -67q2 -57 0 -119 q-4 -63 -9 -125.5t-10 -126.5l-12 -260q-4 -68 -8 -138.5t6 -135.5q-4 -10 -17.5 -15.5t-29.5 -7.5t-32.5 -2h-24.5q-25 -2 -56.5 0t-42.5 31zM188.5 1829.5q-0.5 17.5 10.5 25.5q16 20 32 31q20 12 41 25.5t43 19.5q10 2 19.5 4t19.5 2q35 -2 68 -8t63 -26 q23 -16 48.5 -26.5t52.5 -18.5q10 -4 30 -9q41 -6 66 21l41 37q12 10 29 2l4 -4q16 -16 31.5 -44t23.5 -51q-2 -16 -20 -34q-16 -16 -36 -29.5t-42 -24.5q-31 -14 -70 -14q-27 2 -51.5 5t-46.5 13q-20 8 -38 17.5t-36 19.5q-10 4 -18.5 10.5t-18.5 12.5q-45 25 -104 8 q-23 -6 -39 -25l-7 -7t-8 -7q-20 -20 -40 -2l-41 49q-6 10 -6.5 27.5z" />
<glyph unicode="&#xd2;" horiz-adv-x="946" d="M104 967q2 51 1 103t0 104.5t9.5 103.5t28.5 100q43 100 129 174q47 41 110.5 57.5t127.5 18.5q63 2 116.5 -27.5t94.5 -74.5q18 -23 38.5 -40.5t33.5 -43.5q16 -33 23.5 -68.5t17.5 -70.5q14 -109 8 -217.5t-4 -219.5q2 -98 1 -197.5t-3 -197.5q-2 -39 0 -88t-2.5 -98 t-17.5 -94.5t-44 -73.5q-35 -31 -71.5 -61.5t-82.5 -41.5q-49 -12 -101 -14t-101 10q-18 4 -41 10.5t-39 20.5t-34.5 21.5t-35.5 21.5q-35 27 -53 64.5t-35 76.5q-35 84 -44 167t-15 171q-4 53 -6 107.5t-4 107.5q-2 47 -4.5 94.5t-0.5 94.5zM306 781q5 -104 9 -210 q2 -41 4.5 -89t11.5 -96t26.5 -91t52.5 -74q18 -16 50 -25.5t65.5 -9.5t62 11.5t39.5 38.5q14 35 17 77.5t7 77.5q4 27 8.5 52.5t4.5 52.5q0 23 4 44t8 44q12 98 9 193t-7 194q-2 45 1 91t3 92t-7 91t-26 88q-14 35 -44 55.5t-64 28.5q-49 10 -87 -4t-75 -43 q-14 -41 -29.5 -82t-21.5 -86q-10 -53 -11.5 -105.5t-5.5 -105.5q-10 -106 -5 -210zM383 1917q-4 10 2 18q16 20 52 26.5t61 8.5h4q16 0 25.5 -15.5t14.5 -37t6 -43t3 -31.5q2 -20 6 -42.5t0 -41.5q-8 -33 -33.5 -33t-42.5 23q-18 25 -30.5 53.5t-28.5 55.5q-4 6 -12.5 16 t-15.5 21.5t-11 21.5z" />
<glyph unicode="&#xd3;" horiz-adv-x="946" d="M104 967q2 51 1 103t0 104.5t9.5 103.5t28.5 100q43 100 129 174q47 41 110.5 57.5t127.5 18.5q63 2 116.5 -27.5t94.5 -74.5q18 -23 38.5 -40.5t33.5 -43.5q16 -33 23.5 -68.5t17.5 -70.5q14 -109 8 -217.5t-4 -219.5q2 -98 1 -197.5t-3 -197.5q-2 -39 0 -88t-2.5 -98 t-17.5 -94.5t-44 -73.5q-35 -31 -71.5 -61.5t-82.5 -41.5q-49 -12 -101 -14t-101 10q-18 4 -41 10.5t-39 20.5t-34.5 21.5t-35.5 21.5q-35 27 -53 64.5t-35 76.5q-35 84 -44 167t-15 171q-4 53 -6 107.5t-4 107.5q-2 47 -4.5 94.5t-0.5 94.5zM306 781q5 -104 9 -210 q2 -41 4.5 -89t11.5 -96t26.5 -91t52.5 -74q18 -16 50 -25.5t65.5 -9.5t62 11.5t39.5 38.5q14 35 17 77.5t7 77.5q4 27 8.5 52.5t4.5 52.5q0 23 4 44t8 44q12 98 9 193t-7 194q-2 45 1 91t3 92t-7 91t-26 88q-14 35 -44 55.5t-64 28.5q-49 10 -87 -4t-75 -43 q-14 -41 -29.5 -82t-21.5 -86q-10 -53 -11.5 -105.5t-5.5 -105.5q-10 -106 -5 -210zM463 1749q-2 20 6 55t20.5 71t24.5 66.5t21 40.5q29 4 63.5 5t69.5 -5q8 -8 -3.5 -49t-30 -86t-35.5 -81.5t-21 -36.5q-33 -4 -64 1t-51 19z" />
<glyph unicode="&#xd4;" horiz-adv-x="946" d="M104 967q2 51 1 103t0 104.5t9.5 103.5t28.5 100q43 100 129 174q47 41 110.5 57.5t127.5 18.5q63 2 116.5 -27.5t94.5 -74.5q18 -23 38.5 -40.5t33.5 -43.5q16 -33 23.5 -68.5t17.5 -70.5q14 -109 8 -217.5t-4 -219.5q2 -98 1 -197.5t-3 -197.5q-2 -39 0 -88t-2.5 -98 t-17.5 -94.5t-44 -73.5q-35 -31 -71.5 -61.5t-82.5 -41.5q-49 -12 -101 -14t-101 10q-18 4 -41 10.5t-39 20.5t-34.5 21.5t-35.5 21.5q-35 27 -53 64.5t-35 76.5q-35 84 -44 167t-15 171q-4 53 -6 107.5t-4 107.5q-2 47 -4.5 94.5t-0.5 94.5zM193 1780.5q0 9.5 12 23.5 q20 20 39.5 41t42.5 41l119 111q10 10 22 17t25 18l20 12q18 8 33 -8q59 -59 123.5 -116.5t134.5 -107.5q14 -8 24 -22q16 -16 0 -31q-23 -20 -46 -40.5t-46 -39.5q-16 -14 -30 0l-25 19l-117 108q-8 6 -14.5 12.5t-20.5 10.5q-33 -25 -65.5 -47.5t-61.5 -48.5l-32 -31 q-4 -4 -8.5 -8t-8.5 -8q-16 -10 -23 -10.5t-20 12.5q-16 16 -32.5 33.5t-32.5 35.5q-12 14 -12 23.5zM306 781q5 -104 9 -210q2 -41 4.5 -89t11.5 -96t26.5 -91t52.5 -74q18 -16 50 -25.5t65.5 -9.5t62 11.5t39.5 38.5q14 35 17 77.5t7 77.5q4 27 8.5 52.5t4.5 52.5 q0 23 4 44t8 44q12 98 9 193t-7 194q-2 45 1 91t3 92t-7 91t-26 88q-14 35 -44 55.5t-64 28.5q-49 10 -87 -4t-75 -43q-14 -41 -29.5 -82t-21.5 -86q-10 -53 -11.5 -105.5t-5.5 -105.5q-10 -106 -5 -210z" />
<glyph unicode="&#xd5;" horiz-adv-x="946" d="M104 967q2 51 1 103t0 104.5t9.5 103.5t28.5 100q43 100 129 174q47 41 110.5 57.5t127.5 18.5q63 2 116.5 -27.5t94.5 -74.5q18 -23 38.5 -40.5t33.5 -43.5q16 -33 23.5 -68.5t17.5 -70.5q14 -109 8 -217.5t-4 -219.5q2 -98 1 -197.5t-3 -197.5q-2 -39 0 -88t-2.5 -98 t-17.5 -94.5t-44 -73.5q-35 -31 -71.5 -61.5t-82.5 -41.5q-49 -12 -101 -14t-101 10q-18 4 -41 10.5t-39 20.5t-34.5 21.5t-35.5 21.5q-35 27 -53 64.5t-35 76.5q-35 84 -44 167t-15 171q-4 53 -6 107.5t-4 107.5q-2 47 -4.5 94.5t-0.5 94.5zM176 1840q0 18 10 26 q16 20 33 30q20 12 41 25.5t43 20.5q10 2 19.5 4t19.5 2q35 -2 67.5 -8.5t63.5 -26.5q23 -16 48.5 -26.5t51.5 -18.5q10 -4 31 -8q41 -6 66 20l41 37q12 10 28 2l4 -4q16 -16 32 -43.5t24 -50.5q-2 -16 -21 -35q-16 -16 -35.5 -29.5t-42.5 -23.5q-31 -14 -69 -15 q-27 2 -51.5 5t-47.5 14q-20 8 -37.5 17t-35.5 20q-10 4 -18.5 10t-18.5 12q-45 25 -105 8q-23 -6 -38 -24l-7.5 -7.5l-7.5 -7.5q-20 -20 -41 -2l-41 49q-6 10 -6 28zM306 781q5 -104 9 -210q2 -41 4.5 -89t11.5 -96t26.5 -91t52.5 -74q18 -16 50 -25.5t65.5 -9.5t62 11.5 t39.5 38.5q14 35 17 77.5t7 77.5q4 27 8.5 52.5t4.5 52.5q0 23 4 44t8 44q12 98 9 193t-7 194q-2 45 1 91t3 92t-7 91t-26 88q-14 35 -44 55.5t-64 28.5q-49 10 -87 -4t-75 -43q-14 -41 -29.5 -82t-21.5 -86q-10 -53 -11.5 -105.5t-5.5 -105.5q-10 -106 -5 -210z" />
<glyph unicode="&#xd6;" horiz-adv-x="935" d="M104 967q2 51 1 103t0 104.5t9.5 103.5t28.5 100q43 100 129 174q47 41 110.5 57.5t127.5 18.5q63 2 116.5 -27.5t94.5 -74.5q18 -23 38.5 -40.5t33.5 -43.5q16 -33 23.5 -68.5t17.5 -70.5q14 -109 8 -217.5t-4 -219.5q2 -98 1 -197.5t-3 -197.5q-2 -39 0 -88t-2.5 -98 t-17.5 -94.5t-44 -73.5q-35 -31 -71.5 -61.5t-82.5 -41.5q-49 -12 -101 -14t-101 10q-18 4 -41 10.5t-39 20.5t-34.5 21.5t-35.5 21.5q-35 27 -53 64.5t-35 76.5q-35 84 -44 167t-15 171q-4 53 -6 107.5t-4 107.5q-2 47 -4.5 94.5t-0.5 94.5zM306 781q5 -104 9 -210 q2 -41 4.5 -89t11.5 -96t26.5 -91t52.5 -74q18 -16 50 -25.5t65.5 -9.5t62 11.5t39.5 38.5q14 35 17 77.5t7 77.5q4 27 8.5 52.5t4.5 52.5q0 23 4 44t8 44q12 98 9 193t-7 194q-2 45 1 91t3 92t-7 91t-26 88q-14 35 -44 55.5t-64 28.5q-49 10 -87 -4t-75 -43 q-14 -41 -29.5 -82t-21.5 -86q-10 -53 -11.5 -105.5t-5.5 -105.5q-10 -106 -5 -210zM310 1779.5q-1 26.5 15.5 53.5t41.5 37q35 14 69 -19q12 -12 13.5 -29.5t-6 -33.5t-18.5 -30.5t-22 -22.5q-49 -12 -70.5 3t-22.5 41.5zM518 1823.5q14 25.5 40 37t54.5 3t44.5 -44.5 q10 -25 3 -43.5t-25 -28.5q-27 -16 -62.5 -11t-52.5 33q-16 29 -2 54.5z" />
<glyph unicode="&#xd7;" horiz-adv-x="811" d="M102 922q23 29 44.5 53t50.5 49q14 14 33.5 9t38 -18.5t34.5 -29.5t27 -24q16 -16 31.5 -28.5t25.5 -23.5q12 -10 25 -20q35 49 69 86q29 33 57.5 58.5t45.5 21.5q37 -10 56 -26.5t30 -35.5q10 -23 12 -45q-33 -37 -61 -67q-25 -29 -48.5 -54.5t-35.5 -35.5q-8 -6 14 -34 t54 -60.5t62.5 -61.5t41.5 -37q-4 -10 -21.5 -32.5t-39 -45t-43 -37t-32.5 -6.5q-45 31 -93 76t-83 82q-29 -41 -63.5 -74t-67.5 -69q-20 -23 -32.5 -29t-23.5 -2t-22.5 15t-27.5 26q-12 10 -24.5 18t-19.5 17.5t-5 21.5t18 29q18 20 41 43.5t45.5 46t39.5 42t28 30.5 q-45 37 -91.5 87t-89.5 85z" />
<glyph unicode="&#xd8;" horiz-adv-x="1034" d="M103.5 604q-3.5 90 7.5 182l24 201q4 39 8 77t9 77q8 72 31.5 135t60.5 123q66 98 184 133q27 6 51.5 10t52.5 2q35 -2 68 -1t70 -1q10 12 13 28.5t5 33.5q2 10 4 18t8 14q16 20 41 9l99 -50l63 -26q0 -8 1 -15.5t-1 -13.5l-18 -53q-4 -10 -7.5 -21.5t-7.5 -21.5 q-8 -29 -10 -57.5t8 -57.5q18 -68 29.5 -136.5t22.5 -139.5q10 -90 11 -179.5t-1 -181.5q0 -16 -1 -30.5t-1 -30.5q2 -53 -3 -105.5t-10 -105.5q-6 -76 -30 -146q-27 -78 -92 -143q-6 -6 -13.5 -11t-15.5 -9q-35 -23 -68.5 -41.5t-70.5 -32.5t-75 -23.5t-79 -13.5 q-18 0 -29 -2l-34 -113l-21 -53q-12 -20 -33 -18l-20 6l-82 18q-4 0 -8 1t-8 1q-23 8 -33 16.5t0 41.5q4 16 7 33.5t7 33.5q4 10 6 21.5t6 21.5q10 20 14.5 42t10.5 44q6 14 -6 29l-31 35q-33 35 -52.5 74.5t-29.5 84.5q-12 51 -18 105q-10 92 -13.5 182zM299 664 q4 -35 4 -71t2 -71q2 -23 4 -43t10 -41q0 -4 11 -14q4 8 6 14t4 13q14 47 27.5 95t29.5 95q12 35 23.5 73t23.5 72l39 121q10 27 17.5 52.5t15.5 52.5q27 78 50.5 156.5t43.5 158.5l6 29l-10 6h-65.5t-65.5 -2q-18 0 -26 -14q-20 -23 -39 -45.5t-37 -45.5 q-16 -20 -22.5 -42.5t-8.5 -47.5l-12 -82q-10 -45 -15.5 -89t-5.5 -91q0 -10 -1 -22.5t-1 -22.5q-4 -49 -8 -97t0 -97zM492 215q-2 -18 16 -25q6 -4 22 -8q70 -6 129 41q23 16 35.5 40t20.5 52q8 29 14 57.5t12 57.5q8 33 12.5 64.5t2.5 66.5v55.5t-2 55.5l-15 223l-4 45 q-2 10 -4 22.5t-12 24.5q-2 -8 -3 -13t-1 -9q-12 -59 -29.5 -118t-38.5 -116l-39 -117q-25 -78 -48 -154.5t-46 -154.5q-6 -18 -11 -35.5t-9 -36.5q-2 -6 -2 -18z" />
<glyph unicode="&#xd9;" horiz-adv-x="964" d="M100 805q-2 88 1 175t8 175q4 63 6 127t4 129v102q-2 27 -8.5 60t16.5 55q39 6 85 5t85 -15q8 -115 -5 -226.5t-18 -226.5q-4 -119 -4 -237.5t9 -237.5q4 -57 9 -113.5t11 -113.5q4 -47 10 -96.5t29 -90.5q18 -39 51 -61t73 -28.5t80 1t74 27.5q31 18 50.5 47t31 62.5 t15.5 70.5t6 70q2 68 1 135.5t-5 136.5q-4 150 -10.5 299.5t-12.5 298.5q-2 37 -3 75t-5 75q-2 27 -9 67.5t3 65.5q18 12 48 15t52 5q8 2 16.5 4.5t16.5 -0.5q2 0 10 -3t16.5 -8t14.5 -9l6 -4q12 -37 13 -79t6 -83q10 -121 16 -241.5t8 -243.5l4 -250t-12 -250 q-6 -57 -18.5 -114.5t-35 -112t-57 -100.5t-86.5 -78q-55 -37 -121.5 -51.5t-132.5 -14.5q-35 0 -71.5 15.5t-70.5 39t-63.5 53t-50.5 58.5q-23 31 -31 70.5t-14 74.5q-23 123 -30 247t-11 247zM387 1874q-4 10 2 18q16 20 51 26.5t62 8.5h4q16 0 25.5 -15.5t14.5 -37t6 -43 t3 -31.5q2 -20 6 -42.5t0 -41.5q-8 -33 -33.5 -33t-42.5 23q-18 25 -30.5 53.5t-28.5 55.5q-4 6 -12 16t-15.5 21.5t-11.5 21.5z" />
<glyph unicode="&#xda;" horiz-adv-x="1001" d="M100 805q-2 88 1 175t8 175q4 63 6 127t4 129v102q-2 27 -8.5 60t16.5 55q39 6 85 5t85 -15q8 -115 -5 -226.5t-18 -226.5q-4 -119 -4 -237.5t9 -237.5q4 -57 9 -113.5t11 -113.5q4 -47 10 -96.5t29 -90.5q18 -39 51 -61t73 -28.5t80 1t74 27.5q31 18 50.5 47t31 62.5 t15.5 70.5t6 70q2 68 1 135.5t-5 136.5q-4 150 -10.5 299.5t-12.5 298.5q-2 37 -3 75t-5 75q-2 27 -9 67.5t3 65.5q18 12 48 15t52 5q8 2 16.5 4.5t16.5 -0.5q2 0 10 -3t16.5 -8t14.5 -9l6 -4q12 -37 13 -79t6 -83q10 -121 16 -241.5t8 -243.5l4 -250t-12 -250 q-6 -57 -18.5 -114.5t-35 -112t-57 -100.5t-86.5 -78q-55 -37 -121.5 -51.5t-132.5 -14.5q-35 0 -71.5 15.5t-70.5 39t-63.5 53t-50.5 58.5q-23 31 -31 70.5t-14 74.5q-23 123 -30 247t-11 247zM426 1722q-2 20 6 55t20.5 71t24.5 67t21 41q29 4 63.5 5t69.5 -5 q8 -8 -3.5 -49t-29.5 -86t-35.5 -82t-21.5 -37q-33 -4 -64 1t-51 19z" />
<glyph unicode="&#xdb;" horiz-adv-x="983" d="M100 805q-2 88 1 175t8 175q4 63 6 127t4 129v102q-2 27 -8.5 60t16.5 55q39 6 85 5t85 -15q8 -115 -5 -226.5t-18 -226.5q-4 -119 -4 -237.5t9 -237.5q4 -57 9 -113.5t11 -113.5q4 -47 10 -96.5t29 -90.5q18 -39 51 -61t73 -28.5t80 1t74 27.5q31 18 50.5 47t31 62.5 t15.5 70.5t6 70q2 68 1 135.5t-5 136.5q-4 150 -10.5 299.5t-12.5 298.5q-2 37 -3 75t-5 75q-2 27 -9 67.5t3 65.5q18 12 48 15t52 5q8 2 16.5 4.5t16.5 -0.5q2 0 10 -3t16.5 -8t14.5 -9l6 -4q12 -37 13 -79t6 -83q10 -121 16 -241.5t8 -243.5l4 -250t-12 -250 q-6 -57 -18.5 -114.5t-35 -112t-57 -100.5t-86.5 -78q-55 -37 -121.5 -51.5t-132.5 -14.5q-35 0 -71.5 15.5t-70.5 39t-63.5 53t-50.5 58.5q-23 31 -31 70.5t-14 74.5q-23 123 -30 247t-11 247zM207 1833.5q0 9.5 12 24.5q20 20 40 40.5t42 40.5l119 111q10 10 22.5 17.5 t24.5 17.5l20 12q18 8 33 -8q59 -59 124 -116.5t134 -106.5q14 -8 25 -23q16 -16 0 -31q-23 -20 -46.5 -40.5t-45.5 -38.5q-16 -14 -31 0l-25 18l-116 109q-8 6 -14.5 12t-20.5 10q-33 -25 -65.5 -47.5t-61.5 -48.5l-33 -31l-8 -8l-8 -8q-16 -10 -23.5 -10t-19.5 12 q-16 16 -32.5 33.5t-33.5 35.5q-12 14 -12 23.5z" />
<glyph unicode="&#xdc;" horiz-adv-x="950" d="M100 805q-2 88 1 175t8 175q4 63 6 127t4 129v102q-2 27 -8.5 60t16.5 55q39 6 85 5t85 -15q8 -115 -5 -226.5t-18 -226.5q-4 -119 -4 -237.5t9 -237.5q4 -57 9 -113.5t11 -113.5q4 -47 10 -96.5t29 -90.5q18 -39 51 -61t73 -28.5t80 1t74 27.5q31 18 50.5 47t31 62.5 t15.5 70.5t6 70q2 68 1 135.5t-5 136.5q-4 150 -10.5 299.5t-12.5 298.5q-2 37 -3 75t-5 75q-2 27 -9 67.5t3 65.5q18 12 48 15t52 5q8 2 16.5 4.5t16.5 -0.5q2 0 10 -3t16.5 -8t14.5 -9l6 -4q12 -37 13 -79t6 -83q10 -121 16 -241.5t8 -243.5l4 -250t-12 -250 q-6 -57 -18.5 -114.5t-35 -112t-57 -100.5t-86.5 -78q-55 -37 -121.5 -51.5t-132.5 -14.5q-35 0 -71.5 15.5t-70.5 39t-63.5 53t-50.5 58.5q-23 31 -31 70.5t-14 74.5q-23 123 -30 247t-11 247zM341 1765.5q-1 26.5 15 53t41 36.5q35 14 70 -18q12 -12 13 -29.5t-6 -34 t-18.5 -30.5t-21.5 -23q-49 -12 -70.5 3.5t-22.5 42zM549 1809.5q14 25.5 39.5 37t54.5 3t45 -45.5q10 -25 3 -43t-25 -28q-27 -16 -63 -11.5t-52 33.5t-2 54.5z" />
<glyph unicode="&#xdd;" horiz-adv-x="1001" d="M104 1606q-2 12 25 24t60.5 18.5t65.5 5.5t38 -14q2 -4 16.5 -50t35 -112.5t45 -143.5t46 -142.5t36.5 -110.5t20 -47q4 4 19 48t36.5 107.5t45 137.5t44 139.5t34 112.5t13.5 59q12 20 34.5 19.5t41.5 -4.5q20 -2 44.5 1t45.5 -7q8 -4 3 -32t-16.5 -62.5t-22.5 -66.5 t-13 -42q-6 -18 -22.5 -76.5t-40 -137.5t-48 -166t-46 -163t-37 -131.5t-15.5 -69.5q0 -6 1 -56t1 -124v-159t-1 -157.5t-4 -123.5t-7 -57q-8 -10 -25.5 -6.5t-30.5 1.5q-16 -2 -32.5 -7t-32.5 -1q-6 6 -8 49t-2 97.5t1 105.5t1 76q0 20 -2 69.5t-5.5 104.5t-6.5 104.5 t-5 71.5q-8 70 -41 137q-6 12 -18.5 45t-29.5 77t-36.5 95.5t-37 101.5t-33 93t-23.5 72q-10 37 -24.5 72.5t-28.5 72.5q-8 18 -14.5 36.5t-12.5 39.5q-6 18 -16 36.5t-15 39.5zM414 1726q-2 20 6 55.5t20.5 71t24.5 66.5t20 41q29 4 63.5 5t69.5 -5q8 -8 -3 -49t-29.5 -86 t-36 -82t-21.5 -37q-33 -4 -63.5 1t-50.5 19z" />
<glyph unicode="&#xde;" horiz-adv-x="866" d="M103.5 498.5q5.5 242.5 11.5 484.5v76.5t3 129.5t7 151.5t12 144t20.5 108.5t30.5 45q20 2 40 1t40 -1q16 0 23.5 -3t19.5 -9q4 -14 4 -27.5t4 -25.5q53 14 107.5 22.5t108.5 -8.5q47 -16 84.5 -49t62.5 -74q63 -109 73.5 -233.5t2.5 -245.5q-4 -66 -2 -130t-11 -130 q-10 -55 -31.5 -107.5t-56.5 -97.5q-45 -55 -110.5 -92t-140.5 -33q-31 2 -57.5 15.5t-55.5 17.5q0 -80 -2 -158q-2 -66 -4 -137.5t-4 -124.5q-35 -4 -81 -4t-81 4q-23 248 -17.5 490.5zM287 740q0 -46 16 -85q31 -33 78 -61.5t106 -5.5q39 29 61 77t32 107q16 109 18 220.5 t-6 219.5q-4 45 -22.5 89.5t-43.5 80.5q-27 41 -65.5 44.5t-79.5 -19.5q-45 -23 -58.5 -66t-19.5 -90q-16 -106 -14 -211.5t-2 -210.5v-89z" />
<glyph unicode="&#xdf;" horiz-adv-x="1081" d="M102 623.5q0 48.5 2 97.5l5 215l6 219v119.5t4 120.5q4 47 9 93t15 93q16 78 66.5 125t128.5 66q104 25 215 2q98 -18 162 -95q45 -53 73.5 -111.5t38.5 -125.5q4 -16 7.5 -28.5t7.5 -27.5q8 -33 10 -64.5t0 -64.5q-4 -86 -49 -153q-10 -14 -21.5 -24.5t-23.5 -24.5 l53 -56q53 -55 88 -125q23 -47 39 -95t23 -101q4 -35 10 -71t6 -70q2 -92 -21.5 -173t-89.5 -149q-25 -27 -51.5 -50.5t-54.5 -43.5q-31 -25 -68 -37q-29 -10 -57.5 -19.5t-59.5 -15.5q-41 -10 -79.5 -9t-79.5 9q-23 4 -29 27q-8 18 -4 35q2 33 4 63.5t6 63.5q4 20 10.5 26 t26.5 2q25 -4 50.5 -5t49.5 -1q20 0 39 4t39 8q61 18 101 70q16 23 26 45.5t17 48.5q20 90 2 187q-6 29 -10.5 59.5t-8.5 58.5q-10 70 -45 122t-88 93q-10 8 -23.5 12.5l-25.5 8.5q-29 8 -56.5 13t-56.5 3q-31 -2 -42 8.5t-15 45.5q-2 25 1 50t7 50t20.5 40t51.5 7 q57 -14 115 14q51 27 67 88q4 14 5 28.5t3 31.5q4 33 -4 60.5t-22 56.5q-8 20 -15 28q-4 8 -9 16.5t-11 14.5q-29 31 -71 38t-83 -9t-69 -58q-14 -20 -23.5 -36.5t-15.5 -34t-9.5 -39t-5.5 -54.5q-4 -66 -9 -129t-1 -129q2 -43 1 -85t-1 -83v-39v-55t8 -55q4 -10 4 -21.5 t2 -21.5q4 -86 6.5 -169t6.5 -169q4 -51 2 -102.5t-4 -104.5v-27.5t2 -27.5q0 -25 -13 -39q-4 -4 -8 -6l-8 -4l-143 -9q-4 0 -9.5 2.5t-9.5 4.5q-8 12 -9 26.5t-1 28.5l-12 149q-2 16 -3 34t-1 36q-2 45 -3 90t-6 92q-4 49 -4 97.5z" />
<glyph unicode="&#xe0;" horiz-adv-x="821" d="M96 479q6 100 50 190.5t143 131.5q35 16 76 24.5t81 -0.5q2 0 16.5 -3t32 -7t31.5 -7l13 -3q12 27 16 59.5t-3 63t-24.5 56.5t-46.5 38q-39 14 -58.5 1t-30.5 -40t-19 -56.5t-25 -47.5q-33 -4 -74 -3t-59 21q-16 63 8.5 126.5t72.5 111t112.5 71t126.5 6.5 q78 -20 116.5 -74.5t55.5 -129.5q16 -78 22 -165t-10 -165l2 2q4 -59 0 -116.5t-6 -117.5v-260q0 -16 2 -44.5t0 -56.5t-12.5 -48.5t-36.5 -20.5q-23 0 -49.5 -12t-49.5 -4q-16 6 -19 21.5t-9 35.5q-29 -18 -56 -30q-25 -10 -52 -19.5t-54 -5.5q-43 8 -86 30.5t-72 55.5 q-16 16 -30.5 35.5t-30.5 38.5q-16 23 -23.5 51.5t-15.5 52.5q-29 104 -25 213zM284 451.5q-3 -56.5 3 -111.5t24.5 -95t48 -58.5t74.5 1.5q33 14 56.5 41t37 61t19.5 70.5t6 71.5q0 29 -2 66t-11.5 71.5t-27.5 63.5t-51 41q-35 0 -63.5 -8.5t-49.5 -22.5l-2 -2h-2l-4 -4 l-4 -4l-4 -4q-20 -25 -32.5 -73t-15.5 -104.5zM332 629q4 2 9 7l7 7q-2 0 -2 -2h-2l-4 -4l-4 -4zM342 1515.5q-4 10.5 2 18.5q16 20 51 26.5t62 8.5h4q16 0 25.5 -15.5t14.5 -37t6 -43t3 -31.5q2 -20 6 -43t0 -41q-8 -33 -33.5 -33t-42.5 23q-18 25 -30.5 53.5t-28.5 54.5 q-4 6 -12.5 16.5t-15.5 21.5t-11 21.5z" />
<glyph unicode="&#xe1;" horiz-adv-x="843" d="M96 479q6 100 50 190.5t143 131.5q35 16 76 24.5t81 -0.5q2 0 16.5 -3t32 -7t31.5 -7l13 -3q12 27 16 59.5t-3 63t-24.5 56.5t-46.5 38q-39 14 -58.5 1t-30.5 -40t-19 -56.5t-25 -47.5q-33 -4 -74 -3t-59 21q-16 63 8.5 126.5t72.5 111t112.5 71t126.5 6.5 q78 -20 116.5 -74.5t55.5 -129.5q16 -78 22 -165t-10 -165l2 2q4 -59 0 -116.5t-6 -117.5v-260q0 -16 2 -44.5t0 -56.5t-12.5 -48.5t-36.5 -20.5q-23 0 -49.5 -12t-49.5 -4q-16 6 -19 21.5t-9 35.5q-29 -18 -56 -30q-25 -10 -52 -19.5t-54 -5.5q-43 8 -86 30.5t-72 55.5 q-16 16 -30.5 35.5t-30.5 38.5q-16 23 -23.5 51.5t-15.5 52.5q-29 104 -25 213zM284 451.5q-3 -56.5 3 -111.5t24.5 -95t48 -58.5t74.5 1.5q33 14 56.5 41t37 61t19.5 70.5t6 71.5q0 29 -2 66t-11.5 71.5t-27.5 63.5t-51 41q-35 0 -63.5 -8.5t-49.5 -22.5l-2 -2l-6 -4l-4 -4 l-4 -4q-20 -25 -32.5 -73t-15.5 -104.5zM332 629q4 2 9 7l7 7q-2 0 -2 -2q-2 0 -6 -4l-4 -4zM397 1348q-2 20 6.5 55t20.5 70.5t24.5 66.5t20.5 41q29 4 63.5 5t69.5 -5q8 -8 -3 -49t-29.5 -86t-36 -82t-21.5 -37q-33 -4 -63.5 1t-51.5 20z" />
<glyph unicode="&#xe2;" horiz-adv-x="823" d="M96 479q6 100 50 190.5t143 131.5q35 16 76 24.5t81 -0.5q2 0 16.5 -3t32 -7t31.5 -7l13 -3q12 27 16 59.5t-3 63t-24.5 56.5t-46.5 38q-39 14 -58.5 1t-30.5 -40t-19 -56.5t-25 -47.5q-33 -4 -74 -3t-59 21q-16 63 8.5 126.5t72.5 111t112.5 71t126.5 6.5 q78 -20 116.5 -74.5t55.5 -129.5q16 -78 22 -165t-10 -165l2 2q4 -59 0 -116.5t-6 -117.5v-260q0 -16 2 -44.5t0 -56.5t-12.5 -48.5t-36.5 -20.5q-23 0 -49.5 -12t-49.5 -4q-16 6 -19 21.5t-9 35.5q-29 -18 -56 -30q-25 -10 -52 -19.5t-54 -5.5q-43 8 -86 30.5t-72 55.5 q-16 16 -30.5 35.5t-30.5 38.5q-16 23 -23.5 51.5t-15.5 52.5q-29 104 -25 213zM186.5 1416q-0.5 9 12.5 24q20 20 39.5 40.5t42.5 41.5l118 110q10 10 22.5 17.5t24.5 17.5l21 12q18 8 33 -8q59 -59 123.5 -116.5t134.5 -106.5q14 -8 24 -23q16 -16 0 -30q-23 -20 -46 -41 t-46 -39q-16 -14 -31 0l-24 18l-117 109q-8 6 -14.5 12t-20.5 10q-33 -25 -65.5 -47t-61.5 -49l-32 -31q-4 -4 -8.5 -8t-8.5 -8q-16 -10 -23.5 -10t-19.5 12q-16 16 -32.5 33.5t-32.5 36.5q-12 14 -12.5 23zM284 451.5q-3 -56.5 3 -111.5t24.5 -95t48 -58.5t74.5 1.5 q33 14 56.5 41t37 61t19.5 70.5t6 71.5q0 29 -2 66t-11.5 71.5t-27.5 63.5t-51 41q-35 0 -63.5 -8.5t-49.5 -22.5l-2 -2l-6 -4l-4 -4l-4 -4q-20 -25 -32.5 -73t-15.5 -104.5zM332 629q4 2 9 7l7 7q-2 0 -2 -2q-2 0 -6 -4l-4 -4z" />
<glyph unicode="&#xe3;" horiz-adv-x="841" d="M96 479q6 100 50 190.5t143 131.5q35 16 76 24.5t81 -0.5q2 0 16.5 -3t32 -7t31.5 -7l13 -3q12 27 16 59.5t-3 63t-24.5 56.5t-46.5 38q-39 14 -58.5 1t-30.5 -40t-19 -56.5t-25 -47.5q-33 -4 -74 -3t-59 21q-16 63 8.5 126.5t72.5 111t112.5 71t126.5 6.5 q78 -20 116.5 -74.5t55.5 -129.5q16 -78 22 -165t-10 -165l2 2q4 -59 0 -116.5t-6 -117.5v-260q0 -16 2 -44.5t0 -56.5t-12.5 -48.5t-36.5 -20.5q-23 0 -49.5 -12t-49.5 -4q-16 6 -19 21.5t-9 35.5q-29 -18 -56 -30q-25 -10 -52 -19.5t-54 -5.5q-43 8 -86 30.5t-72 55.5 q-16 16 -30.5 35.5t-30.5 38.5q-16 23 -23.5 51.5t-15.5 52.5q-29 104 -25 213zM174 1395.5q0 17.5 10 25.5q16 20 33 31q20 12 41 25.5t43 19.5q10 2 19.5 4t19.5 2q35 -2 67.5 -8t63.5 -27q23 -16 48.5 -26t51.5 -19q10 -4 31 -8q41 -6 66 21l41 37q12 10 28 2q4 -4 4 -5 q16 -16 32 -43.5t24 -50.5q-2 -16 -21 -35q-16 -16 -35.5 -29.5t-42.5 -23.5q-31 -14 -69 -14q-27 2 -51.5 5t-47.5 13q-20 8 -37.5 17.5t-35.5 19.5q-10 4 -18.5 10.5t-18.5 12.5q-45 25 -105 8q-23 -6 -39 -25l-7 -7l-7 -7q-20 -20 -41 -2l-41 49q-6 10 -6 27.5z M284 451.5q-3 -56.5 3 -111.5t24.5 -95t48 -58.5t74.5 1.5q33 14 56.5 41t37 61t19.5 70.5t6 71.5q0 29 -2 66t-11.5 71.5t-27.5 63.5t-51 41q-35 0 -63.5 -8.5t-49.5 -22.5l-2 -2h-2l-4 -4l-4 -4l-4 -4q-20 -25 -32.5 -73t-15.5 -104.5zM332 629q4 2 9 7l7 7q-2 0 -2 -2h-2 l-4 -4l-4 -4z" />
<glyph unicode="&#xe4;" horiz-adv-x="823" d="M96 479q6 100 50 190.5t143 131.5q35 16 76 24.5t81 -0.5q2 0 16.5 -3t32 -7t31.5 -7l13 -3q12 27 16 59.5t-3 63t-24.5 56.5t-46.5 38q-39 14 -58.5 1t-30.5 -40t-19 -56.5t-25 -47.5q-33 -4 -74 -3t-59 21q-16 63 8.5 126.5t72.5 111t112.5 71t126.5 6.5 q78 -20 116.5 -74.5t55.5 -129.5q16 -78 22 -165t-10 -165l2 2q4 -59 0 -116.5t-6 -117.5v-260q0 -16 2 -44.5t0 -56.5t-12.5 -48.5t-36.5 -20.5q-23 0 -49.5 -12t-49.5 -4q-16 6 -19 21.5t-9 35.5q-29 -18 -56 -30q-25 -10 -52 -19.5t-54 -5.5q-43 8 -86 30.5t-72 55.5 q-16 16 -30.5 35.5t-30.5 38.5q-16 23 -23.5 51.5t-15.5 52.5q-29 104 -25 213zM284 451.5q-3 -56.5 3 -111.5t24.5 -95t48 -58.5t74.5 1.5q33 14 56.5 41t37 61t19.5 70.5t6 71.5q0 29 -2 66t-11.5 71.5t-27.5 63.5t-51 41q-35 0 -63.5 -8.5t-49.5 -22.5l-2 -2l-6 -4l-4 -4 l-4 -4q-20 -25 -32.5 -73t-15.5 -104.5zM302 1390.5q-1 26.5 15 53.5t41 37q35 14 70 -19q12 -12 13 -29.5t-6 -34t-18 -30.5t-22 -22q-49 -12 -70.5 3t-22.5 41.5zM332 629q4 2 9 7l7 7q-2 0 -2 -2q-2 0 -6 -4l-4 -4zM510 1434.5q14 25.5 39.5 37t54.5 3t45 -44.5 q10 -25 3 -43.5t-25 -28.5q-27 -16 -63 -11t-52 33q-16 29 -2 54.5z" />
<glyph unicode="&#xe5;" horiz-adv-x="841" d="M96 479q6 100 50 190.5t143 131.5q35 16 76 24.5t81 -0.5q2 0 16.5 -3t32 -7t31.5 -7l13 -3q12 27 16 59.5t-3 63t-24.5 56.5t-46.5 38q-39 14 -58.5 1t-30.5 -40t-19 -56.5t-25 -47.5q-33 -4 -74 -3t-59 21q-16 63 8.5 126.5t72.5 111t112.5 71t126.5 6.5 q78 -20 116.5 -74.5t55.5 -129.5q16 -78 22 -165t-10 -165l2 2q4 -59 0 -116.5t-6 -117.5v-260q0 -16 2 -44.5t0 -56.5t-12.5 -48.5t-36.5 -20.5q-23 0 -49.5 -12t-49.5 -4q-16 6 -19 21.5t-9 35.5q-29 -18 -56 -30q-25 -10 -52 -19.5t-54 -5.5q-43 8 -86 30.5t-72 55.5 q-16 16 -30.5 35.5t-30.5 38.5q-16 23 -23.5 51.5t-15.5 52.5q-29 104 -25 213zM284 451.5q-3 -56.5 3 -111.5t24.5 -95t48 -58.5t74.5 1.5q33 14 56.5 41t37 61t19.5 70.5t6 71.5q0 29 -2 66t-11.5 71.5t-27.5 63.5t-51 41q-35 0 -63.5 -8.5t-49.5 -22.5l-2 -2h-2l-4 -4 l-4 -4l-4 -4q-20 -25 -32.5 -73t-15.5 -104.5zM287 1497l10 59q8 53 40 84t79 48q66 23 131 -1t104 -92q23 -39 23 -94q2 -80 -49 -151q-29 -41 -77 -61.5t-99 -10.5q-61 14 -96.5 51t-57.5 92q-14 41 -8 76zM332 629q4 2 9 7l7 7q-2 0 -2 -2h-2l-4 -4l-4 -4zM422 1485 q4 -16 8 -25q12 -26 47 -24q4 2 13.5 5t19.5 7q29 16 22 47q-4 12 -23.5 29.5t-31.5 17.5q-6 0 -8 -2q-8 -4 -16.5 -7t-14.5 -9q-20 -14 -16 -39z" />
<glyph unicode="&#xe6;" horiz-adv-x="1329" d="M105.5 361.5q-3.5 56.5 3.5 113.5q4 37 11 73t17 70q10 29 24.5 53.5t28.5 51.5q10 23 24.5 38t31.5 32q41 37 87 55t99 26q16 2 35.5 -1t36.5 -7q10 -2 17 -5t16 -5q8 4 8 9v9l-6 107q0 18 -19 29q-20 14 -47 14q-31 0 -63.5 -25.5t-40.5 -56.5q-2 -4 -2 -12 q-14 -45 -62 -37q-23 6 -43 13t-43 16q-16 6 -16 28q2 18 5 36t13 34q8 18 16.5 35.5t18.5 34.5q6 8 12 15t15 15l59 56q31 25 66.5 34t74.5 7q53 -2 103.5 -18.5t93.5 -55.5l65 37q8 4 14.5 8t14.5 6q63 16 125 16t121 -28q41 -23 67 -58q35 -43 54.5 -90t32.5 -100 q6 -35 12 -66.5t14 -64.5q0 -8 4 -17q14 -41 11 -79.5t-11 -79.5q-6 -29 -17 -37t-40 -10q-12 0 -23.5 1t-23.5 3l-107 8q-18 2 -37.5 3t-37.5 1q-4 0 -8.5 1t-8.5 1l-125 -12q-10 -18 -10 -37v-37l8 -96q0 -57 12 -113q6 -31 21 -49q25 -37 72 -59q43 -18 86 -7 q49 12 69 66q20 55 23 111l4 32q4 29 31 25q29 -4 54 -10t52 -13q12 -4 16.5 -12t6.5 -18q12 -47 0 -93l-23 -96l-10 -26q-18 -53 -54 -86t-90 -54q-29 -10 -59.5 -15t-62.5 -7q-29 -2 -56.5 10t-50.5 29q-10 6 -17 13t-18 17q-2 -18 -3 -33.5t-5 -29.5q-2 -25 -24 -25 q-39 -2 -82 0q-12 0 -23.5 2t-24.5 2q-35 -4 -40 31l-7 8q-10 4 -16 1l-14 -7q-137 -61 -260 19q-59 41 -97.5 96t-58.5 125q-16 55 -19.5 111.5zM283 528q-35 -119 14 -225q35 -74 104 -104q78 -31 144 16q14 10 18 23.5t4 29.5l-6 142h4q-2 16 -2 34.5v34.5q0 23 -1 46.5 t-3 45.5q-4 51 -49 74q-16 6 -32.5 13.5t-33.5 11.5q-23 6 -41 2t-38 -15q-43 -20 -60 -67q-6 -16 -12 -30.5t-10 -31.5zM758 922q2 -23 2 -42.5v-41.5l4 -29q12 -4 16 -4h254q0 8 1 11t-1 7q-6 39 -18 75t-29 71q-12 25 -39 41q-59 35 -121 10q-76 -29 -69 -98z" />
<glyph unicode="&#xe7;" horiz-adv-x="776" d="M102.5 576.5q-2.5 103.5 10.5 205.5q8 59 26.5 127t51 125.5t82 98.5t120.5 49q76 8 152 -27q14 -6 36.5 -17.5t43 -26.5t35 -33.5t12.5 -37.5q-2 -14 -14.5 -29.5t-29 -28.5t-32.5 -26.5t-25 -21.5q-10 -10 -24.5 -3t-29.5 20.5t-30.5 26.5t-23.5 17q-51 25 -86 -7 t-57.5 -85t-35 -111.5t-16.5 -89.5q-14 -92 -24.5 -186t12.5 -184q10 -47 35.5 -89t73.5 -65q51 -25 86.5 -5t62.5 60q12 18 25.5 22.5t27 -0.5t26.5 -17.5t23 -24.5q66 -72 -6 -139q-80 -74 -184 -74q4 -31 33 -47q20 -14 41 -39q8 -8 14 -17.5t10 -19.5q29 -49 -6 -96 q-10 -16 -25.5 -32.5t-33.5 -27.5q-18 -10 -37 -20t-39 -16q-78 -29 -160 -31h-20q-20 4 -23 18q-6 14 -6 29q-4 23 -9 43t-11 43q-4 18 5 31.5t27 11.5l60 -6h20t21 2q27 6 35 27q10 23 -13 32l-37 15l-30 10q-10 31 -7 61.5t-8 61.5q-10 2 -0.5 4t29.5 6 q-45 27 -72.5 62.5t-44 78.5t-22.5 90.5t-8 94.5q-4 104 -6.5 207.5z" />
<glyph unicode="&#xe8;" horiz-adv-x="819" d="M102 647q0 84 16.5 179.5t57.5 177t109.5 135t173.5 53.5q86 0 134 -35t74.5 -87t35 -112.5t14.5 -113.5q4 -47 8 -94.5t4 -94.5v-30.5t-2 -30.5q-2 -12 -41 -15.5t-78 -3.5h-53q-55 -4 -111.5 -13t-109.5 -9h-21q-27 0 -26 -12q0 -14 -1 -71.5t9 -120t41 -112t92 -49.5 q47 0 72.5 20.5t40 51.5t20.5 65.5t12 63.5h21q18 0 46 -7t53.5 -18.5t44 -26.5t18.5 -34q0 -70 -30 -126t-78 -95t-108.5 -60.5t-119.5 -21.5q-74 0 -126 33t-87 87t-56.5 122.5t-31.5 141.5t-13.5 141.5t-3.5 121.5zM291 745q27 -4 55.5 -6t56.5 -2q45 0 88.5 4t79.5 11 q4 20 4 32q0 23 -4 42.5t-8 39.5q-6 25 -14 51.5t-21.5 48t-30.5 35t-42 13.5q-49 0 -80 -30t-48.5 -71t-24.5 -88t-11 -80zM342 1515.5q-4 10.5 2 18.5q16 20 51 26.5t62 8.5h4q16 0 25.5 -15.5t14.5 -37t6 -43t3 -31.5q2 -20 6 -43t0 -41q-8 -33 -33.5 -33t-42.5 23 q-18 25 -30.5 53.5t-28.5 54.5q-4 6 -12.5 16.5t-15.5 21.5t-11 21.5z" />
<glyph unicode="&#xe9;" horiz-adv-x="843" d="M102 647q0 84 16.5 179.5t57.5 177t109.5 135t173.5 53.5q86 0 134 -35t74.5 -87t35 -112.5t14.5 -113.5q4 -47 8 -94.5t4 -94.5v-30.5t-2 -30.5q-2 -12 -41 -15.5t-78 -3.5h-53q-55 -4 -111.5 -13t-109.5 -9h-21q-27 0 -26 -12q0 -14 -1 -71.5t9 -120t41 -112t92 -49.5 q47 0 72.5 20.5t40 51.5t20.5 65.5t12 63.5h21q18 0 46 -7t53.5 -18.5t44 -26.5t18.5 -34q0 -70 -30 -126t-78 -95t-108.5 -60.5t-119.5 -21.5q-74 0 -126 33t-87 87t-56.5 122.5t-31.5 141.5t-13.5 141.5t-3.5 121.5zM291 745q27 -4 55.5 -6t56.5 -2q45 0 88.5 4t79.5 11 q4 20 4 32q0 23 -4 42.5t-8 39.5q-6 25 -14 51.5t-21.5 48t-30.5 35t-42 13.5q-49 0 -80 -30t-48.5 -71t-24.5 -88t-11 -80zM397 1348q-2 20 6.5 55t20.5 70.5t24.5 66.5t20.5 41q29 4 63.5 5t69.5 -5q8 -8 -3 -49t-29.5 -86t-36 -82t-21.5 -37q-33 -4 -63.5 1t-51.5 20z " />
<glyph unicode="&#xea;" horiz-adv-x="833" d="M102 647q0 84 16.5 179.5t57.5 177t109.5 135t173.5 53.5q86 0 134 -35t74.5 -87t35 -112.5t14.5 -113.5q4 -47 8 -94.5t4 -94.5v-30.5t-2 -30.5q-2 -12 -41 -15.5t-78 -3.5h-53q-55 -4 -111.5 -13t-109.5 -9h-21q-27 0 -26 -12q0 -14 -1 -71.5t9 -120t41 -112t92 -49.5 q47 0 72.5 20.5t40 51.5t20.5 65.5t12 63.5h21q18 0 46 -7t53.5 -18.5t44 -26.5t18.5 -34q0 -70 -30 -126t-78 -95t-108.5 -60.5t-119.5 -21.5q-74 0 -126 33t-87 87t-56.5 122.5t-31.5 141.5t-13.5 141.5t-3.5 121.5zM186.5 1416q-0.5 9 12.5 24q20 20 39.5 40.5t42.5 41.5 l118 110q10 10 22.5 17.5t24.5 17.5l21 12q18 8 33 -8q59 -59 123.5 -116.5t134.5 -106.5q14 -8 24 -23q16 -16 0 -30q-23 -20 -46 -41t-46 -39q-16 -14 -31 0l-24 18l-117 109q-8 6 -14.5 12t-20.5 10q-33 -25 -65.5 -47t-61.5 -49l-32 -31q-4 -4 -8.5 -8t-8.5 -8 q-16 -10 -23.5 -10t-19.5 12q-16 16 -32.5 33.5t-32.5 36.5q-12 14 -12.5 23zM291 745q27 -4 55.5 -6t56.5 -2q45 0 88.5 4t79.5 11q4 20 4 32q0 23 -4 42.5t-8 39.5q-6 25 -14 51.5t-21.5 48t-30.5 35t-42 13.5q-49 0 -80 -30t-48.5 -71t-24.5 -88t-11 -80z" />
<glyph unicode="&#xeb;" horiz-adv-x="862" d="M102 647q0 84 16.5 179.5t57.5 177t109.5 135t173.5 53.5q86 0 134 -35t74.5 -87t35 -112.5t14.5 -113.5q4 -47 8 -94.5t4 -94.5v-30.5t-2 -30.5q-2 -12 -41 -15.5t-78 -3.5h-53q-55 -4 -111.5 -13t-109.5 -9h-21q-27 0 -26 -12q0 -14 -1 -71.5t9 -120t41 -112t92 -49.5 q47 0 72.5 20.5t40 51.5t20.5 65.5t12 63.5h21q18 0 46 -7t53.5 -18.5t44 -26.5t18.5 -34q0 -70 -30 -126t-78 -95t-108.5 -60.5t-119.5 -21.5q-74 0 -126 33t-87 87t-56.5 122.5t-31.5 141.5t-13.5 141.5t-3.5 121.5zM291 745q27 -4 55.5 -6t56.5 -2q45 0 88.5 4t79.5 11 q4 20 4 32q0 23 -4 42.5t-8 39.5q-6 25 -14 51.5t-21.5 48t-30.5 35t-42 13.5q-49 0 -80 -30t-48.5 -71t-24.5 -88t-11 -80zM298 1388.5q-1 26.5 15 53.5t41 37q35 14 70 -19q12 -12 13 -29.5t-6 -34t-18.5 -30.5t-21.5 -23q-49 -12 -70.5 3.5t-22.5 42zM506 1432.5 q14 25.5 39.5 37t54.5 3t45 -45.5q10 -25 3 -43t-25 -28q-27 -16 -63 -11t-52 33q-16 29 -2 54.5z" />
<glyph unicode="&#xec;" horiz-adv-x="421" d="M88 1480.5q-4 10.5 2 18.5q16 20 51 26.5t62 8.5h4q16 0 25.5 -15.5t14.5 -37t6 -43t3 -31.5q2 -20 6 -43t0 -41q-8 -33 -33.5 -33t-42.5 23q-18 25 -30.5 53.5t-28.5 54.5q-4 6 -12.5 16.5t-15.5 21.5t-11 21.5zM104 116.5q5 57.5 5 104.5v187.5t2 187.5q2 74 4 147.5 t0 147.5l-6 153q0 29 -3.5 63t5.5 62q10 0 40.5 5.5t63.5 8.5t59.5 -0.5t30.5 -15.5q6 -35 4 -70.5t-4 -70.5q-4 -88 -10 -174t-10 -172q-6 -119 -5 -236.5t-1 -234.5q-2 -33 -1 -64.5t5 -64.5q0 -8 2 -20.5t2 -24.5t-5.5 -21.5t-17.5 -11.5q-23 -4 -43 -3t-43 3 q-12 0 -30.5 6t-24.5 6q-4 0 -5 -1t-3 -1q-16 47 -11 104.5z" />
<glyph unicode="&#xed;" horiz-adv-x="421" d="M104 116.5q5 57.5 5 104.5v187.5t2 187.5q2 74 4 147.5t0 147.5l-6 153q0 29 -3.5 63t5.5 62q10 0 40.5 5.5t63.5 8.5t59.5 -0.5t30.5 -15.5q6 -35 4 -70.5t-4 -70.5q-4 -88 -10 -174t-10 -172q-6 -119 -5 -236.5t-1 -234.5q-2 -33 -1 -64.5t5 -64.5q0 -8 2 -20.5 t2 -24.5t-5.5 -21.5t-17.5 -11.5q-23 -4 -43 -3t-43 3q-12 0 -30.5 6t-24.5 6q-4 0 -5 -1t-3 -1q-16 47 -11 104.5zM137 1327q-2 20 6.5 55t20.5 71t24.5 66.5t20.5 41.5q29 4 63.5 5t69.5 -5q8 -8 -3 -49.5t-29.5 -86.5t-36 -81.5t-21.5 -36.5q-33 -4 -63.5 1t-51.5 19z " />
<glyph unicode="&#xee;" horiz-adv-x="413" d="M-73.5 1375q-0.5 9 12.5 24q20 20 39.5 40.5t41.5 41.5l119 110q10 10 22.5 17.5t24.5 17.5l21 12q18 8 33 -8q59 -59 123.5 -116.5t134.5 -106.5q14 -8 24 -23q16 -16 0 -30q-23 -20 -46 -41t-46 -39q-16 -14 -31 0l-24 18l-117 109q-8 6 -14.5 12t-20.5 10 q-33 -25 -65.5 -47t-61.5 -49l-33 -31l-8 -8l-8 -8q-16 -10 -23.5 -10t-19.5 12q-16 16 -32.5 33.5t-32.5 36.5q-12 14 -12.5 23zM104 116.5q5 57.5 5 104.5v187.5t2 187.5q2 74 4 147.5t0 147.5l-6 153q0 29 -3.5 63t5.5 62q10 0 40.5 5.5t63.5 8.5t59.5 -0.5t30.5 -15.5 q6 -35 4 -70.5t-4 -70.5q-4 -88 -10 -174t-10 -172q-6 -119 -5 -236.5t-1 -234.5q-2 -33 -1 -64.5t5 -64.5q0 -8 2 -20.5t2 -24.5t-5.5 -21.5t-17.5 -11.5q-23 -4 -43 -3t-43 3q-12 0 -30.5 6t-24.5 6q-4 0 -5 -1t-3 -1q-16 47 -11 104.5z" />
<glyph unicode="&#xef;" horiz-adv-x="413" d="M24 1337.5q-1 26.5 15 53t41 36.5q35 14 70 -18q12 -12 13 -29.5t-6 -34t-18.5 -31t-21.5 -22.5q-49 -12 -70.5 3.5t-22.5 42zM104 116.5q5 57.5 5 104.5v187.5t2 187.5q2 74 4 147.5t0 147.5l-6 153q0 29 -3.5 63t5.5 62q10 0 40.5 5.5t63.5 8.5t59.5 -0.5t30.5 -15.5 q6 -35 4 -70.5t-4 -70.5q-4 -88 -10 -174t-10 -172q-6 -119 -5 -236.5t-1 -234.5q-2 -33 -1 -64.5t5 -64.5q0 -8 2 -20.5t2 -24.5t-5.5 -21.5t-17.5 -11.5q-23 -4 -43 -3t-43 3q-12 0 -30.5 6t-24.5 6q-4 0 -5 -1t-3 -1q-16 47 -11 104.5zM231.5 1381.5q14.5 25.5 40 37 t54 3t45.5 -45.5q10 -25 2.5 -43t-25.5 -28q-27 -16 -62.5 -11.5t-52.5 33.5q-16 29 -1.5 54.5z" />
<glyph unicode="&#xf0;" horiz-adv-x="897" d="M102 520q0 57 5.5 125t20.5 134.5t45 126t77 100.5q14 12 32.5 24t34.5 19q57 20 132 30.5t141 -16.5q8 66 1 132.5t-24 125.5q-8 27 -20 39q-2 -43 3 -84t-13 -76q-37 -16 -87.5 -15t-95.5 13q-4 45 5.5 84t-3.5 78q-14 -8 -24 -12.5t-17 -20.5q-10 -23 -5 -48.5 t-3 -41.5q-10 -16 -20.5 -16t-32.5 2q-20 2 -42 3t-40 1q-23 -2 -39.5 -5t-28.5 15q10 137 71 232.5t179 127.5q-6 37 -3 88.5t14 92.5q16 10 28.5 5t28.5 -5t23.5 5t19.5 7q16 2 34.5 -11.5t24.5 -23.5q8 -14 9.5 -33.5t0 -40t-1.5 -41t5 -34.5q2 -4 26.5 -10.5t30.5 -10.5 q14 -6 24.5 -15t20.5 -20q29 -29 52.5 -56.5t33.5 -66.5q20 -70 38.5 -147.5t22.5 -167.5q4 -86 7.5 -176t-0.5 -186q-4 -78 -6.5 -167t-14.5 -178.5t-41 -171t-86 -143.5q-25 -29 -61.5 -54.5t-71.5 -35.5q-84 -29 -165 2t-134 98q-70 88 -90.5 200t-20.5 220zM266 547 q4 -98 27 -185q10 -41 29.5 -86t52.5 -75q25 -23 48 -23t44.5 14.5t40 38t31.5 45.5q31 57 44 126t19 135q8 70 3 138.5t-34 131.5q-10 23 -35.5 41t-43.5 24q-23 8 -49.5 8.5t-53.5 -7t-47 -22.5t-31 -38q-8 -16 -15 -37.5t-11 -44.5q-23 -86 -19 -184z" />
<glyph unicode="&#xf1;" horiz-adv-x="813" d="M102.5 1356.5q-0.5 17.5 10.5 25.5q16 20 32 31q20 12 41 25.5t43 19.5q10 2 19.5 4t19.5 2q35 -2 68 -8t63 -26q23 -16 48.5 -26.5t52.5 -19.5q10 -4 30 -8q41 -6 66 21l41 37q12 10 29 2l4 -4q16 -16 31.5 -44t23.5 -51q-2 -16 -20 -34q-16 -16 -36 -29.5t-42 -24.5 q-31 -14 -70 -14q-27 2 -51.5 5t-46.5 13q-20 8 -38 17.5t-36 19.5q-10 4 -18.5 10.5t-18.5 12.5q-45 25 -104 8q-23 -6 -39 -25l-7 -7t-8 -7q-20 -20 -40 -2l-41 49q-6 10 -6.5 27.5zM104 154.5q5 68.5 9 140.5q6 66 6 131.5t2 130.5q2 147 11 293.5t11 294.5q8 10 22.5 16 t31 9.5t32 5.5t27.5 6q41 12 54.5 -16.5t13.5 -61.5q66 41 142.5 43t139.5 -47q31 -25 45.5 -54.5t20.5 -66.5q8 -47 17 -92t13 -92q8 -98 10.5 -197.5t6.5 -198.5q4 -49 3 -98t-5 -98q-4 -45 -2 -91t-6 -92q-16 -6 -35 -4t-35 4q-16 4 -32.5 2t-31.5 3q-23 10 -20.5 34.5 t4.5 42.5q2 35 3 68t5 68q4 66 6 131t5 131q0 68 -1.5 135t-11.5 133q-4 25 -6 56.5t-8 62.5t-21.5 54.5t-46.5 31.5t-54 2t-41.5 -22.5t-35 -38t-33.5 -40.5q-20 -23 -23 -57.5t-5 -64.5l-10 -146q-4 -72 -9.5 -144.5t-7.5 -144.5q0 -80 2 -158.5t-8 -158.5q-37 4 -78 1 t-69 13q-12 72 -7 140.5z" />
<glyph unicode="&#xf2;" d="M105.5 499q-5.5 91 3 181t33 176t73.5 162q49 74 126 97.5t161 -7.5q74 -29 121 -76t77 -119q35 -78 50.5 -160.5t21.5 -168.5q4 -43 6 -87t-2 -87q-2 -18 -7 -35t-9 -33q-6 -18 -5.5 -35t-11.5 -33q-10 -49 -30.5 -96t-50.5 -88q-14 -18 -27.5 -32.5t-36.5 -26.5 q-4 -2 -14.5 -6.5t-19.5 -8.5t-16 -5t-7 5q-23 -16 -62 -16t-63 8l-58 10q-16 2 -26 9.5t-27 13.5q-90 37 -132 112.5t-52 168.5q-10 86 -15.5 177zM259 611q-5 -42 1 -79q6 -35 5 -69.5t3 -69.5q2 -23 7.5 -51.5t12.5 -57t19 -54t31 -42.5q14 -12 37.5 -21t50.5 -13 t51.5 -1t40.5 17q20 18 30.5 47t14.5 60.5t5 63.5t1 56q2 68 3 132.5t-3 132.5q-4 35 -6 67.5t-12 65.5q-10 29 -9 53t-16 53q-14 25 -27.5 42.5t-43.5 21.5q-31 4 -51.5 -3t-43.5 -30t-35 -51.5t-18 -57.5q-10 -33 -19 -66.5t-16 -66.5q-8 -37 -13 -79zM342 1515.5 q-4 10.5 2 18.5q16 20 52 26.5t61 8.5h4q16 0 25.5 -15.5t14.5 -37t6 -43t3 -31.5q2 -20 6 -43t0 -41q-8 -33 -33.5 -33t-42.5 23q-18 25 -30.5 53.5t-28.5 54.5q-4 6 -12.5 16.5t-15.5 21.5t-11 21.5z" />
<glyph unicode="&#xf3;" horiz-adv-x="868" d="M105.5 499q-5.5 91 3 181t33 176t73.5 162q49 74 126 97.5t161 -7.5q74 -29 121 -76t77 -119q35 -78 50.5 -160.5t21.5 -168.5q4 -43 6 -87t-2 -87q-2 -18 -7 -35t-9 -33q-6 -18 -5.5 -35t-11.5 -33q-10 -49 -30.5 -96t-50.5 -88q-14 -18 -27.5 -32.5t-36.5 -26.5 q-4 -2 -14.5 -6.5t-19.5 -8.5t-16 -5t-7 5q-23 -16 -62 -16t-63 8l-58 10q-16 2 -26 9.5t-27 13.5q-90 37 -132 112.5t-52 168.5q-10 86 -15.5 177zM259 611q-5 -42 1 -79q6 -35 5 -69.5t3 -69.5q2 -23 7.5 -51.5t12.5 -57t19 -54t31 -42.5q14 -12 37.5 -21t50.5 -13 t51.5 -1t40.5 17q20 18 30.5 47t14.5 60.5t5 63.5t1 56q2 68 3 132.5t-3 132.5q-4 35 -6 67.5t-12 65.5q-10 29 -9 53t-16 53q-14 25 -27.5 42.5t-43.5 21.5q-31 4 -51.5 -3t-43.5 -30t-35 -51.5t-18 -57.5q-10 -33 -19 -66.5t-16 -66.5q-8 -37 -13 -79zM397 1348 q-2 20 6.5 55t20.5 70.5t24.5 66.5t20.5 41q29 4 63.5 5t69.5 -5q8 -8 -3 -49t-29.5 -86t-36 -82t-21.5 -37q-33 -4 -63.5 1t-51.5 20z" />
<glyph unicode="&#xf4;" horiz-adv-x="872" d="M105.5 499q-5.5 91 3 181t33 176t73.5 162q49 74 126 97.5t161 -7.5q74 -29 121 -76t77 -119q35 -78 50.5 -160.5t21.5 -168.5q4 -43 6 -87t-2 -87q-2 -18 -7 -35t-9 -33q-6 -18 -5.5 -35t-11.5 -33q-10 -49 -30.5 -96t-50.5 -88q-14 -18 -27.5 -32.5t-36.5 -26.5 q-4 -2 -14.5 -6.5t-19.5 -8.5t-16 -5t-7 5q-23 -16 -62 -16t-63 8l-58 10q-16 2 -26 9.5t-27 13.5q-90 37 -132 112.5t-52 168.5q-10 86 -15.5 177zM186.5 1416q-0.5 9 12.5 24q20 20 39.5 40.5t42.5 41.5l118 110q10 10 22.5 17.5t24.5 17.5l21 12q18 8 33 -8 q59 -59 123.5 -116.5t134.5 -106.5q14 -8 24 -23q16 -16 0 -30q-23 -20 -46 -41t-46 -39q-16 -14 -31 0l-24 18l-117 109q-8 6 -14.5 12t-20.5 10q-33 -25 -65.5 -47t-61.5 -49l-32 -31q-4 -4 -8.5 -8t-8.5 -8q-16 -10 -23.5 -10t-19.5 12q-16 16 -32.5 33.5t-32.5 36.5 q-12 14 -12.5 23zM259 611q-5 -42 1 -79q6 -35 5 -69.5t3 -69.5q2 -23 7.5 -51.5t12.5 -57t19 -54t31 -42.5q14 -12 37.5 -21t50.5 -13t51.5 -1t40.5 17q20 18 30.5 47t14.5 60.5t5 63.5t1 56q2 68 3 132.5t-3 132.5q-4 35 -6 67.5t-12 65.5q-10 29 -9 53t-16 53 q-14 25 -27.5 42.5t-43.5 21.5q-31 4 -51.5 -3t-43.5 -30t-35 -51.5t-18 -57.5q-10 -33 -19 -66.5t-16 -66.5q-8 -37 -13 -79z" />
<glyph unicode="&#xf5;" horiz-adv-x="860" d="M102.5 1356.5q-0.5 17.5 10.5 25.5q16 20 32 31q20 12 41 25.5t43 19.5q10 2 19.5 4t19.5 2q35 -2 68 -8t63 -26q23 -16 48.5 -26.5t52.5 -19.5q10 -4 30 -8q41 -6 66 21l41 37q12 10 29 2l4 -4q16 -16 31.5 -44t23.5 -51q-2 -16 -20 -34q-16 -16 -36 -29.5t-42 -24.5 q-31 -14 -70 -14q-27 2 -51.5 5t-46.5 13q-20 8 -38 17.5t-36 19.5q-10 4 -18.5 10.5t-18.5 12.5q-45 25 -104 8q-23 -6 -39 -25l-7 -7t-8 -7q-20 -20 -40 -2l-41 49q-6 10 -6.5 27.5zM105.5 499q-5.5 91 3 181t33 176t73.5 162q49 74 126 97.5t161 -7.5q74 -29 121 -76 t77 -119q35 -78 50.5 -160.5t21.5 -168.5q4 -43 6 -87t-2 -87q-2 -18 -7 -35t-9 -33q-6 -18 -5.5 -35t-11.5 -33q-10 -49 -30.5 -96t-50.5 -88q-14 -18 -27.5 -32.5t-36.5 -26.5q-4 -2 -14.5 -6.5t-19.5 -8.5t-16 -5t-7 5q-23 -16 -62 -16t-63 8l-58 10q-16 2 -26 9.5 t-27 13.5q-90 37 -132 112.5t-52 168.5q-10 86 -15.5 177zM259 611q-5 -42 1 -79q6 -35 5 -69.5t3 -69.5q2 -23 7.5 -51.5t12.5 -57t19 -54t31 -42.5q14 -12 37.5 -21t50.5 -13t51.5 -1t40.5 17q20 18 30.5 47t14.5 60.5t5 63.5t1 56q2 68 3 132.5t-3 132.5q-4 35 -6 67.5 t-12 65.5q-10 29 -9 53t-16 53q-14 25 -27.5 42.5t-43.5 21.5q-31 4 -51.5 -3t-43.5 -30t-35 -51.5t-18 -57.5q-10 -33 -19 -66.5t-16 -66.5q-8 -37 -13 -79z" />
<glyph unicode="&#xf6;" horiz-adv-x="880" d="M105.5 499q-5.5 91 3 181t33 176t73.5 162q49 74 126 97.5t161 -7.5q74 -29 121 -76t77 -119q35 -78 50.5 -160.5t21.5 -168.5q4 -43 6 -87t-2 -87q-2 -18 -7 -35t-9 -33q-6 -18 -5.5 -35t-11.5 -33q-10 -49 -30.5 -96t-50.5 -88q-14 -18 -27.5 -32.5t-36.5 -26.5 q-4 -2 -14.5 -6.5t-19.5 -8.5t-16 -5t-7 5q-23 -16 -62 -16t-63 8l-58 10q-16 2 -26 9.5t-27 13.5q-90 37 -132 112.5t-52 168.5q-10 86 -15.5 177zM259 611q-5 -42 1 -79q6 -35 5 -69.5t3 -69.5q2 -23 7.5 -51.5t12.5 -57t19 -54t31 -42.5q14 -12 37.5 -21t50.5 -13 t51.5 -1t40.5 17q20 18 30.5 47t14.5 60.5t5 63.5t1 56q2 68 3 132.5t-3 132.5q-4 35 -6 67.5t-12 65.5q-10 29 -9 53t-16 53q-14 25 -27.5 42.5t-43.5 21.5q-31 4 -51.5 -3t-43.5 -30t-35 -51.5t-18 -57.5q-10 -33 -19 -66.5t-16 -66.5q-8 -37 -13 -79zM298 1388.5 q-1 26.5 15 53.5t41 37q35 14 70 -19q12 -12 13 -29.5t-6 -34t-18.5 -30.5t-21.5 -23q-49 -12 -70.5 3.5t-22.5 42zM506 1432.5q14 25.5 39.5 37t54.5 3t45 -45.5q10 -25 3 -43t-25 -28q-27 -16 -63 -11t-52 33q-16 29 -2 54.5z" />
<glyph unicode="&#xf7;" horiz-adv-x="884" d="M102 649q2 31 1 61.5t-1 63.5q0 25 9 31q4 2 12 2l141 -4h430q16 -2 29.5 -4t30.5 -6q6 0 18 -9q6 -4 6 -22q2 -35 3 -67.5t1 -65.5q0 -39 -14 -39h-22.5t-22.5 2q-2 0 -24.5 2t-57.5 4t-75 4t-78.5 5t-69.5 4t-45 3q-12 0 -42 1t-61.5 1h-60.5h-41h-13.5t-13.5 -4 q-8 -4 -15 -1t-15 5q-4 0 -6.5 10.5t-2.5 22.5zM354 1051q10 27 31 42t49 21l2 2q20 4 40 -10t28 -31q10 -23 5 -50.5t-24 -43.5q-6 -8 -20 -17.5t-25 -11.5q-39 -2 -67.5 28t-18.5 71zM371.5 366.5q-9.5 41.5 9.5 69.5q16 29 51 37t60 -16q14 -14 26 -41t10 -54q4 4 4 5v-2 q0 -4 -3 -13.5t-5 -11.5q-14 -29 -51 -37t-63 6q-29 16 -38.5 57.5zM430 1116h6h-6zM432 1116l2 -2q-2 0 -2 2z" />
<glyph unicode="&#xf8;" horiz-adv-x="970" d="M104.5 500q-2.5 78 8 155.5t32 152.5t52.5 140q14 31 39.5 69t58.5 69.5t70.5 52t76.5 20.5q16 -2 38 -3t40 -5q23 -4 41 -8q18 37 35 65q14 25 25.5 47.5t13.5 28.5q35 4 66.5 -7t66.5 -20q2 -2 2 -5t4 -3q-4 -31 -15 -65.5t-22 -63.5q-14 -35 -28 -67l13 -15 q13 -16 30.5 -35.5t33 -37t19.5 -21.5q37 -55 49 -123q16 -92 11 -186t-25 -186q0 -8 -1 -14.5t-3 -14.5q-18 -82 -45 -168t-86 -152q-25 -25 -57 -46t-64 -36q-41 -16 -75 -16t-81 10q-10 -39 -20 -71q-10 -29 -19.5 -56.5t-15.5 -40.5q-6 -2 -38 10.5t-68 28t-66.5 29.5 t-32.5 16q6 27 17.5 65t23.5 73q14 41 31 86q-12 12 -25 26q-10 10 -21.5 23.5t-17.5 23.5q-20 29 -32.5 59.5t-20.5 65.5q-16 72 -18.5 150zM274.5 489q-0.5 -47 4.5 -73q4 -31 10 -41q18 41 36.5 101.5t38 125t40 123.5t38.5 98q4 18 11.5 45t17.5 50q10 27 23 55 q-2 0 -5 -2q-4 -4 -10 -2q-2 4 1 6t-3 2q-41 8 -56 -8.5t-30 -38.5q-16 -27 -32.5 -67t-32 -84t-26.5 -87t-15 -74q-10 -82 -10.5 -129zM473 199q10 -4 20.5 1t20.5 9q45 25 84 64.5t51 86.5q14 49 24.5 98.5t16.5 94.5t8 82t-2 59q-10 66 -27.5 109t-15.5 43 q-8 -37 -22.5 -86t-29.5 -100.5t-29.5 -99.5t-24.5 -83q-20 -70 -42 -138.5t-32 -139.5z" />
<glyph unicode="&#xf9;" horiz-adv-x="913" d="M100 835.5q0 77.5 1 133t1 69.5v76t7 76q16 8 41.5 11t53 3t53.5 -4t44 -10q6 -4 6 -25.5t-2 -27.5q0 -6 -3 -50.5t-6 -110t-6 -140t-6 -142t-5.5 -118t-2.5 -62.5q2 -51 -1 -103.5t20 -101.5q6 -12 12 -26.5t17 -24.5q6 -6 26.5 -17.5t50 -17.5t67.5 -4t81 21 q18 10 31.5 28.5t19.5 36.5q14 35 20.5 73t8.5 77q4 88 2 175t-4 175q-2 86 -7.5 172t-15.5 172q-6 51 60 55q18 0 36.5 2t36.5 4h13.5h24.5h25.5t16.5 -2q4 -4 5 -41t0 -86t-2 -100t1 -82q2 -72 0 -145.5t-4 -147.5q-2 -137 10.5 -272t16.5 -275q-6 -2 -6 -5t-4 -9 q-23 -16 -54.5 -14t-60.5 0q-35 -4 -42 14t-20 41q2 -4 -11 -16.5t-17 -14.5q-25 -20 -51 -32q-16 -8 -39 -11.5t-41 -7.5q-37 -10 -78 -6q-37 4 -75 16.5t-73 30.5q-27 14 -51 40t-41 50q-20 29 -30.5 60.5t-20.5 64.5q-10 27 -15 90.5t-8.5 145.5t-4.5 172t-1 167.5z M342 1515.5q-4 10.5 2 18.5q18 23 55 28t62 7q16 0 25.5 -15.5t14.5 -37t6 -43t3 -31.5q2 -20 6 -43t0 -41q-8 -33 -33.5 -33t-42.5 23q-18 25 -30.5 53.5t-28.5 54.5q-4 6 -12.5 16.5t-15.5 21.5t-11 21.5z" />
<glyph unicode="&#xfa;" horiz-adv-x="950" d="M100 835.5q0 77.5 1 133t1 69.5v76t7 76q16 8 41.5 11t53 3t53.5 -4t44 -10q6 -4 6 -25.5t-2 -27.5q0 -6 -3 -50.5t-6 -110t-6 -140t-6 -142t-5.5 -118t-2.5 -62.5q2 -51 -1 -103.5t20 -101.5q6 -12 12 -26.5t17 -24.5q6 -6 26.5 -17.5t50 -17.5t67.5 -4t81 21 q18 10 31.5 28.5t19.5 36.5q14 35 20.5 73t8.5 77q4 88 2 175t-4 175q-2 86 -7.5 172t-15.5 172q-6 51 60 55q18 0 36.5 2t36.5 4h13.5h24.5h25.5t16.5 -2q4 -4 5 -41t0 -86t-2 -100t1 -82q2 -72 0 -145.5t-4 -147.5q-2 -137 10.5 -272t16.5 -275q-6 -2 -6 -5t-4 -9 q-23 -16 -54.5 -14t-60.5 0q-35 -4 -42 14t-20 41q2 -4 -11 -16.5t-17 -14.5q-25 -20 -51 -32q-16 -8 -39 -11.5t-41 -7.5q-37 -10 -78 -6q-37 4 -75 16.5t-73 30.5q-27 14 -51 40t-41 50q-20 29 -30.5 60.5t-20.5 64.5q-10 27 -15 90.5t-8.5 145.5t-4.5 172t-1 167.5z M395 1335q-2 20 6.5 55t20.5 71t24.5 67t20.5 41q29 4 63.5 5t69.5 -5q8 -8 -3 -49t-29.5 -86t-36 -82t-21.5 -37q-33 -4 -63.5 1t-51.5 19z" />
<glyph unicode="&#xfb;" horiz-adv-x="901" d="M100 835.5q0 77.5 1 133t1 69.5v76t7 76q16 8 41.5 11t53 3t53.5 -4t44 -10q6 -4 6 -25.5t-2 -27.5q0 -6 -3 -50.5t-6 -110t-6 -140t-6 -142t-5.5 -118t-2.5 -62.5q2 -51 -1 -103.5t20 -101.5q6 -12 12 -26.5t17 -24.5q6 -6 26.5 -17.5t50 -17.5t67.5 -4t81 21 q18 10 31.5 28.5t19.5 36.5q14 35 20.5 73t8.5 77q4 88 2 175t-4 175q-2 86 -7.5 172t-15.5 172q-6 51 60 55q18 0 36.5 2t36.5 4h13.5h24.5h25.5t16.5 -2q4 -4 5 -41t0 -86t-2 -100t1 -82q2 -72 0 -145.5t-4 -147.5q-2 -137 10.5 -272t16.5 -275q-6 -2 -6 -5t-4 -9 q-23 -16 -54.5 -14t-60.5 0q-35 -4 -42 14t-20 41q2 -4 -11 -16.5t-17 -14.5q-25 -20 -51 -32q-16 -8 -39 -11.5t-41 -7.5q-37 -10 -78 -6q-37 4 -75 16.5t-73 30.5q-27 14 -51 40t-41 50q-20 29 -30.5 60.5t-20.5 64.5q-10 27 -15 90.5t-8.5 145.5t-4.5 172t-1 167.5z M186.5 1416q-0.5 9 12.5 24q20 20 39.5 40.5t42.5 41.5l118 110q10 10 22.5 17.5t24.5 17.5l21 12q18 8 33 -8q59 -59 123.5 -116.5t134.5 -106.5q14 -8 24 -23q16 -16 0 -30q-23 -20 -46 -41t-46 -39q-16 -14 -31 0l-24 18l-117 109q-8 6 -14.5 12t-20.5 10 q-33 -25 -65.5 -47t-61.5 -49l-32 -31q-4 -4 -8.5 -8t-8.5 -8q-16 -10 -23.5 -10t-19.5 12q-16 16 -32.5 33.5t-32.5 36.5q-12 14 -12.5 23z" />
<glyph unicode="&#xfc;" horiz-adv-x="950" d="M100 835.5q0 77.5 1 133t1 69.5v76t7 76q16 8 41.5 11t53 3t53.5 -4t44 -10q6 -4 6 -25.5t-2 -27.5q0 -6 -3 -50.5t-6 -110t-6 -140t-6 -142t-5.5 -118t-2.5 -62.5q2 -51 -1 -103.5t20 -101.5q6 -12 12 -26.5t17 -24.5q6 -6 26.5 -17.5t50 -17.5t67.5 -4t81 21 q18 10 31.5 28.5t19.5 36.5q14 35 20.5 73t8.5 77q4 88 2 175t-4 175q-2 86 -7.5 172t-15.5 172q-6 51 60 55q18 0 36.5 2t36.5 4h13.5h24.5h25.5t16.5 -2q4 -4 5 -41t0 -86t-2 -100t1 -82q2 -72 0 -145.5t-4 -147.5q-2 -137 10.5 -272t16.5 -275q-6 -2 -6 -5t-4 -9 q-23 -16 -54.5 -14t-60.5 0q-35 -4 -42 14t-20 41q2 -4 -11 -16.5t-17 -14.5q-25 -20 -51 -32q-16 -8 -39 -11.5t-41 -7.5q-37 -10 -78 -6q-37 4 -75 16.5t-73 30.5q-27 14 -51 40t-41 50q-20 29 -30.5 60.5t-20.5 64.5q-10 27 -15 90.5t-8.5 145.5t-4.5 172t-1 167.5z M298 1388.5q-1 26.5 15 53.5t41 37q35 14 70 -19q12 -12 13 -29.5t-6 -34t-18.5 -30.5t-21.5 -23q-49 -12 -70.5 3.5t-22.5 42zM506 1432.5q14 25.5 39.5 37t54.5 3t45 -45.5q10 -25 3 -43t-25 -28q-27 -16 -63 -11t-52 33q-16 29 -2 54.5z" />
<glyph unicode="&#xfd;" horiz-adv-x="415" d="M104 1130q-2 20 6.5 55.5t20.5 71t24.5 66.5t20.5 41q29 4 63.5 5t69.5 -5q8 -8 -3 -49t-29.5 -86t-36 -82t-21.5 -37q-33 -4 -63.5 1t-51.5 19z" />
<glyph unicode="&#xfe;" horiz-adv-x="819" d="M103 941.5q3 117.5 14 236.5q4 53 8 104t4 104q0 47 -6 95.5t8 95.5q23 16 62.5 20.5t66.5 -6.5q20 -8 28.5 -32.5t9.5 -53t-3 -58.5t-6 -46q-2 -10 -2 -47v-79v-75t-2 -33q51 12 105 14.5t103.5 -11t91.5 -43t70 -80.5q47 -82 55.5 -180.5t2.5 -190.5 q-4 -49 -10.5 -99.5t-12.5 -99.5q-10 -66 -15 -132t-26 -128q-10 -27 -22.5 -50.5t-30.5 -43.5l-23.5 -23.5t-27.5 -19.5q-10 -6 -19.5 -8t-15.5 -13q-51 -4 -105.5 -9t-103.5 18v-35t1 -76t1 -96t-1 -96.5t-2 -76t-5 -32.5q-14 -2 -34.5 -6t-42 -5t-42 0t-35.5 9 q-4 2 -7 31.5t-5 73.5t-2 95.5v95.5v75.5v35.5l-4 134q-4 129 -9 254.5t-10 255.5q-4 119 -1 236.5zM262.5 889.5q-0.5 -31.5 1.5 -60.5q2 -41 2 -78.5v-76.5q2 -72 5 -139.5t8 -139.5q2 -27 4 -55.5t16 -52.5q18 -31 37.5 -40t52.5 -16q53 -8 84 18.5t41 80.5 q20 123 19 245.5t6 245.5q2 27 1 53.5t-7.5 52t-20.5 46t-41 35.5q-51 29 -107 9t-85 -69q-16 -27 -16.5 -58.5z" />
<glyph unicode="&#xff;" horiz-adv-x="845" d="M104 1157q0 47 7 53q25 -2 70.5 -2t72.5 2q23 -59 20.5 -124.5t-6.5 -124.5q0 -29 2 -89.5t6.5 -128t9.5 -129t9 -88.5q6 -43 9 -87t26 -83q12 -25 38.5 -50t55.5 -25q14 0 29.5 7t30 18t24.5 21.5t14 16.5q23 33 27 70t10 71q2 10 3 53.5t1 103.5t-2 129t-3 131.5 t-3 110.5t-4 64q-2 14 -4 28.5t2 31.5q2 14 -3 33.5t3 29.5q33 16 81 16.5t91 -4.5q14 -59 17 -120.5t3 -124t-3 -124t-1 -122.5l4 -146q4 -78 -2 -156.5t-6 -156.5q0 -33 -1 -64.5t-3 -64.5q-4 -59 -18.5 -114.5t-36.5 -112.5q-31 -76 -76 -116t-89 -58.5t-79 -20.5t-41 -2 t-23.5 7.5t-36 15.5t-36 17t-25.5 15q-16 10 -23 15.5t-12 25.5q2 4 6.5 16.5t8.5 16.5q6 8 15 24.5t20.5 33t22.5 31t20 16.5q33 -18 61.5 -39t67.5 -10q25 6 41 25.5t26 45t14.5 52t4.5 49.5q-68 -41 -147 -27t-138 65q-35 31 -57.5 70t-37 83t-21.5 90t-13 91 q-16 102 -16 204.5t2 207.5q0 27 -2 84t-4.5 116.5t-2.5 106.5zM259 1355.5q-1 26.5 15 53.5t41 37q35 14 70 -19q12 -12 13 -29.5t-6 -33.5t-18.5 -30.5t-21.5 -22.5q-49 -12 -70.5 3t-22.5 41.5zM467 1400q14 25 39.5 36.5t54.5 3.5t45 -45q10 -25 3 -43.5t-25 -28.5 q-27 -16 -63 -11t-52 34t-2 54z" />
<glyph unicode="&#x152;" horiz-adv-x="1396" d="M104 924q-2 59 1.5 120.5t9.5 122.5q0 8 2 15.5t4 15.5q10 35 16 70t23 65l49 94q6 12 16 23q31 29 64 54.5t71 41.5q27 10 50.5 21.5t52.5 15.5q16 4 24 4q29 -2 55.5 -4t53.5 -6q55 -8 104 -51q4 -4 9.5 -10.5t15.5 -4.5q2 6 2 19v45q0 31 10.5 42t34.5 17 q31 8 60.5 13.5t60.5 5.5q43 0 86 1t84 -1q47 -4 95 -5t95 1q31 0 29 -31q0 -8 -4 -25q-4 -23 -5 -44t-1 -44q2 -25 -6.5 -33t-30.5 -12q-33 -4 -63.5 -6t-63.5 -4l-166 -8q-18 -2 -23.5 -8.5t-9.5 -24.5q-2 -16 -2 -30.5v-30.5q-4 -51 -6 -101.5t-4 -101.5v-45.5t-2 -44.5 q0 -41 -1 -83t-3 -83q0 -16 2 -31.5t8 -32.5q12 -8 26.5 -9t28.5 -1q29 0 55.5 1t53.5 3q16 2 29.5 2t27.5 -8q8 -16 10.5 -33.5t4.5 -36.5v-32.5t-2 -32.5q0 -23 -8.5 -30t-30.5 -9q-33 0 -64 -1t-63 -3q-14 0 -27.5 -2t-28.5 -10q-4 -12 -4 -19q4 -59 5 -116.5t6 -114.5 q6 -55 5 -110.5t7 -112.5q16 -4 28.5 -4.5t26.5 -0.5q41 2 84 2t86 -4q23 -2 46.5 0t45.5 4q16 2 22.5 -2t8.5 -20q8 -63 12 -133q2 -31 -30 -31h-29.5t-28.5 4q-35 6 -68.5 5t-68.5 -5q-98 -12 -190 2q-10 2 -19.5 2h-19.5q-16 -2 -30.5 -3t-31.5 -1q-16 0 -22 6t-11 23 q-4 10 -4 20.5v20.5v33.5t-2 33.5q0 12 -2 23l-20 -10l-47 -45q-29 -25 -62 -42.5t-74 -17.5q-57 -12 -108 0.5t-105 32.5q-25 8 -45 33q-37 39 -63.5 84t-44.5 94q-39 106 -49 223l-11 170v96v91.5t-2 89.5zM295 782l14 -305q2 -59 20.5 -112.5t49.5 -100.5 q14 -20 30.5 -33.5t36.5 -25.5q29 -23 66 -19q51 4 91 24.5t67 68.5l26 40q23 35 27 80v166q0 45 -1 89t-1 89q0 41 2 82l4 82q0 74 -2 147.5t0 149.5q0 41 -15.5 74t-39.5 61q-20 20 -49 33q-51 23 -100.5 18.5t-96.5 -24.5q-29 -12 -43 -37l-33 -57q-35 -53 -39 -121 q-6 -68 -6 -135q-4 -59 -5 -119.5t-3 -114.5z" />
<glyph unicode="&#x153;" horiz-adv-x="1325" d="M103 502q-3 106 10 217q6 59 16 116.5t23 114.5q10 51 31.5 95.5t49.5 87.5q53 80 150 102q29 6 56.5 10t56.5 4q51 2 93 -17.5t79 -51.5l55 -52q6 4 12 8.5t10 8.5q23 16 46.5 28.5t52.5 18.5q59 14 111.5 2t99.5 -47q41 -29 67.5 -66t48.5 -77q10 -18 15 -48 q8 -41 13 -84t7 -86q2 -41 3 -80.5t5 -80.5v-21q-2 -18 -22 -24q-4 -2 -12 -2q-25 -2 -50.5 -3.5t-50.5 -1.5h-268q-31 0 -37 -6t-8 -37q0 -61 4 -122.5t10 -120.5q0 -8 4 -21q4 -41 30 -58.5t60 -23.5q16 -2 31 -2h31q39 2 63 33q14 18 20.5 38.5t10.5 43.5q4 20 5 38.5 t3 39.5q2 23 27 22l121 -4q25 -2 28 -24q14 -51 3 -97q-14 -45 -26.5 -88t-35.5 -84q-35 -63 -101.5 -102t-142.5 -29q-51 6 -100 20.5t-96 39.5q-12 8 -24.5 17.5t-26.5 19.5q-25 -27 -64 -45.5t-81 -28.5t-82 -11t-68 9q-18 4 -27 10q-53 31 -97 73t-75 95 q-16 29 -25.5 58.5t-15.5 60.5q-23 109 -26 215zM272 553l9 -127q6 -88 41 -170q18 -41 56 -65.5t91 -2.5q6 0 8 2q47 14 66 66q16 41 25.5 85t13.5 89q4 39 6 78t6 80q2 29 2 56.5v55.5q2 23 3 45.5t-1 45.5q0 27 -2 52t-6 52q-2 25 -23 51q-29 45 -69.5 63.5t-94.5 14.5 q-39 -6 -61 -37q-20 -29 -27 -72l-12 -59q-8 -18 -10 -35q-10 -72 -18.5 -139.5t-2.5 -128.5zM756 866.5q0 -32.5 4 -67.5q0 -9 6 -21q16 2 32.5 2h32.5l170 -8q16 -2 21.5 2t7.5 21q2 16 2 30.5v30.5q4 49 -16.5 87t-54.5 69q-10 10 -23.5 17t-28.5 7q-41 4 -74.5 -10 t-54.5 -51q-6 -10 -9 -21.5t-7 -21.5q-8 -33 -8 -65.5z" />
<glyph unicode="&#x178;" horiz-adv-x="958" d="M104 1606q-2 12 25 24t60.5 18.5t65.5 5.5t38 -14q2 -4 16.5 -50t35 -112.5t45 -143.5t46 -142.5t36.5 -110.5t20 -47q4 4 19 48t36.5 107.5t45 137.5t44 139.5t34 112.5t13.5 59q12 20 34.5 19.5t41.5 -4.5q20 -2 44.5 1t45.5 -7q8 -4 3 -32t-16.5 -62.5t-22.5 -66.5 t-13 -42q-6 -18 -22.5 -76.5t-40 -137.5t-48 -166t-46 -163t-37 -131.5t-15.5 -69.5q0 -6 1 -56t1 -124v-159t-1 -157.5t-4 -123.5t-7 -57q-8 -10 -25.5 -6.5t-30.5 1.5q-16 -2 -32.5 -7t-32.5 -1q-6 6 -8 49t-2 97.5t1 105.5t1 76q0 20 -2 69.5t-5.5 104.5t-6.5 104.5 t-5 71.5q-8 70 -41 137q-6 12 -18.5 45t-29.5 77t-36.5 95.5t-37 101.5t-33 93t-23.5 72q-10 37 -24.5 72.5t-28.5 72.5q-8 18 -14.5 36.5t-12.5 39.5q-6 18 -16 36.5t-15 39.5zM310 1800.5q-1 26.5 15.5 53t41.5 36.5q35 14 69 -18q12 -12 13.5 -29.5t-6 -34t-18.5 -31 t-22 -22.5q-49 -12 -70.5 3.5t-22.5 42zM518 1844.5q14 25.5 40 36.5t54.5 3t44.5 -45q10 -25 3 -43.5t-25 -28.5q-27 -16 -62.5 -11t-52.5 34q-16 29 -2 54.5z" />
<glyph unicode="&#x2c6;" horiz-adv-x="808" d="M102.5 1362.5q-0.5 9.5 12.5 23.5q20 20 39.5 41t42.5 41l118 111q10 10 22.5 17.5t24.5 17.5l21 12q18 8 33 -8q59 -59 123.5 -116.5t134.5 -106.5q14 -8 24 -23q16 -16 0 -31q-23 -20 -46 -40.5t-46 -38.5q-16 -14 -31 0l-24 18l-117 109q-8 6 -14.5 12t-20.5 10 q-33 -25 -65.5 -47.5t-61.5 -48.5l-32 -31q-4 -4 -8.5 -8t-8.5 -8q-16 -10 -23 -10.5t-20 12.5q-16 16 -32.5 33.5t-32.5 35.5q-12 14 -12.5 23.5z" />
<glyph unicode="&#x2dc;" horiz-adv-x="827" d="M102.5 1518.5q-0.5 17.5 10.5 25.5q16 20 32 31q20 12 41 25.5t43 19.5q10 2 19.5 4t19.5 2q35 -2 68 -8t63 -27q23 -16 48.5 -26.5t52.5 -18.5q10 -4 30 -8q41 -6 66 21l41 36q12 10 29 2l4 -4q16 -16 31.5 -43.5t23.5 -50.5q-2 -16 -20 -35q-16 -16 -36 -29.5 t-42 -23.5q-31 -14 -70 -14q-27 2 -51.5 5t-46.5 13q-20 8 -38 17.5t-36 19.5q-10 4 -18.5 10t-18.5 13q-45 25 -104 8q-23 -6 -39 -25l-7 -7t-8 -7q-20 -20 -40 -2l-41 49q-6 10 -6.5 27.5z" />
<glyph unicode="&#x2000;" horiz-adv-x="1059" />
<glyph unicode="&#x2001;" horiz-adv-x="2118" />
<glyph unicode="&#x2002;" horiz-adv-x="1059" />
<glyph unicode="&#x2003;" horiz-adv-x="2118" />
<glyph unicode="&#x2004;" horiz-adv-x="706" />
<glyph unicode="&#x2005;" horiz-adv-x="529" />
<glyph unicode="&#x2006;" horiz-adv-x="353" />
<glyph unicode="&#x2007;" horiz-adv-x="353" />
<glyph unicode="&#x2008;" horiz-adv-x="264" />
<glyph unicode="&#x2009;" horiz-adv-x="423" />
<glyph unicode="&#x200a;" horiz-adv-x="117" />
<glyph unicode="&#x2010;" horiz-adv-x="884" d="M102 649q2 31 1 61.5t-1 63.5q0 25 9 31q4 2 12 2l141 -4h430q16 -2 29.5 -4t30.5 -6q6 0 18 -9q6 -4 6 -22q2 -35 3 -67.5t1 -65.5q0 -39 -14 -39h-22.5t-22.5 2q-2 0 -24.5 2t-57.5 4t-75 4t-78.5 5t-69.5 4t-45 3q-12 0 -42 1t-61.5 1h-60.5h-41h-13.5t-13.5 -4 q-8 -4 -15 -1t-15 5q-4 0 -6.5 10.5t-2.5 22.5z" />
<glyph unicode="&#x2011;" horiz-adv-x="884" d="M102 649q2 31 1 61.5t-1 63.5q0 25 9 31q4 2 12 2l141 -4h430q16 -2 29.5 -4t30.5 -6q6 0 18 -9q6 -4 6 -22q2 -35 3 -67.5t1 -65.5q0 -39 -14 -39h-22.5t-22.5 2q-2 0 -24.5 2t-57.5 4t-75 4t-78.5 5t-69.5 4t-45 3q-12 0 -42 1t-61.5 1h-60.5h-41h-13.5t-13.5 -4 q-8 -4 -15 -1t-15 5q-4 0 -6.5 10.5t-2.5 22.5z" />
<glyph unicode="&#x2012;" horiz-adv-x="884" d="M102 649q2 31 1 61.5t-1 63.5q0 25 9 31q4 2 12 2l141 -4h430q16 -2 29.5 -4t30.5 -6q6 0 18 -9q6 -4 6 -22q2 -35 3 -67.5t1 -65.5q0 -39 -14 -39h-22.5t-22.5 2q-2 0 -24.5 2t-57.5 4t-75 4t-78.5 5t-69.5 4t-45 3q-12 0 -42 1t-61.5 1h-60.5h-41h-13.5t-13.5 -4 q-8 -4 -15 -1t-15 5q-4 0 -6.5 10.5t-2.5 22.5z" />
<glyph unicode="&#x2013;" horiz-adv-x="884" d="M102 649q2 31 1 61.5t-1 63.5q0 25 9 31q4 2 12 2l141 -4h430q16 -2 29.5 -4t30.5 -6q6 0 18 -9q6 -4 6 -22q2 -35 3 -67.5t1 -65.5q0 -39 -14 -39h-22.5t-22.5 2q-2 0 -24.5 2t-57.5 4t-75 4t-78.5 5t-69.5 4t-45 3q-12 0 -42 1t-61.5 1h-60.5h-41h-13.5t-13.5 -4 q-8 -4 -15 -1t-15 5q-4 0 -6.5 10.5t-2.5 22.5z" />
<glyph unicode="&#x2014;" horiz-adv-x="1318" d="M105 746.5q-3 23.5 1 46.5q12 14 30 13t34 1q14 2 26.5 3t26.5 1q35 4 69 4t68 2h138.5t140.5 -2q78 0 156.5 -4t156.5 -8q35 -2 72 -2h74q27 0 54.5 -2t53.5 4q10 -25 8 -56.5t-2 -58.5q0 -20 4.5 -53t-10.5 -49q-160 0 -318.5 25.5t-316.5 31.5q-82 4 -161.5 1 t-159.5 -7l-76 -4q-12 0 -29.5 -4t-29.5 4q-10 4 -9.5 29.5t0.5 37.5q2 23 -1 46.5z" />
<glyph unicode="&#x2018;" horiz-adv-x="397" d="M106 1544q10 10 12.5 28.5t20.5 33.5q4 10 17.5 25.5t33.5 4.5q12 -23 0 -31t-22 -18q-12 -14 -15.5 -29t-5.5 -40q16 8 19.5 21t15.5 22q10 6 22.5 8t22.5 0q29 0 44.5 -16.5t20.5 -39t0 -47t-20 -41.5q-31 -39 -64.5 -39t-58 23t-38 60.5t-5.5 74.5z" />
<glyph unicode="&#x2019;" horiz-adv-x="51" d="M-81 1631.5q3 19.5 13 35.5q16 27 41 32t48.5 -4t42 -29.5t24.5 -47.5q4 -23 1 -49.5t-11 -46.5q-4 -10 -10.5 -22.5t-12.5 -20.5q-10 -12 -23.5 -24.5t-29.5 -0.5q-2 18 6 31.5t18.5 26t18.5 26.5t4 35q-14 -10 -30.5 -22.5t-45.5 -6.5q-20 4 -33.5 17.5t-18.5 32t-2 38 z" />
<glyph unicode="&#x201a;" horiz-adv-x="397" d="M104 123q2 20 15.5 36.5t33 26t42 10.5t43.5 -12q16 -14 33.5 -35.5t21.5 -58.5q2 -31 -8.5 -64.5t-38.5 -52.5q-8 -4 -28.5 -16t-37.5 -8q-4 8 -9 18.5t-3 16.5q8 4 14 6t23 8q27 12 31 49q-23 -14 -46.5 -13t-43 13t-32 31.5t-10.5 44.5z" />
<glyph unicode="&#x201c;" horiz-adv-x="604" d="M104.5 1493q-4.5 37 6 75t32.5 60q23 23 36.5 33t23.5 18q8 4 23.5 -7t19.5 -25q-29 -25 -49.5 -42.5t-30.5 -52.5q14 10 30.5 12.5t41.5 -10.5q16 -14 26 -35.5t6 -52.5q-4 -18 -16 -34q-14 -8 -27.5 -15.5t-33.5 -9.5q-41 -4 -62.5 22.5t-26 63.5zM311 1511 q-2 29 8.5 63t38.5 52q6 4 28 17.5t36 7.5q6 -8 11 -18.5t1 -16.5q-6 -4 -12 -6t-23 -8q-29 -12 -30 -50q20 14 44.5 13.5t44 -13t32 -32t10.5 -41.5q-2 -23 -15.5 -39.5t-33 -25.5t-42 -9t-42.5 10q-18 14 -36 36t-20 60z" />
<glyph unicode="&#x201d;" horiz-adv-x="550" d="M107 1636.5q12 36.5 28 59.5q25 23 61.5 14.5t51.5 -39.5q31 -74 8 -143q-4 -14 -10 -27.5t-10 -21.5q-4 -6 -16.5 -14.5t-24 -11.5t-20.5 2t-7 24q0 10 6 16t12.5 12t11.5 14.5t3 20.5q-23 -10 -49.5 -4t-40.5 31q-16 31 -4 67.5zM288 1605.5q-1 22.5 5 44t17.5 40 t27.5 24.5q23 8 43 0t35.5 -26.5t24 -42t5.5 -41.5q-4 -41 -13 -77t-34 -59q-2 -2 -10 -8t-17.5 -13t-18.5 -11t-15 -4q-10 4 -16.5 13t-4.5 19q2 12 12.5 19.5t21.5 15.5t19.5 17.5t6.5 25.5q-25 -2 -42.5 7.5t-35.5 19.5q-10 14 -11 36.5z" />
<glyph unicode="&#x201e;" horiz-adv-x="550" d="M107 94.5q12 36.5 28 59.5q25 23 61.5 14.5t51.5 -39.5q31 -74 8 -143q-4 -14 -10 -27.5t-10 -21.5q-4 -6 -16.5 -14.5t-24 -11.5t-20.5 2t-7 24q0 10 6 16t12.5 12t11.5 14.5t3 20.5q-23 -10 -49.5 -4t-40.5 31q-16 31 -4 67.5zM288 63.5q-1 22.5 5 44t17.5 40 t27.5 24.5q23 8 43 0t35.5 -26.5t24 -42t5.5 -42.5q-4 -41 -13 -76.5t-34 -58.5q-2 -2 -10 -8t-17.5 -13t-18.5 -11.5t-15 -4.5q-10 4 -16.5 13.5t-4.5 19.5q2 12 12.5 19.5t21.5 15.5t19.5 17.5t6.5 25.5q-25 -2 -42.5 7t-35.5 20q-10 14 -11 36.5z" />
<glyph unicode="&#x2022;" horiz-adv-x="495" d="M104.5 840.5q6.5 31.5 16.5 50.5q10 18 24.5 32.5t32.5 20.5q35 12 78 8t74 -26q23 -14 40 -37t21 -51q4 -39 -9 -63t-36 -40q-29 -16 -63.5 -22t-69.5 -2q-27 0 -40 5t-32 23q-12 12 -21 21.5t-14 25.5q-8 23 -1.5 54.5z" />
<glyph unicode="&#x2026;" horiz-adv-x="784" d="M103 79.5q3 24.5 23.5 44t55.5 23.5q-2 -2 -8 -2h6q49 6 70.5 -21.5t18.5 -60t-29.5 -56t-75.5 -7.5q-35 10 -49.5 32.5t-11.5 47zM329 53.5q-1 26.5 15 53t41 36.5q35 14 70 -18q12 -12 13 -29.5t-6 -34t-18.5 -31t-21.5 -22.5q-49 -12 -70.5 3.5t-22.5 42zM537 97.5 q14 25.5 39.5 36.5t54 3t45.5 -45q10 -25 2.5 -43.5t-25.5 -28.5q-27 -16 -62.5 -11t-51.5 34t-2 54.5z" />
<glyph unicode="&#x202f;" horiz-adv-x="423" />
<glyph unicode="&#x2039;" horiz-adv-x="716" d="M104 586.5q-2 21.5 11 40.5q66 92 128 182t124 184q23 35 43 69t51 62q18 18 37.5 17.5t38 -11t38 -26t37.5 -23.5q2 -8 -19.5 -44t-56 -88t-76.5 -111.5t-77 -112.5t-58.5 -92t-23.5 -51t19.5 -49t48 -86.5t62.5 -105.5t65.5 -105.5t57.5 -86t36 -47.5q-2 -6 -9.5 -19 t-17.5 -27.5t-21.5 -28t-17.5 -19.5q-27 -23 -48 -12.5t-40 33.5q-16 20 -41.5 56t-53.5 79t-56.5 90t-54 89t-44 74t-26.5 46q-10 16 -22.5 36.5t-22 43t-11.5 44z" />
<glyph unicode="&#x203a;" horiz-adv-x="714" d="M102 1092q2 8 16.5 19t33 20.5t38 16.5t31.5 7q6 0 38 -42t75 -105.5t90 -137t88 -137t67.5 -107.5t28.5 -48q6 -16 2 -23.5t-2 -22.5q-18 -27 -44.5 -68.5t-57.5 -91.5t-61.5 -101.5t-56.5 -95.5t-44 -75.5t-22 -40.5q-8 -10 -17.5 -33.5t-21.5 -29.5q-18 -8 -38 -4 t-39.5 13t-36.5 20.5t-30 19.5q-4 8 13.5 46t46 89t63.5 110.5t66.5 111t53 87t24.5 41.5q4 10 -7.5 41t-32 73t-47 89t-55 91t-56.5 82t-48 59q-14 33 -32.5 61.5t-25.5 65.5z" />
<glyph unicode="&#x205f;" horiz-adv-x="529" />
<glyph unicode="&#x20ac;" horiz-adv-x="1105" d="M105.5 671.5q0.5 24.5 23.5 28.5q25 2 45.5 -8t46.5 0q4 41 3 92.5t-17 87.5q-16 4 -33.5 2t-34.5 3q-2 6 -9 11t-7 15q4 66 0 125q14 14 37.5 12t46.5 0q4 51 11 101.5t11 101.5q4 35 9.5 66.5t19.5 64.5q31 68 85 123t123 87t143.5 37t146.5 -26q53 -25 100 -60.5 t80 -84.5q12 -20 27.5 -50t26.5 -63.5t13 -65.5t-12 -57q-16 -6 -31.5 -5t-35.5 -3q-16 -4 -33 -9t-29 -1q-8 0 -27.5 12.5t-23.5 20.5q-18 33 -27.5 67.5t-35.5 63.5q-37 41 -98.5 60.5t-114.5 -5.5q-57 -29 -84 -85t-37 -113q0 -6 -4 -35t-8.5 -62t-6.5 -59.5t0 -26.5 q63 4 124 -2t145 0q23 2 48 7t50 5q29 2 61.5 0t46.5 -14q10 -35 8.5 -67.5t-6.5 -77.5q-4 -4 -8 -8.5t-8 -10.5q-47 -2 -94 -9t-105 -5q-10 2 -19 5t-20 3q-35 4 -71.5 0t-71.5 0q-23 2 -42 6t-40 4q4 -43 4 -91t-2 -93q35 -4 70 -3t70 1t66.5 2t62.5 4q4 0 9 -2t9 -2 q35 0 80 1t88 3q10 -10 18 -10q6 -16 3 -30.5t-3 -35.5q-8 -6 -10 -17t-4 -24.5t-5 -25.5t-11 -19q-10 -6 -32 -4t-36 2q-53 0 -103.5 -5t-101.5 -3h-30.5t-53 1t-51 3t-24.5 8q6 -35 5 -69.5t7 -69.5t18 -68.5t28.5 -63.5t45.5 -49.5t68 -21.5q45 -4 93 5.5t87 33.5 q23 14 29 30.5t8 43.5q2 18 6 42t33 24q29 2 70.5 -7.5t64.5 -5.5q10 -8 11 -19t5 -22q-4 -10 -7 -18t1 -16q-12 -45 -31.5 -81t-38.5 -73q-16 -23 -38.5 -38t-45.5 -32q-29 -4 -56.5 -17t-61.5 -20q-74 -14 -148 -2.5t-135.5 45t-105.5 90t-62 134.5q-2 8 -5 49t-6 88 t-6 85t-6 38q-51 4 -82.5 12t-41.5 61q-4 29 -3.5 53.5z" />
<glyph unicode="&#x2122;" horiz-adv-x="1114" d="M106 1571q-6 37 5 80q6 27 39 26q25 0 48 -1t46 -1q35 0 68.5 1t68.5 1q10 0 18.5 1t18.5 -1q27 -2 28 -28q2 -18 3.5 -36t1.5 -36q2 -31 -27 -31q-8 -2 -14.5 -1t-14.5 1h-15.5t-17.5 -2q-2 -10 -3 -16t-1 -15v-59q2 -63 2 -125.5t5 -126.5q4 -33 5 -63.5t3 -61.5v-27.5 t-2 -25.5q0 -23 -21 -29q-27 -4 -53.5 -6t-52.5 15l-6 8q2 16 2 34.5v36.5q0 29 1 55.5t-1 53.5q-2 35 -4.5 66.5t0.5 64.5q4 55 -1.5 109.5t-5.5 109.5q0 2 -1 3t-1 5q-20 4 -39.5 4h-40.5h-20q-16 0 -21 17zM500 1421q-4 59 0 116.5t2 115.5q0 2 1 3t1 3q4 2 8 5t8 3 q23 0 46.5 -1t47.5 -1l123 -270q12 12 33 43.5t42.5 69.5t38.5 74t23 58q43 16 91 13q27 0 26 -29q2 -31 3 -61.5t1 -61.5q-2 -31 -4 -62.5t-2 -62.5v-49t2 -49q2 -35 5 -68.5t8 -68.5l8 -121q0 -31 -25 -31q-25 -2 -48.5 -3t-45.5 -1h-21q-12 4 -16 16q-4 16 -4 27 q0 29 1 57.5t1 57.5q0 31 -2 62.5t-4 66.5q-14 -20 -18.5 -41t-10.5 -39q-8 -18 -14 -37.5t-10 -36.5q-16 -10 -30.5 -7t-29.5 3q-20 43 -36.5 90t-43.5 94q-2 -10 -2 -16v-10v-82q0 -14 -1 -28.5t-1 -31.5v-77q0 -12 -2 -24.5t-4 -22.5q-4 -20 -22 -21l-103 -4q-2 0 -4 2 t-6 4q0 4 -1 11.5t-1 13.5q-10 104 -7 205.5t-1 203.5z" />
<glyph unicode="&#x25fc;" horiz-adv-x="1177" d="M0 0v1178h1178v-1178h-1178z" />
<glyph unicode="&#xfb01;" horiz-adv-x="1003" d="M18 1161.5v24.5q2 49 52 51q25 0 50 3t50 3l12 4q4 27 6 52.5t5 52.5q6 74 24 147q10 43 31.5 79t50.5 69q31 35 71 53t87 22q59 8 133 2t149 -51q20 -12 37 -31q49 -53 76 -116.5t39 -134.5q4 -23 -5 -45.5t-26.5 -40t-40 -25.5t-47.5 -2q-14 4 -27.5 8t-25.5 12 q-66 51 -37 119l6 19q8 31 -6 55q-12 18 -52 36.5t-79 24.5q-39 4 -82 -12t-53 -51q-4 -20 -8.5 -39.5t-8.5 -40.5q-4 -31 -8 -62.5t-8 -62.5v-37h27l53 -4q39 -6 45 -45q4 -20 6 -40.5t4 -41.5q0 -49 -49 -51q-16 -2 -34.5 -1t-35.5 1q-6 0 -13 -1t-17 -1q0 -12 -1 -22.5 t-3 -20.5l-17 -307q-4 -35 -6 -68t-2 -65q-2 -35 0 -68t2 -68v-49q-4 -74 0 -147.5t8 -147.5q2 -16 3 -30.5t-1 -30.5q-4 -49 -51 -49q-23 0 -45.5 2t-44.5 6q-55 8 -57 68v46t2 48l6 92q4 49 5 97t3 97q2 35 4 68t0 68q0 53 3 107t7 108l9 133q0 8 1 14t1 14l-5 84 q0 27 -26 29h-68q-66 4 -76 66q-2 12 -2 24.5zM666 101.5v31.5t1 32.5t3 33.5l18 241q2 29 2 54.5t4 52.5q10 92 9 184t-1 184q2 20 4.5 41t2.5 41q-2 39 -4.5 77t-2.5 77q-2 20 0 41q6 41 46 49q45 12 92 6q33 -2 45 -16t14 -45q2 -16 1 -32.5t1 -33.5q2 -55 -1 -110.5 t-7 -110.5q-2 -25 -2 -48.5v-45.5q4 -53 2 -105.5t-4 -105.5q-2 -111 -4 -217.5t-6 -216.5q0 -23 -2.5 -46.5t-4.5 -47.5l-6 -23q-6 -31 -39 -35q-29 -4 -55.5 -3t-52.5 9q-49 10 -51 56q-2 16 -2 31.5z" />
<glyph unicode="&#xfb02;" horiz-adv-x="1060" d="M25 1251q14 37 47 37h147l6 29l17 125q16 104 84 178q18 20 36.5 39.5t43.5 34.5l24 14q51 16 102.5 26.5t104.5 -5.5q33 -10 67.5 -18.5t69.5 -24t72 -42t72 -71.5q35 -47 34 -111q0 -27 3 -52.5t8 -51.5q8 -64 6 -127q-2 -8 -2 -25v-356q0 -41 -1 -80t-1 -80v-612 q0 -12 1 -23.5t1 -21.5q0 -29 -31 -39q-12 -4 -18 -4q-23 -2 -43.5 -3t-43.5 3q-51 2 -51 55q0 29 1 56.5t3 56.5v49t2 49q0 31 1 62.5t1 62.5l-6 201v206q0 33 1 65t1 65q2 59 2 117.5v117.5q0 16 -1 30.5t-1 30.5q2 53 1 107.5t-23 101.5q-23 41 -57.5 62.5t-69.5 30 t-61.5 8.5h-30.5q-39 -2 -64 -31q-14 -16 -25.5 -32.5t-17.5 -37.5l-37 -125q-2 -4 -2 -8t-2 -10q14 -8 26.5 -7t24.5 -1h43.5t42.5 -2h9q20 0 27 -8.5t12 -26.5v-12l-5 -107q-2 -39 -43 -41q-29 -4 -57.5 -5t-56.5 -3l-41 -6q-4 -29 -3 -54.5t1 -52.5l16 -286q6 -82 4 -163 t0 -163q2 -59 5 -117.5t6 -118.5q2 -10 2 -20v-20q0 -27 -27 -37q-10 -6 -19 -6q-31 -4 -61.5 -7.5t-60.5 -5.5q-37 0 -37 37v19.5t2 19.5q6 37 4 73t-6 70q-16 190 -6 385q0 41 -1 80t1 78q0 33 2 63.5t2 63.5q2 39 2 77v77l-4 8q-4 2 -10.5 4t-12.5 2l-47 14q-31 0 -61 6 q-33 4 -39 35q-18 66 -4 129z" />
</font>
</defs>
</svg>
